ISO-10303-21;
HEADER;
FILE_DESCRIPTION (( 'STEP AP214' ),
    '1' );
FILE_NAME ('Cubo_1m3.STEP',
    '2023-05-31T20:32:39',
    ( '' ),
    ( '' ),
    'SwSTEP 2.0',
    'SolidWorks 2015',
    '' );
FILE_SCHEMA (( 'AUTOMOTIVE_DESIGN' ));
ENDSEC;

DATA;
#1 = FACE_OUTER_BOUND ( 'NONE', #91, .T. ) ;
#2 = ORIENTED_EDGE ( 'NONE', *, *, #107, .T. ) ;
#3 = UNCERTAINTY_MEASURE_WITH_UNIT (LENGTH_MEASURE( 1.000000000000000100E-005 ), #175, 'distance_accuracy_value', 'NONE');
#4 = PRESENTATION_LAYER_ASSIGNMENT (  '', '', ( #184 ) ) ;
#5 = VECTOR ( 'NONE', #142, 1000.000000000000000 ) ;
#6 = VERTEX_POINT ( 'NONE', #194 ) ;
#7 = AXIS2_PLACEMENT_3D ( 'NONE', #32, #140, #128 ) ;
#8 = ADVANCED_BREP_SHAPE_REPRESENTATION ( 'Cubo_1m3', ( #39, #153 ), #185 ) ;
#9 = DIRECTION ( 'NONE',  ( 0.0000000000000000000, 0.0000000000000000000, 1.000000000000000000 ) ) ;
#10 = EDGE_CURVE ( 'NONE', #119, #90, #54, .T. ) ;
#11 =( NAMED_UNIT ( * ) PLANE_ANGLE_UNIT ( ) SI_UNIT ( $, .RADIAN. ) );
#12 = ORIENTED_EDGE ( 'NONE', *, *, #105, .T. ) ;
#13 = CARTESIAN_POINT ( 'NONE',  ( 500.0000000000000000, 500.0000000000000000, 500.0000000000000000 ) ) ;
#14 = CARTESIAN_POINT ( 'NONE',  ( -499.9999999999999400, -500.0000000000000000, 500.0000000000000000 ) ) ;
#15 = CARTESIAN_POINT ( 'NONE',  ( 500.0000000000000000, -499.9999999999998900, 500.0000000000000000 ) ) ;
#16 = DIRECTION ( 'NONE',  ( 1.000000000000000000, 0.0000000000000000000, -0.0000000000000000000 ) ) ;
#17 = ADVANCED_FACE ( 'NONE', ( #47 ), #191, .F. ) ;
#18 = DIRECTION ( 'NONE',  ( 1.000000000000000000, 5.551115123125782700E-017, 0.0000000000000000000 ) ) ;
#19 = PRODUCT_DEFINITION_FORMATION_WITH_SPECIFIED_SOURCE ( 'ANY', '', #25, .NOT_KNOWN. ) ;
#20 = LINE ( 'NONE', #138, #22 ) ;
#21 = APPLICATION_CONTEXT ( 'automotive_design' ) ;
#22 = VECTOR ( 'NONE', #56, 1000.000000000000000 ) ;
#23 = ORIENTED_EDGE ( 'NONE', *, *, #10, .T. ) ;
#24 = LINE ( 'NONE', #72, #183 ) ;
#25 = PRODUCT ( 'Cubo_1m3', 'Cubo_1m3', '', ( #88 ) ) ;
#26 = ORIENTED_EDGE ( 'NONE', *, *, #136, .T. ) ;
#27 =( NAMED_UNIT ( * ) SI_UNIT ( $, .STERADIAN. ) SOLID_ANGLE_UNIT ( ) );
#28 = PLANE ( 'NONE',  #170 ) ;
#29 = CARTESIAN_POINT ( 'NONE',  ( 500.0000000000000000, -499.9999999999998900, -500.0000000000000000 ) ) ;
#30 = FACE_OUTER_BOUND ( 'NONE', #59, .T. ) ;
#31 = APPLICATION_CONTEXT ( 'automotive_design' ) ;
#32 = CARTESIAN_POINT ( 'NONE',  ( -499.9999999999999400, -500.0000000000000000, 500.0000000000000000 ) ) ;
#33 =( LENGTH_UNIT ( ) NAMED_UNIT ( * ) SI_UNIT ( .MILLI., .METRE. ) );
#34 = EDGE_CURVE ( 'NONE', #6, #51, #163, .T. ) ;
#35 = ORIENTED_EDGE ( 'NONE', *, *, #107, .F. ) ;
#36 = AXIS2_PLACEMENT_3D ( 'NONE', #85, #145, #18 ) ;
#37 = PRESENTATION_STYLE_ASSIGNMENT (( #150 ) ) ;
#38 = PRODUCT_DEFINITION_CONTEXT ( 'detailed design', #21, 'design' ) ;
#39 = MANIFOLD_SOLID_BREP ( 'Ressalto-extrusão1', #77 ) ;
#40 = ORIENTED_EDGE ( 'NONE', *, *, #34, .F. ) ;
#41 = FILL_AREA_STYLE ('',( #155 ) ) ;
#42 = ORIENTED_EDGE ( 'NONE', *, *, #52, .F. ) ;
#43 = DIRECTION ( 'NONE',  ( 0.0000000000000000000, -0.0000000000000000000, 1.000000000000000000 ) ) ;
#44 = DIRECTION ( 'NONE',  ( 0.0000000000000000000, 1.000000000000000000, 0.0000000000000000000 ) ) ;
#45 = DIRECTION ( 'NONE',  ( -1.000000000000000000, -1.110223024625156500E-016, 0.0000000000000000000 ) ) ;
#46 = DIRECTION ( 'NONE',  ( 0.0000000000000000000, -0.0000000000000000000, 1.000000000000000000 ) ) ;
#47 = FACE_OUTER_BOUND ( 'NONE', #99, .T. ) ;
#48 = CARTESIAN_POINT ( 'NONE',  ( 500.0000000000000000, 500.0000000000000000, -500.0000000000000000 ) ) ;
#49 = CARTESIAN_POINT ( 'NONE',  ( 500.0000000000000000, -499.9999999999998900, 500.0000000000000000 ) ) ;
#50 = FACE_OUTER_BOUND ( 'NONE', #73, .T. ) ;
#51 = VERTEX_POINT ( 'NONE', #29 ) ;
#52 = EDGE_CURVE ( 'NONE', #157, #51, #71, .T. ) ;
#53 = ORIENTED_EDGE ( 'NONE', *, *, #200, .F. ) ;
#54 = LINE ( 'NONE', #13, #168 ) ;
#55 = EDGE_LOOP ( 'NONE', ( #2, #202, #181, #160 ) ) ;
#56 = DIRECTION ( 'NONE',  ( -0.0000000000000000000, -1.000000000000000000, -0.0000000000000000000 ) ) ;
#57 = CARTESIAN_POINT ( 'NONE',  ( 0.0000000000000000000, 0.0000000000000000000, 0.0000000000000000000 ) ) ;
#58 = EDGE_CURVE ( 'NONE', #90, #117, #20, .T. ) ;
#59 = EDGE_LOOP ( 'NONE', ( #26, #192, #171, #129 ) ) ;
#60 = PLANE ( 'NONE',  #36 ) ;
#61 = DIRECTION ( 'NONE',  ( -1.000000000000000000, -5.551115123125782700E-017, 0.0000000000000000000 ) ) ;
#62 = ADVANCED_FACE ( 'NONE', ( #1 ), #28, .T. ) ;
#63 = SHAPE_DEFINITION_REPRESENTATION ( #141, #8 ) ;
#64 = ADVANCED_FACE ( 'NONE', ( #132 ), #60, .F. ) ;
#65 = EDGE_CURVE ( 'NONE', #90, #176, #130, .T. ) ;
#66 = VECTOR ( 'NONE', #201, 1000.000000000000000 ) ;
#67 = DIRECTION ( 'NONE',  ( -1.000000000000000000, 0.0000000000000000000, 0.0000000000000000000 ) ) ;
#68 = MECHANICAL_DESIGN_GEOMETRIC_PRESENTATION_REPRESENTATION (  '', ( #102 ), #190 ) ;
#69 =( NAMED_UNIT ( * ) PLANE_ANGLE_UNIT ( ) SI_UNIT ( $, .RADIAN. ) );
#70 = ADVANCED_FACE ( 'NONE', ( #50 ), #84, .F. ) ;
#71 = LINE ( 'NONE', #120, #93 ) ;
#72 = CARTESIAN_POINT ( 'NONE',  ( -499.9999999999999400, -500.0000000000000000, -500.0000000000000000 ) ) ;
#73 = EDGE_LOOP ( 'NONE', ( #173, #42, #133, #113 ) ) ;
#74 = EDGE_CURVE ( 'NONE', #117, #157, #152, .T. ) ;
#75 = SURFACE_STYLE_FILL_AREA ( #41 ) ;
#76 = VECTOR ( 'NONE', #44, 1000.000000000000000 ) ;
#77 = CLOSED_SHELL ( 'NONE', ( #180, #70, #17, #64, #62, #81 ) ) ;
#78 = DIRECTION ( 'NONE',  ( -1.000000000000000000, -5.551115123125782700E-017, 0.0000000000000000000 ) ) ;
#79 = VECTOR ( 'NONE', #174, 1000.000000000000000 ) ;
#80 = DIRECTION ( 'NONE',  ( -0.0000000000000000000, -0.0000000000000000000, -1.000000000000000000 ) ) ;
#81 = ADVANCED_FACE ( 'NONE', ( #134 ), #158, .F. ) ;
#82 = EDGE_CURVE ( 'NONE', #117, #6, #139, .T. ) ;
#83 = CARTESIAN_POINT ( 'NONE',  ( 500.0000000000000000, -499.9999999999998900, 500.0000000000000000 ) ) ;
#84 = PLANE ( 'NONE',  #172 ) ;
#85 = CARTESIAN_POINT ( 'NONE',  ( 500.0000000000000000, 500.0000000000000000, 500.0000000000000000 ) ) ;
#86 = ORIENTED_EDGE ( 'NONE', *, *, #136, .F. ) ;
#87 =( NAMED_UNIT ( * ) SI_UNIT ( $, .STERADIAN. ) SOLID_ANGLE_UNIT ( ) );
#88 = PRODUCT_CONTEXT ( 'NONE', #31, 'mechanical' ) ;
#89 = COLOUR_RGB ( '',0.7921568627450980000, 0.8196078431372548800, 0.9333333333333333500 ) ;
#90 = VERTEX_POINT ( 'NONE', #159 ) ;
#91 = EDGE_LOOP ( 'NONE', ( #154, #103, #169, #23 ) ) ;
#92 = CARTESIAN_POINT ( 'NONE',  ( 500.0000000000000000, -499.9999999999998900, 500.0000000000000000 ) ) ;
#93 = VECTOR ( 'NONE', #80, 1000.000000000000000 ) ;
#94 = APPLICATION_PROTOCOL_DEFINITION ( 'draft international standard', 'automotive_design', 1998, #31 ) ;
#95 = CARTESIAN_POINT ( 'NONE',  ( 500.0000000000000000, 500.0000000000000000, 500.0000000000000000 ) ) ;
#96 = CARTESIAN_POINT ( 'NONE',  ( -499.9999999999999400, 499.9999999999999400, -500.0000000000000000 ) ) ;
#97 = EDGE_CURVE ( 'NONE', #119, #121, #167, .T. ) ;
#98 = CARTESIAN_POINT ( 'NONE',  ( -499.9999999999999400, -500.0000000000000000, 500.0000000000000000 ) ) ;
#99 = EDGE_LOOP ( 'NONE', ( #12, #125, #53, #118 ) ) ;
#100 = CARTESIAN_POINT ( 'NONE',  ( 0.0000000000000000000, 0.0000000000000000000, -500.0000000000000000 ) ) ;
#101 = VECTOR ( 'NONE', #127, 1000.000000000000000 ) ;
#102 = STYLED_ITEM ( 'NONE', ( #198 ), #39 ) ;
#103 = ORIENTED_EDGE ( 'NONE', *, *, #74, .T. ) ;
#104 = SURFACE_STYLE_USAGE ( .BOTH. , #122 ) ;
#105 = EDGE_CURVE ( 'NONE', #51, #121, #186, .T. ) ;
#106 = FILL_AREA_STYLE ('',( #162 ) ) ;
#107 = EDGE_CURVE ( 'NONE', #121, #176, #188, .T. ) ;
#108 = CARTESIAN_POINT ( 'NONE',  ( 500.0000000000000000, 500.0000000000000000, -500.0000000000000000 ) ) ;
#109 = SURFACE_STYLE_FILL_AREA ( #106 ) ;
#110 = ORIENTED_EDGE ( 'NONE', *, *, #105, .F. ) ;
#111 = PLANE ( 'NONE',  #7 ) ;
#112 = DIRECTION ( 'NONE',  ( -0.0000000000000000000, -1.000000000000000000, -0.0000000000000000000 ) ) ;
#113 = ORIENTED_EDGE ( 'NONE', *, *, #82, .T. ) ;
#114 = DIRECTION ( 'NONE',  ( 0.0000000000000000000, 0.0000000000000000000, 1.000000000000000000 ) ) ;
#115 = UNCERTAINTY_MEASURE_WITH_UNIT (LENGTH_MEASURE( 1.000000000000000100E-005 ), #182, 'distance_accuracy_value', 'NONE');
#116 = VECTOR ( 'NONE', #61, 1000.000000000000000 ) ;
#117 = VERTEX_POINT ( 'NONE', #14 ) ;
#118 = ORIENTED_EDGE ( 'NONE', *, *, #52, .T. ) ;
#119 = VERTEX_POINT ( 'NONE', #144 ) ;
#120 = CARTESIAN_POINT ( 'NONE',  ( 500.0000000000000000, -499.9999999999998900, 500.0000000000000000 ) ) ;
#121 = VERTEX_POINT ( 'NONE', #108 ) ;
#122 = SURFACE_SIDE_STYLE ('',( #75 ) ) ;
#123 = CARTESIAN_POINT ( 'NONE',  ( 500.0000000000000000, -499.9999999999998900, 500.0000000000000000 ) ) ;
#124 = VECTOR ( 'NONE', #195, 1000.000000000000000 ) ;
#125 = ORIENTED_EDGE ( 'NONE', *, *, #97, .F. ) ;
#126 = CARTESIAN_POINT ( 'NONE',  ( 500.0000000000000000, -499.9999999999998900, -500.0000000000000000 ) ) ;
#127 = DIRECTION ( 'NONE',  ( -0.0000000000000000000, -0.0000000000000000000, -1.000000000000000000 ) ) ;
#128 = DIRECTION ( 'NONE',  ( 0.0000000000000000000, 0.0000000000000000000, -1.000000000000000000 ) ) ;
#129 = ORIENTED_EDGE ( 'NONE', *, *, #65, .T. ) ;
#130 = LINE ( 'NONE', #179, #124 ) ;
#131 = COLOUR_RGB ( '',0.7921568627450980000, 0.8196078431372548800, 0.9333333333333333500 ) ;
#132 = FACE_OUTER_BOUND ( 'NONE', #55, .T. ) ;
#133 = ORIENTED_EDGE ( 'NONE', *, *, #74, .F. ) ;
#134 = FACE_OUTER_BOUND ( 'NONE', #137, .T. ) ;
#135 = PRODUCT_DEFINITION ( 'UNKNOWN', '', #19, #38 ) ;
#136 = EDGE_CURVE ( 'NONE', #176, #6, #24, .T. ) ;
#137 = EDGE_LOOP ( 'NONE', ( #86, #35, #110, #40 ) ) ;
#138 = CARTESIAN_POINT ( 'NONE',  ( -499.9999999999999400, -500.0000000000000000, 500.0000000000000000 ) ) ;
#139 = LINE ( 'NONE', #98, #101 ) ;
#140 = DIRECTION ( 'NONE',  ( 1.000000000000000000, 0.0000000000000000000, 0.0000000000000000000 ) ) ;
#141 = PRODUCT_DEFINITION_SHAPE ( 'NONE', 'NONE',  #135 ) ;
#142 = DIRECTION ( 'NONE',  ( 1.000000000000000000, 1.110223024625156500E-016, -0.0000000000000000000 ) ) ;
#143 = PRESENTATION_LAYER_ASSIGNMENT (  '', '', ( #102 ) ) ;
#144 = CARTESIAN_POINT ( 'NONE',  ( 500.0000000000000000, 500.0000000000000000, 500.0000000000000000 ) ) ;
#145 = DIRECTION ( 'NONE',  ( 5.551115123125782700E-017, -1.000000000000000000, 0.0000000000000000000 ) ) ;
#146 = LINE ( 'NONE', #49, #66 ) ;
#147 = SURFACE_SIDE_STYLE ('',( #109 ) ) ;
#148 = DIRECTION ( 'NONE',  ( 1.000000000000000000, 0.0000000000000000000, 0.0000000000000000000 ) ) ;
#149 = VECTOR ( 'NONE', #178, 1000.000000000000000 ) ;
#150 = SURFACE_STYLE_USAGE ( .BOTH. , #147 ) ;
#151 = AXIS2_PLACEMENT_3D ( 'NONE', #92, #67, #9 ) ;
#152 = LINE ( 'NONE', #15, #5 ) ;
#153 = AXIS2_PLACEMENT_3D ( 'NONE', #57, #114, #148 ) ;
#154 = ORIENTED_EDGE ( 'NONE', *, *, #58, .T. ) ;
#155 = FILL_AREA_STYLE_COLOUR ( '', #131 ) ;
#156 = CARTESIAN_POINT ( 'NONE',  ( 0.0000000000000000000, 0.0000000000000000000, 500.0000000000000000 ) ) ;
#157 = VERTEX_POINT ( 'NONE', #83 ) ;
#158 = PLANE ( 'NONE',  #197 ) ;
#159 = CARTESIAN_POINT ( 'NONE',  ( -499.9999999999999400, 499.9999999999999400, 500.0000000000000000 ) ) ;
#160 = ORIENTED_EDGE ( 'NONE', *, *, #97, .T. ) ;
#161 = DIRECTION ( 'NONE',  ( 1.000000000000000000, 0.0000000000000000000, -0.0000000000000000000 ) ) ;
#162 = FILL_AREA_STYLE_COLOUR ( '', #89 ) ;
#163 = LINE ( 'NONE', #193, #79 ) ;
#164 =( NAMED_UNIT ( * ) PLANE_ANGLE_UNIT ( ) SI_UNIT ( $, .RADIAN. ) );
#165 = MECHANICAL_DESIGN_GEOMETRIC_PRESENTATION_REPRESENTATION (  '', ( #184 ), #187 ) ;
#166 = APPLICATION_PROTOCOL_DEFINITION ( 'draft international standard', 'automotive_design', 1998, #21 ) ;
#167 = LINE ( 'NONE', #95, #149 ) ;
#168 = VECTOR ( 'NONE', #78, 1000.000000000000000 ) ;
#169 = ORIENTED_EDGE ( 'NONE', *, *, #200, .T. ) ;
#170 = AXIS2_PLACEMENT_3D ( 'NONE', #156, #43, #161 ) ;
#171 = ORIENTED_EDGE ( 'NONE', *, *, #58, .F. ) ;
#172 = AXIS2_PLACEMENT_3D ( 'NONE', #123, #199, #45 ) ;
#173 = ORIENTED_EDGE ( 'NONE', *, *, #34, .T. ) ;
#174 = DIRECTION ( 'NONE',  ( 1.000000000000000000, 1.110223024625156500E-016, -0.0000000000000000000 ) ) ;
#175 =( LENGTH_UNIT ( ) NAMED_UNIT ( * ) SI_UNIT ( .MILLI., .METRE. ) );
#176 = VERTEX_POINT ( 'NONE', #96 ) ;
#177 = PRODUCT_RELATED_PRODUCT_CATEGORY ( 'part', '', ( #25 ) ) ;
#178 = DIRECTION ( 'NONE',  ( -0.0000000000000000000, -0.0000000000000000000, -1.000000000000000000 ) ) ;
#179 = CARTESIAN_POINT ( 'NONE',  ( -499.9999999999999400, 499.9999999999999400, 500.0000000000000000 ) ) ;
#180 = ADVANCED_FACE ( 'NONE', ( #30 ), #111, .F. ) ;
#181 = ORIENTED_EDGE ( 'NONE', *, *, #10, .F. ) ;
#182 =( LENGTH_UNIT ( ) NAMED_UNIT ( * ) SI_UNIT ( .MILLI., .METRE. ) );
#183 = VECTOR ( 'NONE', #112, 1000.000000000000000 ) ;
#184 = STYLED_ITEM ( 'NONE', ( #37 ), #8 ) ;
#185 =( GEOMETRIC_REPRESENTATION_CONTEXT ( 3 ) GLOBAL_UNCERTAINTY_ASSIGNED_CONTEXT ( ( #115 ) ) GLOBAL_UNIT_ASSIGNED_CONTEXT ( ( #182, #69, #196 ) ) REPRESENTATION_CONTEXT ( 'NONE', 'WORKASPACE' ) );
#186 = LINE ( 'NONE', #126, #76 ) ;
#187 =( GEOMETRIC_REPRESENTATION_CONTEXT ( 3 ) GLOBAL_UNCERTAINTY_ASSIGNED_CONTEXT ( ( #189 ) ) GLOBAL_UNIT_ASSIGNED_CONTEXT ( ( #33, #164, #87 ) ) REPRESENTATION_CONTEXT ( 'NONE', 'WORKASPACE' ) );
#188 = LINE ( 'NONE', #48, #116 ) ;
#189 = UNCERTAINTY_MEASURE_WITH_UNIT (LENGTH_MEASURE( 1.000000000000000100E-005 ), #33, 'distance_accuracy_value', 'NONE');
#190 =( GEOMETRIC_REPRESENTATION_CONTEXT ( 3 ) GLOBAL_UNCERTAINTY_ASSIGNED_CONTEXT ( ( #3 ) ) GLOBAL_UNIT_ASSIGNED_CONTEXT ( ( #175, #11, #27 ) ) REPRESENTATION_CONTEXT ( 'NONE', 'WORKASPACE' ) );
#191 = PLANE ( 'NONE',  #151 ) ;
#192 = ORIENTED_EDGE ( 'NONE', *, *, #82, .F. ) ;
#193 = CARTESIAN_POINT ( 'NONE',  ( 500.0000000000000000, -499.9999999999998900, -500.0000000000000000 ) ) ;
#194 = CARTESIAN_POINT ( 'NONE',  ( -499.9999999999999400, -500.0000000000000000, -500.0000000000000000 ) ) ;
#195 = DIRECTION ( 'NONE',  ( -0.0000000000000000000, -0.0000000000000000000, -1.000000000000000000 ) ) ;
#196 =( NAMED_UNIT ( * ) SI_UNIT ( $, .STERADIAN. ) SOLID_ANGLE_UNIT ( ) );
#197 = AXIS2_PLACEMENT_3D ( 'NONE', #100, #46, #16 ) ;
#198 = PRESENTATION_STYLE_ASSIGNMENT (( #104 ) ) ;
#199 = DIRECTION ( 'NONE',  ( -1.110223024625156500E-016, 1.000000000000000000, 0.0000000000000000000 ) ) ;
#200 = EDGE_CURVE ( 'NONE', #157, #119, #146, .T. ) ;
#201 = DIRECTION ( 'NONE',  ( 0.0000000000000000000, 1.000000000000000000, 0.0000000000000000000 ) ) ;
#202 = ORIENTED_EDGE ( 'NONE', *, *, #65, .F. ) ;
ENDSEC;
END-ISO-10303-21;
