ISO-10303-21;
HEADER;
FILE_DESCRIPTION (( 'STEP AP214' ),
    '1' );
FILE_NAME ('Cilindro.STEP',
    '2023-05-03T20:30:19',
    ( '' ),
    ( '' ),
    'SwSTEP 2.0',
    'SolidWorks 2017',
    '' );
FILE_SCHEMA (( 'AUTOMOTIVE_DESIGN' ));
ENDSEC;

DATA;
#1 =( LENGTH_UNIT ( ) NAMED_UNIT ( * ) SI_UNIT ( .MILLI., .METRE. ) );
#2 = EDGE_CURVE ( 'NONE', #60, #88, #83, .T. ) ;
#3 = EDGE_LOOP ( 'NONE', ( #119, #94, #123, #121 ) ) ;
#4 = CARTESIAN_POINT ( 'NONE',  ( 0.0000000000000000000, 2000.000000000000000, 0.0000000000000000000 ) ) ;
#5 = DIRECTION ( 'NONE',  ( 0.0000000000000000000, 1.000000000000000000, 0.0000000000000000000 ) ) ;
#6 = APPLICATION_CONTEXT ( 'automotive_design' ) ;
#7 = COLOUR_RGB ( '',0.7921568627450980000, 0.8196078431372548800, 0.9333333333333333500 ) ;
#8 =( GEOMETRIC_REPRESENTATION_CONTEXT ( 3 ) GLOBAL_UNCERTAINTY_ASSIGNED_CONTEXT ( ( #138 ) ) GLOBAL_UNIT_ASSIGNED_CONTEXT ( ( #109, #51, #120 ) ) REPRESENTATION_CONTEXT ( 'NONE', 'WORKASPACE' ) );
#9 = VERTEX_POINT ( 'NONE', #103 ) ;
#10 = CIRCLE ( 'NONE', #77, 250.0000000000000000 ) ;
#11 = SURFACE_STYLE_USAGE ( .BOTH. , #129 ) ;
#12 = CARTESIAN_POINT ( 'NONE',  ( 0.0000000000000000000, 2000.000000000000000, 0.0000000000000000000 ) ) ;
#13 = ORIENTED_EDGE ( 'NONE', *, *, #134, .F. ) ;
#14 = SHAPE_DEFINITION_REPRESENTATION ( #34, #75 ) ;
#15 = PRODUCT_DEFINITION_CONTEXT ( 'detailed design', #130, 'design' ) ;
#16 = STYLED_ITEM ( 'NONE', ( #102 ), #132 ) ;
#17 = DIRECTION ( 'NONE',  ( 0.0000000000000000000, -0.0000000000000000000, 1.000000000000000000 ) ) ;
#18 = PRODUCT_DEFINITION_FORMATION_WITH_SPECIFIED_SOURCE ( 'ANY', '', #37, .NOT_KNOWN. ) ;
#19 = VECTOR ( 'NONE', #22, 1000.000000000000000 ) ;
#20 = ADVANCED_FACE ( 'NONE', ( #70 ), #93, .T. ) ;
#21 = PRESENTATION_LAYER_ASSIGNMENT (  '', '', ( #16 ) ) ;
#22 = DIRECTION ( 'NONE',  ( -0.0000000000000000000, -1.000000000000000000, -0.0000000000000000000 ) ) ;
#23 = DIRECTION ( 'NONE',  ( 0.0000000000000000000, 1.000000000000000000, 0.0000000000000000000 ) ) ;
#24 = ADVANCED_FACE ( 'NONE', ( #25 ), #67, .T. ) ;
#25 = FACE_OUTER_BOUND ( 'NONE', #140, .T. ) ;
#26 = FACE_OUTER_BOUND ( 'NONE', #116, .T. ) ;
#27 = DIRECTION ( 'NONE',  ( 0.0000000000000000000, 0.0000000000000000000, 1.000000000000000000 ) ) ;
#28 =( LENGTH_UNIT ( ) NAMED_UNIT ( * ) SI_UNIT ( .MILLI., .METRE. ) );
#29 = CYLINDRICAL_SURFACE ( 'NONE', #55, 250.0000000000000000 ) ;
#30 = DIRECTION ( 'NONE',  ( 0.0000000000000000000, 1.000000000000000000, 0.0000000000000000000 ) ) ;
#31 = EDGE_LOOP ( 'NONE', ( #91, #96 ) ) ;
#32 = EDGE_CURVE ( 'NONE', #43, #9, #56, .T. ) ;
#33 = ADVANCED_FACE ( 'NONE', ( #26 ), #29, .T. ) ;
#34 = PRODUCT_DEFINITION_SHAPE ( 'NONE', 'NONE',  #59 ) ;
#35 =( NAMED_UNIT ( * ) PLANE_ANGLE_UNIT ( ) SI_UNIT ( $, .RADIAN. ) );
#36 = FACE_OUTER_BOUND ( 'NONE', #31, .T. ) ;
#37 = PRODUCT ( 'Cilindro', 'Cilindro', '', ( #118 ) ) ;
#38 = CARTESIAN_POINT ( 'NONE',  ( 0.0000000000000000000, 0.0000000000000000000, 0.0000000000000000000 ) ) ;
#39 = ORIENTED_EDGE ( 'NONE', *, *, #134, .T. ) ;
#40 = FILL_AREA_STYLE ('',( #139 ) ) ;
#41 = FILL_AREA_STYLE_COLOUR ( '', #113 ) ;
#42 = FILL_AREA_STYLE ('',( #41 ) ) ;
#43 = VERTEX_POINT ( 'NONE', #45 ) ;
#44 = UNCERTAINTY_MEASURE_WITH_UNIT (LENGTH_MEASURE( 1.000000000000000100E-005 ), #1, 'distance_accuracy_value', 'NONE');
#45 = CARTESIAN_POINT ( 'NONE',  ( 3.061616997868383100E-014, 2000.000000000000000, 250.0000000000000000 ) ) ;
#46 =( NAMED_UNIT ( * ) SI_UNIT ( $, .STERADIAN. ) SOLID_ANGLE_UNIT ( ) );
#47 = DIRECTION ( 'NONE',  ( 0.0000000000000000000, 1.000000000000000000, 0.0000000000000000000 ) ) ;
#48 = AXIS2_PLACEMENT_3D ( 'NONE', #82, #63, #73 ) ;
#49 = EDGE_CURVE ( 'NONE', #88, #60, #69, .T. ) ;
#50 = SURFACE_STYLE_USAGE ( .BOTH. , #64 ) ;
#51 =( NAMED_UNIT ( * ) PLANE_ANGLE_UNIT ( ) SI_UNIT ( $, .RADIAN. ) );
#52 = MECHANICAL_DESIGN_GEOMETRIC_PRESENTATION_REPRESENTATION (  '', ( #16 ), #122 ) ;
#53 = PLANE ( 'NONE',  #117 ) ;
#54 = AXIS2_PLACEMENT_3D ( 'NONE', #84, #30, #17 ) ;
#55 = AXIS2_PLACEMENT_3D ( 'NONE', #12, #68, #87 ) ;
#56 = CIRCLE ( 'NONE', #80, 250.0000000000000000 ) ;
#57 = AXIS2_PLACEMENT_3D ( 'NONE', #127, #23, #107 ) ;
#58 = PRESENTATION_STYLE_ASSIGNMENT (( #50 ) ) ;
#59 = PRODUCT_DEFINITION ( 'UNKNOWN', '', #18, #15 ) ;
#60 = VERTEX_POINT ( 'NONE', #85 ) ;
#61 = APPLICATION_PROTOCOL_DEFINITION ( 'draft international standard', 'automotive_design', 1998, #6 ) ;
#62 =( NAMED_UNIT ( * ) PLANE_ANGLE_UNIT ( ) SI_UNIT ( $, .RADIAN. ) );
#63 = DIRECTION ( 'NONE',  ( -0.0000000000000000000, -1.000000000000000000, -0.0000000000000000000 ) ) ;
#64 = SURFACE_SIDE_STYLE ('',( #98 ) ) ;
#65 = ORIENTED_EDGE ( 'NONE', *, *, #105, .F. ) ;
#66 = ORIENTED_EDGE ( 'NONE', *, *, #32, .T. ) ;
#67 = PLANE ( 'NONE',  #54 ) ;
#68 = DIRECTION ( 'NONE',  ( -0.0000000000000000000, -1.000000000000000000, -0.0000000000000000000 ) ) ;
#69 = CIRCLE ( 'NONE', #57, 250.0000000000000000 ) ;
#70 = FACE_OUTER_BOUND ( 'NONE', #3, .T. ) ;
#71 = ORIENTED_EDGE ( 'NONE', *, *, #112, .T. ) ;
#72 = AXIS2_PLACEMENT_3D ( 'NONE', #38, #106, #76 ) ;
#73 = DIRECTION ( 'NONE',  ( 0.0000000000000000000, 0.0000000000000000000, -1.000000000000000000 ) ) ;
#74 =( NAMED_UNIT ( * ) SI_UNIT ( $, .STERADIAN. ) SOLID_ANGLE_UNIT ( ) );
#75 = ADVANCED_BREP_SHAPE_REPRESENTATION ( 'Cilindro', ( #132, #72 ), #8 ) ;
#76 = DIRECTION ( 'NONE',  ( 1.000000000000000000, 0.0000000000000000000, 0.0000000000000000000 ) ) ;
#77 = AXIS2_PLACEMENT_3D ( 'NONE', #4, #108, #104 ) ;
#78 = DIRECTION ( 'NONE',  ( 0.0000000000000000000, 0.0000000000000000000, 1.000000000000000000 ) ) ;
#79 = CARTESIAN_POINT ( 'NONE',  ( 0.0000000000000000000, 0.0000000000000000000, -250.0000000000000000 ) ) ;
#80 = AXIS2_PLACEMENT_3D ( 'NONE', #95, #97, #78 ) ;
#81 = CARTESIAN_POINT ( 'NONE',  ( 0.0000000000000000000, 0.0000000000000000000, 0.0000000000000000000 ) ) ;
#82 = CARTESIAN_POINT ( 'NONE',  ( 0.0000000000000000000, 2000.000000000000000, 0.0000000000000000000 ) ) ;
#83 = CIRCLE ( 'NONE', #131, 250.0000000000000000 ) ;
#84 = CARTESIAN_POINT ( 'NONE',  ( 0.0000000000000000000, 2000.000000000000000, 0.0000000000000000000 ) ) ;
#85 = CARTESIAN_POINT ( 'NONE',  ( 3.061616997868383100E-014, 0.0000000000000000000, 250.0000000000000000 ) ) ;
#86 = ORIENTED_EDGE ( 'NONE', *, *, #49, .T. ) ;
#87 = DIRECTION ( 'NONE',  ( 0.0000000000000000000, 0.0000000000000000000, -1.000000000000000000 ) ) ;
#88 = VERTEX_POINT ( 'NONE', #79 ) ;
#89 = CARTESIAN_POINT ( 'NONE',  ( 3.061616997868383100E-014, 2000.000000000000000, 250.0000000000000000 ) ) ;
#90 = ADVANCED_FACE ( 'NONE', ( #36 ), #53, .F. ) ;
#91 = ORIENTED_EDGE ( 'NONE', *, *, #49, .F. ) ;
#92 = STYLED_ITEM ( 'NONE', ( #58 ), #75 ) ;
#93 = CYLINDRICAL_SURFACE ( 'NONE', #48, 250.0000000000000000 ) ;
#94 = ORIENTED_EDGE ( 'NONE', *, *, #105, .T. ) ;
#95 = CARTESIAN_POINT ( 'NONE',  ( 0.0000000000000000000, 2000.000000000000000, 0.0000000000000000000 ) ) ;
#96 = ORIENTED_EDGE ( 'NONE', *, *, #2, .F. ) ;
#97 = DIRECTION ( 'NONE',  ( 0.0000000000000000000, 1.000000000000000000, 0.0000000000000000000 ) ) ;
#98 = SURFACE_STYLE_FILL_AREA ( #42 ) ;
#99 =( GEOMETRIC_REPRESENTATION_CONTEXT ( 3 ) GLOBAL_UNCERTAINTY_ASSIGNED_CONTEXT ( ( #125 ) ) GLOBAL_UNIT_ASSIGNED_CONTEXT ( ( #28, #62, #74 ) ) REPRESENTATION_CONTEXT ( 'NONE', 'WORKASPACE' ) );
#100 = CARTESIAN_POINT ( 'NONE',  ( 0.0000000000000000000, 0.0000000000000000000, 0.0000000000000000000 ) ) ;
#101 = DIRECTION ( 'NONE',  ( -0.0000000000000000000, -1.000000000000000000, -0.0000000000000000000 ) ) ;
#102 = PRESENTATION_STYLE_ASSIGNMENT (( #11 ) ) ;
#103 = CARTESIAN_POINT ( 'NONE',  ( 0.0000000000000000000, 2000.000000000000000, -250.0000000000000000 ) ) ;
#104 = DIRECTION ( 'NONE',  ( 0.0000000000000000000, 0.0000000000000000000, 1.000000000000000000 ) ) ;
#105 = EDGE_CURVE ( 'NONE', #43, #60, #114, .T. ) ;
#106 = DIRECTION ( 'NONE',  ( 0.0000000000000000000, 0.0000000000000000000, 1.000000000000000000 ) ) ;
#107 = DIRECTION ( 'NONE',  ( 0.0000000000000000000, 0.0000000000000000000, 1.000000000000000000 ) ) ;
#108 = DIRECTION ( 'NONE',  ( 0.0000000000000000000, 1.000000000000000000, 0.0000000000000000000 ) ) ;
#109 =( LENGTH_UNIT ( ) NAMED_UNIT ( * ) SI_UNIT ( .MILLI., .METRE. ) );
#110 = APPLICATION_PROTOCOL_DEFINITION ( 'draft international standard', 'automotive_design', 1998, #130 ) ;
#111 = CLOSED_SHELL ( 'NONE', ( #20, #33, #24, #90 ) ) ;
#112 = EDGE_CURVE ( 'NONE', #9, #88, #137, .T. ) ;
#113 = COLOUR_RGB ( '',0.7921568627450980000, 0.8196078431372548800, 0.9333333333333333500 ) ;
#114 = LINE ( 'NONE', #89, #115 ) ;
#115 = VECTOR ( 'NONE', #101, 1000.000000000000000 ) ;
#116 = EDGE_LOOP ( 'NONE', ( #65, #13, #71, #86 ) ) ;
#117 = AXIS2_PLACEMENT_3D ( 'NONE', #100, #47, #128 ) ;
#118 = PRODUCT_CONTEXT ( 'NONE', #6, 'mechanical' ) ;
#119 = ORIENTED_EDGE ( 'NONE', *, *, #32, .F. ) ;
#120 =( NAMED_UNIT ( * ) SI_UNIT ( $, .STERADIAN. ) SOLID_ANGLE_UNIT ( ) );
#121 = ORIENTED_EDGE ( 'NONE', *, *, #112, .F. ) ;
#122 =( GEOMETRIC_REPRESENTATION_CONTEXT ( 3 ) GLOBAL_UNCERTAINTY_ASSIGNED_CONTEXT ( ( #44 ) ) GLOBAL_UNIT_ASSIGNED_CONTEXT ( ( #1, #35, #46 ) ) REPRESENTATION_CONTEXT ( 'NONE', 'WORKASPACE' ) );
#123 = ORIENTED_EDGE ( 'NONE', *, *, #2, .T. ) ;
#124 = PRODUCT_RELATED_PRODUCT_CATEGORY ( 'part', '', ( #37 ) ) ;
#125 = UNCERTAINTY_MEASURE_WITH_UNIT (LENGTH_MEASURE( 1.000000000000000100E-005 ), #28, 'distance_accuracy_value', 'NONE');
#126 = CARTESIAN_POINT ( 'NONE',  ( 0.0000000000000000000, 2000.000000000000000, -250.0000000000000000 ) ) ;
#127 = CARTESIAN_POINT ( 'NONE',  ( 0.0000000000000000000, 0.0000000000000000000, 0.0000000000000000000 ) ) ;
#128 = DIRECTION ( 'NONE',  ( 0.0000000000000000000, -0.0000000000000000000, 1.000000000000000000 ) ) ;
#129 = SURFACE_SIDE_STYLE ('',( #133 ) ) ;
#130 = APPLICATION_CONTEXT ( 'automotive_design' ) ;
#131 = AXIS2_PLACEMENT_3D ( 'NONE', #81, #5, #27 ) ;
#132 = MANIFOLD_SOLID_BREP ( 'Ressalto-extrusão1', #111 ) ;
#133 = SURFACE_STYLE_FILL_AREA ( #40 ) ;
#134 = EDGE_CURVE ( 'NONE', #9, #43, #10, .T. ) ;
#135 = PRESENTATION_LAYER_ASSIGNMENT (  '', '', ( #92 ) ) ;
#136 = MECHANICAL_DESIGN_GEOMETRIC_PRESENTATION_REPRESENTATION (  '', ( #92 ), #99 ) ;
#137 = LINE ( 'NONE', #126, #19 ) ;
#138 = UNCERTAINTY_MEASURE_WITH_UNIT (LENGTH_MEASURE( 1.000000000000000100E-005 ), #109, 'distance_accuracy_value', 'NONE');
#139 = FILL_AREA_STYLE_COLOUR ( '', #7 ) ;
#140 = EDGE_LOOP ( 'NONE', ( #39, #66 ) ) ;
ENDSEC;
END-ISO-10303-21;
