ISO-10303-21;
HEADER;
FILE_DESCRIPTION(('STEP AP214'),'1');
FILE_NAME('M2.step','2023-06-27T16:43:41',(' '),(' '),'Spatial InterOp 3D',' ',' ');
FILE_SCHEMA(('AUTOMOTIVE_DESIGN { 1 0 10303 214 1 1 1 1 }'));
ENDSEC;
DATA;
#1=MECHANICAL_DESIGN_GEOMETRIC_PRESENTATION_REPRESENTATION(' ',(#10),#6);
#2=PRODUCT_DEFINITION_CONTEXT('',#11,'design');
#3=APPLICATION_PROTOCOL_DEFINITION('INTERNATIONAL STANDARD','automotive_design',1994,#11);
#4=PRODUCT_CATEGORY_RELATIONSHIP('NONE','NONE',#12,#13);
#5=SHAPE_DEFINITION_REPRESENTATION(#14,#15);
#6= (GEOMETRIC_REPRESENTATION_CONTEXT(3)GLOBAL_UNCERTAINTY_ASSIGNED_CONTEXT((#18))GLOBAL_UNIT_ASSIGNED_CONTEXT((#20,#21,#22))REPRESENTATION_CONTEXT('NONE','WORKSPACE'));
#10=STYLED_ITEM('',(#24),#25);
#11=APPLICATION_CONTEXT(' ');
#12=PRODUCT_CATEGORY('part','NONE');
#13=PRODUCT_RELATED_PRODUCT_CATEGORY('detail',' ',(#26));
#14=PRODUCT_DEFINITION_SHAPE('NONE','NONE',#27);
#15=ADVANCED_BREP_SHAPE_REPRESENTATION('Solid',(#25,#28),#6);
#18=UNCERTAINTY_MEASURE_WITH_UNIT(LENGTH_MEASURE(1.0E-08),#20,'','');
#20= (CONVERSION_BASED_UNIT('METRE',#31)LENGTH_UNIT()NAMED_UNIT(#34));
#21= (NAMED_UNIT(#36)PLANE_ANGLE_UNIT()SI_UNIT($,.RADIAN.));
#22= (NAMED_UNIT(#36)SOLID_ANGLE_UNIT()SI_UNIT($,.STERADIAN.));
#24=PRESENTATION_STYLE_ASSIGNMENT((#42));
#25=MANIFOLD_SOLID_BREP('Solid',#43);
#26=PRODUCT('Solid','','PART--DESC',(#44));
#27=PRODUCT_DEFINITION('','NONE',#45,#2);
#28=AXIS2_PLACEMENT_3D('',#46,#47,#48);
#31=LENGTH_MEASURE_WITH_UNIT(LENGTH_MEASURE(1.0),#49);
#34=DIMENSIONAL_EXPONENTS(1.0,0.0,0.0,0.0,0.0,0.0,0.0);
#36=DIMENSIONAL_EXPONENTS(0.0,0.0,0.0,0.0,0.0,0.0,0.0);
#42=SURFACE_STYLE_USAGE(.BOTH.,#50);
#43=CLOSED_SHELL('',(#51,#52,#53,#54,#55,#56,#57,#58,#59,#60,#61,#62));
#44=PRODUCT_CONTEXT('',#11,'mechanical');
#45=PRODUCT_DEFINITION_FORMATION_WITH_SPECIFIED_SOURCE(' ','NONE',#26,.NOT_KNOWN.);
#46=CARTESIAN_POINT('',(0.0,0.0,0.0));
#47=DIRECTION('',(0.0,0.0,1.0));
#48=DIRECTION('',(1.0,0.0,0.0));
#49= (NAMED_UNIT(#34)LENGTH_UNIT()SI_UNIT($,.METRE.));
#50=SURFACE_SIDE_STYLE('',(#64));
#51=ADVANCED_FACE('0:5928',(#65),#66,.T.);
#52=ADVANCED_FACE('0:18861',(#67),#68,.T.);
#53=ADVANCED_FACE('0:18861',(#69),#70,.T.);
#54=ADVANCED_FACE('0:16406',(#71,#72,#73),#74,.T.);
#55=ADVANCED_FACE('0:16274',(#75),#76,.T.);
#56=ADVANCED_FACE('0:16271',(#77),#78,.T.);
#57=ADVANCED_FACE('0:16268',(#79),#80,.T.);
#58=ADVANCED_FACE('0:16265',(#81),#82,.T.);
#59=ADVANCED_FACE('0:8628',(#83),#84,.T.);
#60=ADVANCED_FACE('0:5934',(#85),#86,.F.);
#61=ADVANCED_FACE('0:5928',(#87),#88,.T.);
#62=ADVANCED_FACE('0:16409',(#89),#90,.T.);
#64=SURFACE_STYLE_FILL_AREA(#91);
#65=FACE_OUTER_BOUND('',#92,.T.);
#66=CYLINDRICAL_SURFACE('',#93,0.03118);
#67=FACE_OUTER_BOUND('',#94,.T.);
#68=CYLINDRICAL_SURFACE('',#95,0.00412310562561766);
#69=FACE_OUTER_BOUND('',#96,.T.);
#70=CYLINDRICAL_SURFACE('',#97,0.00412310562561766);
#71=FACE_BOUND('',#98,.T.);
#72=FACE_OUTER_BOUND('',#99,.T.);
#73=FACE_BOUND('',#100,.T.);
#74=PLANE('',#101);
#75=FACE_OUTER_BOUND('',#102,.T.);
#76=PLANE('',#103);
#77=FACE_OUTER_BOUND('',#104,.T.);
#78=PLANE('',#105);
#79=FACE_OUTER_BOUND('',#106,.T.);
#80=PLANE('',#107);
#81=FACE_OUTER_BOUND('',#108,.T.);
#82=PLANE('',#109);
#83=FACE_OUTER_BOUND('',#110,.T.);
#84=PLANE('',#111);
#85=FACE_OUTER_BOUND('',#112,.T.);
#86=PLANE('',#113);
#87=FACE_OUTER_BOUND('',#114,.T.);
#88=CYLINDRICAL_SURFACE('',#115,0.03118);
#89=FACE_OUTER_BOUND('',#116,.T.);
#90=PLANE('',#117);
#91=FILL_AREA_STYLE('',(#118));
#92=EDGE_LOOP('',(#119,#120,#121,#122));
#93=AXIS2_PLACEMENT_3D('',#123,#124,#125);
#94=EDGE_LOOP('',(#126,#127,#128,#129));
#95=AXIS2_PLACEMENT_3D('',#130,#131,#132);
#96=EDGE_LOOP('',(#133,#134,#135,#136));
#97=AXIS2_PLACEMENT_3D('',#137,#138,#139);
#98=EDGE_LOOP('',(#140,#141));
#99=EDGE_LOOP('',(#142,#143));
#100=EDGE_LOOP('',(#144,#145,#146,#147));
#101=AXIS2_PLACEMENT_3D('',#148,#149,#150);
#102=EDGE_LOOP('',(#151,#152,#153,#154));
#103=AXIS2_PLACEMENT_3D('',#155,#156,#157);
#104=EDGE_LOOP('',(#158,#159,#160,#161));
#105=AXIS2_PLACEMENT_3D('',#162,#163,#164);
#106=EDGE_LOOP('',(#165,#166,#167,#168));
#107=AXIS2_PLACEMENT_3D('',#169,#170,#171);
#108=EDGE_LOOP('',(#172,#173,#174,#175));
#109=AXIS2_PLACEMENT_3D('',#176,#177,#178);
#110=EDGE_LOOP('',(#179,#180,#181,#182));
#111=AXIS2_PLACEMENT_3D('',#183,#184,#185);
#112=EDGE_LOOP('',(#186,#187));
#113=AXIS2_PLACEMENT_3D('',#188,#189,#190);
#114=EDGE_LOOP('',(#191,#192,#193,#194));
#115=AXIS2_PLACEMENT_3D('',#195,#196,#197);
#116=EDGE_LOOP('',(#198,#199));
#117=AXIS2_PLACEMENT_3D('',#200,#201,#202);
#118=FILL_AREA_STYLE_COLOUR('',#203);
#119=ORIENTED_EDGE('',*,*,#204,.F.);
#120=ORIENTED_EDGE('',*,*,#205,.T.);
#121=ORIENTED_EDGE('',*,*,#206,.F.);
#122=ORIENTED_EDGE('',*,*,#207,.T.);
#123=CARTESIAN_POINT('',(0.0,0.0,0.0));
#124=DIRECTION('',(0.0,1.0,0.0));
#125=DIRECTION('',(-1.0,0.0,0.0));
#126=ORIENTED_EDGE('',*,*,#208,.F.);
#127=ORIENTED_EDGE('',*,*,#209,.F.);
#128=ORIENTED_EDGE('',*,*,#210,.F.);
#129=ORIENTED_EDGE('',*,*,#211,.T.);
#130=CARTESIAN_POINT('',(0.0,0.03376,0.015));
#131=DIRECTION('',(0.0,1.0,0.0));
#132=DIRECTION('',(-1.0,0.0,0.0));
#133=ORIENTED_EDGE('',*,*,#208,.T.);
#134=ORIENTED_EDGE('',*,*,#212,.T.);
#135=ORIENTED_EDGE('',*,*,#210,.T.);
#136=ORIENTED_EDGE('',*,*,#213,.F.);
#137=CARTESIAN_POINT('',(0.0,0.03376,0.015));
#138=DIRECTION('',(0.0,1.0,0.0));
#139=DIRECTION('',(-1.0,0.0,0.0));
#140=ORIENTED_EDGE('',*,*,#211,.F.);
#141=ORIENTED_EDGE('',*,*,#212,.F.);
#142=ORIENTED_EDGE('',*,*,#207,.F.);
#143=ORIENTED_EDGE('',*,*,#214,.F.);
#144=ORIENTED_EDGE('',*,*,#215,.F.);
#145=ORIENTED_EDGE('',*,*,#216,.F.);
#146=ORIENTED_EDGE('',*,*,#217,.F.);
#147=ORIENTED_EDGE('',*,*,#218,.F.);
#148=CARTESIAN_POINT('',(0.0,0.03376,0.0));
#149=DIRECTION('',(0.0,1.0,0.0));
#150=DIRECTION('',(0.0,0.0,1.0));
#151=ORIENTED_EDGE('',*,*,#219,.F.);
#152=ORIENTED_EDGE('',*,*,#220,.F.);
#153=ORIENTED_EDGE('',*,*,#216,.T.);
#154=ORIENTED_EDGE('',*,*,#221,.T.);
#155=CARTESIAN_POINT('',(0.006,0.03376,0.0));
#156=DIRECTION('',(1.0,-0.0,0.0));
#157=DIRECTION('',(0.0,0.0,-1.0));
#158=ORIENTED_EDGE('',*,*,#222,.F.);
#159=ORIENTED_EDGE('',*,*,#223,.F.);
#160=ORIENTED_EDGE('',*,*,#217,.T.);
#161=ORIENTED_EDGE('',*,*,#220,.T.);
#162=CARTESIAN_POINT('',(0.0,0.03376,0.004));
#163=DIRECTION('',(0.0,0.0,1.0));
#164=DIRECTION('',(1.0,0.0,0.0));
#165=ORIENTED_EDGE('',*,*,#224,.F.);
#166=ORIENTED_EDGE('',*,*,#225,.F.);
#167=ORIENTED_EDGE('',*,*,#218,.T.);
#168=ORIENTED_EDGE('',*,*,#223,.T.);
#169=CARTESIAN_POINT('',(-0.006,0.03376,0.0));
#170=DIRECTION('',(-1.0,0.0,0.0));
#171=DIRECTION('',(0.0,-0.0,1.0));
#172=ORIENTED_EDGE('',*,*,#226,.F.);
#173=ORIENTED_EDGE('',*,*,#221,.F.);
#174=ORIENTED_EDGE('',*,*,#215,.T.);
#175=ORIENTED_EDGE('',*,*,#225,.T.);
#176=CARTESIAN_POINT('',(0.0,0.03376,-0.004));
#177=DIRECTION('',(0.0,0.0,-1.0));
#178=DIRECTION('',(-1.0,0.0,0.0));
#179=ORIENTED_EDGE('',*,*,#226,.T.);
#180=ORIENTED_EDGE('',*,*,#224,.T.);
#181=ORIENTED_EDGE('',*,*,#222,.T.);
#182=ORIENTED_EDGE('',*,*,#219,.T.);
#183=CARTESIAN_POINT('',(0.0,0.05176,0.0));
#184=DIRECTION('',(0.0,1.0,0.0));
#185=DIRECTION('',(0.0,0.0,1.0));
#186=ORIENTED_EDGE('',*,*,#227,.F.);
#187=ORIENTED_EDGE('',*,*,#205,.F.);
#188=CARTESIAN_POINT('',(0.0,0.0,0.0));
#189=DIRECTION('',(0.0,1.0,0.0));
#190=DIRECTION('',(0.0,0.0,1.0));
#191=ORIENTED_EDGE('',*,*,#204,.T.);
#192=ORIENTED_EDGE('',*,*,#214,.T.);
#193=ORIENTED_EDGE('',*,*,#206,.T.);
#194=ORIENTED_EDGE('',*,*,#227,.T.);
#195=CARTESIAN_POINT('',(0.0,0.0,0.0));
#196=DIRECTION('',(0.0,1.0,0.0));
#197=DIRECTION('',(-1.0,0.0,0.0));
#198=ORIENTED_EDGE('',*,*,#213,.T.);
#199=ORIENTED_EDGE('',*,*,#209,.T.);
#200=CARTESIAN_POINT('',(0.0,0.05176,0.0));
#201=DIRECTION('',(0.0,1.0,0.0));
#202=DIRECTION('',(0.0,0.0,1.0));
#203=COLOUR_RGB('',0.560784339904785,0.686274528503418,0.560784339904785);
#204=EDGE_CURVE('',#228,#229,#230,.T.);
#205=EDGE_CURVE('0:5940',#228,#231,#232,.F.);
#206=EDGE_CURVE('',#233,#231,#234,.T.);
#207=EDGE_CURVE('0:5937',#233,#229,#235,.T.);
#208=EDGE_CURVE('',#236,#237,#238,.T.);
#209=EDGE_CURVE('0:18865',#239,#236,#240,.T.);
#210=EDGE_CURVE('',#241,#239,#242,.T.);
#211=EDGE_CURVE('0:18868',#241,#237,#243,.T.);
#212=EDGE_CURVE('0:18868',#237,#241,#244,.T.);
#213=EDGE_CURVE('0:18865',#236,#239,#245,.T.);
#214=EDGE_CURVE('0:5937',#229,#233,#246,.T.);
#215=EDGE_CURVE('0:16293',#247,#248,#249,.T.);
#216=EDGE_CURVE('0:16323',#250,#247,#251,.T.);
#217=EDGE_CURVE('0:16313',#252,#250,#253,.T.);
#218=EDGE_CURVE('0:16303',#248,#252,#254,.T.);
#219=EDGE_CURVE('0:16320',#255,#256,#257,.T.);
#220=EDGE_CURVE('0:16286',#250,#255,#258,.T.);
#221=EDGE_CURVE('0:16280',#247,#256,#259,.T.);
#222=EDGE_CURVE('0:16310',#260,#255,#261,.T.);
#223=EDGE_CURVE('0:16283',#252,#260,#262,.T.);
#224=EDGE_CURVE('0:16300',#263,#260,#264,.T.);
#225=EDGE_CURVE('0:16277',#248,#263,#265,.T.);
#226=EDGE_CURVE('0:16290',#256,#263,#266,.T.);
#227=EDGE_CURVE('0:5940',#231,#228,#267,.F.);
#228=VERTEX_POINT('',#268);
#229=VERTEX_POINT('',#269);
#230=LINE('',#270,#271);
#231=VERTEX_POINT('',#272);
#232=CIRCLE('',#273,0.03118);
#233=VERTEX_POINT('',#274);
#234=LINE('',#275,#276);
#235=CIRCLE('',#277,0.03118);
#236=VERTEX_POINT('',#278);
#237=VERTEX_POINT('',#279);
#238=LINE('',#280,#281);
#239=VERTEX_POINT('',#282);
#240=CIRCLE('',#283,0.00412310562561766);
#241=VERTEX_POINT('',#284);
#242=LINE('',#285,#286);
#243=CIRCLE('',#287,0.00412310562561766);
#244=CIRCLE('',#288,0.00412310562561766);
#245=CIRCLE('',#289,0.00412310562561766);
#246=CIRCLE('',#290,0.03118);
#247=VERTEX_POINT('',#291);
#248=VERTEX_POINT('',#292);
#249=LINE('',#293,#294);
#250=VERTEX_POINT('',#295);
#251=LINE('',#296,#297);
#252=VERTEX_POINT('',#298);
#253=LINE('',#299,#300);
#254=LINE('',#301,#302);
#255=VERTEX_POINT('',#303);
#256=VERTEX_POINT('',#304);
#257=LINE('',#305,#306);
#258=LINE('',#307,#308);
#259=LINE('',#309,#310);
#260=VERTEX_POINT('',#311);
#261=LINE('',#312,#313);
#262=LINE('',#314,#315);
#263=VERTEX_POINT('',#316);
#264=LINE('',#317,#318);
#265=LINE('',#319,#320);
#266=LINE('',#321,#322);
#267=CIRCLE('',#323,0.03118);
#268=CARTESIAN_POINT('',(-0.03118,0.0,-3.81844871974145E-18));
#269=CARTESIAN_POINT('',(-0.03118,0.03376,-3.81844871974145E-18));
#270=CARTESIAN_POINT('',(-0.03118,0.0,-3.81844871974145E-18));
#271=VECTOR('',#324,1.0);
#272=CARTESIAN_POINT('',(0.03118,0.0,3.81844871974145E-18));
#273=AXIS2_PLACEMENT_3D('',#325,#326,#327);
#274=CARTESIAN_POINT('',(0.03118,0.03376,3.81844871974145E-18));
#275=CARTESIAN_POINT('',(0.03118,0.0,3.81844871974145E-18));
#276=VECTOR('',#328,1.0);
#277=AXIS2_PLACEMENT_3D('',#329,#330,#331);
#278=CARTESIAN_POINT('',(0.00412310562561766,0.05176,0.015));
#279=CARTESIAN_POINT('',(0.00412310562561766,0.03376,0.015));
#280=CARTESIAN_POINT('',(0.00412310562561766,0.03376,0.015));
#281=VECTOR('',#332,1.0);
#282=CARTESIAN_POINT('',(-0.00412310562561766,0.05176,0.015));
#283=AXIS2_PLACEMENT_3D('',#333,#334,#335);
#284=CARTESIAN_POINT('',(-0.00412310562561766,0.03376,0.015));
#285=CARTESIAN_POINT('',(-0.00412310562561766,0.03376,0.015));
#286=VECTOR('',#336,1.0);
#287=AXIS2_PLACEMENT_3D('',#337,#338,#339);
#288=AXIS2_PLACEMENT_3D('',#340,#341,#342);
#289=AXIS2_PLACEMENT_3D('',#343,#344,#345);
#290=AXIS2_PLACEMENT_3D('',#346,#347,#348);
#291=CARTESIAN_POINT('',(0.006,0.03376,-0.004));
#292=CARTESIAN_POINT('',(-0.006,0.03376,-0.004));
#293=CARTESIAN_POINT('',(0.006,0.03376,-0.004));
#294=VECTOR('',#349,1.0);
#295=CARTESIAN_POINT('',(0.006,0.03376,0.004));
#296=CARTESIAN_POINT('',(0.006,0.03376,0.004));
#297=VECTOR('',#350,1.0);
#298=CARTESIAN_POINT('',(-0.006,0.03376,0.004));
#299=CARTESIAN_POINT('',(-0.006,0.03376,0.004));
#300=VECTOR('',#351,1.0);
#301=CARTESIAN_POINT('',(-0.006,0.03376,-0.004));
#302=VECTOR('',#352,1.0);
#303=CARTESIAN_POINT('',(0.006,0.05176,0.004));
#304=CARTESIAN_POINT('',(0.006,0.05176,-0.004));
#305=CARTESIAN_POINT('',(0.006,0.05176,0.0));
#306=VECTOR('',#353,1.0);
#307=CARTESIAN_POINT('',(0.006,0.03376,0.004));
#308=VECTOR('',#354,1.0);
#309=CARTESIAN_POINT('',(0.006,0.03376,-0.004));
#310=VECTOR('',#355,1.0);
#311=CARTESIAN_POINT('',(-0.006,0.05176,0.004));
#312=CARTESIAN_POINT('',(0.0,0.05176,0.004));
#313=VECTOR('',#356,1.0);
#314=CARTESIAN_POINT('',(-0.006,0.03376,0.004));
#315=VECTOR('',#357,1.0);
#316=CARTESIAN_POINT('',(-0.006,0.05176,-0.004));
#317=CARTESIAN_POINT('',(-0.006,0.05176,0.0));
#318=VECTOR('',#358,1.0);
#319=CARTESIAN_POINT('',(-0.006,0.03376,-0.004));
#320=VECTOR('',#359,1.0);
#321=CARTESIAN_POINT('',(0.0,0.05176,-0.004));
#322=VECTOR('',#360,1.0);
#323=AXIS2_PLACEMENT_3D('',#361,#362,#363);
#324=DIRECTION('',(0.0,1.0,0.0));
#325=CARTESIAN_POINT('',(0.0,0.0,0.0));
#326=DIRECTION('',(-0.0,-1.0,-0.0));
#327=DIRECTION('',(-1.0,0.0,0.0));
#328=DIRECTION('',(-0.0,-1.0,-0.0));
#329=CARTESIAN_POINT('',(0.0,0.03376,0.0));
#330=DIRECTION('',(-0.0,-1.0,-0.0));
#331=DIRECTION('',(-1.0,0.0,0.0));
#332=DIRECTION('',(-0.0,-1.0,-0.0));
#333=CARTESIAN_POINT('',(0.0,0.05176,0.015));
#334=DIRECTION('',(0.0,1.0,0.0));
#335=DIRECTION('',(-1.0,0.0,0.0));
#336=DIRECTION('',(0.0,1.0,0.0));
#337=CARTESIAN_POINT('',(0.0,0.03376,0.015));
#338=DIRECTION('',(0.0,1.0,0.0));
#339=DIRECTION('',(-1.0,0.0,0.0));
#340=CARTESIAN_POINT('',(0.0,0.03376,0.015));
#341=DIRECTION('',(0.0,1.0,0.0));
#342=DIRECTION('',(-1.0,0.0,0.0));
#343=CARTESIAN_POINT('',(0.0,0.05176,0.015));
#344=DIRECTION('',(0.0,1.0,0.0));
#345=DIRECTION('',(-1.0,0.0,0.0));
#346=CARTESIAN_POINT('',(0.0,0.03376,0.0));
#347=DIRECTION('',(-0.0,-1.0,-0.0));
#348=DIRECTION('',(-1.0,0.0,0.0));
#349=DIRECTION('',(-1.0,0.0,0.0));
#350=DIRECTION('',(0.0,0.0,-1.0));
#351=DIRECTION('',(1.0,0.0,0.0));
#352=DIRECTION('',(0.0,0.0,1.0));
#353=DIRECTION('',(0.0,0.0,-1.0));
#354=DIRECTION('',(0.0,1.0,0.0));
#355=DIRECTION('',(0.0,1.0,0.0));
#356=DIRECTION('',(1.0,0.0,0.0));
#357=DIRECTION('',(0.0,1.0,0.0));
#358=DIRECTION('',(0.0,-0.0,1.0));
#359=DIRECTION('',(0.0,1.0,0.0));
#360=DIRECTION('',(-1.0,0.0,0.0));
#361=CARTESIAN_POINT('',(0.0,0.0,0.0));
#362=DIRECTION('',(-0.0,-1.0,-0.0));
#363=DIRECTION('',(-1.0,0.0,0.0));
#364=PRESENTATION_LAYER_ASSIGNMENT('9','Layer0',(#25));
ENDSEC;
END-ISO-10303-21;
