ISO-10303-21;
HEADER;
FILE_DESCRIPTION (( 'STEP AP214' ),
    '1' );
FILE_NAME ('decoupling_cavity_cylindrical.STEP',
    '2026-08-09T00:01:05',
    ( '' ),
    ( '' ),
    'SwSTEP 2.0',
    'SolidWorks 2015',
    '' );
FILE_SCHEMA (( 'AUTOMOTIVE_DESIGN' ));
ENDSEC;

DATA;
#1 = PRODUCT_DEFINITION_CONTEXT ( 'detailed design', #70, 'design' ) ;
#2 = AXIS2_PLACEMENT_3D ( 'NONE', #345, #434, #426 ) ;
#3 = AXIS2_PLACEMENT_3D ( 'NONE', #7, #859, #770 ) ;
#4 = VECTOR ( 'NONE', #408, 1000.000000000000000 ) ;
#5 = ORIENTED_EDGE ( 'NONE', *, *, #99, .T. ) ;
#6 = CARTESIAN_POINT ( 'NONE',  ( 860.0000000000000000, 1.224646799147353400E-014, -100.0000000000000000 ) ) ;
#7 = CARTESIAN_POINT ( 'NONE',  ( 230.0000000000000000, 0.0000000000000000000, 0.0000000000000000000 ) ) ;
#8 = VERTEX_POINT ( 'NONE', #6 ) ;
#9 = LINE ( 'NONE', #369, #315 ) ;
#10 = CYLINDRICAL_SURFACE ( 'NONE', #485, 100.0000000000000000 ) ;
#11 = AXIS2_PLACEMENT_3D ( 'NONE', #575, #1218, #1003 ) ;
#12 = AXIS2_PLACEMENT_3D ( 'NONE', #383, #289, #102 ) ;
#13 = CARTESIAN_POINT ( 'NONE',  ( 610.0000000000000000, 0.0000000000000000000, 0.0000000000000000000 ) ) ;
#14 = ORIENTED_EDGE ( 'NONE', *, *, #255, .T. ) ;
#15 = ORIENTED_EDGE ( 'NONE', *, *, #671, .F. ) ;
#16 = CARTESIAN_POINT ( 'NONE',  ( 280.0000000000000000, 0.0000000000000000000, 0.0000000000000000000 ) ) ;
#17 = DIRECTION ( 'NONE',  ( -1.000000000000000000, -0.0000000000000000000, -0.0000000000000000000 ) ) ;
#18 = CARTESIAN_POINT ( 'NONE',  ( 580.0000000000000000, 0.0000000000000000000, 0.0000000000000000000 ) ) ;
#19 = UNCERTAINTY_MEASURE_WITH_UNIT (LENGTH_MEASURE( 1.000000000000000100E-005 ), #987, 'distance_accuracy_value', 'NONE');
#20 = VECTOR ( 'NONE', #224, 1000.000000000000000 ) ;
#21 = DIRECTION ( 'NONE',  ( 0.0000000000000000000, 0.0000000000000000000, 1.000000000000000000 ) ) ;
#22 = DIRECTION ( 'NONE',  ( 0.0000000000000000000, 0.0000000000000000000, 1.000000000000000000 ) ) ;
#23 = EDGE_CURVE ( 'NONE', #731, #114, #456, .T. ) ;
#24 = FACE_OUTER_BOUND ( 'NONE', #1042, .T. ) ;
#25 = LINE ( 'NONE', #715, #332 ) ;
#26 = LINE ( 'NONE', #882, #94 ) ;
#27 = CARTESIAN_POINT ( 'NONE',  ( 0.0000000000000000000, 0.0000000000000000000, 0.0000000000000000000 ) ) ;
#28 = FACE_BOUND ( 'NONE', #1158, .T. ) ;
#29 = ORIENTED_EDGE ( 'NONE', *, *, #767, .T. ) ;
#30 = DIRECTION ( 'NONE',  ( -1.000000000000000000, -0.0000000000000000000, -0.0000000000000000000 ) ) ;
#31 = ORIENTED_EDGE ( 'NONE', *, *, #306, .T. ) ;
#32 = CARTESIAN_POINT ( 'NONE',  ( 230.0000000000000000, 4.898587196589408300E-015, -39.99999999999995700 ) ) ;
#33 = PLANE ( 'NONE',  #1062 ) ;
#34 = CARTESIAN_POINT ( 'NONE',  ( 230.0000000000000000, 0.0000000000000000000, 0.0000000000000000000 ) ) ;
#35 = AXIS2_PLACEMENT_3D ( 'NONE', #1213, #853, #539 ) ;
#36 = CARTESIAN_POINT ( 'NONE',  ( 280.0000000000000000, 0.0000000000000000000, 39.99999999999995700 ) ) ;
#37 = ORIENTED_EDGE ( 'NONE', *, *, #937, .F. ) ;
#38 = DIRECTION ( 'NONE',  ( 0.0000000000000000000, 0.0000000000000000000, 1.000000000000000000 ) ) ;
#39 = ORIENTED_EDGE ( 'NONE', *, *, #436, .F. ) ;
#40 = EDGE_CURVE ( 'NONE', #726, #482, #925, .T. ) ;
#41 = CYLINDRICAL_SURFACE ( 'NONE', #626, 39.99999999999995700 ) ;
#42 = DIRECTION ( 'NONE',  ( 0.0000000000000000000, 0.0000000000000000000, 1.000000000000000000 ) ) ;
#43 = CARTESIAN_POINT ( 'NONE',  ( 580.0000000000000000, 0.0000000000000000000, 0.0000000000000000000 ) ) ;
#44 = ORIENTED_EDGE ( 'NONE', *, *, #1005, .T. ) ;
#45 = AXIS2_PLACEMENT_3D ( 'NONE', #226, #804, #342 ) ;
#46 = DIRECTION ( 'NONE',  ( -1.000000000000000000, -0.0000000000000000000, -0.0000000000000000000 ) ) ;
#47 = ORIENTED_EDGE ( 'NONE', *, *, #597, .T. ) ;
#48 = AXIS2_PLACEMENT_3D ( 'NONE', #486, #30, #598 ) ;
#49 = ORIENTED_EDGE ( 'NONE', *, *, #325, .F. ) ;
#50 = CARTESIAN_POINT ( 'NONE',  ( 860.0000000000000000, 0.0000000000000000000, 0.0000000000000000000 ) ) ;
#51 = DIRECTION ( 'NONE',  ( 0.0000000000000000000, 0.0000000000000000000, 1.000000000000000000 ) ) ;
#52 = DIRECTION ( 'NONE',  ( -1.000000000000000000, -0.0000000000000000000, -0.0000000000000000000 ) ) ;
#53 = DIRECTION ( 'NONE',  ( 0.0000000000000000000, 0.0000000000000000000, 1.000000000000000000 ) ) ;
#54 = VECTOR ( 'NONE', #313, 1000.000000000000000 ) ;
#55 = CARTESIAN_POINT ( 'NONE',  ( 0.0000000000000000000, 4.898587196589408300E-015, -39.99999999999995700 ) ) ;
#56 = EDGE_CURVE ( 'NONE', #8, #977, #1054, .T. ) ;
#57 = STYLED_ITEM ( 'NONE', ( #961 ), #323 ) ;
#58 =( NAMED_UNIT ( * ) PLANE_ANGLE_UNIT ( ) SI_UNIT ( $, .RADIAN. ) );
#59 = CIRCLE ( 'NONE', #1066, 39.99999999999995700 ) ;
#60 = CYLINDRICAL_SURFACE ( 'NONE', #479, 39.99999999999995700 ) ;
#61 = LINE ( 'NONE', #55, #311 ) ;
#62 = VECTOR ( 'NONE', #17, 1000.000000000000000 ) ;
#63 = ORIENTED_EDGE ( 'NONE', *, *, #767, .F. ) ;
#64 = DIRECTION ( 'NONE',  ( 0.0000000000000000000, 0.0000000000000000000, 1.000000000000000000 ) ) ;
#65 = ORIENTED_EDGE ( 'NONE', *, *, #879, .F. ) ;
#66 = ORIENTED_EDGE ( 'NONE', *, *, #789, .T. ) ;
#67 = DIRECTION ( 'NONE',  ( -1.000000000000000000, -0.0000000000000000000, -0.0000000000000000000 ) ) ;
#68 = DIRECTION ( 'NONE',  ( 0.0000000000000000000, 0.0000000000000000000, 1.000000000000000000 ) ) ;
#69 = DIRECTION ( 'NONE',  ( 0.0000000000000000000, 0.0000000000000000000, 1.000000000000000000 ) ) ;
#70 = APPLICATION_CONTEXT ( 'automotive_design' ) ;
#71 = ORIENTED_EDGE ( 'NONE', *, *, #103, .T. ) ;
#72 = ADVANCED_FACE ( 'NONE', ( #498 ), #484, .T. ) ;
#73 = EDGE_CURVE ( 'NONE', #596, #414, #1015, .T. ) ;
#74 = AXIS2_PLACEMENT_3D ( 'NONE', #744, #1112, #928 ) ;
#75 = ORIENTED_EDGE ( 'NONE', *, *, #1129, .T. ) ;
#76 = CONICAL_SURFACE ( 'NONE', #147, 149.9999999999999700, 0.4636476090008052100 ) ;
#77 = CARTESIAN_POINT ( 'NONE',  ( 630.0000000000000000, 0.0000000000000000000, 99.99999999999994300 ) ) ;
#78 = CIRCLE ( 'NONE', #771, 99.99999999999994300 ) ;
#79 = EDGE_LOOP ( 'NONE', ( #222, #1130, #817, #891 ) ) ;
#80 = CARTESIAN_POINT ( 'NONE',  ( 250.0000000000000000, 1.224646799147352600E-014, -99.99999999999994300 ) ) ;
#81 = CARTESIAN_POINT ( 'NONE',  ( 250.0000000000000000, 0.0000000000000000000, 99.99999999999994300 ) ) ;
#82 = VERTEX_POINT ( 'NONE', #515 ) ;
#83 = ADVANCED_FACE ( 'NONE', ( #1188 ), #33, .F. ) ;
#84 = VERTEX_POINT ( 'NONE', #36 ) ;
#85 = AXIS2_PLACEMENT_3D ( 'NONE', #603, #503, #793 ) ;
#86 =( GEOMETRIC_REPRESENTATION_CONTEXT ( 3 ) GLOBAL_UNCERTAINTY_ASSIGNED_CONTEXT ( ( #279 ) ) GLOBAL_UNIT_ASSIGNED_CONTEXT ( ( #178, #93, #272 ) ) REPRESENTATION_CONTEXT ( 'NONE', 'WORKASPACE' ) );
#87 = CARTESIAN_POINT ( 'NONE',  ( 610.0000000000001100, 4.898587196589408300E-015, -39.99999999999995700 ) ) ;
#88 = DIRECTION ( 'NONE',  ( 1.000000000000000000, 0.0000000000000000000, 0.0000000000000000000 ) ) ;
#89 = FACE_OUTER_BOUND ( 'NONE', #687, .T. ) ;
#90 = ADVANCED_FACE ( 'NONE', ( #89, #558 ), #130, .T. ) ;
#91 = DIRECTION ( 'NONE',  ( -1.000000000000000000, -0.0000000000000000000, -0.0000000000000000000 ) ) ;
#92 = CARTESIAN_POINT ( 'NONE',  ( 0.0000000000000000000, 0.0000000000000000000, 0.0000000000000000000 ) ) ;
#93 =( NAMED_UNIT ( * ) PLANE_ANGLE_UNIT ( ) SI_UNIT ( $, .RADIAN. ) );
#94 = VECTOR ( 'NONE', #413, 1000.000000000000000 ) ;
#95 = PLANE ( 'NONE',  #861 ) ;
#96 = FILL_AREA_STYLE_COLOUR ( '', #1211 ) ;
#97 = ORIENTED_EDGE ( 'NONE', *, *, #211, .F. ) ;
#98 =( LENGTH_UNIT ( ) NAMED_UNIT ( * ) SI_UNIT ( .MILLI., .METRE. ) );
#99 = EDGE_CURVE ( 'NONE', #101, #1091, #954, .T. ) ;
#100 = DIRECTION ( 'NONE',  ( -1.000000000000000000, -0.0000000000000000000, -0.0000000000000000000 ) ) ;
#101 = VERTEX_POINT ( 'NONE', #967 ) ;
#102 = DIRECTION ( 'NONE',  ( 0.0000000000000000000, 0.0000000000000000000, 1.000000000000000000 ) ) ;
#103 = EDGE_CURVE ( 'NONE', #405, #926, #794, .T. ) ;
#104 = AXIS2_PLACEMENT_3D ( 'NONE', #797, #335, #1070 ) ;
#105 = CARTESIAN_POINT ( 'NONE',  ( 250.0000000000000000, 1.387778780781445400E-013, 0.0000000000000000000 ) ) ;
#106 = CARTESIAN_POINT ( 'NONE',  ( 610.0000000000000000, 1.224646799147352900E-014, -99.99999999999997200 ) ) ;
#107 = ORIENTED_EDGE ( 'NONE', *, *, #302, .F. ) ;
#108 = DIRECTION ( 'NONE',  ( 0.0000000000000000000, 0.0000000000000000000, 1.000000000000000000 ) ) ;
#109 = ORIENTED_EDGE ( 'NONE', *, *, #241, .F. ) ;
#110 = LINE ( 'NONE', #115, #582 ) ;
#111 = AXIS2_PLACEMENT_3D ( 'NONE', #1210, #571, #469 ) ;
#112 = CIRCLE ( 'NONE', #814, 149.9999999999999700 ) ;
#113 = VERTEX_POINT ( 'NONE', #790 ) ;
#114 = VERTEX_POINT ( 'NONE', #403 ) ;
#115 = CARTESIAN_POINT ( 'NONE',  ( 0.0000000000000000000, 1.224646799147352600E-014, -99.99999999999994300 ) ) ;
#116 = EDGE_CURVE ( 'NONE', #611, #167, #589, .T. ) ;
#117 = AXIS2_PLACEMENT_3D ( 'NONE', #819, #1182, #631 ) ;
#118 = CARTESIAN_POINT ( 'NONE',  ( 280.0000000000000000, 0.0000000000000000000, 0.0000000000000000000 ) ) ;
#119 = AXIS2_PLACEMENT_3D ( 'NONE', #519, #235, #897 ) ;
#120 = CARTESIAN_POINT ( 'NONE',  ( 0.0000000000000000000, 0.0000000000000000000, 100.0000000000000000 ) ) ;
#121 = DIRECTION ( 'NONE',  ( 0.0000000000000000000, 0.0000000000000000000, 1.000000000000000000 ) ) ;
#122 = CIRCLE ( 'NONE', #290, 99.99999999999995700 ) ;
#123 = AXIS2_PLACEMENT_3D ( 'NONE', #159, #629, #42 ) ;
#124 = FACE_OUTER_BOUND ( 'NONE', #443, .T. ) ;
#125 = AXIS2_PLACEMENT_3D ( 'NONE', #522, #1157, #328 ) ;
#126 = ORIENTED_EDGE ( 'NONE', *, *, #116, .T. ) ;
#127 = ORIENTED_EDGE ( 'NONE', *, *, #597, .F. ) ;
#128 = ORIENTED_EDGE ( 'NONE', *, *, #874, .F. ) ;
#129 = VERTEX_POINT ( 'NONE', #406 ) ;
#130 = PLANE ( 'NONE',  #1045 ) ;
#131 = CARTESIAN_POINT ( 'NONE',  ( 0.0000000000000000000, 1.224646799147353200E-014, -100.0000000000000000 ) ) ;
#132 = CARTESIAN_POINT ( 'NONE',  ( 0.0000000000000000000, 0.0000000000000000000, 0.0000000000000000000 ) ) ;
#133 = EDGE_CURVE ( 'NONE', #829, #114, #835, .T. ) ;
#134 = ORIENTED_EDGE ( 'NONE', *, *, #391, .F. ) ;
#135 = CIRCLE ( 'NONE', #1064, 39.99999999999995700 ) ;
#136 = CIRCLE ( 'NONE', #576, 39.99999999999995700 ) ;
#137 = VERTEX_POINT ( 'NONE', #792 ) ;
#138 = EDGE_CURVE ( 'NONE', #605, #536, #505, .T. ) ;
#139 = MECHANICAL_DESIGN_GEOMETRIC_PRESENTATION_REPRESENTATION (  '', ( #57 ), #437 ) ;
#140 = ORIENTED_EDGE ( 'NONE', *, *, #56, .F. ) ;
#141 = DIRECTION ( 'NONE',  ( -1.000000000000000000, -0.0000000000000000000, -0.0000000000000000000 ) ) ;
#142 = DIRECTION ( 'NONE',  ( 0.0000000000000000000, 0.0000000000000000000, 1.000000000000000000 ) ) ;
#143 = ORIENTED_EDGE ( 'NONE', *, *, #103, .F. ) ;
#144 = CARTESIAN_POINT ( 'NONE',  ( 0.0000000000000000000, 0.0000000000000000000, 0.0000000000000000000 ) ) ;
#145 = DIRECTION ( 'NONE',  ( -1.000000000000000000, -0.0000000000000000000, -0.0000000000000000000 ) ) ;
#146 = CARTESIAN_POINT ( 'NONE',  ( 150.0000000000000000, 0.0000000000000000000, -100.0000000000000000 ) ) ;
#147 = AXIS2_PLACEMENT_3D ( 'NONE', #641, #717, #158 ) ;
#148 = CARTESIAN_POINT ( 'NONE',  ( 230.0000000000000000, 0.0000000000000000000, 0.0000000000000000000 ) ) ;
#149 = ORIENTED_EDGE ( 'NONE', *, *, #644, .F. ) ;
#150 = VECTOR ( 'NONE', #545, 1000.000000000000100 ) ;
#151 = CIRCLE ( 'NONE', #1100, 39.99999999999995700 ) ;
#152 = DIRECTION ( 'NONE',  ( -1.000000000000000000, -0.0000000000000000000, -0.0000000000000000000 ) ) ;
#153 = DIRECTION ( 'NONE',  ( 0.0000000000000000000, 0.0000000000000000000, 1.000000000000000000 ) ) ;
#154 = CLOSED_SHELL ( 'NONE', ( #1111, #1021, #544, #83 ) ) ;
#155 = EDGE_LOOP ( 'NONE', ( #617, #195, #431, #143 ) ) ;
#156 = CARTESIAN_POINT ( 'NONE',  ( 0.0000000000000000000, 1.224646799147352600E-014, -99.99999999999994300 ) ) ;
#157 = EDGE_CURVE ( 'NONE', #1119, #570, #112, .T. ) ;
#158 = DIRECTION ( 'NONE',  ( 0.0000000000000000000, 0.0000000000000000000, 1.000000000000000000 ) ) ;
#159 = CARTESIAN_POINT ( 'NONE',  ( 610.0000000000000000, 0.0000000000000000000, 0.0000000000000000000 ) ) ;
#160 = EDGE_CURVE ( 'NONE', #405, #8, #1051, .T. ) ;
#161 = PRODUCT_RELATED_PRODUCT_CATEGORY ( 'part', '', ( #1142 ) ) ;
#162 = ORIENTED_EDGE ( 'NONE', *, *, #73, .T. ) ;
#163 = CIRCLE ( 'NONE', #541, 100.0000000000000000 ) ;
#164 = CIRCLE ( 'NONE', #752, 39.99999999999995700 ) ;
#165 = ADVANCED_FACE ( 'NONE', ( #863 ), #41, .T. ) ;
#166 = VERTEX_POINT ( 'NONE', #613 ) ;
#167 = VERTEX_POINT ( 'NONE', #895 ) ;
#168 = AXIS2_PLACEMENT_3D ( 'NONE', #662, #735, #173 ) ;
#169 = VERTEX_POINT ( 'NONE', #243 ) ;
#170 = CARTESIAN_POINT ( 'NONE',  ( 280.0000000000000000, 0.0000000000000000000, 0.0000000000000000000 ) ) ;
#171 = EDGE_CURVE ( 'NONE', #169, #137, #78, .T. ) ;
#172 = DIRECTION ( 'NONE',  ( 0.8944271909999160800, 5.476786982642022500E-017, 0.4472135954999575900 ) ) ;
#173 = DIRECTION ( 'NONE',  ( 0.0000000000000000000, 0.0000000000000000000, 1.000000000000000000 ) ) ;
#174 = CLOSED_SHELL ( 'NONE', ( #745, #359, #1028, #688, #1195, #465, #1120, #574, #738, #186, #285, #856 ) ) ;
#175 = EDGE_CURVE ( 'NONE', #787, #1011, #654, .T. ) ;
#176 = CARTESIAN_POINT ( 'NONE',  ( 630.0000000000000000, 0.0000000000000000000, 0.0000000000000000000 ) ) ;
#177 =( NAMED_UNIT ( * ) PLANE_ANGLE_UNIT ( ) SI_UNIT ( $, .RADIAN. ) );
#178 =( LENGTH_UNIT ( ) NAMED_UNIT ( * ) SI_UNIT ( .MILLI., .METRE. ) );
#179 = LINE ( 'NONE', #156, #491 ) ;
#180 = CYLINDRICAL_SURFACE ( 'NONE', #104, 99.99999999999994300 ) ;
#181 = EDGE_LOOP ( 'NONE', ( #127, #538, #889, #464 ) ) ;
#182 = DIRECTION ( 'NONE',  ( -1.000000000000000000, -0.0000000000000000000, -0.0000000000000000000 ) ) ;
#183 = EDGE_LOOP ( 'NONE', ( #1155, #448, #1084, #998 ) ) ;
#184 = EDGE_CURVE ( 'NONE', #82, #414, #1022, .T. ) ;
#185 = EDGE_LOOP ( 'NONE', ( #149, #1203 ) ) ;
#186 = ADVANCED_FACE ( 'NONE', ( #871 ), #803, .T. ) ;
#187 = STYLED_ITEM ( 'NONE', ( #622 ), #647 ) ;
#188 = SURFACE_SIDE_STYLE ('',( #428 ) ) ;
#189 = DIRECTION ( 'NONE',  ( -1.000000000000000000, -0.0000000000000000000, -0.0000000000000000000 ) ) ;
#190 = FACE_BOUND ( 'NONE', #847, .T. ) ;
#191 = DIRECTION ( 'NONE',  ( -1.000000000000000000, -0.0000000000000000000, -0.0000000000000000000 ) ) ;
#192 = CYLINDRICAL_SURFACE ( 'NONE', #269, 100.0000000000000100 ) ;
#193 = ORIENTED_EDGE ( 'NONE', *, *, #751, .T. ) ;
#194 = EDGE_LOOP ( 'NONE', ( #320, #979 ) ) ;
#195 = ORIENTED_EDGE ( 'NONE', *, *, #56, .T. ) ;
#196 = DIRECTION ( 'NONE',  ( 0.0000000000000000000, 0.0000000000000000000, 1.000000000000000000 ) ) ;
#197 = EDGE_CURVE ( 'NONE', #642, #787, #798, .T. ) ;
#198 = AXIS2_PLACEMENT_3D ( 'NONE', #277, #442, #88 ) ;
#199 = CARTESIAN_POINT ( 'NONE',  ( 580.0000000000000000, 0.0000000000000000000, 39.99999999999995700 ) ) ;
#200 = EDGE_LOOP ( 'NONE', ( #724, #818 ) ) ;
#201 = PRODUCT_DEFINITION_SHAPE ( 'NONE', 'NONE',  #292 ) ;
#202 = AXIS2_PLACEMENT_3D ( 'NONE', #170, #834, #260 ) ;
#203 = PRESENTATION_LAYER_ASSIGNMENT (  '', '', ( #57 ) ) ;
#204 = DIRECTION ( 'NONE',  ( 0.0000000000000000000, 0.0000000000000000000, 1.000000000000000000 ) ) ;
#205 = FACE_OUTER_BOUND ( 'NONE', #1087, .T. ) ;
#206 = EDGE_LOOP ( 'NONE', ( #704, #866, #31, #1061 ) ) ;
#207 = ORIENTED_EDGE ( 'NONE', *, *, #175, .T. ) ;
#208 = PLANE ( 'NONE',  #732 ) ;
#209 = CARTESIAN_POINT ( 'NONE',  ( 0.0000000000000000000, 0.0000000000000000000, 39.99999999999995700 ) ) ;
#210 = CARTESIAN_POINT ( 'NONE',  ( 0.0000000000000000000, 0.0000000000000000000, 0.0000000000000000000 ) ) ;
#211 = EDGE_CURVE ( 'NONE', #536, #113, #843, .T. ) ;
#212 = CARTESIAN_POINT ( 'NONE',  ( 0.0000000000000000000, 0.0000000000000000000, 100.0000000000000100 ) ) ;
#213 = CARTESIAN_POINT ( 'NONE',  ( 610.0000000000000000, 1.224646799147352900E-014, -99.99999999999997200 ) ) ;
#214 = ORIENTED_EDGE ( 'NONE', *, *, #1189, .F. ) ;
#215 = CYLINDRICAL_SURFACE ( 'NONE', #296, 99.99999999999994300 ) ;
#216 = CYLINDRICAL_SURFACE ( 'NONE', #777, 39.99999999999995700 ) ;
#217 =( GEOMETRIC_REPRESENTATION_CONTEXT ( 3 ) GLOBAL_UNCERTAINTY_ASSIGNED_CONTEXT ( ( #19 ) ) GLOBAL_UNIT_ASSIGNED_CONTEXT ( ( #987, #58, #811 ) ) REPRESENTATION_CONTEXT ( 'NONE', 'WORKASPACE' ) );
#218 = AXIS2_PLACEMENT_3D ( 'NONE', #454, #656, #373 ) ;
#219 = CARTESIAN_POINT ( 'NONE',  ( 610.0000000000000000, 0.0000000000000000000, 0.0000000000000000000 ) ) ;
#220 = ORIENTED_EDGE ( 'NONE', *, *, #1089, .T. ) ;
#221 = ORIENTED_EDGE ( 'NONE', *, *, #665, .F. ) ;
#222 = ORIENTED_EDGE ( 'NONE', *, *, #580, .T. ) ;
#223 = ORIENTED_EDGE ( 'NONE', *, *, #700, .T. ) ;
#224 = DIRECTION ( 'NONE',  ( -1.000000000000000000, -0.0000000000000000000, -0.0000000000000000000 ) ) ;
#225 = DIRECTION ( 'NONE',  ( 0.0000000000000000000, 0.0000000000000000000, 1.000000000000000000 ) ) ;
#226 = CARTESIAN_POINT ( 'NONE',  ( 250.0000000000000000, 0.0000000000000000000, 0.0000000000000000000 ) ) ;
#227 = ORIENTED_EDGE ( 'NONE', *, *, #99, .F. ) ;
#228 = EDGE_CURVE ( 'NONE', #926, #570, #994, .T. ) ;
#229 = LINE ( 'NONE', #827, #1178 ) ;
#230 = FILL_AREA_STYLE_COLOUR ( '', #1093 ) ;
#231 = CYLINDRICAL_SURFACE ( 'NONE', #868, 100.0000000000000000 ) ;
#232 = CYLINDRICAL_SURFACE ( 'NONE', #1074, 149.9999999999999700 ) ;
#233 = CYLINDRICAL_SURFACE ( 'NONE', #567, 39.99999999999995700 ) ;
#234 = EDGE_CURVE ( 'NONE', #611, #416, #549, .T. ) ;
#235 = DIRECTION ( 'NONE',  ( -1.000000000000000000, 0.0000000000000000000, -0.0000000000000000000 ) ) ;
#236 = ORIENTED_EDGE ( 'NONE', *, *, #1148, .F. ) ;
#237 = DIRECTION ( 'NONE',  ( -0.0000000000000000000, 0.0000000000000000000, 1.000000000000000000 ) ) ;
#238 = VERTEX_POINT ( 'NONE', #1167 ) ;
#239 = MANIFOLD_SOLID_BREP ( 'Revolução3', #381 ) ;
#240 = DIRECTION ( 'NONE',  ( 0.0000000000000000000, 0.0000000000000000000, 1.000000000000000000 ) ) ;
#241 = EDGE_CURVE ( 'NONE', #8, #405, #245, .T. ) ;
#242 = STYLED_ITEM ( 'NONE', ( #1147 ), #851 ) ;
#243 = CARTESIAN_POINT ( 'NONE',  ( 230.0000000000000000, 0.0000000000000000000, 99.99999999999994300 ) ) ;
#244 = CARTESIAN_POINT ( 'NONE',  ( 580.0000000000000000, 0.0000000000000000000, 0.0000000000000000000 ) ) ;
#245 = CIRCLE ( 'NONE', #1154, 100.0000000000000000 ) ;
#246 = CYLINDRICAL_SURFACE ( 'NONE', #765, 39.99999999999995700 ) ;
#247 = LINE ( 'NONE', #293, #638 ) ;
#248 = PRESENTATION_LAYER_ASSIGNMENT (  '', '', ( #187 ) ) ;
#249 = VERTEX_POINT ( 'NONE', #1083 ) ;
#250 = CARTESIAN_POINT ( 'NONE',  ( 860.0000000000000000, 0.0000000000000000000, 100.0000000000000000 ) ) ;
#251 = CARTESIAN_POINT ( 'NONE',  ( 610.0000000000000000, 0.0000000000000000000, 0.0000000000000000000 ) ) ;
#252 = SURFACE_STYLE_USAGE ( .BOTH. , #646 ) ;
#253 = VERTEX_POINT ( 'NONE', #716 ) ;
#254 = SURFACE_STYLE_USAGE ( .BOTH. , #188 ) ;
#255 = EDGE_CURVE ( 'NONE', #1137, #786, #1163, .T. ) ;
#256 =( NAMED_UNIT ( * ) PLANE_ANGLE_UNIT ( ) SI_UNIT ( $, .RADIAN. ) );
#257 = EDGE_CURVE ( 'NONE', #958, #113, #122, .T. ) ;
#258 = DIRECTION ( 'NONE',  ( 0.0000000000000000000, 0.0000000000000000000, -1.000000000000000000 ) ) ;
#259 = EDGE_LOOP ( 'NONE', ( #870, #685 ) ) ;
#260 = DIRECTION ( 'NONE',  ( 0.0000000000000000000, 0.0000000000000000000, 1.000000000000000000 ) ) ;
#261 = ADVANCED_FACE ( 'NONE', ( #314 ), #60, .T. ) ;
#262 = FACE_OUTER_BOUND ( 'NONE', #1161, .T. ) ;
#263 = CIRCLE ( 'NONE', #45, 99.99999999999994300 ) ;
#264 = FACE_OUTER_BOUND ( 'NONE', #425, .T. ) ;
#265 = DIRECTION ( 'NONE',  ( 0.0000000000000000000, 0.0000000000000000000, 1.000000000000000000 ) ) ;
#266 = CARTESIAN_POINT ( 'NONE',  ( 610.0000000000000000, 0.0000000000000000000, 99.99999999999995700 ) ) ;
#267 = ORIENTED_EDGE ( 'NONE', *, *, #1196, .T. ) ;
#268 = AXIS2_PLACEMENT_3D ( 'NONE', #34, #878, #225 ) ;
#269 = AXIS2_PLACEMENT_3D ( 'NONE', #474, #191, #108 ) ;
#270 = CARTESIAN_POINT ( 'NONE',  ( 250.0000000000000000, 0.0000000000000000000, 99.99999999999994300 ) ) ;
#271 =( NAMED_UNIT ( * ) SI_UNIT ( $, .STERADIAN. ) SOLID_ANGLE_UNIT ( ) );
#272 =( NAMED_UNIT ( * ) SI_UNIT ( $, .STERADIAN. ) SOLID_ANGLE_UNIT ( ) );
#273 = CARTESIAN_POINT ( 'NONE',  ( 250.0000000000000000, 1.387778780781445400E-013, 0.0000000000000000000 ) ) ;
#274 = CARTESIAN_POINT ( 'NONE',  ( 610.0000000000001100, 1.128726741702243000E-012, 0.0000000000000000000 ) ) ;
#275 = FILL_AREA_STYLE ('',( #96 ) ) ;
#276 = ADVANCED_FACE ( 'NONE', ( #280 ), #723, .F. ) ;
#277 = CARTESIAN_POINT ( 'NONE',  ( 0.0000000000000000000, 0.0000000000000000000, 0.0000000000000000000 ) ) ;
#278 = CARTESIAN_POINT ( 'NONE',  ( 610.0000000000001100, 0.0000000000000000000, 39.99999999999995700 ) ) ;
#279 = UNCERTAINTY_MEASURE_WITH_UNIT (LENGTH_MEASURE( 1.000000000000000100E-005 ), #178, 'distance_accuracy_value', 'NONE');
#280 = FACE_OUTER_BOUND ( 'NONE', #185, .T. ) ;
#281 = FACE_OUTER_BOUND ( 'NONE', #481, .T. ) ;
#282 = CARTESIAN_POINT ( 'NONE',  ( 610.0000000000000000, 0.0000000000000000000, 0.0000000000000000000 ) ) ;
#283 = EDGE_CURVE ( 'NONE', #1091, #101, #1035, .T. ) ;
#284 = CIRCLE ( 'NONE', #1207, 100.0000000000000000 ) ;
#285 = ADVANCED_FACE ( 'NONE', ( #301 ), #542, .T. ) ;
#286 = ORIENTED_EDGE ( 'NONE', *, *, #639, .F. ) ;
#287 = PLANE ( 'NONE',  #916 ) ;
#288 = ORIENTED_EDGE ( 'NONE', *, *, #1222, .T. ) ;
#289 = DIRECTION ( 'NONE',  ( -1.000000000000000000, -0.0000000000000000000, -0.0000000000000000000 ) ) ;
#290 = AXIS2_PLACEMENT_3D ( 'NONE', #251, #1179, #68 ) ;
#291 = ORIENTED_EDGE ( 'NONE', *, *, #471, .T. ) ;
#292 = PRODUCT_DEFINITION ( 'UNKNOWN', '', #903, #1 ) ;
#293 = CARTESIAN_POINT ( 'NONE',  ( 0.0000000000000000000, 0.0000000000000000000, 149.9999999999999700 ) ) ;
#294 = DIRECTION ( 'NONE',  ( -1.000000000000000000, -0.0000000000000000000, -0.0000000000000000000 ) ) ;
#295 = ORIENTED_EDGE ( 'NONE', *, *, #331, .F. ) ;
#296 = AXIS2_PLACEMENT_3D ( 'NONE', #350, #848, #64 ) ;
#297 = SURFACE_SIDE_STYLE ('',( #796 ) ) ;
#298 = ORIENTED_EDGE ( 'NONE', *, *, #283, .F. ) ;
#299 = CIRCLE ( 'NONE', #1030, 149.9999999999999700 ) ;
#300 = COLOUR_RGB ( '',0.7921568627450980000, 0.8196078431372548800, 0.9333333333333333500 ) ;
#301 = FACE_OUTER_BOUND ( 'NONE', #1170, .T. ) ;
#302 = EDGE_CURVE ( 'NONE', #596, #238, #523, .T. ) ;
#303 = ORIENTED_EDGE ( 'NONE', *, *, #23, .F. ) ;
#304 = ORIENTED_EDGE ( 'NONE', *, *, #808, .T. ) ;
#305 = CARTESIAN_POINT ( 'NONE',  ( 0.0000000000000000000, 0.0000000000000000000, 0.0000000000000000000 ) ) ;
#306 = EDGE_CURVE ( 'NONE', #129, #572, #531, .T. ) ;
#307 = DIRECTION ( 'NONE',  ( -1.000000000000000000, -0.0000000000000000000, -0.0000000000000000000 ) ) ;
#308 = EDGE_CURVE ( 'NONE', #238, #596, #357, .T. ) ;
#309 = DIRECTION ( 'NONE',  ( -1.000000000000000000, -0.0000000000000000000, -0.0000000000000000000 ) ) ;
#310 = DIRECTION ( 'NONE',  ( 1.000000000000000000, 0.0000000000000000000, 0.0000000000000000000 ) ) ;
#311 = VECTOR ( 'NONE', #52, 1000.000000000000000 ) ;
#312 = STYLED_ITEM ( 'NONE', ( #564 ), #239 ) ;
#313 = DIRECTION ( 'NONE',  ( -1.000000000000000000, -0.0000000000000000000, -0.0000000000000000000 ) ) ;
#314 = FACE_OUTER_BOUND ( 'NONE', #1125, .T. ) ;
#315 = VECTOR ( 'NONE', #1029, 1000.000000000000000 ) ;
#316 = DIRECTION ( 'NONE',  ( -1.000000000000000000, -0.0000000000000000000, -0.0000000000000000000 ) ) ;
#317 = ORIENTED_EDGE ( 'NONE', *, *, #1017, .T. ) ;
#318 = CARTESIAN_POINT ( 'NONE',  ( 0.0000000000000000000, 1.224646799147353400E-014, -100.0000000000000100 ) ) ;
#319 = CARTESIAN_POINT ( 'NONE',  ( 580.0000000000000000, 0.0000000000000000000, 39.99999999999995700 ) ) ;
#320 = ORIENTED_EDGE ( 'NONE', *, *, #1075, .T. ) ;
#321 = MECHANICAL_DESIGN_GEOMETRIC_PRESENTATION_REPRESENTATION (  '', ( #922 ), #799 ) ;
#322 = CARTESIAN_POINT ( 'NONE',  ( 250.0000000000000000, 0.0000000000000000000, 0.0000000000000000000 ) ) ;
#323 = ADVANCED_BREP_SHAPE_REPRESENTATION ( 'decoupling_cavity_cylindrical', ( #647, #851, #376, #502, #239, #393, #198 ), #86 ) ;
#324 = CARTESIAN_POINT ( 'NONE',  ( 610.0000000000000000, 0.0000000000000000000, 0.0000000000000000000 ) ) ;
#325 = EDGE_CURVE ( 'NONE', #167, #1052, #263, .T. ) ;
#326 = DIRECTION ( 'NONE',  ( -1.000000000000000000, -0.0000000000000000000, -0.0000000000000000000 ) ) ;
#327 = EDGE_LOOP ( 'NONE', ( #450, #758 ) ) ;
#328 = DIRECTION ( 'NONE',  ( 0.0000000000000000000, 0.0000000000000000000, 1.000000000000000000 ) ) ;
#329 = CIRCLE ( 'NONE', #202, 39.99999999999995700 ) ;
#330 = CYLINDRICAL_SURFACE ( 'NONE', #501, 39.99999999999995700 ) ;
#331 = EDGE_CURVE ( 'NONE', #605, #958, #179, .T. ) ;
#332 = VECTOR ( 'NONE', #526, 1000.000000000000000 ) ;
#333 = FILL_AREA_STYLE ('',( #344 ) ) ;
#334 = DIRECTION ( 'NONE',  ( -1.000000000000000000, -0.0000000000000000000, -0.0000000000000000000 ) ) ;
#335 = DIRECTION ( 'NONE',  ( -1.000000000000000000, -0.0000000000000000000, -0.0000000000000000000 ) ) ;
#336 = ORIENTED_EDGE ( 'NONE', *, *, #160, .F. ) ;
#337 = EDGE_LOOP ( 'NONE', ( #1193, #15 ) ) ;
#338 = DIRECTION ( 'NONE',  ( -1.000000000000000000, -0.0000000000000000000, -0.0000000000000000000 ) ) ;
#339 = DIRECTION ( 'NONE',  ( -1.000000000000000000, -0.0000000000000000000, -0.0000000000000000000 ) ) ;
#340 = AXIS2_PLACEMENT_3D ( 'NONE', #1184, #634, #69 ) ;
#341 = DIRECTION ( 'NONE',  ( -1.000000000000000000, -0.0000000000000000000, -0.0000000000000000000 ) ) ;
#342 = DIRECTION ( 'NONE',  ( 0.0000000000000000000, 0.0000000000000000000, 1.000000000000000000 ) ) ;
#343 = DIRECTION ( 'NONE',  ( -1.000000000000000000, -0.0000000000000000000, -0.0000000000000000000 ) ) ;
#344 = FILL_AREA_STYLE_COLOUR ( '', #683 ) ;
#345 = CARTESIAN_POINT ( 'NONE',  ( 280.0000000000000000, 0.0000000000000000000, 0.0000000000000000000 ) ) ;
#346 = CYLINDRICAL_SURFACE ( 'NONE', #691, 149.9999999999999700 ) ;
#347 = CIRCLE ( 'NONE', #1094, 149.9999999999999700 ) ;
#348 = DIRECTION ( 'NONE',  ( -1.000000000000000000, -0.0000000000000000000, -0.0000000000000000000 ) ) ;
#349 = EDGE_LOOP ( 'NONE', ( #286, #988, #162, #677 ) ) ;
#350 = CARTESIAN_POINT ( 'NONE',  ( 0.0000000000000000000, 0.0000000000000000000, 0.0000000000000000000 ) ) ;
#351 =( NAMED_UNIT ( * ) SI_UNIT ( $, .STERADIAN. ) SOLID_ANGLE_UNIT ( ) );
#352 =( LENGTH_UNIT ( ) NAMED_UNIT ( * ) SI_UNIT ( .MILLI., .METRE. ) );
#353 = EDGE_CURVE ( 'NONE', #433, #713, #136, .T. ) ;
#354 = DIRECTION ( 'NONE',  ( -1.000000000000000000, 0.0000000000000000000, -0.0000000000000000000 ) ) ;
#355 = ORIENTED_EDGE ( 'NONE', *, *, #241, .T. ) ;
#356 = CIRCLE ( 'NONE', #527, 39.99999999999995700 ) ;
#357 = CIRCLE ( 'NONE', #837, 99.99999999999995700 ) ;
#358 = AXIS2_PLACEMENT_3D ( 'NONE', #781, #599, #407 ) ;
#359 = ADVANCED_FACE ( 'NONE', ( #1082 ), #231, .T. ) ;
#360 = EDGE_LOOP ( 'NONE', ( #1217, #387, #207, #535 ) ) ;
#361 = ORIENTED_EDGE ( 'NONE', *, *, #1071, .T. ) ;
#362 = ORIENTED_EDGE ( 'NONE', *, *, #157, .F. ) ;
#363 = EDGE_CURVE ( 'NONE', #786, #633, #592, .T. ) ;
#364 = CARTESIAN_POINT ( 'NONE',  ( 610.0000000000000000, 1.836970198721029400E-014, -149.9999999999999700 ) ) ;
#365 = CARTESIAN_POINT ( 'NONE',  ( 0.0000000000000000000, 0.0000000000000000000, 0.0000000000000000000 ) ) ;
#366 = ADVANCED_FACE ( 'NONE', ( #1133 ), #608, .T. ) ;
#367 = FILL_AREA_STYLE ('',( #559 ) ) ;
#368 = CARTESIAN_POINT ( 'NONE',  ( 630.0000000000000000, 0.0000000000000000000, 39.99999999999995700 ) ) ;
#369 = CARTESIAN_POINT ( 'NONE',  ( 0.0000000000000000000, 4.898587196589408300E-015, -39.99999999999995700 ) ) ;
#370 = EDGE_LOOP ( 'NONE', ( #404, #488, #317, #676 ) ) ;
#371 = EDGE_CURVE ( 'NONE', #713, #84, #25, .T. ) ;
#372 = FACE_OUTER_BOUND ( 'NONE', #492, .T. ) ;
#373 = DIRECTION ( 'NONE',  ( 0.0000000000000000000, 0.0000000000000000000, 1.000000000000000000 ) ) ;
#374 = ORIENTED_EDGE ( 'NONE', *, *, #560, .F. ) ;
#375 = DIRECTION ( 'NONE',  ( 0.0000000000000000000, 0.0000000000000000000, -1.000000000000000000 ) ) ;
#376 = MANIFOLD_SOLID_BREP ( 'Revolução2[1]', #1171 ) ;
#377 = EDGE_CURVE ( 'NONE', #1048, #633, #427, .T. ) ;
#378 = PRESENTATION_LAYER_ASSIGNMENT (  '', '', ( #242 ) ) ;
#379 = VERTEX_POINT ( 'NONE', #421 ) ;
#380 = DIRECTION ( 'NONE',  ( 0.0000000000000000000, 0.0000000000000000000, 1.000000000000000000 ) ) ;
#381 = CLOSED_SHELL ( 'NONE', ( #838, #276, #165, #674 ) ) ;
#382 = ADVANCED_FACE ( 'NONE', ( #734 ), #388, .F. ) ;
#383 = CARTESIAN_POINT ( 'NONE',  ( 630.0000000000000000, 0.0000000000000000000, 0.0000000000000000000 ) ) ;
#384 = CARTESIAN_POINT ( 'NONE',  ( 150.0000000000000000, 1.224646799147353200E-014, 100.0000000000000000 ) ) ;
#385 = DIRECTION ( 'NONE',  ( -1.000000000000000000, -0.0000000000000000000, -0.0000000000000000000 ) ) ;
#386 = ADVANCED_FACE ( 'NONE', ( #754 ), #215, .F. ) ;
#387 = ORIENTED_EDGE ( 'NONE', *, *, #197, .T. ) ;
#388 = CYLINDRICAL_SURFACE ( 'NONE', #35, 39.99999999999995700 ) ;
#389 = LINE ( 'NONE', #759, #862 ) ;
#390 = CARTESIAN_POINT ( 'NONE',  ( 710.0000000000001100, 1.224646799147353700E-014, -100.0000000000000400 ) ) ;
#391 = EDGE_CURVE ( 'NONE', #113, #958, #719, .T. ) ;
#392 = ORIENTED_EDGE ( 'NONE', *, *, #826, .T. ) ;
#393 = MANIFOLD_SOLID_BREP ( 'Revolução4', #1085 ) ;
#394 = ORIENTED_EDGE ( 'NONE', *, *, #325, .T. ) ;
#395 = AXIS2_PLACEMENT_3D ( 'NONE', #978, #1140, #876 ) ;
#396 = AXIS2_PLACEMENT_3D ( 'NONE', #1150, #316, #121 ) ;
#397 = AXIS2_PLACEMENT_3D ( 'NONE', #947, #666, #733 ) ;
#398 = DIRECTION ( 'NONE',  ( -1.000000000000000000, -0.0000000000000000000, -0.0000000000000000000 ) ) ;
#399 = ORIENTED_EDGE ( 'NONE', *, *, #138, .F. ) ;
#400 = CARTESIAN_POINT ( 'NONE',  ( 630.0000000000000000, 0.0000000000000000000, 0.0000000000000000000 ) ) ;
#401 = CYLINDRICAL_SURFACE ( 'NONE', #340, 99.99999999999994300 ) ;
#402 = COLOUR_RGB ( '',0.7921568627450980000, 0.8196078431372548800, 0.9333333333333333500 ) ;
#403 = CARTESIAN_POINT ( 'NONE',  ( 230.0000000000000000, 0.0000000000000000000, 39.99999999999995700 ) ) ;
#404 = ORIENTED_EDGE ( 'NONE', *, *, #689, .F. ) ;
#405 = VERTEX_POINT ( 'NONE', #250 ) ;
#406 = CARTESIAN_POINT ( 'NONE',  ( 580.0000000000000000, 0.0000000000000000000, 39.99999999999995700 ) ) ;
#407 = DIRECTION ( 'NONE',  ( 0.0000000000000000000, 0.0000000000000000000, 1.000000000000000000 ) ) ;
#408 = DIRECTION ( 'NONE',  ( -1.000000000000000000, -0.0000000000000000000, -0.0000000000000000000 ) ) ;
#409 = UNCERTAINTY_MEASURE_WITH_UNIT (LENGTH_MEASURE( 1.000000000000000100E-005 ), #658, 'distance_accuracy_value', 'NONE');
#410 = CARTESIAN_POINT ( 'NONE',  ( 250.0000000000000000, 0.0000000000000000000, 149.9999999999999700 ) ) ;
#411 = DIRECTION ( 'NONE',  ( 0.0000000000000000000, 0.0000000000000000000, 1.000000000000000000 ) ) ;
#412 = DIRECTION ( 'NONE',  ( -1.000000000000000000, -0.0000000000000000000, -0.0000000000000000000 ) ) ;
#413 = DIRECTION ( 'NONE',  ( -1.000000000000000000, -0.0000000000000000000, -0.0000000000000000000 ) ) ;
#414 = VERTEX_POINT ( 'NONE', #81 ) ;
#415 = CARTESIAN_POINT ( 'NONE',  ( 0.0000000000000000000, 0.0000000000000000000, 99.99999999999994300 ) ) ;
#416 = VERTEX_POINT ( 'NONE', #266 ) ;
#417 = CARTESIAN_POINT ( 'NONE',  ( 0.0000000000000000000, 4.898587196589408300E-015, -39.99999999999995700 ) ) ;
#418 = CARTESIAN_POINT ( 'NONE',  ( 150.0000000000000000, 0.0000000000000000000, 0.0000000000000000000 ) ) ;
#419 = VERTEX_POINT ( 'NONE', #645 ) ;
#420 = MECHANICAL_DESIGN_GEOMETRIC_PRESENTATION_REPRESENTATION (  '', ( #187 ), #697 ) ;
#421 = CARTESIAN_POINT ( 'NONE',  ( 610.0000000000000000, 0.0000000000000000000, 149.9999999999999700 ) ) ;
#422 = CARTESIAN_POINT ( 'NONE',  ( 249.9999999999999400, 4.898587196589408300E-015, -39.99999999999995700 ) ) ;
#423 = EDGE_CURVE ( 'NONE', #1097, #963, #1194, .T. ) ;
#424 = DIRECTION ( 'NONE',  ( -1.000000000000000000, -0.0000000000000000000, -0.0000000000000000000 ) ) ;
#425 = EDGE_LOOP ( 'NONE', ( #236, #914, #1018, #478 ) ) ;
#426 = DIRECTION ( 'NONE',  ( 0.0000000000000000000, 0.0000000000000000000, -1.000000000000000000 ) ) ;
#427 = LINE ( 'NONE', #1162, #992 ) ;
#428 = SURFACE_STYLE_FILL_AREA ( #899 ) ;
#429 = CYLINDRICAL_SURFACE ( 'NONE', #950, 39.99999999999995700 ) ;
#430 = CIRCLE ( 'NONE', #397, 39.99999999999995700 ) ;
#431 = ORIENTED_EDGE ( 'NONE', *, *, #580, .F. ) ;
#432 = EDGE_CURVE ( 'NONE', #642, #679, #229, .T. ) ;
#433 = VERTEX_POINT ( 'NONE', #455 ) ;
#434 = DIRECTION ( 'NONE',  ( 1.000000000000000000, 0.0000000000000000000, 0.0000000000000000000 ) ) ;
#435 = SURFACE_STYLE_USAGE ( .BOTH. , #706 ) ;
#436 = EDGE_CURVE ( 'NONE', #977, #926, #618, .T. ) ;
#437 =( GEOMETRIC_REPRESENTATION_CONTEXT ( 3 ) GLOBAL_UNCERTAINTY_ASSIGNED_CONTEXT ( ( #999 ) ) GLOBAL_UNIT_ASSIGNED_CONTEXT ( ( #637, #256, #911 ) ) REPRESENTATION_CONTEXT ( 'NONE', 'WORKASPACE' ) );
#438 = CARTESIAN_POINT ( 'NONE',  ( 150.0000000000000000, 0.0000000000000000000, 0.0000000000000000000 ) ) ;
#439 = DIRECTION ( 'NONE',  ( -0.0000000000000000000, 0.0000000000000000000, 1.000000000000000000 ) ) ;
#440 = DIRECTION ( 'NONE',  ( -1.000000000000000000, -0.0000000000000000000, -0.0000000000000000000 ) ) ;
#441 = DIRECTION ( 'NONE',  ( 0.0000000000000000000, 0.0000000000000000000, 1.000000000000000000 ) ) ;
#442 = DIRECTION ( 'NONE',  ( 0.0000000000000000000, 0.0000000000000000000, 1.000000000000000000 ) ) ;
#443 = EDGE_LOOP ( 'NONE', ( #768, #761 ) ) ;
#444 = FACE_OUTER_BOUND ( 'NONE', #587, .T. ) ;
#445 =( GEOMETRIC_REPRESENTATION_CONTEXT ( 3 ) GLOBAL_UNCERTAINTY_ASSIGNED_CONTEXT ( ( #409 ) ) GLOBAL_UNIT_ASSIGNED_CONTEXT ( ( #658, #1187, #650 ) ) REPRESENTATION_CONTEXT ( 'NONE', 'WORKASPACE' ) );
#446 = VECTOR ( 'NONE', #172, 1000.000000000000000 ) ;
#447 = DIRECTION ( 'NONE',  ( -0.0000000000000000000, 0.0000000000000000000, 1.000000000000000000 ) ) ;
#448 = ORIENTED_EDGE ( 'NONE', *, *, #586, .T. ) ;
#449 =( NAMED_UNIT ( * ) SI_UNIT ( $, .STERADIAN. ) SOLID_ANGLE_UNIT ( ) );
#450 = ORIENTED_EDGE ( 'NONE', *, *, #363, .F. ) ;
#451 = DIRECTION ( 'NONE',  ( 0.0000000000000000000, 0.0000000000000000000, 1.000000000000000000 ) ) ;
#452 = ADVANCED_FACE ( 'NONE', ( #972 ), #401, .F. ) ;
#453 = EDGE_CURVE ( 'NONE', #977, #1119, #769, .T. ) ;
#454 = CARTESIAN_POINT ( 'NONE',  ( 610.0000000000000000, 0.0000000000000000000, 0.0000000000000000000 ) ) ;
#455 = CARTESIAN_POINT ( 'NONE',  ( 580.0000000000000000, 4.898587196589408300E-015, -39.99999999999995700 ) ) ;
#456 = CIRCLE ( 'NONE', #830, 39.99999999999995700 ) ;
#457 = ADVANCED_FACE ( 'NONE', ( #444 ), #907, .T. ) ;
#458 = DIRECTION ( 'NONE',  ( 0.0000000000000000000, 0.0000000000000000000, 1.000000000000000000 ) ) ;
#459 = SURFACE_STYLE_FILL_AREA ( #604 ) ;
#460 = MECHANICAL_DESIGN_GEOMETRIC_PRESENTATION_REPRESENTATION (  '', ( #776 ), #955 ) ;
#461 = EDGE_LOOP ( 'NONE', ( #875, #227, #392, #813 ) ) ;
#462 = DIRECTION ( 'NONE',  ( 1.000000000000000000, 0.0000000000000000000, 0.0000000000000000000 ) ) ;
#463 =( LENGTH_UNIT ( ) NAMED_UNIT ( * ) SI_UNIT ( .MILLI., .METRE. ) );
#464 = ORIENTED_EDGE ( 'NONE', *, *, #751, .F. ) ;
#465 = ADVANCED_FACE ( 'NONE', ( #823 ), #1108, .F. ) ;
#466 = DIRECTION ( 'NONE',  ( 0.0000000000000000000, 0.0000000000000000000, 1.000000000000000000 ) ) ;
#467 = ADVANCED_FACE ( 'NONE', ( #635 ), #76, .T. ) ;
#468 = DIRECTION ( 'NONE',  ( 0.0000000000000000000, 0.0000000000000000000, -1.000000000000000000 ) ) ;
#469 = DIRECTION ( 'NONE',  ( 0.0000000000000000000, 0.0000000000000000000, -1.000000000000000000 ) ) ;
#470 =( NAMED_UNIT ( * ) SI_UNIT ( $, .STERADIAN. ) SOLID_ANGLE_UNIT ( ) );
#471 = EDGE_CURVE ( 'NONE', #1137, #1048, #795, .T. ) ;
#472 = PRESENTATION_STYLE_ASSIGNMENT (( #554 ) ) ;
#473 = CYLINDRICAL_SURFACE ( 'NONE', #673, 99.99999999999994300 ) ;
#474 = CARTESIAN_POINT ( 'NONE',  ( 0.0000000000000000000, 0.0000000000000000000, 0.0000000000000000000 ) ) ;
#475 = FACE_OUTER_BOUND ( 'NONE', #828, .T. ) ;
#476 = ADVANCED_FACE ( 'NONE', ( #190, #372 ), #741, .T. ) ;
#477 = CARTESIAN_POINT ( 'NONE',  ( 710.0000000000001100, 0.0000000000000000000, 100.0000000000000300 ) ) ;
#478 = ORIENTED_EDGE ( 'NONE', *, *, #746, .T. ) ;
#479 = AXIS2_PLACEMENT_3D ( 'NONE', #910, #1088, #1008 ) ;
#480 = MECHANICAL_DESIGN_GEOMETRIC_PRESENTATION_REPRESENTATION (  '', ( #242 ), #942 ) ;
#481 = EDGE_LOOP ( 'NONE', ( #298, #624, #223, #981 ) ) ;
#482 = VERTEX_POINT ( 'NONE', #833 ) ;
#483 = DIRECTION ( 'NONE',  ( 0.8944271909999160800, 0.0000000000000000000, -0.4472135954999575900 ) ) ;
#484 = CONICAL_SURFACE ( 'NONE', #48, 149.9999999999999700, 0.4636476090008052100 ) ;
#485 = AXIS2_PLACEMENT_3D ( 'NONE', #132, #307, #791 ) ;
#486 = CARTESIAN_POINT ( 'NONE',  ( 610.0000000000000000, 0.0000000000000000000, 0.0000000000000000000 ) ) ;
#487 = DIRECTION ( 'NONE',  ( 0.0000000000000000000, 0.0000000000000000000, 1.000000000000000000 ) ) ;
#488 = ORIENTED_EDGE ( 'NONE', *, *, #377, .T. ) ;
#489 = ORIENTED_EDGE ( 'NONE', *, *, #1174, .F. ) ;
#490 = EDGE_CURVE ( 'NONE', #829, #640, #959, .T. ) ;
#491 = VECTOR ( 'NONE', #1078, 1000.000000000000000 ) ;
#492 = EDGE_LOOP ( 'NONE', ( #107, #1106 ) ) ;
#493 = EDGE_LOOP ( 'NONE', ( #595, #220 ) ) ;
#494 = ORIENTED_EDGE ( 'NONE', *, *, #257, .F. ) ;
#495 = DIRECTION ( 'NONE',  ( 0.0000000000000000000, 0.0000000000000000000, 1.000000000000000000 ) ) ;
#496 = EDGE_CURVE ( 'NONE', #84, #419, #356, .T. ) ;
#497 = DIRECTION ( 'NONE',  ( -1.000000000000000000, -0.0000000000000000000, -0.0000000000000000000 ) ) ;
#498 = FACE_OUTER_BOUND ( 'NONE', #79, .T. ) ;
#499 = DIRECTION ( 'NONE',  ( 0.0000000000000000000, 0.0000000000000000000, 1.000000000000000000 ) ) ;
#500 = AXIS2_PLACEMENT_3D ( 'NONE', #322, #309, #411 ) ;
#501 = AXIS2_PLACEMENT_3D ( 'NONE', #849, #945, #1040 ) ;
#502 = MANIFOLD_SOLID_BREP ( 'Revolução2[2]', #154 ) ;
#503 = DIRECTION ( 'NONE',  ( 1.000000000000000000, 0.0000000000000000000, 0.0000000000000000000 ) ) ;
#504 = CIRCLE ( 'NONE', #358, 39.99999999999995700 ) ;
#505 = CIRCLE ( 'NONE', #690, 99.99999999999994300 ) ;
#506 = FACE_OUTER_BOUND ( 'NONE', #1215, .T. ) ;
#507 = LINE ( 'NONE', #869, #62 ) ;
#508 = DIRECTION ( 'NONE',  ( -1.000000000000000000, -0.0000000000000000000, -0.0000000000000000000 ) ) ;
#509 = CARTESIAN_POINT ( 'NONE',  ( 0.0000000000000000000, 0.0000000000000000000, 0.0000000000000000000 ) ) ;
#510 = ORIENTED_EDGE ( 'NONE', *, *, #391, .T. ) ;
#511 = AXIS2_PLACEMENT_3D ( 'NONE', #514, #412, #970 ) ;
#512 = EDGE_LOOP ( 'NONE', ( #304, #858, #739, #552 ) ) ;
#513 = CARTESIAN_POINT ( 'NONE',  ( 0.0000000000000000000, 1.224646799147352600E-014, -99.99999999999994300 ) ) ;
#514 = CARTESIAN_POINT ( 'NONE',  ( 610.0000000000001100, 0.0000000000000000000, 0.0000000000000000000 ) ) ;
#515 = CARTESIAN_POINT ( 'NONE',  ( 250.0000000000000000, 1.224646799147352600E-014, -99.99999999999994300 ) ) ;
#516 = DIRECTION ( 'NONE',  ( -1.000000000000000000, -0.0000000000000000000, -0.0000000000000000000 ) ) ;
#517 = ORIENTED_EDGE ( 'NONE', *, *, #353, .T. ) ;
#518 = EDGE_CURVE ( 'NONE', #570, #1119, #299, .T. ) ;
#519 = CARTESIAN_POINT ( 'NONE',  ( 0.0000000000000000000, 0.0000000000000000000, 0.0000000000000000000 ) ) ;
#520 = ORIENTED_EDGE ( 'NONE', *, *, #40, .T. ) ;
#521 = FACE_OUTER_BOUND ( 'NONE', #612, .T. ) ;
#522 = CARTESIAN_POINT ( 'NONE',  ( 250.0000000000000000, 0.0000000000000000000, 0.0000000000000000000 ) ) ;
#523 = CIRCLE ( 'NONE', #915, 99.99999999999995700 ) ;
#524 = ORIENTED_EDGE ( 'NONE', *, *, #377, .F. ) ;
#525 = CARTESIAN_POINT ( 'NONE',  ( 250.0000000000000000, 0.0000000000000000000, 0.0000000000000000000 ) ) ;
#526 = DIRECTION ( 'NONE',  ( -1.000000000000000000, -0.0000000000000000000, -0.0000000000000000000 ) ) ;
#527 = AXIS2_PLACEMENT_3D ( 'NONE', #1026, #934, #466 ) ;
#528 = DIRECTION ( 'NONE',  ( 0.0000000000000000000, 0.0000000000000000000, 1.000000000000000000 ) ) ;
#529 = DIRECTION ( 'NONE',  ( -1.000000000000000000, -0.0000000000000000000, -0.0000000000000000000 ) ) ;
#530 = VECTOR ( 'NONE', #343, 1000.000000000000000 ) ;
#531 = LINE ( 'NONE', #614, #1109 ) ;
#532 = CIRCLE ( 'NONE', #11, 100.0000000000000300 ) ;
#533 = CIRCLE ( 'NONE', #1139, 39.99999999999995700 ) ;
#534 = ORIENTED_EDGE ( 'NONE', *, *, #257, .T. ) ;
#535 = ORIENTED_EDGE ( 'NONE', *, *, #1089, .F. ) ;
#536 = VERTEX_POINT ( 'NONE', #77 ) ;
#537 = APPLICATION_CONTEXT ( 'automotive_design' ) ;
#538 = ORIENTED_EDGE ( 'NONE', *, *, #671, .T. ) ;
#539 = DIRECTION ( 'NONE',  ( 0.0000000000000000000, 0.0000000000000000000, 1.000000000000000000 ) ) ;
#540 = EDGE_CURVE ( 'NONE', #419, #84, #329, .T. ) ;
#541 = AXIS2_PLACEMENT_3D ( 'NONE', #305, #962, #681 ) ;
#542 = PLANE ( 'NONE',  #2 ) ;
#543 =( NAMED_UNIT ( * ) PLANE_ANGLE_UNIT ( ) SI_UNIT ( $, .RADIAN. ) );
#544 = ADVANCED_FACE ( 'NONE', ( #521 ), #565, .T. ) ;
#545 = DIRECTION ( 'NONE',  ( -0.8944271909999161900, 5.476786982642016400E-017, -0.4472135954999571000 ) ) ;
#546 = DIRECTION ( 'NONE',  ( -1.000000000000000000, -0.0000000000000000000, -0.0000000000000000000 ) ) ;
#547 = EDGE_LOOP ( 'NONE', ( #956, #1039 ) ) ;
#548 = CIRCLE ( 'NONE', #12, 99.99999999999994300 ) ;
#549 = CIRCLE ( 'NONE', #123, 99.99999999999995700 ) ;
#550 = CARTESIAN_POINT ( 'NONE',  ( 250.0000000000000000, 0.0000000000000000000, 0.0000000000000000000 ) ) ;
#551 = SURFACE_SIDE_STYLE ('',( #909 ) ) ;
#552 = ORIENTED_EDGE ( 'NONE', *, *, #175, .F. ) ;
#553 = EDGE_LOOP ( 'NONE', ( #140, #355, #71, #39 ) ) ;
#554 = SURFACE_STYLE_USAGE ( .BOTH. , #551 ) ;
#555 = ADVANCED_FACE ( 'NONE', ( #262 ), #232, .T. ) ;
#556 = DIRECTION ( 'NONE',  ( -1.000000000000000000, -0.0000000000000000000, -0.0000000000000000000 ) ) ;
#557 = CARTESIAN_POINT ( 'NONE',  ( 610.0000000000001100, 0.0000000000000000000, 0.0000000000000000000 ) ) ;
#558 = FACE_BOUND ( 'NONE', #327, .T. ) ;
#559 = FILL_AREA_STYLE_COLOUR ( '', #757 ) ;
#560 = EDGE_CURVE ( 'NONE', #640, #731, #9, .T. ) ;
#561 = FACE_OUTER_BOUND ( 'NONE', #360, .T. ) ;
#562 = DIRECTION ( 'NONE',  ( -1.000000000000000000, -0.0000000000000000000, -0.0000000000000000000 ) ) ;
#563 = ADVANCED_FACE ( 'NONE', ( #783 ), #246, .T. ) ;
#564 = PRESENTATION_STYLE_ASSIGNMENT (( #623 ) ) ;
#565 = CYLINDRICAL_SURFACE ( 'NONE', #168, 39.99999999999995700 ) ;
#566 = AXIS2_PLACEMENT_3D ( 'NONE', #50, #424, #53 ) ;
#567 = AXIS2_PLACEMENT_3D ( 'NONE', #569, #182, #839 ) ;
#568 = ORIENTED_EDGE ( 'NONE', *, *, #855, .F. ) ;
#569 = CARTESIAN_POINT ( 'NONE',  ( 0.0000000000000000000, 0.0000000000000000000, 0.0000000000000000000 ) ) ;
#570 = VERTEX_POINT ( 'NONE', #852 ) ;
#571 = DIRECTION ( 'NONE',  ( 1.000000000000000000, 0.0000000000000000000, 0.0000000000000000000 ) ) ;
#572 = VERTEX_POINT ( 'NONE', #1114 ) ;
#573 = FILL_AREA_STYLE ('',( #749 ) ) ;
#574 = ADVANCED_FACE ( 'NONE', ( #264 ), #1198, .T. ) ;
#575 = CARTESIAN_POINT ( 'NONE',  ( 710.0000000000001100, 0.0000000000000000000, 0.0000000000000000000 ) ) ;
#576 = AXIS2_PLACEMENT_3D ( 'NONE', #43, #339, #705 ) ;
#577 = CARTESIAN_POINT ( 'NONE',  ( 610.0000000000000000, 0.0000000000000000000, 0.0000000000000000000 ) ) ;
#578 = CARTESIAN_POINT ( 'NONE',  ( 250.0000000000000000, 0.0000000000000000000, 0.0000000000000000000 ) ) ;
#579 = DIRECTION ( 'NONE',  ( 0.0000000000000000000, 0.0000000000000000000, 1.000000000000000000 ) ) ;
#580 = EDGE_CURVE ( 'NONE', #926, #977, #532, .T. ) ;
#581 = EDGE_LOOP ( 'NONE', ( #930, #710, #37, #660 ) ) ;
#582 = VECTOR ( 'NONE', #398, 1000.000000000000000 ) ;
#583 = VECTOR ( 'NONE', #1076, 1000.000000000000000 ) ;
#584 = CARTESIAN_POINT ( 'NONE',  ( 0.0000000000000000000, 0.0000000000000000000, 99.99999999999994300 ) ) ;
#585 = VERTEX_POINT ( 'NONE', #620 ) ;
#586 = EDGE_CURVE ( 'NONE', #249, #585, #755, .T. ) ;
#587 = EDGE_LOOP ( 'NONE', ( #336, #109 ) ) ;
#588 = STYLED_ITEM ( 'NONE', ( #472 ), #502 ) ;
#589 = LINE ( 'NONE', #513, #920 ) ;
#590 = PLANE ( 'NONE',  #1117 ) ;
#591 =( LENGTH_UNIT ( ) NAMED_UNIT ( * ) SI_UNIT ( .MILLI., .METRE. ) );
#592 = CIRCLE ( 'NONE', #1192, 39.99999999999995700 ) ;
#593 = FACE_OUTER_BOUND ( 'NONE', #183, .T. ) ;
#594 = FACE_OUTER_BOUND ( 'NONE', #155, .T. ) ;
#595 = ORIENTED_EDGE ( 'NONE', *, *, #982, .T. ) ;
#596 = VERTEX_POINT ( 'NONE', #980 ) ;
#597 = EDGE_CURVE ( 'NONE', #1047, #253, #61, .T. ) ;
#598 = DIRECTION ( 'NONE',  ( 0.0000000000000000000, 0.0000000000000000000, 1.000000000000000000 ) ) ;
#599 = DIRECTION ( 'NONE',  ( -1.000000000000000000, -0.0000000000000000000, -0.0000000000000000000 ) ) ;
#600 = AXIS2_PLACEMENT_3D ( 'NONE', #820, #354, #447 ) ;
#601 = AXIS2_PLACEMENT_3D ( 'NONE', #831, #462, #468 ) ;
#602 = ORIENTED_EDGE ( 'NONE', *, *, #789, .F. ) ;
#603 = CARTESIAN_POINT ( 'NONE',  ( 280.0000000000000000, 0.0000000000000000000, 0.0000000000000000000 ) ) ;
#604 = FILL_AREA_STYLE ('',( #1152 ) ) ;
#605 = VERTEX_POINT ( 'NONE', #1000 ) ;
#606 = CIRCLE ( 'NONE', #3, 39.99999999999995700 ) ;
#607 = CARTESIAN_POINT ( 'NONE',  ( 280.0000000000000000, 0.0000000000000000000, 0.0000000000000000000 ) ) ;
#608 = PLANE ( 'NONE',  #1128 ) ;
#609 = CARTESIAN_POINT ( 'NONE',  ( 150.0000000000000000, 1.530808498934191200E-014, 100.0000000000000000 ) ) ;
#610 = ORIENTED_EDGE ( 'NONE', *, *, #721, .T. ) ;
#611 = VERTEX_POINT ( 'NONE', #213 ) ;
#612 = EDGE_LOOP ( 'NONE', ( #602, #517, #1068, #760 ) ) ;
#613 = CARTESIAN_POINT ( 'NONE',  ( 250.0000000000000000, 1.836970198721029400E-014, 149.9999999999999700 ) ) ;
#614 = CARTESIAN_POINT ( 'NONE',  ( 0.0000000000000000000, 0.0000000000000000000, 39.99999999999995700 ) ) ;
#615 = CARTESIAN_POINT ( 'NONE',  ( 610.0000000000000000, 0.0000000000000000000, 0.0000000000000000000 ) ) ;
#616 = CARTESIAN_POINT ( 'NONE',  ( 610.0000000000000000, 0.0000000000000000000, 149.9999999999999700 ) ) ;
#617 = ORIENTED_EDGE ( 'NONE', *, *, #160, .T. ) ;
#618 = CIRCLE ( 'NONE', #1080, 100.0000000000000300 ) ;
#619 = CARTESIAN_POINT ( 'NONE',  ( 249.9999999999999400, 0.0000000000000000000, 0.0000000000000000000 ) ) ;
#620 = CARTESIAN_POINT ( 'NONE',  ( 280.0000000000000000, 4.898587196589408300E-015, -39.99999999999995700 ) ) ;
#621 = VECTOR ( 'NONE', #806, 1000.000000000000100 ) ;
#622 = PRESENTATION_STYLE_ASSIGNMENT (( #435 ) ) ;
#623 = SURFACE_STYLE_USAGE ( .BOTH. , #1172 ) ;
#624 = ORIENTED_EDGE ( 'NONE', *, *, #976, .T. ) ;
#625 = ORIENTED_EDGE ( 'NONE', *, *, #1024, .T. ) ;
#626 = AXIS2_PLACEMENT_3D ( 'NONE', #144, #152, #240 ) ;
#627 = AXIS2_PLACEMENT_3D ( 'NONE', #550, #1190, #938 ) ;
#628 = DIRECTION ( 'NONE',  ( 0.0000000000000000000, 0.0000000000000000000, 1.000000000000000000 ) ) ;
#629 = DIRECTION ( 'NONE',  ( -1.000000000000000000, -0.0000000000000000000, -0.0000000000000000000 ) ) ;
#630 = APPLICATION_PROTOCOL_DEFINITION ( 'draft international standard', 'automotive_design', 1998, #70 ) ;
#631 = DIRECTION ( 'NONE',  ( 0.0000000000000000000, 0.0000000000000000000, 1.000000000000000000 ) ) ;
#632 = AXIS2_PLACEMENT_3D ( 'NONE', #557, #91, #840 ) ;
#633 = VERTEX_POINT ( 'NONE', #422 ) ;
#634 = DIRECTION ( 'NONE',  ( -1.000000000000000000, -0.0000000000000000000, -0.0000000000000000000 ) ) ;
#635 = FACE_OUTER_BOUND ( 'NONE', #877, .T. ) ;
#636 = FACE_OUTER_BOUND ( 'NONE', #1041, .T. ) ;
#637 =( LENGTH_UNIT ( ) NAMED_UNIT ( * ) SI_UNIT ( .MILLI., .METRE. ) );
#638 = VECTOR ( 'NONE', #762, 1000.000000000000000 ) ;
#639 = EDGE_CURVE ( 'NONE', #238, #82, #26, .T. ) ;
#640 = VERTEX_POINT ( 'NONE', #1065 ) ;
#641 = CARTESIAN_POINT ( 'NONE',  ( 610.0000000000000000, 0.0000000000000000000, 0.0000000000000000000 ) ) ;
#642 = VERTEX_POINT ( 'NONE', #146 ) ;
#643 = ADVANCED_FACE ( 'NONE', ( #24 ), #707, .F. ) ;
#644 = EDGE_CURVE ( 'NONE', #129, #249, #1036, .T. ) ;
#645 = CARTESIAN_POINT ( 'NONE',  ( 280.0000000000000000, 4.898587196589408300E-015, -39.99999999999995700 ) ) ;
#646 = SURFACE_SIDE_STYLE ('',( #737 ) ) ;
#647 = MANIFOLD_SOLID_BREP ( 'Revolução1[1]', #174 ) ;
#648 = CARTESIAN_POINT ( 'NONE',  ( 249.9999999999999400, 0.0000000000000000000, 0.0000000000000000000 ) ) ;
#649 = DIRECTION ( 'NONE',  ( 1.000000000000000000, 0.0000000000000000000, 0.0000000000000000000 ) ) ;
#650 =( NAMED_UNIT ( * ) SI_UNIT ( $, .STERADIAN. ) SOLID_ANGLE_UNIT ( ) );
#651 = ADVANCED_FACE ( 'NONE', ( #1004, #960 ), #667, .T. ) ;
#652 = AXIS2_PLACEMENT_3D ( 'NONE', #657, #1204, #1200 ) ;
#653 = AXIS2_PLACEMENT_3D ( 'NONE', #577, #1123, #579 ) ;
#654 = LINE ( 'NONE', #1086, #583 ) ;
#655 = VECTOR ( 'NONE', #702, 1000.000000000000000 ) ;
#656 = DIRECTION ( 'NONE',  ( -1.000000000000000000, -0.0000000000000000000, -0.0000000000000000000 ) ) ;
#657 = CARTESIAN_POINT ( 'NONE',  ( 280.0000000000000000, 0.0000000000000000000, 0.0000000000000000000 ) ) ;
#658 =( LENGTH_UNIT ( ) NAMED_UNIT ( * ) SI_UNIT ( .MILLI., .METRE. ) );
#659 = SHAPE_DEFINITION_REPRESENTATION ( #201, #323 ) ;
#660 = ORIENTED_EDGE ( 'NONE', *, *, #133, .F. ) ;
#661 = CARTESIAN_POINT ( 'NONE',  ( 630.0000000000000000, 4.898587196589408300E-015, -39.99999999999995700 ) ) ;
#662 = CARTESIAN_POINT ( 'NONE',  ( 0.0000000000000000000, 0.0000000000000000000, 0.0000000000000000000 ) ) ;
#663 = DIRECTION ( 'NONE',  ( -1.000000000000000000, -0.0000000000000000000, -0.0000000000000000000 ) ) ;
#664 = DIRECTION ( 'NONE',  ( 0.0000000000000000000, 0.0000000000000000000, 1.000000000000000000 ) ) ;
#665 = EDGE_CURVE ( 'NONE', #640, #829, #750, .T. ) ;
#666 = DIRECTION ( 'NONE',  ( -1.000000000000000000, -0.0000000000000000000, -0.0000000000000000000 ) ) ;
#667 = PLANE ( 'NONE',  #821 ) ;
#668 = ORIENTED_EDGE ( 'NONE', *, *, #1005, .F. ) ;
#669 = CIRCLE ( 'NONE', #728, 39.99999999999995700 ) ;
#670 = DIRECTION ( 'NONE',  ( -1.000000000000000000, -0.0000000000000000000, -0.0000000000000000000 ) ) ;
#671 = EDGE_CURVE ( 'NONE', #1047, #1097, #151, .T. ) ;
#672 = CONICAL_SURFACE ( 'NONE', #601, 100.0000000000000000, 0.4636476090008057000 ) ;
#673 = AXIS2_PLACEMENT_3D ( 'NONE', #27, #884, #38 ) ;
#674 = ADVANCED_FACE ( 'NONE', ( #809 ), #693, .F. ) ;
#675 = DIRECTION ( 'NONE',  ( -1.000000000000000000, 0.0000000000000000000, -0.0000000000000000000 ) ) ;
#676 = ORIENTED_EDGE ( 'NONE', *, *, #255, .F. ) ;
#677 = ORIENTED_EDGE ( 'NONE', *, *, #184, .F. ) ;
#678 = DIRECTION ( 'NONE',  ( 0.0000000000000000000, 0.0000000000000000000, 1.000000000000000000 ) ) ;
#679 = VERTEX_POINT ( 'NONE', #131 ) ;
#680 = VERTEX_POINT ( 'NONE', #881 ) ;
#681 = DIRECTION ( 'NONE',  ( 0.0000000000000000000, 0.0000000000000000000, 1.000000000000000000 ) ) ;
#682 = PRESENTATION_STYLE_ASSIGNMENT (( #939 ) ) ;
#683 = COLOUR_RGB ( '',0.7921568627450980000, 0.8196078431372548800, 0.9333333333333333500 ) ;
#684 = CIRCLE ( 'NONE', #396, 149.9999999999999700 ) ;
#685 = ORIENTED_EDGE ( 'NONE', *, *, #23, .T. ) ;
#686 = DIRECTION ( 'NONE',  ( -1.000000000000000000, -0.0000000000000000000, -0.0000000000000000000 ) ) ;
#687 = EDGE_LOOP ( 'NONE', ( #905, #1012 ) ) ;
#688 = ADVANCED_FACE ( 'NONE', ( #281 ), #1164, .F. ) ;
#689 = EDGE_CURVE ( 'NONE', #1048, #1137, #1110, .T. ) ;
#690 = AXIS2_PLACEMENT_3D ( 'NONE', #971, #508, #1145 ) ;
#691 = AXIS2_PLACEMENT_3D ( 'NONE', #990, #141, #985 ) ;
#692 = DIRECTION ( 'NONE',  ( 1.000000000000000000, 0.0000000000000000000, 0.0000000000000000000 ) ) ;
#693 = PLANE ( 'NONE',  #85 ) ;
#694 = CIRCLE ( 'NONE', #712, 99.99999999999995700 ) ;
#695 = DIRECTION ( 'NONE',  ( -1.000000000000000000, -0.0000000000000000000, -0.0000000000000000000 ) ) ;
#696 = FACE_OUTER_BOUND ( 'NONE', #908, .T. ) ;
#697 =( GEOMETRIC_REPRESENTATION_CONTEXT ( 3 ) GLOBAL_UNCERTAINTY_ASSIGNED_CONTEXT ( ( #975 ) ) GLOBAL_UNIT_ASSIGNED_CONTEXT ( ( #463, #177, #271 ) ) REPRESENTATION_CONTEXT ( 'NONE', 'WORKASPACE' ) );
#698 = ORIENTED_EDGE ( 'NONE', *, *, #138, .T. ) ;
#699 = ORIENTED_EDGE ( 'NONE', *, *, #490, .F. ) ;
#700 = EDGE_CURVE ( 'NONE', #137, #169, #1212, .T. ) ;
#701 = DIRECTION ( 'NONE',  ( -0.0000000000000000000, 0.0000000000000000000, 1.000000000000000000 ) ) ;
#702 = DIRECTION ( 'NONE',  ( -1.000000000000000000, -0.0000000000000000000, -0.0000000000000000000 ) ) ;
#703 = CARTESIAN_POINT ( 'NONE',  ( 860.0000000000000000, 0.0000000000000000000, 0.0000000000000000000 ) ) ;
#704 = ORIENTED_EDGE ( 'NONE', *, *, #586, .F. ) ;
#705 = DIRECTION ( 'NONE',  ( 0.0000000000000000000, 0.0000000000000000000, 1.000000000000000000 ) ) ;
#706 = SURFACE_SIDE_STYLE ('',( #459 ) ) ;
#707 = CYLINDRICAL_SURFACE ( 'NONE', #1138, 99.99999999999994300 ) ;
#708 = DIRECTION ( 'NONE',  ( -1.000000000000000000, -0.0000000000000000000, -0.0000000000000000000 ) ) ;
#709 = ORIENTED_EDGE ( 'NONE', *, *, #302, .T. ) ;
#710 = ORIENTED_EDGE ( 'NONE', *, *, #560, .T. ) ;
#711 = AXIS2_PLACEMENT_3D ( 'NONE', #924, #1095, #258 ) ;
#712 = AXIS2_PLACEMENT_3D ( 'NONE', #282, #1127, #854 ) ;
#713 = VERTEX_POINT ( 'NONE', #319 ) ;
#714 = DIRECTION ( 'NONE',  ( 0.0000000000000000000, 0.0000000000000000000, 1.000000000000000000 ) ) ;
#715 = CARTESIAN_POINT ( 'NONE',  ( 0.0000000000000000000, 0.0000000000000000000, 39.99999999999995700 ) ) ;
#716 = CARTESIAN_POINT ( 'NONE',  ( 580.0000000000000000, 4.898587196589408300E-015, -39.99999999999995700 ) ) ;
#717 = DIRECTION ( 'NONE',  ( -1.000000000000000000, -0.0000000000000000000, -0.0000000000000000000 ) ) ;
#718 = DIRECTION ( 'NONE',  ( -1.000000000000000000, -0.0000000000000000000, -0.0000000000000000000 ) ) ;
#719 = CIRCLE ( 'NONE', #117, 99.99999999999995700 ) ;
#720 = CYLINDRICAL_SURFACE ( 'NONE', #1046, 100.0000000000000100 ) ;
#721 = EDGE_CURVE ( 'NONE', #713, #433, #504, .T. ) ;
#722 = FACE_OUTER_BOUND ( 'NONE', #974, .T. ) ;
#723 = PLANE ( 'NONE',  #600 ) ;
#724 = ORIENTED_EDGE ( 'NONE', *, *, #746, .F. ) ;
#725 = FILL_AREA_STYLE_COLOUR ( '', #898 ) ;
#726 = VERTEX_POINT ( 'NONE', #410 ) ;
#727 = AXIS2_PLACEMENT_3D ( 'NONE', #997, #1069, #153 ) ;
#728 = AXIS2_PLACEMENT_3D ( 'NONE', #118, #775, #204 ) ;
#729 = FILL_AREA_STYLE ('',( #725 ) ) ;
#730 = ADVANCED_FACE ( 'NONE', ( #927 ), #1079, .F. ) ;
#731 = VERTEX_POINT ( 'NONE', #32 ) ;
#732 = AXIS2_PLACEMENT_3D ( 'NONE', #324, #310, #968 ) ;
#733 = DIRECTION ( 'NONE',  ( 0.0000000000000000000, 0.0000000000000000000, 1.000000000000000000 ) ) ;
#734 = FACE_OUTER_BOUND ( 'NONE', #370, .T. ) ;
#735 = DIRECTION ( 'NONE',  ( -1.000000000000000000, -0.0000000000000000000, -0.0000000000000000000 ) ) ;
#736 = FACE_OUTER_BOUND ( 'NONE', #918, .T. ) ;
#737 = SURFACE_STYLE_FILL_AREA ( #367 ) ;
#738 = ADVANCED_FACE ( 'NONE', ( #561 ), #10, .T. ) ;
#739 = ORIENTED_EDGE ( 'NONE', *, *, #982, .F. ) ;
#740 = CARTESIAN_POINT ( 'NONE',  ( 0.0000000000000000000, 0.0000000000000000000, 0.0000000000000000000 ) ) ;
#741 = PLANE ( 'NONE',  #902 ) ;
#742 = DIRECTION ( 'NONE',  ( 0.0000000000000000000, 0.0000000000000000000, 1.000000000000000000 ) ) ;
#743 = ORIENTED_EDGE ( 'NONE', *, *, #73, .F. ) ;
#744 = CARTESIAN_POINT ( 'NONE',  ( 280.0000000000000000, 0.0000000000000000000, 0.0000000000000000000 ) ) ;
#745 = ADVANCED_FACE ( 'NONE', ( #841 ), #429, .T. ) ;
#746 = EDGE_CURVE ( 'NONE', #948, #166, #684, .T. ) ;
#747 = DIRECTION ( 'NONE',  ( -0.0000000000000000000, 0.0000000000000000000, 1.000000000000000000 ) ) ;
#748 = DIRECTION ( 'NONE',  ( 0.0000000000000000000, 0.0000000000000000000, 1.000000000000000000 ) ) ;
#749 = FILL_AREA_STYLE_COLOUR ( '', #300 ) ;
#750 = CIRCLE ( 'NONE', #1186, 39.99999999999995700 ) ;
#751 = EDGE_CURVE ( 'NONE', #253, #963, #59, .T. ) ;
#752 = AXIS2_PLACEMENT_3D ( 'NONE', #176, #556, #380 ) ;
#753 = ADVANCED_FACE ( 'NONE', ( #872, #995 ), #208, .T. ) ;
#754 = FACE_OUTER_BOUND ( 'NONE', #932, .T. ) ;
#755 = LINE ( 'NONE', #900, #530 ) ;
#756 = DIRECTION ( 'NONE',  ( -1.000000000000000000, -0.0000000000000000000, -0.0000000000000000000 ) ) ;
#757 = COLOUR_RGB ( '',0.7921568627450980000, 0.8196078431372548800, 0.9333333333333333500 ) ;
#758 = ORIENTED_EDGE ( 'NONE', *, *, #1017, .F. ) ;
#759 = CARTESIAN_POINT ( 'NONE',  ( 150.0000000000000000, 0.0000000000000000000, -100.0000000000000000 ) ) ;
#760 = ORIENTED_EDGE ( 'NONE', *, *, #540, .F. ) ;
#761 = ORIENTED_EDGE ( 'NONE', *, *, #700, .F. ) ;
#762 = DIRECTION ( 'NONE',  ( -1.000000000000000000, -0.0000000000000000000, -0.0000000000000000000 ) ) ;
#763 = ORIENTED_EDGE ( 'NONE', *, *, #211, .T. ) ;
#764 = ADVANCED_FACE ( 'NONE', ( #782 ), #180, .T. ) ;
#765 = AXIS2_PLACEMENT_3D ( 'NONE', #92, #1032, #748 ) ;
#766 = CARTESIAN_POINT ( 'NONE',  ( 0.0000000000000000000, 0.0000000000000000000, 99.99999999999994300 ) ) ;
#767 = EDGE_CURVE ( 'NONE', #482, #726, #901, .T. ) ;
#768 = ORIENTED_EDGE ( 'NONE', *, *, #171, .F. ) ;
#769 = LINE ( 'NONE', #816, #150 ) ;
#770 = DIRECTION ( 'NONE',  ( 0.0000000000000000000, 0.0000000000000000000, 1.000000000000000000 ) ) ;
#771 = AXIS2_PLACEMENT_3D ( 'NONE', #148, #718, #801 ) ;
#772 = VECTOR ( 'NONE', #348, 1000.000000000000000 ) ;
#773 = ORIENTED_EDGE ( 'NONE', *, *, #1196, .F. ) ;
#774 = ADVANCED_FACE ( 'NONE', ( #506 ), #346, .T. ) ;
#775 = DIRECTION ( 'NONE',  ( -1.000000000000000000, -0.0000000000000000000, -0.0000000000000000000 ) ) ;
#776 = STYLED_ITEM ( 'NONE', ( #682 ), #393 ) ;
#777 = AXIS2_PLACEMENT_3D ( 'NONE', #940, #663, #196 ) ;
#778 = DIRECTION ( 'NONE',  ( 1.000000000000000000, 0.0000000000000000000, 0.0000000000000000000 ) ) ;
#779 = DIRECTION ( 'NONE',  ( 0.0000000000000000000, 0.0000000000000000000, 1.000000000000000000 ) ) ;
#780 = CARTESIAN_POINT ( 'NONE',  ( 249.9999999999999700, -2.312964634635742500E-013, 0.0000000000000000000 ) ) ;
#781 = CARTESIAN_POINT ( 'NONE',  ( 580.0000000000000000, 0.0000000000000000000, 0.0000000000000000000 ) ) ;
#782 = FACE_OUTER_BOUND ( 'NONE', #349, .T. ) ;
#783 = FACE_OUTER_BOUND ( 'NONE', #181, .T. ) ;
#784 = CYLINDRICAL_SURFACE ( 'NONE', #880, 39.99999999999995700 ) ;
#785 = DIRECTION ( 'NONE',  ( -1.000000000000000000, 0.0000000000000000000, -0.0000000000000000000 ) ) ;
#786 = VERTEX_POINT ( 'NONE', #1073 ) ;
#787 = VERTEX_POINT ( 'NONE', #609 ) ;
#788 = ORIENTED_EDGE ( 'NONE', *, *, #116, .F. ) ;
#789 = EDGE_CURVE ( 'NONE', #433, #419, #1056, .T. ) ;
#790 = CARTESIAN_POINT ( 'NONE',  ( 610.0000000000000000, 0.0000000000000000000, 99.99999999999995700 ) ) ;
#791 = DIRECTION ( 'NONE',  ( 0.0000000000000000000, 0.0000000000000000000, 1.000000000000000000 ) ) ;
#792 = CARTESIAN_POINT ( 'NONE',  ( 230.0000000000000000, 1.224646799147352600E-014, -99.99999999999994300 ) ) ;
#793 = DIRECTION ( 'NONE',  ( 0.0000000000000000000, 0.0000000000000000000, -1.000000000000000000 ) ) ;
#794 = LINE ( 'NONE', #212, #1191 ) ;
#795 = CIRCLE ( 'NONE', #632, 39.99999999999995700 ) ;
#796 = SURFACE_STYLE_FILL_AREA ( #573 ) ;
#797 = CARTESIAN_POINT ( 'NONE',  ( 0.0000000000000000000, 0.0000000000000000000, 0.0000000000000000000 ) ) ;
#798 = CIRCLE ( 'NONE', #1116, 100.0000000000000000 ) ;
#799 =( GEOMETRIC_REPRESENTATION_CONTEXT ( 3 ) GLOBAL_UNCERTAINTY_ASSIGNED_CONTEXT ( ( #912 ) ) GLOBAL_UNIT_ASSIGNED_CONTEXT ( ( #352, #543, #449 ) ) REPRESENTATION_CONTEXT ( 'NONE', 'WORKASPACE' ) );
#800 = EDGE_LOOP ( 'NONE', ( #1113, #943 ) ) ;
#801 = DIRECTION ( 'NONE',  ( 0.0000000000000000000, 0.0000000000000000000, 1.000000000000000000 ) ) ;
#802 = ORIENTED_EDGE ( 'NONE', *, *, #363, .T. ) ;
#803 = PLANE ( 'NONE',  #119 ) ;
#804 = DIRECTION ( 'NONE',  ( -1.000000000000000000, -0.0000000000000000000, -0.0000000000000000000 ) ) ;
#805 = CARTESIAN_POINT ( 'NONE',  ( 0.0000000000000000000, 0.0000000000000000000, 0.0000000000000000000 ) ) ;
#806 = DIRECTION ( 'NONE',  ( -0.8944271909999161900, 0.0000000000000000000, 0.4472135954999571000 ) ) ;
#807 = UNCERTAINTY_MEASURE_WITH_UNIT (LENGTH_MEASURE( 1.000000000000000100E-005 ), #98, 'distance_accuracy_value', 'NONE');
#808 = EDGE_CURVE ( 'NONE', #787, #642, #1034, .T. ) ;
#809 = FACE_OUTER_BOUND ( 'NONE', #194, .T. ) ;
#810 = VECTOR ( 'NONE', #1175, 1000.000000000000000 ) ;
#811 =( NAMED_UNIT ( * ) SI_UNIT ( $, .STERADIAN. ) SOLID_ANGLE_UNIT ( ) );
#812 = ORIENTED_EDGE ( 'NONE', *, *, #234, .F. ) ;
#813 = ORIENTED_EDGE ( 'NONE', *, *, #171, .T. ) ;
#814 = AXIS2_PLACEMENT_3D ( 'NONE', #219, #883, #714 ) ;
#815 = AXIS2_PLACEMENT_3D ( 'NONE', #842, #1206, #375 ) ;
#816 = CARTESIAN_POINT ( 'NONE',  ( 610.0000000000000000, 1.836970198721029400E-014, -149.9999999999999700 ) ) ;
#817 = ORIENTED_EDGE ( 'NONE', *, *, #518, .F. ) ;
#818 = ORIENTED_EDGE ( 'NONE', *, *, #1222, .F. ) ;
#819 = CARTESIAN_POINT ( 'NONE',  ( 610.0000000000000000, 0.0000000000000000000, 0.0000000000000000000 ) ) ;
#820 = CARTESIAN_POINT ( 'NONE',  ( 580.0000000000000000, 0.0000000000000000000, 0.0000000000000000000 ) ) ;
#821 = AXIS2_PLACEMENT_3D ( 'NONE', #105, #936, #439 ) ;
#822 = ORIENTED_EDGE ( 'NONE', *, *, #639, .T. ) ;
#823 = FACE_OUTER_BOUND ( 'NONE', #461, .T. ) ;
#824 = CIRCLE ( 'NONE', #653, 149.9999999999999700 ) ;
#825 = ADVANCED_FACE ( 'NONE', ( #736 ), #473, .T. ) ;
#826 = EDGE_CURVE ( 'NONE', #101, #169, #1134, .T. ) ;
#827 = CARTESIAN_POINT ( 'NONE',  ( 0.0000000000000000000, 1.224646799147353200E-014, -100.0000000000000000 ) ) ;
#828 = EDGE_LOOP ( 'NONE', ( #524, #1151, #14, #802 ) ) ;
#829 = VERTEX_POINT ( 'NONE', #952 ) ;
#830 = AXIS2_PLACEMENT_3D ( 'NONE', #887, #326, #21 ) ;
#831 = CARTESIAN_POINT ( 'NONE',  ( 150.0000000000000000, 0.0000000000000000000, 0.0000000000000000000 ) ) ;
#832 = PLANE ( 'NONE',  #1177 ) ;
#833 = CARTESIAN_POINT ( 'NONE',  ( 250.0000000000000000, 1.836970198721029400E-014, -149.9999999999999700 ) ) ;
#834 = DIRECTION ( 'NONE',  ( -1.000000000000000000, -0.0000000000000000000, -0.0000000000000000000 ) ) ;
#835 = LINE ( 'NONE', #209, #54 ) ;
#836 = DIRECTION ( 'NONE',  ( -1.000000000000000000, -0.0000000000000000000, -0.0000000000000000000 ) ) ;
#837 = AXIS2_PLACEMENT_3D ( 'NONE', #1002, #708, #51 ) ;
#838 = ADVANCED_FACE ( 'NONE', ( #593 ), #330, .T. ) ;
#839 = DIRECTION ( 'NONE',  ( 0.0000000000000000000, 0.0000000000000000000, 1.000000000000000000 ) ) ;
#840 = DIRECTION ( 'NONE',  ( 0.0000000000000000000, 0.0000000000000000000, 1.000000000000000000 ) ) ;
#841 = FACE_OUTER_BOUND ( 'NONE', #581, .T. ) ;
#842 = CARTESIAN_POINT ( 'NONE',  ( 630.0000000000000000, 0.0000000000000000000, 0.0000000000000000000 ) ) ;
#843 = LINE ( 'NONE', #1077, #810 ) ;
#844 = CIRCLE ( 'NONE', #983, 99.99999999999994300 ) ;
#845 = ORIENTED_EDGE ( 'NONE', *, *, #518, .T. ) ;
#846 = EDGE_LOOP ( 'NONE', ( #267, #193 ) ) ;
#847 = EDGE_LOOP ( 'NONE', ( #291, #1007 ) ) ;
#848 = DIRECTION ( 'NONE',  ( -1.000000000000000000, -0.0000000000000000000, -0.0000000000000000000 ) ) ;
#849 = CARTESIAN_POINT ( 'NONE',  ( 0.0000000000000000000, 0.0000000000000000000, 0.0000000000000000000 ) ) ;
#850 = EDGE_LOOP ( 'NONE', ( #845, #1063 ) ) ;
#851 = MANIFOLD_SOLID_BREP ( 'Revolução1[2]', #1092 ) ;
#852 = CARTESIAN_POINT ( 'NONE',  ( 610.0000000000000000, 0.0000000000000000000, 149.9999999999999700 ) ) ;
#853 = DIRECTION ( 'NONE',  ( -1.000000000000000000, -0.0000000000000000000, -0.0000000000000000000 ) ) ;
#854 = DIRECTION ( 'NONE',  ( 0.0000000000000000000, 0.0000000000000000000, 1.000000000000000000 ) ) ;
#855 = EDGE_CURVE ( 'NONE', #416, #611, #694, .T. ) ;
#856 = ADVANCED_FACE ( 'NONE', ( #636 ), #216, .T. ) ;
#857 = DIRECTION ( 'NONE',  ( -0.0000000000000000000, 0.0000000000000000000, 1.000000000000000000 ) ) ;
#858 = ORIENTED_EDGE ( 'NONE', *, *, #432, .T. ) ;
#859 = DIRECTION ( 'NONE',  ( -1.000000000000000000, -0.0000000000000000000, -0.0000000000000000000 ) ) ;
#860 = PRESENTATION_LAYER_ASSIGNMENT (  '', '', ( #312 ) ) ;
#861 = AXIS2_PLACEMENT_3D ( 'NONE', #273, #1208, #747 ) ;
#862 = VECTOR ( 'NONE', #483, 1000.000000000000000 ) ;
#863 = FACE_OUTER_BOUND ( 'NONE', #206, .T. ) ;
#864 =( NAMED_UNIT ( * ) PLANE_ANGLE_UNIT ( ) SI_UNIT ( $, .RADIAN. ) );
#865 = EDGE_LOOP ( 'NONE', ( #1060, #1166 ) ) ;
#866 = ORIENTED_EDGE ( 'NONE', *, *, #894, .T. ) ;
#867 = ORIENTED_EDGE ( 'NONE', *, *, #40, .F. ) ;
#868 = AXIS2_PLACEMENT_3D ( 'NONE', #1169, #904, #892 ) ;
#869 = CARTESIAN_POINT ( 'NONE',  ( 0.0000000000000000000, 1.836970198721029400E-014, -149.9999999999999700 ) ) ;
#870 = ORIENTED_EDGE ( 'NONE', *, *, #937, .T. ) ;
#871 = FACE_OUTER_BOUND ( 'NONE', #493, .T. ) ;
#872 = FACE_BOUND ( 'NONE', #547, .T. ) ;
#873 = DIRECTION ( 'NONE',  ( -1.000000000000000000, -0.0000000000000000000, -0.0000000000000000000 ) ) ;
#874 = EDGE_CURVE ( 'NONE', #416, #1052, #973, .T. ) ;
#875 = ORIENTED_EDGE ( 'NONE', *, *, #976, .F. ) ;
#876 = DIRECTION ( 'NONE',  ( 0.0000000000000000000, 0.0000000000000000000, 1.000000000000000000 ) ) ;
#877 = EDGE_LOOP ( 'NONE', ( #1201, #1183, #1220, #362 ) ) ;
#878 = DIRECTION ( 'NONE',  ( -1.000000000000000000, -0.0000000000000000000, -0.0000000000000000000 ) ) ;
#879 = EDGE_CURVE ( 'NONE', #536, #605, #548, .T. ) ;
#880 = AXIS2_PLACEMENT_3D ( 'NONE', #1031, #1209, #664 ) ;
#881 = CARTESIAN_POINT ( 'NONE',  ( 610.0000000000000000, 1.836970198721029400E-014, -149.9999999999999700 ) ) ;
#882 = CARTESIAN_POINT ( 'NONE',  ( 0.0000000000000000000, 1.224646799147352600E-014, -99.99999999999994300 ) ) ;
#883 = DIRECTION ( 'NONE',  ( -1.000000000000000000, -0.0000000000000000000, -0.0000000000000000000 ) ) ;
#884 = DIRECTION ( 'NONE',  ( -1.000000000000000000, -0.0000000000000000000, -0.0000000000000000000 ) ) ;
#885 = EDGE_LOOP ( 'NONE', ( #520, #29 ) ) ;
#886 = PRESENTATION_LAYER_ASSIGNMENT (  '', '', ( #922 ) ) ;
#887 = CARTESIAN_POINT ( 'NONE',  ( 230.0000000000000000, 0.0000000000000000000, 0.0000000000000000000 ) ) ;
#888 = ORIENTED_EDGE ( 'NONE', *, *, #1189, .T. ) ;
#889 = ORIENTED_EDGE ( 'NONE', *, *, #423, .T. ) ;
#890 = EDGE_CURVE ( 'NONE', #642, #948, #389, .T. ) ;
#891 = ORIENTED_EDGE ( 'NONE', *, *, #228, .F. ) ;
#892 = DIRECTION ( 'NONE',  ( 0.0000000000000000000, 0.0000000000000000000, 1.000000000000000000 ) ) ;
#893 = AXIS2_PLACEMENT_3D ( 'NONE', #896, #46, #142 ) ;
#894 = EDGE_CURVE ( 'NONE', #249, #129, #135, .T. ) ;
#895 = CARTESIAN_POINT ( 'NONE',  ( 250.0000000000000000, 1.224646799147352600E-014, -99.99999999999994300 ) ) ;
#896 = CARTESIAN_POINT ( 'NONE',  ( 580.0000000000000000, 0.0000000000000000000, 0.0000000000000000000 ) ) ;
#897 = DIRECTION ( 'NONE',  ( -0.0000000000000000000, 0.0000000000000000000, 1.000000000000000000 ) ) ;
#898 = COLOUR_RGB ( '',0.7921568627450980000, 0.8196078431372548800, 0.9333333333333333500 ) ;
#899 = FILL_AREA_STYLE ('',( #230 ) ) ;
#900 = CARTESIAN_POINT ( 'NONE',  ( 0.0000000000000000000, 4.898587196589408300E-015, -39.99999999999995700 ) ) ;
#901 = CIRCLE ( 'NONE', #125, 149.9999999999999700 ) ;
#902 = AXIS2_PLACEMENT_3D ( 'NONE', #274, #649, #1199 ) ;
#903 = PRODUCT_DEFINITION_FORMATION_WITH_SPECIFIED_SOURCE ( 'ANY', '', #1142, .NOT_KNOWN. ) ;
#904 = DIRECTION ( 'NONE',  ( -1.000000000000000000, -0.0000000000000000000, -0.0000000000000000000 ) ) ;
#905 = ORIENTED_EDGE ( 'NONE', *, *, #1174, .T. ) ;
#906 = DIRECTION ( 'NONE',  ( -1.000000000000000000, -0.0000000000000000000, -0.0000000000000000000 ) ) ;
#907 = PLANE ( 'NONE',  #711 ) ;
#908 = EDGE_LOOP ( 'NONE', ( #610, #66, #1126, #1023 ) ) ;
#909 = SURFACE_STYLE_FILL_AREA ( #275 ) ;
#910 = CARTESIAN_POINT ( 'NONE',  ( 0.0000000000000000000, 0.0000000000000000000, 0.0000000000000000000 ) ) ;
#911 =( NAMED_UNIT ( * ) SI_UNIT ( $, .STERADIAN. ) SOLID_ANGLE_UNIT ( ) );
#912 = UNCERTAINTY_MEASURE_WITH_UNIT (LENGTH_MEASURE( 1.000000000000000100E-005 ), #352, 'distance_accuracy_value', 'NONE');
#913 = FACE_BOUND ( 'NONE', #1025, .T. ) ;
#914 = ORIENTED_EDGE ( 'NONE', *, *, #197, .F. ) ;
#915 = AXIS2_PLACEMENT_3D ( 'NONE', #615, #906, #984 ) ;
#916 = AXIS2_PLACEMENT_3D ( 'NONE', #1216, #675, #857 ) ;
#917 = DIRECTION ( 'NONE',  ( -1.000000000000000000, -0.0000000000000000000, -0.0000000000000000000 ) ) ;
#918 = EDGE_LOOP ( 'NONE', ( #709, #822, #489, #743 ) ) ;
#919 = ORIENTED_EDGE ( 'NONE', *, *, #423, .F. ) ;
#920 = VECTOR ( 'NONE', #497, 1000.000000000000000 ) ;
#921 = DIRECTION ( 'NONE',  ( 0.0000000000000000000, 0.0000000000000000000, 1.000000000000000000 ) ) ;
#922 = STYLED_ITEM ( 'NONE', ( #1197 ), #376 ) ;
#923 = DIRECTION ( 'NONE',  ( -0.0000000000000000000, 0.0000000000000000000, 1.000000000000000000 ) ) ;
#924 = CARTESIAN_POINT ( 'NONE',  ( 860.0000000000000000, 0.0000000000000000000, 0.0000000000000000000 ) ) ;
#925 = CIRCLE ( 'NONE', #395, 149.9999999999999700 ) ;
#926 = VERTEX_POINT ( 'NONE', #477 ) ;
#927 = FACE_OUTER_BOUND ( 'NONE', #1223, .T. ) ;
#928 = DIRECTION ( 'NONE',  ( 0.0000000000000000000, 0.0000000000000000000, 1.000000000000000000 ) ) ;
#929 = ADVANCED_FACE ( 'NONE', ( #1049 ), #720, .T. ) ;
#930 = ORIENTED_EDGE ( 'NONE', *, *, #490, .T. ) ;
#931 = PLANE ( 'NONE',  #815 ) ;
#932 = EDGE_LOOP ( 'NONE', ( #295, #65, #763, #510 ) ) ;
#933 = ORIENTED_EDGE ( 'NONE', *, *, #133, .T. ) ;
#934 = DIRECTION ( 'NONE',  ( -1.000000000000000000, -0.0000000000000000000, -0.0000000000000000000 ) ) ;
#935 = CARTESIAN_POINT ( 'NONE',  ( 250.0000000000000000, 0.0000000000000000000, 0.0000000000000000000 ) ) ;
#936 = DIRECTION ( 'NONE',  ( -1.000000000000000000, 0.0000000000000000000, -0.0000000000000000000 ) ) ;
#937 = EDGE_CURVE ( 'NONE', #114, #731, #606, .T. ) ;
#938 = DIRECTION ( 'NONE',  ( 0.0000000000000000000, 0.0000000000000000000, 1.000000000000000000 ) ) ;
#939 = SURFACE_STYLE_USAGE ( .BOTH. , #1033 ) ;
#940 = CARTESIAN_POINT ( 'NONE',  ( 0.0000000000000000000, 0.0000000000000000000, 0.0000000000000000000 ) ) ;
#941 = AXIS2_PLACEMENT_3D ( 'NONE', #525, #1160, #528 ) ;
#942 =( GEOMETRIC_REPRESENTATION_CONTEXT ( 3 ) GLOBAL_UNCERTAINTY_ASSIGNED_CONTEXT ( ( #807 ) ) GLOBAL_UNIT_ASSIGNED_CONTEXT ( ( #98, #864, #470 ) ) REPRESENTATION_CONTEXT ( 'NONE', 'WORKASPACE' ) );
#943 = ORIENTED_EDGE ( 'NONE', *, *, #953, .F. ) ;
#944 = VECTOR ( 'NONE', #670, 1000.000000000000000 ) ;
#945 = DIRECTION ( 'NONE',  ( -1.000000000000000000, -0.0000000000000000000, -0.0000000000000000000 ) ) ;
#946 = CIRCLE ( 'NONE', #218, 149.9999999999999700 ) ;
#947 = CARTESIAN_POINT ( 'NONE',  ( 580.0000000000000000, 0.0000000000000000000, 0.0000000000000000000 ) ) ;
#948 = VERTEX_POINT ( 'NONE', #1044 ) ;
#949 = EDGE_LOOP ( 'NONE', ( #399, #1131, #534, #97 ) ) ;
#950 = AXIS2_PLACEMENT_3D ( 'NONE', #1144, #695, #964 ) ;
#951 = ORIENTED_EDGE ( 'NONE', *, *, #879, .T. ) ;
#952 = CARTESIAN_POINT ( 'NONE',  ( 280.0000000000000000, 0.0000000000000000000, 39.99999999999995700 ) ) ;
#953 = EDGE_CURVE ( 'NONE', #680, #379, #824, .T. ) ;
#954 = CIRCLE ( 'NONE', #500, 99.99999999999994300 ) ;
#955 =( GEOMETRIC_REPRESENTATION_CONTEXT ( 3 ) GLOBAL_UNCERTAINTY_ASSIGNED_CONTEXT ( ( #1105 ) ) GLOBAL_UNIT_ASSIGNED_CONTEXT ( ( #591, #969, #351 ) ) REPRESENTATION_CONTEXT ( 'NONE', 'WORKASPACE' ) );
#956 = ORIENTED_EDGE ( 'NONE', *, *, #855, .T. ) ;
#957 = EDGE_CURVE ( 'NONE', #585, #572, #669, .T. ) ;
#958 = VERTEX_POINT ( 'NONE', #106 ) ;
#959 = CIRCLE ( 'NONE', #652, 39.99999999999995700 ) ;
#960 = FACE_BOUND ( 'NONE', #1124, .T. ) ;
#961 = PRESENTATION_STYLE_ASSIGNMENT (( #252 ) ) ;
#962 = DIRECTION ( 'NONE',  ( -1.000000000000000000, -0.0000000000000000000, -0.0000000000000000000 ) ) ;
#963 = VERTEX_POINT ( 'NONE', #199 ) ;
#964 = DIRECTION ( 'NONE',  ( 0.0000000000000000000, 0.0000000000000000000, 1.000000000000000000 ) ) ;
#965 = ORIENTED_EDGE ( 'NONE', *, *, #665, .T. ) ;
#966 = AXIS2_PLACEMENT_3D ( 'NONE', #1102, #917, #628 ) ;
#967 = CARTESIAN_POINT ( 'NONE',  ( 250.0000000000000000, 0.0000000000000000000, 99.99999999999994300 ) ) ;
#968 = DIRECTION ( 'NONE',  ( 0.0000000000000000000, 0.0000000000000000000, -1.000000000000000000 ) ) ;
#969 =( NAMED_UNIT ( * ) PLANE_ANGLE_UNIT ( ) SI_UNIT ( $, .RADIAN. ) );
#970 = DIRECTION ( 'NONE',  ( 0.0000000000000000000, 0.0000000000000000000, 1.000000000000000000 ) ) ;
#971 = CARTESIAN_POINT ( 'NONE',  ( 630.0000000000000000, 0.0000000000000000000, 0.0000000000000000000 ) ) ;
#972 = FACE_OUTER_BOUND ( 'NONE', #949, .T. ) ;
#973 = LINE ( 'NONE', #766, #944 ) ;
#974 = EDGE_LOOP ( 'NONE', ( #1009, #1168 ) ) ;
#975 = UNCERTAINTY_MEASURE_WITH_UNIT (LENGTH_MEASURE( 1.000000000000000100E-005 ), #463, 'distance_accuracy_value', 'NONE');
#976 = EDGE_CURVE ( 'NONE', #1091, #137, #110, .T. ) ;
#977 = VERTEX_POINT ( 'NONE', #390 ) ;
#978 = CARTESIAN_POINT ( 'NONE',  ( 250.0000000000000000, 0.0000000000000000000, 0.0000000000000000000 ) ) ;
#979 = ORIENTED_EDGE ( 'NONE', *, *, #957, .T. ) ;
#980 = CARTESIAN_POINT ( 'NONE',  ( 610.0000000000000000, 0.0000000000000000000, 99.99999999999995700 ) ) ;
#981 = ORIENTED_EDGE ( 'NONE', *, *, #826, .F. ) ;
#982 = EDGE_CURVE ( 'NONE', #1011, #679, #163, .T. ) ;
#983 = AXIS2_PLACEMENT_3D ( 'NONE', #578, #1118, #1043 ) ;
#984 = DIRECTION ( 'NONE',  ( 0.0000000000000000000, 0.0000000000000000000, 1.000000000000000000 ) ) ;
#985 = DIRECTION ( 'NONE',  ( 0.0000000000000000000, 0.0000000000000000000, 1.000000000000000000 ) ) ;
#986 = DIRECTION ( 'NONE',  ( 0.0000000000000000000, 0.0000000000000000000, 1.000000000000000000 ) ) ;
#987 =( LENGTH_UNIT ( ) NAMED_UNIT ( * ) SI_UNIT ( .MILLI., .METRE. ) );
#988 = ORIENTED_EDGE ( 'NONE', *, *, #308, .T. ) ;
#989 = DIRECTION ( 'NONE',  ( -1.000000000000000000, 0.0000000000000000000, -0.0000000000000000000 ) ) ;
#990 = CARTESIAN_POINT ( 'NONE',  ( 0.0000000000000000000, 0.0000000000000000000, 0.0000000000000000000 ) ) ;
#991 = ORIENTED_EDGE ( 'NONE', *, *, #283, .T. ) ;
#992 = VECTOR ( 'NONE', #1010, 1000.000000000000000 ) ;
#993 = MECHANICAL_DESIGN_GEOMETRIC_PRESENTATION_REPRESENTATION (  '', ( #588 ), #445 ) ;
#994 = LINE ( 'NONE', #616, #621 ) ;
#995 = FACE_OUTER_BOUND ( 'NONE', #800, .T. ) ;
#996 = LINE ( 'NONE', #384, #446 ) ;
#997 = CARTESIAN_POINT ( 'NONE',  ( 250.0000000000000000, 0.0000000000000000000, 0.0000000000000000000 ) ) ;
#998 = ORIENTED_EDGE ( 'NONE', *, *, #306, .F. ) ;
#999 = UNCERTAINTY_MEASURE_WITH_UNIT (LENGTH_MEASURE( 1.000000000000000100E-005 ), #637, 'distance_accuracy_value', 'NONE');
#1000 = CARTESIAN_POINT ( 'NONE',  ( 630.0000000000000000, 1.224646799147352600E-014, -99.99999999999994300 ) ) ;
#1001 = DIRECTION ( 'NONE',  ( 0.0000000000000000000, 0.0000000000000000000, 1.000000000000000000 ) ) ;
#1002 = CARTESIAN_POINT ( 'NONE',  ( 610.0000000000000000, 0.0000000000000000000, 0.0000000000000000000 ) ) ;
#1003 = DIRECTION ( 'NONE',  ( 0.0000000000000000000, 0.0000000000000000000, 1.000000000000000000 ) ) ;
#1004 = FACE_OUTER_BOUND ( 'NONE', #885, .T. ) ;
#1005 = EDGE_CURVE ( 'NONE', #680, #482, #507, .T. ) ;
#1006 = CIRCLE ( 'NONE', #627, 99.99999999999994300 ) ;
#1007 = ORIENTED_EDGE ( 'NONE', *, *, #689, .T. ) ;
#1008 = DIRECTION ( 'NONE',  ( 0.0000000000000000000, 0.0000000000000000000, 1.000000000000000000 ) ) ;
#1009 = ORIENTED_EDGE ( 'NONE', *, *, #721, .F. ) ;
#1010 = DIRECTION ( 'NONE',  ( -1.000000000000000000, -0.0000000000000000000, -0.0000000000000000000 ) ) ;
#1011 = VERTEX_POINT ( 'NONE', #120 ) ;
#1012 = ORIENTED_EDGE ( 'NONE', *, *, #184, .T. ) ;
#1013 = AXIS2_PLACEMENT_3D ( 'NONE', #210, #873, #495 ) ;
#1014 = ADVANCED_FACE ( 'NONE', ( #913, #1038 ), #590, .F. ) ;
#1015 = LINE ( 'NONE', #415, #4 ) ;
#1016 = DIRECTION ( 'NONE',  ( -1.000000000000000000, -0.0000000000000000000, -0.0000000000000000000 ) ) ;
#1017 = EDGE_CURVE ( 'NONE', #633, #786, #533, .T. ) ;
#1018 = ORIENTED_EDGE ( 'NONE', *, *, #890, .T. ) ;
#1019 = CARTESIAN_POINT ( 'NONE',  ( 710.0000000000001100, 0.0000000000000000000, 0.0000000000000000000 ) ) ;
#1020 = SURFACE_STYLE_FILL_AREA ( #729 ) ;
#1021 = ADVANCED_FACE ( 'NONE', ( #722 ), #832, .F. ) ;
#1022 = CIRCLE ( 'NONE', #941, 99.99999999999994300 ) ;
#1023 = ORIENTED_EDGE ( 'NONE', *, *, #371, .F. ) ;
#1024 = EDGE_CURVE ( 'NONE', #379, #680, #946, .T. ) ;
#1025 = EDGE_LOOP ( 'NONE', ( #134, #494 ) ) ;
#1026 = CARTESIAN_POINT ( 'NONE',  ( 280.0000000000000000, 0.0000000000000000000, 0.0000000000000000000 ) ) ;
#1027 = ORIENTED_EDGE ( 'NONE', *, *, #874, .T. ) ;
#1028 = ADVANCED_FACE ( 'NONE', ( #205 ), #672, .T. ) ;
#1029 = DIRECTION ( 'NONE',  ( -1.000000000000000000, -0.0000000000000000000, -0.0000000000000000000 ) ) ;
#1030 = AXIS2_PLACEMENT_3D ( 'NONE', #1096, #546, #921 ) ;
#1031 = CARTESIAN_POINT ( 'NONE',  ( 0.0000000000000000000, 0.0000000000000000000, 0.0000000000000000000 ) ) ;
#1032 = DIRECTION ( 'NONE',  ( -1.000000000000000000, -0.0000000000000000000, -0.0000000000000000000 ) ) ;
#1033 = SURFACE_SIDE_STYLE ('',( #1020 ) ) ;
#1034 = CIRCLE ( 'NONE', #1081, 100.0000000000000000 ) ;
#1035 = CIRCLE ( 'NONE', #727, 99.99999999999994300 ) ;
#1036 = CIRCLE ( 'NONE', #893, 39.99999999999995700 ) ;
#1037 = CARTESIAN_POINT ( 'NONE',  ( 580.0000000000000000, 0.0000000000000000000, 0.0000000000000000000 ) ) ;
#1038 = FACE_OUTER_BOUND ( 'NONE', #850, .T. ) ;
#1039 = ORIENTED_EDGE ( 'NONE', *, *, #234, .T. ) ;
#1040 = DIRECTION ( 'NONE',  ( 0.0000000000000000000, 0.0000000000000000000, 1.000000000000000000 ) ) ;
#1041 = EDGE_LOOP ( 'NONE', ( #374, #965, #933, #303 ) ) ;
#1042 = EDGE_LOOP ( 'NONE', ( #788, #568, #1027, #75 ) ) ;
#1043 = DIRECTION ( 'NONE',  ( 0.0000000000000000000, 0.0000000000000000000, 1.000000000000000000 ) ) ;
#1044 = CARTESIAN_POINT ( 'NONE',  ( 250.0000000000000000, 0.0000000000000000000, -149.9999999999999700 ) ) ;
#1045 = AXIS2_PLACEMENT_3D ( 'NONE', #780, #785, #701 ) ;
#1046 = AXIS2_PLACEMENT_3D ( 'NONE', #1050, #189, #678 ) ;
#1047 = VERTEX_POINT ( 'NONE', #661 ) ;
#1048 = VERTEX_POINT ( 'NONE', #87 ) ;
#1049 = FACE_OUTER_BOUND ( 'NONE', #553, .T. ) ;
#1050 = CARTESIAN_POINT ( 'NONE',  ( 0.0000000000000000000, 0.0000000000000000000, 0.0000000000000000000 ) ) ;
#1051 = CIRCLE ( 'NONE', #566, 100.0000000000000000 ) ;
#1052 = VERTEX_POINT ( 'NONE', #270 ) ;
#1053 = PRESENTATION_LAYER_ASSIGNMENT (  '', '', ( #588 ) ) ;
#1054 = LINE ( 'NONE', #318, #20 ) ;
#1055 = DIRECTION ( 'NONE',  ( -1.000000000000000000, -0.0000000000000000000, -0.0000000000000000000 ) ) ;
#1056 = LINE ( 'NONE', #417, #655 ) ;
#1057 = SURFACE_STYLE_FILL_AREA ( #333 ) ;
#1058 = VECTOR ( 'NONE', #294, 1000.000000000000000 ) ;
#1059 = FACE_BOUND ( 'NONE', #337, .T. ) ;
#1060 = ORIENTED_EDGE ( 'NONE', *, *, #496, .T. ) ;
#1061 = ORIENTED_EDGE ( 'NONE', *, *, #957, .F. ) ;
#1062 = AXIS2_PLACEMENT_3D ( 'NONE', #607, #692, #1067 ) ;
#1063 = ORIENTED_EDGE ( 'NONE', *, *, #157, .T. ) ;
#1064 = AXIS2_PLACEMENT_3D ( 'NONE', #1115, #1214, #487 ) ;
#1065 = CARTESIAN_POINT ( 'NONE',  ( 280.0000000000000000, 4.898587196589408300E-015, -39.99999999999995700 ) ) ;
#1066 = AXIS2_PLACEMENT_3D ( 'NONE', #18, #686, #779 ) ;
#1067 = DIRECTION ( 'NONE',  ( 0.0000000000000000000, 0.0000000000000000000, -1.000000000000000000 ) ) ;
#1068 = ORIENTED_EDGE ( 'NONE', *, *, #371, .T. ) ;
#1069 = DIRECTION ( 'NONE',  ( -1.000000000000000000, -0.0000000000000000000, -0.0000000000000000000 ) ) ;
#1070 = DIRECTION ( 'NONE',  ( 0.0000000000000000000, 0.0000000000000000000, 1.000000000000000000 ) ) ;
#1071 = EDGE_CURVE ( 'NONE', #1097, #1047, #164, .T. ) ;
#1072 = ORIENTED_EDGE ( 'NONE', *, *, #1129, .F. ) ;
#1073 = CARTESIAN_POINT ( 'NONE',  ( 249.9999999999999400, 0.0000000000000000000, 39.99999999999995700 ) ) ;
#1074 = AXIS2_PLACEMENT_3D ( 'NONE', #365, #562, #1103 ) ;
#1075 = EDGE_CURVE ( 'NONE', #572, #585, #1181, .T. ) ;
#1076 = DIRECTION ( 'NONE',  ( -1.000000000000000000, -0.0000000000000000000, -0.0000000000000000000 ) ) ;
#1077 = CARTESIAN_POINT ( 'NONE',  ( 0.0000000000000000000, 0.0000000000000000000, 99.99999999999994300 ) ) ;
#1078 = DIRECTION ( 'NONE',  ( -1.000000000000000000, -0.0000000000000000000, -0.0000000000000000000 ) ) ;
#1079 = CYLINDRICAL_SURFACE ( 'NONE', #1122, 99.99999999999994300 ) ;
#1080 = AXIS2_PLACEMENT_3D ( 'NONE', #1019, #67, #451 ) ;
#1081 = AXIS2_PLACEMENT_3D ( 'NONE', #418, #385, #1107 ) ;
#1082 = FACE_OUTER_BOUND ( 'NONE', #512, .T. ) ;
#1083 = CARTESIAN_POINT ( 'NONE',  ( 580.0000000000000000, 4.898587196589408300E-015, -39.99999999999995700 ) ) ;
#1084 = ORIENTED_EDGE ( 'NONE', *, *, #1075, .F. ) ;
#1085 = CLOSED_SHELL ( 'NONE', ( #825, #382, #1104, #476, #764, #90 ) ) ;
#1086 = CARTESIAN_POINT ( 'NONE',  ( 0.0000000000000000000, 0.0000000000000000000, 100.0000000000000000 ) ) ;
#1087 = EDGE_LOOP ( 'NONE', ( #1153, #1098, #288, #1185 ) ) ;
#1088 = DIRECTION ( 'NONE',  ( -1.000000000000000000, -0.0000000000000000000, -0.0000000000000000000 ) ) ;
#1089 = EDGE_CURVE ( 'NONE', #679, #1011, #284, .T. ) ;
#1090 = CARTESIAN_POINT ( 'NONE',  ( 0.0000000000000000000, 0.0000000000000000000, 39.99999999999995700 ) ) ;
#1091 = VERTEX_POINT ( 'NONE', #80 ) ;
#1092 = CLOSED_SHELL ( 'NONE', ( #452, #72, #1205, #261, #1219, #563, #366, #457, #929, #467, #1014, #386 ) ) ;
#1093 = COLOUR_RGB ( '',0.7921568627450980000, 0.8196078431372548800, 0.9333333333333333500 ) ;
#1094 = AXIS2_PLACEMENT_3D ( 'NONE', #935, #836, #742 ) ;
#1095 = DIRECTION ( 'NONE',  ( 1.000000000000000000, 0.0000000000000000000, 0.0000000000000000000 ) ) ;
#1096 = CARTESIAN_POINT ( 'NONE',  ( 610.0000000000000000, 0.0000000000000000000, 0.0000000000000000000 ) ) ;
#1097 = VERTEX_POINT ( 'NONE', #368 ) ;
#1098 = ORIENTED_EDGE ( 'NONE', *, *, #1148, .T. ) ;
#1099 = ORIENTED_EDGE ( 'NONE', *, *, #953, .T. ) ;
#1100 = AXIS2_PLACEMENT_3D ( 'NONE', #400, #1146, #1141 ) ;
#1101 = DIRECTION ( 'NONE',  ( -1.000000000000000000, 0.0000000000000000000, -0.0000000000000000000 ) ) ;
#1102 = CARTESIAN_POINT ( 'NONE',  ( 0.0000000000000000000, 0.0000000000000000000, 0.0000000000000000000 ) ) ;
#1103 = DIRECTION ( 'NONE',  ( 0.0000000000000000000, 0.0000000000000000000, 1.000000000000000000 ) ) ;
#1104 = ADVANCED_FACE ( 'NONE', ( #475 ), #233, .F. ) ;
#1105 = UNCERTAINTY_MEASURE_WITH_UNIT (LENGTH_MEASURE( 1.000000000000000100E-005 ), #591, 'distance_accuracy_value', 'NONE');
#1106 = ORIENTED_EDGE ( 'NONE', *, *, #308, .F. ) ;
#1107 = DIRECTION ( 'NONE',  ( 0.0000000000000000000, 0.0000000000000000000, 1.000000000000000000 ) ) ;
#1108 = CYLINDRICAL_SURFACE ( 'NONE', #966, 99.99999999999994300 ) ;
#1109 = VECTOR ( 'NONE', #334, 1000.000000000000000 ) ;
#1110 = CIRCLE ( 'NONE', #511, 39.99999999999995700 ) ;
#1111 = ADVANCED_FACE ( 'NONE', ( #696 ), #784, .T. ) ;
#1112 = DIRECTION ( 'NONE',  ( -1.000000000000000000, -0.0000000000000000000, -0.0000000000000000000 ) ) ;
#1113 = ORIENTED_EDGE ( 'NONE', *, *, #1024, .F. ) ;
#1114 = CARTESIAN_POINT ( 'NONE',  ( 280.0000000000000000, 0.0000000000000000000, 39.99999999999995700 ) ) ;
#1115 = CARTESIAN_POINT ( 'NONE',  ( 580.0000000000000000, 0.0000000000000000000, 0.0000000000000000000 ) ) ;
#1116 = AXIS2_PLACEMENT_3D ( 'NONE', #438, #341, #1001 ) ;
#1117 = AXIS2_PLACEMENT_3D ( 'NONE', #13, #778, #1132 ) ;
#1118 = DIRECTION ( 'NONE',  ( -1.000000000000000000, -0.0000000000000000000, -0.0000000000000000000 ) ) ;
#1119 = VERTEX_POINT ( 'NONE', #364 ) ;
#1120 = ADVANCED_FACE ( 'NONE', ( #1165, #28 ), #95, .F. ) ;
#1121 = VECTOR ( 'NONE', #1016, 1000.000000000000000 ) ;
#1122 = AXIS2_PLACEMENT_3D ( 'NONE', #509, #1135, #22 ) ;
#1123 = DIRECTION ( 'NONE',  ( -1.000000000000000000, -0.0000000000000000000, -0.0000000000000000000 ) ) ;
#1124 = EDGE_LOOP ( 'NONE', ( #1072, #49 ) ) ;
#1125 = EDGE_LOOP ( 'NONE', ( #361, #47, #773, #919 ) ) ;
#1126 = ORIENTED_EDGE ( 'NONE', *, *, #496, .F. ) ;
#1127 = DIRECTION ( 'NONE',  ( -1.000000000000000000, -0.0000000000000000000, -0.0000000000000000000 ) ) ;
#1128 = AXIS2_PLACEMENT_3D ( 'NONE', #244, #989, #237 ) ;
#1129 = EDGE_CURVE ( 'NONE', #1052, #167, #1006, .T. ) ;
#1130 = ORIENTED_EDGE ( 'NONE', *, *, #453, .T. ) ;
#1131 = ORIENTED_EDGE ( 'NONE', *, *, #331, .T. ) ;
#1132 = DIRECTION ( 'NONE',  ( 0.0000000000000000000, 0.0000000000000000000, -1.000000000000000000 ) ) ;
#1133 = FACE_OUTER_BOUND ( 'NONE', #846, .T. ) ;
#1134 = LINE ( 'NONE', #584, #1058 ) ;
#1135 = DIRECTION ( 'NONE',  ( -1.000000000000000000, -0.0000000000000000000, -0.0000000000000000000 ) ) ;
#1136 = FACE_BOUND ( 'NONE', #259, .T. ) ;
#1137 = VERTEX_POINT ( 'NONE', #278 ) ;
#1138 = AXIS2_PLACEMENT_3D ( 'NONE', #805, #516, #986 ) ;
#1139 = AXIS2_PLACEMENT_3D ( 'NONE', #648, #100, #265 ) ;
#1140 = DIRECTION ( 'NONE',  ( -1.000000000000000000, -0.0000000000000000000, -0.0000000000000000000 ) ) ;
#1141 = DIRECTION ( 'NONE',  ( 0.0000000000000000000, 0.0000000000000000000, 1.000000000000000000 ) ) ;
#1142 = PRODUCT ( 'decoupling_cavity_cylindrical', 'decoupling_cavity_cylindrical', '', ( #1202 ) ) ;
#1143 = EDGE_LOOP ( 'NONE', ( #951, #698 ) ) ;
#1144 = CARTESIAN_POINT ( 'NONE',  ( 0.0000000000000000000, 0.0000000000000000000, 0.0000000000000000000 ) ) ;
#1145 = DIRECTION ( 'NONE',  ( 0.0000000000000000000, 0.0000000000000000000, 1.000000000000000000 ) ) ;
#1146 = DIRECTION ( 'NONE',  ( -1.000000000000000000, -0.0000000000000000000, -0.0000000000000000000 ) ) ;
#1147 = PRESENTATION_STYLE_ASSIGNMENT (( #1221 ) ) ;
#1148 = EDGE_CURVE ( 'NONE', #787, #166, #996, .T. ) ;
#1149 = FACE_OUTER_BOUND ( 'NONE', #1143, .T. ) ;
#1150 = CARTESIAN_POINT ( 'NONE',  ( 250.0000000000000000, 0.0000000000000000000, 0.0000000000000000000 ) ) ;
#1151 = ORIENTED_EDGE ( 'NONE', *, *, #471, .F. ) ;
#1152 = FILL_AREA_STYLE_COLOUR ( '', #402 ) ;
#1153 = ORIENTED_EDGE ( 'NONE', *, *, #808, .F. ) ;
#1154 = AXIS2_PLACEMENT_3D ( 'NONE', #703, #338, #441 ) ;
#1155 = ORIENTED_EDGE ( 'NONE', *, *, #644, .T. ) ;
#1156 = CARTESIAN_POINT ( 'NONE',  ( 0.0000000000000000000, 0.0000000000000000000, 39.99999999999995700 ) ) ;
#1157 = DIRECTION ( 'NONE',  ( -1.000000000000000000, -0.0000000000000000000, -0.0000000000000000000 ) ) ;
#1158 = EDGE_LOOP ( 'NONE', ( #5, #991 ) ) ;
#1159 = PRESENTATION_LAYER_ASSIGNMENT (  '', '', ( #776 ) ) ;
#1160 = DIRECTION ( 'NONE',  ( -1.000000000000000000, -0.0000000000000000000, -0.0000000000000000000 ) ) ;
#1161 = EDGE_LOOP ( 'NONE', ( #668, #1099, #888, #63 ) ) ;
#1162 = CARTESIAN_POINT ( 'NONE',  ( 0.0000000000000000000, 4.898587196589408300E-015, -39.99999999999995700 ) ) ;
#1163 = LINE ( 'NONE', #1156, #772 ) ;
#1164 = CYLINDRICAL_SURFACE ( 'NONE', #1013, 99.99999999999994300 ) ;
#1165 = FACE_OUTER_BOUND ( 'NONE', #200, .T. ) ;
#1166 = ORIENTED_EDGE ( 'NONE', *, *, #540, .T. ) ;
#1167 = CARTESIAN_POINT ( 'NONE',  ( 610.0000000000000000, 1.224646799147352900E-014, -99.99999999999997200 ) ) ;
#1168 = ORIENTED_EDGE ( 'NONE', *, *, #353, .F. ) ;
#1169 = CARTESIAN_POINT ( 'NONE',  ( 0.0000000000000000000, 0.0000000000000000000, 0.0000000000000000000 ) ) ;
#1170 = EDGE_LOOP ( 'NONE', ( #699, #221 ) ) ;
#1171 = CLOSED_SHELL ( 'NONE', ( #774, #730, #651, #643, #753, #555 ) ) ;
#1172 = SURFACE_SIDE_STYLE ('',( #1057 ) ) ;
#1173 = DIRECTION ( 'NONE',  ( 0.0000000000000000000, 0.0000000000000000000, 1.000000000000000000 ) ) ;
#1174 = EDGE_CURVE ( 'NONE', #414, #82, #844, .T. ) ;
#1175 = DIRECTION ( 'NONE',  ( -1.000000000000000000, -0.0000000000000000000, -0.0000000000000000000 ) ) ;
#1176 = MECHANICAL_DESIGN_GEOMETRIC_PRESENTATION_REPRESENTATION (  '', ( #312 ), #217 ) ;
#1177 = AXIS2_PLACEMENT_3D ( 'NONE', #1037, #1101, #923 ) ;
#1178 = VECTOR ( 'NONE', #440, 1000.000000000000000 ) ;
#1179 = DIRECTION ( 'NONE',  ( -1.000000000000000000, -0.0000000000000000000, -0.0000000000000000000 ) ) ;
#1180 = APPLICATION_PROTOCOL_DEFINITION ( 'draft international standard', 'automotive_design', 1998, #537 ) ;
#1181 = CIRCLE ( 'NONE', #74, 39.99999999999995700 ) ;
#1182 = DIRECTION ( 'NONE',  ( -1.000000000000000000, -0.0000000000000000000, -0.0000000000000000000 ) ) ;
#1183 = ORIENTED_EDGE ( 'NONE', *, *, #436, .T. ) ;
#1184 = CARTESIAN_POINT ( 'NONE',  ( 0.0000000000000000000, 0.0000000000000000000, 0.0000000000000000000 ) ) ;
#1185 = ORIENTED_EDGE ( 'NONE', *, *, #890, .F. ) ;
#1186 = AXIS2_PLACEMENT_3D ( 'NONE', #16, #529, #499 ) ;
#1187 =( NAMED_UNIT ( * ) PLANE_ANGLE_UNIT ( ) SI_UNIT ( $, .RADIAN. ) );
#1188 = FACE_OUTER_BOUND ( 'NONE', #865, .T. ) ;
#1189 = EDGE_CURVE ( 'NONE', #379, #726, #247, .T. ) ;
#1190 = DIRECTION ( 'NONE',  ( -1.000000000000000000, -0.0000000000000000000, -0.0000000000000000000 ) ) ;
#1191 = VECTOR ( 'NONE', #1055, 1000.000000000000000 ) ;
#1192 = AXIS2_PLACEMENT_3D ( 'NONE', #619, #145, #1173 ) ;
#1193 = ORIENTED_EDGE ( 'NONE', *, *, #1071, .F. ) ;
#1194 = LINE ( 'NONE', #1090, #1121 ) ;
#1195 = ADVANCED_FACE ( 'NONE', ( #124, #1136 ), #287, .F. ) ;
#1196 = EDGE_CURVE ( 'NONE', #963, #253, #430, .T. ) ;
#1197 = PRESENTATION_STYLE_ASSIGNMENT (( #254 ) ) ;
#1198 = CONICAL_SURFACE ( 'NONE', #111, 100.0000000000000000, 0.4636476090008057000 ) ;
#1199 = DIRECTION ( 'NONE',  ( 0.0000000000000000000, 0.0000000000000000000, -1.000000000000000000 ) ) ;
#1200 = DIRECTION ( 'NONE',  ( 0.0000000000000000000, 0.0000000000000000000, 1.000000000000000000 ) ) ;
#1201 = ORIENTED_EDGE ( 'NONE', *, *, #453, .F. ) ;
#1202 = PRODUCT_CONTEXT ( 'NONE', #537, 'mechanical' ) ;
#1203 = ORIENTED_EDGE ( 'NONE', *, *, #894, .F. ) ;
#1204 = DIRECTION ( 'NONE',  ( -1.000000000000000000, -0.0000000000000000000, -0.0000000000000000000 ) ) ;
#1205 = ADVANCED_FACE ( 'NONE', ( #594 ), #192, .T. ) ;
#1206 = DIRECTION ( 'NONE',  ( 1.000000000000000000, 0.0000000000000000000, 0.0000000000000000000 ) ) ;
#1207 = AXIS2_PLACEMENT_3D ( 'NONE', #740, #756, #458 ) ;
#1208 = DIRECTION ( 'NONE',  ( -1.000000000000000000, 0.0000000000000000000, -0.0000000000000000000 ) ) ;
#1209 = DIRECTION ( 'NONE',  ( -1.000000000000000000, -0.0000000000000000000, -0.0000000000000000000 ) ) ;
#1210 = CARTESIAN_POINT ( 'NONE',  ( 150.0000000000000000, 0.0000000000000000000, 0.0000000000000000000 ) ) ;
#1211 = COLOUR_RGB ( '',0.7921568627450980000, 0.8196078431372548800, 0.9333333333333333500 ) ;
#1212 = CIRCLE ( 'NONE', #268, 99.99999999999994300 ) ;
#1213 = CARTESIAN_POINT ( 'NONE',  ( 0.0000000000000000000, 0.0000000000000000000, 0.0000000000000000000 ) ) ;
#1214 = DIRECTION ( 'NONE',  ( -1.000000000000000000, -0.0000000000000000000, -0.0000000000000000000 ) ) ;
#1215 = EDGE_LOOP ( 'NONE', ( #625, #44, #867, #214 ) ) ;
#1216 = CARTESIAN_POINT ( 'NONE',  ( 230.0000000000000000, 0.0000000000000000000, 0.0000000000000000000 ) ) ;
#1217 = ORIENTED_EDGE ( 'NONE', *, *, #432, .F. ) ;
#1218 = DIRECTION ( 'NONE',  ( -1.000000000000000000, -0.0000000000000000000, -0.0000000000000000000 ) ) ;
#1219 = ADVANCED_FACE ( 'NONE', ( #1059, #1149 ), #931, .F. ) ;
#1220 = ORIENTED_EDGE ( 'NONE', *, *, #228, .T. ) ;
#1221 = SURFACE_STYLE_USAGE ( .BOTH. , #297 ) ;
#1222 = EDGE_CURVE ( 'NONE', #166, #948, #347, .T. ) ;
#1223 = EDGE_LOOP ( 'NONE', ( #812, #126, #394, #128 ) ) ;
ENDSEC;
END-ISO-10303-21;
