ISO-10303-21;
HEADER;
FILE_DESCRIPTION (( 'STEP AP214' ),
    '1' );
FILE_NAME ('RPBC_suction_filter_first_stage.STEP',
    '2024-09-23T01:32:13',
    ( '' ),
    ( '' ),
    'SwSTEP 2.0',
    'SolidWorks 2015',
    '' );
FILE_SCHEMA (( 'AUTOMOTIVE_DESIGN' ));
ENDSEC;

DATA;
#1 = CARTESIAN_POINT ( 'NONE',  ( 2504.971393068207400, -518.1088283424817300, -190.4406991253801200 ) ) ;
#2 = SURFACE_STYLE_USAGE ( .BOTH. , #566 ) ;
#3 = CARTESIAN_POINT ( 'NONE',  ( 2430.696123645094300, -533.5303655851958000, 141.6011931336071500 ) ) ;
#4 = CARTESIAN_POINT ( 'NONE',  ( 1125.608321519783400, 17.54732082228979800, 551.7224464864365200 ) ) ;
#5 = DIRECTION ( 'NONE',  ( -1.000000000000000000, -0.0000000000000000000, -0.0000000000000000000 ) ) ;
#6 = CARTESIAN_POINT ( 'NONE',  ( 2423.936512857817000, -535.4203137401639200, 134.2963413366573200 ) ) ;
#7 = CARTESIAN_POINT ( 'NONE',  ( 1178.408752369846800, 116.2398378474409700, 539.6247796852699100 ) ) ;
#8 = AXIS2_PLACEMENT_3D ( 'NONE', #676, #918, #101 ) ;
#9 = CYLINDRICAL_SURFACE ( 'NONE', #537, 203.6000000000000800 ) ;
#10 = FILL_AREA_STYLE_COLOUR ( '', #267 ) ;
#11 = CARTESIAN_POINT ( 'NONE',  ( 2538.635085143521300, -514.5096693807338400, 199.9598109535855300 ) ) ;
#12 = CARTESIAN_POINT ( 'NONE',  ( 1147.631648165107700, -80.59677889941920600, 546.0886819747758000 ) ) ;
#13 = ORIENTED_EDGE ( 'NONE', *, *, #673, .F. ) ;
#14 = ADVANCED_BREP_SHAPE_REPRESENTATION ( 'RPBC_suction_filter_first_stage', ( #185, #756 ), #784 ) ;
#15 = CARTESIAN_POINT ( 'NONE',  ( 2570.386720900215600, -513.0790076503401500, 203.6023868111778700 ) ) ;
#16 = CARTESIAN_POINT ( 'NONE',  ( 1140.270771377059900, -67.49784424547056000, 547.8757833361797800 ) ) ;
#17 = DIRECTION ( 'NONE',  ( 0.0000000000000000000, 0.0000000000000000000, 1.000000000000000000 ) ) ;
#18 = CARTESIAN_POINT ( 'NONE',  ( 2553.662636516417000, -513.5995511431930300, 202.2860029236428800 ) ) ;
#19 = CARTESIAN_POINT ( 'NONE',  ( 1264.339063725401500, -151.8939015356447400, 530.6904088542451100 ) ) ;
#20 = UNCERTAINTY_MEASURE_WITH_UNIT (LENGTH_MEASURE( 1.000000000000000100E-005 ), #723, 'distance_accuracy_value', 'NONE');
#21 = CARTESIAN_POINT ( 'NONE',  ( 1377.538055642383400, -114.6405559568685100, 539.9739990471194900 ) ) ;
#22 = PRESENTATION_STYLE_ASSIGNMENT (( #333 ) ) ;
#23 = AXIS2_PLACEMENT_3D ( 'NONE', #512, #822, #81 ) ;
#24 = EDGE_CURVE ( 'NONE', #856, #856, #829, .T. ) ;
#25 = CARTESIAN_POINT ( 'NONE',  ( 1309.166250538994300, -148.9877056218582800, 531.5138001482580400 ) ) ;
#26 = FACE_OUTER_BOUND ( 'NONE', #237, .T. ) ;
#27 = MECHANICAL_DESIGN_GEOMETRIC_PRESENTATION_REPRESENTATION (  '', ( #370 ), #507 ) ;
#28 = CARTESIAN_POINT ( 'NONE',  ( 1413.635516027786300, -67.68334904447165500, 547.8524890583672700 ) ) ;
#29 = AXIS2_PLACEMENT_3D ( 'NONE', #504, #727, #143 ) ;
#30 = PLANE ( 'NONE',  #444 ) ;
#31 = CARTESIAN_POINT ( 'NONE',  ( 1425.395908669310300, -34.79530689031869900, 550.9076482276151400 ) ) ;
#32 = DIRECTION ( 'NONE',  ( 0.0000000000000000000, 0.0000000000000000000, 1.000000000000000000 ) ) ;
#33 = DIRECTION ( 'NONE',  ( -0.0000000000000000000, -1.000000000000000000, -0.0000000000000000000 ) ) ;
#34 = EDGE_LOOP ( 'NONE', ( #80 ) ) ;
#35 = FACE_BOUND ( 'NONE', #250, .T. ) ;
#36 = FILL_AREA_STYLE ('',( #465 ) ) ;
#37 = STYLED_ITEM ( 'NONE', ( #528 ), #600 ) ;
#38 = CARTESIAN_POINT ( 'NONE',  ( 1277.000000000000200, 0.0000000000000000000, 825.0000000000000000 ) ) ;
#39 = CARTESIAN_POINT ( 'NONE',  ( 1400.844808478310600, 88.85082559215050000, 544.8060836419757600 ) ) ;
#40 = AXIS2_PLACEMENT_3D ( 'NONE', #221, #800, #286 ) ;
#41 = VERTEX_POINT ( 'NONE', #206 ) ;
#42 = DIRECTION ( 'NONE',  ( -0.0000000000000000000, 0.0000000000000000000, -1.000000000000000000 ) ) ;
#43 =( NAMED_UNIT ( * ) PLANE_ANGLE_UNIT ( ) SI_UNIT ( $, .RADIAN. ) );
#44 = CARTESIAN_POINT ( 'NONE',  ( 1316.672559873808500, 147.1672433214573100, 532.0208742686985500 ) ) ;
#45 = STYLED_ITEM ( 'NONE', ( #797 ), #185 ) ;
#46 = EDGE_LOOP ( 'NONE', ( #120 ) ) ;
#47 = CONICAL_SURFACE ( 'NONE', #402, 550.1933331500486000, 1.254643374716930300 ) ;
#48 = PRODUCT_RELATED_PRODUCT_CATEGORY ( 'part', '', ( #115 ) ) ;
#49 = CARTESIAN_POINT ( 'NONE',  ( 1429.400000000000300, -5.637851296924623100E-015, 551.9999999999998900 ) ) ;
#50 = PRESENTATION_STYLE_ASSIGNMENT (( #577 ) ) ;
#51 = CARTESIAN_POINT ( 'NONE',  ( 1137.230569173719500, 60.79849551969947900, 548.6464084640368800 ) ) ;
#52 = AXIS2_PLACEMENT_3D ( 'NONE', #543, #112, #852 ) ;
#53 = DIRECTION ( 'NONE',  ( -1.000000000000000000, -0.0000000000000000000, -0.0000000000000000000 ) ) ;
#54 = CARTESIAN_POINT ( 'NONE',  ( 1125.919272902714700, 20.04900697923195100, 551.6372030095197900 ) ) ;
#55 = UNCERTAINTY_MEASURE_WITH_UNIT (LENGTH_MEASURE( 1.000000000000000100E-005 ), #186, 'distance_accuracy_value', 'NONE');
#56 = CARTESIAN_POINT ( 'NONE',  ( 2428.441586779823000, -534.1352113341660000, -139.3805111283942900 ) ) ;
#57 = CARTESIAN_POINT ( 'NONE',  ( 2577.000000000000000, -513.0799547828778500, -203.6000000000001100 ) ) ;
#58 = CARTESIAN_POINT ( 'NONE',  ( 1134.365239872295900, 53.90592367409896500, 549.3810205172970900 ) ) ;
#59 = CARTESIAN_POINT ( 'NONE',  ( 2759.412507637978300, -544.5397501956119900, 90.49741048139263500 ) ) ;
#60 = CARTESIAN_POINT ( 'NONE',  ( 2435.446482031890400, -532.2437260421887700, -146.3777777057695500 ) ) ;
#61 = CARTESIAN_POINT ( 'NONE',  ( 2744.236908174222200, -539.6465399267104900, -116.1359051015530200 ) ) ;
#62 = CARTESIAN_POINT ( 'NONE',  ( 2772.642845725715200, -549.1147277898373900, -56.38855373893673600 ) ) ;
#63 = PRESENTATION_STYLE_ASSIGNMENT (( #113 ) ) ;
#64 = CARTESIAN_POINT ( 'NONE',  ( 2730.043947705050400, -535.4039866273922100, -134.4397373621017400 ) ) ;
#65 = CARTESIAN_POINT ( 'NONE',  ( 2725.509612422424200, -534.1362647408365100, 139.3158444520667600 ) ) ;
#66 = AXIS2_PLACEMENT_3D ( 'NONE', #106, #533, #774 ) ;
#67 = AXIS2_PLACEMENT_3D ( 'NONE', #701, #53, #269 ) ;
#68 = ORIENTED_EDGE ( 'NONE', *, *, #539, .F. ) ;
#69 = CIRCLE ( 'NONE', #248, 135.0000000000000000 ) ;
#70 = CARTESIAN_POINT ( 'NONE',  ( 2667.402511954658600, -520.9513055403082300, 182.5510070563445000 ) ) ;
#71 = CARTESIAN_POINT ( 'NONE',  ( 2391.651218044578400, -545.5267566996518600, -84.51585449878489000 ) ) ;
#72 = COLOUR_RGB ( '',0.7921568627450980000, 0.8196078431372548800, 0.9333333333333333500 ) ;
#73 = VERTEX_POINT ( 'NONE', #580 ) ;
#74 =( NAMED_UNIT ( * ) PLANE_ANGLE_UNIT ( ) SI_UNIT ( $, .RADIAN. ) );
#75 = SURFACE_STYLE_FILL_AREA ( #160 ) ;
#76 = CARTESIAN_POINT ( 'NONE',  ( 2396.086964433046000, -544.0389289930035400, 93.45854458767220800 ) ) ;
#77 = CARTESIAN_POINT ( 'NONE',  ( 1490.958792141806500, 0.0000000000000000000, 135.0000000000000000 ) ) ;
#78 = CARTESIAN_POINT ( 'NONE',  ( 2373.401608816197000, -551.9994066033160600, -6.757891967277711100 ) ) ;
#79 = CARTESIAN_POINT ( 'NONE',  ( 1162.390440378684400, 100.5726088547433800, 542.7745413549457700 ) ) ;
#80 = ORIENTED_EDGE ( 'NONE', *, *, #24, .F. ) ;
#81 = DIRECTION ( 'NONE',  ( 0.0000000000000000000, -0.0000000000000000000, 1.000000000000000000 ) ) ;
#82 = CARTESIAN_POINT ( 'NONE',  ( 2474.773194056585000, -523.1327977666187500, 176.2022756695782000 ) ) ;
#83 = CARTESIAN_POINT ( 'NONE',  ( 1227.810453109384500, -144.2650752663828900, 532.8154994198641800 ) ) ;
#84 = SURFACE_STYLE_USAGE ( .BOTH. , #225 ) ;
#85 = CARTESIAN_POINT ( 'NONE',  ( 2442.648984665984200, -530.3553707109804200, 153.1217184242140700 ) ) ;
#86 = CARTESIAN_POINT ( 'NONE',  ( 1220.762688383657400, -141.6499222828351200, 533.5161851737551600 ) ) ;
#87 = UNCERTAINTY_MEASURE_WITH_UNIT (LENGTH_MEASURE( 1.000000000000000100E-005 ), #299, 'distance_accuracy_value', 'NONE');
#88 = STYLED_ITEM ( 'NONE', ( #404 ), #905 ) ;
#89 = PRESENTATION_LAYER_ASSIGNMENT (  '', '', ( #592 ) ) ;
#90 = CARTESIAN_POINT ( 'NONE',  ( 1224.277652393238700, -142.9953842928562200, 533.1571177072025900 ) ) ;
#91 =( NAMED_UNIT ( * ) SI_UNIT ( $, .STERADIAN. ) SOLID_ANGLE_UNIT ( ) );
#92 = ADVANCED_FACE ( 'NONE', ( #724, #407 ), #241, .F. ) ;
#93 = CARTESIAN_POINT ( 'NONE',  ( 1153.112335403047800, -88.89487555751127000, 544.8111291334562300 ) ) ;
#94 = CARTESIAN_POINT ( 'NONE',  ( 1200.544278952940900, -131.9276430299118500, 536.0083502181355500 ) ) ;
#95 = PRESENTATION_LAYER_ASSIGNMENT (  '', '', ( #45 ) ) ;
#96 = DIRECTION ( 'NONE',  ( 0.0000000000000000000, 0.0000000000000000000, 1.000000000000000000 ) ) ;
#97 = VERTEX_POINT ( 'NONE', #658 ) ;
#98 =( NAMED_UNIT ( * ) PLANE_ANGLE_UNIT ( ) SI_UNIT ( $, .RADIAN. ) );
#99 = SURFACE_SIDE_STYLE ('',( #226 ) ) ;
#100 = CARTESIAN_POINT ( 'NONE',  ( 1397.802764370244400, -92.94474815428937100, 544.1226211131859100 ) ) ;
#101 = DIRECTION ( 'NONE',  ( 0.0000000000000000000, 0.0000000000000000000, 1.000000000000000000 ) ) ;
#102 = ORIENTED_EDGE ( 'NONE', *, *, #276, .F. ) ;
#103 = MECHANICAL_DESIGN_GEOMETRIC_PRESENTATION_REPRESENTATION (  '', ( #777 ), #916 ) ;
#104 = CARTESIAN_POINT ( 'NONE',  ( 1427.419922966493200, -24.99279198929057300, 551.4558010867615400 ) ) ;
#105 = FILL_AREA_STYLE ('',( #179 ) ) ;
#106 = CARTESIAN_POINT ( 'NONE',  ( 1000.000000000000000, 0.0000000000000000000, 0.0000000000000000000 ) ) ;
#107 = DIRECTION ( 'NONE',  ( 0.0000000000000000000, 0.0000000000000000000, 1.000000000000000000 ) ) ;
#108 = PRESENTATION_STYLE_ASSIGNMENT (( #645 ) ) ;
#109 = CARTESIAN_POINT ( 'NONE',  ( 1429.148529181623600, -10.08262612162414000, 551.9304198960015800 ) ) ;
#110 = B_SPLINE_CURVE_WITH_KNOTS ( 'NONE', 3,
 ( #57, #696, #860, #556, #636, #195, #275, #352, #869, #476, #546, #778, #857, #483, #129, #561, #641, #495, #644, #799, #357, #492, #207, #204, #133, #947, #64, #565, #714, #942, #874, #61, #281, #428, #493, #351, #876, #419, #202, #130, #62, #199, #273, #365, #567, #430, #949, #497, #209, #503, #796, #708, #558, #712, #868, #881, #720, #803, #290, #283, #135, #788, #127, #939, #646, #59, #278, #725, #955, #562, #639, #205, #499, #716, #358, #65, #490, #945, #287, #433, #354, #872, #806, #424, #362, #642, #953, #70, #436, #572, #138, #634, #651, #211, #809, #886, #554, #312, #438, #230, #665, #15, #575, #18, #505, #653, #823, #900, #11, #308, #297, #819, #142, #380, #227, #517, #214, #728, #826, #82, #376, #813, #894, #85, #741, #440, #3, #146, #662, #6, #384, #733, #513, #369, #889, #76, #595, #747, #669, #446, #578, #157, #903, #586, #897, #373, #655, #452, #218, #442, #300, #815, #510, #78, #583, #150, #222, #737, #304, #607, #882, #555, #722, #421, #274, #71, #941, #288, #792, #203, #569, #878, #643, #140, #726, #946, #56, #60, #491, #501, #573, #136, #713, #560, #212, #294, #811, #807, #280, #798, #888, #1, #649, #951, #200, #356, #366, #435, #873, #132, #124, #427, #954, #432 ),
 .UNSPECIFIED., .T., .F.,
 ( 4, 2, 2, 2, 2, 2, 2, 2, 2, 2, 2, 2, 2, 2, 2, 2, 2, 2, 2, 2, 2, 2, 2, 2, 2, 2, 2, 2, 2, 2, 2, 2, 2, 2, 2, 2, 2, 2, 2, 2, 2, 2, 2, 2, 2, 2, 2, 2, 2, 2, 2, 2, 2, 2, 2, 2, 2, 2, 2, 2, 2, 2, 2, 2, 2, 2, 2, 2, 2, 2, 2, 2, 2, 2, 2, 2, 2, 2, 2, 2, 2, 2, 2, 2, 2, 2, 2, 2, 2, 2, 2, 2, 2, 2, 2, 2, 2, 2, 2, 2, 2, 4 ),
 ( 0.0000000000000000000, 0.02006789988484539500, 0.04013579976969079000, 0.06020369965453618200, 0.06522067462574787600, 0.07023764959695955000, 0.08027159953938292600, 0.1003394994242285000, 0.1204073993090740700, 0.1304413492514968900, 0.1354583242227077300, 0.1404752991939185700, 0.1605431990787619700, 0.1806110989636053900, 0.1906450489060266300, 0.1956620238772368800, 0.2006789988484471400, 0.2207468987332864300, 0.2408147986181257400, 0.2608826985029650300, 0.2658996734741749800, 0.2709166484453848800, 0.2809505983878046700, 0.3010184982726443200, 0.3210863981574839700, 0.3311203480999038200, 0.3361373230711137100, 0.3411542980423236100, 0.3612221979271634200, 0.3812900978120031300, 0.4013579976968429400, 0.4063749726680527800, 0.4113919476392626800, 0.4214258975816816400, 0.4414937974665199000, 0.4615616973513580500, 0.4665786723225681700, 0.4715956472937781800, 0.4816295972361981900, 0.5016974971210390600, 0.5217653970058799800, 0.5317993469483005600, 0.5368163219195106800, 0.5418332968907209100, 0.5619011967755605000, 0.5819690966604002000, 0.6020369965452399000, 0.6070539715164491300, 0.6120709464876584700, 0.6221048964300770500, 0.6421727963149153100, 0.6622406961997537900, 0.6722746461421722500, 0.6772916211133814800, 0.6823085960845906000, 0.7023764959694301900, 0.7224443958542697800, 0.7324783457966889100, 0.7374953207678980300, 0.7425122957391070400, 0.7625801956239444100, 0.7826480955087817800, 0.8027159953936192600, 0.8077329703648290500, 0.8127499453360388400, 0.8227838952784576300, 0.8428517951632957800, 0.8629196950481340400, 0.8729536449905532800, 0.8779706199617630700, 0.8829875949329727400, 0.9030554948178118900, 0.9231233947026509200, 0.9431912945874900700, 0.9482082695586998600, 0.9532252445299097500, 0.9632591944723292200, 0.9833270943571683600, 1.003394994242007500, 1.008411969213217200, 1.013428944184426900, 1.023462894126846200, 1.043530794011684900, 1.063598693896523600, 1.073632643838943000, 1.078649618810152600, 1.083666593781362100, 1.103734493666201000, 1.123802393551039900, 1.133836343493458600, 1.138853318464668300, 1.143870293435877800, 1.163938193320713600, 1.184006093205549400, 1.204073993090385200, 1.209090968061594200, 1.214107943032803000, 1.224141892975221000, 1.244209792860058000, 1.264277692744895100, 1.274311642687314400, 1.284345592629733400 ),
 .UNSPECIFIED. ) ;
#111 = CARTESIAN_POINT ( 'NONE',  ( 1415.794763713059900, 63.14021434386798900, 548.3965655315166700 ) ) ;
#112 = DIRECTION ( 'NONE',  ( -1.000000000000000000, -0.0000000000000000000, -0.0000000000000000000 ) ) ;
#113 = SURFACE_STYLE_USAGE ( .BOTH. , #924 ) ;
#114 = CARTESIAN_POINT ( 'NONE',  ( 1311.778221880820400, 148.3840337679062000, 531.6824817551826100 ) ) ;
#115 = PRODUCT ( 'RPBC_suction_filter_first_stage', 'RPBC_suction_filter_first_stage', '', ( #915 ) ) ;
#116 = CARTESIAN_POINT ( 'NONE',  ( 1309.321131475836900, 148.9385465705515500, 531.5274143711094400 ) ) ;
#117 = PRESENTATION_LAYER_ASSIGNMENT (  '', '', ( #37 ) ) ;
#118 = CARTESIAN_POINT ( 'NONE',  ( 1388.234527557428200, 104.2932469944453100, 542.0697537087045200 ) ) ;
#119 =( GEOMETRIC_REPRESENTATION_CONTEXT ( 3 ) GLOBAL_UNCERTAINTY_ASSIGNED_CONTEXT ( ( #254 ) ) GLOBAL_UNIT_ASSIGNED_CONTEXT ( ( #289, #732, #952 ) ) REPRESENTATION_CONTEXT ( 'NONE', 'WORKASPACE' ) );
#120 = ORIENTED_EDGE ( 'NONE', *, *, #472, .T. ) ;
#121 = CARTESIAN_POINT ( 'NONE',  ( 1650.039088398413000, 0.0000000000000000000, 0.0000000000000000000 ) ) ;
#122 = CARTESIAN_POINT ( 'NONE',  ( 1132.685563989903800, 49.23206075249826300, 549.8208260357033600 ) ) ;
#123 = CARTESIAN_POINT ( 'NONE',  ( 1127.085389341793400, 27.52538339937712300, 551.3187874493271500 ) ) ;
#124 = CARTESIAN_POINT ( 'NONE',  ( 2563.496807500419400, -513.2465998340087500, -203.1796256897399100 ) ) ;
#125 = EDGE_CURVE ( 'NONE', #721, #721, #750, .T. ) ;
#126 = CARTESIAN_POINT ( 'NONE',  ( 1126.651378614154300, 25.04855719523610300, 551.4370487447258700 ) ) ;
#127 = CARTESIAN_POINT ( 'NONE',  ( 2763.629449374930600, -545.9681121265299500, 81.39544073065830800 ) ) ;
#128 = AXIS2_PLACEMENT_3D ( 'NONE', #529, #331, #96 ) ;
#129 = CARTESIAN_POINT ( 'NONE',  ( 2667.502671428991600, -520.9692907244357200, -182.4991443781511000 ) ) ;
#130 = CARTESIAN_POINT ( 'NONE',  ( 2772.171150400141900, -548.9468168006250200, -57.99990513891543700 ) ) ;
#131 = ORIENTED_EDGE ( 'NONE', *, *, #776, .T. ) ;
#132 = CARTESIAN_POINT ( 'NONE',  ( 2560.151192568714600, -513.3457495200293600, -202.9292203511232900 ) ) ;
#133 = CARTESIAN_POINT ( 'NONE',  ( 2716.322120132879300, -531.6405228273133600, -148.6121211120025100 ) ) ;
#134 =( NAMED_UNIT ( * ) SI_UNIT ( $, .STERADIAN. ) SOLID_ANGLE_UNIT ( ) );
#135 = CARTESIAN_POINT ( 'NONE',  ( 2767.527001764079200, -547.3076703768990700, 72.09443696216774800 ) ) ;
#136 = CARTESIAN_POINT ( 'NONE',  ( 2445.293444050939300, -529.7132894140826200, -155.2710914214887900 ) ) ;
#137 =( NAMED_UNIT ( * ) PLANE_ANGLE_UNIT ( ) SI_UNIT ( $, .RADIAN. ) );
#138 = CARTESIAN_POINT ( 'NONE',  ( 2642.933498063770900, -517.2604679706919300, 192.7431714525373500 ) ) ;
#139 = FACE_OUTER_BOUND ( 'NONE', #486, .T. ) ;
#140 = CARTESIAN_POINT ( 'NONE',  ( 2411.689837044066300, -539.0418415866347500, -119.0364001057304600 ) ) ;
#141 = PRESENTATION_STYLE_ASSIGNMENT (( #2 ) ) ;
#142 = CARTESIAN_POINT ( 'NONE',  ( 2504.899412041170800, -518.0855146163525000, 190.5224612322596400 ) ) ;
#143 = DIRECTION ( 'NONE',  ( 0.0000000000000000000, 1.000000000000000000, 0.0000000000000000000 ) ) ;
#144 = ORIENTED_EDGE ( 'NONE', *, *, #276, .T. ) ;
#145 = TOROIDAL_SURFACE ( 'NONE', #197, 359.4029017857137700, 192.5970982142863200 ) ;
#146 = CARTESIAN_POINT ( 'NONE',  ( 2428.404020565519700, -534.1634505178105900, 139.1939547151390000 ) ) ;
#147 = CARTESIAN_POINT ( 'NONE',  ( 1237.432993629572800, 147.2582312966453300, 531.9974310764797600 ) ) ;
#148 = SURFACE_SIDE_STYLE ('',( #425 ) ) ;
#149 = DIRECTION ( 'NONE',  ( 0.0000000000000000000, 0.0000000000000000000, 1.000000000000000000 ) ) ;
#150 = CARTESIAN_POINT ( 'NONE',  ( 2375.055082093230800, -551.3913423592305200, -26.75775243465557900 ) ) ;
#151 = CARTESIAN_POINT ( 'NONE',  ( 1227.908593637380600, 144.3626284710620400, 532.7904699387144100 ) ) ;
#152 =( GEOMETRIC_REPRESENTATION_CONTEXT ( 3 ) GLOBAL_UNCERTAINTY_ASSIGNED_CONTEXT ( ( #938 ) ) GLOBAL_UNIT_ASSIGNED_CONTEXT ( ( #535, #247, #468 ) ) REPRESENTATION_CONTEXT ( 'NONE', 'WORKASPACE' ) );
#153 = DIRECTION ( 'NONE',  ( 0.0000000000000000000, 0.0000000000000000000, 1.000000000000000000 ) ) ;
#154 = FACE_OUTER_BOUND ( 'NONE', #703, .T. ) ;
#155 = CARTESIAN_POINT ( 'NONE',  ( 1365.813335291474200, -123.8528076950954500, 537.9266025596186900 ) ) ;
#156 = CARTESIAN_POINT ( 'NONE',  ( 0.0000000000000000000, 0.0000000000000000000, 0.0000000000000000000 ) ) ;
#157 = CARTESIAN_POINT ( 'NONE',  ( 2386.474467992849900, -547.3072233632592500, 72.09483138315759700 ) ) ;
#158 = CARTESIAN_POINT ( 'NONE',  ( 1274.424957491512000, -152.3989538647619800, 530.5455294902425300 ) ) ;
#159 = EDGE_LOOP ( 'NONE', ( #344 ) ) ;
#160 = FILL_AREA_STYLE ('',( #519 ) ) ;
#161 = CARTESIAN_POINT ( 'NONE',  ( 1256.848464328388200, -151.1451690738210500, 530.9043297620296500 ) ) ;
#162 = SURFACE_STYLE_FILL_AREA ( #233 ) ;
#163 = CARTESIAN_POINT ( 'NONE',  ( 1178.340492584717100, -116.1620521963026800, 539.6397638919070200 ) ) ;
#164 = MECHANICAL_DESIGN_GEOMETRIC_PRESENTATION_REPRESENTATION (  '', ( #710 ), #500 ) ;
#165 = SURFACE_STYLE_FILL_AREA ( #437 ) ;
#166 = DIRECTION ( 'NONE',  ( 0.0000000000000000000, 0.0000000000000000000, 1.000000000000000000 ) ) ;
#167 = FILL_AREA_STYLE ('',( #323 ) ) ;
#168 = APPLICATION_CONTEXT ( 'automotive_design' ) ;
#169 =( GEOMETRIC_REPRESENTATION_CONTEXT ( 3 ) GLOBAL_UNCERTAINTY_ASSIGNED_CONTEXT ( ( #871 ) ) GLOBAL_UNIT_ASSIGNED_CONTEXT ( ( #926, #43, #549 ) ) REPRESENTATION_CONTEXT ( 'NONE', 'WORKASPACE' ) );
#170 = CARTESIAN_POINT ( 'NONE',  ( 2577.000000000000000, 500000.0000000000600, 0.0000000000000000000 ) ) ;
#171 = EDGE_LOOP ( 'NONE', ( #131 ) ) ;
#172 = SURFACE_SIDE_STYLE ('',( #303 ) ) ;
#173 = FILL_AREA_STYLE_COLOUR ( '', #610 ) ;
#174 = CARTESIAN_POINT ( 'NONE',  ( 1424.476248438762700, -38.44594802152575900, 550.6608726294654200 ) ) ;
#175 = FACE_OUTER_BOUND ( 'NONE', #590, .T. ) ;
#176 =( LENGTH_UNIT ( ) NAMED_UNIT ( * ) SI_UNIT ( .MILLI., .METRE. ) );
#177 = CARTESIAN_POINT ( 'NONE',  ( 1421.285872119761100, -49.32310930921853800, 549.8132750599538700 ) ) ;
#178 = UNCERTAINTY_MEASURE_WITH_UNIT (LENGTH_MEASURE( 1.000000000000000100E-005 ), #176, 'distance_accuracy_value', 'NONE');
#179 = FILL_AREA_STYLE_COLOUR ( '', #345 ) ;
#180 = EDGE_LOOP ( 'NONE', ( #302 ) ) ;
#181 = MECHANICAL_DESIGN_GEOMETRIC_PRESENTATION_REPRESENTATION (  '', ( #37 ), #761 ) ;
#182 = FILL_AREA_STYLE_COLOUR ( '', #332 ) ;
#183 = CARTESIAN_POINT ( 'NONE',  ( 1406.427814974138500, 80.61588592248544700, 546.0975801707444400 ) ) ;
#184 = EDGE_CURVE ( 'NONE', #41, #41, #359, .T. ) ;
#185 = MANIFOLD_SOLID_BREP ( 'Ressalto-extrusão2', #835 ) ;
#186 =( LENGTH_UNIT ( ) NAMED_UNIT ( * ) SI_UNIT ( .MILLI., .METRE. ) );
#187 = VERTEX_POINT ( 'NONE', #360 ) ;
#188 = CARTESIAN_POINT ( 'NONE',  ( 1360.745098959046100, 127.3345385409776200, 537.1130486290909400 ) ) ;
#189 = MECHANICAL_DESIGN_GEOMETRIC_PRESENTATION_REPRESENTATION (  '', ( #45 ), #431 ) ;
#190 = CARTESIAN_POINT ( 'NONE',  ( 2577.000000000000000, -1072.000000000000000, 0.0000000000000000000 ) ) ;
#191 = CARTESIAN_POINT ( 'NONE',  ( 1424.259986203382400, 39.56550592564052900, 550.6012713707031000 ) ) ;
#192 = ORIENTED_EDGE ( 'NONE', *, *, #637, .T. ) ;
#193 = FILL_AREA_STYLE_COLOUR ( '', #568 ) ;
#194 = CARTESIAN_POINT ( 'NONE',  ( 1147.646051941949700, 80.73334697617720200, 546.0801056073033800 ) ) ;
#195 = CARTESIAN_POINT ( 'NONE',  ( 2623.544444588062600, -515.1454641952284400, -198.3207734057377500 ) ) ;
#196 = CARTESIAN_POINT ( 'NONE',  ( 1188.149526212320800, 123.9187203069734300, 537.9183438982207700 ) ) ;
#197 = AXIS2_PLACEMENT_3D ( 'NONE', #538, #838, #396 ) ;
#198 = DIRECTION ( 'NONE',  ( 0.0000000000000000000, 0.0000000000000000000, 1.000000000000000000 ) ) ;
#199 = CARTESIAN_POINT ( 'NONE',  ( 2773.548222295287400, -549.4379536212336500, -53.14685681192640500 ) ) ;
#200 = CARTESIAN_POINT ( 'NONE',  ( 2514.475923530975300, -516.8657626145335400, -193.7907799711365700 ) ) ;
#201 = CARTESIAN_POINT ( 'NONE',  ( 1126.430022500969900, -23.58005455012951800, 551.4975310673222600 ) ) ;
#202 = CARTESIAN_POINT ( 'NONE',  ( 2769.718874764055700, -548.0768562188321800, -66.00989640862108800 ) ) ;
#203 = CARTESIAN_POINT ( 'NONE',  ( 2403.475724747429500, -541.6281432273540300, -106.5133125976481200 ) ) ;
#204 = CARTESIAN_POINT ( 'NONE',  ( 2711.442393800242400, -530.3783387385623200, -153.0427664299688200 ) ) ;
#205 = CARTESIAN_POINT ( 'NONE',  ( 2733.215775072974800, -536.3332846049756900, 130.5846388765008300 ) ) ;
#206 = CARTESIAN_POINT ( 'NONE',  ( 3249.463712603655500, 0.0000000000000000000, 445.1345183313447400 ) ) ;
#207 = CARTESIAN_POINT ( 'NONE',  ( 2705.046726305240100, -528.8151526545075300, -158.3026807510403800 ) ) ;
#208 = FACE_OUTER_BOUND ( 'NONE', #647, .T. ) ;
#209 = CARTESIAN_POINT ( 'NONE',  ( 2780.595484879778300, -551.9983346407578900, -6.845033126896443500 ) ) ;
#210 = DIRECTION ( 'NONE',  ( 0.0000000000000000000, 0.0000000000000000000, 1.000000000000000000 ) ) ;
#211 = CARTESIAN_POINT ( 'NONE',  ( 2615.484047697270400, -514.5185626609771800, 199.9369288719320000 ) ) ;
#212 = CARTESIAN_POINT ( 'NONE',  ( 2458.317083898915400, -526.6004244560936100, -165.5621934701410400 ) ) ;
#213 =( LENGTH_UNIT ( ) NAMED_UNIT ( * ) SI_UNIT ( .MILLI., .METRE. ) );
#214 = CARTESIAN_POINT ( 'NONE',  ( 2486.602655847154000, -520.9803777823547100, 182.4392700544401600 ) ) ;
#215 = MECHANICAL_DESIGN_GEOMETRIC_PRESENTATION_REPRESENTATION (  '', ( #324 ), #169 ) ;
#216 = MECHANICAL_DESIGN_GEOMETRIC_PRESENTATION_REPRESENTATION (  '', ( #398 ), #326 ) ;
#217 = FILL_AREA_STYLE_COLOUR ( '', #526 ) ;
#218 = CARTESIAN_POINT ( 'NONE',  ( 2374.085431696009900, -551.7475404892466000, 16.77795865508276000 ) ) ;
#219 = CARTESIAN_POINT ( 'NONE',  ( 1153.164095012948100, 88.96620610219575600, 544.7993843846019200 ) ) ;
#220 = CARTESIAN_POINT ( 'NONE',  ( 1650.039088398413000, 0.0000000000000000000, 550.1933331500486000 ) ) ;
#221 = CARTESIAN_POINT ( 'NONE',  ( 1650.630094822395700, 0.0000000000000000000, 0.0000000000000000000 ) ) ;
#222 = CARTESIAN_POINT ( 'NONE',  ( 2376.043688099494800, -551.0289987425009000, -33.39047173399273300 ) ) ;
#223 = CARTESIAN_POINT ( 'NONE',  ( 1188.084886808658400, -123.8722318644964100, 537.9290541836006700 ) ) ;
#224 = UNCERTAINTY_MEASURE_WITH_UNIT (LENGTH_MEASURE( 1.000000000000000100E-005 ), #403, 'distance_accuracy_value', 'NONE');
#225 = SURFACE_SIDE_STYLE ('',( #162 ) ) ;
#226 = SURFACE_STYLE_FILL_AREA ( #36 ) ;
#227 = CARTESIAN_POINT ( 'NONE',  ( 2492.631942311618300, -519.9616878464079300, 185.3271619244805200 ) ) ;
#228 = CARTESIAN_POINT ( 'NONE',  ( 1296.881314853364800, -151.1798996234612700, 530.8944299121948200 ) ) ;
#229 = SURFACE_STYLE_USAGE ( .BOTH. , #740 ) ;
#230 = CARTESIAN_POINT ( 'NONE',  ( 2590.443754761203300, -513.2126172749424300, 203.2666197320531000 ) ) ;
#231 = CARTESIAN_POINT ( 'NONE',  ( 1391.524379847731600, -100.6710894805405900, 542.7564406789179000 ) ) ;
#232 = STYLED_ITEM ( 'NONE', ( #22 ), #597 ) ;
#233 = FILL_AREA_STYLE ('',( #451 ) ) ;
#234 = CARTESIAN_POINT ( 'NONE',  ( 1281.962054899713400, -152.4020536054210900, 530.5446390846605000 ) ) ;
#235 = CARTESIAN_POINT ( 'NONE',  ( 1381.201545519121700, -111.3203513617368100, 540.6703800630698400 ) ) ;
#236 = CARTESIAN_POINT ( 'NONE',  ( 1490.958792141806500, 0.0000000000000000000, 0.0000000000000000000 ) ) ;
#237 = EDGE_LOOP ( 'NONE', ( #532 ) ) ;
#238 = FACE_OUTER_BOUND ( 'NONE', #34, .T. ) ;
#239 = FILL_AREA_STYLE_COLOUR ( '', #582 ) ;
#240 = DIRECTION ( 'NONE',  ( -1.000000000000000000, -0.0000000000000000000, -0.0000000000000000000 ) ) ;
#241 = CONICAL_SURFACE ( 'NONE', #794, 550.1933331500486000, 0.6323059041560287200 ) ;
#242 =( GEOMETRIC_REPRESENTATION_CONTEXT ( 3 ) GLOBAL_UNCERTAINTY_ASSIGNED_CONTEXT ( ( #87 ) ) GLOBAL_UNIT_ASSIGNED_CONTEXT ( ( #299, #509, #134 ) ) REPRESENTATION_CONTEXT ( 'NONE', 'WORKASPACE' ) );
#243 = CARTESIAN_POINT ( 'NONE',  ( 1402.929011808969600, -85.84402484849715600, 545.2851557801607200 ) ) ;
#244 = DIRECTION ( 'NONE',  ( 0.0000000000000000000, 0.0000000000000000000, 1.000000000000000000 ) ) ;
#245 = PRESENTATION_STYLE_ASSIGNMENT (( #613 ) ) ;
#246 = SURFACE_SIDE_STYLE ('',( #764 ) ) ;
#247 =( NAMED_UNIT ( * ) PLANE_ANGLE_UNIT ( ) SI_UNIT ( $, .RADIAN. ) );
#248 = AXIS2_PLACEMENT_3D ( 'NONE', #236, #240, #107 ) ;
#249 = CARTESIAN_POINT ( 'NONE',  ( 1419.588981388647200, -54.02655876872317700, 549.3691290495580700 ) ) ;
#250 = EDGE_LOOP ( 'NONE', ( #548 ) ) ;
#251 = FILL_AREA_STYLE_COLOUR ( '', #327 ) ;
#252 =( NAMED_UNIT ( * ) SI_UNIT ( $, .STERADIAN. ) SOLID_ANGLE_UNIT ( ) );
#253 = CARTESIAN_POINT ( 'NONE',  ( 1429.400000000000500, 5.060516700713460400, 551.9999999999996600 ) ) ;
#254 = UNCERTAINTY_MEASURE_WITH_UNIT (LENGTH_MEASURE( 1.000000000000000100E-005 ), #289, 'distance_accuracy_value', 'NONE');
#255 = SPHERICAL_SURFACE ( 'NONE', #29, 919.9999999999998900 ) ;
#256 = VERTEX_POINT ( 'NONE', #220 ) ;
#257 =( NAMED_UNIT ( * ) SI_UNIT ( $, .STERADIAN. ) SOLID_ANGLE_UNIT ( ) );
#258 = CARTESIAN_POINT ( 'NONE',  ( 1326.262517669145400, 144.3050992148129400, 532.8060879734381400 ) ) ;
#259 = CYLINDRICAL_SURFACE ( 'NONE', #940, 552.0000000000000000 ) ;
#260 = SURFACE_SIDE_STYLE ('',( #919 ) ) ;
#261 = CARTESIAN_POINT ( 'NONE',  ( 1391.568235745262000, 100.6218703623523000, 542.7656583013844100 ) ) ;
#262 = EDGE_LOOP ( 'NONE', ( #410 ) ) ;
#263 = AXIS2_PLACEMENT_3D ( 'NONE', #190, #866, #198 ) ;
#264 = CIRCLE ( 'NONE', #8, 551.9999999999996600 ) ;
#265 = CARTESIAN_POINT ( 'NONE',  ( 1357.579931916952800, 129.3607387787911600, 536.6286187841022900 ) ) ;
#266 = CARTESIAN_POINT ( 'NONE',  ( 1395.527331525993800, 95.80494126682472700, 543.6233721686546700 ) ) ;
#267 = COLOUR_RGB ( '',0.7921568627450980000, 0.8196078431372548800, 0.9333333333333333500 ) ;
#268 = MECHANICAL_DESIGN_GEOMETRIC_PRESENTATION_REPRESENTATION (  '', ( #717 ), #488 ) ;
#269 = DIRECTION ( 'NONE',  ( 0.0000000000000000000, 0.0000000000000000000, 1.000000000000000000 ) ) ;
#270 = CARTESIAN_POINT ( 'NONE',  ( 1126.090824744501100, 21.30200380837256400, 551.5902345674841200 ) ) ;
#271 = EDGE_LOOP ( 'NONE', ( #540 ) ) ;
#272 = CARTESIAN_POINT ( 'NONE',  ( 1128.564084054870600, 34.89480961214823700, 550.9179256165559800 ) ) ;
#273 = CARTESIAN_POINT ( 'NONE',  ( 2773.982202306019600, -549.5933757786558500, -51.51532323055411000 ) ) ;
#274 = CARTESIAN_POINT ( 'NONE',  ( 2386.535582731003200, -547.2859997738860300, -72.25237981131894600 ) ) ;
#275 = CARTESIAN_POINT ( 'NONE',  ( 2630.029225165581000, -515.7736082513978300, -196.6875162456260900 ) ) ;
#276 = EDGE_CURVE ( 'NONE', #293, #293, #699, .T. ) ;
#277 = CARTESIAN_POINT ( 'NONE',  ( 1171.014901822577500, 109.5193183216959900, 541.0270718700136300 ) ) ;
#278 = CARTESIAN_POINT ( 'NONE',  ( 2757.909447042075500, -544.0377467670491600, 93.46516951596417800 ) ) ;
#279 = PRESENTATION_LAYER_ASSIGNMENT (  '', '', ( #88 ) ) ;
#280 = CARTESIAN_POINT ( 'NONE',  ( 2492.570165172250700, -519.9444258322546400, -185.3894936189829000 ) ) ;
#281 = CARTESIAN_POINT ( 'NONE',  ( 2745.184083515526300, -539.9408729443608800, -114.7600178396477400 ) ) ;
#282 =( NAMED_UNIT ( * ) SI_UNIT ( $, .STERADIAN. ) SOLID_ANGLE_UNIT ( ) );
#283 = CARTESIAN_POINT ( 'NONE',  ( 2769.789232169731800, -548.1016464369350800, 65.80101763795721600 ) ) ;
#284 = STYLED_ITEM ( 'NONE', ( #141 ), #314 ) ;
#285 = CARTESIAN_POINT ( 'NONE',  ( 104.5362873963445500, 0.0000000000000000000, 445.1345183313444000 ) ) ;
#286 = DIRECTION ( 'NONE',  ( 0.0000000000000000000, 0.0000000000000000000, 1.000000000000000000 ) ) ;
#287 = CARTESIAN_POINT ( 'NONE',  ( 2711.333902193328900, -530.3511628376812700, 153.1359435364781800 ) ) ;
#288 = CARTESIAN_POINT ( 'NONE',  ( 2399.233824363465800, -543.0005884687077500, -99.31381794781991300 ) ) ;
#289 =( LENGTH_UNIT ( ) NAMED_UNIT ( * ) SI_UNIT ( .MILLI., .METRE. ) );
#290 = CARTESIAN_POINT ( 'NONE',  ( 2773.683069827784500, -549.4833543822472800, 53.03990955783759600 ) ) ;
#291 = PRESENTATION_STYLE_ASSIGNMENT (( #812 ) ) ;
#292 = COLOUR_RGB ( '',0.7921568627450980000, 0.8196078431372548800, 0.9333333333333333500 ) ;
#293 = VERTEX_POINT ( 'NONE', #718 ) ;
#294 = CARTESIAN_POINT ( 'NONE',  ( 2469.283027884627200, -524.2378453953737100, -172.8974505283362400 ) ) ;
#295 = SURFACE_SIDE_STYLE ('',( #388 ) ) ;
#296 = COLOUR_RGB ( '',0.7921568627450980000, 0.8196078431372548800, 0.9333333333333333500 ) ;
#297 = CARTESIAN_POINT ( 'NONE',  ( 2523.900275338528000, -515.7815114611765900, 196.6666135024231900 ) ) ;
#298 = CARTESIAN_POINT ( 'NONE',  ( 1429.400000000000300, 0.0000000000000000000, 825.0000000000000000 ) ) ;
#299 =( LENGTH_UNIT ( ) NAMED_UNIT ( * ) SI_UNIT ( .MILLI., .METRE. ) );
#300 = CARTESIAN_POINT ( 'NONE',  ( 2373.730520764440800, -551.8781706339668700, 11.71839838062176200 ) ) ;
#301 = CARTESIAN_POINT ( 'NONE',  ( 1139.850506252496600, 66.46305594501879500, 547.9853599989444300 ) ) ;
#302 = ORIENTED_EDGE ( 'NONE', *, *, #673, .T. ) ;
#303 = SURFACE_STYLE_FILL_AREA ( #105 ) ;
#304 = CARTESIAN_POINT ( 'NONE',  ( 2378.050257016691400, -550.3016619511970500, -43.29915039691883300 ) ) ;
#305 = CARTESIAN_POINT ( 'NONE',  ( 1143.815536400672300, -74.12104215512594900, 547.0055112572839600 ) ) ;
#306 = PRESENTATION_LAYER_ASSIGNMENT (  '', '', ( #370 ) ) ;
#307 =( NAMED_UNIT ( * ) SI_UNIT ( $, .STERADIAN. ) SOLID_ANGLE_UNIT ( ) );
#308 = CARTESIAN_POINT ( 'NONE',  ( 2530.383919027026400, -515.1512303338802200, 198.3058849639523700 ) ) ;
#309 = CARTESIAN_POINT ( 'NONE',  ( 1175.510911899952800, -113.6982349593368200, 540.1642790088006900 ) ) ;
#310 = SURFACE_STYLE_FILL_AREA ( #934 ) ;
#311 =( NAMED_UNIT ( * ) PLANE_ANGLE_UNIT ( ) SI_UNIT ( $, .RADIAN. ) );
#312 = CARTESIAN_POINT ( 'NONE',  ( 2603.807761243328500, -513.7689930646581600, 201.8556668608826500 ) ) ;
#313 = CARTESIAN_POINT ( 'NONE',  ( 1318.905961805757700, -146.5306684811105800, 532.1962841980802100 ) ) ;
#314 = ADVANCED_FACE ( 'NONE', ( #570, #545 ), #884, .T. ) ;
#315 =( NAMED_UNIT ( * ) PLANE_ANGLE_UNIT ( ) SI_UNIT ( $, .RADIAN. ) );
#316 = CARTESIAN_POINT ( 'NONE',  ( 1148.966562943404800, -82.70049625239703100, 545.7737573863566900 ) ) ;
#317 = PRESENTATION_STYLE_ASSIGNMENT (( #611 ) ) ;
#318 = CARTESIAN_POINT ( 'NONE',  ( 1209.287778072990700, -136.6215037172443100, 534.8312062894552800 ) ) ;
#319 = PRODUCT_DEFINITION_FORMATION_WITH_SPECIFIED_SOURCE ( 'ANY', '', #115, .NOT_KNOWN. ) ;
#320 = CARTESIAN_POINT ( 'NONE',  ( 0.0000000000000000000, 0.0000000000000000000, 0.0000000000000000000 ) ) ;
#321 = CIRCLE ( 'NONE', #426, 552.0000000000000000 ) ;
#322 = CARTESIAN_POINT ( 'NONE',  ( 1429.400000000000300, -5.637851296924623100E-015, 551.9999999999998900 ) ) ;
#323 = FILL_AREA_STYLE_COLOUR ( '', #715 ) ;
#324 = STYLED_ITEM ( 'NONE', ( #63 ), #524 ) ;
#325 = DIRECTION ( 'NONE',  ( 0.0000000000000000000, 0.0000000000000000000, -1.000000000000000000 ) ) ;
#326 =( GEOMETRIC_REPRESENTATION_CONTEXT ( 3 ) GLOBAL_UNCERTAINTY_ASSIGNED_CONTEXT ( ( #20 ) ) GLOBAL_UNIT_ASSIGNED_CONTEXT ( ( #723, #137, #650 ) ) REPRESENTATION_CONTEXT ( 'NONE', 'WORKASPACE' ) );
#327 = COLOUR_RGB ( '',0.7921568627450980000, 0.8196078431372548800, 0.9333333333333333500 ) ;
#328 = SURFACE_STYLE_USAGE ( .BOTH. , #246 ) ;
#329 = CARTESIAN_POINT ( 'NONE',  ( 1428.158510360791300, -20.04841707333512700, 551.6583260759673500 ) ) ;
#330 = AXIS2_PLACEMENT_3D ( 'NONE', #320, #841, #244 ) ;
#331 = DIRECTION ( 'NONE',  ( -1.000000000000000000, -0.0000000000000000000, -0.0000000000000000000 ) ) ;
#332 = COLOUR_RGB ( '',0.7921568627450980000, 0.8196078431372548800, 0.9333333333333333500 ) ;
#333 = SURFACE_STYLE_USAGE ( .BOTH. , #394 ) ;
#334 = AXIS2_PLACEMENT_3D ( 'NONE', #38, #166, #684 ) ;
#335 = CARTESIAN_POINT ( 'NONE',  ( 1421.261743847090700, 49.15173396017949900, 549.8086437728108000 ) ) ;
#336 = SPHERICAL_SURFACE ( 'NONE', #773, 1000.000000000000000 ) ;
#337 = SURFACE_STYLE_USAGE ( .BOTH. , #260 ) ;
#338 = CARTESIAN_POINT ( 'NONE',  ( 1359.693468773492200, 128.0199843280057600, 536.9500524706045300 ) ) ;
#339 = PRESENTATION_STYLE_ASSIGNMENT (( #84 ) ) ;
#340 = CARTESIAN_POINT ( 'NONE',  ( 1319.089461497827200, 146.4939813011029600, 532.2068072683688300 ) ) ;
#341 = COLOUR_RGB ( '',0.7921568627450980000, 0.8196078431372548800, 0.9333333333333333500 ) ;
#342 = PRODUCT_DEFINITION_CONTEXT ( 'detailed design', #168, 'design' ) ;
#343 = CARTESIAN_POINT ( 'NONE',  ( 1365.944917773492300, 123.8532296063841200, 537.9336064286638900 ) ) ;
#344 = ORIENTED_EDGE ( 'NONE', *, *, #472, .F. ) ;
#345 = COLOUR_RGB ( '',0.7921568627450980000, 0.8196078431372548800, 0.9333333333333333500 ) ;
#346 = CARTESIAN_POINT ( 'NONE',  ( 1124.602142519191100, 5.052748241208540500, 551.9994084784465300 ) ) ;
#347 = ADVANCED_FACE ( 'NONE', ( #479, #855 ), #255, .T. ) ;
#348 = CARTESIAN_POINT ( 'NONE',  ( 1267.087438785073600, 152.1613938482853700, 530.6139617951106400 ) ) ;
#349 = STYLED_ITEM ( 'NONE', ( #317 ), #751 ) ;
#350 = CARTESIAN_POINT ( 'NONE',  ( 1173.743812966022000, 112.0958586542773200, 540.4990780078717300 ) ) ;
#351 = CARTESIAN_POINT ( 'NONE',  ( 2759.514385998870700, -544.5675416003937200, -90.47246346648836400 ) ) ;
#352 = CARTESIAN_POINT ( 'NONE',  ( 2638.059495729961800, -516.6979357267022100, -194.2357275110227600 ) ) ;
#353 = CARTESIAN_POINT ( 'NONE',  ( 1282.096110614834700, 152.3967106848585000, 530.5461738472142800 ) ) ;
#354 = CARTESIAN_POINT ( 'NONE',  ( 2695.885802231958200, -526.6460757804294400, 165.4173257025517500 ) ) ;
#355 = ORIENTED_EDGE ( 'NONE', *, *, #776, .F. ) ;
#356 = CARTESIAN_POINT ( 'NONE',  ( 2524.065791159197000, -515.7642253634854800, -196.7119612400372500 ) ) ;
#357 = CARTESIAN_POINT ( 'NONE',  ( 2701.134736357962100, -527.8814790427309200, -161.3886279336799400 ) ) ;
#358 = CARTESIAN_POINT ( 'NONE',  ( 2728.861153350968400, -535.0810228175217800, 135.6241588996084000 ) ) ;
#359 = CIRCLE ( 'NONE', #694, 445.1345183313447400 ) ;
#360 = CARTESIAN_POINT ( 'NONE',  ( 1429.400000000000300, 0.0000000000000000000, 551.9999999999997700 ) ) ;
#361 = VERTEX_POINT ( 'NONE', #298 ) ;
#362 = CARTESIAN_POINT ( 'NONE',  ( 2679.123026192356500, -523.1425393046412200, 176.1438223311776900 ) ) ;
#363 = COLOUR_RGB ( '',0.7921568627450980000, 0.8196078431372548800, 0.9333333333333333500 ) ;
#364 = SURFACE_SIDE_STYLE ('',( #628 ) ) ;
#365 = CARTESIAN_POINT ( 'NONE',  ( 2775.224318498997000, -550.0393832646783500, -46.59941809852410400 ) ) ;
#366 = CARTESIAN_POINT ( 'NONE',  ( 2530.524886903996500, -515.1394571046253100, -198.3363331713290700 ) ) ;
#367 = SURFACE_SIDE_STYLE ('',( #620 ) ) ;
#368 = ORIENTED_EDGE ( 'NONE', *, *, #539, .T. ) ;
#369 = CARTESIAN_POINT ( 'NONE',  ( 2404.224837511482300, -541.3780031212738800, 107.9126926463580000 ) ) ;
#370 = STYLED_ITEM ( 'NONE', ( #245 ), #589 ) ;
#371 = FILL_AREA_STYLE ('',( #217 ) ) ;
#372 = CARTESIAN_POINT ( 'NONE',  ( 3249.463712603655500, 0.0000000000000000000, 0.0000000000000000000 ) ) ;
#373 = CARTESIAN_POINT ( 'NONE',  ( 2376.072464226868800, -551.0185207034713800, 33.55194375929449500 ) ) ;
#374 = CARTESIAN_POINT ( 'NONE',  ( 1124.840022041461000, -9.904196032292013300, 551.9335817425839000 ) ) ;
#375 = FILL_AREA_STYLE ('',( #10 ) ) ;
#376 = CARTESIAN_POINT ( 'NONE',  ( 2469.094646686201500, -524.2765867083965100, 172.7801450318383200 ) ) ;
#377 = CARTESIAN_POINT ( 'NONE',  ( 1242.153604413333100, -148.4461386623242400, 531.6660392154888100 ) ) ;
#378 = DIRECTION ( 'NONE',  ( 0.0000000000000000000, 0.0000000000000000000, 1.000000000000000000 ) ) ;
#379 = PRESENTATION_LAYER_ASSIGNMENT (  '', '', ( #781 ) ) ;
#380 = CARTESIAN_POINT ( 'NONE',  ( 2495.677966372016300, -519.4757738058739300, 186.6836163167797100 ) ) ;
#381 = CARTESIAN_POINT ( 'NONE',  ( 1315.262570383220500, -147.5239358354273200, 531.9217881098658200 ) ) ;
#382 = EDGE_LOOP ( 'NONE', ( #416 ) ) ;
#383 = ADVANCED_FACE ( 'NONE', ( #477 ), #891, .F. ) ;
#384 = CARTESIAN_POINT ( 'NONE',  ( 2421.777252725402800, -536.0420997192387600, 131.7943152156293800 ) ) ;
#385 = CARTESIAN_POINT ( 'NONE',  ( 1134.328893050171000, -53.80922034735949200, 549.3904747774792000 ) ) ;
#386 = MECHANICAL_DESIGN_GEOMETRIC_PRESENTATION_REPRESENTATION (  '', ( #817 ), #832 ) ;
#387 = UNCERTAINTY_MEASURE_WITH_UNIT (LENGTH_MEASURE( 1.000000000000000100E-005 ), #614, 'distance_accuracy_value', 'NONE');
#388 = SURFACE_STYLE_FILL_AREA ( #571 ) ;
#389 = FACE_OUTER_BOUND ( 'NONE', #660, .T. ) ;
#390 = CARTESIAN_POINT ( 'NONE',  ( 1326.137110133717400, -144.3489865494046000, 532.7942124452168900 ) ) ;
#391 = SURFACE_STYLE_FILL_AREA ( #609 ) ;
#392 = CARTESIAN_POINT ( 'NONE',  ( 1132.650088877023300, -49.12949315393734700, 549.8301370891274500 ) ) ;
#393 = DIRECTION ( 'NONE',  ( 0.0000000000000000000, 0.0000000000000000000, 1.000000000000000000 ) ) ;
#394 = SURFACE_SIDE_STYLE ('',( #391 ) ) ;
#395 = EDGE_LOOP ( 'NONE', ( #457 ) ) ;
#396 = DIRECTION ( 'NONE',  ( 0.0000000000000000000, 0.0000000000000000000, 1.000000000000000000 ) ) ;
#397 = CARTESIAN_POINT ( 'NONE',  ( 1429.400000000000300, -5.060516700713184200, 552.0000000000001100 ) ) ;
#398 = STYLED_ITEM ( 'NONE', ( #50 ), #347 ) ;
#399 =( LENGTH_UNIT ( ) NAMED_UNIT ( * ) SI_UNIT ( .MILLI., .METRE. ) );
#400 = FILL_AREA_STYLE ('',( #475 ) ) ;
#401 = SURFACE_SIDE_STYLE ('',( #932 ) ) ;
#402 = AXIS2_PLACEMENT_3D ( 'NONE', #818, #664, #445 ) ;
#403 =( LENGTH_UNIT ( ) NAMED_UNIT ( * ) SI_UNIT ( .MILLI., .METRE. ) );
#404 = PRESENTATION_STYLE_ASSIGNMENT (( #914 ) ) ;
#405 = CARTESIAN_POINT ( 'NONE',  ( 1313.007336768385100, 148.0905772738179000, 531.7643114800240500 ) ) ;
#406 = CARTESIAN_POINT ( 'NONE',  ( 1356.516794294208200, 130.0169045077375400, 536.4699817372464800 ) ) ;
#407 = FACE_OUTER_BOUND ( 'NONE', #746, .T. ) ;
#408 = CARTESIAN_POINT ( 'NONE',  ( 1351.144234803394500, 133.1711679160535500, 535.6966506087278500 ) ) ;
#409 = CARTESIAN_POINT ( 'NONE',  ( 1427.426404397049300, 24.94962075628132300, 551.4575791089026800 ) ) ;
#410 = ORIENTED_EDGE ( 'NONE', *, *, #637, .F. ) ;
#411 = CARTESIAN_POINT ( 'NONE',  ( 1377.581680752919700, 114.6018517162793400, 539.9821863176391600 ) ) ;
#412 = PRESENTATION_LAYER_ASSIGNMENT (  '', '', ( #817 ) ) ;
#413 = CARTESIAN_POINT ( 'NONE',  ( 1223.213015292825000, 142.6808612781731000, 533.2448942248328200 ) ) ;
#414 = FACE_OUTER_BOUND ( 'NONE', #892, .T. ) ;
#415 = CARTESIAN_POINT ( 'NONE',  ( 1138.243420089236200, 63.07628155223074600, 548.3890526081252100 ) ) ;
#416 = ORIENTED_EDGE ( 'NONE', *, *, #927, .F. ) ;
#417 = COLOUR_RGB ( '',0.7921568627450980000, 0.8196078431372548800, 0.9333333333333333500 ) ;
#418 = CARTESIAN_POINT ( 'NONE',  ( 1124.597885238765700, -4.922666536889065200, 552.0005838579438700 ) ) ;
#419 = CARTESIAN_POINT ( 'NONE',  ( 2767.457658363477500, -547.2836752019262600, -72.26859413947420300 ) ) ;
#420 = UNCERTAINTY_MEASURE_WITH_UNIT (LENGTH_MEASURE( 1.000000000000000100E-005 ), #502, 'distance_accuracy_value', 'NONE');
#421 = CARTESIAN_POINT ( 'NONE',  ( 2384.273716823422100, -548.0794687473156700, -65.98762270603678800 ) ) ;
#422 = EDGE_CURVE ( 'NONE', #640, #640, #321, .T. ) ;
#423 = CARTESIAN_POINT ( 'NONE',  ( 1184.171428080849600, 120.9682284061793200, 538.5917737293923400 ) ) ;
#424 = CARTESIAN_POINT ( 'NONE',  ( 2680.563410091577700, -523.4257022052927400, 175.3007519105243000 ) ) ;
#425 = SURFACE_STYLE_FILL_AREA ( #371 ) ;
#426 = AXIS2_PLACEMENT_3D ( 'NONE', #668, #736, #378 ) ;
#427 = CARTESIAN_POINT ( 'NONE',  ( 2570.222395033955800, -513.1137027624248500, -203.5150131416054400 ) ) ;
#428 = CARTESIAN_POINT ( 'NONE',  ( 2749.832672730586200, -541.3960639038504000, -107.8259222868540400 ) ) ;
#429 = DIRECTION ( 'NONE',  ( -1.000000000000000000, -0.0000000000000000000, -0.0000000000000000000 ) ) ;
#430 = CARTESIAN_POINT ( 'NONE',  ( 2777.948126824318500, -551.0260207935728000, -33.43542256313047300 ) ) ;
#431 =( GEOMETRIC_REPRESENTATION_CONTEXT ( 3 ) GLOBAL_UNCERTAINTY_ASSIGNED_CONTEXT ( ( #420 ) ) GLOBAL_UNIT_ASSIGNED_CONTEXT ( ( #502, #498, #883 ) ) REPRESENTATION_CONTEXT ( 'NONE', 'WORKASPACE' ) );
#432 = CARTESIAN_POINT ( 'NONE',  ( 2577.000000000000000, -513.0799547828778500, -203.6000000000001100 ) ) ;
#433 = CARTESIAN_POINT ( 'NONE',  ( 2701.170777937764800, -527.8684881089828900, 161.4863226023323600 ) ) ;
#434 = EDGE_LOOP ( 'NONE', ( #355 ) ) ;
#435 = CARTESIAN_POINT ( 'NONE',  ( 2543.574396126271000, -514.1264388485432200, -200.9476702995372100 ) ) ;
#436 = CARTESIAN_POINT ( 'NONE',  ( 2661.403819975084800, -519.9408383955921000, 185.3992138473782600 ) ) ;
#437 = FILL_AREA_STYLE ('',( #581 ) ) ;
#438 = CARTESIAN_POINT ( 'NONE',  ( 2600.467146249734900, -513.6054915498236800, 202.2709231618255500 ) ) ;
#439 = FILL_AREA_STYLE_COLOUR ( '', #950 ) ;
#440 = CARTESIAN_POINT ( 'NONE',  ( 2431.860475990883100, -533.2121877529310700, 142.7944296421826800 ) ) ;
#441 = CARTESIAN_POINT ( 'NONE',  ( 1127.292350277448600, -28.54771058876464500, 551.2626996640569800 ) ) ;
#442 = CARTESIAN_POINT ( 'NONE',  ( 2373.834649733417300, -551.8398191095683400, 13.40381951845012900 ) ) ;
#443 = CARTESIAN_POINT ( 'NONE',  ( 1179.294355914608800, -116.9654544697048000, 539.4661592957992300 ) ) ;
#444 = AXIS2_PLACEMENT_3D ( 'NONE', #768, #845, #530 ) ;
#445 = DIRECTION ( 'NONE',  ( 0.0000000000000000000, 0.0000000000000000000, -1.000000000000000000 ) ) ;
#446 = CARTESIAN_POINT ( 'NONE',  ( 2390.348674215772500, -545.9755910949924100, 81.34525995132828800 ) ) ;
#447 = CARTESIAN_POINT ( 'NONE',  ( 1237.330375438886000, -147.2308279095195500, 532.0050310980097900 ) ) ;
#448 = ADVANCED_FACE ( 'NONE', ( #389, #772 ), #47, .T. ) ;
#449 = UNCERTAINTY_MEASURE_WITH_UNIT (LENGTH_MEASURE( 1.000000000000000100E-005 ), #462, 'distance_accuracy_value', 'NONE');
#450 = VERTEX_POINT ( 'NONE', #285 ) ;
#451 = FILL_AREA_STYLE_COLOUR ( '', #72 ) ;
#452 = CARTESIAN_POINT ( 'NONE',  ( 2374.232318002389500, -551.6935276854359200, 18.46893949426564400 ) ) ;
#453 = CARTESIAN_POINT ( 'NONE',  ( 1213.791543805049700, -138.7650320400777800, 534.2773242006037400 ) ) ;
#454 = FACE_OUTER_BOUND ( 'NONE', #271, .T. ) ;
#455 = B_SPLINE_CURVE_WITH_KNOTS ( 'NONE', 3,
 ( #49, #253, #854, #621, #409, #471, #191, #693, #484, #335, #859, #770, #928, #111, #922, #700, #183, #478, #39, #771, #695, #541, #266, #261, #118, #853, #411, #547, #343, #188, #338, #265, #406, #691, #408, #780, #474, #624, #258, #340, #44, #405, #114, #116, #627, #849, #629, #689, #353, #638, #348, #707, #734, #816, #147, #151, #413, #787, #706, #795, #487, #489, #937, #785, #551, #196, #423, #7, #867, #350, #506, #277, #584, #933, #79, #656, #219, #194, #702, #865, #782, #485, #301, #415, #51, #58, #122, #935, #272, #123, #126, #270, #54, #4, #553, #633, #346, #418, #374, #870, #557, #201, #711, #895, #441, #511, #861, #392, #385, #742, #16, #305, #834, #12, #316, #93, #599, #753, #598, #522, #518, #309, #907, #163, #443, #748, #223, #820, #94, #318, #453, #827, #86, #458, #90, #83, #904, #447, #377, #596, #161, #19, #672, #898, #158, #234, #525, #228, #831, #25, #824, #381, #675, #313, #749, #390, #901, #587, #666, #906, #527, #456, #514, #155, #602, #670, #663, #21, #235, #738, #231, #921, #100, #765, #909, #617, #243, #461, #466, #28, #759, #249, #177, #755, #837, #470, #174, #31, #534, #104, #329, #109, #397, #322 ),
 .UNSPECIFIED., .T., .F.,
 ( 4, 2, 2, 2, 2, 2, 2, 2, 2, 2, 2, 2, 2, 2, 2, 2, 2, 2, 2, 2, 2, 2, 2, 2, 2, 2, 2, 2, 2, 2, 2, 2, 2, 2, 2, 2, 2, 2, 2, 2, 2, 2, 2, 2, 2, 2, 2, 2, 2, 2, 2, 2, 2, 2, 2, 2, 2, 2, 2, 2, 2, 2, 2, 2, 2, 2, 2, 2, 2, 2, 2, 2, 2, 2, 2, 2, 2, 2, 2, 2, 2, 2, 2, 2, 2, 2, 2, 2, 2, 2, 2, 2, 2, 2, 2, 2, 4 ),
 ( 0.0000000000000000000, 0.01496072044501673000, 0.02992144089003346100, 0.04488216133505019300, 0.04862234144630433300, 0.05236252155755848100, 0.05984288178006654000, 0.07480360222508297700, 0.08976432267009940000, 0.09724468289260764000, 0.1009848630038619600, 0.1047250431151162800, 0.1196857635601326200, 0.1346464840051489800, 0.1496072044501652900, 0.1533473845614193900, 0.1570875646726735100, 0.1645679248951811800, 0.1795286453401960200, 0.1944893657852108700, 0.2019697260077182900, 0.2057099061189720000, 0.2094500862302257100, 0.2244108066752405500, 0.2393715271202554200, 0.2543322475652702900, 0.2692929680102851800, 0.2842536884553000200, 0.2992144089003148700, 0.3029545890115687400, 0.3066947691228226200, 0.3141751293453298200, 0.3291358497903436000, 0.3440965702353573900, 0.3515769304578643100, 0.3553171105691177400, 0.3590572906803711800, 0.3740180111253834600, 0.3889787315703957000, 0.4039394520154079300, 0.4076796321266611400, 0.4114198122379143000, 0.4189001724604208800, 0.4338608929054336700, 0.4488216133504464600, 0.4563019735729529900, 0.4600421536842061500, 0.4637823337954593600, 0.4787430542404720300, 0.4937037746854848800, 0.5011841349079910700, 0.5049243150192444000, 0.5086644951304976100, 0.5236252155755104500, 0.5385859360205232900, 0.5535466564655360200, 0.5610270166880422200, 0.5685073769105485300, 0.5834680973555613800, 0.5984288178005742200, 0.6059091780230809700, 0.6096493581343340700, 0.6133895382455871700, 0.6283502586906005700, 0.6433109791356138600, 0.6582716995806271500, 0.6620118796918805800, 0.6657520598031341200, 0.6732324200256409900, 0.6881931404706553800, 0.7031538609156698900, 0.7106342211381772000, 0.7181145813606842900, 0.7330753018056981300, 0.7480360222507120800, 0.7555163824732189500, 0.7592565625844720500, 0.7629967426957251500, 0.7779574631407394400, 0.7929181835857537200, 0.8078789040307680100, 0.8116190841420214400, 0.8153592642532748700, 0.8228396244757822900, 0.8378003449207972500, 0.8527610653658120900, 0.8602414255883195100, 0.8639816056995733900, 0.8677217858108270400, 0.8826825062558432100, 0.8976432267008591600, 0.9126039471458753400, 0.9163441272571293300, 0.9200843073683835400, 0.9275646675908916200, 0.9425253880359074600, 0.9574861084809234100 ),
 .UNSPECIFIED. ) ;
#456 = CARTESIAN_POINT ( 'NONE',  ( 1362.732582077488600, -126.0049587480652800, 537.4265165149706700 ) ) ;
#457 = ORIENTED_EDGE ( 'NONE', *, *, #422, .T. ) ;
#458 = CARTESIAN_POINT ( 'NONE',  ( 1223.103608633147600, -142.5570576933952500, 533.2745124482246400 ) ) ;
#459 = DIRECTION ( 'NONE',  ( 1.000000000000000000, 0.0000000000000000000, 0.0000000000000000000 ) ) ;
#460 = PRODUCT_DEFINITION_SHAPE ( 'NONE', 'NONE',  #579 ) ;
#461 = CARTESIAN_POINT ( 'NONE',  ( 1406.396044154307700, -80.66762445480206600, 546.0900089060008900 ) ) ;
#462 =( LENGTH_UNIT ( ) NAMED_UNIT ( * ) SI_UNIT ( .MILLI., .METRE. ) );
#463 = SPHERICAL_SURFACE ( 'NONE', #550, 933.9999999999998900 ) ;
#464 = PRESENTATION_LAYER_ASSIGNMENT (  '', '', ( #324 ) ) ;
#465 = FILL_AREA_STYLE_COLOUR ( '', #417 ) ;
#466 = CARTESIAN_POINT ( 'NONE',  ( 1408.951616771894800, -76.41381294856458300, 546.7031321439325200 ) ) ;
#467 = ORIENTED_EDGE ( 'NONE', *, *, #125, .T. ) ;
#468 =( NAMED_UNIT ( * ) SI_UNIT ( $, .STERADIAN. ) SOLID_ANGLE_UNIT ( ) );
#469 = VERTEX_POINT ( 'NONE', #77 ) ;
#470 = CARTESIAN_POINT ( 'NONE',  ( 1424.154322963394000, -39.66040964058338900, 550.5747260953827400 ) ) ;
#471 = CARTESIAN_POINT ( 'NONE',  ( 1425.475468532294400, 34.72206733221128900, 550.9286007938882200 ) ) ;
#472 = EDGE_CURVE ( 'NONE', #450, #450, #688, .T. ) ;
#473 = PRESENTATION_LAYER_ASSIGNMENT (  '', '', ( #349 ) ) ;
#474 = CARTESIAN_POINT ( 'NONE',  ( 1340.098255522423600, 138.8126741133704100, 534.2648397085148400 ) ) ;
#475 = FILL_AREA_STYLE_COLOUR ( '', #341 ) ;
#476 = CARTESIAN_POINT ( 'NONE',  ( 2642.858644015007500, -517.2870435538529800, -192.6614562148656700 ) ) ;
#477 = FACE_OUTER_BOUND ( 'NONE', #382, .T. ) ;
#478 = CARTESIAN_POINT ( 'NONE',  ( 1402.280528501357600, 86.81433790816129200, 545.1345180470780200 ) ) ;
#479 = FACE_OUTER_BOUND ( 'NONE', #434, .T. ) ;
#480 = CYLINDRICAL_SURFACE ( 'NONE', #330, 551.9999999999997700 ) ;
#481 = PRESENTATION_LAYER_ASSIGNMENT (  '', '', ( #284 ) ) ;
#482 = MECHANICAL_DESIGN_GEOMETRIC_PRESENTATION_REPRESENTATION (  '', ( #781 ), #242 ) ;
#483 = CARTESIAN_POINT ( 'NONE',  ( 2661.519666108170000, -519.9593144078060000, -185.3476352700842500 ) ) ;
#484 = CARTESIAN_POINT ( 'NONE',  ( 1422.053759892086900, 46.76270341056687800, 550.0169881815700100 ) ) ;
#485 = CARTESIAN_POINT ( 'NONE',  ( 1140.400843626533500, 67.58699437601863700, 547.8478528376514300 ) ) ;
#486 = EDGE_LOOP ( 'NONE', ( #368 ) ) ;
#487 = CARTESIAN_POINT ( 'NONE',  ( 1212.835448343180600, 138.2397951054694000, 534.4100172291506400 ) ) ;
#488 =( GEOMETRIC_REPRESENTATION_CONTEXT ( 3 ) GLOBAL_UNCERTAINTY_ASSIGNED_CONTEXT ( ( #622 ) ) GLOBAL_UNIT_ASSIGNED_CONTEXT ( ( #593, #315, #307 ) ) REPRESENTATION_CONTEXT ( 'NONE', 'WORKASPACE' ) );
#489 = CARTESIAN_POINT ( 'NONE',  ( 1209.438276650470900, 136.6288992070598200, 534.8249935858655100 ) ) ;
#490 = CARTESIAN_POINT ( 'NONE',  ( 2723.223510919331600, -533.5047245330422400, 141.7129396149211400 ) ) ;
#491 = CARTESIAN_POINT ( 'NONE',  ( 2437.842247170875900, -531.6110231916781000, -148.6575884940424700 ) ) ;
#492 = CARTESIAN_POINT ( 'NONE',  ( 2703.752753655678100, -528.5032485283109100, -159.3407086644193400 ) ) ;
#493 = CARTESIAN_POINT ( 'NONE',  ( 2753.252980387852900, -542.5010777535395600, -102.1354720292597000 ) ) ;
#494 = CARTESIAN_POINT ( 'NONE',  ( 1650.630094822395700, 0.0000000000000000000, 551.9999999999998900 ) ) ;
#495 = CARTESIAN_POINT ( 'NONE',  ( 2693.081615701307300, -526.0406329826582800, -167.2991665654937200 ) ) ;
#496 = DIRECTION ( 'NONE',  ( 0.0000000000000000000, 0.0000000000000000000, 1.000000000000000000 ) ) ;
#497 = CARTESIAN_POINT ( 'NONE',  ( 2780.260199855719700, -551.8744149684097200, -13.52330353436702400 ) ) ;
#498 =( NAMED_UNIT ( * ) PLANE_ANGLE_UNIT ( ) SI_UNIT ( $, .RADIAN. ) );
#499 = CARTESIAN_POINT ( 'NONE',  ( 2732.144303757583700, -536.0221148551489700, 131.8558989665601500 ) ) ;
#500 =( GEOMETRIC_REPRESENTATION_CONTEXT ( 3 ) GLOBAL_UNCERTAINTY_ASSIGNED_CONTEXT ( ( #449 ) ) GLOBAL_UNIT_ASSIGNED_CONTEXT ( ( #462, #612, #91 ) ) REPRESENTATION_CONTEXT ( 'NONE', 'WORKASPACE' ) );
#501 = CARTESIAN_POINT ( 'NONE',  ( 2441.528880693547300, -530.6619018902291600, -151.9976497554689800 ) ) ;
#502 =( LENGTH_UNIT ( ) NAMED_UNIT ( * ) SI_UNIT ( .MILLI., .METRE. ) );
#503 = CARTESIAN_POINT ( 'NONE',  ( 2780.602189784192900, -552.0008076811149100, 3.219052743640679700 ) ) ;
#504 = CARTESIAN_POINT ( 'NONE',  ( 2401.000000000000500, 0.0000000000000000000, 0.0000000000000000000 ) ) ;
#505 = CARTESIAN_POINT ( 'NONE',  ( 2550.316889110353700, -513.7624636808161500, 201.8722817675259500 ) ) ;
#506 = CARTESIAN_POINT ( 'NONE',  ( 1172.825395802512300, 111.2428602725752400, 540.6753181163960600 ) ) ;
#507 =( GEOMETRIC_REPRESENTATION_CONTEXT ( 3 ) GLOBAL_UNCERTAINTY_ASSIGNED_CONTEXT ( ( #767 ) ) GLOBAL_UNIT_ASSIGNED_CONTEXT ( ( #605, #98, #252 ) ) REPRESENTATION_CONTEXT ( 'NONE', 'WORKASPACE' ) );
#508 = CARTESIAN_POINT ( 'NONE',  ( 1658.866498044446200, 0.0000000000000000000, 543.7259100642398800 ) ) ;
#509 =( NAMED_UNIT ( * ) PLANE_ANGLE_UNIT ( ) SI_UNIT ( $, .RADIAN. ) );
#510 = CARTESIAN_POINT ( 'NONE',  ( 2373.399204308784600, -552.0002934832023100, 3.305978375970188800 ) ) ;
#511 = CARTESIAN_POINT ( 'NONE',  ( 1128.525396777116800, -34.73509526064725600, 550.9283495060508400 ) ) ;
#512 = CARTESIAN_POINT ( 'NONE',  ( 2577.000000000000000, -1072.000000000000000, 0.0000000000000000000 ) ) ;
#513 = CARTESIAN_POINT ( 'NONE',  ( 2411.566451076200300, -539.0799055800233600, 118.8618816004466800 ) ) ;
#514 = CARTESIAN_POINT ( 'NONE',  ( 1363.767188179495900, -125.2947786421207800, 537.5925652018577200 ) ) ;
#515 = DIRECTION ( 'NONE',  ( -1.000000000000000000, -0.0000000000000000000, -0.0000000000000000000 ) ) ;
#516 = ADVANCED_FACE ( 'NONE', ( #175, #936, #858 ), #259, .T. ) ;
#517 = CARTESIAN_POINT ( 'NONE',  ( 2488.104745232083600, -520.7218002328563700, 183.1758313916447500 ) ) ;
#518 = CARTESIAN_POINT ( 'NONE',  ( 1172.732886842232100, -111.1772623279427600, 540.6908212103564900 ) ) ;
#519 = FILL_AREA_STYLE_COLOUR ( '', #296 ) ;
#520 = UNCERTAINTY_MEASURE_WITH_UNIT (LENGTH_MEASURE( 1.000000000000000100E-005 ), #213, 'distance_accuracy_value', 'NONE');
#521 = ORIENTED_EDGE ( 'NONE', *, *, #184, .F. ) ;
#522 = CARTESIAN_POINT ( 'NONE',  ( 1170.929348617448800, -109.4575351728397400, 541.0418297308330000 ) ) ;
#523 = MECHANICAL_DESIGN_GEOMETRIC_PRESENTATION_REPRESENTATION (  '', ( #232 ), #705 ) ;
#524 = ADVANCED_FACE ( 'NONE', ( #414, #851 ), #463, .F. ) ;
#525 = CARTESIAN_POINT ( 'NONE',  ( 1286.955504482166100, -152.1562245225740900, 530.6154361691620800 ) ) ;
#526 = COLOUR_RGB ( '',0.7921568627450980000, 0.8196078431372548800, 0.9333333333333333500 ) ;
#527 = CARTESIAN_POINT ( 'NONE',  ( 1357.531957473243200, -129.4813035381058900, 536.6067056554153400 ) ) ;
#528 = PRESENTATION_STYLE_ASSIGNMENT (( #328 ) ) ;
#529 = CARTESIAN_POINT ( 'NONE',  ( 1658.866498044446200, 0.0000000000000000000, 0.0000000000000000000 ) ) ;
#530 = DIRECTION ( 'NONE',  ( 1.000000000000000000, 0.0000000000000000000, -0.0000000000000000000 ) ) ;
#531 = APPLICATION_PROTOCOL_DEFINITION ( 'draft international standard', 'automotive_design', 1998, #683 ) ;
#532 = ORIENTED_EDGE ( 'NONE', *, *, #184, .T. ) ;
#533 = DIRECTION ( 'NONE',  ( -0.0000000000000000000, 0.0000000000000000000, -1.000000000000000000 ) ) ;
#534 = CARTESIAN_POINT ( 'NONE',  ( 1425.947555812361300, -32.35187531952567500, 551.0566134384247300 ) ) ;
#535 =( LENGTH_UNIT ( ) NAMED_UNIT ( * ) SI_UNIT ( .MILLI., .METRE. ) );
#536 = EDGE_CURVE ( 'NONE', #187, #187, #455, .T. ) ;
#537 = AXIS2_PLACEMENT_3D ( 'NONE', #170, #33, #325 ) ;
#538 = CARTESIAN_POINT ( 'NONE',  ( 3077.000000000000000, 0.0000000000000000000, 0.0000000000000000000 ) ) ;
#539 = EDGE_CURVE ( 'NONE', #361, #361, #697, .T. ) ;
#540 = ORIENTED_EDGE ( 'NONE', *, *, #927, .T. ) ;
#541 = CARTESIAN_POINT ( 'NONE',  ( 1396.308722863927000, 94.83014171426464100, 543.7943049442003500 ) ) ;
#542 = PRESENTATION_STYLE_ASSIGNMENT (( #337 ) ) ;
#543 = CARTESIAN_POINT ( 'NONE',  ( 1650.039088398413000, 0.0000000000000000000, 0.0000000000000000000 ) ) ;
#544 = CARTESIAN_POINT ( 'NONE',  ( 2401.000000000000500, 0.0000000000000000000, 0.0000000000000000000 ) ) ;
#545 = FACE_OUTER_BOUND ( 'NONE', #180, .T. ) ;
#546 = CARTESIAN_POINT ( 'NONE',  ( 2644.448902414450900, -517.4919778277493400, -192.1104389979269100 ) ) ;
#547 = CARTESIAN_POINT ( 'NONE',  ( 1369.933493129600700, 120.8868263071409400, 538.6099898651756300 ) ) ;
#548 = ORIENTED_EDGE ( 'NONE', *, *, #536, .F. ) ;
#549 =( NAMED_UNIT ( * ) SI_UNIT ( $, .STERADIAN. ) SOLID_ANGLE_UNIT ( ) );
#550 = AXIS2_PLACEMENT_3D ( 'NONE', #544, #775, #930 ) ;
#551 = CARTESIAN_POINT ( 'NONE',  ( 1196.377027478156200, 129.4225337279218000, 536.6207242626468300 ) ) ;
#552 = SURFACE_SIDE_STYLE ('',( #310 ) ) ;
#553 = CARTESIAN_POINT ( 'NONE',  ( 1125.468650735395800, 16.29687683162265800, 551.7607956255669700 ) ) ;
#554 = CARTESIAN_POINT ( 'NONE',  ( 2608.817898959306100, -514.0628747897799300, 201.1055267328529500 ) ) ;
#555 = CARTESIAN_POINT ( 'NONE',  ( 2380.430602409963700, -549.4451502043906400, -53.14897129870719500 ) ) ;
#556 = CARTESIAN_POINT ( 'NONE',  ( 2603.849900372787900, -513.7388348648182700, -201.9329573051169300 ) ) ;
#557 = CARTESIAN_POINT ( 'NONE',  ( 1125.877810683027100, -19.85326881466437900, 551.6484665990917600 ) ) ;
#558 = CARTESIAN_POINT ( 'NONE',  ( 2780.170594632208600, -551.8417499927300000, 13.32435594841138000 ) ) ;
#559 = EDGE_LOOP ( 'NONE', ( #13 ) ) ;
#560 = CARTESIAN_POINT ( 'NONE',  ( 2453.001935752120500, -527.8273052370893800, -161.6221957624425200 ) ) ;
#561 = CARTESIAN_POINT ( 'NONE',  ( 2679.152011121902000, -523.1188217971011900, -176.2431214495797200 ) ) ;
#562 = CARTESIAN_POINT ( 'NONE',  ( 2742.432048525641200, -539.0794037953527300, 118.8646664336321400 ) ) ;
#563 = AXIS2_PLACEMENT_3D ( 'NONE', #685, #920, #393 ) ;
#564 = CARTESIAN_POINT ( 'NONE',  ( 1476.807920397496900, 0.0000000000000000000, 135.0000000000000000 ) ) ;
#565 = CARTESIAN_POINT ( 'NONE',  ( 2736.331326456369000, -537.2462157448726400, -126.7965758111695700 ) ) ;
#566 = SURFACE_SIDE_STYLE ('',( #165 ) ) ;
#567 = CARTESIAN_POINT ( 'NONE',  ( 2775.967623350656600, -550.3078925666590100, -43.31424877838420400 ) ) ;
#568 = COLOUR_RGB ( '',0.7921568627450980000, 0.8196078431372548800, 0.9333333333333333500 ) ;
#569 = CARTESIAN_POINT ( 'NONE',  ( 2404.356581715221200, -541.3465329021801200, -107.9351233375852500 ) ) ;
#570 = FACE_OUTER_BOUND ( 'NONE', #159, .T. ) ;
#571 = FILL_AREA_STYLE ('',( #439 ) ) ;
#572 = CARTESIAN_POINT ( 'NONE',  ( 2649.169315913035000, -518.0954359618310700, 190.4953100794283200 ) ) ;
#573 = CARTESIAN_POINT ( 'NONE',  ( 2442.773264391963500, -530.3455181802849000, -153.0977209470901200 ) ) ;
#574 = ORIENTED_EDGE ( 'NONE', *, *, #944, .F. ) ;
#575 = CARTESIAN_POINT ( 'NONE',  ( 2563.698326799767500, -513.2088075144689600, 203.2762247357769400 ) ) ;
#576 =( NAMED_UNIT ( * ) SI_UNIT ( $, .STERADIAN. ) SOLID_ANGLE_UNIT ( ) );
#577 = SURFACE_STYLE_USAGE ( .BOTH. , #364 ) ;
#578 = CARTESIAN_POINT ( 'NONE',  ( 2389.686467202754600, -546.2023761564223600, 79.80847775887329500 ) ) ;
#579 = PRODUCT_DEFINITION ( 'UNKNOWN', '', #319, #342 ) ;
#580 = CARTESIAN_POINT ( 'NONE',  ( 2577.000000000000000, -1072.000000000000000, 203.6000000000000800 ) ) ;
#581 = FILL_AREA_STYLE_COLOUR ( '', #363 ) ;
#582 = COLOUR_RGB ( '',0.7921568627450980000, 0.8196078431372548800, 0.9333333333333333500 ) ;
#583 = CARTESIAN_POINT ( 'NONE',  ( 2373.734030762485900, -551.8765412756811200, -13.44146322614138900 ) ) ;
#584 = CARTESIAN_POINT ( 'NONE',  ( 1170.122000971801300, 108.6480761980492800, 541.2027362958824600 ) ) ;
#585 = DIRECTION ( 'NONE',  ( -1.000000000000000000, -0.0000000000000000000, -0.0000000000000000000 ) ) ;
#586 = CARTESIAN_POINT ( 'NONE',  ( 2380.336144082703000, -549.4764910078973800, 53.10850578392552300 ) ) ;
#587 = CARTESIAN_POINT ( 'NONE',  ( 1340.024442352104400, -138.8467126646278900, 534.2560046961150400 ) ) ;
#588 = PRESENTATION_LAYER_ASSIGNMENT (  '', '', ( #902 ) ) ;
#589 = ADVANCED_FACE ( 'NONE', ( #139 ), #30, .T. ) ;
#590 = EDGE_LOOP ( 'NONE', ( #758 ) ) ;
#591 = FACE_OUTER_BOUND ( 'NONE', #395, .T. ) ;
#592 = STYLED_ITEM ( 'NONE', ( #108 ), #92 ) ;
#593 =( LENGTH_UNIT ( ) NAMED_UNIT ( * ) SI_UNIT ( .MILLI., .METRE. ) );
#594 = UNCERTAINTY_MEASURE_WITH_UNIT (LENGTH_MEASURE( 1.000000000000000100E-005 ), #917, 'distance_accuracy_value', 'NONE');
#595 = CARTESIAN_POINT ( 'NONE',  ( 2394.578116671086700, -544.5428750538171700, 90.47914527745385300 ) ) ;
#596 = CARTESIAN_POINT ( 'NONE',  ( 1251.912651518999800, -150.4032988844637400, 531.1156945746477000 ) ) ;
#597 = ADVANCED_FACE ( 'NONE', ( #208, #454 ), #9, .T. ) ;
#598 = CARTESIAN_POINT ( 'NONE',  ( 1165.661041704802100, -104.1829963529008300, 542.0910969286785500 ) ) ;
#599 = CARTESIAN_POINT ( 'NONE',  ( 1156.063864859419900, -92.86905308309745500, 544.1455773015656000 ) ) ;
#600 = ADVANCED_FACE ( 'NONE', ( #830 ), #739, .T. ) ;
#601 = DIRECTION ( 'NONE',  ( 1.000000000000000000, 0.0000000000000000000, 0.0000000000000000000 ) ) ;
#602 = CARTESIAN_POINT ( 'NONE',  ( 1366.825420593465900, -123.1207070136509100, 538.0946684832448500 ) ) ;
#603 = ORIENTED_EDGE ( 'NONE', *, *, #24, .T. ) ;
#604 = SURFACE_STYLE_USAGE ( .BOTH. , #172 ) ;
#605 =( LENGTH_UNIT ( ) NAMED_UNIT ( * ) SI_UNIT ( .MILLI., .METRE. ) );
#606 = APPLICATION_PROTOCOL_DEFINITION ( 'draft international standard', 'automotive_design', 1998, #168 ) ;
#607 = CARTESIAN_POINT ( 'NONE',  ( 2378.796513315892300, -550.0323090936220800, -46.59607842386010600 ) ) ;
#608 = AXIS2_PLACEMENT_3D ( 'NONE', #896, #515, #153 ) ;
#609 = FILL_AREA_STYLE ('',( #239 ) ) ;
#610 = COLOUR_RGB ( '',0.7921568627450980000, 0.8196078431372548800, 0.9333333333333333500 ) ;
#611 = SURFACE_STYLE_USAGE ( .BOTH. , #401 ) ;
#612 =( NAMED_UNIT ( * ) PLANE_ANGLE_UNIT ( ) SI_UNIT ( $, .RADIAN. ) );
#613 = SURFACE_STYLE_USAGE ( .BOTH. , #762 ) ;
#614 =( LENGTH_UNIT ( ) NAMED_UNIT ( * ) SI_UNIT ( .MILLI., .METRE. ) );
#615 = ORIENTED_EDGE ( 'NONE', *, *, #944, .T. ) ;
#616 = CYLINDRICAL_SURFACE ( 'NONE', #563, 135.0000000000000000 ) ;
#617 = CARTESIAN_POINT ( 'NONE',  ( 1402.221944084642000, -86.87224544504441300, 545.1222640427356500 ) ) ;
#618 =( NAMED_UNIT ( * ) PLANE_ANGLE_UNIT ( ) SI_UNIT ( $, .RADIAN. ) );
#619 = UNCERTAINTY_MEASURE_WITH_UNIT (LENGTH_MEASURE( 1.000000000000000100E-005 ), #735, 'distance_accuracy_value', 'NONE');
#620 = SURFACE_STYLE_FILL_AREA ( #652 ) ;
#621 = CARTESIAN_POINT ( 'NONE',  ( 1428.161840878927700, 20.02061047253804200, 551.6592400173494800 ) ) ;
#622 = UNCERTAINTY_MEASURE_WITH_UNIT (LENGTH_MEASURE( 1.000000000000000100E-005 ), #593, 'distance_accuracy_value', 'NONE');
#623 =( GEOMETRIC_REPRESENTATION_CONTEXT ( 3 ) GLOBAL_UNCERTAINTY_ASSIGNED_CONTEXT ( ( #793 ) ) GLOBAL_UNIT_ASSIGNED_CONTEXT ( ( #399, #618, #754 ) ) REPRESENTATION_CONTEXT ( 'NONE', 'WORKASPACE' ) );
#624 = CARTESIAN_POINT ( 'NONE',  ( 1330.941208617334700, 142.6208061868216500, 533.2608958904550000 ) ) ;
#625 = EDGE_LOOP ( 'NONE', ( #574 ) ) ;
#626 = COLOUR_RGB ( '',0.7921568627450980000, 0.8196078431372548800, 0.9333333333333333500 ) ;
#627 = CARTESIAN_POINT ( 'NONE',  ( 1308.091415299082400, 149.2000651421973300, 531.4540486550630500 ) ) ;
#628 = SURFACE_STYLE_FILL_AREA ( #805 ) ;
#629 = CARTESIAN_POINT ( 'NONE',  ( 1296.994994909520300, 151.1648301341378200, 530.8987245070138700 ) ) ;
#630 = DIRECTION ( 'NONE',  ( -1.000000000000000000, -0.0000000000000000000, -0.0000000000000000000 ) ) ;
#631 = PRESENTATION_STYLE_ASSIGNMENT (( #229 ) ) ;
#632 = ORIENTED_EDGE ( 'NONE', *, *, #536, .T. ) ;
#633 = CARTESIAN_POINT ( 'NONE',  ( 1124.848518790818800, 10.04663309357141200, 551.9312327678782100 ) ) ;
#634 = CARTESIAN_POINT ( 'NONE',  ( 2630.219402009618100, -515.7940192640809300, 196.6338006504640800 ) ) ;
#635 = STYLED_ITEM ( 'NONE', ( #648 ), #899 ) ;
#636 = CARTESIAN_POINT ( 'NONE',  ( 2610.454783501845700, -514.1280837476797400, -200.9435043665407100 ) ) ;
#637 = EDGE_CURVE ( 'NONE', #256, #256, #709, .T. ) ;
#638 = CARTESIAN_POINT ( 'NONE',  ( 1272.102560623889100, 152.4032245673312500, 530.5443027240633000 ) ) ;
#639 = CARTESIAN_POINT ( 'NONE',  ( 2738.487598122018400, -537.8782622893408000, 124.1725264592981000 ) ) ;
#640 = VERTEX_POINT ( 'NONE', #804 ) ;
#641 = CARTESIAN_POINT ( 'NONE',  ( 2684.818331960818800, -524.2584256706724100, -172.8355803719992400 ) ) ;
#642 = CARTESIAN_POINT ( 'NONE',  ( 2676.214810778130900, -522.5826084258480900, 177.7981438215315700 ) ) ;
#643 = CARTESIAN_POINT ( 'NONE',  ( 2407.058640338379500, -540.4908248864428500, -112.1412231709427400 ) ) ;
#644 = CARTESIAN_POINT ( 'NONE',  ( 2695.796602910929800, -526.6468418674577400, -165.3827052290887100 ) ) ;
#645 = SURFACE_STYLE_USAGE ( .BOTH. , #552 ) ;
#646 = CARTESIAN_POINT ( 'NONE',  ( 2761.564112204639500, -545.2655276688300300, 85.97577884361692200 ) ) ;
#647 = EDGE_LOOP ( 'NONE', ( #615 ) ) ;
#648 = PRESENTATION_STYLE_ASSIGNMENT (( #604 ) ) ;
#649 = CARTESIAN_POINT ( 'NONE',  ( 2506.550611458429100, -517.8915897792218200, -191.0305439926566700 ) ) ;
#650 =( NAMED_UNIT ( * ) SI_UNIT ( $, .STERADIAN. ) SOLID_ANGLE_UNIT ( ) );
#651 = CARTESIAN_POINT ( 'NONE',  ( 2623.741152018056700, -515.1625040905133800, 198.2766349586251200 ) ) ;
#652 = FILL_AREA_STYLE ('',( #808 ) ) ;
#653 = CARTESIAN_POINT ( 'NONE',  ( 2545.297479045856600, -514.0557362825613800, 201.1237723476422400 ) ) ;
#654 = CARTESIAN_POINT ( 'NONE',  ( 277.0000000000001700, 0.0000000000000000000, 0.0000000000000000000 ) ) ;
#655 = CARTESIAN_POINT ( 'NONE',  ( 2375.071557642611400, -551.3852971107826300, 26.90460159067336200 ) ) ;
#656 = CARTESIAN_POINT ( 'NONE',  ( 1156.113226398702600, 92.93324903773523700, 544.1346006441888200 ) ) ;
#657 = PRESENTATION_LAYER_ASSIGNMENT (  '', '', ( #232 ) ) ;
#658 = CARTESIAN_POINT ( 'NONE',  ( 2577.000000000000000, -513.0799547828778500, -203.6000000000000800 ) ) ;
#659 = DIRECTION ( 'NONE',  ( 0.0000000000000000000, 0.0000000000000000000, 1.000000000000000000 ) ) ;
#660 = EDGE_LOOP ( 'NONE', ( #467 ) ) ;
#661 = FACE_OUTER_BOUND ( 'NONE', #171, .T. ) ;
#662 = CARTESIAN_POINT ( 'NONE',  ( 2427.274722264732200, -534.4787733018737300, 137.9784251440467800 ) ) ;
#663 = CARTESIAN_POINT ( 'NONE',  ( 1371.788247632097600, -119.3612061620063400, 538.9429437730960900 ) ) ;
#664 = DIRECTION ( 'NONE',  ( 1.000000000000000000, 0.0000000000000000000, 0.0000000000000000000 ) ) ;
#665 = CARTESIAN_POINT ( 'NONE',  ( 2583.759434895584900, -513.0809123238889200, 203.5975869590613500 ) ) ;
#666 = CARTESIAN_POINT ( 'NONE',  ( 1344.508624195334700, -136.7222903098056600, 534.8054250358447900 ) ) ;
#667 = PRESENTATION_STYLE_ASSIGNMENT (( #731 ) ) ;
#668 = CARTESIAN_POINT ( 'NONE',  ( 1647.573162145122300, 0.0000000000000000000, 0.0000000000000000000 ) ) ;
#669 = CARTESIAN_POINT ( 'NONE',  ( 2391.713058121770200, -545.5106593689104100, 84.40685933602976800 ) ) ;
#670 = CARTESIAN_POINT ( 'NONE',  ( 1369.829136032482200, -120.8913984731731100, 538.6015157402902100 ) ) ;
#671 = ADVANCED_FACE ( 'NONE', ( #154 ), #336, .T. ) ;
#672 = CARTESIAN_POINT ( 'NONE',  ( 1266.850434959564800, -152.0826887869909300, 530.6362907843611100 ) ) ;
#673 = EDGE_CURVE ( 'NONE', #752, #752, #264, .T. ) ;
#674 = AXIS2_PLACEMENT_3D ( 'NONE', #875, #429, #659 ) ;
#675 = CARTESIAN_POINT ( 'NONE',  ( 1316.478339817931600, -147.2032850367363900, 532.0106339107876500 ) ) ;
#676 = CARTESIAN_POINT ( 'NONE',  ( 277.0000000000001100, 0.0000000000000000000, 0.0000000000000000000 ) ) ;
#677 = MECHANICAL_DESIGN_GEOMETRIC_PRESENTATION_REPRESENTATION (  '', ( #284 ), #119 ) ;
#678 =( NAMED_UNIT ( * ) SI_UNIT ( $, .STERADIAN. ) SOLID_ANGLE_UNIT ( ) );
#679 = FILL_AREA_STYLE ('',( #173 ) ) ;
#680 = ORIENTED_EDGE ( 'NONE', *, *, #880, .F. ) ;
#681 = CIRCLE ( 'NONE', #128, 543.7259100642398800 ) ;
#682 = CARTESIAN_POINT ( 'NONE',  ( 1277.000000000000200, 0.0000000000000000000, -500000.0000000000600 ) ) ;
#683 = APPLICATION_CONTEXT ( 'automotive_design' ) ;
#684 = DIRECTION ( 'NONE',  ( 1.000000000000000000, 0.0000000000000000000, 0.0000000000000000000 ) ) ;
#685 = CARTESIAN_POINT ( 'NONE',  ( 0.0000000000000000000, 0.0000000000000000000, 0.0000000000000000000 ) ) ;
#686 = PRESENTATION_LAYER_ASSIGNMENT (  '', '', ( #635 ) ) ;
#687 =( NAMED_UNIT ( * ) PLANE_ANGLE_UNIT ( ) SI_UNIT ( $, .RADIAN. ) );
#688 = CIRCLE ( 'NONE', #608, 445.1345183313444000 ) ;
#689 = CARTESIAN_POINT ( 'NONE',  ( 1287.074535078079400, 152.1483139370103000, 530.6177080712454900 ) ) ;
#690 =( NAMED_UNIT ( * ) PLANE_ANGLE_UNIT ( ) SI_UNIT ( $, .RADIAN. ) );
#691 = CARTESIAN_POINT ( 'NONE',  ( 1353.308420368244900, 131.9432041118805300, 536.0006883768284100 ) ) ;
#692 = FILL_AREA_STYLE ('',( #182 ) ) ;
#693 = CARTESIAN_POINT ( 'NONE',  ( 1422.434259787658000, 45.56544062940230300, 550.1174783181633100 ) ) ;
#694 = AXIS2_PLACEMENT_3D ( 'NONE', #372, #5, #210 ) ;
#695 = CARTESIAN_POINT ( 'NONE',  ( 1397.850433565692800, 92.85741669868394900, 544.1346359416396600 ) ) ;
#696 = CARTESIAN_POINT ( 'NONE',  ( 2583.790855412779800, -513.0799547828778500, -203.6000000000000200 ) ) ;
#697 = CIRCLE ( 'NONE', #334, 152.4000000000000900 ) ;
#698 = PRESENTATION_LAYER_ASSIGNMENT (  '', '', ( #710 ) ) ;
#699 = CIRCLE ( 'NONE', #674, 552.0000000000000000 ) ;
#700 = CARTESIAN_POINT ( 'NONE',  ( 1408.979906023502100, 76.36514644316091000, 546.7099616743355500 ) ) ;
#701 = CARTESIAN_POINT ( 'NONE',  ( 1476.807920397496900, 0.0000000000000000000, 0.0000000000000000000 ) ) ;
#702 = CARTESIAN_POINT ( 'NONE',  ( 1145.077101429674000, 76.46756646796181700, 546.6960789232305200 ) ) ;
#703 = EDGE_LOOP ( 'NONE', ( #521 ) ) ;
#704 = FACE_OUTER_BOUND ( 'NONE', #931, .T. ) ;
#705 =( GEOMETRIC_REPRESENTATION_CONTEXT ( 3 ) GLOBAL_UNCERTAINTY_ASSIGNED_CONTEXT ( ( #224 ) ) GLOBAL_UNIT_ASSIGNED_CONTEXT ( ( #403, #840, #678 ) ) REPRESENTATION_CONTEXT ( 'NONE', 'WORKASPACE' ) );
#706 = CARTESIAN_POINT ( 'NONE',  ( 1216.275134755295100, 139.7849426827177400, 534.0079099065814000 ) ) ;
#707 = CARTESIAN_POINT ( 'NONE',  ( 1257.019168657530800, 151.1691603024785900, 530.8974959473814600 ) ) ;
#708 = CARTESIAN_POINT ( 'NONE',  ( 2780.274157530966000, -551.8798938553354700, 11.63716494286031800 ) ) ;
#709 = CIRCLE ( 'NONE', #52, 550.1933331500486000 ) ;
#710 = STYLED_ITEM ( 'NONE', ( #667 ), #14 ) ;
#711 = CARTESIAN_POINT ( 'NONE',  ( 1126.629724114056200, -24.82192200729854300, 551.4430313982031700 ) ) ;
#712 = CARTESIAN_POINT ( 'NONE',  ( 2779.920790399188300, -551.7498288971773900, 16.70274852874040400 ) ) ;
#713 = CARTESIAN_POINT ( 'NONE',  ( 2446.570442381723300, -529.3971604703214100, -156.3453193439723100 ) ) ;
#714 = CARTESIAN_POINT ( 'NONE',  ( 2738.369641486065600, -537.8546654929792800, -124.1926046134260000 ) ) ;
#715 = COLOUR_RGB ( '',0.7921568627450980000, 0.8196078431372548800, 0.9333333333333333500 ) ;
#716 = CARTESIAN_POINT ( 'NONE',  ( 2729.966776986677800, -535.3959165767455500, 134.3759584859318200 ) ) ;
#717 = STYLED_ITEM ( 'NONE', ( #339 ), #448 ) ;
#718 = CARTESIAN_POINT ( 'NONE',  ( 3077.000000000000000, 0.0000000000000000000, 552.0000000000000000 ) ) ;
#719 = FILL_AREA_STYLE_COLOUR ( '', #292 ) ;
#720 = CARTESIAN_POINT ( 'NONE',  ( 2777.943003960236600, -551.0241653903594900, 33.46009769068320600 ) ) ;
#721 = VERTEX_POINT ( 'NONE', #494 ) ;
#722 = CARTESIAN_POINT ( 'NONE',  ( 2381.334566140670600, -549.1221748993394800, -56.38443612383869000 ) ) ;
#723 =( LENGTH_UNIT ( ) NAMED_UNIT ( * ) SI_UNIT ( .MILLI., .METRE. ) );
#724 = FACE_BOUND ( 'NONE', #821, .T. ) ;
#725 = CARTESIAN_POINT ( 'NONE',  ( 2753.197751450253200, -542.4830828047252000, 102.2317766193266100 ) ) ;
#726 = CARTESIAN_POINT ( 'NONE',  ( 2415.638504100771100, -537.8406252906559100, -124.3335601615119800 ) ) ;
#727 = DIRECTION ( 'NONE',  ( -0.0000000000000000000, 0.0000000000000000000, -1.000000000000000000 ) ) ;
#728 = CARTESIAN_POINT ( 'NONE',  ( 2483.612493868990900, -521.5075267968107900, 180.9268934860591300 ) ) ;
#729 = ORIENTED_EDGE ( 'NONE', *, *, #880, .T. ) ;
#730 = PRESENTATION_STYLE_ASSIGNMENT (( #843 ) ) ;
#731 = SURFACE_STYLE_USAGE ( .BOTH. , #148 ) ;
#732 =( NAMED_UNIT ( * ) PLANE_ANGLE_UNIT ( ) SI_UNIT ( $, .RADIAN. ) );
#733 = CARTESIAN_POINT ( 'NONE',  ( 2415.494809856273600, -537.8837532804939200, 124.1473508986712900 ) ) ;
#734 = CARTESIAN_POINT ( 'NONE',  ( 1252.054693119446000, 150.4274664925208100, 531.1088484010224400 ) ) ;
#735 =( LENGTH_UNIT ( ) NAMED_UNIT ( * ) SI_UNIT ( .MILLI., .METRE. ) );
#736 = DIRECTION ( 'NONE',  ( -1.000000000000000000, -0.0000000000000000000, -0.0000000000000000000 ) ) ;
#737 = CARTESIAN_POINT ( 'NONE',  ( 2377.698334088800000, -550.4290135159444600, -41.64905336229586700 ) ) ;
#738 = CARTESIAN_POINT ( 'NONE',  ( 1388.194705845595100, -104.3356128452107500, 542.0615835835066000 ) ) ;
#739 = SPHERICAL_SURFACE ( 'NONE', #66, 1000.000000000000000 ) ;
#740 = SURFACE_SIDE_STYLE ('',( #839 ) ) ;
#741 = CARTESIAN_POINT ( 'NONE',  ( 2437.745559958350000, -531.6223197817275800, 148.6791511663550700 ) ) ;
#742 = CARTESIAN_POINT ( 'NONE',  ( 1138.139244690679100, -62.99339320599614200, 548.4133098156987700 ) ) ;
#743 = MECHANICAL_DESIGN_GEOMETRIC_PRESENTATION_REPRESENTATION (  '', ( #635 ), #791 ) ;
#744 =( GEOMETRIC_REPRESENTATION_CONTEXT ( 3 ) GLOBAL_UNCERTAINTY_ASSIGNED_CONTEXT ( ( #520 ) ) GLOBAL_UNIT_ASSIGNED_CONTEXT ( ( #213, #74, #282 ) ) REPRESENTATION_CONTEXT ( 'NONE', 'WORKASPACE' ) );
#745 =( LENGTH_UNIT ( ) NAMED_UNIT ( * ) SI_UNIT ( .MILLI., .METRE. ) );
#746 = EDGE_LOOP ( 'NONE', ( #192 ) ) ;
#747 = CARTESIAN_POINT ( 'NONE',  ( 2392.416280718785900, -545.2721607026512600, 85.93384308970354400 ) ) ;
#748 = CARTESIAN_POINT ( 'NONE',  ( 1184.104887752723200, -120.9175956083260800, 538.6032009809688400 ) ) ;
#749 = CARTESIAN_POINT ( 'NONE',  ( 1320.118460113356800, -146.1784568321755000, 532.2931548300929300 ) ) ;
#750 = CIRCLE ( 'NONE', #40, 551.9999999999998900 ) ;
#751 = ADVANCED_FACE ( 'NONE', ( #26, #913 ), #145, .T. ) ;
#752 = VERTEX_POINT ( 'NONE', #890 ) ;
#753 = CARTESIAN_POINT ( 'NONE',  ( 1162.338220639362400, -100.5131143540192500, 542.7855784379880800 ) ) ;
#754 =( NAMED_UNIT ( * ) SI_UNIT ( $, .STERADIAN. ) SOLID_ANGLE_UNIT ( ) );
#755 = CARTESIAN_POINT ( 'NONE',  ( 1423.126211908809400, -43.29525457267058600, 550.3008121386816400 ) ) ;
#756 = AXIS2_PLACEMENT_3D ( 'NONE', #833, #911, #601 ) ;
#757 =( NAMED_UNIT ( * ) SI_UNIT ( $, .STERADIAN. ) SOLID_ANGLE_UNIT ( ) );
#758 = ORIENTED_EDGE ( 'NONE', *, *, #125, .F. ) ;
#759 = CARTESIAN_POINT ( 'NONE',  ( 1415.763830004094600, -63.20669385782576200, 548.3887515774037000 ) ) ;
#760 = SURFACE_SIDE_STYLE ('',( #864 ) ) ;
#761 =( GEOMETRIC_REPRESENTATION_CONTEXT ( 3 ) GLOBAL_UNCERTAINTY_ASSIGNED_CONTEXT ( ( #594 ) ) GLOBAL_UNIT_ASSIGNED_CONTEXT ( ( #917, #687, #848 ) ) REPRESENTATION_CONTEXT ( 'NONE', 'WORKASPACE' ) );
#762 = SURFACE_SIDE_STYLE ('',( #783 ) ) ;
#763 = FILL_AREA_STYLE ('',( #251 ) ) ;
#764 = SURFACE_STYLE_FILL_AREA ( #679 ) ;
#765 = CARTESIAN_POINT ( 'NONE',  ( 1400.044638603956900, -89.92966937035224400, 544.6261954965772200 ) ) ;
#766 =( NAMED_UNIT ( * ) PLANE_ANGLE_UNIT ( ) SI_UNIT ( $, .RADIAN. ) );
#767 = UNCERTAINTY_MEASURE_WITH_UNIT (LENGTH_MEASURE( 1.000000000000000100E-005 ), #605, 'distance_accuracy_value', 'NONE');
#768 = CARTESIAN_POINT ( 'NONE',  ( 1277.000000000000200, 0.0000000000000000000, 825.0000000000000000 ) ) ;
#769 = EDGE_LOOP ( 'NONE', ( #632 ) ) ;
#770 = CARTESIAN_POINT ( 'NONE',  ( 1419.575047156439300, 53.89281426997190700, 549.3680104105938000 ) ) ;
#771 = CARTESIAN_POINT ( 'NONE',  ( 1398.609899087053500, 91.86051324097661600, 544.3038495202221200 ) ) ;
#772 = FACE_BOUND ( 'NONE', #262, .T. ) ;
#773 = AXIS2_PLACEMENT_3D ( 'NONE', #842, #42, #923 ) ;
#774 = DIRECTION ( 'NONE',  ( 0.0000000000000000000, 1.000000000000000000, 0.0000000000000000000 ) ) ;
#775 = DIRECTION ( 'NONE',  ( -0.0000000000000000000, 0.0000000000000000000, -1.000000000000000000 ) ) ;
#776 = EDGE_CURVE ( 'NONE', #469, #469, #69, .T. ) ;
#777 = STYLED_ITEM ( 'NONE', ( #542 ), #671 ) ;
#778 = CARTESIAN_POINT ( 'NONE',  ( 2649.184359181592800, -518.1233756810286200, -190.4038842174802800 ) ) ;
#779 = FACE_OUTER_BOUND ( 'NONE', #769, .T. ) ;
#780 = CARTESIAN_POINT ( 'NONE',  ( 1344.576601617286500, 136.6888180821108600, 534.8139982848763300 ) ) ;
#781 = STYLED_ITEM ( 'NONE', ( #291 ), #383 ) ;
#782 = CARTESIAN_POINT ( 'NONE',  ( 1141.531089450794100, 69.82482083999744300, 547.5671338404739600 ) ) ;
#783 = SURFACE_STYLE_FILL_AREA ( #400 ) ;
#784 =( GEOMETRIC_REPRESENTATION_CONTEXT ( 3 ) GLOBAL_UNCERTAINTY_ASSIGNED_CONTEXT ( ( #619 ) ) GLOBAL_UNIT_ASSIGNED_CONTEXT ( ( #735, #814, #576 ) ) REPRESENTATION_CONTEXT ( 'NONE', 'WORKASPACE' ) );
#785 = CARTESIAN_POINT ( 'NONE',  ( 1200.626424825063600, 131.9758568313054400, 535.9965038549801200 ) ) ;
#786 = ADVANCED_FACE ( 'NONE', ( #704, #779 ), #893, .T. ) ;
#787 = CARTESIAN_POINT ( 'NONE',  ( 1217.427924410710400, 140.2800664872587200, 533.8780287044284000 ) ) ;
#788 = CARTESIAN_POINT ( 'NONE',  ( 2764.295573261724300, -546.1962133626509500, 79.85081325004668400 ) ) ;
#789 = EDGE_LOOP ( 'NONE', ( #144 ) ) ;
#790 = FACE_OUTER_BOUND ( 'NONE', #559, .T. ) ;
#791 =( GEOMETRIC_REPRESENTATION_CONTEXT ( 3 ) GLOBAL_UNCERTAINTY_ASSIGNED_CONTEXT ( ( #178 ) ) GLOBAL_UNIT_ASSIGNED_CONTEXT ( ( #176, #766, #846 ) ) REPRESENTATION_CONTEXT ( 'NONE', 'WORKASPACE' ) );
#792 = CARTESIAN_POINT ( 'NONE',  ( 2400.884933875932800, -542.4618717032658400, -102.2137120641438200 ) ) ;
#793 = UNCERTAINTY_MEASURE_WITH_UNIT (LENGTH_MEASURE( 1.000000000000000100E-005 ), #399, 'distance_accuracy_value', 'NONE');
#794 = AXIS2_PLACEMENT_3D ( 'NONE', #121, #630, #149 ) ;
#795 = CARTESIAN_POINT ( 'NONE',  ( 1213.978078869439100, 138.7644656128204600, 534.2739944324396200 ) ) ;
#796 = CARTESIAN_POINT ( 'NONE',  ( 2780.521571911918700, -551.9710560535829700, 6.581540687946319000 ) ) ;
#797 = PRESENTATION_STYLE_ASSIGNMENT (( #879 ) ) ;
#798 = CARTESIAN_POINT ( 'NONE',  ( 2500.285530739428900, -518.7810933842836200, -188.6018134606691800 ) ) ;
#799 = CARTESIAN_POINT ( 'NONE',  ( 2699.809392860019700, -527.5713153414376400, -162.3994797971047000 ) ) ;
#800 = DIRECTION ( 'NONE',  ( -1.000000000000000000, -0.0000000000000000000, -0.0000000000000000000 ) ) ;
#801 = SHAPE_DEFINITION_REPRESENTATION ( #460, #14 ) ;
#802 = UNCERTAINTY_MEASURE_WITH_UNIT (LENGTH_MEASURE( 1.000000000000000100E-005 ), #745, 'distance_accuracy_value', 'NONE');
#803 = CARTESIAN_POINT ( 'NONE',  ( 2775.314643247169400, -550.0711206106270800, 46.57221544849336000 ) ) ;
#804 = CARTESIAN_POINT ( 'NONE',  ( 1647.573162145122300, 0.0000000000000000000, 552.0000000000000000 ) ) ;
#805 = FILL_AREA_STYLE ('',( #719 ) ) ;
#806 = CARTESIAN_POINT ( 'NONE',  ( 2684.844071606009900, -524.2838611456501200, 172.7243767978437200 ) ) ;
#807 = CARTESIAN_POINT ( 'NONE',  ( 2486.577425745216700, -520.9554114411976100, -182.5386656900492400 ) ) ;
#808 = FILL_AREA_STYLE_COLOUR ( '', #626 ) ;
#809 = CARTESIAN_POINT ( 'NONE',  ( 2613.824643364050200, -514.3970516195863600, 200.2492740052692300 ) ) ;
#810 = AXIS2_PLACEMENT_3D ( 'NONE', #654, #948, #496 ) ;
#811 = CARTESIAN_POINT ( 'NONE',  ( 2474.933837636448500, -523.1020935483136300, -176.2926683306539500 ) ) ;
#812 = SURFACE_STYLE_USAGE ( .BOTH. , #295 ) ;
#813 = CARTESIAN_POINT ( 'NONE',  ( 2458.128166253950000, -526.6430356085422800, 165.4268144311848500 ) ) ;
#814 =( NAMED_UNIT ( * ) PLANE_ANGLE_UNIT ( ) SI_UNIT ( $, .RADIAN. ) );
#815 = CARTESIAN_POINT ( 'NONE',  ( 2373.481256653965400, -551.9700127973826500, 6.667031127835877600 ) ) ;
#816 = CARTESIAN_POINT ( 'NONE',  ( 1242.261818618214600, 148.4720504506140100, 531.6588020151729100 ) ) ;
#817 = STYLED_ITEM ( 'NONE', ( #631 ), #516 ) ;
#818 = CARTESIAN_POINT ( 'NONE',  ( 1650.039088398413000, 0.0000000000000000000, 0.0000000000000000000 ) ) ;
#819 = CARTESIAN_POINT ( 'NONE',  ( 2511.158013473187100, -517.2486384668873100, 192.7749216984369100 ) ) ;
#820 = CARTESIAN_POINT ( 'NONE',  ( 1196.304579640060900, -129.3772635119997600, 536.6316435396827300 ) ) ;
#821 = EDGE_LOOP ( 'NONE', ( #680 ) ) ;
#822 = DIRECTION ( 'NONE',  ( 0.0000000000000000000, 1.000000000000000000, 0.0000000000000000000 ) ) ;
#823 = CARTESIAN_POINT ( 'NONE',  ( 2543.622739507200500, -514.1617664138613000, 200.8526212487431300 ) ) ;
#824 = CARTESIAN_POINT ( 'NONE',  ( 1311.609436722692000, -148.4393837112054700, 531.6673307670199600 ) ) ;
#825 =( NAMED_UNIT ( * ) SI_UNIT ( $, .STERADIAN. ) SOLID_ANGLE_UNIT ( ) );
#826 = CARTESIAN_POINT ( 'NONE',  ( 2482.127473799013400, -521.7755710007080600, 180.1525780693315000 ) ) ;
#827 = CARTESIAN_POINT ( 'NONE',  ( 1219.594184772131700, -141.1804255863781300, 533.6406440768465700 ) ) ;
#828 = VERTEX_POINT ( 'NONE', #508 ) ;
#829 = CIRCLE ( 'NONE', #67, 135.0000000000000000 ) ;
#830 = FACE_OUTER_BOUND ( 'NONE', #46, .T. ) ;
#831 = CARTESIAN_POINT ( 'NONE',  ( 1301.813673457052600, -150.4493868727219000, 531.1026329135023600 ) ) ;
#832 =( GEOMETRIC_REPRESENTATION_CONTEXT ( 3 ) GLOBAL_UNCERTAINTY_ASSIGNED_CONTEXT ( ( #802 ) ) GLOBAL_UNIT_ASSIGNED_CONTEXT ( ( #745, #311, #825 ) ) REPRESENTATION_CONTEXT ( 'NONE', 'WORKASPACE' ) );
#833 = CARTESIAN_POINT ( 'NONE',  ( 0.0000000000000000000, 0.0000000000000000000, 0.0000000000000000000 ) ) ;
#834 = CARTESIAN_POINT ( 'NONE',  ( 1145.057469632688700, -76.30976284663373100, 546.7042248274659600 ) ) ;
#835 = CLOSED_SHELL ( 'NONE', ( #516, #92, #347, #899, #524, #905, #314, #600, #671, #751, #448, #597, #383, #786, #589 ) ) ;
#836 =( GEOMETRIC_REPRESENTATION_CONTEXT ( 3 ) GLOBAL_UNCERTAINTY_ASSIGNED_CONTEXT ( ( #387 ) ) GLOBAL_UNIT_ASSIGNED_CONTEXT ( ( #614, #908, #757 ) ) REPRESENTATION_CONTEXT ( 'NONE', 'WORKASPACE' ) );
#837 = CARTESIAN_POINT ( 'NONE',  ( 1423.479489258142800, -42.08446371699879800, 550.3947447255625300 ) ) ;
#838 = DIRECTION ( 'NONE',  ( -1.000000000000000000, -0.0000000000000000000, -0.0000000000000000000 ) ) ;
#839 = SURFACE_STYLE_FILL_AREA ( #375 ) ;
#840 =( NAMED_UNIT ( * ) PLANE_ANGLE_UNIT ( ) SI_UNIT ( $, .RADIAN. ) );
#841 = DIRECTION ( 'NONE',  ( -1.000000000000000000, -0.0000000000000000000, -0.0000000000000000000 ) ) ;
#842 = CARTESIAN_POINT ( 'NONE',  ( 2354.000000000000000, 1.658171766045516900E-013, 0.0000000000000000000 ) ) ;
#843 = SURFACE_STYLE_USAGE ( .BOTH. , #760 ) ;
#844 = EDGE_LOOP ( 'NONE', ( #729 ) ) ;
#845 = DIRECTION ( 'NONE',  ( 0.0000000000000000000, 0.0000000000000000000, 1.000000000000000000 ) ) ;
#846 =( NAMED_UNIT ( * ) SI_UNIT ( $, .STERADIAN. ) SOLID_ANGLE_UNIT ( ) );
#847 = MECHANICAL_DESIGN_GEOMETRIC_PRESENTATION_REPRESENTATION (  '', ( #902 ), #836 ) ;
#848 =( NAMED_UNIT ( * ) SI_UNIT ( $, .STERADIAN. ) SOLID_ANGLE_UNIT ( ) );
#849 = CARTESIAN_POINT ( 'NONE',  ( 1301.937031484506200, 150.4297615517445500, 531.1082104093200100 ) ) ;
#850 = MECHANICAL_DESIGN_GEOMETRIC_PRESENTATION_REPRESENTATION (  '', ( #592 ), #744 ) ;
#851 = FACE_OUTER_BOUND ( 'NONE', #943, .T. ) ;
#852 = DIRECTION ( 'NONE',  ( 0.0000000000000000000, 0.0000000000000000000, 1.000000000000000000 ) ) ;
#853 = CARTESIAN_POINT ( 'NONE',  ( 1381.241257849009600, 111.2832496453300600, 540.6780350660038700 ) ) ;
#854 = CARTESIAN_POINT ( 'NONE',  ( 1429.148611966217700, 10.07605370928643600, 551.9304440614415600 ) ) ;
#855 = FACE_OUTER_BOUND ( 'NONE', #844, .T. ) ;
#856 = VERTEX_POINT ( 'NONE', #564 ) ;
#857 = CARTESIAN_POINT ( 'NONE',  ( 2652.299011870994500, -518.5670157837340600, -189.1933106007300900 ) ) ;
#858 = FACE_BOUND ( 'NONE', #625, .T. ) ;
#859 = CARTESIAN_POINT ( 'NONE',  ( 1420.849965983617700, 50.34408765596728600, 549.7007225856594900 ) ) ;
#860 = CARTESIAN_POINT ( 'NONE',  ( 2590.517929651295200, -513.2147773791102700, -203.2611669108529200 ) ) ;
#861 = CARTESIAN_POINT ( 'NONE',  ( 1129.748364489317500, -39.59242071663717200, 550.5990619051293600 ) ) ;
#862 = PRESENTATION_LAYER_ASSIGNMENT (  '', '', ( #777 ) ) ;
#863 = ORIENTED_EDGE ( 'NONE', *, *, #422, .F. ) ;
#864 = SURFACE_STYLE_FILL_AREA ( #763 ) ;
#865 = CARTESIAN_POINT ( 'NONE',  ( 1142.111858820068400, 70.94027848879984800, 547.4237116735118900 ) ) ;
#866 = DIRECTION ( 'NONE',  ( 0.0000000000000000000, 1.000000000000000000, 0.0000000000000000000 ) ) ;
#867 = CARTESIAN_POINT ( 'NONE',  ( 1176.522002487747200, 114.6131701370742200, 539.9729258493686100 ) ) ;
#868 = CARTESIAN_POINT ( 'NONE',  ( 2779.774369160350900, -551.6959857471891800, 18.39508984387137900 ) ) ;
#869 = CARTESIAN_POINT ( 'NONE',  ( 2639.661756719213400, -516.8897563236554300, -193.7248098390866200 ) ) ;
#870 = CARTESIAN_POINT ( 'NONE',  ( 1125.572164123804900, -17.36716786638819000, 551.7323394716513600 ) ) ;
#871 = UNCERTAINTY_MEASURE_WITH_UNIT (LENGTH_MEASURE( 1.000000000000000100E-005 ), #926, 'distance_accuracy_value', 'NONE');
#872 = CARTESIAN_POINT ( 'NONE',  ( 2687.643888382358500, -524.8675202629848400, 170.9439421780207900 ) ) ;
#873 = CARTESIAN_POINT ( 'NONE',  ( 2550.164809243832200, -513.7381749652410000, -201.9346321802307500 ) ) ;
#874 = CARTESIAN_POINT ( 'NONE',  ( 2742.315306604624800, -539.0541301177260000, -118.8552956819730300 ) ) ;
#875 = CARTESIAN_POINT ( 'NONE',  ( 3077.000000000000000, 0.0000000000000000000, 0.0000000000000000000 ) ) ;
#876 = CARTESIAN_POINT ( 'NONE',  ( 2762.355435950280500, -545.5290451933304900, -84.49989166784341400 ) ) ;
#877 = MECHANICAL_DESIGN_GEOMETRIC_PRESENTATION_REPRESENTATION (  '', ( #349 ), #152 ) ;
#878 = CARTESIAN_POINT ( 'NONE',  ( 2406.147672480563400, -540.7779919957604300, -110.7484668433119000 ) ) ;
#879 = SURFACE_STYLE_USAGE ( .BOTH. , #367 ) ;
#880 = EDGE_CURVE ( 'NONE', #828, #828, #681, .T. ) ;
#881 = CARTESIAN_POINT ( 'NONE',  ( 2778.939853730272700, -551.3894802619596500, 26.81569270541136200 ) ) ;
#882 = CARTESIAN_POINT ( 'NONE',  ( 2379.190897408268900, -549.8902911687930600, -48.24276356728675800 ) ) ;
#883 =( NAMED_UNIT ( * ) SI_UNIT ( $, .STERADIAN. ) SOLID_ANGLE_UNIT ( ) );
#884 = TOROIDAL_SURFACE ( 'NONE', #810, 359.4029017857134200, 192.5970982142862900 ) ;
#885 = CIRCLE ( 'NONE', #263, 203.6000000000000800 ) ;
#886 = CARTESIAN_POINT ( 'NONE',  ( 2610.489593932011800, -514.1690629139067100, 200.8339443341085400 ) ) ;
#887 = AXIS2_PLACEMENT_3D ( 'NONE', #682, #32, #459 ) ;
#888 = CARTESIAN_POINT ( 'NONE',  ( 2501.839854638218600, -518.5534545644152300, -189.2266700259083600 ) ) ;
#889 = CARTESIAN_POINT ( 'NONE',  ( 2400.811561920184400, -542.4800134569196600, 102.2490012908699400 ) ) ;
#890 = CARTESIAN_POINT ( 'NONE',  ( 277.0000000000001100, 0.0000000000000000000, 551.9999999999996600 ) ) ;
#891 = PLANE ( 'NONE',  #23 ) ;
#892 = EDGE_LOOP ( 'NONE', ( #603 ) ) ;
#893 = CYLINDRICAL_SURFACE ( 'NONE', #887, 152.4000000000000900 ) ;
#894 = CARTESIAN_POINT ( 'NONE',  ( 2452.840279005100000, -527.8657596759154600, 161.4955716325816000 ) ) ;
#895 = CARTESIAN_POINT ( 'NONE',  ( 1127.060704727235400, -27.30486065260134900, 551.3256653508143500 ) ) ;
#896 = CARTESIAN_POINT ( 'NONE',  ( 104.5362873963445500, 0.0000000000000000000, 0.0000000000000000000 ) ) ;
#897 = CARTESIAN_POINT ( 'NONE',  ( 2378.704714404941100, -550.0641379108485600, 46.65390951103518100 ) ) ;
#898 = CARTESIAN_POINT ( 'NONE',  ( 1271.902915729427100, -152.3357398351726900, 530.5636999408611700 ) ) ;
#899 = ADVANCED_FACE ( 'NONE', ( #661, #238 ), #616, .T. ) ;
#900 = CARTESIAN_POINT ( 'NONE',  ( 2540.292665602120000, -514.3886749554427500, 200.2707881392027800 ) ) ;
#901 = CARTESIAN_POINT ( 'NONE',  ( 1330.838674119592500, -142.6600403778573400, 533.2504112056711800 ) ) ;
#902 = STYLED_ITEM ( 'NONE', ( #730 ), #786 ) ;
#903 = CARTESIAN_POINT ( 'NONE',  ( 2384.221026268343400, -548.0980520482830800, 65.82896701172364800 ) ) ;
#904 = CARTESIAN_POINT ( 'NONE',  ( 1230.179873200442400, -145.0511795071275000, 532.6018426307969100 ) ) ;
#905 = ADVANCED_FACE ( 'NONE', ( #35, #790, #591 ), #480, .T. ) ;
#906 = CARTESIAN_POINT ( 'NONE',  ( 1353.262377197505000, -132.0395729790550900, 535.9807631649086900 ) ) ;
#907 = CARTESIAN_POINT ( 'NONE',  ( 1176.449386886449200, -114.5290136881127300, 539.9887055924390300 ) ) ;
#908 =( NAMED_UNIT ( * ) PLANE_ANGLE_UNIT ( ) SI_UNIT ( $, .RADIAN. ) );
#909 = CARTESIAN_POINT ( 'NONE',  ( 1400.780212110950100, -88.91446113411215900, 544.7928857694198500 ) ) ;
#910 = PRESENTATION_LAYER_ASSIGNMENT (  '', '', ( #398 ) ) ;
#911 = DIRECTION ( 'NONE',  ( 0.0000000000000000000, 0.0000000000000000000, 1.000000000000000000 ) ) ;
#912 = EDGE_LOOP ( 'NONE', ( #102 ) ) ;
#913 = FACE_OUTER_BOUND ( 'NONE', #912, .T. ) ;
#914 = SURFACE_STYLE_USAGE ( .BOTH. , #99 ) ;
#915 = PRODUCT_CONTEXT ( 'NONE', #683, 'mechanical' ) ;
#916 =( GEOMETRIC_REPRESENTATION_CONTEXT ( 3 ) GLOBAL_UNCERTAINTY_ASSIGNED_CONTEXT ( ( #55 ) ) GLOBAL_UNIT_ASSIGNED_CONTEXT ( ( #186, #690, #257 ) ) REPRESENTATION_CONTEXT ( 'NONE', 'WORKASPACE' ) );
#917 =( LENGTH_UNIT ( ) NAMED_UNIT ( * ) SI_UNIT ( .MILLI., .METRE. ) );
#918 = DIRECTION ( 'NONE',  ( -1.000000000000000000, -0.0000000000000000000, -0.0000000000000000000 ) ) ;
#919 = SURFACE_STYLE_FILL_AREA ( #692 ) ;
#920 = DIRECTION ( 'NONE',  ( -1.000000000000000000, -0.0000000000000000000, -0.0000000000000000000 ) ) ;
#921 = CARTESIAN_POINT ( 'NONE',  ( 1396.264968984997300, -94.90949706001063600, 543.7830384507476500 ) ) ;
#922 = CARTESIAN_POINT ( 'NONE',  ( 1413.663376825236100, 67.62730676273702100, 547.8594392408126600 ) ) ;
#923 = DIRECTION ( 'NONE',  ( 0.0000000000000000000, 1.000000000000000000, 0.0000000000000000000 ) ) ;
#924 = SURFACE_SIDE_STYLE ('',( #75 ) ) ;
#925 = MECHANICAL_DESIGN_GEOMETRIC_PRESENTATION_REPRESENTATION (  '', ( #88 ), #623 ) ;
#926 =( LENGTH_UNIT ( ) NAMED_UNIT ( * ) SI_UNIT ( .MILLI., .METRE. ) );
#927 = EDGE_CURVE ( 'NONE', #73, #73, #885, .T. ) ;
#928 = CARTESIAN_POINT ( 'NONE',  ( 1418.670251038222000, 56.22746878666723800, 549.1337193183299000 ) ) ;
#929 = PRESENTATION_LAYER_ASSIGNMENT (  '', '', ( #717 ) ) ;
#930 = DIRECTION ( 'NONE',  ( 0.0000000000000000000, 1.000000000000000000, 0.0000000000000000000 ) ) ;
#931 = EDGE_LOOP ( 'NONE', ( #68 ) ) ;
#932 = SURFACE_STYLE_FILL_AREA ( #167 ) ;
#933 = CARTESIAN_POINT ( 'NONE',  ( 1165.718502721850900, 104.2449354571949100, 542.0792314805357800 ) ) ;
#934 = FILL_AREA_STYLE ('',( #193 ) ) ;
#935 = CARTESIAN_POINT ( 'NONE',  ( 1129.784995770004800, 39.72649967480609900, 550.5892677596509700 ) ) ;
#936 = FACE_OUTER_BOUND ( 'NONE', #789, .T. ) ;
#937 = CARTESIAN_POINT ( 'NONE',  ( 1207.209182606886100, 135.5035027238806400, 535.1114561307198300 ) ) ;
#938 = UNCERTAINTY_MEASURE_WITH_UNIT (LENGTH_MEASURE( 1.000000000000000100E-005 ), #535, 'distance_accuracy_value', 'NONE');
#939 = CARTESIAN_POINT ( 'NONE',  ( 2762.264140358661300, -545.5029145548642200, 84.45689695278828400 ) ) ;
#940 = AXIS2_PLACEMENT_3D ( 'NONE', #156, #585, #17 ) ;
#941 = CARTESIAN_POINT ( 'NONE',  ( 2394.505000071405400, -544.5609318585294400, -90.51455984707988000 ) ) ;
#942 = CARTESIAN_POINT ( 'NONE',  ( 2741.339809162363100, -538.7557172553512100, -120.2004084143637100 ) ) ;
#943 = EDGE_LOOP ( 'NONE', ( #863 ) ) ;
#944 = EDGE_CURVE ( 'NONE', #97, #97, #110, .T. ) ;
#945 = CARTESIAN_POINT ( 'NONE',  ( 2716.212037507787500, -531.6114889664010000, 148.7165700668393000 ) ) ;
#946 = CARTESIAN_POINT ( 'NONE',  ( 2424.014372565616200, -535.3873439442679700, -134.5056293981106400 ) ) ;
#947 = CARTESIAN_POINT ( 'NONE',  ( 2725.622910401611100, -534.1533130572382800, -139.3106105201010200 ) ) ;
#948 = DIRECTION ( 'NONE',  ( -1.000000000000000000, -0.0000000000000000000, -0.0000000000000000000 ) ) ;
#949 = CARTESIAN_POINT ( 'NONE',  ( 2778.936516619149200, -551.3882641076186200, -26.81849808610344300 ) ) ;
#950 = COLOUR_RGB ( '',0.7921568627450980000, 0.8196078431372548800, 0.9333333333333333500 ) ;
#951 = CARTESIAN_POINT ( 'NONE',  ( 2511.295790134280700, -517.2603337457371700, -192.7361334622237100 ) ) ;
#952 =( NAMED_UNIT ( * ) SI_UNIT ( $, .STERADIAN. ) SOLID_ANGLE_UNIT ( ) );
#953 = CARTESIAN_POINT ( 'NONE',  ( 2674.751755083949800, -522.3067668123975400, 178.6066548300196400 ) ) ;
#954 = CARTESIAN_POINT ( 'NONE',  ( 2573.604572293611500, -513.0799547828778500, -203.6000000000001400 ) ) ;
#955 = CARTESIAN_POINT ( 'NONE',  ( 2749.787133866784200, -541.3817826145067300, 107.8942907473346700 ) ) ;
ENDSEC;
END-ISO-10303-21;
