SolidWorks IGES file using analytic representation for surfaces         S      1
1H,,1H;,25Hrectangular_cavity.SLDPRT,83HC:\Users\Jacson_Corsair\Desktop\G      1
Fisicas\perforated_plate\CAD\rectangular_cavity.IGS,15HSolidWorks 2015, G      2
15HSolidWorks 2015,32,308,15,308,15,25Hrectangular_cavity.SLDPRT,1.,2,  G      3
2HMM,50,0.125,13H250916.172544,1E-008,499990.,14HJacson_Corsair,,11,0,  G      4
13H250916.172544;                                                       G      5
     314       1       0       0       0                        00000200D      1
     314       0       8       1       0                               0D      2
     502       2       0       0       0                        00010000D      3
     502       0       0       3       1                               0D      4
     110       5       0       0       0                        01010000D      5
     110       0       0       1       0                               0D      6
     110       6       0       0       0                        01010000D      7
     110       0       0       1       0                               0D      8
     110       7       0       0       0                        01010000D      9
     110       0       0       1       0                               0D     10
     110       8       0       0       0                        01010000D     11
     110       0       0       1       0                               0D     12
     110       9       0       0       0                        01010000D     13
     110       0       0       1       0                               0D     14
     110      10       0       0       0                        01010000D     15
     110       0       0       1       0                               0D     16
     110      11       0       0       0                        01010000D     17
     110       0       0       1       0                               0D     18
     110      12       0       0       0                        01010000D     19
     110       0       0       1       0                               0D     20
     110      13       0       0       0                        01010000D     21
     110       0       0       1       0                               0D     22
     110      14       0       0       0                        01010000D     23
     110       0       0       1       0                               0D     24
     110      15       0       0       0                        01010000D     25
     110       0       0       1       0                               0D     26
     110      16       0       0       0                        01010000D     27
     110       0       0       1       0                               0D     28
     504      17       0       0       0                        00010000D     29
     504       0       0       3       1                               0D     30
     116      20       0       0       0                        00010000D     31
     116       0       0       1       0                               0D     32
     123      21       0       0       0                        00010200D     33
     123       0       0       1       0                               0D     34
     123      22       0       0       0                        00010200D     35
     123       0       0       1       0                               0D     36
     190      23       0       0       0                        00010000D     37
     190       0      -1       1       1                               0D     38
     508      24       0       0       0                        00010000D     39
     508       0       0       1       1                               0D     40
     510      25       0       0       0                        00010000D     41
     510       0      -1       1       1                               0D     42
     116      26       0       0       0                        00010000D     43
     116       0       0       1       0                               0D     44
     123      27       0       0       0                        00010200D     45
     123       0       0       1       0                               0D     46
     123      28       0       0       0                        00010200D     47
     123       0       0       1       0                               0D     48
     190      29       0       0       0                        00010000D     49
     190       0      -1       1       1                               0D     50
     508      30       0       0       0                        00010000D     51
     508       0       0       1       1                               0D     52
     510      31       0       0       0                        00010000D     53
     510       0      -1       1       1                               0D     54
     116      32       0       0       0                        00010000D     55
     116       0       0       1       0                               0D     56
     123      33       0       0       0                        00010200D     57
     123       0       0       1       0                               0D     58
     123      34       0       0       0                        00010200D     59
     123       0       0       1       0                               0D     60
     190      35       0       0       0                        00010000D     61
     190       0      -1       1       1                               0D     62
     508      36       0       0       0                        00010000D     63
     508       0       0       1       1                               0D     64
     510      37       0       0       0                        00010000D     65
     510       0      -1       1       1                               0D     66
     116      38       0       0       0                        00010000D     67
     116       0       0       1       0                               0D     68
     123      39       0       0       0                        00010200D     69
     123       0       0       1       0                               0D     70
     123      40       0       0       0                        00010200D     71
     123       0       0       1       0                               0D     72
     190      41       0       0       0                        00010000D     73
     190       0      -1       1       1                               0D     74
     508      42       0       0       0                        00010000D     75
     508       0       0       1       1                               0D     76
     510      43       0       0       0                        00010000D     77
     510       0      -1       1       1                               0D     78
     116      44       0       0       0                        00010000D     79
     116       0       0       1       0                               0D     80
     123      45       0       0       0                        00010200D     81
     123       0       0       1       0                               0D     82
     123      46       0       0       0                        00010200D     83
     123       0       0       1       0                               0D     84
     190      47       0       0       0                        00010000D     85
     190       0      -1       1       1                               0D     86
     508      48       0       0       0                        00010000D     87
     508       0       0       1       1                               0D     88
     510      49       0       0       0                        00010000D     89
     510       0      -1       1       1                               0D     90
     116      50       0       0       0                        00010000D     91
     116       0       0       1       0                               0D     92
     123      51       0       0       0                        00010200D     93
     123       0       0       1       0                               0D     94
     123      52       0       0       0                        00010200D     95
     123       0       0       1       0                               0D     96
     190      53       0       0       0                        00010000D     97
     190       0      -1       1       1                               0D     98
     508      54       0       0       0                        00010000D     99
     508       0       0       1       1                               0D    100
     510      55       0       0       0                        00010000D    101
     510       0      -1       1       1                               0D    102
     514      56       0       0       0                        00010000D    103
     514       0       0       1       1                               0D    104
     186      57       0       0       0                        00000000D    105
     186       0       0       1       0                               0D    106
314,79.2156862745098,81.9607843137255,93.3333333333333,;               1P      1
502,8,-1000.,-150.,100.,1000.,150.,-100.,1000.,150.,100.,1000.,        3P      2
-150.,100.,1000.,-150.,-100.,-1000.,150.,100.,-1000.,150.,             3P      3
-100.,-1000.,-150.,-100.;                                              3P      4
110,-1000.,-150.,100.,-1000.,-150.,-100.;                              5P      5
110,1000.,-150.,-100.,1000.,150.,-100.;                                7P      6
110,-1000.,-150.,-100.,-1000.,150.,-100.;                              9P      7
110,-1000.,150.,-100.,-1000.,150.,100.;                               11P      8
110,1000.,-150.,-100.,-1000.,-150.,-100.;                             13P      9
110,1000.,150.,100.,1000.,-150.,100.;                                 15P     10
110,1000.,150.,-100.,-1000.,150.,-100.;                               17P     11
110,1000.,-150.,100.,-1000.,-150.,100.;                               19P     12
110,-1000.,150.,100.,-1000.,-150.,100.;                               21P     13
110,1000.,150.,100.,-1000.,150.,100.;                                 23P     14
110,1000.,150.,-100.,1000.,150.,100.;                                 25P     15
110,1000.,-150.,100.,1000.,-150.,-100.;                               27P     16
504,12,5,3,1,3,8,7,3,5,3,2,9,3,8,3,7,11,3,7,3,6,13,3,5,3,8,15,        29P     17
3,3,3,4,17,3,2,3,7,19,3,4,3,1,21,3,6,3,1,23,3,3,3,6,25,3,2,3,3,       29P     18
27,3,4,3,5;                                                           29P     19
116,1000.,-150.,100.,;                                                31P     20
123,0.,0.,-1.;                                                        33P     21
123,-0.707106781,0.707106781,0.;                                      35P     22
190,31,33,35;                                                         37P     23
508,4,0,29,10,1,0,0,29,9,1,0,0,29,8,0,0,0,29,6,0,0;                   39P     24
510,37,1,1,39;                                                        41P     25
116,1000.,-150.,-100.,;                                               43P     26
123,0.,1.,0.;                                                         45P     27
123,-0.707106781,0.,0.707106781;                                      47P     28
190,43,45,47;                                                         49P     29
508,4,0,29,8,1,0,0,29,1,1,0,0,29,5,0,0,0,29,12,0,0;                   51P     30
510,49,1,1,51;                                                        53P     31
116,1000.,-150.,-100.,;                                               55P     32
123,0.,0.,1.;                                                         57P     33
123,0.707106781,-0.707106781,0.;                                      59P     34
190,55,57,59;                                                         61P     35
508,4,0,29,5,1,0,0,29,3,1,0,0,29,7,0,0,0,29,2,0,0;                    63P     36
510,61,1,1,63;                                                        65P     37
116,1000.,150.,-100.,;                                                67P     38
123,0.,-1.,0.;                                                        69P     39
123,0.707106781,0.,-0.707106781;                                      71P     40
190,67,69,71;                                                         73P     41
508,4,0,29,7,1,0,0,29,4,1,0,0,29,10,0,0,0,29,11,0,0;                  75P     42
510,73,1,1,75;                                                        77P     43
116,1000.,0.,0.,;                                                     79P     44
123,1.,0.,0.;                                                         81P     45
123,0.,0.707106781,-0.707106781;                                      83P     46
190,79,81,83;                                                         85P     47
508,4,0,29,6,1,0,0,29,12,1,0,0,29,2,1,0,0,29,11,1,0;                  87P     48
510,85,1,1,87;                                                        89P     49
116,-1000.,0.,0.,;                                                    91P     50
123,1.,0.,0.;                                                         93P     51
123,0.,0.707106781,-0.707106781;                                      95P     52
190,91,93,95;                                                         97P     53
508,4,0,29,9,0,0,0,29,4,0,0,0,29,3,0,0,0,29,1,0,0;                    99P     54
510,97,1,1,99;                                                       101P     55
514,6,41,1,53,1,65,1,77,1,89,1,101,1;                                103P     56
186,103,1,0;                                                         105P     57
S      1G      5D    106P     57                                        T      1
