ISO-10303-21;
HEADER;
FILE_DESCRIPTION (( 'STEP AP214' ),
    '1' );
FILE_NAME ('rectangular_expansion_chamber.STEP',
    '2025-09-16T21:31:36',
    ( '' ),
    ( '' ),
    'SwSTEP 2.0',
    'SolidWorks 2015',
    '' );
FILE_SCHEMA (( 'AUTOMOTIVE_DESIGN' ));
ENDSEC;

DATA;
#1 = ORIENTED_EDGE ( 'NONE', *, *, #187, .F. ) ;
#2 = DIRECTION ( 'NONE',  ( 0.0000000000000000000, -1.000000000000000000, -1.387778780781445700E-016 ) ) ;
#3 = VECTOR ( 'NONE', #363, 1000.000000000000000 ) ;
#4 = EDGE_LOOP ( 'NONE', ( #1, #182, #88, #92 ) ) ;
#5 = FACE_OUTER_BOUND ( 'NONE', #291, .T. ) ;
#6 = EDGE_CURVE ( 'NONE', #76, #171, #392, .T. ) ;
#7 = STYLED_ITEM ( 'NONE', ( #316 ), #229 ) ;
#8 = PLANE ( 'NONE',  #262 ) ;
#9 = VERTEX_POINT ( 'NONE', #223 ) ;
#10 = DIRECTION ( 'NONE',  ( 0.0000000000000000000, 0.0000000000000000000, -1.000000000000000000 ) ) ;
#11 = DIRECTION ( 'NONE',  ( 0.0000000000000000000, 1.000000000000000000, 0.0000000000000000000 ) ) ;
#12 = CARTESIAN_POINT ( 'NONE',  ( 1000.000000000000000, -149.9999999999999700, -100.0000000000000000 ) ) ;
#13 = DIRECTION ( 'NONE',  ( -0.0000000000000000000, 0.0000000000000000000, -1.000000000000000000 ) ) ;
#14 = FACE_OUTER_BOUND ( 'NONE', #257, .T. ) ;
#15 = PRODUCT_DEFINITION ( 'UNKNOWN', '', #62, #484 ) ;
#16 = CARTESIAN_POINT ( 'NONE',  ( 1000.000000000000000, -149.9999999999999700, -100.0000000000000000 ) ) ;
#17 = EDGE_LOOP ( 'NONE', ( #321, #79, #128, #395 ) ) ;
#18 = VECTOR ( 'NONE', #269, 1000.000000000000000 ) ;
#19 = CARTESIAN_POINT ( 'NONE',  ( 1000.000000000000000, -149.9999999999999700, -100.0000000000000000 ) ) ;
#20 = ORIENTED_EDGE ( 'NONE', *, *, #156, .F. ) ;
#21 = ADVANCED_FACE ( 'NONE', ( #227 ), #454, .F. ) ;
#22 = APPLICATION_PROTOCOL_DEFINITION ( 'draft international standard', 'automotive_design', 1998, #366 ) ;
#23 = CARTESIAN_POINT ( 'NONE',  ( 1000.000000000000000, 150.0000000000000300, 100.0000000000000000 ) ) ;
#24 = VERTEX_POINT ( 'NONE', #224 ) ;
#25 = CARTESIAN_POINT ( 'NONE',  ( -1000.000000000000000, -149.9999999999999700, -100.0000000000000000 ) ) ;
#26 = LINE ( 'NONE', #57, #270 ) ;
#27 = PLANE ( 'NONE',  #429 ) ;
#28 = DIRECTION ( 'NONE',  ( 0.0000000000000000000, 1.000000000000000000, 0.0000000000000000000 ) ) ;
#29 = ORIENTED_EDGE ( 'NONE', *, *, #89, .F. ) ;
#30 =( NAMED_UNIT ( * ) PLANE_ANGLE_UNIT ( ) SI_UNIT ( $, .RADIAN. ) );
#31 = LINE ( 'NONE', #364, #94 ) ;
#32 = VECTOR ( 'NONE', #279, 1000.000000000000000 ) ;
#33 = ORIENTED_EDGE ( 'NONE', *, *, #165, .F. ) ;
#34 = LINE ( 'NONE', #159, #18 ) ;
#35 = EDGE_CURVE ( 'NONE', #327, #382, #34, .T. ) ;
#36 = CLOSED_SHELL ( 'NONE', ( #21, #292, #432, #111, #137, #56, #470, #393, #481, #281, #246, #170, #145, #207, #255, #59 ) ) ;
#37 = VERTEX_POINT ( 'NONE', #383 ) ;
#38 = PRODUCT ( 'rectangular_expansion_chamber', 'rectangular_expansion_chamber', '', ( #73 ) ) ;
#39 = SURFACE_STYLE_USAGE ( .BOTH. , #455 ) ;
#40 = VERTEX_POINT ( 'NONE', #456 ) ;
#41 = VECTOR ( 'NONE', #412, 1000.000000000000000 ) ;
#42 = CARTESIAN_POINT ( 'NONE',  ( 500.0000000000000000, -149.9999999999999700, -100.0000000000000000 ) ) ;
#43 = LINE ( 'NONE', #354, #414 ) ;
#44 = CARTESIAN_POINT ( 'NONE',  ( -500.0000000000000000, -149.9999999999999700, -100.0000000000000000 ) ) ;
#45 = AXIS2_PLACEMENT_3D ( 'NONE', #19, #139, #210 ) ;
#46 = ORIENTED_EDGE ( 'NONE', *, *, #387, .F. ) ;
#47 = CARTESIAN_POINT ( 'NONE',  ( -500.0000000000000000, 150.0000000000000600, -100.0000000000000000 ) ) ;
#48 = LINE ( 'NONE', #164, #172 ) ;
#49 = EDGE_CURVE ( 'NONE', #9, #390, #104, .T. ) ;
#50 = DIRECTION ( 'NONE',  ( 0.0000000000000000000, -0.0000000000000000000, 1.000000000000000000 ) ) ;
#51 = FACE_OUTER_BOUND ( 'NONE', #309, .T. ) ;
#52 = LINE ( 'NONE', #282, #440 ) ;
#53 = CARTESIAN_POINT ( 'NONE',  ( -1000.000000000000000, 0.0000000000000000000, 0.0000000000000000000 ) ) ;
#54 = CARTESIAN_POINT ( 'NONE',  ( 1000.000000000000000, -149.9999999999999700, -100.0000000000000000 ) ) ;
#55 = FACE_OUTER_BOUND ( 'NONE', #294, .T. ) ;
#56 = ADVANCED_FACE ( 'NONE', ( #213, #80 ), #199, .F. ) ;
#57 = CARTESIAN_POINT ( 'NONE',  ( 500.0000000000000000, -249.9999999999999700, 200.0000000000000000 ) ) ;
#58 = DIRECTION ( 'NONE',  ( 1.000000000000000000, 0.0000000000000000000, -0.0000000000000000000 ) ) ;
#59 = ADVANCED_FACE ( 'NONE', ( #117 ), #91, .F. ) ;
#60 = LINE ( 'NONE', #478, #378 ) ;
#61 = EDGE_CURVE ( 'NONE', #328, #24, #404, .T. ) ;
#62 = PRODUCT_DEFINITION_FORMATION_WITH_SPECIFIED_SOURCE ( 'ANY', '', #38, .NOT_KNOWN. ) ;
#63 = PRODUCT_DEFINITION_SHAPE ( 'NONE', 'NONE',  #15 ) ;
#64 = DIRECTION ( 'NONE',  ( 0.0000000000000000000, -1.000000000000000000, 0.0000000000000000000 ) ) ;
#65 = LINE ( 'NONE', #306, #151 ) ;
#66 = EDGE_LOOP ( 'NONE', ( #406, #276, #301, #486 ) ) ;
#67 = DIRECTION ( 'NONE',  ( 0.0000000000000000000, 0.0000000000000000000, 1.000000000000000000 ) ) ;
#68 = DIRECTION ( 'NONE',  ( 0.0000000000000000000, 0.0000000000000000000, 1.000000000000000000 ) ) ;
#69 = CARTESIAN_POINT ( 'NONE',  ( -500.0000000000000000, 250.0000000000000600, 200.0000000000000000 ) ) ;
#70 = AXIS2_PLACEMENT_3D ( 'NONE', #87, #123, #304 ) ;
#71 = PLANE ( 'NONE',  #216 ) ;
#72 = VERTEX_POINT ( 'NONE', #42 ) ;
#73 = PRODUCT_CONTEXT ( 'NONE', #366, 'mechanical' ) ;
#74 = AXIS2_PLACEMENT_3D ( 'NONE', #420, #93, #422 ) ;
#75 = CARTESIAN_POINT ( 'NONE',  ( 500.0000000000000000, -149.9999999999999700, 100.0000000000000000 ) ) ;
#76 = VERTEX_POINT ( 'NONE', #44 ) ;
#77 =( GEOMETRIC_REPRESENTATION_CONTEXT ( 3 ) GLOBAL_UNCERTAINTY_ASSIGNED_CONTEXT ( ( #147 ) ) GLOBAL_UNIT_ASSIGNED_CONTEXT ( ( #325, #30, #177 ) ) REPRESENTATION_CONTEXT ( 'NONE', 'WORKASPACE' ) );
#78 = LINE ( 'NONE', #169, #457 ) ;
#79 = ORIENTED_EDGE ( 'NONE', *, *, #252, .F. ) ;
#80 = FACE_BOUND ( 'NONE', #295, .T. ) ;
#81 = VERTEX_POINT ( 'NONE', #47 ) ;
#82 = EDGE_CURVE ( 'NONE', #163, #201, #65, .T. ) ;
#83 = LINE ( 'NONE', #54, #215 ) ;
#84 = EDGE_LOOP ( 'NONE', ( #435, #204, #373, #286 ) ) ;
#85 = CARTESIAN_POINT ( 'NONE',  ( 1000.000000000000000, 150.0000000000000600, -100.0000000000000000 ) ) ;
#86 = ORIENTED_EDGE ( 'NONE', *, *, #138, .F. ) ;
#87 = CARTESIAN_POINT ( 'NONE',  ( 1000.000000000000000, -149.9999999999999700, 100.0000000000000000 ) ) ;
#88 = ORIENTED_EDGE ( 'NONE', *, *, #61, .T. ) ;
#89 = EDGE_CURVE ( 'NONE', #474, #37, #460, .T. ) ;
#90 = ORIENTED_EDGE ( 'NONE', *, *, #305, .T. ) ;
#91 = PLANE ( 'NONE',  #339 ) ;
#92 = ORIENTED_EDGE ( 'NONE', *, *, #451, .T. ) ;
#93 = DIRECTION ( 'NONE',  ( 1.000000000000000000, 0.0000000000000000000, -0.0000000000000000000 ) ) ;
#94 = VECTOR ( 'NONE', #289, 1000.000000000000000 ) ;
#95 = LINE ( 'NONE', #384, #374 ) ;
#96 = AXIS2_PLACEMENT_3D ( 'NONE', #188, #68, #445 ) ;
#97 = DIRECTION ( 'NONE',  ( -1.000000000000000000, -0.0000000000000000000, -0.0000000000000000000 ) ) ;
#98 = CARTESIAN_POINT ( 'NONE',  ( -500.0000000000000000, -249.9999999999999700, -200.0000000000000300 ) ) ;
#99 = ORIENTED_EDGE ( 'NONE', *, *, #231, .T. ) ;
#100 = LINE ( 'NONE', #175, #253 ) ;
#101 = DIRECTION ( 'NONE',  ( 0.0000000000000000000, 1.387778780781445700E-016, -1.000000000000000000 ) ) ;
#102 = ORIENTED_EDGE ( 'NONE', *, *, #49, .T. ) ;
#103 = CARTESIAN_POINT ( 'NONE',  ( 500.0000000000000000, -149.9999999999999700, -100.0000000000000000 ) ) ;
#104 = LINE ( 'NONE', #198, #417 ) ;
#105 = DIRECTION ( 'NONE',  ( -1.000000000000000000, 0.0000000000000000000, -0.0000000000000000000 ) ) ;
#106 = FILL_AREA_STYLE_COLOUR ( '', #369 ) ;
#107 = CARTESIAN_POINT ( 'NONE',  ( 500.0000000000000000, 250.0000000000000600, -200.0000000000000300 ) ) ;
#108 = EDGE_CURVE ( 'NONE', #37, #163, #136, .T. ) ;
#109 = DIRECTION ( 'NONE',  ( 0.0000000000000000000, -0.0000000000000000000, -1.000000000000000000 ) ) ;
#110 = ORIENTED_EDGE ( 'NONE', *, *, #6, .T. ) ;
#111 = ADVANCED_FACE ( 'NONE', ( #423 ), #8, .F. ) ;
#112 = LINE ( 'NONE', #320, #192 ) ;
#113 = ORIENTED_EDGE ( 'NONE', *, *, #284, .T. ) ;
#114 = EDGE_CURVE ( 'NONE', #390, #474, #249, .T. ) ;
#115 = EDGE_LOOP ( 'NONE', ( #131, #102, #297, #430 ) ) ;
#116 = VERTEX_POINT ( 'NONE', #196 ) ;
#117 = FACE_OUTER_BOUND ( 'NONE', #4, .T. ) ;
#118 = AXIS2_PLACEMENT_3D ( 'NONE', #124, #265, #228 ) ;
#119 = FACE_OUTER_BOUND ( 'NONE', #66, .T. ) ;
#120 = DIRECTION ( 'NONE',  ( -1.000000000000000000, 0.0000000000000000000, -0.0000000000000000000 ) ) ;
#121 = MECHANICAL_DESIGN_GEOMETRIC_PRESENTATION_REPRESENTATION (  '', ( #7 ), #193 ) ;
#122 = EDGE_LOOP ( 'NONE', ( #485, #247, #343, #315 ) ) ;
#123 = DIRECTION ( 'NONE',  ( 0.0000000000000000000, 0.0000000000000000000, -1.000000000000000000 ) ) ;
#124 = CARTESIAN_POINT ( 'NONE',  ( 500.0000000000000000, 0.0000000000000000000, 0.0000000000000000000 ) ) ;
#125 = CARTESIAN_POINT ( 'NONE',  ( 1000.000000000000000, 150.0000000000000300, 100.0000000000000000 ) ) ;
#126 = AXIS2_PLACEMENT_3D ( 'NONE', #16, #278, #427 ) ;
#127 = CARTESIAN_POINT ( 'NONE',  ( 1000.000000000000000, 150.0000000000000600, -100.0000000000000000 ) ) ;
#128 = ORIENTED_EDGE ( 'NONE', *, *, #296, .F. ) ;
#129 = MANIFOLD_SOLID_BREP ( 'Ressalto-extrusão3', #36 ) ;
#130 = PLANE ( 'NONE',  #250 ) ;
#131 = ORIENTED_EDGE ( 'NONE', *, *, #407, .T. ) ;
#132 = DIRECTION ( 'NONE',  ( -0.0000000000000000000, -1.000000000000000000, -0.0000000000000000000 ) ) ;
#133 = LINE ( 'NONE', #385, #371 ) ;
#134 = CARTESIAN_POINT ( 'NONE',  ( 1000.000000000000000, 150.0000000000000600, -100.0000000000000000 ) ) ;
#135 = ORIENTED_EDGE ( 'NONE', *, *, #346, .T. ) ;
#136 = LINE ( 'NONE', #303, #351 ) ;
#137 = ADVANCED_FACE ( 'NONE', ( #5 ), #338, .T. ) ;
#138 = EDGE_CURVE ( 'NONE', #40, #24, #48, .T. ) ;
#139 = DIRECTION ( 'NONE',  ( 0.0000000000000000000, 1.000000000000000000, 0.0000000000000000000 ) ) ;
#140 =( NAMED_UNIT ( * ) SI_UNIT ( $, .STERADIAN. ) SOLID_ANGLE_UNIT ( ) );
#141 = ORIENTED_EDGE ( 'NONE', *, *, #149, .F. ) ;
#142 = CARTESIAN_POINT ( 'NONE',  ( 1000.000000000000000, -149.9999999999999700, -100.0000000000000000 ) ) ;
#143 = EDGE_CURVE ( 'NONE', #81, #40, #436, .T. ) ;
#144 = LINE ( 'NONE', #25, #3 ) ;
#145 = ADVANCED_FACE ( 'NONE', ( #55 ), #349, .F. ) ;
#146 = ORIENTED_EDGE ( 'NONE', *, *, #273, .F. ) ;
#147 = UNCERTAINTY_MEASURE_WITH_UNIT (LENGTH_MEASURE( 1.000000000000000100E-005 ), #325, 'distance_accuracy_value', 'NONE');
#148 = ORIENTED_EDGE ( 'NONE', *, *, #231, .F. ) ;
#149 = EDGE_CURVE ( 'NONE', #283, #232, #233, .T. ) ;
#150 = ORIENTED_EDGE ( 'NONE', *, *, #143, .F. ) ;
#151 = VECTOR ( 'NONE', #298, 1000.000000000000000 ) ;
#152 = FILL_AREA_STYLE_COLOUR ( '', #302 ) ;
#153 = SURFACE_STYLE_FILL_AREA ( #211 ) ;
#154 = VECTOR ( 'NONE', #352, 1000.000000000000000 ) ;
#155 = DIRECTION ( 'NONE',  ( -1.000000000000000000, -0.0000000000000000000, -0.0000000000000000000 ) ) ;
#156 = EDGE_CURVE ( 'NONE', #390, #283, #26, .T. ) ;
#157 = ORIENTED_EDGE ( 'NONE', *, *, #108, .T. ) ;
#158 = PRESENTATION_STYLE_ASSIGNMENT (( #39 ) ) ;
#159 = CARTESIAN_POINT ( 'NONE',  ( 500.0000000000000000, 150.0000000000000600, -100.0000000000000000 ) ) ;
#160 = ORIENTED_EDGE ( 'NONE', *, *, #370, .T. ) ;
#161 = LINE ( 'NONE', #23, #365 ) ;
#162 = CARTESIAN_POINT ( 'NONE',  ( 1000.000000000000000, 150.0000000000000600, -100.0000000000000000 ) ) ;
#163 = VERTEX_POINT ( 'NONE', #98 ) ;
#164 = CARTESIAN_POINT ( 'NONE',  ( -1000.000000000000000, 150.0000000000000600, -100.0000000000000000 ) ) ;
#165 = EDGE_CURVE ( 'NONE', #419, #327, #399, .T. ) ;
#166 = ORIENTED_EDGE ( 'NONE', *, *, #330, .F. ) ;
#167 = CARTESIAN_POINT ( 'NONE',  ( -1000.000000000000000, -149.9999999999999700, 100.0000000000000000 ) ) ;
#168 = VECTOR ( 'NONE', #179, 1000.000000000000000 ) ;
#169 = CARTESIAN_POINT ( 'NONE',  ( 1000.000000000000000, -149.9999999999999700, -100.0000000000000000 ) ) ;
#170 = ADVANCED_FACE ( 'NONE', ( #410 ), #345, .F. ) ;
#171 = VERTEX_POINT ( 'NONE', #431 ) ;
#172 = VECTOR ( 'NONE', #236, 1000.000000000000000 ) ;
#173 = DIRECTION ( 'NONE',  ( -1.000000000000000000, -0.0000000000000000000, -0.0000000000000000000 ) ) ;
#174 = CARTESIAN_POINT ( 'NONE',  ( -500.0000000000000000, 0.0000000000000000000, 0.0000000000000000000 ) ) ;
#175 = CARTESIAN_POINT ( 'NONE',  ( 1000.000000000000000, 150.0000000000000600, -100.0000000000000000 ) ) ;
#176 = EDGE_CURVE ( 'NONE', #171, #40, #133, .T. ) ;
#177 =( NAMED_UNIT ( * ) SI_UNIT ( $, .STERADIAN. ) SOLID_ANGLE_UNIT ( ) );
#178 = LINE ( 'NONE', #162, #32 ) ;
#179 = DIRECTION ( 'NONE',  ( -1.000000000000000000, -0.0000000000000000000, -0.0000000000000000000 ) ) ;
#180 = SURFACE_STYLE_USAGE ( .BOTH. , #400 ) ;
#181 = CARTESIAN_POINT ( 'NONE',  ( 500.0000000000000000, -249.9999999999999700, 200.0000000000000000 ) ) ;
#182 = ORIENTED_EDGE ( 'NONE', *, *, #391, .T. ) ;
#183 = VERTEX_POINT ( 'NONE', #134 ) ;
#184 = CARTESIAN_POINT ( 'NONE',  ( 500.0000000000000000, 250.0000000000000600, 200.0000000000000000 ) ) ;
#185 = LINE ( 'NONE', #425, #471 ) ;
#186 = ORIENTED_EDGE ( 'NONE', *, *, #108, .F. ) ;
#187 = EDGE_CURVE ( 'NONE', #467, #261, #43, .T. ) ;
#188 = CARTESIAN_POINT ( 'NONE',  ( 1000.000000000000000, -149.9999999999999700, -100.0000000000000000 ) ) ;
#189 = AXIS2_PLACEMENT_3D ( 'NONE', #53, #386, #13 ) ;
#190 = EDGE_CURVE ( 'NONE', #480, #453, #95, .T. ) ;
#191 = DIRECTION ( 'NONE',  ( -1.000000000000000000, -0.0000000000000000000, -0.0000000000000000000 ) ) ;
#192 = VECTOR ( 'NONE', #361, 1000.000000000000000 ) ;
#193 =( GEOMETRIC_REPRESENTATION_CONTEXT ( 3 ) GLOBAL_UNCERTAINTY_ASSIGNED_CONTEXT ( ( #458 ) ) GLOBAL_UNIT_ASSIGNED_CONTEXT ( ( #322, #214, #140 ) ) REPRESENTATION_CONTEXT ( 'NONE', 'WORKASPACE' ) );
#194 = DIRECTION ( 'NONE',  ( -0.0000000000000000000, -1.000000000000000000, -0.0000000000000000000 ) ) ;
#195 = ORIENTED_EDGE ( 'NONE', *, *, #284, .F. ) ;
#196 = CARTESIAN_POINT ( 'NONE',  ( 1000.000000000000000, 150.0000000000000300, 100.0000000000000000 ) ) ;
#197 = ORIENTED_EDGE ( 'NONE', *, *, #426, .F. ) ;
#198 = CARTESIAN_POINT ( 'NONE',  ( 500.0000000000000000, 250.0000000000000600, 200.0000000000000000 ) ) ;
#199 = PLANE ( 'NONE',  #118 ) ;
#200 = DIRECTION ( 'NONE',  ( 0.0000000000000000000, -0.0000000000000000000, 1.000000000000000000 ) ) ;
#201 = VERTEX_POINT ( 'NONE', #388 ) ;
#202 = DIRECTION ( 'NONE',  ( 0.0000000000000000000, -1.000000000000000000, -1.387778780781445700E-016 ) ) ;
#203 = VECTOR ( 'NONE', #248, 1000.000000000000000 ) ;
#204 = ORIENTED_EDGE ( 'NONE', *, *, #305, .F. ) ;
#205 = PLANE ( 'NONE',  #126 ) ;
#206 = VECTOR ( 'NONE', #194, 1000.000000000000000 ) ;
#207 = ADVANCED_FACE ( 'NONE', ( #312 ), #205, .F. ) ;
#208 = CARTESIAN_POINT ( 'NONE',  ( 1000.000000000000000, -149.9999999999999700, 100.0000000000000000 ) ) ;
#209 = EDGE_CURVE ( 'NONE', #328, #81, #274, .T. ) ;
#210 = DIRECTION ( 'NONE',  ( 0.0000000000000000000, -0.0000000000000000000, 1.000000000000000000 ) ) ;
#211 = FILL_AREA_STYLE ('',( #106 ) ) ;
#212 = DIRECTION ( 'NONE',  ( -1.000000000000000000, -0.0000000000000000000, -0.0000000000000000000 ) ) ;
#213 = FACE_OUTER_BOUND ( 'NONE', #115, .T. ) ;
#214 =( NAMED_UNIT ( * ) PLANE_ANGLE_UNIT ( ) SI_UNIT ( $, .RADIAN. ) );
#215 = VECTOR ( 'NONE', #235, 1000.000000000000000 ) ;
#216 = AXIS2_PLACEMENT_3D ( 'NONE', #174, #319, #368 ) ;
#217 = ORIENTED_EDGE ( 'NONE', *, *, #314, .F. ) ;
#218 = VECTOR ( 'NONE', #155, 1000.000000000000000 ) ;
#219 = ORIENTED_EDGE ( 'NONE', *, *, #165, .T. ) ;
#220 = AXIS2_PLACEMENT_3D ( 'NONE', #428, #202, #101 ) ;
#221 = ORIENTED_EDGE ( 'NONE', *, *, #35, .T. ) ;
#222 = EDGE_CURVE ( 'NONE', #183, #116, #178, .T. ) ;
#223 = CARTESIAN_POINT ( 'NONE',  ( 500.0000000000000000, 250.0000000000000600, -200.0000000000000300 ) ) ;
#224 = CARTESIAN_POINT ( 'NONE',  ( -1000.000000000000000, 150.0000000000000300, 100.0000000000000000 ) ) ;
#225 = ORIENTED_EDGE ( 'NONE', *, *, #426, .T. ) ;
#226 =( NAMED_UNIT ( * ) SI_UNIT ( $, .STERADIAN. ) SOLID_ANGLE_UNIT ( ) );
#227 = FACE_OUTER_BOUND ( 'NONE', #254, .T. ) ;
#228 = DIRECTION ( 'NONE',  ( 0.0000000000000000000, 0.0000000000000000000, 1.000000000000000000 ) ) ;
#229 = ADVANCED_BREP_SHAPE_REPRESENTATION ( 'rectangular_expansion_chamber', ( #129, #473 ), #77 ) ;
#230 = FILL_AREA_STYLE ('',( #152 ) ) ;
#231 = EDGE_CURVE ( 'NONE', #453, #72, #83, .T. ) ;
#232 = VERTEX_POINT ( 'NONE', #234 ) ;
#233 = LINE ( 'NONE', #464, #240 ) ;
#234 = CARTESIAN_POINT ( 'NONE',  ( 500.0000000000000000, -249.9999999999999700, -200.0000000000000300 ) ) ;
#235 = DIRECTION ( 'NONE',  ( -1.000000000000000000, -0.0000000000000000000, -0.0000000000000000000 ) ) ;
#236 = DIRECTION ( 'NONE',  ( 0.0000000000000000000, -1.387778780781445700E-016, 1.000000000000000000 ) ) ;
#237 = VECTOR ( 'NONE', #333, 1000.000000000000000 ) ;
#238 = STYLED_ITEM ( 'NONE', ( #158 ), #129 ) ;
#239 = ORIENTED_EDGE ( 'NONE', *, *, #335, .T. ) ;
#240 = VECTOR ( 'NONE', #241, 1000.000000000000000 ) ;
#241 = DIRECTION ( 'NONE',  ( 0.0000000000000000000, 0.0000000000000000000, -1.000000000000000000 ) ) ;
#242 = ORIENTED_EDGE ( 'NONE', *, *, #61, .F. ) ;
#243 = SHAPE_DEFINITION_REPRESENTATION ( #63, #229 ) ;
#244 = FACE_OUTER_BOUND ( 'NONE', #357, .T. ) ;
#245 = DIRECTION ( 'NONE',  ( 0.0000000000000000000, -0.0000000000000000000, 1.000000000000000000 ) ) ;
#246 = ADVANCED_FACE ( 'NONE', ( #465 ), #271, .F. ) ;
#247 = ORIENTED_EDGE ( 'NONE', *, *, #335, .F. ) ;
#248 = DIRECTION ( 'NONE',  ( -0.0000000000000000000, -1.000000000000000000, -0.0000000000000000000 ) ) ;
#249 = LINE ( 'NONE', #263, #218 ) ;
#250 = AXIS2_PLACEMENT_3D ( 'NONE', #12, #308, #347 ) ;
#251 = CARTESIAN_POINT ( 'NONE',  ( -500.0000000000000000, 150.0000000000000300, 100.0000000000000000 ) ) ;
#252 = EDGE_CURVE ( 'NONE', #76, #467, #185, .T. ) ;
#253 = VECTOR ( 'NONE', #212, 1000.000000000000000 ) ;
#254 = EDGE_LOOP ( 'NONE', ( #33, #197, #166, #239 ) ) ;
#255 = ADVANCED_FACE ( 'NONE', ( #119 ), #130, .F. ) ;
#256 = EDGE_LOOP ( 'NONE', ( #157, #146, #141, #350 ) ) ;
#257 = EDGE_LOOP ( 'NONE', ( #307, #148, #403, #225 ) ) ;
#258 = ORIENTED_EDGE ( 'NONE', *, *, #190, .T. ) ;
#259 = PLANE ( 'NONE',  #96 ) ;
#260 = LINE ( 'NONE', #208, #203 ) ;
#261 = VERTEX_POINT ( 'NONE', #167 ) ;
#262 = AXIS2_PLACEMENT_3D ( 'NONE', #85, #2, #342 ) ;
#263 = CARTESIAN_POINT ( 'NONE',  ( 500.0000000000000000, 250.0000000000000600, 200.0000000000000000 ) ) ;
#264 = EDGE_LOOP ( 'NONE', ( #411, #377, #447, #90 ) ) ;
#265 = DIRECTION ( 'NONE',  ( -1.000000000000000000, 0.0000000000000000000, 0.0000000000000000000 ) ) ;
#266 = VECTOR ( 'NONE', #173, 1000.000000000000000 ) ;
#267 = DIRECTION ( 'NONE',  ( -0.0000000000000000000, -0.0000000000000000000, 1.000000000000000000 ) ) ;
#268 = ORIENTED_EDGE ( 'NONE', *, *, #143, .T. ) ;
#269 = DIRECTION ( 'NONE',  ( 0.0000000000000000000, 1.387778780781445700E-016, -1.000000000000000000 ) ) ;
#270 = VECTOR ( 'NONE', #132, 1000.000000000000000 ) ;
#271 = PLANE ( 'NONE',  #424 ) ;
#272 = FACE_BOUND ( 'NONE', #17, .T. ) ;
#273 = EDGE_CURVE ( 'NONE', #232, #163, #334, .T. ) ;
#274 = LINE ( 'NONE', #466, #154 ) ;
#275 = CARTESIAN_POINT ( 'NONE',  ( 500.0000000000000000, -249.9999999999999700, 200.0000000000000000 ) ) ;
#276 = ORIENTED_EDGE ( 'NONE', *, *, #252, .T. ) ;
#277 = ORIENTED_EDGE ( 'NONE', *, *, #89, .T. ) ;
#278 = DIRECTION ( 'NONE',  ( 0.0000000000000000000, 0.0000000000000000000, 1.000000000000000000 ) ) ;
#279 = DIRECTION ( 'NONE',  ( 0.0000000000000000000, -1.387778780781445700E-016, 1.000000000000000000 ) ) ;
#280 = FACE_OUTER_BOUND ( 'NONE', #84, .T. ) ;
#281 = ADVANCED_FACE ( 'NONE', ( #348 ), #394, .F. ) ;
#282 = CARTESIAN_POINT ( 'NONE',  ( 500.0000000000000000, -249.9999999999999700, 200.0000000000000000 ) ) ;
#283 = VERTEX_POINT ( 'NONE', #181 ) ;
#284 = EDGE_CURVE ( 'NONE', #453, #183, #78, .T. ) ;
#285 = CARTESIAN_POINT ( 'NONE',  ( -500.0000000000000000, -149.9999999999999700, 100.0000000000000000 ) ) ;
#286 = ORIENTED_EDGE ( 'NONE', *, *, #273, .T. ) ;
#287 = DIRECTION ( 'NONE',  ( -1.000000000000000000, -0.0000000000000000000, -0.0000000000000000000 ) ) ;
#288 = CARTESIAN_POINT ( 'NONE',  ( 500.0000000000000000, -249.9999999999999700, 200.0000000000000000 ) ) ;
#289 = DIRECTION ( 'NONE',  ( -0.0000000000000000000, -1.000000000000000000, -0.0000000000000000000 ) ) ;
#290 = PLANE ( 'NONE',  #45 ) ;
#291 = EDGE_LOOP ( 'NONE', ( #344, #258, #113, #376 ) ) ;
#292 = ADVANCED_FACE ( 'NONE', ( #14 ), #290, .F. ) ;
#293 = LINE ( 'NONE', #358, #482 ) ;
#294 = EDGE_LOOP ( 'NONE', ( #242, #360, #268, #367 ) ) ;
#295 = EDGE_LOOP ( 'NONE', ( #135, #219, #221, #160 ) ) ;
#296 = EDGE_CURVE ( 'NONE', #81, #76, #355, .T. ) ;
#297 = ORIENTED_EDGE ( 'NONE', *, *, #156, .T. ) ;
#298 = DIRECTION ( 'NONE',  ( 0.0000000000000000000, 1.000000000000000000, 0.0000000000000000000 ) ) ;
#299 = LINE ( 'NONE', #103, #452 ) ;
#300 =( NAMED_UNIT ( * ) PLANE_ANGLE_UNIT ( ) SI_UNIT ( $, .RADIAN. ) );
#301 = ORIENTED_EDGE ( 'NONE', *, *, #187, .T. ) ;
#302 = COLOUR_RGB ( '',0.7921568627450980000, 0.8196078431372548800, 0.9333333333333333500 ) ;
#303 = CARTESIAN_POINT ( 'NONE',  ( -500.0000000000000000, -249.9999999999999700, 200.0000000000000000 ) ) ;
#304 = DIRECTION ( 'NONE',  ( -1.000000000000000000, 0.0000000000000000000, -0.0000000000000000000 ) ) ;
#305 = EDGE_CURVE ( 'NONE', #9, #201, #329, .T. ) ;
#306 = CARTESIAN_POINT ( 'NONE',  ( -500.0000000000000000, -249.9999999999999700, -200.0000000000000300 ) ) ;
#307 = ORIENTED_EDGE ( 'NONE', *, *, #346, .F. ) ;
#308 = DIRECTION ( 'NONE',  ( 0.0000000000000000000, 1.000000000000000000, 0.0000000000000000000 ) ) ;
#309 = EDGE_LOOP ( 'NONE', ( #331, #186, #29, #416 ) ) ;
#310 = DIRECTION ( 'NONE',  ( 0.0000000000000000000, 1.000000000000000000, 0.0000000000000000000 ) ) ;
#311 = PRESENTATION_LAYER_ASSIGNMENT (  '', '', ( #238 ) ) ;
#312 = FACE_OUTER_BOUND ( 'NONE', #476, .T. ) ;
#313 = SURFACE_STYLE_FILL_AREA ( #230 ) ;
#314 = EDGE_CURVE ( 'NONE', #183, #382, #100, .T. ) ;
#315 = ORIENTED_EDGE ( 'NONE', *, *, #314, .T. ) ;
#316 = PRESENTATION_STYLE_ASSIGNMENT (( #180 ) ) ;
#317 = CARTESIAN_POINT ( 'NONE',  ( 1000.000000000000000, -149.9999999999999700, 100.0000000000000000 ) ) ;
#318 = DIRECTION ( 'NONE',  ( 0.0000000000000000000, -1.000000000000000000, 0.0000000000000000000 ) ) ;
#319 = DIRECTION ( 'NONE',  ( -1.000000000000000000, 0.0000000000000000000, 0.0000000000000000000 ) ) ;
#320 = CARTESIAN_POINT ( 'NONE',  ( 500.0000000000000000, -149.9999999999999700, -100.0000000000000000 ) ) ;
#321 = ORIENTED_EDGE ( 'NONE', *, *, #391, .F. ) ;
#322 =( LENGTH_UNIT ( ) NAMED_UNIT ( * ) SI_UNIT ( .MILLI., .METRE. ) );
#323 = CARTESIAN_POINT ( 'NONE',  ( -500.0000000000000000, -149.9999999999999700, -100.0000000000000000 ) ) ;
#324 = CARTESIAN_POINT ( 'NONE',  ( 500.0000000000000000, 150.0000000000000600, -100.0000000000000000 ) ) ;
#325 =( LENGTH_UNIT ( ) NAMED_UNIT ( * ) SI_UNIT ( .MILLI., .METRE. ) );
#326 = APPLICATION_CONTEXT ( 'automotive_design' ) ;
#327 = VERTEX_POINT ( 'NONE', #401 ) ;
#328 = VERTEX_POINT ( 'NONE', #251 ) ;
#329 = LINE ( 'NONE', #107, #168 ) ;
#330 = EDGE_CURVE ( 'NONE', #116, #480, #260, .T. ) ;
#331 = ORIENTED_EDGE ( 'NONE', *, *, #82, .F. ) ;
#332 = VECTOR ( 'NONE', #463, 1000.000000000000000 ) ;
#333 = DIRECTION ( 'NONE',  ( -1.000000000000000000, -0.0000000000000000000, -0.0000000000000000000 ) ) ;
#334 = LINE ( 'NONE', #437, #266 ) ;
#335 = EDGE_CURVE ( 'NONE', #116, #327, #161, .T. ) ;
#336 = ORIENTED_EDGE ( 'NONE', *, *, #176, .T. ) ;
#337 =( LENGTH_UNIT ( ) NAMED_UNIT ( * ) SI_UNIT ( .MILLI., .METRE. ) );
#338 = PLANE ( 'NONE',  #74 ) ;
#339 = AXIS2_PLACEMENT_3D ( 'NONE', #461, #379, #120 ) ;
#340 = PRESENTATION_LAYER_ASSIGNMENT (  '', '', ( #7 ) ) ;
#341 = VECTOR ( 'NONE', #441, 1000.000000000000000 ) ;
#342 = DIRECTION ( 'NONE',  ( 0.0000000000000000000, 1.387778780781445700E-016, -1.000000000000000000 ) ) ;
#343 = ORIENTED_EDGE ( 'NONE', *, *, #222, .F. ) ;
#344 = ORIENTED_EDGE ( 'NONE', *, *, #330, .T. ) ;
#345 = PLANE ( 'NONE',  #189 ) ;
#346 = EDGE_CURVE ( 'NONE', #72, #419, #299, .T. ) ;
#347 = DIRECTION ( 'NONE',  ( 0.0000000000000000000, -0.0000000000000000000, 1.000000000000000000 ) ) ;
#348 = FACE_OUTER_BOUND ( 'NONE', #443, .T. ) ;
#349 = PLANE ( 'NONE',  #220 ) ;
#350 = ORIENTED_EDGE ( 'NONE', *, *, #375, .T. ) ;
#351 = VECTOR ( 'NONE', #10, 1000.000000000000000 ) ;
#352 = DIRECTION ( 'NONE',  ( 0.0000000000000000000, 1.387778780781445700E-016, -1.000000000000000000 ) ) ;
#353 = FACE_OUTER_BOUND ( 'NONE', #264, .T. ) ;
#354 = CARTESIAN_POINT ( 'NONE',  ( 1000.000000000000000, -149.9999999999999700, 100.0000000000000000 ) ) ;
#355 = LINE ( 'NONE', #323, #402 ) ;
#356 = PLANE ( 'NONE',  #450 ) ;
#357 = EDGE_LOOP ( 'NONE', ( #409, #217, #195, #99 ) ) ;
#358 = CARTESIAN_POINT ( 'NONE',  ( -500.0000000000000000, -149.9999999999999700, 100.0000000000000000 ) ) ;
#359 = DIRECTION ( 'NONE',  ( 0.0000000000000000000, 0.0000000000000000000, 1.000000000000000000 ) ) ;
#360 = ORIENTED_EDGE ( 'NONE', *, *, #209, .T. ) ;
#361 = DIRECTION ( 'NONE',  ( 0.0000000000000000000, -1.000000000000000000, 0.0000000000000000000 ) ) ;
#362 = CARTESIAN_POINT ( 'NONE',  ( 0.0000000000000000000, 0.0000000000000000000, 0.0000000000000000000 ) ) ;
#363 = DIRECTION ( 'NONE',  ( -0.0000000000000000000, -0.0000000000000000000, -1.000000000000000000 ) ) ;
#364 = CARTESIAN_POINT ( 'NONE',  ( -1000.000000000000000, -149.9999999999999700, 100.0000000000000000 ) ) ;
#365 = VECTOR ( 'NONE', #287, 1000.000000000000000 ) ;
#366 = APPLICATION_CONTEXT ( 'automotive_design' ) ;
#367 = ORIENTED_EDGE ( 'NONE', *, *, #138, .T. ) ;
#368 = DIRECTION ( 'NONE',  ( 0.0000000000000000000, 0.0000000000000000000, 1.000000000000000000 ) ) ;
#369 = COLOUR_RGB ( '',0.7921568627450980000, 0.8196078431372548800, 0.9333333333333333500 ) ;
#370 = EDGE_CURVE ( 'NONE', #382, #72, #112, .T. ) ;
#371 = VECTOR ( 'NONE', #310, 1000.000000000000000 ) ;
#372 = MECHANICAL_DESIGN_GEOMETRIC_PRESENTATION_REPRESENTATION (  '', ( #238 ), #418 ) ;
#373 = ORIENTED_EDGE ( 'NONE', *, *, #407, .F. ) ;
#374 = VECTOR ( 'NONE', #468, 1000.000000000000000 ) ;
#375 = EDGE_CURVE ( 'NONE', #283, #37, #52, .T. ) ;
#376 = ORIENTED_EDGE ( 'NONE', *, *, #222, .T. ) ;
#377 = ORIENTED_EDGE ( 'NONE', *, *, #114, .F. ) ;
#378 = VECTOR ( 'NONE', #28, 1000.000000000000000 ) ;
#379 = DIRECTION ( 'NONE',  ( 0.0000000000000000000, 0.0000000000000000000, -1.000000000000000000 ) ) ;
#380 = ORIENTED_EDGE ( 'NONE', *, *, #296, .T. ) ;
#381 = CARTESIAN_POINT ( 'NONE',  ( -500.0000000000000000, -249.9999999999999700, 200.0000000000000000 ) ) ;
#382 = VERTEX_POINT ( 'NONE', #324 ) ;
#383 = CARTESIAN_POINT ( 'NONE',  ( -500.0000000000000000, -249.9999999999999700, 200.0000000000000000 ) ) ;
#384 = CARTESIAN_POINT ( 'NONE',  ( 1000.000000000000000, -149.9999999999999700, -100.0000000000000000 ) ) ;
#385 = CARTESIAN_POINT ( 'NONE',  ( -1000.000000000000000, -149.9999999999999700, -100.0000000000000000 ) ) ;
#386 = DIRECTION ( 'NONE',  ( 1.000000000000000000, 0.0000000000000000000, -0.0000000000000000000 ) ) ;
#387 = EDGE_CURVE ( 'NONE', #261, #171, #144, .T. ) ;
#388 = CARTESIAN_POINT ( 'NONE',  ( -500.0000000000000000, 250.0000000000000600, -200.0000000000000300 ) ) ;
#389 = DIRECTION ( 'NONE',  ( -0.0000000000000000000, 1.000000000000000000, 0.0000000000000000000 ) ) ;
#390 = VERTEX_POINT ( 'NONE', #475 ) ;
#391 = EDGE_CURVE ( 'NONE', #467, #328, #293, .T. ) ;
#392 = LINE ( 'NONE', #408, #41 ) ;
#393 = ADVANCED_FACE ( 'NONE', ( #280 ), #356, .F. ) ;
#394 = PLANE ( 'NONE',  #397 ) ;
#395 = ORIENTED_EDGE ( 'NONE', *, *, #209, .F. ) ;
#396 = DIRECTION ( 'NONE',  ( -1.000000000000000000, -0.0000000000000000000, -0.0000000000000000000 ) ) ;
#397 = AXIS2_PLACEMENT_3D ( 'NONE', #288, #438, #105 ) ;
#398 = DIRECTION ( 'NONE',  ( 0.0000000000000000000, 1.000000000000000000, 0.0000000000000000000 ) ) ;
#399 = LINE ( 'NONE', #469, #444 ) ;
#400 = SURFACE_SIDE_STYLE ('',( #153 ) ) ;
#401 = CARTESIAN_POINT ( 'NONE',  ( 500.0000000000000000, 150.0000000000000300, 100.0000000000000000 ) ) ;
#402 = VECTOR ( 'NONE', #318, 1000.000000000000000 ) ;
#403 = ORIENTED_EDGE ( 'NONE', *, *, #190, .F. ) ;
#404 = LINE ( 'NONE', #125, #448 ) ;
#405 = UNCERTAINTY_MEASURE_WITH_UNIT (LENGTH_MEASURE( 1.000000000000000100E-005 ), #337, 'distance_accuracy_value', 'NONE');
#406 = ORIENTED_EDGE ( 'NONE', *, *, #6, .F. ) ;
#407 = EDGE_CURVE ( 'NONE', #232, #9, #60, .T. ) ;
#408 = CARTESIAN_POINT ( 'NONE',  ( 1000.000000000000000, -149.9999999999999700, -100.0000000000000000 ) ) ;
#409 = ORIENTED_EDGE ( 'NONE', *, *, #370, .F. ) ;
#410 = FACE_OUTER_BOUND ( 'NONE', #462, .T. ) ;
#411 = ORIENTED_EDGE ( 'NONE', *, *, #415, .T. ) ;
#412 = DIRECTION ( 'NONE',  ( -1.000000000000000000, -0.0000000000000000000, -0.0000000000000000000 ) ) ;
#413 = PRODUCT_RELATED_PRODUCT_CATEGORY ( 'part', '', ( #38 ) ) ;
#414 = VECTOR ( 'NONE', #97, 1000.000000000000000 ) ;
#415 = EDGE_CURVE ( 'NONE', #201, #474, #446, .T. ) ;
#416 = ORIENTED_EDGE ( 'NONE', *, *, #415, .F. ) ;
#417 = VECTOR ( 'NONE', #267, 1000.000000000000000 ) ;
#418 =( GEOMETRIC_REPRESENTATION_CONTEXT ( 3 ) GLOBAL_UNCERTAINTY_ASSIGNED_CONTEXT ( ( #405 ) ) GLOBAL_UNIT_ASSIGNED_CONTEXT ( ( #337, #300, #226 ) ) REPRESENTATION_CONTEXT ( 'NONE', 'WORKASPACE' ) );
#419 = VERTEX_POINT ( 'NONE', #75 ) ;
#420 = CARTESIAN_POINT ( 'NONE',  ( 1000.000000000000000, 0.0000000000000000000, 0.0000000000000000000 ) ) ;
#421 = ORIENTED_EDGE ( 'NONE', *, *, #451, .F. ) ;
#422 = DIRECTION ( 'NONE',  ( -0.0000000000000000000, 0.0000000000000000000, -1.000000000000000000 ) ) ;
#423 = FACE_OUTER_BOUND ( 'NONE', #122, .T. ) ;
#424 = AXIS2_PLACEMENT_3D ( 'NONE', #275, #389, #50 ) ;
#425 = CARTESIAN_POINT ( 'NONE',  ( -500.0000000000000000, -149.9999999999999700, -100.0000000000000000 ) ) ;
#426 = EDGE_CURVE ( 'NONE', #480, #419, #434, .T. ) ;
#427 = DIRECTION ( 'NONE',  ( 1.000000000000000000, 0.0000000000000000000, -0.0000000000000000000 ) ) ;
#428 = CARTESIAN_POINT ( 'NONE',  ( 1000.000000000000000, 150.0000000000000600, -100.0000000000000000 ) ) ;
#429 = AXIS2_PLACEMENT_3D ( 'NONE', #184, #64, #109 ) ;
#430 = ORIENTED_EDGE ( 'NONE', *, *, #149, .T. ) ;
#431 = CARTESIAN_POINT ( 'NONE',  ( -1000.000000000000000, -149.9999999999999700, -100.0000000000000000 ) ) ;
#432 = ADVANCED_FACE ( 'NONE', ( #244 ), #259, .F. ) ;
#433 = DIRECTION ( 'NONE',  ( 0.0000000000000000000, 1.000000000000000000, 0.0000000000000000000 ) ) ;
#434 = LINE ( 'NONE', #317, #237 ) ;
#435 = ORIENTED_EDGE ( 'NONE', *, *, #82, .T. ) ;
#436 = LINE ( 'NONE', #127, #332 ) ;
#437 = CARTESIAN_POINT ( 'NONE',  ( 500.0000000000000000, -249.9999999999999700, -200.0000000000000300 ) ) ;
#438 = DIRECTION ( 'NONE',  ( 0.0000000000000000000, 0.0000000000000000000, -1.000000000000000000 ) ) ;
#439 = CARTESIAN_POINT ( 'NONE',  ( 1000.000000000000000, -149.9999999999999700, 100.0000000000000000 ) ) ;
#440 = VECTOR ( 'NONE', #396, 1000.000000000000000 ) ;
#441 = DIRECTION ( 'NONE',  ( -0.0000000000000000000, -0.0000000000000000000, 1.000000000000000000 ) ) ;
#442 = APPLICATION_PROTOCOL_DEFINITION ( 'draft international standard', 'automotive_design', 1998, #326 ) ;
#443 = EDGE_LOOP ( 'NONE', ( #277, #449, #20, #459 ) ) ;
#444 = VECTOR ( 'NONE', #11, 1000.000000000000000 ) ;
#445 = DIRECTION ( 'NONE',  ( 1.000000000000000000, 0.0000000000000000000, -0.0000000000000000000 ) ) ;
#446 = LINE ( 'NONE', #69, #341 ) ;
#447 = ORIENTED_EDGE ( 'NONE', *, *, #49, .F. ) ;
#448 = VECTOR ( 'NONE', #191, 1000.000000000000000 ) ;
#449 = ORIENTED_EDGE ( 'NONE', *, *, #375, .F. ) ;
#450 = AXIS2_PLACEMENT_3D ( 'NONE', #472, #67, #58 ) ;
#451 = EDGE_CURVE ( 'NONE', #24, #261, #31, .T. ) ;
#452 = VECTOR ( 'NONE', #245, 1000.000000000000000 ) ;
#453 = VERTEX_POINT ( 'NONE', #142 ) ;
#454 = PLANE ( 'NONE',  #70 ) ;
#455 = SURFACE_SIDE_STYLE ('',( #313 ) ) ;
#456 = CARTESIAN_POINT ( 'NONE',  ( -1000.000000000000000, 150.0000000000000600, -100.0000000000000000 ) ) ;
#457 = VECTOR ( 'NONE', #433, 1000.000000000000000 ) ;
#458 = UNCERTAINTY_MEASURE_WITH_UNIT (LENGTH_MEASURE( 1.000000000000000100E-005 ), #322, 'distance_accuracy_value', 'NONE');
#459 = ORIENTED_EDGE ( 'NONE', *, *, #114, .T. ) ;
#460 = LINE ( 'NONE', #381, #206 ) ;
#461 = CARTESIAN_POINT ( 'NONE',  ( 1000.000000000000000, -149.9999999999999700, 100.0000000000000000 ) ) ;
#462 = EDGE_LOOP ( 'NONE', ( #421, #86, #483, #46 ) ) ;
#463 = DIRECTION ( 'NONE',  ( -1.000000000000000000, -0.0000000000000000000, -0.0000000000000000000 ) ) ;
#464 = CARTESIAN_POINT ( 'NONE',  ( 500.0000000000000000, -249.9999999999999700, 200.0000000000000000 ) ) ;
#465 = FACE_OUTER_BOUND ( 'NONE', #256, .T. ) ;
#466 = CARTESIAN_POINT ( 'NONE',  ( -500.0000000000000000, 150.0000000000000600, -100.0000000000000000 ) ) ;
#467 = VERTEX_POINT ( 'NONE', #285 ) ;
#468 = DIRECTION ( 'NONE',  ( -0.0000000000000000000, -0.0000000000000000000, -1.000000000000000000 ) ) ;
#469 = CARTESIAN_POINT ( 'NONE',  ( 500.0000000000000000, -149.9999999999999700, 100.0000000000000000 ) ) ;
#470 = ADVANCED_FACE ( 'NONE', ( #51, #272 ), #71, .T. ) ;
#471 = VECTOR ( 'NONE', #200, 1000.000000000000000 ) ;
#472 = CARTESIAN_POINT ( 'NONE',  ( 500.0000000000000000, -249.9999999999999700, -200.0000000000000300 ) ) ;
#473 = AXIS2_PLACEMENT_3D ( 'NONE', #362, #359, #477 ) ;
#474 = VERTEX_POINT ( 'NONE', #479 ) ;
#475 = CARTESIAN_POINT ( 'NONE',  ( 500.0000000000000000, 250.0000000000000600, 200.0000000000000000 ) ) ;
#476 = EDGE_LOOP ( 'NONE', ( #150, #380, #110, #336 ) ) ;
#477 = DIRECTION ( 'NONE',  ( 1.000000000000000000, 0.0000000000000000000, 0.0000000000000000000 ) ) ;
#478 = CARTESIAN_POINT ( 'NONE',  ( 500.0000000000000000, -249.9999999999999700, -200.0000000000000300 ) ) ;
#479 = CARTESIAN_POINT ( 'NONE',  ( -500.0000000000000000, 250.0000000000000600, 200.0000000000000000 ) ) ;
#480 = VERTEX_POINT ( 'NONE', #439 ) ;
#481 = ADVANCED_FACE ( 'NONE', ( #353 ), #27, .F. ) ;
#482 = VECTOR ( 'NONE', #398, 1000.000000000000000 ) ;
#483 = ORIENTED_EDGE ( 'NONE', *, *, #176, .F. ) ;
#484 = PRODUCT_DEFINITION_CONTEXT ( 'detailed design', #326, 'design' ) ;
#485 = ORIENTED_EDGE ( 'NONE', *, *, #35, .F. ) ;
#486 = ORIENTED_EDGE ( 'NONE', *, *, #387, .T. ) ;
ENDSEC;
END-ISO-10303-21;
