ISO-10303-21;
HEADER;
FILE_DESCRIPTION (( 'STEP AP214' ),
    '1' );
FILE_NAME ('rectangular_cavity.STEP',
    '2025-09-16T20:25:35',
    ( '' ),
    ( '' ),
    'SwSTEP 2.0',
    'SolidWorks 2015',
    '' );
FILE_SCHEMA (( 'AUTOMOTIVE_DESIGN' ));
ENDSEC;

DATA;
#1 = FILL_AREA_STYLE_COLOUR ( '', #148 ) ;
#2 =( NAMED_UNIT ( * ) SI_UNIT ( $, .STERADIAN. ) SOLID_ANGLE_UNIT ( ) );
#3 = DIRECTION ( 'NONE',  ( -0.0000000000000000000, 0.0000000000000000000, -1.000000000000000000 ) ) ;
#4 = ORIENTED_EDGE ( 'NONE', *, *, #37, .T. ) ;
#5 = FILL_AREA_STYLE_COLOUR ( '', #10 ) ;
#6 = CARTESIAN_POINT ( 'NONE',  ( 1000.000000000000000, -149.9999999999999700, 100.0000000000000000 ) ) ;
#7 = EDGE_LOOP ( 'NONE', ( #54, #159, #163, #105 ) ) ;
#8 = STYLED_ITEM ( 'NONE', ( #195 ), #137 ) ;
#9 = EDGE_LOOP ( 'NONE', ( #167, #180, #103, #102 ) ) ;
#10 = COLOUR_RGB ( '',0.7921568627450980000, 0.8196078431372548800, 0.9333333333333333500 ) ;
#11 = ADVANCED_FACE ( 'NONE', ( #14 ), #200, .F. ) ;
#12 = ORIENTED_EDGE ( 'NONE', *, *, #39, .T. ) ;
#13 = PRESENTATION_LAYER_ASSIGNMENT (  '', '', ( #8 ) ) ;
#14 = FACE_OUTER_BOUND ( 'NONE', #9, .T. ) ;
#15 = LINE ( 'NONE', #97, #35 ) ;
#16 = DIRECTION ( 'NONE',  ( 0.0000000000000000000, -1.387778780781445700E-016, 1.000000000000000000 ) ) ;
#17 = CARTESIAN_POINT ( 'NONE',  ( -1000.000000000000000, 0.0000000000000000000, 0.0000000000000000000 ) ) ;
#18 = DIRECTION ( 'NONE',  ( -1.000000000000000000, -0.0000000000000000000, -0.0000000000000000000 ) ) ;
#19 = MECHANICAL_DESIGN_GEOMETRIC_PRESENTATION_REPRESENTATION (  '', ( #28 ), #60 ) ;
#20 = FILL_AREA_STYLE ('',( #1 ) ) ;
#21 = LINE ( 'NONE', #91, #156 ) ;
#22 = DIRECTION ( 'NONE',  ( 0.0000000000000000000, -1.387778780781445700E-016, 1.000000000000000000 ) ) ;
#23 = VECTOR ( 'NONE', #38, 1000.000000000000000 ) ;
#24 =( LENGTH_UNIT ( ) NAMED_UNIT ( * ) SI_UNIT ( .MILLI., .METRE. ) );
#25 = DIRECTION ( 'NONE',  ( 0.0000000000000000000, -0.0000000000000000000, 1.000000000000000000 ) ) ;
#26 = SURFACE_STYLE_FILL_AREA ( #20 ) ;
#27 = ORIENTED_EDGE ( 'NONE', *, *, #166, .T. ) ;
#28 = STYLED_ITEM ( 'NONE', ( #181 ), #173 ) ;
#29 = VERTEX_POINT ( 'NONE', #32 ) ;
#30 =( GEOMETRIC_REPRESENTATION_CONTEXT ( 3 ) GLOBAL_UNCERTAINTY_ASSIGNED_CONTEXT ( ( #47 ) ) GLOBAL_UNIT_ASSIGNED_CONTEXT ( ( #139, #66, #2 ) ) REPRESENTATION_CONTEXT ( 'NONE', 'WORKASPACE' ) );
#31 = EDGE_LOOP ( 'NONE', ( #12, #44, #56, #199 ) ) ;
#32 = CARTESIAN_POINT ( 'NONE',  ( -1000.000000000000000, -149.9999999999999700, -100.0000000000000000 ) ) ;
#33 = CARTESIAN_POINT ( 'NONE',  ( -1000.000000000000000, 150.0000000000000600, -100.0000000000000000 ) ) ;
#34 = PLANE ( 'NONE',  #101 ) ;
#35 = VECTOR ( 'NONE', #109, 1000.000000000000000 ) ;
#36 = DIRECTION ( 'NONE',  ( 0.0000000000000000000, 1.000000000000000000, 0.0000000000000000000 ) ) ;
#37 = EDGE_CURVE ( 'NONE', #147, #89, #176, .T. ) ;
#38 = DIRECTION ( 'NONE',  ( 0.0000000000000000000, 1.000000000000000000, 0.0000000000000000000 ) ) ;
#39 = EDGE_CURVE ( 'NONE', #147, #170, #21, .T. ) ;
#40 = VECTOR ( 'NONE', #187, 1000.000000000000000 ) ;
#41 = ADVANCED_FACE ( 'NONE', ( #121 ), #165, .F. ) ;
#42 = FACE_OUTER_BOUND ( 'NONE', #53, .T. ) ;
#43 =( NAMED_UNIT ( * ) PLANE_ANGLE_UNIT ( ) SI_UNIT ( $, .RADIAN. ) );
#44 = ORIENTED_EDGE ( 'NONE', *, *, #179, .T. ) ;
#45 = EDGE_CURVE ( 'NONE', #186, #29, #117, .T. ) ;
#46 = CARTESIAN_POINT ( 'NONE',  ( 1000.000000000000000, 150.0000000000000600, -100.0000000000000000 ) ) ;
#47 = UNCERTAINTY_MEASURE_WITH_UNIT (LENGTH_MEASURE( 1.000000000000000100E-005 ), #139, 'distance_accuracy_value', 'NONE');
#48 = AXIS2_PLACEMENT_3D ( 'NONE', #188, #168, #3 ) ;
#49 = CARTESIAN_POINT ( 'NONE',  ( -1000.000000000000000, -149.9999999999999700, -100.0000000000000000 ) ) ;
#50 = EDGE_LOOP ( 'NONE', ( #27, #95, #64, #100 ) ) ;
#51 = LINE ( 'NONE', #49, #40 ) ;
#52 = DIRECTION ( 'NONE',  ( -1.000000000000000000, -0.0000000000000000000, -0.0000000000000000000 ) ) ;
#53 = EDGE_LOOP ( 'NONE', ( #4, #183, #145, #76 ) ) ;
#54 = ORIENTED_EDGE ( 'NONE', *, *, #65, .F. ) ;
#55 = FACE_OUTER_BOUND ( 'NONE', #31, .T. ) ;
#56 = ORIENTED_EDGE ( 'NONE', *, *, #191, .T. ) ;
#57 = PRODUCT_DEFINITION_FORMATION_WITH_SPECIFIED_SOURCE ( 'ANY', '', #93, .NOT_KNOWN. ) ;
#58 = EDGE_CURVE ( 'NONE', #29, #86, #113, .T. ) ;
#59 = CLOSED_SHELL ( 'NONE', ( #120, #160, #104, #11, #162, #41 ) ) ;
#60 =( GEOMETRIC_REPRESENTATION_CONTEXT ( 3 ) GLOBAL_UNCERTAINTY_ASSIGNED_CONTEXT ( ( #119 ) ) GLOBAL_UNIT_ASSIGNED_CONTEXT ( ( #155, #43, #178 ) ) REPRESENTATION_CONTEXT ( 'NONE', 'WORKASPACE' ) );
#61 = EDGE_CURVE ( 'NONE', #86, #89, #190, .T. ) ;
#62 = LINE ( 'NONE', #140, #71 ) ;
#63 = DIRECTION ( 'NONE',  ( 0.0000000000000000000, 1.387778780781445700E-016, -1.000000000000000000 ) ) ;
#64 = ORIENTED_EDGE ( 'NONE', *, *, #45, .F. ) ;
#65 = EDGE_CURVE ( 'NONE', #89, #70, #84, .T. ) ;
#66 =( NAMED_UNIT ( * ) PLANE_ANGLE_UNIT ( ) SI_UNIT ( $, .RADIAN. ) );
#67 = DIRECTION ( 'NONE',  ( 0.0000000000000000000, 0.0000000000000000000, 1.000000000000000000 ) ) ;
#68 = ORIENTED_EDGE ( 'NONE', *, *, #98, .F. ) ;
#69 = CARTESIAN_POINT ( 'NONE',  ( 1000.000000000000000, -149.9999999999999700, -100.0000000000000000 ) ) ;
#70 = VERTEX_POINT ( 'NONE', #90 ) ;
#71 = VECTOR ( 'NONE', #18, 1000.000000000000000 ) ;
#72 = SHAPE_DEFINITION_REPRESENTATION ( #82, #173 ) ;
#73 = VECTOR ( 'NONE', #185, 1000.000000000000000 ) ;
#74 = PRODUCT_RELATED_PRODUCT_CATEGORY ( 'part', '', ( #93 ) ) ;
#75 = CARTESIAN_POINT ( 'NONE',  ( -1000.000000000000000, 150.0000000000000600, -100.0000000000000000 ) ) ;
#76 = ORIENTED_EDGE ( 'NONE', *, *, #39, .F. ) ;
#77 = DIRECTION ( 'NONE',  ( 0.0000000000000000000, -1.000000000000000000, -1.387778780781445700E-016 ) ) ;
#78 = CARTESIAN_POINT ( 'NONE',  ( 1000.000000000000000, 150.0000000000000300, 100.0000000000000000 ) ) ;
#79 = CARTESIAN_POINT ( 'NONE',  ( 1000.000000000000000, -149.9999999999999700, -100.0000000000000000 ) ) ;
#80 =( NAMED_UNIT ( * ) SI_UNIT ( $, .STERADIAN. ) SOLID_ANGLE_UNIT ( ) );
#81 = SURFACE_SIDE_STYLE ('',( #154 ) ) ;
#82 = PRODUCT_DEFINITION_SHAPE ( 'NONE', 'NONE',  #152 ) ;
#83 =( NAMED_UNIT ( * ) PLANE_ANGLE_UNIT ( ) SI_UNIT ( $, .RADIAN. ) );
#84 = LINE ( 'NONE', #202, #194 ) ;
#85 = CARTESIAN_POINT ( 'NONE',  ( 1000.000000000000000, 150.0000000000000300, 100.0000000000000000 ) ) ;
#86 = VERTEX_POINT ( 'NONE', #75 ) ;
#87 = EDGE_CURVE ( 'NONE', #127, #147, #118, .T. ) ;
#88 = MECHANICAL_DESIGN_GEOMETRIC_PRESENTATION_REPRESENTATION (  '', ( #8 ), #196 ) ;
#89 = VERTEX_POINT ( 'NONE', #198 ) ;
#90 = CARTESIAN_POINT ( 'NONE',  ( -1000.000000000000000, -149.9999999999999700, 100.0000000000000000 ) ) ;
#91 = CARTESIAN_POINT ( 'NONE',  ( 1000.000000000000000, -149.9999999999999700, 100.0000000000000000 ) ) ;
#92 = DIRECTION ( 'NONE',  ( -1.000000000000000000, -0.0000000000000000000, -0.0000000000000000000 ) ) ;
#93 = PRODUCT ( 'rectangular_cavity', 'rectangular_cavity', '', ( #99 ) ) ;
#94 = PLANE ( 'NONE',  #48 ) ;
#95 = ORIENTED_EDGE ( 'NONE', *, *, #115, .T. ) ;
#96 = DIRECTION ( 'NONE',  ( 1.000000000000000000, 0.0000000000000000000, -0.0000000000000000000 ) ) ;
#97 = CARTESIAN_POINT ( 'NONE',  ( 1000.000000000000000, -149.9999999999999700, -100.0000000000000000 ) ) ;
#98 = EDGE_CURVE ( 'NONE', #127, #86, #135, .T. ) ;
#99 = PRODUCT_CONTEXT ( 'NONE', #111, 'mechanical' ) ;
#100 = ORIENTED_EDGE ( 'NONE', *, *, #179, .F. ) ;
#101 = AXIS2_PLACEMENT_3D ( 'NONE', #143, #172, #126 ) ;
#102 = ORIENTED_EDGE ( 'NONE', *, *, #87, .F. ) ;
#103 = ORIENTED_EDGE ( 'NONE', *, *, #37, .F. ) ;
#104 = ADVANCED_FACE ( 'NONE', ( #141 ), #157, .F. ) ;
#105 = ORIENTED_EDGE ( 'NONE', *, *, #115, .F. ) ;
#106 = DIRECTION ( 'NONE',  ( -1.000000000000000000, -0.0000000000000000000, -0.0000000000000000000 ) ) ;
#107 = DIRECTION ( 'NONE',  ( -0.0000000000000000000, 0.0000000000000000000, -1.000000000000000000 ) ) ;
#108 = CARTESIAN_POINT ( 'NONE',  ( -1000.000000000000000, -149.9999999999999700, -100.0000000000000000 ) ) ;
#109 = DIRECTION ( 'NONE',  ( -0.0000000000000000000, -0.0000000000000000000, -1.000000000000000000 ) ) ;
#110 = APPLICATION_PROTOCOL_DEFINITION ( 'draft international standard', 'automotive_design', 1998, #111 ) ;
#111 = APPLICATION_CONTEXT ( 'automotive_design' ) ;
#112 = SURFACE_STYLE_USAGE ( .BOTH. , #81 ) ;
#113 = LINE ( 'NONE', #108, #73 ) ;
#114 = CARTESIAN_POINT ( 'NONE',  ( 1000.000000000000000, -149.9999999999999700, -100.0000000000000000 ) ) ;
#115 = EDGE_CURVE ( 'NONE', #70, #29, #51, .T. ) ;
#116 = FACE_OUTER_BOUND ( 'NONE', #50, .T. ) ;
#117 = LINE ( 'NONE', #201, #151 ) ;
#118 = LINE ( 'NONE', #164, #177 ) ;
#119 = UNCERTAINTY_MEASURE_WITH_UNIT (LENGTH_MEASURE( 1.000000000000000100E-005 ), #155, 'distance_accuracy_value', 'NONE');
#120 = ADVANCED_FACE ( 'NONE', ( #42 ), #34, .F. ) ;
#121 = FACE_OUTER_BOUND ( 'NONE', #7, .T. ) ;
#122 = VECTOR ( 'NONE', #16, 1000.000000000000000 ) ;
#123 = DIRECTION ( 'NONE',  ( -0.0000000000000000000, -1.000000000000000000, -0.0000000000000000000 ) ) ;
#124 = PRODUCT_DEFINITION_CONTEXT ( 'detailed design', #174, 'design' ) ;
#125 = SURFACE_SIDE_STYLE ('',( #26 ) ) ;
#126 = DIRECTION ( 'NONE',  ( -1.000000000000000000, 0.0000000000000000000, -0.0000000000000000000 ) ) ;
#127 = VERTEX_POINT ( 'NONE', #189 ) ;
#128 = CARTESIAN_POINT ( 'NONE',  ( 1000.000000000000000, -149.9999999999999700, -100.0000000000000000 ) ) ;
#129 = PLANE ( 'NONE',  #175 ) ;
#130 = ORIENTED_EDGE ( 'NONE', *, *, #191, .F. ) ;
#131 = DIRECTION ( 'NONE',  ( 1.000000000000000000, 0.0000000000000000000, 0.0000000000000000000 ) ) ;
#132 = ORIENTED_EDGE ( 'NONE', *, *, #58, .T. ) ;
#133 = AXIS2_PLACEMENT_3D ( 'NONE', #69, #67, #96 ) ;
#134 = VECTOR ( 'NONE', #92, 1000.000000000000000 ) ;
#135 = LINE ( 'NONE', #153, #138 ) ;
#136 = EDGE_LOOP ( 'NONE', ( #150, #132, #68, #130 ) ) ;
#137 = MANIFOLD_SOLID_BREP ( 'Ressalto-extrusão2', #59 ) ;
#138 = VECTOR ( 'NONE', #52, 1000.000000000000000 ) ;
#139 =( LENGTH_UNIT ( ) NAMED_UNIT ( * ) SI_UNIT ( .MILLI., .METRE. ) );
#140 = CARTESIAN_POINT ( 'NONE',  ( 1000.000000000000000, -149.9999999999999700, 100.0000000000000000 ) ) ;
#141 = FACE_OUTER_BOUND ( 'NONE', #136, .T. ) ;
#142 = SURFACE_STYLE_USAGE ( .BOTH. , #125 ) ;
#143 = CARTESIAN_POINT ( 'NONE',  ( 1000.000000000000000, -149.9999999999999700, 100.0000000000000000 ) ) ;
#144 = CARTESIAN_POINT ( 'NONE',  ( 0.0000000000000000000, 0.0000000000000000000, 0.0000000000000000000 ) ) ;
#145 = ORIENTED_EDGE ( 'NONE', *, *, #166, .F. ) ;
#146 = AXIS2_PLACEMENT_3D ( 'NONE', #144, #192, #131 ) ;
#147 = VERTEX_POINT ( 'NONE', #85 ) ;
#148 = COLOUR_RGB ( '',0.7921568627450980000, 0.8196078431372548800, 0.9333333333333333500 ) ;
#149 = UNCERTAINTY_MEASURE_WITH_UNIT (LENGTH_MEASURE( 1.000000000000000100E-005 ), #24, 'distance_accuracy_value', 'NONE');
#150 = ORIENTED_EDGE ( 'NONE', *, *, #45, .T. ) ;
#151 = VECTOR ( 'NONE', #106, 1000.000000000000000 ) ;
#152 = PRODUCT_DEFINITION ( 'UNKNOWN', '', #57, #124 ) ;
#153 = CARTESIAN_POINT ( 'NONE',  ( 1000.000000000000000, 150.0000000000000600, -100.0000000000000000 ) ) ;
#154 = SURFACE_STYLE_FILL_AREA ( #169 ) ;
#155 =( LENGTH_UNIT ( ) NAMED_UNIT ( * ) SI_UNIT ( .MILLI., .METRE. ) );
#156 = VECTOR ( 'NONE', #182, 1000.000000000000000 ) ;
#157 = PLANE ( 'NONE',  #133 ) ;
#158 = AXIS2_PLACEMENT_3D ( 'NONE', #46, #77, #63 ) ;
#159 = ORIENTED_EDGE ( 'NONE', *, *, #61, .F. ) ;
#160 = ADVANCED_FACE ( 'NONE', ( #116 ), #129, .F. ) ;
#161 = APPLICATION_PROTOCOL_DEFINITION ( 'draft international standard', 'automotive_design', 1998, #174 ) ;
#162 = ADVANCED_FACE ( 'NONE', ( #55 ), #94, .T. ) ;
#163 = ORIENTED_EDGE ( 'NONE', *, *, #58, .F. ) ;
#164 = CARTESIAN_POINT ( 'NONE',  ( 1000.000000000000000, 150.0000000000000600, -100.0000000000000000 ) ) ;
#165 = PLANE ( 'NONE',  #193 ) ;
#166 = EDGE_CURVE ( 'NONE', #170, #70, #62, .T. ) ;
#167 = ORIENTED_EDGE ( 'NONE', *, *, #98, .T. ) ;
#168 = DIRECTION ( 'NONE',  ( 1.000000000000000000, 0.0000000000000000000, -0.0000000000000000000 ) ) ;
#169 = FILL_AREA_STYLE ('',( #5 ) ) ;
#170 = VERTEX_POINT ( 'NONE', #6 ) ;
#171 = LINE ( 'NONE', #79, #23 ) ;
#172 = DIRECTION ( 'NONE',  ( 0.0000000000000000000, 0.0000000000000000000, -1.000000000000000000 ) ) ;
#173 = ADVANCED_BREP_SHAPE_REPRESENTATION ( 'rectangular_cavity', ( #137, #146 ), #30 ) ;
#174 = APPLICATION_CONTEXT ( 'automotive_design' ) ;
#175 = AXIS2_PLACEMENT_3D ( 'NONE', #128, #36, #25 ) ;
#176 = LINE ( 'NONE', #78, #134 ) ;
#177 = VECTOR ( 'NONE', #22, 1000.000000000000000 ) ;
#178 =( NAMED_UNIT ( * ) SI_UNIT ( $, .STERADIAN. ) SOLID_ANGLE_UNIT ( ) );
#179 = EDGE_CURVE ( 'NONE', #170, #186, #15, .T. ) ;
#180 = ORIENTED_EDGE ( 'NONE', *, *, #61, .T. ) ;
#181 = PRESENTATION_STYLE_ASSIGNMENT (( #142 ) ) ;
#182 = DIRECTION ( 'NONE',  ( -0.0000000000000000000, -1.000000000000000000, -0.0000000000000000000 ) ) ;
#183 = ORIENTED_EDGE ( 'NONE', *, *, #65, .T. ) ;
#184 = DIRECTION ( 'NONE',  ( 1.000000000000000000, 0.0000000000000000000, -0.0000000000000000000 ) ) ;
#185 = DIRECTION ( 'NONE',  ( 0.0000000000000000000, 1.000000000000000000, 0.0000000000000000000 ) ) ;
#186 = VERTEX_POINT ( 'NONE', #114 ) ;
#187 = DIRECTION ( 'NONE',  ( -0.0000000000000000000, -0.0000000000000000000, -1.000000000000000000 ) ) ;
#188 = CARTESIAN_POINT ( 'NONE',  ( 1000.000000000000000, 0.0000000000000000000, 0.0000000000000000000 ) ) ;
#189 = CARTESIAN_POINT ( 'NONE',  ( 1000.000000000000000, 150.0000000000000600, -100.0000000000000000 ) ) ;
#190 = LINE ( 'NONE', #33, #122 ) ;
#191 = EDGE_CURVE ( 'NONE', #186, #127, #171, .T. ) ;
#192 = DIRECTION ( 'NONE',  ( 0.0000000000000000000, 0.0000000000000000000, 1.000000000000000000 ) ) ;
#193 = AXIS2_PLACEMENT_3D ( 'NONE', #17, #184, #107 ) ;
#194 = VECTOR ( 'NONE', #123, 1000.000000000000000 ) ;
#195 = PRESENTATION_STYLE_ASSIGNMENT (( #112 ) ) ;
#196 =( GEOMETRIC_REPRESENTATION_CONTEXT ( 3 ) GLOBAL_UNCERTAINTY_ASSIGNED_CONTEXT ( ( #149 ) ) GLOBAL_UNIT_ASSIGNED_CONTEXT ( ( #24, #83, #80 ) ) REPRESENTATION_CONTEXT ( 'NONE', 'WORKASPACE' ) );
#197 = PRESENTATION_LAYER_ASSIGNMENT (  '', '', ( #28 ) ) ;
#198 = CARTESIAN_POINT ( 'NONE',  ( -1000.000000000000000, 150.0000000000000300, 100.0000000000000000 ) ) ;
#199 = ORIENTED_EDGE ( 'NONE', *, *, #87, .T. ) ;
#200 = PLANE ( 'NONE',  #158 ) ;
#201 = CARTESIAN_POINT ( 'NONE',  ( 1000.000000000000000, -149.9999999999999700, -100.0000000000000000 ) ) ;
#202 = CARTESIAN_POINT ( 'NONE',  ( -1000.000000000000000, -149.9999999999999700, 100.0000000000000000 ) ) ;
ENDSEC;
END-ISO-10303-21;
