SolidWorks IGES file using analytic representation for surfaces         S      1
1H,,1H;,36Hrectangular_expansion_chamber.SLDPRT,94HC:\Users\Jacson_CorsaG      1
ir\Desktop\Fisicas\perforated_plate\CAD\rectangular_expansion_chamber.IGG      2
S,15HSolidWorks 2015,15HSolidWorks 2015,32,308,15,308,15,36Hrectangular_G      3
expansion_chamber.SLDPRT,1.,2,2HMM,50,0.125,13H250916.183124,1E-008,    G      4
499990.,14HJacson_Corsair,,11,0,13H250916.183124;                       G      5
     314       1       0       0       0                        00000200D      1
     314       0       8       1       0                               0D      2
     502       2       0       0       0                        00010000D      3
     502       0       0       7       1                               0D      4
     110       9       0       0       0                        01010000D      5
     110       0       0       1       0                               0D      6
     110      10       0       0       0                        01010000D      7
     110       0       0       1       0                               0D      8
     110      11       0       0       0                        01010000D      9
     110       0       0       1       0                               0D     10
     110      12       0       0       0                        01010000D     11
     110       0       0       1       0                               0D     12
     110      13       0       0       0                        01010000D     13
     110       0       0       1       0                               0D     14
     110      14       0       0       0                        01010000D     15
     110       0       0       1       0                               0D     16
     110      15       0       0       0                        01010000D     17
     110       0       0       1       0                               0D     18
     110      16       0       0       0                        01010000D     19
     110       0       0       1       0                               0D     20
     110      17       0       0       0                        01010000D     21
     110       0       0       1       0                               0D     22
     110      18       0       0       0                        01010000D     23
     110       0       0       1       0                               0D     24
     110      19       0       0       0                        01010000D     25
     110       0       0       1       0                               0D     26
     110      20       0       0       0                        01010000D     27
     110       0       0       1       0                               0D     28
     110      21       0       0       0                        01010000D     29
     110       0       0       1       0                               0D     30
     110      22       0       0       0                        01010000D     31
     110       0       0       1       0                               0D     32
     110      23       0       0       0                        01010000D     33
     110       0       0       1       0                               0D     34
     110      24       0       0       0                        01010000D     35
     110       0       0       1       0                               0D     36
     110      25       0       0       0                        01010000D     37
     110       0       0       1       0                               0D     38
     110      26       0       0       0                        01010000D     39
     110       0       0       1       0                               0D     40
     110      27       0       0       0                        01010000D     41
     110       0       0       1       0                               0D     42
     110      28       0       0       0                        01010000D     43
     110       0       0       1       0                               0D     44
     110      29       0       0       0                        01010000D     45
     110       0       0       1       0                               0D     46
     110      30       0       0       0                        01010000D     47
     110       0       0       1       0                               0D     48
     110      31       0       0       0                        01010000D     49
     110       0       0       1       0                               0D     50
     110      32       0       0       0                        01010000D     51
     110       0       0       1       0                               0D     52
     110      33       0       0       0                        01010000D     53
     110       0       0       1       0                               0D     54
     110      34       0       0       0                        01010000D     55
     110       0       0       1       0                               0D     56
     110      35       0       0       0                        01010000D     57
     110       0       0       1       0                               0D     58
     110      36       0       0       0                        01010000D     59
     110       0       0       1       0                               0D     60
     110      37       0       0       0                        01010000D     61
     110       0       0       1       0                               0D     62
     110      38       0       0       0                        01010000D     63
     110       0       0       1       0                               0D     64
     110      39       0       0       0                        01010000D     65
     110       0       0       1       0                               0D     66
     110      40       0       0       0                        01010000D     67
     110       0       0       1       0                               0D     68
     110      41       0       0       0                        01010000D     69
     110       0       0       1       0                               0D     70
     110      42       0       0       0                        01010000D     71
     110       0       0       1       0                               0D     72
     110      43       0       0       0                        01010000D     73
     110       0       0       1       0                               0D     74
     110      44       0       0       0                        01010000D     75
     110       0       0       1       0                               0D     76
     504      45       0       0       0                        00010000D     77
     504       0       0       8       1                               0D     78
     116      53       0       0       0                        00010000D     79
     116       0       0       1       0                               0D     80
     123      54       0       0       0                        00010200D     81
     123       0       0       1       0                               0D     82
     123      55       0       0       0                        00010200D     83
     123       0       0       1       0                               0D     84
     190      56       0       0       0                        00010000D     85
     190       0      -1       1       1                               0D     86
     508      57       0       0       0                        00010000D     87
     508       0       0       1       1                               0D     88
     510      58       0       0       0                        00010000D     89
     510       0      -1       1       1                               0D     90
     116      59       0       0       0                        00010000D     91
     116       0       0       1       0                               0D     92
     123      60       0       0       0                        00010200D     93
     123       0       0       1       0                               0D     94
     123      61       0       0       0                        00010200D     95
     123       0       0       1       0                               0D     96
     190      62       0       0       0                        00010000D     97
     190       0      -1       1       1                               0D     98
     508      63       0       0       0                        00010000D     99
     508       0       0       1       1                               0D    100
     510      64       0       0       0                        00010000D    101
     510       0      -1       1       1                               0D    102
     116      65       0       0       0                        00010000D    103
     116       0       0       1       0                               0D    104
     123      66       0       0       0                        00010200D    105
     123       0       0       1       0                               0D    106
     123      67       0       0       0                        00010200D    107
     123       0       0       1       0                               0D    108
     190      68       0       0       0                        00010000D    109
     190       0      -1       1       1                               0D    110
     508      69       0       0       0                        00010000D    111
     508       0       0       1       1                               0D    112
     510      70       0       0       0                        00010000D    113
     510       0      -1       1       1                               0D    114
     116      71       0       0       0                        00010000D    115
     116       0       0       1       0                               0D    116
     123      72       0       0       0                        00010200D    117
     123       0       0       1       0                               0D    118
     123      73       0       0       0                        00010200D    119
     123       0       0       1       0                               0D    120
     190      74       0       0       0                        00010000D    121
     190       0      -1       1       1                               0D    122
     508      75       0       0       0                        00010000D    123
     508       0       0       1       1                               0D    124
     510      76       0       0       0                        00010000D    125
     510       0      -1       1       1                               0D    126
     116      77       0       0       0                        00010000D    127
     116       0       0       1       0                               0D    128
     123      78       0       0       0                        00010200D    129
     123       0       0       1       0                               0D    130
     123      79       0       0       0                        00010200D    131
     123       0       0       1       0                               0D    132
     190      80       0       0       0                        00010000D    133
     190       0      -1       1       1                               0D    134
     508      81       0       0       0                        00010000D    135
     508       0       0       1       1                               0D    136
     510      82       0       0       0                        00010000D    137
     510       0      -1       1       1                               0D    138
     116      83       0       0       0                        00010000D    139
     116       0       0       1       0                               0D    140
     123      84       0       0       0                        00010200D    141
     123       0       0       1       0                               0D    142
     123      85       0       0       0                        00010200D    143
     123       0       0       1       0                               0D    144
     190      86       0       0       0                        00010000D    145
     190       0      -1       1       1                               0D    146
     508      87       0       0       0                        00010000D    147
     508       0       0       1       1                               0D    148
     508      88       0       0       0                        00010000D    149
     508       0       0       1       1                               0D    150
     510      89       0       0       0                        00010000D    151
     510       0      -1       1       1                               0D    152
     116      90       0       0       0                        00010000D    153
     116       0       0       1       0                               0D    154
     123      91       0       0       0                        00010200D    155
     123       0       0       1       0                               0D    156
     123      92       0       0       0                        00010200D    157
     123       0       0       1       0                               0D    158
     190      93       0       0       0                        00010000D    159
     190       0      -1       1       1                               0D    160
     508      94       0       0       0                        00010000D    161
     508       0       0       1       1                               0D    162
     508      95       0       0       0                        00010000D    163
     508       0       0       1       1                               0D    164
     510      96       0       0       0                        00010000D    165
     510       0      -1       1       1                               0D    166
     116      97       0       0       0                        00010000D    167
     116       0       0       1       0                               0D    168
     123      98       0       0       0                        00010200D    169
     123       0       0       1       0                               0D    170
     123      99       0       0       0                        00010200D    171
     123       0       0       1       0                               0D    172
     190     100       0       0       0                        00010000D    173
     190       0      -1       1       1                               0D    174
     508     101       0       0       0                        00010000D    175
     508       0       0       1       1                               0D    176
     510     102       0       0       0                        00010000D    177
     510       0      -1       1       1                               0D    178
     116     103       0       0       0                        00010000D    179
     116       0       0       1       0                               0D    180
     123     104       0       0       0                        00010200D    181
     123       0       0       1       0                               0D    182
     123     105       0       0       0                        00010200D    183
     123       0       0       1       0                               0D    184
     190     106       0       0       0                        00010000D    185
     190       0      -1       1       1                               0D    186
     508     107       0       0       0                        00010000D    187
     508       0       0       1       1                               0D    188
     510     108       0       0       0                        00010000D    189
     510       0      -1       1       1                               0D    190
     116     109       0       0       0                        00010000D    191
     116       0       0       1       0                               0D    192
     123     110       0       0       0                        00010200D    193
     123       0       0       1       0                               0D    194
     123     111       0       0       0                        00010200D    195
     123       0       0       1       0                               0D    196
     190     112       0       0       0                        00010000D    197
     190       0      -1       1       1                               0D    198
     508     113       0       0       0                        00010000D    199
     508       0       0       1       1                               0D    200
     510     114       0       0       0                        00010000D    201
     510       0      -1       1       1                               0D    202
     116     115       0       0       0                        00010000D    203
     116       0       0       1       0                               0D    204
     123     116       0       0       0                        00010200D    205
     123       0       0       1       0                               0D    206
     123     117       0       0       0                        00010200D    207
     123       0       0       1       0                               0D    208
     190     118       0       0       0                        00010000D    209
     190       0      -1       1       1                               0D    210
     508     119       0       0       0                        00010000D    211
     508       0       0       1       1                               0D    212
     510     120       0       0       0                        00010000D    213
     510       0      -1       1       1                               0D    214
     116     121       0       0       0                        00010000D    215
     116       0       0       1       0                               0D    216
     123     122       0       0       0                        00010200D    217
     123       0       0       1       0                               0D    218
     123     123       0       0       0                        00010200D    219
     123       0       0       1       0                               0D    220
     190     124       0       0       0                        00010000D    221
     190       0      -1       1       1                               0D    222
     508     125       0       0       0                        00010000D    223
     508       0       0       1       1                               0D    224
     510     126       0       0       0                        00010000D    225
     510       0      -1       1       1                               0D    226
     116     127       0       0       0                        00010000D    227
     116       0       0       1       0                               0D    228
     123     128       0       0       0                        00010200D    229
     123       0       0       1       0                               0D    230
     123     129       0       0       0                        00010200D    231
     123       0       0       1       0                               0D    232
     190     130       0       0       0                        00010000D    233
     190       0      -1       1       1                               0D    234
     508     131       0       0       0                        00010000D    235
     508       0       0       1       1                               0D    236
     510     132       0       0       0                        00010000D    237
     510       0      -1       1       1                               0D    238
     116     133       0       0       0                        00010000D    239
     116       0       0       1       0                               0D    240
     123     134       0       0       0                        00010200D    241
     123       0       0       1       0                               0D    242
     123     135       0       0       0                        00010200D    243
     123       0       0       1       0                               0D    244
     190     136       0       0       0                        00010000D    245
     190       0      -1       1       1                               0D    246
     508     137       0       0       0                        00010000D    247
     508       0       0       1       1                               0D    248
     510     138       0       0       0                        00010000D    249
     510       0      -1       1       1                               0D    250
     116     139       0       0       0                        00010000D    251
     116       0       0       1       0                               0D    252
     123     140       0       0       0                        00010200D    253
     123       0       0       1       0                               0D    254
     123     141       0       0       0                        00010200D    255
     123       0       0       1       0                               0D    256
     190     142       0       0       0                        00010000D    257
     190       0      -1       1       1                               0D    258
     508     143       0       0       0                        00010000D    259
     508       0       0       1       1                               0D    260
     510     144       0       0       0                        00010000D    261
     510       0      -1       1       1                               0D    262
     116     145       0       0       0                        00010000D    263
     116       0       0       1       0                               0D    264
     123     146       0       0       0                        00010200D    265
     123       0       0       1       0                               0D    266
     123     147       0       0       0                        00010200D    267
     123       0       0       1       0                               0D    268
     190     148       0       0       0                        00010000D    269
     190       0      -1       1       1                               0D    270
     508     149       0       0       0                        00010000D    271
     508       0       0       1       1                               0D    272
     510     150       0       0       0                        00010000D    273
     510       0      -1       1       1                               0D    274
     514     151       0       0       0                        00010000D    275
     514       0       0       2       1                               0D    276
     186     153       0       0       0                        00000000D    277
     186       0       0       1       0                               0D    278
314,79.2156862745098,81.9607843137255,93.3333333333333,;               1P      1
502,24,500.,250.,200.,-500.,-150.,-100.,500.,-250.,200.,500.,          3P      2
-150.,100.,500.,250.,-200.,1000.,-150.,-100.,-500.,-250.,-200.,        3P      3
-1000.,150.,100.,-500.,-250.,200.,-500.,250.,200.,-1000.,-150.,        3P      4
-100.,-500.,150.,100.,1000.,150.,100.,-500.,250.,-200.,500.,           3P      5
150.,100.,-500.,150.,-100.,-1000.,150.,-100.,-1000.,-150.,100.,        3P      6
500.,-250.,-200.,-500.,-150.,100.,1000.,150.,-100.,500.,-150.,         3P      7
-100.,500.,150.,-100.,1000.,-150.,100.;                                3P      8
110,-500.,250.,-200.,-500.,250.,200.;                                  5P      9
110,-1000.,150.,-100.,-1000.,150.,100.;                                7P     10
110,500.,-250.,-200.,500.,250.,-200.;                                  9P     11
110,1000.,150.,-100.,1000.,150.,100.;                                 11P     12
110,-500.,150.,100.,-500.,150.,-100.;                                 13P     13
110,1000.,-150.,-100.,500.,-150.,-100.;                               15P     14
110,-500.,150.,-100.,-1000.,150.,-100.;                               17P     15
110,-500.,150.,100.,-1000.,150.,100.;                                 19P     16
110,1000.,-150.,-100.,1000.,150.,-100.;                               21P     17
110,500.,150.,-100.,500.,-150.,-100.;                                 23P     18
110,500.,-150.,-100.,500.,-150.,100.;                                 25P     19
110,-500.,250.,200.,-500.,-250.,200.;                                 27P     20
110,500.,-150.,100.,500.,150.,100.;                                   29P     21
110,-500.,-150.,-100.,-1000.,-150.,-100.;                             31P     22
110,-1000.,150.,100.,-1000.,-150.,100.;                               33P     23
110,-500.,-250.,-200.,-500.,250.,-200.;                               35P     24
110,1000.,150.,100.,500.,150.,100.;                                   37P     25
110,1000.,150.,100.,1000.,-150.,100.;                                 39P     26
110,-1000.,-150.,-100.,-1000.,150.,-100.;                             41P     27
110,500.,250.,200.,500.,-250.,200.;                                   43P     28
110,1000.,-150.,100.,1000.,-150.,-100.;                               45P     29
110,500.,-250.,-200.,-500.,-250.,-200.;                               47P     30
110,500.,-250.,200.,500.,-250.,-200.;                                 49P     31
110,500.,250.,200.,-500.,250.,200.;                                   51P     32
110,-500.,150.,-100.,-500.,-150.,-100.;                               53P     33
110,1000.,150.,-100.,500.,150.,-100.;                                 55P     34
110,-500.,-150.,100.,-1000.,-150.,100.;                               57P     35
110,500.,-250.,200.,-500.,-250.,200.;                                 59P     36
110,-500.,-150.,-100.,-500.,-150.,100.;                               61P     37
110,1000.,-150.,100.,500.,-150.,100.;                                 63P     38
110,-1000.,-150.,100.,-1000.,-150.,-100.;                             65P     39
110,-500.,-150.,100.,-500.,150.,100.;                                 67P     40
110,500.,250.,-200.,500.,250.,200.;                                   69P     41
110,500.,250.,-200.,-500.,250.,-200.;                                 71P     42
110,500.,150.,100.,500.,150.,-100.;                                   73P     43
110,-500.,-250.,200.,-500.,-250.,-200.;                               75P     44
504,36,5,3,14,3,10,7,3,17,3,8,9,3,19,3,5,11,3,21,3,13,13,3,12,        77P     45
3,16,15,3,6,3,22,17,3,16,3,17,19,3,12,3,8,21,3,6,3,21,23,3,23,        77P     46
3,22,25,3,22,3,4,27,3,10,3,9,29,3,4,3,15,31,3,2,3,11,33,3,8,3,        77P     47
18,35,3,7,3,14,37,3,13,3,15,39,3,13,3,24,41,3,11,3,17,43,3,1,3,       77P     48
3,45,3,24,3,6,47,3,19,3,7,49,3,3,3,19,51,3,1,3,10,53,3,16,3,2,        77P     49
55,3,21,3,23,57,3,20,3,18,59,3,3,3,9,61,3,2,3,20,63,3,24,3,4,         77P     50
65,3,18,3,11,67,3,20,3,12,69,3,5,3,1,71,3,5,3,14,73,3,15,3,23,        77P     51
75,3,9,3,7;                                                           77P     52
116,1000.,-150.,100.,;                                                79P     53
123,0.,0.,-1.;                                                        81P     54
123,-0.707106781,0.707106781,0.;                                      83P     55
190,79,81,83;                                                         85P     56
508,4,0,77,13,0,0,0,77,30,0,0,0,77,18,0,0,0,77,17,1,0;                87P     57
510,85,1,1,87;                                                        89P     58
116,1000.,-150.,-100.,;                                               91P     59
123,0.,1.,0.;                                                         93P     60
123,-0.707106781,0.,0.707106781;                                      95P     61
190,91,93,95;                                                         97P     62
508,4,0,77,11,0,0,0,77,6,0,0,0,77,21,0,0,0,77,30,1,0;                 99P     63
510,97,1,1,99;                                                       101P     64
116,1000.,-150.,-100.,;                                              103P     65
123,0.,0.,1.;                                                        105P     66
123,0.707106781,-0.707106781,0.;                                     107P     67
190,103,105,107;                                                     109P     68
508,4,0,77,10,0,0,0,77,26,0,0,0,77,9,0,0,0,77,6,1,0;                 111P     69
510,109,1,1,111;                                                     113P     70
116,1000.,150.,-100.,;                                               115P     71
123,0.,-1.,0.;                                                       117P     72
123,0.707106781,0.,-0.707106781;                                     119P     73
190,115,117,119;                                                     121P     74
508,4,0,77,35,0,0,0,77,17,0,0,0,77,4,0,0,0,77,26,1,0;                123P     75
510,121,1,1,123;                                                     125P     76
116,1000.,0.,0.,;                                                    127P     77
123,1.,0.,0.;                                                        129P     78
123,0.,0.707106781,-0.707106781;                                     131P     79
190,127,129,131;                                                     133P     80
508,4,0,77,18,1,0,0,77,21,1,0,0,77,9,1,0,0,77,4,1,0;                 135P     81
510,133,1,1,135;                                                     137P     82
116,500.,0.,0.,;                                                     139P     83
123,-1.,0.,0.;                                                       141P     84
123,0.,-0.707106781,0.707106781;                                     143P     85
190,139,141,143;                                                     145P     86
508,4,0,77,3,1,0,0,77,33,1,0,0,77,20,1,0,0,77,23,1,0;                147P     87
508,4,0,77,11,1,0,0,77,13,1,0,0,77,35,1,0,0,77,10,1,0;               149P     88
510,145,2,1,147,149;                                                 151P     89
116,-500.,0.,0.,;                                                    153P     90
123,-1.,0.,0.;                                                       155P     91
123,0.,-0.707106781,0.707106781;                                     157P     92
190,153,155,157;                                                     159P     93
508,4,0,77,16,0,0,0,77,36,0,0,0,77,12,0,0,0,77,1,0,0;                161P     94
508,4,0,77,32,0,0,0,77,29,0,0,0,77,25,0,0,0,77,5,0,0;                163P     95
510,159,2,1,161,163;                                                 165P     96
116,500.,-250.,-200.,;                                               167P     97
123,0.,0.,1.;                                                        169P     98
123,0.707106781,-0.707106781,0.;                                     171P     99
190,167,169,171;                                                     173P    100
508,4,0,77,16,1,0,0,77,34,0,0,0,77,3,0,0,0,77,22,1,0;                175P    101
510,173,1,1,175;                                                     177P    102
116,500.,250.,200.,;                                                 179P    103
123,0.,-1.,0.;                                                       181P    104
123,0.707106781,0.,-0.707106781;                                     183P    105
190,179,181,183;                                                     185P    106
508,4,0,77,1,1,0,0,77,24,0,0,0,77,33,0,0,0,77,34,1,0;                187P    107
510,185,1,1,187;                                                     189P    108
116,500.,-250.,200.,;                                                191P    109
123,0.,0.,-1.;                                                       193P    110
123,-0.707106781,0.707106781,0.;                                     195P    111
190,191,193,195;                                                     197P    112
508,4,0,77,12,1,0,0,77,28,0,0,0,77,20,0,0,0,77,24,1,0;               199P    113
510,197,1,1,199;                                                     201P    114
116,500.,-250.,200.,;                                                203P    115
123,0.,1.,0.;                                                        205P    116
123,-0.707106781,0.,0.707106781;                                     207P    117
190,203,205,207;                                                     209P    118
508,4,0,77,36,1,0,0,77,22,0,0,0,77,23,0,0,0,77,28,1,0;               211P    119
510,209,1,1,211;                                                     213P    120
116,-1000.,0.,0.,;                                                   215P    121
123,1.,0.,0.;                                                        217P    122
123,0.,0.707106781,-0.707106781;                                     219P    123
190,215,217,219;                                                     221P    124
508,4,0,77,15,0,0,0,77,2,0,0,0,77,19,0,0,0,77,31,0,0;                223P    125
510,221,1,1,223;                                                     225P    126
116,1000.,150.,-100.,;                                               227P    127
123,0.,-1.,0.;                                                       229P    128
123,0.707106781,0.,-0.707106781;                                     231P    129
190,227,229,231;                                                     233P    130
508,4,0,77,8,0,0,0,77,5,1,0,0,77,7,1,0,0,77,2,1,0;                   235P    131
510,233,1,1,235;                                                     237P    132
116,1000.,-150.,-100.,;                                              239P    133
123,0.,0.,1.;                                                        241P    134
123,0.707106781,-0.707106781,0.;                                     243P    135
190,239,241,243;                                                     245P    136
508,4,0,77,7,0,0,0,77,25,1,0,0,77,14,1,0,0,77,19,1,0;                247P    137
510,245,1,1,247;                                                     249P    138
116,1000.,-150.,-100.,;                                              251P    139
123,0.,1.,0.;                                                        253P    140
123,-0.707106781,0.,0.707106781;                                     255P    141
190,251,253,255;                                                     257P    142
508,4,0,77,14,0,0,0,77,29,1,0,0,77,27,1,0,0,77,31,1,0;               259P    143
510,257,1,1,259;                                                     261P    144
116,1000.,-150.,100.,;                                               263P    145
123,0.,0.,-1.;                                                       265P    146
123,-0.707106781,0.707106781,0.;                                     267P    147
190,263,265,267;                                                     269P    148
508,4,0,77,27,0,0,0,77,32,1,0,0,77,8,1,0,0,77,15,1,0;                271P    149
510,269,1,1,271;                                                     273P    150
514,16,89,1,101,1,113,1,125,1,137,1,151,1,165,1,177,1,189,1,         275P    151
201,1,213,1,225,1,237,1,249,1,261,1,273,1;                           275P    152
186,275,1,0;                                                         277P    153
S      1G      5D    278P    153                                        T      1
