ISO-10303-21;
HEADER;
FILE_DESCRIPTION (( 'STEP AP214' ),
    '1' );
FILE_NAME ('filtro_succao_primeiro_estagio_TNO.STEP',
    '2025-07-02T18:18:58',
    ( '' ),
    ( '' ),
    'SwSTEP 2.0',
    'SolidWorks 2015',
    '' );
FILE_SCHEMA (( 'AUTOMOTIVE_DESIGN' ));
ENDSEC;

DATA;
#1 = CARTESIAN_POINT ( 'NONE',  ( 3193.325776396609900, 243.9999999999999700, 2.988138189919541400E-014 ) ) ;
#2 = ORIENTED_EDGE ( 'NONE', *, *, #305, .F. ) ;
#3 = DIRECTION ( 'NONE',  ( 0.0000000000000000000, -1.000000000000000000, 0.0000000000000000000 ) ) ;
#4 = DIRECTION ( 'NONE',  ( 0.0000000000000000000, -1.000000000000000000, 0.0000000000000000000 ) ) ;
#5 = CONICAL_SURFACE ( 'NONE', #465, 295.0000000000002800, 0.5275473698086786700 ) ;
#6 = DIRECTION ( 'NONE',  ( -1.000000000000000000, 5.708367366378543700E-019, -0.0000000000000000000 ) ) ;
#7 = VECTOR ( 'NONE', #596, 1000.000000000000000 ) ;
#8 = PLANE ( 'NONE',  #427 ) ;
#9 = CARTESIAN_POINT ( 'NONE',  ( 1173.000000000000000, 6.433330021908619700E-016, 0.0000000000000000000 ) ) ;
#10 = DIRECTION ( 'NONE',  ( 0.0000000000000000000, -1.000000000000000000, 0.0000000000000000000 ) ) ;
#11 = AXIS2_PLACEMENT_3D ( 'NONE', #1274, #183, #266 ) ;
#12 = CARTESIAN_POINT ( 'NONE',  ( 1173.000000000000200, 6.433330021908618700E-016, 0.0000000000000000000 ) ) ;
#13 = FACE_OUTER_BOUND ( 'NONE', #1003, .T. ) ;
#14 = CIRCLE ( 'NONE', #1025, 243.9999999999999700 ) ;
#15 = CARTESIAN_POINT ( 'NONE',  ( 1173.000000000000000, -294.7999999999999500, 0.0000000000000000000 ) ) ;
#16 = CARTESIAN_POINT ( 'NONE',  ( 2775.000000000000900, 398.5000000000000000, 4.880217494602202600E-014 ) ) ;
#17 = ORIENTED_EDGE ( 'NONE', *, *, #36, .T. ) ;
#18 = CARTESIAN_POINT ( 'NONE',  ( 667.9999999999998900, 9.316055541929785100E-016, 0.0000000000000000000 ) ) ;
#19 = CARTESIAN_POINT ( 'NONE',  ( 1173.000000000000000, 295.0000000000001100, 3.612708057484693200E-014 ) ) ;
#20 = CIRCLE ( 'NONE', #49, 292.0000000000002800 ) ;
#21 = CARTESIAN_POINT ( 'NONE',  ( 3193.325776396609900, -5.099431709527183400E-016, 0.0000000000000000000 ) ) ;
#22 = DIRECTION ( 'NONE',  ( -1.000000000000000000, 5.708367366378543700E-019, -0.0000000000000000000 ) ) ;
#23 = ORIENTED_EDGE ( 'NONE', *, *, #873, .T. ) ;
#24 = DIRECTION ( 'NONE',  ( 0.8640443605457467400, -0.5034156761654243800, 6.165063964565876500E-017 ) ) ;
#25 = EDGE_CURVE ( 'NONE', #896, #1173, #1248, .T. ) ;
#26 = PRODUCT_DEFINITION_SHAPE ( 'NONE', 'NONE',  #334 ) ;
#27 = AXIS2_PLACEMENT_3D ( 'NONE', #888, #1182, #782 ) ;
#28 = DIRECTION ( 'NONE',  ( 0.0000000000000000000, -1.000000000000000000, 0.0000000000000000000 ) ) ;
#29 = CARTESIAN_POINT ( 'NONE',  ( 2273.000000000000500, 1.541259188922185500E-017, 0.0000000000000000000 ) ) ;
#30 = CARTESIAN_POINT ( 'NONE',  ( 3193.325776396609900, -243.9999999999999700, 0.0000000000000000000 ) ) ;
#31 = SURFACE_STYLE_USAGE ( .BOTH. , #1221 ) ;
#32 = EDGE_LOOP ( 'NONE', ( #827, #654 ) ) ;
#33 = CARTESIAN_POINT ( 'NONE',  ( 2775.000000000000900, -2.711474499029812500E-016, 0.0000000000000000000 ) ) ;
#34 = ORIENTED_EDGE ( 'NONE', *, *, #1246, .T. ) ;
#35 = CIRCLE ( 'NONE', #590, 243.9999999999999700 ) ;
#36 = EDGE_CURVE ( 'NONE', #162, #370, #466, .T. ) ;
#37 = DIRECTION ( 'NONE',  ( 1.000000000000000000, -5.708367366378543700E-019, 0.0000000000000000000 ) ) ;
#38 = LINE ( 'NONE', #1057, #1071 ) ;
#39 = CLOSED_SHELL ( 'NONE', ( #1059, #854, #659, #1038, #1250, #672, #490, #770, #831, #564, #1277, #475, #1140, #1156, #929, #957, #1066, #776 ) ) ;
#40 = FACE_OUTER_BOUND ( 'NONE', #463, .T. ) ;
#41 = AXIS2_PLACEMENT_3D ( 'NONE', #1001, #521, #418 ) ;
#42 = EDGE_CURVE ( 'NONE', #1231, #150, #1126, .T. ) ;
#43 = AXIS2_PLACEMENT_3D ( 'NONE', #806, #624, #705 ) ;
#44 = CARTESIAN_POINT ( 'NONE',  ( 2303.000000000000500, -1.712510209913657100E-018, 0.0000000000000000000 ) ) ;
#45 = CIRCLE ( 'NONE', #1251, 289.0000000000001700 ) ;
#46 = CONICAL_SURFACE ( 'NONE', #363, 20.00000000000000000, 0.5275473698086782200 ) ;
#47 = VERTEX_POINT ( 'NONE', #821 ) ;
#48 =( LENGTH_UNIT ( ) NAMED_UNIT ( * ) SI_UNIT ( .MILLI., .METRE. ) );
#49 = AXIS2_PLACEMENT_3D ( 'NONE', #933, #646, #649 ) ;
#50 = ORIENTED_EDGE ( 'NONE', *, *, #709, .F. ) ;
#51 = VECTOR ( 'NONE', #1208, 1000.000000000000000 ) ;
#52 = DIRECTION ( 'NONE',  ( 0.0000000000000000000, -1.000000000000000000, 0.0000000000000000000 ) ) ;
#53 = CYLINDRICAL_SURFACE ( 'NONE', #27, 289.0000000000001700 ) ;
#54 = EDGE_LOOP ( 'NONE', ( #1195, #23, #1240, #388 ) ) ;
#55 = AXIS2_PLACEMENT_3D ( 'NONE', #78, #570, #1281 ) ;
#56 = EDGE_CURVE ( 'NONE', #422, #660, #35, .T. ) ;
#57 = DIRECTION ( 'NONE',  ( 1.000000000000000000, -5.708367366378543700E-019, 0.0000000000000000000 ) ) ;
#58 = ORIENTED_EDGE ( 'NONE', *, *, #64, .F. ) ;
#59 = CARTESIAN_POINT ( 'NONE',  ( 2775.000000000000900, 470.0000000000000600, 5.755839955992562100E-014 ) ) ;
#60 = VERTEX_POINT ( 'NONE', #917 ) ;
#61 = ORIENTED_EDGE ( 'NONE', *, *, #486, .F. ) ;
#62 = ORIENTED_EDGE ( 'NONE', *, *, #674, .F. ) ;
#63 = CIRCLE ( 'NONE', #980, 292.0000000000001700 ) ;
#64 = EDGE_CURVE ( 'NONE', #1231, #1175, #187, .T. ) ;
#65 = EDGE_LOOP ( 'NONE', ( #468, #62, #568, #155 ) ) ;
#66 = DIRECTION ( 'NONE',  ( 0.0000000000000000000, -1.000000000000000000, 0.0000000000000000000 ) ) ;
#67 =( GEOMETRIC_REPRESENTATION_CONTEXT ( 3 ) GLOBAL_UNCERTAINTY_ASSIGNED_CONTEXT ( ( #364 ) ) GLOBAL_UNIT_ASSIGNED_CONTEXT ( ( #296, #1203, #605 ) ) REPRESENTATION_CONTEXT ( 'NONE', 'WORKASPACE' ) );
#68 = STYLED_ITEM ( 'NONE', ( #1158 ), #1089 ) ;
#69 = CYLINDRICAL_SURFACE ( 'NONE', #592, 294.7999999999999500 ) ;
#70 = FACE_OUTER_BOUND ( 'NONE', #897, .T. ) ;
#71 = CARTESIAN_POINT ( 'NONE',  ( 2805.000000000000500, 470.0000000000004000, 5.755839955992564600E-014 ) ) ;
#72 = DIRECTION ( 'NONE',  ( -1.000000000000000000, 5.708367366378543700E-019, -0.0000000000000000000 ) ) ;
#73 = ORIENTED_EDGE ( 'NONE', *, *, #99, .F. ) ;
#74 = CARTESIAN_POINT ( 'NONE',  ( 2775.000000000000900, 398.5000000000000000, 4.880217494602202600E-014 ) ) ;
#75 = LINE ( 'NONE', #676, #744 ) ;
#76 = AXIS2_PLACEMENT_3D ( 'NONE', #853, #769, #861 ) ;
#77 = ORIENTED_EDGE ( 'NONE', *, *, #1146, .F. ) ;
#78 = CARTESIAN_POINT ( 'NONE',  ( 369.6686681525733900, 1.101904038101588400E-015, 0.0000000000000000000 ) ) ;
#79 = EDGE_LOOP ( 'NONE', ( #496, #954, #426, #442 ) ) ;
#80 = ADVANCED_FACE ( 'NONE', ( #365 ), #855, .T. ) ;
#81 = CARTESIAN_POINT ( 'NONE',  ( 1173.000000000000000, -295.0000000000002800, 0.0000000000000000000 ) ) ;
#82 = FACE_BOUND ( 'NONE', #633, .T. ) ;
#83 = ORIENTED_EDGE ( 'NONE', *, *, #459, .T. ) ;
#84 = UNCERTAINTY_MEASURE_WITH_UNIT (LENGTH_MEASURE( 1.000000000000000100E-005 ), #48, 'distance_accuracy_value', 'NONE');
#85 = DIRECTION ( 'NONE',  ( -1.000000000000000000, 5.708367366378543700E-019, -0.0000000000000000000 ) ) ;
#86 = DIRECTION ( 'NONE',  ( -5.708367366378543700E-019, -1.000000000000000000, 0.0000000000000000000 ) ) ;
#87 = EDGE_CURVE ( 'NONE', #553, #60, #946, .T. ) ;
#88 = DIRECTION ( 'NONE',  ( -1.000000000000000000, 5.708367366378543700E-019, -0.0000000000000000000 ) ) ;
#89 = CARTESIAN_POINT ( 'NONE',  ( 2300.000000000000500, 0.0000000000000000000, 0.0000000000000000000 ) ) ;
#90 = AXIS2_PLACEMENT_3D ( 'NONE', #299, #201, #992 ) ;
#91 = CARTESIAN_POINT ( 'NONE',  ( 1200.000000000000200, -292.0000000000001700, 0.0000000000000000000 ) ) ;
#92 = EDGE_LOOP ( 'NONE', ( #936, #1239, #313, #376 ) ) ;
#93 = ADVANCED_FACE ( 'NONE', ( #815 ), #1287, .T. ) ;
#94 = ORIENTED_EDGE ( 'NONE', *, *, #433, .T. ) ;
#95 = VECTOR ( 'NONE', #215, 1000.000000000000000 ) ;
#96 = DIRECTION ( 'NONE',  ( -1.000000000000000000, 5.708367366378543700E-019, -0.0000000000000000000 ) ) ;
#97 = ORIENTED_EDGE ( 'NONE', *, *, #350, .T. ) ;
#98 = DIRECTION ( 'NONE',  ( -0.8642854443543308600, 0.5030016607102176800, 6.159993737545712200E-017 ) ) ;
#99 = EDGE_CURVE ( 'NONE', #892, #935, #533, .T. ) ;
#100 = ORIENTED_EDGE ( 'NONE', *, *, #99, .T. ) ;
#101 = DIRECTION ( 'NONE',  ( 5.708367366378543700E-019, 1.000000000000000000, 0.0000000000000000000 ) ) ;
#102 = CIRCLE ( 'NONE', #876, 20.00000000000000000 ) ;
#103 = CARTESIAN_POINT ( 'NONE',  ( 2775.000000000000900, -2.711474499029812500E-016, 0.0000000000000000000 ) ) ;
#104 = CARTESIAN_POINT ( 'NONE',  ( 2273.000000000000500, 1.541259188922185500E-017, 0.0000000000000000000 ) ) ;
#105 = AXIS2_PLACEMENT_3D ( 'NONE', #491, #199, #1076 ) ;
#106 = DIRECTION ( 'NONE',  ( 0.0000000000000000000, -1.000000000000000000, 0.0000000000000000000 ) ) ;
#107 = EDGE_CURVE ( 'NONE', #970, #818, #256, .T. ) ;
#108 = AXIS2_PLACEMENT_3D ( 'NONE', #21, #621, #326 ) ;
#109 = ORIENTED_EDGE ( 'NONE', *, *, #1070, .F. ) ;
#110 = VERTEX_POINT ( 'NONE', #16 ) ;
#111 = LINE ( 'NONE', #127, #781 ) ;
#112 = CARTESIAN_POINT ( 'NONE',  ( 1200.000000000000200, -295.0000000000001100, 0.0000000000000000000 ) ) ;
#113 = ORIENTED_EDGE ( 'NONE', *, *, #107, .T. ) ;
#114 = EDGE_LOOP ( 'NONE', ( #340, #234 ) ) ;
#115 = CARTESIAN_POINT ( 'NONE',  ( 3611.000000000000000, -243.9999999999999700, 0.0000000000000000000 ) ) ;
#116 = VERTEX_POINT ( 'NONE', #682 ) ;
#117 = FACE_OUTER_BOUND ( 'NONE', #934, .T. ) ;
#118 = PRODUCT_CONTEXT ( 'NONE', #1011, 'mechanical' ) ;
#119 = CLOSED_SHELL ( 'NONE', ( #579, #392, #184, #151, #347, #574 ) ) ;
#120 = CARTESIAN_POINT ( 'NONE',  ( 1173.000000000000000, 6.433330021908619700E-016, 0.0000000000000000000 ) ) ;
#121 = CARTESIAN_POINT ( 'NONE',  ( 2775.000000000000900, 470.0000000000000600, 5.755839955992560800E-014 ) ) ;
#122 = DIRECTION ( 'NONE',  ( -1.000000000000000000, 5.708367366378543700E-019, -0.0000000000000000000 ) ) ;
#123 = CARTESIAN_POINT ( 'NONE',  ( 667.9999999999998900, 470.0000000000000600, 0.0000000000000000000 ) ) ;
#124 = DIRECTION ( 'NONE',  ( -1.000000000000000000, 5.708367366378543700E-019, -0.0000000000000000000 ) ) ;
#125 = AXIS2_PLACEMENT_3D ( 'NONE', #1268, #1174, #755 ) ;
#126 = EDGE_CURVE ( 'NONE', #47, #236, #981, .T. ) ;
#127 = CARTESIAN_POINT ( 'NONE',  ( 1173.000000000000000, -295.0000000000001100, 0.0000000000000000000 ) ) ;
#128 = ORIENTED_EDGE ( 'NONE', *, *, #1190, .T. ) ;
#129 = CARTESIAN_POINT ( 'NONE',  ( 2775.000000000000900, -2.711474499029812500E-016, 0.0000000000000000000 ) ) ;
#130 = ORIENTED_EDGE ( 'NONE', *, *, #450, .F. ) ;
#131 = ORIENTED_EDGE ( 'NONE', *, *, #295, .F. ) ;
#132 = ORIENTED_EDGE ( 'NONE', *, *, #164, .F. ) ;
#133 = VECTOR ( 'NONE', #762, 1000.000000000000000 ) ;
#134 = DIRECTION ( 'NONE',  ( -1.000000000000000000, 5.708367366378543700E-019, -0.0000000000000000000 ) ) ;
#135 = ORIENTED_EDGE ( 'NONE', *, *, #1190, .F. ) ;
#136 = EDGE_CURVE ( 'NONE', #116, #60, #436, .T. ) ;
#137 = AXIS2_PLACEMENT_3D ( 'NONE', #1169, #487, #658 ) ;
#138 = CARTESIAN_POINT ( 'NONE',  ( 1200.000000000000200, 295.0000000000001100, 3.612708057484693200E-014 ) ) ;
#139 = VERTEX_POINT ( 'NONE', #115 ) ;
#140 =( NAMED_UNIT ( * ) PLANE_ANGLE_UNIT ( ) SI_UNIT ( $, .RADIAN. ) );
#141 = UNCERTAINTY_MEASURE_WITH_UNIT (LENGTH_MEASURE( 1.000000000000000100E-005 ), #994, 'distance_accuracy_value', 'NONE');
#142 = EDGE_LOOP ( 'NONE', ( #1252, #479, #828, #909 ) ) ;
#143 = LINE ( 'NONE', #690, #759 ) ;
#144 = EDGE_LOOP ( 'NONE', ( #1172, #493, #322, #847 ) ) ;
#145 = ORIENTED_EDGE ( 'NONE', *, *, #331, .F. ) ;
#146 = FACE_OUTER_BOUND ( 'NONE', #721, .T. ) ;
#147 = CARTESIAN_POINT ( 'NONE',  ( 698.0000000000000000, 398.5000000000000000, 4.880217494602202600E-014 ) ) ;
#148 = FACE_OUTER_BOUND ( 'NONE', #984, .T. ) ;
#149 = AXIS2_PLACEMENT_3D ( 'NONE', #1210, #703, #10 ) ;
#150 = VERTEX_POINT ( 'NONE', #895 ) ;
#151 = ADVANCED_FACE ( 'NONE', ( #1017, #167 ), #300, .T. ) ;
#152 = PLANE ( 'NONE',  #1193 ) ;
#153 = DIRECTION ( 'NONE',  ( 0.0000000000000000000, -1.000000000000000000, 0.0000000000000000000 ) ) ;
#154 = FACE_OUTER_BOUND ( 'NONE', #144, .T. ) ;
#155 = ORIENTED_EDGE ( 'NONE', *, *, #738, .T. ) ;
#156 = EDGE_CURVE ( 'NONE', #1247, #840, #669, .T. ) ;
#157 = ORIENTED_EDGE ( 'NONE', *, *, #254, .T. ) ;
#158 = AXIS2_PLACEMENT_3D ( 'NONE', #481, #96, #666 ) ;
#159 = ORIENTED_EDGE ( 'NONE', *, *, #25, .T. ) ;
#160 = DIRECTION ( 'NONE',  ( -1.000000000000000000, 5.708367366378543700E-019, -0.0000000000000000000 ) ) ;
#161 = DIRECTION ( 'NONE',  ( -1.000000000000000000, 5.708367366378543700E-019, -0.0000000000000000000 ) ) ;
#162 = VERTEX_POINT ( 'NONE', #796 ) ;
#163 = CARTESIAN_POINT ( 'NONE',  ( 698.0000000000000000, 9.144804520938428700E-016, 0.0000000000000000000 ) ) ;
#164 = EDGE_CURVE ( 'NONE', #236, #735, #205, .T. ) ;
#165 = CARTESIAN_POINT ( 'NONE',  ( -8.414133498041972400E-017, 4.803096507657533800E-035, 0.0000000000000000000 ) ) ;
#166 = AXIS2_PLACEMENT_3D ( 'NONE', #12, #610, #218 ) ;
#167 = FACE_OUTER_BOUND ( 'NONE', #628, .T. ) ;
#168 = DIRECTION ( 'NONE',  ( -1.000000000000000000, 5.708367366378543700E-019, 0.0000000000000000000 ) ) ;
#169 = FACE_OUTER_BOUND ( 'NONE', #1128, .T. ) ;
#170 = ADVANCED_FACE ( 'NONE', ( #1212 ), #514, .F. ) ;
#171 = EDGE_LOOP ( 'NONE', ( #412, #642 ) ) ;
#172 = EDGE_CURVE ( 'NONE', #1228, #609, #1267, .T. ) ;
#173 = ORIENTED_EDGE ( 'NONE', *, *, #497, .F. ) ;
#174 =( GEOMETRIC_REPRESENTATION_CONTEXT ( 3 ) GLOBAL_UNCERTAINTY_ASSIGNED_CONTEXT ( ( #84 ) ) GLOBAL_UNIT_ASSIGNED_CONTEXT ( ( #48, #140, #822 ) ) REPRESENTATION_CONTEXT ( 'NONE', 'WORKASPACE' ) );
#175 = CONICAL_SURFACE ( 'NONE', #108, 243.9999999999999700, 0.5270682767025894900 ) ;
#176 = CARTESIAN_POINT ( 'NONE',  ( 2775.000000000000900, -470.0000000000000600, 0.0000000000000000000 ) ) ;
#177 = CIRCLE ( 'NONE', #688, 470.0000000000000600 ) ;
#178 = ORIENTED_EDGE ( 'NONE', *, *, #813, .F. ) ;
#179 = DIRECTION ( 'NONE',  ( -1.000000000000000000, 5.708367366378543700E-019, 0.0000000000000000000 ) ) ;
#180 = CARTESIAN_POINT ( 'NONE',  ( 1200.000000000000200, 6.279204103016397800E-016, 0.0000000000000000000 ) ) ;
#181 = DIRECTION ( 'NONE',  ( -1.000000000000000000, 5.708367366378543700E-019, -0.0000000000000000000 ) ) ;
#182 = AXIS2_PLACEMENT_3D ( 'NONE', #44, #915, #1030 ) ;
#183 = DIRECTION ( 'NONE',  ( -1.000000000000000000, 5.708367366378543700E-019, 0.0000000000000000000 ) ) ;
#184 = ADVANCED_FACE ( 'NONE', ( #13 ), #824, .F. ) ;
#185 = DIRECTION ( 'NONE',  ( -1.000000000000000000, 5.708367366378543700E-019, -0.0000000000000000000 ) ) ;
#186 = DIRECTION ( 'NONE',  ( 0.0000000000000000000, 1.000000000000000000, 0.0000000000000000000 ) ) ;
#187 = CIRCLE ( 'NONE', #243, 289.0000000000001700 ) ;
#188 = AXIS2_PLACEMENT_3D ( 'NONE', #871, #281, #1177 ) ;
#189 = ORIENTED_EDGE ( 'NONE', *, *, #763, .F. ) ;
#190 = CARTESIAN_POINT ( 'NONE',  ( 667.9999999999998900, 9.316055541929785100E-016, 0.0000000000000000000 ) ) ;
#191 = EDGE_CURVE ( 'NONE', #448, #1155, #756, .T. ) ;
#192 = ORIENTED_EDGE ( 'NONE', *, *, #709, .T. ) ;
#193 = CARTESIAN_POINT ( 'NONE',  ( 369.6686681525733900, 1.101904038101588400E-015, 0.0000000000000000000 ) ) ;
#194 = FACE_OUTER_BOUND ( 'NONE', #683, .T. ) ;
#195 = ADVANCED_FACE ( 'NONE', ( #1051 ), #561, .T. ) ;
#196 = EDGE_LOOP ( 'NONE', ( #518, #746 ) ) ;
#197 = DIRECTION ( 'NONE',  ( -1.000000000000000000, 5.708367366378543700E-019, -0.0000000000000000000 ) ) ;
#198 = CARTESIAN_POINT ( 'NONE',  ( 697.9999999999998900, 9.144804520938430700E-016, 0.0000000000000000000 ) ) ;
#199 = DIRECTION ( 'NONE',  ( -1.000000000000000000, 5.708367366378543700E-019, -0.0000000000000000000 ) ) ;
#200 = EDGE_CURVE ( 'NONE', #230, #1061, #1027, .T. ) ;
#201 = DIRECTION ( 'NONE',  ( -1.000000000000000000, 5.708367366378543700E-019, -0.0000000000000000000 ) ) ;
#202 = CYLINDRICAL_SURFACE ( 'NONE', #1273, 470.0000000000000600 ) ;
#203 = PRESENTATION_LAYER_ASSIGNMENT (  '', '', ( #68 ) ) ;
#204 = CARTESIAN_POINT ( 'NONE',  ( 2303.000000000000500, -1.712510209913657100E-018, 0.0000000000000000000 ) ) ;
#205 = CIRCLE ( 'NONE', #214, 295.0000000000002800 ) ;
#206 = FACE_OUTER_BOUND ( 'NONE', #706, .T. ) ;
#207 = CARTESIAN_POINT ( 'NONE',  ( 1173.000000000000000, 6.433330021908619700E-016, 0.0000000000000000000 ) ) ;
#208 = ORIENTED_EDGE ( 'NONE', *, *, #1034, .T. ) ;
#209 = ORIENTED_EDGE ( 'NONE', *, *, #1241, .T. ) ;
#210 = DIRECTION ( 'NONE',  ( -1.000000000000000000, 5.708367366378543700E-019, -0.0000000000000000000 ) ) ;
#211 = EDGE_LOOP ( 'NONE', ( #447, #673 ) ) ;
#212 = CARTESIAN_POINT ( 'NONE',  ( 2805.000000000000500, -2.882725520021166300E-016, 0.0000000000000000000 ) ) ;
#213 = CARTESIAN_POINT ( 'NONE',  ( 698.0000000000000000, 9.144804520938428700E-016, 0.0000000000000000000 ) ) ;
#214 = AXIS2_PLACEMENT_3D ( 'NONE', #104, #591, #613 ) ;
#215 = DIRECTION ( 'NONE',  ( -1.000000000000000000, 5.708367366378543700E-019, -0.0000000000000000000 ) ) ;
#216 = DIRECTION ( 'NONE',  ( 1.000000000000000000, -5.708367366378543700E-019, 0.0000000000000000000 ) ) ;
#217 = VECTOR ( 'NONE', #98, 1000.000000000000100 ) ;
#218 = DIRECTION ( 'NONE',  ( 0.0000000000000000000, -1.000000000000000000, 0.0000000000000000000 ) ) ;
#219 = VERTEX_POINT ( 'NONE', #432 ) ;
#220 = VECTOR ( 'NONE', #907, 1000.000000000000200 ) ;
#221 = APPLICATION_CONTEXT ( 'automotive_design' ) ;
#222 = EDGE_CURVE ( 'NONE', #735, #236, #1088, .T. ) ;
#223 = ORIENTED_EDGE ( 'NONE', *, *, #841, .T. ) ;
#224 = AXIS2_PLACEMENT_3D ( 'NONE', #987, #1205, #894 ) ;
#225 =( NAMED_UNIT ( * ) SI_UNIT ( $, .STERADIAN. ) SOLID_ANGLE_UNIT ( ) );
#226 = DIRECTION ( 'NONE',  ( -1.000000000000000000, 5.708367366378543700E-019, -0.0000000000000000000 ) ) ;
#227 = CARTESIAN_POINT ( 'NONE',  ( 1173.000000000000200, -289.0000000000001100, 0.0000000000000000000 ) ) ;
#228 = DIRECTION ( 'NONE',  ( -1.000000000000000000, 5.708367366378543700E-019, -0.0000000000000000000 ) ) ;
#229 = CARTESIAN_POINT ( 'NONE',  ( 369.6686681525733900, 294.8000000000000100, 0.0000000000000000000 ) ) ;
#230 = VERTEX_POINT ( 'NONE', #1010 ) ;
#231 = EDGE_CURVE ( 'NONE', #625, #1143, #998, .T. ) ;
#232 = DIRECTION ( 'NONE',  ( -1.000000000000000000, 5.708367366378543700E-019, -0.0000000000000000000 ) ) ;
#233 = ORIENTED_EDGE ( 'NONE', *, *, #387, .T. ) ;
#234 = ORIENTED_EDGE ( 'NONE', *, *, #366, .T. ) ;
#235 = CYLINDRICAL_SURFACE ( 'NONE', #866, 470.0000000000000600 ) ;
#236 = VERTEX_POINT ( 'NONE', #812 ) ;
#237 = ORIENTED_EDGE ( 'NONE', *, *, #305, .T. ) ;
#238 = AXIS2_PLACEMENT_3D ( 'NONE', #904, #320, #423 ) ;
#239 = VECTOR ( 'NONE', #228, 1000.000000000000000 ) ;
#240 = ORIENTED_EDGE ( 'NONE', *, *, #1039, .T. ) ;
#241 = CARTESIAN_POINT ( 'NONE',  ( 667.9999999999998900, 9.316055541929785100E-016, 0.0000000000000000000 ) ) ;
#242 = EDGE_CURVE ( 'NONE', #629, #550, #541, .T. ) ;
#243 = AXIS2_PLACEMENT_3D ( 'NONE', #993, #1084, #1206 ) ;
#244 = VECTOR ( 'NONE', #327, 1000.000000000000000 ) ;
#245 = CARTESIAN_POINT ( 'NONE',  ( 2775.000000000000500, 3.258545798953554100E-036, 0.0000000000000000000 ) ) ;
#246 = AXIS2_PLACEMENT_3D ( 'NONE', #918, #728, #1133 ) ;
#247 = LINE ( 'NONE', #792, #817 ) ;
#248 = VERTEX_POINT ( 'NONE', #229 ) ;
#249 = DIRECTION ( 'NONE',  ( 0.0000000000000000000, -1.000000000000000000, 0.0000000000000000000 ) ) ;
#250 = DIRECTION ( 'NONE',  ( 0.0000000000000000000, -1.000000000000000000, 0.0000000000000000000 ) ) ;
#251 = FACE_OUTER_BOUND ( 'NONE', #1270, .T. ) ;
#252 = AXIS2_PLACEMENT_3D ( 'NONE', #865, #1272, #279 ) ;
#253 = ORIENTED_EDGE ( 'NONE', *, *, #64, .T. ) ;
#254 = EDGE_CURVE ( 'NONE', #1061, #230, #45, .T. ) ;
#255 = CARTESIAN_POINT ( 'NONE',  ( 2300.000000000000500, -289.0000000000001700, 0.0000000000000000000 ) ) ;
#256 = CIRCLE ( 'NONE', #1002, 20.00000000000000000 ) ;
#257 = AXIS2_PLACEMENT_3D ( 'NONE', #737, #160, #462 ) ;
#258 = CARTESIAN_POINT ( 'NONE',  ( 697.9999999999998900, -470.0000000000000600, 0.0000000000000000000 ) ) ;
#259 = FACE_OUTER_BOUND ( 'NONE', #845, .T. ) ;
#260 = MECHANICAL_DESIGN_GEOMETRIC_PRESENTATION_REPRESENTATION (  '', ( #68 ), #174 ) ;
#261 = ORIENTED_EDGE ( 'NONE', *, *, #1012, .T. ) ;
#262 = SURFACE_STYLE_FILL_AREA ( #702 ) ;
#263 = ADVANCED_FACE ( 'NONE', ( #730 ), #46, .F. ) ;
#264 = DIRECTION ( 'NONE',  ( 5.708367366378543700E-019, 1.000000000000000000, 0.0000000000000000000 ) ) ;
#265 = UNCERTAINTY_MEASURE_WITH_UNIT (LENGTH_MEASURE( 1.000000000000000100E-005 ), #520, 'distance_accuracy_value', 'NONE');
#266 = DIRECTION ( 'NONE',  ( -5.708367366378543700E-019, -1.000000000000000000, 0.0000000000000000000 ) ) ;
#267 = AXIS2_PLACEMENT_3D ( 'NONE', #1218, #617, #1015 ) ;
#268 = FACE_OUTER_BOUND ( 'NONE', #65, .T. ) ;
#269 = ORIENTED_EDGE ( 'NONE', *, *, #445, .F. ) ;
#270 = DIRECTION ( 'NONE',  ( -1.000000000000000000, 5.708367366378543700E-019, -0.0000000000000000000 ) ) ;
#271 = CARTESIAN_POINT ( 'NONE',  ( 1173.000000000000000, 6.433330021908619700E-016, 0.0000000000000000000 ) ) ;
#272 = ORIENTED_EDGE ( 'NONE', *, *, #1123, .F. ) ;
#273 = ADVANCED_FACE ( 'NONE', ( #922 ), #976, .F. ) ;
#274 = CIRCLE ( 'NONE', #966, 398.5000000000000000 ) ;
#275 = FILL_AREA_STYLE ('',( #385 ) ) ;
#276 = PRESENTATION_STYLE_ASSIGNMENT (( #811 ) ) ;
#277 = ORIENTED_EDGE ( 'NONE', *, *, #309, .F. ) ;
#278 = DIRECTION ( 'NONE',  ( -1.000000000000000000, 5.708367366378543700E-019, -0.0000000000000000000 ) ) ;
#279 = DIRECTION ( 'NONE',  ( 0.0000000000000000000, -1.000000000000000000, 0.0000000000000000000 ) ) ;
#280 = EDGE_CURVE ( 'NONE', #818, #219, #1191, .T. ) ;
#281 = DIRECTION ( 'NONE',  ( -1.000000000000000000, 5.708367366378543700E-019, 0.0000000000000000000 ) ) ;
#282 = DIRECTION ( 'NONE',  ( 0.0000000000000000000, -1.000000000000000000, 0.0000000000000000000 ) ) ;
#283 = CARTESIAN_POINT ( 'NONE',  ( 1173.000000000000000, 6.433330021908619700E-016, 0.0000000000000000000 ) ) ;
#284 = DIRECTION ( 'NONE',  ( 0.0000000000000000000, -1.000000000000000000, 0.0000000000000000000 ) ) ;
#285 = EDGE_LOOP ( 'NONE', ( #732, #328, #686, #761 ) ) ;
#286 = ADVANCED_FACE ( 'NONE', ( #325, #297 ), #1170, .F. ) ;
#287 = CYLINDRICAL_SURFACE ( 'NONE', #507, 292.0000000000002800 ) ;
#288 = ORIENTED_EDGE ( 'NONE', *, *, #571, .F. ) ;
#289 = DIRECTION ( 'NONE',  ( 0.0000000000000000000, -1.000000000000000000, 0.0000000000000000000 ) ) ;
#290 = EDGE_CURVE ( 'NONE', #645, #1143, #298, .T. ) ;
#291 = EDGE_LOOP ( 'NONE', ( #986, #1069 ) ) ;
#292 = CARTESIAN_POINT ( 'NONE',  ( 2775.000000000000900, 1.415023513195579500E-034, 0.0000000000000000000 ) ) ;
#293 = CYLINDRICAL_SURFACE ( 'NONE', #137, 243.9999999999999700 ) ;
#294 = AXIS2_PLACEMENT_3D ( 'NONE', #932, #1136, #834 ) ;
#295 = EDGE_CURVE ( 'NONE', #219, #460, #1018, .T. ) ;
#296 =( LENGTH_UNIT ( ) NAMED_UNIT ( * ) SI_UNIT ( .MILLI., .METRE. ) );
#297 = FACE_BOUND ( 'NONE', #338, .T. ) ;
#298 = LINE ( 'NONE', #775, #1288 ) ;
#299 = CARTESIAN_POINT ( 'NONE',  ( 2273.000000000000500, 1.541259188922185500E-017, 0.0000000000000000000 ) ) ;
#300 = PLANE ( 'NONE',  #41 ) ;
#301 = ORIENTED_EDGE ( 'NONE', *, *, #1213, .F. ) ;
#302 = ORIENTED_EDGE ( 'NONE', *, *, #940, .T. ) ;
#303 = CARTESIAN_POINT ( 'NONE',  ( 1173.000000000000000, 6.433330021908619700E-016, 0.0000000000000000000 ) ) ;
#304 = DIRECTION ( 'NONE',  ( 0.0000000000000000000, 1.000000000000000000, 0.0000000000000000000 ) ) ;
#305 = EDGE_CURVE ( 'NONE', #139, #367, #14, .T. ) ;
#306 = CYLINDRICAL_SURFACE ( 'NONE', #1266, 294.7999999999999500 ) ;
#307 = UNCERTAINTY_MEASURE_WITH_UNIT (LENGTH_MEASURE( 1.000000000000000100E-005 ), #1065, 'distance_accuracy_value', 'NONE');
#308 = AXIS2_PLACEMENT_3D ( 'NONE', #165, #1036, #848 ) ;
#309 = EDGE_CURVE ( 'NONE', #622, #625, #75, .T. ) ;
#310 = CARTESIAN_POINT ( 'NONE',  ( 698.0000000000000000, 3.258545798953550700E-036, 0.0000000000000000000 ) ) ;
#311 = VECTOR ( 'NONE', #1113, 1000.000000000000000 ) ;
#312 = CARTESIAN_POINT ( 'NONE',  ( 1173.000000000000000, 292.0000000000002800, 3.575968653510274500E-014 ) ) ;
#313 = ORIENTED_EDGE ( 'NONE', *, *, #309, .T. ) ;
#314 = PLANE ( 'NONE',  #751 ) ;
#315 = CARTESIAN_POINT ( 'NONE',  ( 2273.000000000000500, -292.0000000000002800, 0.0000000000000000000 ) ) ;
#316 = CARTESIAN_POINT ( 'NONE',  ( 2775.000000000000500, -20.00000000000001800, 0.0000000000000000000 ) ) ;
#317 = DIRECTION ( 'NONE',  ( -1.000000000000000000, 5.708367366378543700E-019, -0.0000000000000000000 ) ) ;
#318 = AXIS2_PLACEMENT_3D ( 'NONE', #129, #1256, #1137 ) ;
#319 = EDGE_CURVE ( 'NONE', #546, #735, #402, .T. ) ;
#320 = DIRECTION ( 'NONE',  ( -1.000000000000000000, 5.708367366378543700E-019, -0.0000000000000000000 ) ) ;
#321 = CARTESIAN_POINT ( 'NONE',  ( 698.0000000000000000, 9.144804520938428700E-016, 0.0000000000000000000 ) ) ;
#322 = ORIENTED_EDGE ( 'NONE', *, *, #578, .T. ) ;
#323 = EDGE_LOOP ( 'NONE', ( #458, #565 ) ) ;
#324 = DIRECTION ( 'NONE',  ( 0.8622990686253669800, -0.5063993643833141200, 6.201603606822797700E-017 ) ) ;
#325 = FACE_OUTER_BOUND ( 'NONE', #945, .T. ) ;
#326 = DIRECTION ( 'NONE',  ( 0.0000000000000000000, -1.000000000000000000, 0.0000000000000000000 ) ) ;
#327 = DIRECTION ( 'NONE',  ( -1.000000000000000000, 5.708367366378543700E-019, -0.0000000000000000000 ) ) ;
#328 = ORIENTED_EDGE ( 'NONE', *, *, #377, .F. ) ;
#329 = FACE_BOUND ( 'NONE', #903, .T. ) ;
#330 = SURFACE_SIDE_STYLE ('',( #483 ) ) ;
#331 = EDGE_CURVE ( 'NONE', #777, #1055, #798, .T. ) ;
#332 = ORIENTED_EDGE ( 'NONE', *, *, #377, .T. ) ;
#333 = FACE_OUTER_BOUND ( 'NONE', #800, .T. ) ;
#334 = PRODUCT_DEFINITION ( 'UNKNOWN', '', #790, #1142 ) ;
#335 = AXIS2_PLACEMENT_3D ( 'NONE', #1121, #1026, #337 ) ;
#336 = DIRECTION ( 'NONE',  ( -1.000000000000000000, 5.708367366378543700E-019, -0.0000000000000000000 ) ) ;
#337 = DIRECTION ( 'NONE',  ( 0.0000000000000000000, -1.000000000000000000, 0.0000000000000000000 ) ) ;
#338 = EDGE_LOOP ( 'NONE', ( #1043, #949 ) ) ;
#339 = FACE_OUTER_BOUND ( 'NONE', #953, .T. ) ;
#340 = ORIENTED_EDGE ( 'NONE', *, *, #395, .T. ) ;
#341 = ORIENTED_EDGE ( 'NONE', *, *, #486, .T. ) ;
#342 = AXIS2_PLACEMENT_3D ( 'NONE', #1196, #880, #282 ) ;
#343 = LINE ( 'NONE', #741, #606 ) ;
#344 = CIRCLE ( 'NONE', #1149, 295.0000000000001100 ) ;
#345 = ORIENTED_EDGE ( 'NONE', *, *, #651, .F. ) ;
#346 = PLANE ( 'NONE',  #814 ) ;
#347 = ADVANCED_FACE ( 'NONE', ( #731 ), #235, .T. ) ;
#348 = CARTESIAN_POINT ( 'NONE',  ( 2300.000000000000500, 0.0000000000000000000, 0.0000000000000000000 ) ) ;
#349 = DIRECTION ( 'NONE',  ( 0.0000000000000000000, -1.000000000000000000, 0.0000000000000000000 ) ) ;
#350 = EDGE_CURVE ( 'NONE', #440, #162, #38, .T. ) ;
#351 = CARTESIAN_POINT ( 'NONE',  ( 1173.000000000000200, 6.433330021908618700E-016, 0.0000000000000000000 ) ) ;
#352 = AXIS2_PLACEMENT_3D ( 'NONE', #1285, #210, #1078 ) ;
#353 = ORIENTED_EDGE ( 'NONE', *, *, #578, .F. ) ;
#354 = ORIENTED_EDGE ( 'NONE', *, *, #1039, .F. ) ;
#355 = CARTESIAN_POINT ( 'NONE',  ( 698.0000000000000000, -398.5000000000000000, 0.0000000000000000000 ) ) ;
#356 = ADVANCED_FACE ( 'NONE', ( #684 ), #498, .F. ) ;
#357 = CIRCLE ( 'NONE', #1073, 292.0000000000002800 ) ;
#358 = ORIENTED_EDGE ( 'NONE', *, *, #25, .F. ) ;
#359 = CONICAL_SURFACE ( 'NONE', #352, 295.0000000000002800, 0.5275473698086786700 ) ;
#360 = EDGE_CURVE ( 'NONE', #1173, #807, #1090, .T. ) ;
#361 = ADVANCED_FACE ( 'NONE', ( #1127 ), #1028, .F. ) ;
#362 = COLOUR_RGB ( '',1.000000000000000000, 0.6901960784313725400, 0.5098039215686274200 ) ;
#363 = AXIS2_PLACEMENT_3D ( 'NONE', #908, #1223, #545 ) ;
#364 = UNCERTAINTY_MEASURE_WITH_UNIT (LENGTH_MEASURE( 1.000000000000000100E-005 ), #296, 'distance_accuracy_value', 'NONE');
#365 = FACE_OUTER_BOUND ( 'NONE', #635, .T. ) ;
#366 = EDGE_CURVE ( 'NONE', #110, #440, #826, .T. ) ;
#367 = VERTEX_POINT ( 'NONE', #1280 ) ;
#368 = FACE_OUTER_BOUND ( 'NONE', #171, .T. ) ;
#369 = PRODUCT_RELATED_PRODUCT_CATEGORY ( 'part', '', ( #1236 ) ) ;
#370 = VERTEX_POINT ( 'NONE', #1163 ) ;
#371 = DIRECTION ( 'NONE',  ( -1.000000000000000000, 5.708367366378543700E-019, -0.0000000000000000000 ) ) ;
#372 = EDGE_LOOP ( 'NONE', ( #582, #1111 ) ) ;
#373 = CYLINDRICAL_SURFACE ( 'NONE', #1171, 398.5000000000000000 ) ;
#374 = CARTESIAN_POINT ( 'NONE',  ( 2303.000000000000500, -1.712510209913657100E-018, 0.0000000000000000000 ) ) ;
#375 = CYLINDRICAL_SURFACE ( 'NONE', #125, 295.0000000000001100 ) ;
#376 = ORIENTED_EDGE ( 'NONE', *, *, #974, .F. ) ;
#377 = EDGE_CURVE ( 'NONE', #546, #47, #1053, .T. ) ;
#378 = DIRECTION ( 'NONE',  ( 0.0000000000000000000, -1.000000000000000000, 0.0000000000000000000 ) ) ;
#379 = AXIS2_PLACEMENT_3D ( 'NONE', #283, #88, #771 ) ;
#380 = EDGE_CURVE ( 'NONE', #370, #162, #478, .T. ) ;
#381 = DIRECTION ( 'NONE',  ( 0.0000000000000000000, -1.000000000000000000, 0.0000000000000000000 ) ) ;
#382 = DIRECTION ( 'NONE',  ( 0.0000000000000000000, -1.000000000000000000, 0.0000000000000000000 ) ) ;
#383 = DIRECTION ( 'NONE',  ( -1.000000000000000000, 5.708367366378543700E-019, -0.0000000000000000000 ) ) ;
#384 = ADVANCED_FACE ( 'NONE', ( #268 ), #467, .F. ) ;
#385 = FILL_AREA_STYLE_COLOUR ( '', #691 ) ;
#386 = VERTEX_POINT ( 'NONE', #494 ) ;
#387 = EDGE_CURVE ( 'NONE', #896, #1262, #143, .T. ) ;
#388 = ORIENTED_EDGE ( 'NONE', *, *, #172, .F. ) ;
#389 = CARTESIAN_POINT ( 'NONE',  ( 1173.000000000000000, 398.5000000000000000, 4.880217494602202600E-014 ) ) ;
#390 = ORIENTED_EDGE ( 'NONE', *, *, #1123, .T. ) ;
#391 = LINE ( 'NONE', #1014, #133 ) ;
#392 = ADVANCED_FACE ( 'NONE', ( #339 ), #1153, .F. ) ;
#393 = VERTEX_POINT ( 'NONE', #1091 ) ;
#394 = DIRECTION ( 'NONE',  ( -1.000000000000000000, 5.708367366378543700E-019, -0.0000000000000000000 ) ) ;
#395 = EDGE_CURVE ( 'NONE', #440, #110, #515, .T. ) ;
#396 = CARTESIAN_POINT ( 'NONE',  ( 1170.000000000000200, 6.450455124007754200E-016, 0.0000000000000000000 ) ) ;
#397 = CARTESIAN_POINT ( 'NONE',  ( 1173.000000000000000, 289.0000000000001700, 3.539229249535852700E-014 ) ) ;
#398 = VECTOR ( 'NONE', #898, 1000.000000000000000 ) ;
#399 = CARTESIAN_POINT ( 'NONE',  ( 1173.000000000000000, 6.433330021908619700E-016, 0.0000000000000000000 ) ) ;
#400 = ORIENTED_EDGE ( 'NONE', *, *, #156, .F. ) ;
#401 = ORIENTED_EDGE ( 'NONE', *, *, #231, .F. ) ;
#402 = LINE ( 'NONE', #81, #543 ) ;
#403 = CARTESIAN_POINT ( 'NONE',  ( 2775.000000000000900, -398.5000000000000000, 0.0000000000000000000 ) ) ;
#404 = ORIENTED_EDGE ( 'NONE', *, *, #1181, .F. ) ;
#405 = ORIENTED_EDGE ( 'NONE', *, *, #425, .T. ) ;
#406 = DIRECTION ( 'NONE',  ( 0.0000000000000000000, -1.000000000000000000, 0.0000000000000000000 ) ) ;
#407 = VECTOR ( 'NONE', #975, 1000.000000000000000 ) ;
#408 = DIRECTION ( 'NONE',  ( 0.0000000000000000000, -1.000000000000000000, 0.0000000000000000000 ) ) ;
#409 = LINE ( 'NONE', #663, #926 ) ;
#410 = CARTESIAN_POINT ( 'NONE',  ( 2300.000000000000500, 292.0000000000002800, 3.575968653510274500E-014 ) ) ;
#411 = ORIENTED_EDGE ( 'NONE', *, *, #509, .F. ) ;
#412 = ORIENTED_EDGE ( 'NONE', *, *, #331, .T. ) ;
#413 = DIRECTION ( 'NONE',  ( 0.0000000000000000000, -1.000000000000000000, 0.0000000000000000000 ) ) ;
#414 = ORIENTED_CLOSED_SHELL ( 'NONE', *, #603, .F. );
#415 = FILL_AREA_STYLE_COLOUR ( '', #362 ) ;
#416 = CARTESIAN_POINT ( 'NONE',  ( 1200.000000000000200, 9.563831919928675800E-035, 0.0000000000000000000 ) ) ;
#417 = ORIENTED_EDGE ( 'NONE', *, *, #851, .F. ) ;
#418 = DIRECTION ( 'NONE',  ( 5.708367366378543700E-019, 1.000000000000000000, 0.0000000000000000000 ) ) ;
#419 = CARTESIAN_POINT ( 'NONE',  ( 1173.000000000000000, 6.433330021908619700E-016, 0.0000000000000000000 ) ) ;
#420 = ORIENTED_EDGE ( 'NONE', *, *, #873, .F. ) ;
#421 =( NAMED_UNIT ( * ) PLANE_ANGLE_UNIT ( ) SI_UNIT ( $, .RADIAN. ) );
#422 = VERTEX_POINT ( 'NONE', #1082 ) ;
#423 = DIRECTION ( 'NONE',  ( 0.0000000000000000000, -1.000000000000000000, 0.0000000000000000000 ) ) ;
#424 = CARTESIAN_POINT ( 'NONE',  ( 667.9999999999998900, 470.0000000000000600, 5.755839955992560800E-014 ) ) ;
#425 = EDGE_CURVE ( 'NONE', #248, #1228, #247, .T. ) ;
#426 = ORIENTED_EDGE ( 'NONE', *, *, #1275, .T. ) ;
#427 = AXIS2_PLACEMENT_3D ( 'NONE', #310, #881, #513 ) ;
#428 = CARTESIAN_POINT ( 'NONE',  ( 1173.000000000000000, -243.9999999999999700, 0.0000000000000000000 ) ) ;
#429 = ORIENTED_EDGE ( 'NONE', *, *, #126, .T. ) ;
#430 = CARTESIAN_POINT ( 'NONE',  ( 1173.000000000000000, -289.0000000000001700, 0.0000000000000000000 ) ) ;
#431 = CARTESIAN_POINT ( 'NONE',  ( 2303.000000000000500, 295.0000000000002800, 3.612708057484695100E-014 ) ) ;
#432 = CARTESIAN_POINT ( 'NONE',  ( 1170.000000000000200, 295.0000000000001100, 0.0000000000000000000 ) ) ;
#433 = EDGE_CURVE ( 'NONE', #550, #629, #1230, .T. ) ;
#434 = CARTESIAN_POINT ( 'NONE',  ( 1173.000000000000000, 6.433330021908619700E-016, 0.0000000000000000000 ) ) ;
#435 = VERTEX_POINT ( 'NONE', #91 ) ;
#436 = CIRCLE ( 'NONE', #1060, 292.0000000000001100 ) ;
#437 = PLANE ( 'NONE',  #652 ) ;
#438 = VECTOR ( 'NONE', #1099, 1000.000000000000100 ) ;
#439 = AXIS2_PLACEMENT_3D ( 'NONE', #120, #22, #808 ) ;
#440 = VERTEX_POINT ( 'NONE', #403 ) ;
#441 = EDGE_LOOP ( 'NONE', ( #157, #1054 ) ) ;
#442 = ORIENTED_EDGE ( 'NONE', *, *, #156, .T. ) ;
#443 = CIRCLE ( 'NONE', #1204, 294.8000000000000100 ) ;
#444 = DIRECTION ( 'NONE',  ( 5.708367366378543700E-019, 1.000000000000000000, 0.0000000000000000000 ) ) ;
#445 = EDGE_CURVE ( 'NONE', #367, #139, #947, .T. ) ;
#446 = LINE ( 'NONE', #1224, #893 ) ;
#447 = ORIENTED_EDGE ( 'NONE', *, *, #901, .T. ) ;
#448 = VERTEX_POINT ( 'NONE', #584 ) ;
#449 = ORIENTED_EDGE ( 'NONE', *, *, #638, .F. ) ;
#450 = EDGE_CURVE ( 'NONE', #622, #645, #1269, .T. ) ;
#451 = CARTESIAN_POINT ( 'NONE',  ( 2300.000000000000500, 9.466075545960072800E-035, 0.0000000000000000000 ) ) ;
#452 = STYLED_ITEM ( 'NONE', ( #276 ), #820 ) ;
#453 = ORIENTED_EDGE ( 'NONE', *, *, #42, .T. ) ;
#454 = ORIENTED_EDGE ( 'NONE', *, *, #1225, .T. ) ;
#455 = CARTESIAN_POINT ( 'NONE',  ( 3193.325776396609900, -5.099431709527183400E-016, 0.0000000000000000000 ) ) ;
#456 = CARTESIAN_POINT ( 'NONE',  ( 2300.000000000000500, -292.0000000000002800, 0.0000000000000000000 ) ) ;
#457 = STYLED_ITEM ( 'NONE', ( #1045 ), #595 ) ;
#458 = ORIENTED_EDGE ( 'NONE', *, *, #836, .T. ) ;
#459 = EDGE_CURVE ( 'NONE', #660, #645, #563, .T. ) ;
#460 = VERTEX_POINT ( 'NONE', #878 ) ;
#461 = DIRECTION ( 'NONE',  ( 0.0000000000000000000, -1.000000000000000000, 0.0000000000000000000 ) ) ;
#462 = DIRECTION ( 'NONE',  ( 0.0000000000000000000, -1.000000000000000000, 0.0000000000000000000 ) ) ;
#463 = EDGE_LOOP ( 'NONE', ( #2, #269 ) ) ;
#464 = EDGE_CURVE ( 'NONE', #435, #553, #63, .T. ) ;
#465 = AXIS2_PLACEMENT_3D ( 'NONE', #374, #560, #473 ) ;
#466 = CIRCLE ( 'NONE', #257, 398.5000000000000000 ) ;
#467 = CYLINDRICAL_SURFACE ( 'NONE', #890, 295.0000000000001100 ) ;
#468 = ORIENTED_EDGE ( 'NONE', *, *, #1225, .F. ) ;
#469 = CYLINDRICAL_SURFACE ( 'NONE', #1258, 470.0000000000002300 ) ;
#470 = ADVANCED_FACE ( 'NONE', ( #259 ), #287, .T. ) ;
#471 = ORIENTED_EDGE ( 'NONE', *, *, #836, .F. ) ;
#472 = CARTESIAN_POINT ( 'NONE',  ( 1200.000000000000200, 6.279204103016397800E-016, 0.0000000000000000000 ) ) ;
#473 = DIRECTION ( 'NONE',  ( 0.0000000000000000000, -1.000000000000000000, 0.0000000000000000000 ) ) ;
#474 = DIRECTION ( 'NONE',  ( -1.000000000000000000, 5.708367366378543700E-019, -0.0000000000000000000 ) ) ;
#475 = ADVANCED_FACE ( 'NONE', ( #169 ), #982, .T. ) ;
#476 = AXIS2_PLACEMENT_3D ( 'NONE', #303, #996, #1214 ) ;
#477 = DIRECTION ( 'NONE',  ( 0.0000000000000000000, -1.000000000000000000, 0.0000000000000000000 ) ) ;
#478 = CIRCLE ( 'NONE', #105, 398.5000000000000000 ) ;
#479 = ORIENTED_EDGE ( 'NONE', *, *, #551, .T. ) ;
#480 = ADVANCED_FACE ( 'NONE', ( #999 ), #1114, .F. ) ;
#481 = CARTESIAN_POINT ( 'NONE',  ( 2775.000000000000900, -2.711474499029812500E-016, 0.0000000000000000000 ) ) ;
#482 = CARTESIAN_POINT ( 'NONE',  ( 3193.325776396609900, 243.9999999999999700, 2.988138189919541400E-014 ) ) ;
#483 = SURFACE_STYLE_FILL_AREA ( #724 ) ;
#484 = ORIENTED_EDGE ( 'NONE', *, *, #1062, .T. ) ;
#485 =( NAMED_UNIT ( * ) SI_UNIT ( $, .STERADIAN. ) SOLID_ANGLE_UNIT ( ) );
#486 = EDGE_CURVE ( 'NONE', #110, #370, #887, .T. ) ;
#487 = DIRECTION ( 'NONE',  ( -1.000000000000000000, 5.708367366378543700E-019, -0.0000000000000000000 ) ) ;
#488 = DIRECTION ( 'NONE',  ( 0.8640443605457467400, 0.5034156761654243800, 0.0000000000000000000 ) ) ;
#489 =( GEOMETRIC_REPRESENTATION_CONTEXT ( 3 ) GLOBAL_UNCERTAINTY_ASSIGNED_CONTEXT ( ( #265 ) ) GLOBAL_UNIT_ASSIGNED_CONTEXT ( ( #520, #421, #225 ) ) REPRESENTATION_CONTEXT ( 'NONE', 'WORKASPACE' ) );
#490 = ADVANCED_FACE ( 'NONE', ( #555 ), #719, .T. ) ;
#491 = CARTESIAN_POINT ( 'NONE',  ( 698.0000000000000000, 9.144804520938428700E-016, 0.0000000000000000000 ) ) ;
#492 = DIRECTION ( 'NONE',  ( 5.708367366378543700E-019, 1.000000000000000000, 0.0000000000000000000 ) ) ;
#493 = ORIENTED_EDGE ( 'NONE', *, *, #1284, .T. ) ;
#494 = CARTESIAN_POINT ( 'NONE',  ( 2273.000000000000500, 292.0000000000002800, 3.575968653510274500E-014 ) ) ;
#495 = ORIENTED_EDGE ( 'NONE', *, *, #910, .T. ) ;
#496 = ORIENTED_EDGE ( 'NONE', *, *, #551, .F. ) ;
#497 = EDGE_CURVE ( 'NONE', #422, #622, #1042, .T. ) ;
#498 = CONICAL_SURFACE ( 'NONE', #707, 20.00000000000000000, 0.5275473698086782200 ) ;
#499 = CARTESIAN_POINT ( 'NONE',  ( 1173.000000000000000, 6.433330021908619700E-016, 0.0000000000000000000 ) ) ;
#500 = DIRECTION ( 'NONE',  ( -1.000000000000000000, 5.708367366378543700E-019, -0.0000000000000000000 ) ) ;
#501 = ORIENTED_EDGE ( 'NONE', *, *, #718, .F. ) ;
#502 = DIRECTION ( 'NONE',  ( -1.000000000000000000, 5.708367366378543700E-019, -0.0000000000000000000 ) ) ;
#503 = ORIENTED_EDGE ( 'NONE', *, *, #1070, .T. ) ;
#504 = CARTESIAN_POINT ( 'NONE',  ( 1173.000000000000000, -292.0000000000002800, 0.0000000000000000000 ) ) ;
#505 = CIRCLE ( 'NONE', #916, 292.0000000000001700 ) ;
#506 = CARTESIAN_POINT ( 'NONE',  ( 1173.000000000000000, 6.433330021908619700E-016, 0.0000000000000000000 ) ) ;
#507 = AXIS2_PLACEMENT_3D ( 'NONE', #594, #6, #604 ) ;
#508 = ORIENTED_EDGE ( 'NONE', *, *, #985, .T. ) ;
#509 = EDGE_CURVE ( 'NONE', #150, #393, #630, .T. ) ;
#510 = DIRECTION ( 'NONE',  ( -1.000000000000000000, 5.708367366378543700E-019, -0.0000000000000000000 ) ) ;
#511 = CARTESIAN_POINT ( 'NONE',  ( 1173.000000000000000, 295.0000000000002800, 3.612708057484695100E-014 ) ) ;
#512 = DIRECTION ( 'NONE',  ( -1.000000000000000000, 5.708367366378543700E-019, -0.0000000000000000000 ) ) ;
#513 = DIRECTION ( 'NONE',  ( -5.708367366378543700E-019, -1.000000000000000000, 0.0000000000000000000 ) ) ;
#514 = CYLINDRICAL_SURFACE ( 'NONE', #439, 295.0000000000002800 ) ;
#515 = CIRCLE ( 'NONE', #342, 398.5000000000000000 ) ;
#516 = CARTESIAN_POINT ( 'NONE',  ( 1173.000000000000000, 292.0000000000002800, 3.575968653510274500E-014 ) ) ;
#517 = AXIS2_PLACEMENT_3D ( 'NONE', #889, #124, #899 ) ;
#518 = ORIENTED_EDGE ( 'NONE', *, *, #674, .T. ) ;
#519 = AXIS2_PLACEMENT_3D ( 'NONE', #941, #1037, #461 ) ;
#520 =( LENGTH_UNIT ( ) NAMED_UNIT ( * ) SI_UNIT ( .MILLI., .METRE. ) );
#521 = DIRECTION ( 'NONE',  ( 1.000000000000000000, -5.708367366378543700E-019, 0.0000000000000000000 ) ) ;
#522 = VECTOR ( 'NONE', #615, 1000.000000000000000 ) ;
#523 = DIRECTION ( 'NONE',  ( 0.0000000000000000000, -1.000000000000000000, 0.0000000000000000000 ) ) ;
#524 = DIRECTION ( 'NONE',  ( -1.000000000000000000, 5.708367366378543700E-019, -0.0000000000000000000 ) ) ;
#525 = ORIENTED_EDGE ( 'NONE', *, *, #136, .T. ) ;
#526 = DIRECTION ( 'NONE',  ( -1.000000000000000000, 5.708367366378543700E-019, -0.0000000000000000000 ) ) ;
#527 = DIRECTION ( 'NONE',  ( -1.000000000000000000, 5.708367366378543700E-019, -0.0000000000000000000 ) ) ;
#528 = AXIS2_PLACEMENT_3D ( 'NONE', #29, #527, #153 ) ;
#529 = EDGE_CURVE ( 'NONE', #840, #1247, #600, .T. ) ;
#530 = CARTESIAN_POINT ( 'NONE',  ( 1200.000000000000200, 292.0000000000001700, 3.575968653510273900E-014 ) ) ;
#531 = CARTESIAN_POINT ( 'NONE',  ( 667.9999999999998900, -470.0000000000000600, 0.0000000000000000000 ) ) ;
#532 = CARTESIAN_POINT ( 'NONE',  ( 2300.000000000000500, 289.0000000000001700, 3.539229249535852700E-014 ) ) ;
#533 = CIRCLE ( 'NONE', #587, 20.00000000000001800 ) ;
#534 = VECTOR ( 'NONE', #900, 1000.000000000000000 ) ;
#535 = EDGE_CURVE ( 'NONE', #656, #460, #111, .T. ) ;
#536 = ORIENTED_EDGE ( 'NONE', *, *, #1213, .T. ) ;
#537 = AXIS2_PLACEMENT_3D ( 'NONE', #575, #179, #864 ) ;
#538 = CIRCLE ( 'NONE', #739, 398.5000000000000000 ) ;
#539 = CARTESIAN_POINT ( 'NONE',  ( 2775.000000000000900, -2.711474499029812500E-016, 0.0000000000000000000 ) ) ;
#540 = DIRECTION ( 'NONE',  ( 0.0000000000000000000, -1.000000000000000000, 0.0000000000000000000 ) ) ;
#541 = CIRCLE ( 'NONE', #952, 470.0000000000000600 ) ;
#542 = CARTESIAN_POINT ( 'NONE',  ( 2300.000000000000500, 0.0000000000000000000, 0.0000000000000000000 ) ) ;
#543 = VECTOR ( 'NONE', #956, 1000.000000000000000 ) ;
#544 = PRESENTATION_LAYER_ASSIGNMENT (  '', '', ( #457 ) ) ;
#545 = DIRECTION ( 'NONE',  ( 0.0000000000000000000, 1.000000000000000000, 0.0000000000000000000 ) ) ;
#546 = VERTEX_POINT ( 'NONE', #1109 ) ;
#547 = FACE_OUTER_BOUND ( 'NONE', #54, .T. ) ;
#548 = DIRECTION ( 'NONE',  ( -1.000000000000000000, 5.708367366378543700E-019, -0.0000000000000000000 ) ) ;
#549 = CYLINDRICAL_SURFACE ( 'NONE', #1108, 470.0000000000002300 ) ;
#550 = VERTEX_POINT ( 'NONE', #121 ) ;
#551 = EDGE_CURVE ( 'NONE', #230, #840, #583, .T. ) ;
#552 = AXIS2_PLACEMENT_3D ( 'NONE', #1072, #278, #382 ) ;
#553 = VERTEX_POINT ( 'NONE', #530 ) ;
#554 = DIRECTION ( 'NONE',  ( -1.000000000000000000, 5.708367366378543700E-019, -0.0000000000000000000 ) ) ;
#555 = FACE_OUTER_BOUND ( 'NONE', #1229, .T. ) ;
#556 = ORIENTED_EDGE ( 'NONE', *, *, #295, .T. ) ;
#557 = CIRCLE ( 'NONE', #335, 470.0000000000004000 ) ;
#558 = ORIENTED_EDGE ( 'NONE', *, *, #464, .F. ) ;
#559 = ADVANCED_FACE ( 'NONE', ( #1189 ), #314, .F. ) ;
#560 = DIRECTION ( 'NONE',  ( -1.000000000000000000, 5.708367366378543700E-019, -0.0000000000000000000 ) ) ;
#561 = CYLINDRICAL_SURFACE ( 'NONE', #850, 292.0000000000002800 ) ;
#562 = SURFACE_SIDE_STYLE ('',( #849 ) ) ;
#563 = LINE ( 'NONE', #1, #217 ) ;
#564 = ADVANCED_FACE ( 'NONE', ( #206, #797 ), #1165, .F. ) ;
#565 = ORIENTED_EDGE ( 'NONE', *, *, #1168, .T. ) ;
#566 = DIRECTION ( 'NONE',  ( -1.000000000000000000, 5.708367366378543700E-019, -0.0000000000000000000 ) ) ;
#567 = DIRECTION ( 'NONE',  ( 0.0000000000000000000, -1.000000000000000000, 0.0000000000000000000 ) ) ;
#568 = ORIENTED_EDGE ( 'NONE', *, *, #535, .T. ) ;
#569 = CIRCLE ( 'NONE', #519, 470.0000000000000600 ) ;
#570 = DIRECTION ( 'NONE',  ( -1.000000000000000000, 5.708367366378543700E-019, -0.0000000000000000000 ) ) ;
#571 = EDGE_CURVE ( 'NONE', #1102, #656, #856, .T. ) ;
#572 = ORIENTED_EDGE ( 'NONE', *, *, #1115, .F. ) ;
#573 = AXIS2_PLACEMENT_3D ( 'NONE', #1101, #37, #304 ) ;
#574 = ADVANCED_FACE ( 'NONE', ( #368, #844 ), #1047, .T. ) ;
#575 = CARTESIAN_POINT ( 'NONE',  ( 3611.000000000000000, 3.975425874723331500E-035, 0.0000000000000000000 ) ) ;
#576 = DIRECTION ( 'NONE',  ( 0.0000000000000000000, -1.000000000000000000, 0.0000000000000000000 ) ) ;
#577 = DIRECTION ( 'NONE',  ( -1.000000000000000000, 5.708367366378543700E-019, -0.0000000000000000000 ) ) ;
#578 = EDGE_CURVE ( 'NONE', #807, #1262, #177, .T. ) ;
#579 = ADVANCED_FACE ( 'NONE', ( #251 ), #1276, .T. ) ;
#580 = CARTESIAN_POINT ( 'NONE',  ( 1173.000000000000000, 6.433330021908619700E-016, 0.0000000000000000000 ) ) ;
#581 = CARTESIAN_POINT ( 'NONE',  ( 2300.000000000000500, 4.708598679487884300E-035, 0.0000000000000000000 ) ) ;
#582 = ORIENTED_EDGE ( 'NONE', *, *, #1146, .T. ) ;
#583 = LINE ( 'NONE', #1207, #534 ) ;
#584 = CARTESIAN_POINT ( 'NONE',  ( 2775.000000000000900, -398.5000000000000000, 0.0000000000000000000 ) ) ;
#585 = EDGE_LOOP ( 'NONE', ( #643, #73, #637, #332 ) ) ;
#586 = CARTESIAN_POINT ( 'NONE',  ( 1173.000000000000000, -470.0000000000000600, 0.0000000000000000000 ) ) ;
#587 = AXIS2_PLACEMENT_3D ( 'NONE', #883, #802, #406 ) ;
#588 = FACE_OUTER_BOUND ( 'NONE', #1259, .T. ) ;
#589 = ORIENTED_EDGE ( 'NONE', *, *, #620, .T. ) ;
#590 = AXIS2_PLACEMENT_3D ( 'NONE', #455, #161, #842 ) ;
#591 = DIRECTION ( 'NONE',  ( -1.000000000000000000, 5.708367366378543700E-019, -0.0000000000000000000 ) ) ;
#592 = AXIS2_PLACEMENT_3D ( 'NONE', #1162, #566, #567 ) ;
#593 = DIRECTION ( 'NONE',  ( 0.0000000000000000000, -1.000000000000000000, 0.0000000000000000000 ) ) ;
#594 = CARTESIAN_POINT ( 'NONE',  ( 1173.000000000000000, 6.433330021908619700E-016, 0.0000000000000000000 ) ) ;
#595 = BREP_WITH_VOIDS ( 'NONE', #39, ( #414 ) );
#596 = DIRECTION ( 'NONE',  ( -1.000000000000000000, 5.708367366378543700E-019, -0.0000000000000000000 ) ) ;
#597 = SURFACE_STYLE_FILL_AREA ( #905 ) ;
#598 = DIRECTION ( 'NONE',  ( -1.000000000000000000, 5.708367366378543700E-019, -0.0000000000000000000 ) ) ;
#599 = ORIENTED_EDGE ( 'NONE', *, *, #535, .F. ) ;
#600 = CIRCLE ( 'NONE', #238, 289.0000000000001100 ) ;
#601 = DIRECTION ( 'NONE',  ( 0.0000000000000000000, -1.000000000000000000, 0.0000000000000000000 ) ) ;
#602 = EDGE_LOOP ( 'NONE', ( #525, #906 ) ) ;
#603 = CLOSED_SHELL ( 'NONE', ( #1032, #170, #470, #361, #972, #639, #263, #664, #356, #384, #740, #195, #1074, #760, #1050, #93, #286, #480, #753, #1129 ) ) ;
#604 = DIRECTION ( 'NONE',  ( 0.0000000000000000000, -1.000000000000000000, 0.0000000000000000000 ) ) ;
#605 =( NAMED_UNIT ( * ) SI_UNIT ( $, .STERADIAN. ) SOLID_ANGLE_UNIT ( ) );
#606 = VECTOR ( 'NONE', #937, 1000.000000000000000 ) ;
#607 = FACE_BOUND ( 'NONE', #1016, .T. ) ;
#608 = MECHANICAL_DESIGN_GEOMETRIC_PRESENTATION_REPRESENTATION (  '', ( #457 ), #662 ) ;
#609 = VERTEX_POINT ( 'NONE', #1049 ) ;
#610 = DIRECTION ( 'NONE',  ( -1.000000000000000000, 5.708367366378543700E-019, -0.0000000000000000000 ) ) ;
#611 = APPLICATION_PROTOCOL_DEFINITION ( 'draft international standard', 'automotive_design', 1998, #1011 ) ;
#612 = FILL_AREA_STYLE_COLOUR ( '', #805 ) ;
#613 = DIRECTION ( 'NONE',  ( 0.0000000000000000000, -1.000000000000000000, 0.0000000000000000000 ) ) ;
#614 = CARTESIAN_POINT ( 'NONE',  ( 1173.000000000000000, 398.5000000000000000, 4.880217494602202600E-014 ) ) ;
#615 = DIRECTION ( 'NONE',  ( -1.000000000000000000, 5.708367366378543700E-019, -0.0000000000000000000 ) ) ;
#616 = CARTESIAN_POINT ( 'NONE',  ( 697.9999999999998900, -470.0000000000000600, 0.0000000000000000000 ) ) ;
#617 = DIRECTION ( 'NONE',  ( -1.000000000000000000, 5.708367366378543700E-019, -0.0000000000000000000 ) ) ;
#618 = ORIENTED_EDGE ( 'NONE', *, *, #242, .F. ) ;
#619 = DIRECTION ( 'NONE',  ( 1.000000000000000000, 0.0000000000000000000, 0.0000000000000000000 ) ) ;
#620 = EDGE_CURVE ( 'NONE', #891, #248, #1257, .T. ) ;
#621 = DIRECTION ( 'NONE',  ( -1.000000000000000000, 5.708367366378543700E-019, -0.0000000000000000000 ) ) ;
#622 = VERTEX_POINT ( 'NONE', #1151 ) ;
#623 = FACE_BOUND ( 'NONE', #441, .T. ) ;
#624 = DIRECTION ( 'NONE',  ( -1.000000000000000000, 5.708367366378543700E-019, -0.0000000000000000000 ) ) ;
#625 = VERTEX_POINT ( 'NONE', #661 ) ;
#626 = FACE_OUTER_BOUND ( 'NONE', #585, .T. ) ;
#627 = CARTESIAN_POINT ( 'NONE',  ( 697.9999999999998900, 470.0000000000000600, 5.755839955992560800E-014 ) ) ;
#628 = EDGE_LOOP ( 'NONE', ( #618, #780 ) ) ;
#629 = VERTEX_POINT ( 'NONE', #176 ) ;
#630 = CIRCLE ( 'NONE', #166, 289.0000000000001100 ) ;
#631 = ORIENTED_EDGE ( 'NONE', *, *, #1168, .F. ) ;
#632 = CARTESIAN_POINT ( 'NONE',  ( 1173.000000000000000, 8.681944052568875400E-011, 0.0000000000000000000 ) ) ;
#633 = EDGE_LOOP ( 'NONE', ( #558, #1075 ) ) ;
#634 = CIRCLE ( 'NONE', #852, 398.5000000000000000 ) ;
#635 = EDGE_LOOP ( 'NONE', ( #872, #453, #77, #135 ) ) ;
#636 = DIRECTION ( 'NONE',  ( 0.0000000000000000000, -1.000000000000000000, 0.0000000000000000000 ) ) ;
#637 = ORIENTED_EDGE ( 'NONE', *, *, #651, .T. ) ;
#638 = EDGE_CURVE ( 'NONE', #1175, #1231, #862, .T. ) ;
#639 = ADVANCED_FACE ( 'NONE', ( #333 ), #375, .F. ) ;
#640 = AXIS2_PLACEMENT_3D ( 'NONE', #416, #216, #492 ) ;
#641 = DIRECTION ( 'NONE',  ( 0.0000000000000000000, -1.000000000000000000, 0.0000000000000000000 ) ) ;
#642 = ORIENTED_EDGE ( 'NONE', *, *, #1181, .T. ) ;
#643 = ORIENTED_EDGE ( 'NONE', *, *, #841, .F. ) ;
#644 = EDGE_CURVE ( 'NONE', #553, #435, #505, .T. ) ;
#645 = VERTEX_POINT ( 'NONE', #71 ) ;
#646 = DIRECTION ( 'NONE',  ( -1.000000000000000000, 5.708367366378543700E-019, -0.0000000000000000000 ) ) ;
#647 = VECTOR ( 'NONE', #1063, 1000.000000000000000 ) ;
#648 = EDGE_LOOP ( 'NONE', ( #750, #223, #484, #345 ) ) ;
#649 = DIRECTION ( 'NONE',  ( 0.0000000000000000000, -1.000000000000000000, 0.0000000000000000000 ) ) ;
#650 = AXIS2_PLACEMENT_3D ( 'NONE', #581, #1283, #1067 ) ;
#651 = EDGE_CURVE ( 'NONE', #892, #546, #409, .T. ) ;
#652 = AXIS2_PLACEMENT_3D ( 'NONE', #632, #717, #727 ) ;
#653 = ORIENTED_EDGE ( 'NONE', *, *, #360, .F. ) ;
#654 = ORIENTED_EDGE ( 'NONE', *, *, #974, .T. ) ;
#655 = VECTOR ( 'NONE', #488, 1000.000000000000100 ) ;
#656 = VERTEX_POINT ( 'NONE', #112 ) ;
#657 = ORIENTED_EDGE ( 'NONE', *, *, #164, .T. ) ;
#658 = DIRECTION ( 'NONE',  ( 0.0000000000000000000, -1.000000000000000000, 0.0000000000000000000 ) ) ;
#659 = ADVANCED_FACE ( 'NONE', ( #70 ), #1199, .T. ) ;
#660 = VERTEX_POINT ( 'NONE', #482 ) ;
#661 = CARTESIAN_POINT ( 'NONE',  ( 2775.000000000000900, -470.0000000000000600, 0.0000000000000000000 ) ) ;
#662 =( GEOMETRIC_REPRESENTATION_CONTEXT ( 3 ) GLOBAL_UNCERTAINTY_ASSIGNED_CONTEXT ( ( #307 ) ) GLOBAL_UNIT_ASSIGNED_CONTEXT ( ( #1065, #1263, #485 ) ) REPRESENTATION_CONTEXT ( 'NONE', 'WORKASPACE' ) );
#663 = CARTESIAN_POINT ( 'NONE',  ( 2303.000000000000500, -295.0000000000002800, 0.0000000000000000000 ) ) ;
#664 = ADVANCED_FACE ( 'NONE', ( #148 ), #8, .F. ) ;
#665 = SHAPE_DEFINITION_REPRESENTATION ( #26, #1139 ) ;
#666 = DIRECTION ( 'NONE',  ( 0.0000000000000000000, -1.000000000000000000, 0.0000000000000000000 ) ) ;
#667 = CARTESIAN_POINT ( 'NONE',  ( 698.0000000000000000, 9.144804520938428700E-016, 0.0000000000000000000 ) ) ;
#668 = DIRECTION ( 'NONE',  ( 1.000000000000000000, -5.708367366378543700E-019, 0.0000000000000000000 ) ) ;
#669 = CIRCLE ( 'NONE', #149, 289.0000000000001100 ) ;
#670 = ORIENTED_EDGE ( 'NONE', *, *, #107, .F. ) ;
#671 = DIRECTION ( 'NONE',  ( -5.708367366378543700E-019, -1.000000000000000000, 0.0000000000000000000 ) ) ;
#672 = ADVANCED_FACE ( 'NONE', ( #879 ), #990, .T. ) ;
#673 = ORIENTED_EDGE ( 'NONE', *, *, #172, .T. ) ;
#674 = EDGE_CURVE ( 'NONE', #656, #1102, #1160, .T. ) ;
#675 = ORIENTED_EDGE ( 'NONE', *, *, #919, .F. ) ;
#676 = CARTESIAN_POINT ( 'NONE',  ( 1173.000000000000000, -470.0000000000002300, 0.0000000000000000000 ) ) ;
#677 = MECHANICAL_DESIGN_GEOMETRIC_PRESENTATION_REPRESENTATION (  '', ( #452 ), #489 ) ;
#678 = DIRECTION ( 'NONE',  ( -1.000000000000000000, 5.708367366378543700E-019, -0.0000000000000000000 ) ) ;
#679 = CARTESIAN_POINT ( 'NONE',  ( 1173.000000000000000, 6.433330021908619700E-016, 0.0000000000000000000 ) ) ;
#680 = EDGE_LOOP ( 'NONE', ( #778, #429, #657, #1154 ) ) ;
#681 = DIRECTION ( 'NONE',  ( -1.000000000000000000, 5.708367366378543700E-019, -0.0000000000000000000 ) ) ;
#682 = CARTESIAN_POINT ( 'NONE',  ( 1173.000000000000000, -292.0000000000001100, 0.0000000000000000000 ) ) ;
#683 = EDGE_LOOP ( 'NONE', ( #1179, #83, #130, #173 ) ) ;
#684 = FACE_OUTER_BOUND ( 'NONE', #1245, .T. ) ;
#685 = DIRECTION ( 'NONE',  ( -1.000000000000000000, 5.708367366378543700E-019, -0.0000000000000000000 ) ) ;
#686 = ORIENTED_EDGE ( 'NONE', *, *, #319, .T. ) ;
#687 = ORIENTED_EDGE ( 'NONE', *, *, #395, .F. ) ;
#688 = AXIS2_PLACEMENT_3D ( 'NONE', #190, #371, #955 ) ;
#689 = CIRCLE ( 'NONE', #158, 398.5000000000000000 ) ;
#690 = CARTESIAN_POINT ( 'NONE',  ( 1173.000000000000000, 470.0000000000000600, 5.755839955992560800E-014 ) ) ;
#691 = COLOUR_RGB ( '',0.3803921568627450800, 0.4784313725490195700, 0.7882352941176470300 ) ;
#692 = ORIENTED_EDGE ( 'NONE', *, *, #42, .F. ) ;
#693 = DIRECTION ( 'NONE',  ( 0.0000000000000000000, -1.000000000000000000, 0.0000000000000000000 ) ) ;
#694 = PRESENTATION_LAYER_ASSIGNMENT (  '', '', ( #1096 ) ) ;
#695 = DIRECTION ( 'NONE',  ( 0.0000000000000000000, -1.000000000000000000, 0.0000000000000000000 ) ) ;
#696 = DIRECTION ( 'NONE',  ( -1.000000000000000000, 5.708367366378543700E-019, -0.0000000000000000000 ) ) ;
#697 = CARTESIAN_POINT ( 'NONE',  ( 2273.000000000000500, -295.0000000000002800, 0.0000000000000000000 ) ) ;
#698 = DIRECTION ( 'NONE',  ( -1.000000000000000000, 5.708367366378543700E-019, -0.0000000000000000000 ) ) ;
#699 = CARTESIAN_POINT ( 'NONE',  ( 1.682826699608394500E-016, 294.7999999999999500, 3.610258763886397100E-014 ) ) ;
#700 = EDGE_CURVE ( 'NONE', #818, #970, #102, .T. ) ;
#701 = VECTOR ( 'NONE', #843, 1000.000000000000000 ) ;
#702 = FILL_AREA_STYLE ('',( #612 ) ) ;
#703 = DIRECTION ( 'NONE',  ( -1.000000000000000000, 5.708367366378543700E-019, -0.0000000000000000000 ) ) ;
#704 = ORIENTED_EDGE ( 'NONE', *, *, #191, .F. ) ;
#705 = DIRECTION ( 'NONE',  ( 0.0000000000000000000, -1.000000000000000000, 0.0000000000000000000 ) ) ;
#706 = EDGE_LOOP ( 'NONE', ( #1019, #358 ) ) ;
#707 = AXIS2_PLACEMENT_3D ( 'NONE', #667, #766, #186 ) ;
#708 = ORIENTED_EDGE ( 'NONE', *, *, #813, .T. ) ;
#709 = EDGE_CURVE ( 'NONE', #660, #422, #1134, .T. ) ;
#710 = DIRECTION ( 'NONE',  ( 0.0000000000000000000, 1.000000000000000000, 0.0000000000000000000 ) ) ;
#711 = CARTESIAN_POINT ( 'NONE',  ( 0.0000000000000000000, 0.0000000000000000000, 0.0000000000000000000 ) ) ;
#712 = CARTESIAN_POINT ( 'NONE',  ( 1173.000000000000000, -470.0000000000000600, 0.0000000000000000000 ) ) ;
#713 = CARTESIAN_POINT ( 'NONE',  ( 1173.000000000000000, 6.433330021908619700E-016, 0.0000000000000000000 ) ) ;
#714 = LINE ( 'NONE', #430, #398 ) ;
#715 = AXIS2_PLACEMENT_3D ( 'NONE', #198, #875, #284 ) ;
#716 = VECTOR ( 'NONE', #1200, 1000.000000000000000 ) ;
#717 = DIRECTION ( 'NONE',  ( -1.000000000000000000, 5.708367366378543700E-019, 0.0000000000000000000 ) ) ;
#718 = EDGE_CURVE ( 'NONE', #891, #609, #1148, .T. ) ;
#719 = CYLINDRICAL_SURFACE ( 'NONE', #476, 398.5000000000000000 ) ;
#720 = AXIS2_PLACEMENT_3D ( 'NONE', #1000, #978, #3 ) ;
#721 = EDGE_LOOP ( 'NONE', ( #874, #1161, #401, #277 ) ) ;
#722 = ORIENTED_EDGE ( 'NONE', *, *, #700, .F. ) ;
#723 = CIRCLE ( 'NONE', #182, 295.0000000000002800 ) ;
#724 = FILL_AREA_STYLE ('',( #1022 ) ) ;
#725 = FACE_OUTER_BOUND ( 'NONE', #79, .T. ) ;
#726 = ORIENTED_EDGE ( 'NONE', *, *, #835, .T. ) ;
#727 = DIRECTION ( 'NONE',  ( -5.708367366378543700E-019, -1.000000000000000000, 0.0000000000000000000 ) ) ;
#728 = DIRECTION ( 'NONE',  ( -1.000000000000000000, 5.708367366378543700E-019, -0.0000000000000000000 ) ) ;
#729 = AXIS2_PLACEMENT_3D ( 'NONE', #348, #134, #52 ) ;
#730 = FACE_OUTER_BOUND ( 'NONE', #991, .T. ) ;
#731 = FACE_OUTER_BOUND ( 'NONE', #1152, .T. ) ;
#732 = ORIENTED_EDGE ( 'NONE', *, *, #126, .F. ) ;
#733 = DIRECTION ( 'NONE',  ( 0.0000000000000000000, -1.000000000000000000, 0.0000000000000000000 ) ) ;
#734 = LINE ( 'NONE', #389, #407 ) ;
#735 = VERTEX_POINT ( 'NONE', #697 ) ;
#736 = DIRECTION ( 'NONE',  ( 5.708367366378543700E-019, 1.000000000000000000, 0.0000000000000000000 ) ) ;
#737 = CARTESIAN_POINT ( 'NONE',  ( 698.0000000000000000, 9.144804520938428700E-016, 0.0000000000000000000 ) ) ;
#738 = EDGE_CURVE ( 'NONE', #460, #219, #344, .T. ) ;
#739 = AXIS2_PLACEMENT_3D ( 'NONE', #539, #548, #1227 ) ;
#740 = ADVANCED_FACE ( 'NONE', ( #82, #1100 ), #795, .F. ) ;
#741 = CARTESIAN_POINT ( 'NONE',  ( 1173.000000000000000, -289.0000000000001700, 0.0000000000000000000 ) ) ;
#742 = ORIENTED_EDGE ( 'NONE', *, *, #366, .F. ) ;
#743 = EDGE_LOOP ( 'NONE', ( #302, #233, #353, #653 ) ) ;
#744 = VECTOR ( 'NONE', #85, 1000.000000000000000 ) ;
#745 = EDGE_LOOP ( 'NONE', ( #1094, #495, #1023, #631 ) ) ;
#746 = ORIENTED_EDGE ( 'NONE', *, *, #571, .T. ) ;
#747 = VECTOR ( 'NONE', #1005, 1000.000000000000000 ) ;
#748 = DIRECTION ( 'NONE',  ( 0.0000000000000000000, -1.000000000000000000, 0.0000000000000000000 ) ) ;
#749 = CIRCLE ( 'NONE', #90, 292.0000000000002800 ) ;
#750 = ORIENTED_EDGE ( 'NONE', *, *, #1241, .F. ) ;
#751 = AXIS2_PLACEMENT_3D ( 'NONE', #1004, #668, #264 ) ;
#752 = DIRECTION ( 'NONE',  ( -1.000000000000000000, 5.708367366378543700E-019, -0.0000000000000000000 ) ) ;
#753 = ADVANCED_FACE ( 'NONE', ( #626 ), #359, .F. ) ;
#754 = LINE ( 'NONE', #1092, #882 ) ;
#755 = DIRECTION ( 'NONE',  ( 0.0000000000000000000, -1.000000000000000000, 0.0000000000000000000 ) ) ;
#756 = LINE ( 'NONE', #914, #244 ) ;
#757 = CARTESIAN_POINT ( 'NONE',  ( 0.0000000000000000000, 1.312924494267065200E-015, 0.0000000000000000000 ) ) ;
#758 = DIRECTION ( 'NONE',  ( -1.000000000000000000, 5.708367366378543700E-019, -0.0000000000000000000 ) ) ;
#759 = VECTOR ( 'NONE', #1180, 1000.000000000000000 ) ;
#760 = ADVANCED_FACE ( 'NONE', ( #725 ), #53, .F. ) ;
#761 = ORIENTED_EDGE ( 'NONE', *, *, #222, .T. ) ;
#762 = DIRECTION ( 'NONE',  ( -1.000000000000000000, 5.708367366378543700E-019, -0.0000000000000000000 ) ) ;
#763 = EDGE_CURVE ( 'NONE', #1253, #386, #749, .T. ) ;
#764 = LINE ( 'NONE', #19, #522 ) ;
#765 = CARTESIAN_POINT ( 'NONE',  ( 369.6686681525733900, -294.8000000000000100, 4.683049359939479300E-014 ) ) ;
#766 = DIRECTION ( 'NONE',  ( 1.000000000000000000, -5.708367366378543700E-019, 0.0000000000000000000 ) ) ;
#767 =( GEOMETRIC_REPRESENTATION_CONTEXT ( 3 ) GLOBAL_UNCERTAINTY_ASSIGNED_CONTEXT ( ( #141 ) ) GLOBAL_UNIT_ASSIGNED_CONTEXT ( ( #994, #1116, #810 ) ) REPRESENTATION_CONTEXT ( 'NONE', 'WORKASPACE' ) );
#768 = ORIENTED_EDGE ( 'NONE', *, *, #280, .T. ) ;
#769 = DIRECTION ( 'NONE',  ( -1.000000000000000000, 5.708367366378543700E-019, -0.0000000000000000000 ) ) ;
#770 = ADVANCED_FACE ( 'NONE', ( #607, #1033 ), #1086, .F. ) ;
#771 = DIRECTION ( 'NONE',  ( 0.0000000000000000000, -1.000000000000000000, 0.0000000000000000000 ) ) ;
#772 = AXIS2_PLACEMENT_3D ( 'NONE', #399, #500, #4 ) ;
#773 = EDGE_CURVE ( 'NONE', #435, #116, #1079, .T. ) ;
#774 = DIRECTION ( 'NONE',  ( -1.000000000000000000, 5.708367366378543700E-019, -0.0000000000000000000 ) ) ;
#775 = CARTESIAN_POINT ( 'NONE',  ( 1173.000000000000000, 470.0000000000002300, 5.755839955992563300E-014 ) ) ;
#776 = ADVANCED_FACE ( 'NONE', ( #1058 ), #549, .T. ) ;
#777 = VERTEX_POINT ( 'NONE', #616 ) ;
#778 = ORIENTED_EDGE ( 'NONE', *, *, #1062, .F. ) ;
#779 = CARTESIAN_POINT ( 'NONE',  ( 1200.000000000000200, 6.279204103016397800E-016, 0.0000000000000000000 ) ) ;
#780 = ORIENTED_EDGE ( 'NONE', *, *, #433, .F. ) ;
#781 = VECTOR ( 'NONE', #696, 1000.000000000000000 ) ;
#782 = DIRECTION ( 'NONE',  ( 0.0000000000000000000, -1.000000000000000000, 0.0000000000000000000 ) ) ;
#783 = DIRECTION ( 'NONE',  ( 0.0000000000000000000, -1.000000000000000000, 0.0000000000000000000 ) ) ;
#784 = AXIS2_PLACEMENT_3D ( 'NONE', #212, #678, #408 ) ;
#785 = EDGE_LOOP ( 'NONE', ( #449, #58 ) ) ;
#786 = CARTESIAN_POINT ( 'NONE',  ( 3611.000000000000000, -7.483669617322270500E-016, 0.0000000000000000000 ) ) ;
#787 = LINE ( 'NONE', #1264, #647 ) ;
#788 = AXIS2_PLACEMENT_3D ( 'NONE', #419, #577, #983 ) ;
#789 = DIRECTION ( 'NONE',  ( 0.0000000000000000000, -1.000000000000000000, 0.0000000000000000000 ) ) ;
#790 = PRODUCT_DEFINITION_FORMATION_WITH_SPECIFIED_SOURCE ( 'ANY', '', #1236, .NOT_KNOWN. ) ;
#791 = AXIS2_PLACEMENT_3D ( 'NONE', #1052, #270, #477 ) ;
#792 = CARTESIAN_POINT ( 'NONE',  ( 1173.000000000000000, 294.7999999999999500, 3.610258763886397100E-014 ) ) ;
#793 = DIRECTION ( 'NONE',  ( -1.000000000000000000, 5.708367366378543700E-019, -0.0000000000000000000 ) ) ;
#794 = DIRECTION ( 'NONE',  ( -1.000000000000000000, 5.708367366378543700E-019, -0.0000000000000000000 ) ) ;
#795 = PLANE ( 'NONE',  #640 ) ;
#796 = CARTESIAN_POINT ( 'NONE',  ( 698.0000000000000000, -398.5000000000000000, 0.0000000000000000000 ) ) ;
#797 = FACE_BOUND ( 'NONE', #323, .T. ) ;
#798 = CIRCLE ( 'NONE', #715, 470.0000000000000600 ) ;
#799 = ORIENTED_EDGE ( 'NONE', *, *, #136, .F. ) ;
#800 = EDGE_LOOP ( 'NONE', ( #288, #454, #556, #599 ) ) ;
#801 = CARTESIAN_POINT ( 'NONE',  ( 698.0000000000000000, 9.144804520938428700E-016, 0.0000000000000000000 ) ) ;
#802 = DIRECTION ( 'NONE',  ( -1.000000000000000000, 5.708367366378543700E-019, -0.0000000000000000000 ) ) ;
#803 = AXIS2_PLACEMENT_3D ( 'NONE', #472, #1159, #381 ) ;
#804 = DIRECTION ( 'NONE',  ( -1.000000000000000000, 5.708367366378543700E-019, -0.0000000000000000000 ) ) ;
#805 = COLOUR_RGB ( '',1.000000000000000000, 0.6901960784313725400, 0.5098039215686274200 ) ;
#806 = CARTESIAN_POINT ( 'NONE',  ( 2775.000000000000500, -2.711474499029808500E-016, 0.0000000000000000000 ) ) ;
#807 = VERTEX_POINT ( 'NONE', #531 ) ;
#808 = DIRECTION ( 'NONE',  ( 0.0000000000000000000, -1.000000000000000000, 0.0000000000000000000 ) ) ;
#809 = DIRECTION ( 'NONE',  ( 1.000000000000000000, -5.708367366378543700E-019, 0.0000000000000000000 ) ) ;
#810 =( NAMED_UNIT ( * ) SI_UNIT ( $, .STERADIAN. ) SOLID_ANGLE_UNIT ( ) );
#811 = SURFACE_STYLE_USAGE ( .BOTH. , #816 ) ;
#812 = CARTESIAN_POINT ( 'NONE',  ( 2273.000000000000500, 295.0000000000002800, 3.612708057484695100E-014 ) ) ;
#813 = EDGE_CURVE ( 'NONE', #139, #422, #832, .T. ) ;
#814 = AXIS2_PLACEMENT_3D ( 'NONE', #451, #930, #444 ) ;
#815 = FACE_OUTER_BOUND ( 'NONE', #964, .T. ) ;
#816 = SURFACE_SIDE_STYLE ('',( #262 ) ) ;
#817 = VECTOR ( 'NONE', #989, 1000.000000000000000 ) ;
#818 = VERTEX_POINT ( 'NONE', #1104 ) ;
#819 = VECTOR ( 'NONE', #681, 1000.000000000000000 ) ;
#820 = MANIFOLD_SOLID_BREP ( 'Revolução3[2]', #119 ) ;
#821 = CARTESIAN_POINT ( 'NONE',  ( 2303.000000000000500, 295.0000000000002800, 3.612708057484695100E-014 ) ) ;
#822 =( NAMED_UNIT ( * ) SI_UNIT ( $, .STERADIAN. ) SOLID_ANGLE_UNIT ( ) );
#823 = AXIS2_PLACEMENT_3D ( 'NONE', #965, #758, #783 ) ;
#824 = CYLINDRICAL_SURFACE ( 'NONE', #772, 398.5000000000000000 ) ;
#825 = SURFACE_STYLE_USAGE ( .BOTH. , #330 ) ;
#826 = CIRCLE ( 'NONE', #318, 398.5000000000000000 ) ;
#827 = ORIENTED_EDGE ( 'NONE', *, *, #231, .T. ) ;
#828 = ORIENTED_EDGE ( 'NONE', *, *, #529, .T. ) ;
#829 = CIRCLE ( 'NONE', #1046, 470.0000000000000600 ) ;
#830 = CARTESIAN_POINT ( 'NONE',  ( 2300.000000000000500, -289.0000000000001700, 0.0000000000000000000 ) ) ;
#831 = ADVANCED_FACE ( 'NONE', ( #951 ), #373, .T. ) ;
#832 = LINE ( 'NONE', #428, #311 ) ;
#833 = ORIENTED_EDGE ( 'NONE', *, *, #222, .F. ) ;
#834 = DIRECTION ( 'NONE',  ( -5.708367366378543700E-019, -1.000000000000000000, 0.0000000000000000000 ) ) ;
#835 = EDGE_CURVE ( 'NONE', #248, #1262, #1120, .T. ) ;
#836 = EDGE_CURVE ( 'NONE', #1155, #1112, #634, .T. ) ;
#837 = PLANE ( 'NONE',  #308 ) ;
#838 = AXIS2_PLACEMENT_3D ( 'NONE', #18, #809, #710 ) ;
#839 = ORIENTED_EDGE ( 'NONE', *, *, #380, .T. ) ;
#840 = VERTEX_POINT ( 'NONE', #1009 ) ;
#841 = EDGE_CURVE ( 'NONE', #935, #47, #1006, .T. ) ;
#842 = DIRECTION ( 'NONE',  ( 0.0000000000000000000, -1.000000000000000000, 0.0000000000000000000 ) ) ;
#843 = DIRECTION ( 'NONE',  ( -1.000000000000000000, 5.708367366378543700E-019, -0.0000000000000000000 ) ) ;
#844 = FACE_BOUND ( 'NONE', #291, .T. ) ;
#845 = EDGE_LOOP ( 'NONE', ( #503, #1222, #189, #1219 ) ) ;
#846 = LINE ( 'NONE', #712, #239 ) ;
#847 = ORIENTED_EDGE ( 'NONE', *, *, #835, .F. ) ;
#848 = DIRECTION ( 'NONE',  ( 5.708367366378543700E-019, 1.000000000000000000, 0.0000000000000000000 ) ) ;
#849 = SURFACE_STYLE_FILL_AREA ( #275 ) ;
#850 = AXIS2_PLACEMENT_3D ( 'NONE', #713, #226, #249 ) ;
#851 = EDGE_CURVE ( 'NONE', #629, #777, #846, .T. ) ;
#852 = AXIS2_PLACEMENT_3D ( 'NONE', #321, #526, #28 ) ;
#853 = CARTESIAN_POINT ( 'NONE',  ( 1173.000000000000000, 6.433330021908619700E-016, 0.0000000000000000000 ) ) ;
#854 = ADVANCED_FACE ( 'NONE', ( #194 ), #175, .T. ) ;
#855 = CYLINDRICAL_SURFACE ( 'NONE', #517, 289.0000000000001700 ) ;
#856 = CIRCLE ( 'NONE', #803, 295.0000000000001100 ) ;
#857 = CLOSED_SHELL ( 'NONE', ( #80, #273, #943, #559 ) ) ;
#858 = DIRECTION ( 'NONE',  ( 0.0000000000000000000, -1.000000000000000000, 0.0000000000000000000 ) ) ;
#859 = ORIENTED_EDGE ( 'NONE', *, *, #1246, .F. ) ;
#860 = FACE_OUTER_BOUND ( 'NONE', #211, .T. ) ;
#861 = DIRECTION ( 'NONE',  ( 0.0000000000000000000, -1.000000000000000000, 0.0000000000000000000 ) ) ;
#862 = CIRCLE ( 'NONE', #1211, 289.0000000000001700 ) ;
#863 = ORIENTED_EDGE ( 'NONE', *, *, #1107, .F. ) ;
#864 = DIRECTION ( 'NONE',  ( -5.708367366378543700E-019, -1.000000000000000000, 0.0000000000000000000 ) ) ;
#865 = CARTESIAN_POINT ( 'NONE',  ( 1170.000000000000200, 6.450455124007754200E-016, 0.0000000000000000000 ) ) ;
#866 = AXIS2_PLACEMENT_3D ( 'NONE', #271, #474, #378 ) ;
#867 = DIRECTION ( 'NONE',  ( -1.000000000000000000, 5.708367366378543700E-019, -0.0000000000000000000 ) ) ;
#868 = CARTESIAN_POINT ( 'NONE',  ( 698.0000000000000000, 1.040182108977663100E-012, 0.0000000000000000000 ) ) ;
#869 = ORIENTED_EDGE ( 'NONE', *, *, #280, .F. ) ;
#870 = DIRECTION ( 'NONE',  ( -1.000000000000000000, 5.708367366378543700E-019, -0.0000000000000000000 ) ) ;
#871 = CARTESIAN_POINT ( 'NONE',  ( 2273.000000000000500, 9.563831919928682200E-035, 0.0000000000000000000 ) ) ;
#872 = ORIENTED_EDGE ( 'NONE', *, *, #638, .T. ) ;
#873 = EDGE_CURVE ( 'NONE', #248, #891, #443, .T. ) ;
#874 = ORIENTED_EDGE ( 'NONE', *, *, #450, .T. ) ;
#875 = DIRECTION ( 'NONE',  ( -1.000000000000000000, 5.708367366378543700E-019, -0.0000000000000000000 ) ) ;
#876 = AXIS2_PLACEMENT_3D ( 'NONE', #801, #793, #693 ) ;
#877 = ORIENTED_EDGE ( 'NONE', *, *, #919, .T. ) ;
#878 = CARTESIAN_POINT ( 'NONE',  ( 1170.000000000000200, -295.0000000000001100, 3.612708057484693200E-014 ) ) ;
#879 = FACE_OUTER_BOUND ( 'NONE', #743, .T. ) ;
#880 = DIRECTION ( 'NONE',  ( -1.000000000000000000, 5.708367366378543700E-019, -0.0000000000000000000 ) ) ;
#881 = DIRECTION ( 'NONE',  ( -1.000000000000000000, 5.708367366378543700E-019, 0.0000000000000000000 ) ) ;
#882 = VECTOR ( 'NONE', #324, 1000.000000000000000 ) ;
#883 = CARTESIAN_POINT ( 'NONE',  ( 2775.000000000000500, -2.711474499029808500E-016, 0.0000000000000000000 ) ) ;
#884 = DIRECTION ( 'NONE',  ( -1.000000000000000000, 5.708367366378543700E-019, -0.0000000000000000000 ) ) ;
#885 = ORIENTED_EDGE ( 'NONE', *, *, #901, .F. ) ;
#886 = ORIENTED_EDGE ( 'NONE', *, *, #910, .F. ) ;
#887 = LINE ( 'NONE', #614, #95 ) ;
#888 = CARTESIAN_POINT ( 'NONE',  ( 1173.000000000000000, 6.433330021908619700E-016, 0.0000000000000000000 ) ) ;
#889 = CARTESIAN_POINT ( 'NONE',  ( 1173.000000000000000, 6.433330021908619700E-016, 0.0000000000000000000 ) ) ;
#890 = AXIS2_PLACEMENT_3D ( 'NONE', #9, #685, #106 ) ;
#891 = VERTEX_POINT ( 'NONE', #765 ) ;
#892 = VERTEX_POINT ( 'NONE', #316 ) ;
#893 = VECTOR ( 'NONE', #24, 1000.000000000000100 ) ;
#894 = DIRECTION ( 'NONE',  ( 0.0000000000000000000, -1.000000000000000000, 0.0000000000000000000 ) ) ;
#895 = CARTESIAN_POINT ( 'NONE',  ( 1173.000000000000200, 289.0000000000001100, 3.539229249535852100E-014 ) ) ;
#896 = VERTEX_POINT ( 'NONE', #1271 ) ;
#897 = EDGE_LOOP ( 'NONE', ( #237, #508, #1144, #178 ) ) ;
#898 = DIRECTION ( 'NONE',  ( -1.000000000000000000, 5.708367366378543700E-019, -0.0000000000000000000 ) ) ;
#899 = DIRECTION ( 'NONE',  ( 0.0000000000000000000, -1.000000000000000000, 0.0000000000000000000 ) ) ;
#900 = DIRECTION ( 'NONE',  ( -1.000000000000000000, 5.708367366378543700E-019, -0.0000000000000000000 ) ) ;
#901 = EDGE_CURVE ( 'NONE', #609, #1228, #1244, .T. ) ;
#902 = PRESENTATION_LAYER_ASSIGNMENT (  '', '', ( #452 ) ) ;
#903 = EDGE_LOOP ( 'NONE', ( #400, #1145 ) ) ;
#904 = CARTESIAN_POINT ( 'NONE',  ( 1173.000000000000200, 6.433330021908618700E-016, 0.0000000000000000000 ) ) ;
#905 = FILL_AREA_STYLE ('',( #415 ) ) ;
#906 = ORIENTED_EDGE ( 'NONE', *, *, #1115, .T. ) ;
#907 = DIRECTION ( 'NONE',  ( -0.8640443605457465100, 0.5034156761654248200, 6.165063964565879000E-017 ) ) ;
#908 = CARTESIAN_POINT ( 'NONE',  ( 698.0000000000000000, 9.144804520938428700E-016, 0.0000000000000000000 ) ) ;
#909 = ORIENTED_EDGE ( 'NONE', *, *, #1275, .F. ) ;
#910 = EDGE_CURVE ( 'NONE', #1008, #448, #689, .T. ) ;
#911 = CIRCLE ( 'NONE', #791, 470.0000000000000600 ) ;
#912 = ORIENTED_EDGE ( 'NONE', *, *, #1141, .F. ) ;
#913 = DIRECTION ( 'NONE',  ( -1.000000000000000000, 5.708367366378543700E-019, -0.0000000000000000000 ) ) ;
#914 = CARTESIAN_POINT ( 'NONE',  ( 1173.000000000000000, -398.5000000000000000, 0.0000000000000000000 ) ) ;
#915 = DIRECTION ( 'NONE',  ( -1.000000000000000000, 5.708367366378543700E-019, -0.0000000000000000000 ) ) ;
#916 = AXIS2_PLACEMENT_3D ( 'NONE', #180, #752, #958 ) ;
#917 = CARTESIAN_POINT ( 'NONE',  ( 1173.000000000000000, 292.0000000000001100, 3.575968653510273900E-014 ) ) ;
#918 = CARTESIAN_POINT ( 'NONE',  ( 1173.000000000000000, 6.433330021908619700E-016, 0.0000000000000000000 ) ) ;
#919 = EDGE_CURVE ( 'NONE', #1232, #1194, #1220, .T. ) ;
#920 = AXIS2_PLACEMENT_3D ( 'NONE', #757, #185, #671 ) ;
#921 = ORIENTED_EDGE ( 'NONE', *, *, #459, .F. ) ;
#922 = FACE_OUTER_BOUND ( 'NONE', #785, .T. ) ;
#923 = ORIENTED_EDGE ( 'NONE', *, *, #700, .T. ) ;
#924 = EDGE_LOOP ( 'NONE', ( #692, #253, #128, #411 ) ) ;
#925 = FACE_OUTER_BOUND ( 'NONE', #1135, .T. ) ;
#926 = VECTOR ( 'NONE', #961, 1000.000000000000200 ) ;
#927 = ORIENTED_EDGE ( 'NONE', *, *, #773, .T. ) ;
#928 = CARTESIAN_POINT ( 'NONE',  ( 1173.000000000000000, 6.433330021908619700E-016, 0.0000000000000000000 ) ) ;
#929 = ADVANCED_FACE ( 'NONE', ( #40 ), #971, .F. ) ;
#930 = DIRECTION ( 'NONE',  ( 1.000000000000000000, -5.708367366378543700E-019, 0.0000000000000000000 ) ) ;
#931 = AXIS2_PLACEMENT_3D ( 'NONE', #204, #197, #289 ) ;
#932 = CARTESIAN_POINT ( 'NONE',  ( 0.0000000000000000000, 1.312924494267065200E-015, 0.0000000000000000000 ) ) ;
#933 = CARTESIAN_POINT ( 'NONE',  ( 2273.000000000000500, 1.541259188922185500E-017, 0.0000000000000000000 ) ) ;
#934 = EDGE_LOOP ( 'NONE', ( #979, #1131, #708, #50 ) ) ;
#935 = VERTEX_POINT ( 'NONE', #1176 ) ;
#936 = ORIENTED_EDGE ( 'NONE', *, *, #290, .F. ) ;
#937 = DIRECTION ( 'NONE',  ( -1.000000000000000000, 5.708367366378543700E-019, -0.0000000000000000000 ) ) ;
#938 = CYLINDRICAL_SURFACE ( 'NONE', #942, 289.0000000000001700 ) ;
#939 = ORIENTED_EDGE ( 'NONE', *, *, #242, .T. ) ;
#940 = EDGE_CURVE ( 'NONE', #1173, #896, #911, .T. ) ;
#941 = CARTESIAN_POINT ( 'NONE',  ( 697.9999999999998900, 9.144804520938430700E-016, 0.0000000000000000000 ) ) ;
#942 = AXIS2_PLACEMENT_3D ( 'NONE', #580, #774, #858 ) ;
#943 = ADVANCED_FACE ( 'NONE', ( #1197 ), #938, .T. ) ;
#944 = FACE_OUTER_BOUND ( 'NONE', #1147, .T. ) ;
#945 = EDGE_LOOP ( 'NONE', ( #833, #132 ) ) ;
#946 = LINE ( 'NONE', #312, #1041 ) ;
#947 = CIRCLE ( 'NONE', #1235, 243.9999999999999700 ) ;
#948 = ORIENTED_EDGE ( 'NONE', *, *, #87, .F. ) ;
#949 = ORIENTED_EDGE ( 'NONE', *, *, #1141, .T. ) ;
#950 = FACE_OUTER_BOUND ( 'NONE', #648, .T. ) ;
#951 = FACE_OUTER_BOUND ( 'NONE', #745, .T. ) ;
#952 = AXIS2_PLACEMENT_3D ( 'NONE', #33, #317, #1007 ) ;
#953 = EDGE_LOOP ( 'NONE', ( #742, #341, #839, #1020 ) ) ;
#954 = ORIENTED_EDGE ( 'NONE', *, *, #254, .F. ) ;
#955 = DIRECTION ( 'NONE',  ( 0.0000000000000000000, -1.000000000000000000, 0.0000000000000000000 ) ) ;
#956 = DIRECTION ( 'NONE',  ( -1.000000000000000000, 5.708367366378543700E-019, -0.0000000000000000000 ) ) ;
#957 = ADVANCED_FACE ( 'NONE', ( #117 ), #293, .T. ) ;
#958 = DIRECTION ( 'NONE',  ( 0.0000000000000000000, -1.000000000000000000, 0.0000000000000000000 ) ) ;
#959 = CARTESIAN_POINT ( 'NONE',  ( 698.0000000000000000, -20.00000000000000000, 1.928818708657082100E-014 ) ) ;
#960 = DIRECTION ( 'NONE',  ( 0.0000000000000000000, -1.000000000000000000, 0.0000000000000000000 ) ) ;
#961 = DIRECTION ( 'NONE',  ( -0.8640443605457465100, -0.5034156761654248200, 0.0000000000000000000 ) ) ;
#962 = ORIENTED_EDGE ( 'NONE', *, *, #1284, .F. ) ;
#963 = AXIS2_PLACEMENT_3D ( 'NONE', #1081, #502, #593 ) ;
#964 = EDGE_LOOP ( 'NONE', ( #1278, #877, #208, #912 ) ) ;
#965 = CARTESIAN_POINT ( 'NONE',  ( 1173.000000000000000, 6.433330021908619700E-016, 0.0000000000000000000 ) ) ;
#966 = AXIS2_PLACEMENT_3D ( 'NONE', #163, #554, #250 ) ;
#967 = EDGE_LOOP ( 'NONE', ( #100, #209 ) ) ;
#968 = SURFACE_STYLE_USAGE ( .BOTH. , #562 ) ;
#969 = CONICAL_SURFACE ( 'NONE', #1013, 243.9999999999999700, 0.5270682767025894900 ) ;
#970 = VERTEX_POINT ( 'NONE', #959 ) ;
#971 = PLANE ( 'NONE',  #537 ) ;
#972 = ADVANCED_FACE ( 'NONE', ( #925 ), #1254, .T. ) ;
#973 = DIRECTION ( 'NONE',  ( 0.0000000000000000000, -1.000000000000000000, 0.0000000000000000000 ) ) ;
#974 = EDGE_CURVE ( 'NONE', #1143, #625, #1132, .T. ) ;
#975 = DIRECTION ( 'NONE',  ( -1.000000000000000000, 5.708367366378543700E-019, -0.0000000000000000000 ) ) ;
#976 = PLANE ( 'NONE',  #650 ) ;
#977 = PRESENTATION_STYLE_ASSIGNMENT (( #31 ) ) ;
#978 = DIRECTION ( 'NONE',  ( -1.000000000000000000, 5.708367366378543700E-019, -0.0000000000000000000 ) ) ;
#979 = ORIENTED_EDGE ( 'NONE', *, *, #985, .F. ) ;
#980 = AXIS2_PLACEMENT_3D ( 'NONE', #779, #512, #1202 ) ;
#981 = LINE ( 'NONE', #511, #716 ) ;
#982 = CONICAL_SURFACE ( 'NONE', #838, 470.0000000000000600, 0.5310040229827811500 ) ;
#983 = DIRECTION ( 'NONE',  ( 0.0000000000000000000, -1.000000000000000000, 0.0000000000000000000 ) ) ;
#984 = EDGE_LOOP ( 'NONE', ( #722, #670 ) ) ;
#985 = EDGE_CURVE ( 'NONE', #367, #660, #787, .T. ) ;
#986 = ORIENTED_EDGE ( 'NONE', *, *, #36, .F. ) ;
#987 = CARTESIAN_POINT ( 'NONE',  ( 3193.325776396609900, -5.099431709527183400E-016, 0.0000000000000000000 ) ) ;
#988 = FACE_OUTER_BOUND ( 'NONE', #1117, .T. ) ;
#989 = DIRECTION ( 'NONE',  ( -1.000000000000000000, 5.708367366378543700E-019, -0.0000000000000000000 ) ) ;
#990 = CYLINDRICAL_SURFACE ( 'NONE', #1243, 470.0000000000000600 ) ;
#991 = EDGE_LOOP ( 'NONE', ( #923, #34, #131, #869 ) ) ;
#992 = DIRECTION ( 'NONE',  ( 0.0000000000000000000, -1.000000000000000000, 0.0000000000000000000 ) ) ;
#993 = CARTESIAN_POINT ( 'NONE',  ( 2300.000000000000500, 0.0000000000000000000, 0.0000000000000000000 ) ) ;
#994 =( LENGTH_UNIT ( ) NAMED_UNIT ( * ) SI_UNIT ( .MILLI., .METRE. ) );
#995 = DIRECTION ( 'NONE',  ( 1.000000000000000000, -5.708367366378543700E-019, 0.0000000000000000000 ) ) ;
#996 = DIRECTION ( 'NONE',  ( -1.000000000000000000, 5.708367366378543700E-019, -0.0000000000000000000 ) ) ;
#997 = DIRECTION ( 'NONE',  ( 0.0000000000000000000, 0.0000000000000000000, 1.000000000000000000 ) ) ;
#998 = CIRCLE ( 'NONE', #267, 470.0000000000000600 ) ;
#999 = FACE_OUTER_BOUND ( 'NONE', #285, .T. ) ;
#1000 = CARTESIAN_POINT ( 'NONE',  ( 1200.000000000000200, 6.279204103016397800E-016, 0.0000000000000000000 ) ) ;
#1001 = CARTESIAN_POINT ( 'NONE',  ( 2775.000000000000900, 1.415023513195579500E-034, 0.0000000000000000000 ) ) ;
#1002 = AXIS2_PLACEMENT_3D ( 'NONE', #213, #794, #601 ) ;
#1003 = EDGE_LOOP ( 'NONE', ( #61, #687, #97, #17 ) ) ;
#1004 = CARTESIAN_POINT ( 'NONE',  ( 1173.000000000000000, -9.012398670486562200E-013, 0.0000000000000000000 ) ) ;
#1005 = DIRECTION ( 'NONE',  ( 0.8622990686253669800, 0.5063993643833141200, 0.0000000000000000000 ) ) ;
#1006 = LINE ( 'NONE', #431, #220 ) ;
#1007 = DIRECTION ( 'NONE',  ( 0.0000000000000000000, -1.000000000000000000, 0.0000000000000000000 ) ) ;
#1008 = VERTEX_POINT ( 'NONE', #74 ) ;
#1009 = CARTESIAN_POINT ( 'NONE',  ( 1173.000000000000200, 289.0000000000001100, 3.539229249535852100E-014 ) ) ;
#1010 = CARTESIAN_POINT ( 'NONE',  ( 2300.000000000000500, 289.0000000000001700, 3.539229249535852700E-014 ) ) ;
#1011 = APPLICATION_CONTEXT ( 'automotive_design' ) ;
#1012 = EDGE_CURVE ( 'NONE', #1008, #1112, #734, .T. ) ;
#1013 = AXIS2_PLACEMENT_3D ( 'NONE', #1024, #1138, #733 ) ;
#1014 = CARTESIAN_POINT ( 'NONE',  ( 1173.000000000000000, -292.0000000000002800, 0.0000000000000000000 ) ) ;
#1015 = DIRECTION ( 'NONE',  ( 0.0000000000000000000, -1.000000000000000000, 0.0000000000000000000 ) ) ;
#1016 = EDGE_LOOP ( 'NONE', ( #354, #886 ) ) ;
#1017 = FACE_BOUND ( 'NONE', #114, .T. ) ;
#1018 = CIRCLE ( 'NONE', #252, 295.0000000000001100 ) ;
#1019 = ORIENTED_EDGE ( 'NONE', *, *, #940, .F. ) ;
#1020 = ORIENTED_EDGE ( 'NONE', *, *, #350, .F. ) ;
#1021 = COLOUR_RGB ( '',1.000000000000000000, 0.6901960784313725400, 0.5098039215686274200 ) ;
#1022 = FILL_AREA_STYLE_COLOUR ( '', #1021 ) ;
#1023 = ORIENTED_EDGE ( 'NONE', *, *, #191, .T. ) ;
#1024 = CARTESIAN_POINT ( 'NONE',  ( 3193.325776396609900, -5.099431709527183400E-016, 0.0000000000000000000 ) ) ;
#1025 = AXIS2_PLACEMENT_3D ( 'NONE', #1183, #394, #576 ) ;
#1026 = DIRECTION ( 'NONE',  ( -1.000000000000000000, 5.708367366378543700E-019, -0.0000000000000000000 ) ) ;
#1027 = CIRCLE ( 'NONE', #729, 289.0000000000001700 ) ;
#1028 = CYLINDRICAL_SURFACE ( 'NONE', #823, 289.0000000000001700 ) ;
#1029 = ORIENTED_EDGE ( 'NONE', *, *, #644, .T. ) ;
#1030 = DIRECTION ( 'NONE',  ( 0.0000000000000000000, -1.000000000000000000, 0.0000000000000000000 ) ) ;
#1031 = LINE ( 'NONE', #1242, #51 ) ;
#1032 = ADVANCED_FACE ( 'NONE', ( #950 ), #5, .F. ) ;
#1033 = FACE_OUTER_BOUND ( 'NONE', #32, .T. ) ;
#1034 = EDGE_CURVE ( 'NONE', #1194, #1253, #391, .T. ) ;
#1035 = ORIENTED_EDGE ( 'NONE', *, *, #497, .T. ) ;
#1036 = DIRECTION ( 'NONE',  ( 1.000000000000000000, -5.708367366378543700E-019, 0.0000000000000000000 ) ) ;
#1037 = DIRECTION ( 'NONE',  ( -1.000000000000000000, 5.708367366378543700E-019, -0.0000000000000000000 ) ) ;
#1038 = ADVANCED_FACE ( 'NONE', ( #988 ), #69, .T. ) ;
#1039 = EDGE_CURVE ( 'NONE', #448, #1008, #538, .T. ) ;
#1040 = DIRECTION ( 'NONE',  ( -1.000000000000000000, 5.708367366378543700E-019, -0.0000000000000000000 ) ) ;
#1041 = VECTOR ( 'NONE', #1097, 1000.000000000000000 ) ;
#1042 = LINE ( 'NONE', #30, #438 ) ;
#1043 = ORIENTED_EDGE ( 'NONE', *, *, #763, .T. ) ;
#1044 = AXIS2_PLACEMENT_3D ( 'NONE', #679, #1188, #1184 ) ;
#1045 = PRESENTATION_STYLE_ASSIGNMENT (( #968 ) ) ;
#1046 = AXIS2_PLACEMENT_3D ( 'NONE', #241, #336, #641 ) ;
#1047 = PLANE ( 'NONE',  #11 ) ;
#1048 = LINE ( 'NONE', #516, #1085 ) ;
#1049 = CARTESIAN_POINT ( 'NONE',  ( -1.682826699608394500E-016, -294.7999999999999500, 0.0000000000000000000 ) ) ;
#1050 = ADVANCED_FACE ( 'NONE', ( #623, #1118 ), #346, .T. ) ;
#1051 = FACE_OUTER_BOUND ( 'NONE', #1119, .T. ) ;
#1052 = CARTESIAN_POINT ( 'NONE',  ( 697.9999999999998900, 9.144804520938430700E-016, 0.0000000000000000000 ) ) ;
#1053 = CIRCLE ( 'NONE', #931, 295.0000000000002800 ) ;
#1054 = ORIENTED_EDGE ( 'NONE', *, *, #200, .T. ) ;
#1055 = VERTEX_POINT ( 'NONE', #627 ) ;
#1056 = CIRCLE ( 'NONE', #43, 20.00000000000001800 ) ;
#1057 = CARTESIAN_POINT ( 'NONE',  ( 1173.000000000000000, -398.5000000000000000, 0.0000000000000000000 ) ) ;
#1058 = FACE_OUTER_BOUND ( 'NONE', #92, .T. ) ;
#1059 = ADVANCED_FACE ( 'NONE', ( #146 ), #469, .T. ) ;
#1060 = AXIS2_PLACEMENT_3D ( 'NONE', #506, #698, #695 ) ;
#1061 = VERTEX_POINT ( 'NONE', #830 ) ;
#1062 = EDGE_CURVE ( 'NONE', #47, #546, #723, .T. ) ;
#1063 = DIRECTION ( 'NONE',  ( -1.000000000000000000, 5.708367366378543700E-019, -0.0000000000000000000 ) ) ;
#1064 = DIRECTION ( 'NONE',  ( -1.000000000000000000, 5.708367366378543700E-019, -0.0000000000000000000 ) ) ;
#1065 =( LENGTH_UNIT ( ) NAMED_UNIT ( * ) SI_UNIT ( .MILLI., .METRE. ) );
#1066 = ADVANCED_FACE ( 'NONE', ( #588 ), #969, .T. ) ;
#1067 = DIRECTION ( 'NONE',  ( -5.708367366378543700E-019, -1.000000000000000000, 0.0000000000000000000 ) ) ;
#1068 = DIRECTION ( 'NONE',  ( 0.0000000000000000000, -1.000000000000000000, 0.0000000000000000000 ) ) ;
#1069 = ORIENTED_EDGE ( 'NONE', *, *, #380, .F. ) ;
#1070 = EDGE_CURVE ( 'NONE', #1194, #1232, #357, .T. ) ;
#1071 = VECTOR ( 'NONE', #1064, 1000.000000000000000 ) ;
#1072 = CARTESIAN_POINT ( 'NONE',  ( 2775.000000000000900, -2.711474499029812500E-016, 0.0000000000000000000 ) ) ;
#1073 = AXIS2_PLACEMENT_3D ( 'NONE', #542, #232, #636 ) ;
#1074 = ADVANCED_FACE ( 'NONE', ( #1233, #329 ), #437, .T. ) ;
#1075 = ORIENTED_EDGE ( 'NONE', *, *, #644, .F. ) ;
#1076 = DIRECTION ( 'NONE',  ( 0.0000000000000000000, -1.000000000000000000, 0.0000000000000000000 ) ) ;
#1077 = CIRCLE ( 'NONE', #246, 292.0000000000001100 ) ;
#1078 = DIRECTION ( 'NONE',  ( 0.0000000000000000000, -1.000000000000000000, 0.0000000000000000000 ) ) ;
#1079 = LINE ( 'NONE', #504, #7 ) ;
#1080 = DIRECTION ( 'NONE',  ( -1.000000000000000000, 5.708367366378543700E-019, -0.0000000000000000000 ) ) ;
#1081 = CARTESIAN_POINT ( 'NONE',  ( 697.9999999999998900, 9.144804520938430700E-016, 0.0000000000000000000 ) ) ;
#1082 = CARTESIAN_POINT ( 'NONE',  ( 3193.325776396609900, -243.9999999999999700, 0.0000000000000000000 ) ) ;
#1083 = DIRECTION ( 'NONE',  ( -1.000000000000000000, 5.708367366378543700E-019, -0.0000000000000000000 ) ) ;
#1084 = DIRECTION ( 'NONE',  ( -1.000000000000000000, 5.708367366378543700E-019, -0.0000000000000000000 ) ) ;
#1085 = VECTOR ( 'NONE', #524, 1000.000000000000000 ) ;
#1086 = PLANE ( 'NONE',  #1286 ) ;
#1087 = AXIS2_PLACEMENT_3D ( 'NONE', #868, #168, #86 ) ;
#1088 = CIRCLE ( 'NONE', #528, 295.0000000000002800 ) ;
#1089 = MANIFOLD_SOLID_BREP ( 'Revolução3[1]', #857 ) ;
#1090 = LINE ( 'NONE', #586, #1249 ) ;
#1091 = CARTESIAN_POINT ( 'NONE',  ( 1173.000000000000200, -289.0000000000001100, 0.0000000000000000000 ) ) ;
#1092 = CARTESIAN_POINT ( 'NONE',  ( 667.9999999999998900, -470.0000000000000600, 5.755839955992560800E-014 ) ) ;
#1093 = ORIENTED_EDGE ( 'NONE', *, *, #387, .F. ) ;
#1094 = ORIENTED_EDGE ( 'NONE', *, *, #1012, .F. ) ;
#1095 = CARTESIAN_POINT ( 'NONE',  ( 1173.000000000000000, 6.433330021908619700E-016, 0.0000000000000000000 ) ) ;
#1096 = STYLED_ITEM ( 'NONE', ( #977 ), #1139 ) ;
#1097 = DIRECTION ( 'NONE',  ( -1.000000000000000000, 5.708367366378543700E-019, -0.0000000000000000000 ) ) ;
#1098 = CIRCLE ( 'NONE', #1125, 289.0000000000001100 ) ;
#1099 = DIRECTION ( 'NONE',  ( -0.8642854443543308600, -0.5030016607102176800, 0.0000000000000000000 ) ) ;
#1100 = FACE_OUTER_BOUND ( 'NONE', #196, .T. ) ;
#1101 = CARTESIAN_POINT ( 'NONE',  ( 667.9999999999998900, 9.316055541929785100E-016, 0.0000000000000000000 ) ) ;
#1102 = VERTEX_POINT ( 'NONE', #138 ) ;
#1103 = ORIENTED_EDGE ( 'NONE', *, *, #360, .T. ) ;
#1104 = CARTESIAN_POINT ( 'NONE',  ( 698.0000000000000000, 20.00000000000000000, 0.0000000000000000000 ) ) ;
#1105 = CARTESIAN_POINT ( 'NONE',  ( 1173.000000000000000, 6.433330021908619700E-016, 0.0000000000000000000 ) ) ;
#1106 = APPLICATION_PROTOCOL_DEFINITION ( 'draft international standard', 'automotive_design', 1998, #221 ) ;
#1107 = EDGE_CURVE ( 'NONE', #645, #622, #557, .T. ) ;
#1108 = AXIS2_PLACEMENT_3D ( 'NONE', #499, #1185, #789 ) ;
#1109 = CARTESIAN_POINT ( 'NONE',  ( 2303.000000000000500, -295.0000000000002800, 0.0000000000000000000 ) ) ;
#1110 = DIRECTION ( 'NONE',  ( 0.0000000000000000000, -1.000000000000000000, 0.0000000000000000000 ) ) ;
#1111 = ORIENTED_EDGE ( 'NONE', *, *, #509, .T. ) ;
#1112 = VERTEX_POINT ( 'NONE', #147 ) ;
#1113 = DIRECTION ( 'NONE',  ( -1.000000000000000000, 5.708367366378543700E-019, -0.0000000000000000000 ) ) ;
#1114 = CYLINDRICAL_SURFACE ( 'NONE', #1122, 295.0000000000002800 ) ;
#1115 = EDGE_CURVE ( 'NONE', #60, #116, #1077, .T. ) ;
#1116 =( NAMED_UNIT ( * ) PLANE_ANGLE_UNIT ( ) SI_UNIT ( $, .RADIAN. ) );
#1117 = EDGE_LOOP ( 'NONE', ( #589, #405, #885, #501 ) ) ;
#1118 = FACE_OUTER_BOUND ( 'NONE', #1201, .T. ) ;
#1119 = EDGE_LOOP ( 'NONE', ( #948, #1029, #927, #572 ) ) ;
#1120 = LINE ( 'NONE', #123, #747 ) ;
#1121 = CARTESIAN_POINT ( 'NONE',  ( 2805.000000000000500, -2.882725520021166300E-016, 0.0000000000000000000 ) ) ;
#1122 = AXIS2_PLACEMENT_3D ( 'NONE', #1105, #804, #523 ) ;
#1123 = EDGE_CURVE ( 'NONE', #1262, #807, #829, .T. ) ;
#1124 = MECHANICAL_DESIGN_GEOMETRIC_PRESENTATION_REPRESENTATION (  '', ( #1096 ), #67 ) ;
#1125 = AXIS2_PLACEMENT_3D ( 'NONE', #351, #1040, #349 ) ;
#1126 = LINE ( 'NONE', #397, #701 ) ;
#1127 = FACE_OUTER_BOUND ( 'NONE', #142, .T. ) ;
#1128 = EDGE_LOOP ( 'NONE', ( #962, #420, #726, #390 ) ) ;
#1129 = ADVANCED_FACE ( 'NONE', ( #1178 ), #152, .F. ) ;
#1130 = ORIENTED_EDGE ( 'NONE', *, *, #773, .F. ) ;
#1131 = ORIENTED_EDGE ( 'NONE', *, *, #445, .T. ) ;
#1132 = CIRCLE ( 'NONE', #552, 470.0000000000000600 ) ;
#1133 = DIRECTION ( 'NONE',  ( 0.0000000000000000000, -1.000000000000000000, 0.0000000000000000000 ) ) ;
#1134 = CIRCLE ( 'NONE', #224, 243.9999999999999700 ) ;
#1135 = EDGE_LOOP ( 'NONE', ( #1150, #1216, #799, #1130 ) ) ;
#1136 = DIRECTION ( 'NONE',  ( -1.000000000000000000, 5.708367366378543700E-019, -0.0000000000000000000 ) ) ;
#1137 = DIRECTION ( 'NONE',  ( 0.0000000000000000000, -1.000000000000000000, 0.0000000000000000000 ) ) ;
#1138 = DIRECTION ( 'NONE',  ( -1.000000000000000000, 5.708367366378543700E-019, -0.0000000000000000000 ) ) ;
#1139 = ADVANCED_BREP_SHAPE_REPRESENTATION ( 'filtro_succao_primeiro_estagio_TNO', ( #595, #1089, #820, #1164 ), #767 ) ;
#1140 = ADVANCED_FACE ( 'NONE', ( #547 ), #306, .T. ) ;
#1141 = EDGE_CURVE ( 'NONE', #386, #1253, #20, .T. ) ;
#1142 = PRODUCT_DEFINITION_CONTEXT ( 'detailed design', #221, 'design' ) ;
#1143 = VERTEX_POINT ( 'NONE', #59 ) ;
#1144 = ORIENTED_EDGE ( 'NONE', *, *, #56, .F. ) ;
#1145 = ORIENTED_EDGE ( 'NONE', *, *, #529, .F. ) ;
#1146 = EDGE_CURVE ( 'NONE', #393, #150, #1098, .T. ) ;
#1147 = EDGE_LOOP ( 'NONE', ( #1093, #159, #1103, #272 ) ) ;
#1148 = LINE ( 'NONE', #15, #819 ) ;
#1149 = AXIS2_PLACEMENT_3D ( 'NONE', #396, #1083, #413 ) ;
#1150 = ORIENTED_EDGE ( 'NONE', *, *, #464, .T. ) ;
#1151 = CARTESIAN_POINT ( 'NONE',  ( 2805.000000000000500, -470.0000000000004000, 0.0000000000000000000 ) ) ;
#1152 = EDGE_LOOP ( 'NONE', ( #301, #94, #1260, #404 ) ) ;
#1153 = CYLINDRICAL_SURFACE ( 'NONE', #1044, 398.5000000000000000 ) ;
#1154 = ORIENTED_EDGE ( 'NONE', *, *, #319, .F. ) ;
#1155 = VERTEX_POINT ( 'NONE', #355 ) ;
#1156 = ADVANCED_FACE ( 'NONE', ( #860 ), #837, .F. ) ;
#1157 = AXIS2_PLACEMENT_3D ( 'NONE', #103, #884, #973 ) ;
#1158 = PRESENTATION_STYLE_ASSIGNMENT (( #825 ) ) ;
#1159 = DIRECTION ( 'NONE',  ( -1.000000000000000000, 5.708367366378543700E-019, -0.0000000000000000000 ) ) ;
#1160 = CIRCLE ( 'NONE', #720, 295.0000000000001100 ) ;
#1161 = ORIENTED_EDGE ( 'NONE', *, *, #290, .T. ) ;
#1162 = CARTESIAN_POINT ( 'NONE',  ( 1173.000000000000000, 6.433330021908619700E-016, 0.0000000000000000000 ) ) ;
#1163 = CARTESIAN_POINT ( 'NONE',  ( 698.0000000000000000, 398.5000000000000000, 4.880217494602202600E-014 ) ) ;
#1164 = AXIS2_PLACEMENT_3D ( 'NONE', #711, #997, #619 ) ;
#1165 = PLANE ( 'NONE',  #1087 ) ;
#1166 = CARTESIAN_POINT ( 'NONE',  ( 698.0000000000000000, 20.00000000000000000, 0.0000000000000000000 ) ) ;
#1167 = CARTESIAN_POINT ( 'NONE',  ( 2300.000000000000500, 0.0000000000000000000, 0.0000000000000000000 ) ) ;
#1168 = EDGE_CURVE ( 'NONE', #1112, #1155, #274, .T. ) ;
#1169 = CARTESIAN_POINT ( 'NONE',  ( 1173.000000000000000, 6.433330021908619700E-016, 0.0000000000000000000 ) ) ;
#1170 = PLANE ( 'NONE',  #188 ) ;
#1171 = AXIS2_PLACEMENT_3D ( 'NONE', #1217, #913, #1209 ) ;
#1172 = ORIENTED_EDGE ( 'NONE', *, *, #620, .F. ) ;
#1173 = VERTEX_POINT ( 'NONE', #258 ) ;
#1174 = DIRECTION ( 'NONE',  ( -1.000000000000000000, 5.708367366378543700E-019, -0.0000000000000000000 ) ) ;
#1175 = VERTEX_POINT ( 'NONE', #255 ) ;
#1176 = CARTESIAN_POINT ( 'NONE',  ( 2775.000000000000500, 20.00000000000001800, 1.928818708657083000E-014 ) ) ;
#1177 = DIRECTION ( 'NONE',  ( -5.708367366378543700E-019, -1.000000000000000000, 0.0000000000000000000 ) ) ;
#1178 = FACE_OUTER_BOUND ( 'NONE', #967, .T. ) ;
#1179 = ORIENTED_EDGE ( 'NONE', *, *, #56, .T. ) ;
#1180 = DIRECTION ( 'NONE',  ( -1.000000000000000000, 5.708367366378543700E-019, -0.0000000000000000000 ) ) ;
#1181 = EDGE_CURVE ( 'NONE', #1055, #777, #569, .T. ) ;
#1182 = DIRECTION ( 'NONE',  ( -1.000000000000000000, 5.708367366378543700E-019, -0.0000000000000000000 ) ) ;
#1183 = CARTESIAN_POINT ( 'NONE',  ( 3611.000000000000000, -7.483669617322270500E-016, 0.0000000000000000000 ) ) ;
#1184 = DIRECTION ( 'NONE',  ( 0.0000000000000000000, -1.000000000000000000, 0.0000000000000000000 ) ) ;
#1185 = DIRECTION ( 'NONE',  ( -1.000000000000000000, 5.708367366378543700E-019, -0.0000000000000000000 ) ) ;
#1186 = CONICAL_SURFACE ( 'NONE', #573, 470.0000000000000600, 0.5310040229827811500 ) ;
#1187 = AXIS2_PLACEMENT_3D ( 'NONE', #207, #1080, #1192 ) ;
#1188 = DIRECTION ( 'NONE',  ( -1.000000000000000000, 5.708367366378543700E-019, -0.0000000000000000000 ) ) ;
#1189 = FACE_OUTER_BOUND ( 'NONE', #372, .T. ) ;
#1190 = EDGE_CURVE ( 'NONE', #1175, #393, #343, .T. ) ;
#1191 = LINE ( 'NONE', #1166, #655 ) ;
#1192 = DIRECTION ( 'NONE',  ( 0.0000000000000000000, -1.000000000000000000, 0.0000000000000000000 ) ) ;
#1193 = AXIS2_PLACEMENT_3D ( 'NONE', #245, #57, #736 ) ;
#1194 = VERTEX_POINT ( 'NONE', #456 ) ;
#1195 = ORIENTED_EDGE ( 'NONE', *, *, #425, .F. ) ;
#1196 = CARTESIAN_POINT ( 'NONE',  ( 2775.000000000000900, -2.711474499029812500E-016, 0.0000000000000000000 ) ) ;
#1197 = FACE_OUTER_BOUND ( 'NONE', #924, .T. ) ;
#1198 = DIRECTION ( 'NONE',  ( 0.0000000000000000000, -1.000000000000000000, 0.0000000000000000000 ) ) ;
#1199 = CYLINDRICAL_SURFACE ( 'NONE', #788, 243.9999999999999700 ) ;
#1200 = DIRECTION ( 'NONE',  ( -1.000000000000000000, 5.708367366378543700E-019, -0.0000000000000000000 ) ) ;
#1201 = EDGE_LOOP ( 'NONE', ( #109, #675 ) ) ;
#1202 = DIRECTION ( 'NONE',  ( 0.0000000000000000000, -1.000000000000000000, 0.0000000000000000000 ) ) ;
#1203 =( NAMED_UNIT ( * ) PLANE_ANGLE_UNIT ( ) SI_UNIT ( $, .RADIAN. ) );
#1204 = AXIS2_PLACEMENT_3D ( 'NONE', #193, #870, #1279 ) ;
#1205 = DIRECTION ( 'NONE',  ( -1.000000000000000000, 5.708367366378543700E-019, -0.0000000000000000000 ) ) ;
#1206 = DIRECTION ( 'NONE',  ( 0.0000000000000000000, -1.000000000000000000, 0.0000000000000000000 ) ) ;
#1207 = CARTESIAN_POINT ( 'NONE',  ( 1173.000000000000000, 289.0000000000001700, 3.539229249535852700E-014 ) ) ;
#1208 = DIRECTION ( 'NONE',  ( -1.000000000000000000, 5.708367366378543700E-019, -0.0000000000000000000 ) ) ;
#1209 = DIRECTION ( 'NONE',  ( 0.0000000000000000000, -1.000000000000000000, 0.0000000000000000000 ) ) ;
#1210 = CARTESIAN_POINT ( 'NONE',  ( 1173.000000000000200, 6.433330021908618700E-016, 0.0000000000000000000 ) ) ;
#1211 = AXIS2_PLACEMENT_3D ( 'NONE', #1167, #72, #748 ) ;
#1212 = FACE_OUTER_BOUND ( 'NONE', #680, .T. ) ;
#1213 = EDGE_CURVE ( 'NONE', #550, #1055, #1031, .T. ) ;
#1214 = DIRECTION ( 'NONE',  ( 0.0000000000000000000, -1.000000000000000000, 0.0000000000000000000 ) ) ;
#1215 = CARTESIAN_POINT ( 'NONE',  ( 1173.000000000000000, 6.433330021908619700E-016, 0.0000000000000000000 ) ) ;
#1216 = ORIENTED_EDGE ( 'NONE', *, *, #87, .T. ) ;
#1217 = CARTESIAN_POINT ( 'NONE',  ( 1173.000000000000000, 6.433330021908619700E-016, 0.0000000000000000000 ) ) ;
#1218 = CARTESIAN_POINT ( 'NONE',  ( 2775.000000000000900, -2.711474499029812500E-016, 0.0000000000000000000 ) ) ;
#1219 = ORIENTED_EDGE ( 'NONE', *, *, #1034, .F. ) ;
#1220 = CIRCLE ( 'NONE', #1226, 292.0000000000002800 ) ;
#1221 = SURFACE_SIDE_STYLE ('',( #597 ) ) ;
#1222 = ORIENTED_EDGE ( 'NONE', *, *, #1255, .T. ) ;
#1223 = DIRECTION ( 'NONE',  ( 1.000000000000000000, -5.708367366378543700E-019, 0.0000000000000000000 ) ) ;
#1224 = CARTESIAN_POINT ( 'NONE',  ( 698.0000000000000000, -20.00000000000000000, 2.449293598294706500E-015 ) ) ;
#1225 = EDGE_CURVE ( 'NONE', #1102, #219, #764, .T. ) ;
#1226 = AXIS2_PLACEMENT_3D ( 'NONE', #1282, #181, #1261 ) ;
#1227 = DIRECTION ( 'NONE',  ( 0.0000000000000000000, -1.000000000000000000, 0.0000000000000000000 ) ) ;
#1228 = VERTEX_POINT ( 'NONE', #699 ) ;
#1229 = EDGE_LOOP ( 'NONE', ( #240, #261, #471, #704 ) ) ;
#1230 = CIRCLE ( 'NONE', #1157, 470.0000000000000600 ) ;
#1231 = VERTEX_POINT ( 'NONE', #532 ) ;
#1232 = VERTEX_POINT ( 'NONE', #410 ) ;
#1233 = FACE_OUTER_BOUND ( 'NONE', #602, .T. ) ;
#1234 = ORIENTED_EDGE ( 'NONE', *, *, #738, .F. ) ;
#1235 = AXIS2_PLACEMENT_3D ( 'NONE', #786, #598, #1068 ) ;
#1236 = PRODUCT ( 'filtro_succao_primeiro_estagio_TNO', 'filtro_succao_primeiro_estagio_TNO', '', ( #118 ) ) ;
#1237 = DIRECTION ( 'NONE',  ( -1.000000000000000000, 5.708367366378543700E-019, -0.0000000000000000000 ) ) ;
#1238 = DIRECTION ( 'NONE',  ( -1.000000000000000000, 5.708367366378543700E-019, -0.0000000000000000000 ) ) ;
#1239 = ORIENTED_EDGE ( 'NONE', *, *, #1107, .T. ) ;
#1240 = ORIENTED_EDGE ( 'NONE', *, *, #718, .T. ) ;
#1241 = EDGE_CURVE ( 'NONE', #935, #892, #1056, .T. ) ;
#1242 = CARTESIAN_POINT ( 'NONE',  ( 1173.000000000000000, 470.0000000000000600, 5.755839955992560800E-014 ) ) ;
#1243 = AXIS2_PLACEMENT_3D ( 'NONE', #1095, #510, #1198 ) ;
#1244 = CIRCLE ( 'NONE', #920, 294.7999999999999500 ) ;
#1245 = EDGE_LOOP ( 'NONE', ( #859, #113, #768, #1234 ) ) ;
#1246 = EDGE_CURVE ( 'NONE', #970, #460, #446, .T. ) ;
#1247 = VERTEX_POINT ( 'NONE', #227 ) ;
#1248 = CIRCLE ( 'NONE', #963, 470.0000000000000600 ) ;
#1249 = VECTOR ( 'NONE', #867, 1000.000000000000000 ) ;
#1250 = ADVANCED_FACE ( 'NONE', ( #154 ), #1186, .T. ) ;
#1251 = AXIS2_PLACEMENT_3D ( 'NONE', #89, #383, #960 ) ;
#1252 = ORIENTED_EDGE ( 'NONE', *, *, #200, .F. ) ;
#1253 = VERTEX_POINT ( 'NONE', #315 ) ;
#1254 = CYLINDRICAL_SURFACE ( 'NONE', #379, 292.0000000000002800 ) ;
#1255 = EDGE_CURVE ( 'NONE', #1232, #386, #1048, .T. ) ;
#1256 = DIRECTION ( 'NONE',  ( -1.000000000000000000, 5.708367366378543700E-019, -0.0000000000000000000 ) ) ;
#1257 = CIRCLE ( 'NONE', #55, 294.8000000000000100 ) ;
#1258 = AXIS2_PLACEMENT_3D ( 'NONE', #434, #1238, #540 ) ;
#1259 = EDGE_LOOP ( 'NONE', ( #921, #192, #1035, #863 ) ) ;
#1260 = ORIENTED_EDGE ( 'NONE', *, *, #851, .T. ) ;
#1261 = DIRECTION ( 'NONE',  ( 0.0000000000000000000, -1.000000000000000000, 0.0000000000000000000 ) ) ;
#1262 = VERTEX_POINT ( 'NONE', #424 ) ;
#1263 =( NAMED_UNIT ( * ) PLANE_ANGLE_UNIT ( ) SI_UNIT ( $, .RADIAN. ) );
#1264 = CARTESIAN_POINT ( 'NONE',  ( 1173.000000000000000, 243.9999999999999700, 2.988138189919541400E-014 ) ) ;
#1265 = DIRECTION ( 'NONE',  ( -1.000000000000000000, 5.708367366378543700E-019, -0.0000000000000000000 ) ) ;
#1266 = AXIS2_PLACEMENT_3D ( 'NONE', #928, #1237, #66 ) ;
#1267 = CIRCLE ( 'NONE', #294, 294.7999999999999500 ) ;
#1268 = CARTESIAN_POINT ( 'NONE',  ( 1173.000000000000000, 6.433330021908619700E-016, 0.0000000000000000000 ) ) ;
#1269 = CIRCLE ( 'NONE', #784, 470.0000000000004000 ) ;
#1270 = EDGE_LOOP ( 'NONE', ( #939, #536, #145, #417 ) ) ;
#1271 = CARTESIAN_POINT ( 'NONE',  ( 697.9999999999998900, 470.0000000000000600, 5.755839955992560800E-014 ) ) ;
#1272 = DIRECTION ( 'NONE',  ( -1.000000000000000000, 5.708367366378543700E-019, -0.0000000000000000000 ) ) ;
#1273 = AXIS2_PLACEMENT_3D ( 'NONE', #1215, #122, #1110 ) ;
#1274 = CARTESIAN_POINT ( 'NONE',  ( 698.0000000000000000, 1.040182108977663100E-012, 0.0000000000000000000 ) ) ;
#1275 = EDGE_CURVE ( 'NONE', #1061, #1247, #714, .T. ) ;
#1276 = CYLINDRICAL_SURFACE ( 'NONE', #76, 470.0000000000000600 ) ;
#1277 = ADVANCED_FACE ( 'NONE', ( #944 ), #202, .T. ) ;
#1278 = ORIENTED_EDGE ( 'NONE', *, *, #1255, .F. ) ;
#1279 = DIRECTION ( 'NONE',  ( 0.0000000000000000000, -1.000000000000000000, 0.0000000000000000000 ) ) ;
#1280 = CARTESIAN_POINT ( 'NONE',  ( 3611.000000000000000, 243.9999999999999700, 2.988138189919541400E-014 ) ) ;
#1281 = DIRECTION ( 'NONE',  ( 0.0000000000000000000, -1.000000000000000000, 0.0000000000000000000 ) ) ;
#1282 = CARTESIAN_POINT ( 'NONE',  ( 2300.000000000000500, 0.0000000000000000000, 0.0000000000000000000 ) ) ;
#1283 = DIRECTION ( 'NONE',  ( -1.000000000000000000, 5.708367366378543700E-019, 0.0000000000000000000 ) ) ;
#1284 = EDGE_CURVE ( 'NONE', #891, #807, #754, .T. ) ;
#1285 = CARTESIAN_POINT ( 'NONE',  ( 2303.000000000000500, -1.712510209913657100E-018, 0.0000000000000000000 ) ) ;
#1286 = AXIS2_PLACEMENT_3D ( 'NONE', #292, #995, #101 ) ;
#1287 = CYLINDRICAL_SURFACE ( 'NONE', #1187, 292.0000000000002800 ) ;
#1288 = VECTOR ( 'NONE', #1265, 1000.000000000000000 ) ;
ENDSEC;
END-ISO-10303-21;
