ISO-10303-21;
HEADER;
FILE_DESCRIPTION (( 'STEP AP214' ),
    '1' );
FILE_NAME ('tetrahedron_double_volume.STEP',
    '2025-04-01T12:28:49',
    ( '' ),
    ( '' ),
    'SwSTEP 2.0',
    'SolidWorks 2015',
    '' );
FILE_SCHEMA (( 'AUTOMOTIVE_DESIGN' ));
ENDSEC;

DATA;
#1 = VECTOR ( 'NONE', #181, 1000.000000000000000 ) ;
#2 = EDGE_CURVE ( 'NONE', #16, #44, #198, .T. ) ;
#3 = VECTOR ( 'NONE', #183, 1000.000000000000200 ) ;
#4 = DIRECTION ( 'NONE',  ( -0.8660254037844382600, 0.0000000000000000000, 0.5000000000000004400 ) ) ;
#5 = PLANE ( 'NONE',  #112 ) ;
#6 = UNCERTAINTY_MEASURE_WITH_UNIT (LENGTH_MEASURE( 1.000000000000000100E-005 ), #49, 'distance_accuracy_value', 'NONE');
#7 = EDGE_LOOP ( 'NONE', ( #110, #248, #83 ) ) ;
#8 = DIRECTION ( 'NONE',  ( 0.4714045155995154100, 0.3333333627009854000, 0.8164965719357549800 ) ) ;
#9 = CARTESIAN_POINT ( 'NONE',  ( 28.86751345948129800, 0.0000000000000000000, 49.99999999999998600 ) ) ;
#10 = DIRECTION ( 'NONE',  ( 0.5773503073393229100, -0.8164965539518152000, 2.660505646375808300E-016 ) ) ;
#11 = ORIENTED_EDGE ( 'NONE', *, *, #168, .T. ) ;
#12 =( LENGTH_UNIT ( ) NAMED_UNIT ( * ) SI_UNIT ( .MILLI., .METRE. ) );
#13 = VECTOR ( 'NONE', #202, 1000.000000000000000 ) ;
#14 = ORIENTED_EDGE ( 'NONE', *, *, #17, .T. ) ;
#15 = DIRECTION ( 'NONE',  ( 0.0000000000000000000, 0.0000000000000000000, 1.000000000000000000 ) ) ;
#16 = VERTEX_POINT ( 'NONE', #56 ) ;
#17 = EDGE_CURVE ( 'NONE', #44, #70, #152, .T. ) ;
#18 = SURFACE_STYLE_USAGE ( .BOTH. , #125 ) ;
#19 = CARTESIAN_POINT ( 'NONE',  ( 0.0000000000000000000, 0.0000000000000000000, 0.0000000000000000000 ) ) ;
#20 = PRODUCT_DEFINITION_SHAPE ( 'NONE', 'NONE',  #217 ) ;
#21 = PRESENTATION_LAYER_ASSIGNMENT (  '', '', ( #68 ) ) ;
#22 = ORIENTED_EDGE ( 'NONE', *, *, #17, .F. ) ;
#23 = ADVANCED_FACE ( 'NONE', ( #77 ), #5, .F. ) ;
#24 = CARTESIAN_POINT ( 'NONE',  ( 28.86751345948129800, 0.0000000000000000000, 49.99999999999998600 ) ) ;
#25 = EDGE_CURVE ( 'NONE', #155, #171, #213, .T. ) ;
#26 = COLOUR_RGB ( '',0.7921568627450980000, 0.8196078431372548800, 0.9333333333333333500 ) ;
#27 = DIRECTION ( 'NONE',  ( 0.4714045155995156300, -0.3333333627009850100, -0.8164965719357550900 ) ) ;
#28 = PRODUCT_DEFINITION ( 'UNKNOWN', '', #78, #113 ) ;
#29 = PRODUCT_DEFINITION_CONTEXT ( 'detailed design', #107, 'design' ) ;
#30 =( NAMED_UNIT ( * ) SI_UNIT ( $, .STERADIAN. ) SOLID_ANGLE_UNIT ( ) );
#31 = SURFACE_STYLE_USAGE ( .BOTH. , #138 ) ;
#32 = EDGE_CURVE ( 'NONE', #195, #70, #40, .T. ) ;
#33 = DIRECTION ( 'NONE',  ( 0.8660254037844383700, 0.0000000000000000000, -0.5000000000000004400 ) ) ;
#34 = DIRECTION ( 'NONE',  ( -0.9428090311990299200, 0.3333333627009854000, 0.0000000000000000000 ) ) ;
#35 = SURFACE_SIDE_STYLE ('',( #178 ) ) ;
#36 = VERTEX_POINT ( 'NONE', #136 ) ;
#37 = EDGE_CURVE ( 'NONE', #195, #16, #123, .T. ) ;
#38 =( LENGTH_UNIT ( ) NAMED_UNIT ( * ) SI_UNIT ( .MILLI., .METRE. ) );
#39 =( NAMED_UNIT ( * ) PLANE_ANGLE_UNIT ( ) SI_UNIT ( $, .RADIAN. ) );
#40 = LINE ( 'NONE', #94, #238 ) ;
#41 = LINE ( 'NONE', #115, #228 ) ;
#42 = CLOSED_SHELL ( 'NONE', ( #141, #23, #215, #131 ) ) ;
#43 = UNCERTAINTY_MEASURE_WITH_UNIT (LENGTH_MEASURE( 1.000000000000000100E-005 ), #38, 'distance_accuracy_value', 'NONE');
#44 = VERTEX_POINT ( 'NONE', #60 ) ;
#45 = CARTESIAN_POINT ( 'NONE',  ( -2.081668171172168500E-014, 81.64964999999996600, -6.162975822039154700E-030 ) ) ;
#46 = STYLED_ITEM ( 'NONE', ( #174 ), #250 ) ;
#47 =( NAMED_UNIT ( * ) PLANE_ANGLE_UNIT ( ) SI_UNIT ( $, .RADIAN. ) );
#48 = CARTESIAN_POINT ( 'NONE',  ( 28.86751345948129800, 0.0000000000000000000, 49.99999999999998600 ) ) ;
#49 =( LENGTH_UNIT ( ) NAMED_UNIT ( * ) SI_UNIT ( .MILLI., .METRE. ) );
#50 =( NAMED_UNIT ( * ) SI_UNIT ( $, .STERADIAN. ) SOLID_ANGLE_UNIT ( ) );
#51 = MECHANICAL_DESIGN_GEOMETRIC_PRESENTATION_REPRESENTATION (  '', ( #68 ), #117 ) ;
#52 = FACE_OUTER_BOUND ( 'NONE', #153, .T. ) ;
#53 = FILL_AREA_STYLE_COLOUR ( '', #26 ) ;
#54 = VECTOR ( 'NONE', #199, 1000.000000000000200 ) ;
#55 = CLOSED_SHELL ( 'NONE', ( #92, #100, #200, #224 ) ) ;
#56 = CARTESIAN_POINT ( 'NONE',  ( 28.86751345948129800, 0.0000000000000000000, -50.00000000000004300 ) ) ;
#57 = MECHANICAL_DESIGN_GEOMETRIC_PRESENTATION_REPRESENTATION (  '', ( #97 ), #212 ) ;
#58 = ORIENTED_EDGE ( 'NONE', *, *, #32, .F. ) ;
#59 = DIRECTION ( 'NONE',  ( 0.5773503073393229100, 0.8164965539518150800, 2.660505646375808300E-016 ) ) ;
#60 = CARTESIAN_POINT ( 'NONE',  ( -57.73502691896248300, 0.0000000000000000000, -2.660505470577014900E-014 ) ) ;
#61 = CARTESIAN_POINT ( 'NONE',  ( 28.86751345948129800, 0.0000000000000000000, 49.99999999999998600 ) ) ;
#62 = CARTESIAN_POINT ( 'NONE',  ( 28.86751345948129800, 0.0000000000000000000, -50.00000000000004300 ) ) ;
#63 = LINE ( 'NONE', #48, #13 ) ;
#64 = CARTESIAN_POINT ( 'NONE',  ( -57.73502691896248300, 0.0000000000000000000, -2.660505470577014900E-014 ) ) ;
#65 = EDGE_LOOP ( 'NONE', ( #235, #22, #130 ) ) ;
#66 =( NAMED_UNIT ( * ) SI_UNIT ( $, .STERADIAN. ) SOLID_ANGLE_UNIT ( ) );
#67 =( NAMED_UNIT ( * ) PLANE_ANGLE_UNIT ( ) SI_UNIT ( $, .RADIAN. ) );
#68 = STYLED_ITEM ( 'NONE', ( #237 ), #96 ) ;
#69 = APPLICATION_CONTEXT ( 'automotive_design' ) ;
#70 = VERTEX_POINT ( 'NONE', #45 ) ;
#71 = VECTOR ( 'NONE', #10, 1000.000000000000100 ) ;
#72 = SURFACE_STYLE_FILL_AREA ( #225 ) ;
#73 = DIRECTION ( 'NONE',  ( 0.8660254037844383700, 0.0000000000000000000, -0.5000000000000005600 ) ) ;
#74 = MECHANICAL_DESIGN_GEOMETRIC_PRESENTATION_REPRESENTATION (  '', ( #46 ), #88 ) ;
#75 = ORIENTED_EDGE ( 'NONE', *, *, #2, .T. ) ;
#76 = CARTESIAN_POINT ( 'NONE',  ( 0.0000000000000000000, 0.0000000000000000000, 0.0000000000000000000 ) ) ;
#77 = FACE_OUTER_BOUND ( 'NONE', #7, .T. ) ;
#78 = PRODUCT_DEFINITION_FORMATION_WITH_SPECIFIED_SOURCE ( 'ANY', '', #220, .NOT_KNOWN. ) ;
#79 = DIRECTION ( 'NONE',  ( 0.0000000000000000000, 1.000000000000000000, -0.0000000000000000000 ) ) ;
#80 = DIRECTION ( 'NONE',  ( 1.000000000000000000, 0.0000000000000000000, 0.0000000000000000000 ) ) ;
#81 = EDGE_CURVE ( 'NONE', #16, #70, #41, .T. ) ;
#82 = PRODUCT_CONTEXT ( 'NONE', #230, 'mechanical' ) ;
#83 = ORIENTED_EDGE ( 'NONE', *, *, #25, .F. ) ;
#84 = LINE ( 'NONE', #221, #3 ) ;
#85 = ORIENTED_EDGE ( 'NONE', *, *, #159, .T. ) ;
#86 = MANIFOLD_SOLID_BREP ( 'Loft1', #55 ) ;
#87 = ORIENTED_EDGE ( 'NONE', *, *, #25, .T. ) ;
#88 =( GEOMETRIC_REPRESENTATION_CONTEXT ( 3 ) GLOBAL_UNCERTAINTY_ASSIGNED_CONTEXT ( ( #43 ) ) GLOBAL_UNIT_ASSIGNED_CONTEXT ( ( #38, #39, #66 ) ) REPRESENTATION_CONTEXT ( 'NONE', 'WORKASPACE' ) );
#89 = SURFACE_STYLE_FILL_AREA ( #187 ) ;
#90 = EDGE_LOOP ( 'NONE', ( #164, #58, #234 ) ) ;
#91 = DIRECTION ( 'NONE',  ( -0.2886751536696617300, 0.8164965539518145300, 0.5000000330386077400 ) ) ;
#92 = ADVANCED_FACE ( 'NONE', ( #222 ), #214, .F. ) ;
#93 = CARTESIAN_POINT ( 'NONE',  ( 28.86751345948129800, 0.0000000000000000000, -50.00000000000004300 ) ) ;
#94 = CARTESIAN_POINT ( 'NONE',  ( 28.86751345948129800, 0.0000000000000000000, 49.99999999999998600 ) ) ;
#95 = ORIENTED_EDGE ( 'NONE', *, *, #37, .F. ) ;
#96 = ADVANCED_BREP_SHAPE_REPRESENTATION ( 'tetrahedron_double_volume', ( #86, #250, #191 ), #177 ) ;
#97 = STYLED_ITEM ( 'NONE', ( #175 ), #86 ) ;
#98 = CARTESIAN_POINT ( 'NONE',  ( 25.66001139880261700, 9.072184931905747300, -8.722735401264817400E-016 ) ) ;
#99 = PLANE ( 'NONE',  #173 ) ;
#100 = ADVANCED_FACE ( 'NONE', ( #196 ), #163, .F. ) ;
#101 = ORIENTED_EDGE ( 'NONE', *, *, #81, .F. ) ;
#102 = CARTESIAN_POINT ( 'NONE',  ( -12.83000569940130100, -9.072184931905717100, 22.22222173276129500 ) ) ;
#103 = DIRECTION ( 'NONE',  ( -0.2886751536696618400, -0.8164965539518147500, -0.5000000330386072900 ) ) ;
#104 = DIRECTION ( 'NONE',  ( 0.4714045155995155200, 0.3333333627009849600, -0.8164965719357550900 ) ) ;
#105 =( LENGTH_UNIT ( ) NAMED_UNIT ( * ) SI_UNIT ( .MILLI., .METRE. ) );
#106 = VECTOR ( 'NONE', #59, 1000.000000000000100 ) ;
#107 = APPLICATION_CONTEXT ( 'automotive_design' ) ;
#108 = EDGE_CURVE ( 'NONE', #244, #155, #63, .T. ) ;
#109 = COLOUR_RGB ( '',0.7921568627450980000, 0.8196078431372548800, 0.9333333333333333500 ) ;
#110 = ORIENTED_EDGE ( 'NONE', *, *, #240, .T. ) ;
#111 = EDGE_LOOP ( 'NONE', ( #11, #179, #210 ) ) ;
#112 = AXIS2_PLACEMENT_3D ( 'NONE', #219, #8, #73 ) ;
#113 = PRODUCT_DEFINITION_CONTEXT ( 'detailed design', #126, 'design' ) ;
#114 = VECTOR ( 'NONE', #103, 999.9999999999998900 ) ;
#115 = CARTESIAN_POINT ( 'NONE',  ( 28.86751345948129800, 0.0000000000000000000, -50.00000000000004300 ) ) ;
#116 = ORIENTED_EDGE ( 'NONE', *, *, #229, .F. ) ;
#117 =( GEOMETRIC_REPRESENTATION_CONTEXT ( 3 ) GLOBAL_UNCERTAINTY_ASSIGNED_CONTEXT ( ( #132 ) ) GLOBAL_UNIT_ASSIGNED_CONTEXT ( ( #105, #149, #172 ) ) REPRESENTATION_CONTEXT ( 'NONE', 'WORKASPACE' ) );
#118 = DIRECTION ( 'NONE',  ( -0.8660254037844383700, 0.0000000000000000000, -0.5000000000000005600 ) ) ;
#119 = CARTESIAN_POINT ( 'NONE',  ( 28.86751345948129800, 0.0000000000000000000, -50.00000000000004300 ) ) ;
#120 = DIRECTION ( 'NONE',  ( -0.2886751536696617300, -0.8164965539518145300, 0.5000000330386076300 ) ) ;
#121 = PLANE ( 'NONE',  #197 ) ;
#122 = VECTOR ( 'NONE', #140, 1000.000000000000200 ) ;
#123 = LINE ( 'NONE', #24, #1 ) ;
#124 = DIRECTION ( 'NONE',  ( 0.3333333627009854000, -0.9428090311990298100, 0.0000000000000000000 ) ) ;
#125 = SURFACE_SIDE_STYLE ('',( #89 ) ) ;
#126 = APPLICATION_CONTEXT ( 'automotive_design' ) ;
#127 = AXIS2_PLACEMENT_3D ( 'NONE', #76, #185, #157 ) ;
#128 = FACE_OUTER_BOUND ( 'NONE', #111, .T. ) ;
#129 = ORIENTED_EDGE ( 'NONE', *, *, #2, .F. ) ;
#130 = ORIENTED_EDGE ( 'NONE', *, *, #148, .T. ) ;
#131 = ADVANCED_FACE ( 'NONE', ( #128 ), #142, .F. ) ;
#132 = UNCERTAINTY_MEASURE_WITH_UNIT (LENGTH_MEASURE( 1.000000000000000100E-005 ), #105, 'distance_accuracy_value', 'NONE');
#133 = PRESENTATION_LAYER_ASSIGNMENT (  '', '', ( #97 ) ) ;
#134 = VECTOR ( 'NONE', #4, 1000.000000000000200 ) ;
#135 = ORIENTED_EDGE ( 'NONE', *, *, #148, .F. ) ;
#136 = CARTESIAN_POINT ( 'NONE',  ( 0.0000000000000000000, -81.64965000000000800, 0.0000000000000000000 ) ) ;
#137 = DIRECTION ( 'NONE',  ( -0.8660254037844383700, 0.0000000000000000000, -0.5000000000000006700 ) ) ;
#138 = SURFACE_SIDE_STYLE ('',( #72 ) ) ;
#139 = SHAPE_DEFINITION_REPRESENTATION ( #161, #96 ) ;
#140 = DIRECTION ( 'NONE',  ( 0.8660254037844382600, 0.0000000000000000000, 0.5000000000000004400 ) ) ;
#141 = ADVANCED_FACE ( 'NONE', ( #52 ), #203, .T. ) ;
#142 = PLANE ( 'NONE',  #180 ) ;
#143 = AXIS2_PLACEMENT_3D ( 'NONE', #241, #27, #137 ) ;
#144 = FILL_AREA_STYLE_COLOUR ( '', #189 ) ;
#145 = DIRECTION ( 'NONE',  ( 1.000000000000000000, 0.0000000000000000000, 0.0000000000000000000 ) ) ;
#146 = UNCERTAINTY_MEASURE_WITH_UNIT (LENGTH_MEASURE( 1.000000000000000100E-005 ), #12, 'distance_accuracy_value', 'NONE');
#147 = PRESENTATION_LAYER_ASSIGNMENT (  '', '', ( #46 ) ) ;
#148 = EDGE_CURVE ( 'NONE', #44, #195, #84, .T. ) ;
#149 =( NAMED_UNIT ( * ) PLANE_ANGLE_UNIT ( ) SI_UNIT ( $, .RADIAN. ) );
#150 = LINE ( 'NONE', #64, #71 ) ;
#151 = FACE_OUTER_BOUND ( 'NONE', #90, .T. ) ;
#152 = LINE ( 'NONE', #156, #106 ) ;
#153 = EDGE_LOOP ( 'NONE', ( #87, #206, #184 ) ) ;
#154 = PRODUCT ( 'tetrahedron_double_volume', 'tetrahedron_double_volume', '', ( #82 ) ) ;
#155 = VERTEX_POINT ( 'NONE', #119 ) ;
#156 = CARTESIAN_POINT ( 'NONE',  ( -57.73502691896248300, 0.0000000000000000000, -2.660505470577014900E-014 ) ) ;
#157 = DIRECTION ( 'NONE',  ( 0.0000000000000000000, 0.0000000000000000000, 1.000000000000000000 ) ) ;
#158 = DIRECTION ( 'NONE',  ( 0.0000000000000000000, 0.0000000000000000000, 1.000000000000000000 ) ) ;
#159 = EDGE_CURVE ( 'NONE', #171, #36, #150, .T. ) ;
#160 = CARTESIAN_POINT ( 'NONE',  ( 28.86751345948129800, 0.0000000000000000000, 49.99999999999998600 ) ) ;
#161 = PRODUCT_DEFINITION_SHAPE ( 'NONE', 'NONE',  #28 ) ;
#162 = FACE_OUTER_BOUND ( 'NONE', #190, .T. ) ;
#163 = PLANE ( 'NONE',  #143 ) ;
#164 = ORIENTED_EDGE ( 'NONE', *, *, #81, .T. ) ;
#165 = CARTESIAN_POINT ( 'NONE',  ( 0.0000000000000000000, 0.0000000000000000000, 0.0000000000000000000 ) ) ;
#166 = AXIS2_PLACEMENT_3D ( 'NONE', #204, #79, #158 ) ;
#167 = APPLICATION_PROTOCOL_DEFINITION ( 'draft international standard', 'automotive_design', 1998, #230 ) ;
#168 = EDGE_CURVE ( 'NONE', #244, #36, #205, .T. ) ;
#169 = FILL_AREA_STYLE_COLOUR ( '', #109 ) ;
#170 = LINE ( 'NONE', #62, #226 ) ;
#171 = VERTEX_POINT ( 'NONE', #245 ) ;
#172 =( NAMED_UNIT ( * ) SI_UNIT ( $, .STERADIAN. ) SOLID_ANGLE_UNIT ( ) );
#173 = AXIS2_PLACEMENT_3D ( 'NONE', #98, #246, #124 ) ;
#174 = PRESENTATION_STYLE_ASSIGNMENT (( #18 ) ) ;
#175 = PRESENTATION_STYLE_ASSIGNMENT (( #31 ) ) ;
#176 = ORIENTED_EDGE ( 'NONE', *, *, #168, .F. ) ;
#177 =( GEOMETRIC_REPRESENTATION_CONTEXT ( 3 ) GLOBAL_UNCERTAINTY_ASSIGNED_CONTEXT ( ( #6 ) ) GLOBAL_UNIT_ASSIGNED_CONTEXT ( ( #49, #67, #50 ) ) REPRESENTATION_CONTEXT ( 'NONE', 'WORKASPACE' ) );
#178 = SURFACE_STYLE_FILL_AREA ( #192 ) ;
#179 = ORIENTED_EDGE ( 'NONE', *, *, #240, .F. ) ;
#180 = AXIS2_PLACEMENT_3D ( 'NONE', #182, #34, #242 ) ;
#181 = DIRECTION ( 'NONE',  ( 0.0000000000000000000, 0.0000000000000000000, -1.000000000000000000 ) ) ;
#182 = CARTESIAN_POINT ( 'NONE',  ( 25.66001139880262400, -9.072184931905747300, 0.0000000000000000000 ) ) ;
#183 = DIRECTION ( 'NONE',  ( 0.8660254037844382600, 0.0000000000000000000, 0.5000000000000004400 ) ) ;
#184 = ORIENTED_EDGE ( 'NONE', *, *, #108, .T. ) ;
#185 = DIRECTION ( 'NONE',  ( 0.0000000000000000000, 1.000000000000000000, -0.0000000000000000000 ) ) ;
#186 = DIRECTION ( 'NONE',  ( 0.4714045155995154100, -0.3333333627009854600, 0.8164965719357550900 ) ) ;
#187 = FILL_AREA_STYLE ('',( #169 ) ) ;
#188 = APPLICATION_PROTOCOL_DEFINITION ( 'draft international standard', 'automotive_design', 1998, #69 ) ;
#189 = COLOUR_RGB ( '',0.7921568627450980000, 0.8196078431372548800, 0.9333333333333333500 ) ;
#190 = EDGE_LOOP ( 'NONE', ( #85, #176, #116 ) ) ;
#191 = AXIS2_PLACEMENT_3D ( 'NONE', #165, #207, #80 ) ;
#192 = FILL_AREA_STYLE ('',( #53 ) ) ;
#193 = PRODUCT_DEFINITION_FORMATION_WITH_SPECIFIED_SOURCE ( 'ANY', '', #154, .NOT_KNOWN. ) ;
#194 = AXIS2_PLACEMENT_3D ( 'NONE', #102, #104, #118 ) ;
#195 = VERTEX_POINT ( 'NONE', #61 ) ;
#196 = FACE_OUTER_BOUND ( 'NONE', #65, .T. ) ;
#197 = AXIS2_PLACEMENT_3D ( 'NONE', #227, #186, #33 ) ;
#198 = LINE ( 'NONE', #93, #134 ) ;
#199 = DIRECTION ( 'NONE',  ( -0.8660254037844382600, 0.0000000000000000000, 0.5000000000000004400 ) ) ;
#200 = ADVANCED_FACE ( 'NONE', ( #216 ), #121, .F. ) ;
#201 = PRODUCT_RELATED_PRODUCT_CATEGORY ( 'part', '', ( #154 ) ) ;
#202 = DIRECTION ( 'NONE',  ( 0.0000000000000000000, 0.0000000000000000000, -1.000000000000000000 ) ) ;
#203 = PLANE ( 'NONE',  #127 ) ;
#204 = CARTESIAN_POINT ( 'NONE',  ( 0.0000000000000000000, 0.0000000000000000000, 0.0000000000000000000 ) ) ;
#205 = LINE ( 'NONE', #9, #114 ) ;
#206 = ORIENTED_EDGE ( 'NONE', *, *, #229, .T. ) ;
#207 = DIRECTION ( 'NONE',  ( 0.0000000000000000000, 0.0000000000000000000, 1.000000000000000000 ) ) ;
#208 = APPLICATION_PROTOCOL_DEFINITION ( 'draft international standard', 'automotive_design', 1998, #126 ) ;
#209 = SURFACE_STYLE_USAGE ( .BOTH. , #35 ) ;
#210 = ORIENTED_EDGE ( 'NONE', *, *, #108, .F. ) ;
#211 = AXIS2_PLACEMENT_3D ( 'NONE', #19, #15, #145 ) ;
#212 =( GEOMETRIC_REPRESENTATION_CONTEXT ( 3 ) GLOBAL_UNCERTAINTY_ASSIGNED_CONTEXT ( ( #146 ) ) GLOBAL_UNIT_ASSIGNED_CONTEXT ( ( #12, #47, #30 ) ) REPRESENTATION_CONTEXT ( 'NONE', 'WORKASPACE' ) );
#213 = LINE ( 'NONE', #218, #54 ) ;
#214 = PLANE ( 'NONE',  #166 ) ;
#215 = ADVANCED_FACE ( 'NONE', ( #162 ), #223, .F. ) ;
#216 = FACE_OUTER_BOUND ( 'NONE', #236, .T. ) ;
#217 = PRODUCT_DEFINITION ( 'UNKNOWN', '', #193, #29 ) ;
#218 = CARTESIAN_POINT ( 'NONE',  ( 28.86751345948129800, 0.0000000000000000000, -50.00000000000004300 ) ) ;
#219 = CARTESIAN_POINT ( 'NONE',  ( -12.83000569940132400, -9.072184931905745500, -22.22222173276133000 ) ) ;
#220 = PRODUCT ( 'tetrahedron_double_volume', 'tetrahedron_double_volume', '', ( #232 ) ) ;
#221 = CARTESIAN_POINT ( 'NONE',  ( -57.73502691896248300, 0.0000000000000000000, -2.660505470577014900E-014 ) ) ;
#222 = FACE_OUTER_BOUND ( 'NONE', #249, .T. ) ;
#223 = PLANE ( 'NONE',  #194 ) ;
#224 = ADVANCED_FACE ( 'NONE', ( #151 ), #99, .F. ) ;
#225 = FILL_AREA_STYLE ('',( #144 ) ) ;
#226 = VECTOR ( 'NONE', #120, 1000.000000000000100 ) ;
#227 = CARTESIAN_POINT ( 'NONE',  ( -12.83000569940132300, 9.072184931905745500, -22.22222173276133000 ) ) ;
#228 = VECTOR ( 'NONE', #91, 1000.000000000000200 ) ;
#229 = EDGE_CURVE ( 'NONE', #171, #244, #233, .T. ) ;
#230 = APPLICATION_CONTEXT ( 'automotive_design' ) ;
#231 = PRODUCT_RELATED_PRODUCT_CATEGORY ( 'part', '', ( #220 ) ) ;
#232 = PRODUCT_CONTEXT ( 'NONE', #69, 'mechanical' ) ;
#233 = LINE ( 'NONE', #243, #122 ) ;
#234 = ORIENTED_EDGE ( 'NONE', *, *, #37, .T. ) ;
#235 = ORIENTED_EDGE ( 'NONE', *, *, #32, .T. ) ;
#236 = EDGE_LOOP ( 'NONE', ( #14, #101, #75 ) ) ;
#237 = PRESENTATION_STYLE_ASSIGNMENT (( #209 ) ) ;
#238 = VECTOR ( 'NONE', #239, 1000.000000000000000 ) ;
#239 = DIRECTION ( 'NONE',  ( -0.2886751536696619000, 0.8164965539518146400, -0.5000000330386074100 ) ) ;
#240 = EDGE_CURVE ( 'NONE', #155, #36, #170, .T. ) ;
#241 = CARTESIAN_POINT ( 'NONE',  ( -12.83000569940130800, 9.072184931905722400, 22.22222173276130200 ) ) ;
#242 = DIRECTION ( 'NONE',  ( -0.3333333627009853500, -0.9428090311990298100, 0.0000000000000000000 ) ) ;
#243 = CARTESIAN_POINT ( 'NONE',  ( -57.73502691896248300, 0.0000000000000000000, -2.660505470577014900E-014 ) ) ;
#244 = VERTEX_POINT ( 'NONE', #160 ) ;
#245 = CARTESIAN_POINT ( 'NONE',  ( -57.73502691896251100, 0.0000000000000000000, -1.387778780781445700E-014 ) ) ;
#246 = DIRECTION ( 'NONE',  ( -0.9428090311990299200, -0.3333333627009854600, 3.204937669457044500E-017 ) ) ;
#247 = APPLICATION_PROTOCOL_DEFINITION ( 'draft international standard', 'automotive_design', 1998, #107 ) ;
#248 = ORIENTED_EDGE ( 'NONE', *, *, #159, .F. ) ;
#249 = EDGE_LOOP ( 'NONE', ( #129, #95, #135 ) ) ;
#250 = MANIFOLD_SOLID_BREP ( 'Loft2', #42 ) ;
ENDSEC;
END-ISO-10303-21;
