ISO-10303-21;
HEADER;
FILE_DESCRIPTION (( 'STEP AP214' ),
    '1' );
FILE_NAME ('tetrahedron_double.STEP',
    '2025-04-01T12:20:37',
    ( '' ),
    ( '' ),
    'SwSTEP 2.0',
    'SolidWorks 2015',
    '' );
FILE_SCHEMA (( 'AUTOMOTIVE_DESIGN' ));
ENDSEC;

DATA;
#1 = VECTOR ( 'NONE', #171, 1000.000000000000100 ) ;
#2 = CARTESIAN_POINT ( 'NONE',  ( 28.86751345948129800, 0.0000000000000000000, 49.99999999999998600 ) ) ;
#3 = ADVANCED_FACE ( 'NONE', ( #130 ), #16, .F. ) ;
#4 = DIRECTION ( 'NONE',  ( 0.8660254037844383700, 0.0000000000000000000, -0.5000000000000004400 ) ) ;
#5 = DIRECTION ( 'NONE',  ( 0.3333333627009854000, -0.9428090311990298100, 0.0000000000000000000 ) ) ;
#6 = EDGE_CURVE ( 'NONE', #78, #235, #174, .T. ) ;
#7 = PLANE ( 'NONE',  #115 ) ;
#8 =( NAMED_UNIT ( * ) SI_UNIT ( $, .STERADIAN. ) SOLID_ANGLE_UNIT ( ) );
#9 = SURFACE_STYLE_USAGE ( .BOTH. , #179 ) ;
#10 = CARTESIAN_POINT ( 'NONE',  ( -2.081668171172168500E-014, 81.64964999999996600, -6.162975822039154700E-030 ) ) ;
#11 =( NAMED_UNIT ( * ) SI_UNIT ( $, .STERADIAN. ) SOLID_ANGLE_UNIT ( ) );
#12 = PLANE ( 'NONE',  #225 ) ;
#13 = EDGE_LOOP ( 'NONE', ( #114, #94, #151 ) ) ;
#14 = UNCERTAINTY_MEASURE_WITH_UNIT (LENGTH_MEASURE( 1.000000000000000100E-005 ), #111, 'distance_accuracy_value', 'NONE');
#15 = VECTOR ( 'NONE', #233, 1000.000000000000200 ) ;
#16 = PLANE ( 'NONE',  #172 ) ;
#17 = EDGE_CURVE ( 'NONE', #185, #182, #36, .T. ) ;
#18 = PRESENTATION_LAYER_ASSIGNMENT (  '', '', ( #127 ) ) ;
#19 = DIRECTION ( 'NONE',  ( 0.8660254037844382600, 0.0000000000000000000, 0.5000000000000004400 ) ) ;
#20 = EDGE_LOOP ( 'NONE', ( #178, #131, #164 ) ) ;
#21 = CARTESIAN_POINT ( 'NONE',  ( -57.73502691896248300, 0.0000000000000000000, -2.660505470577014900E-014 ) ) ;
#22 = ADVANCED_FACE ( 'NONE', ( #223 ), #26, .F. ) ;
#23 = EDGE_CURVE ( 'NONE', #128, #185, #216, .T. ) ;
#24 = ORIENTED_EDGE ( 'NONE', *, *, #129, .T. ) ;
#25 = CARTESIAN_POINT ( 'NONE',  ( 28.86751345948129800, 0.0000000000000000000, 49.99999999999998600 ) ) ;
#26 = PLANE ( 'NONE',  #210 ) ;
#27 = DIRECTION ( 'NONE',  ( -0.3333333627009853500, -0.9428090311990298100, 0.0000000000000000000 ) ) ;
#28 = ORIENTED_EDGE ( 'NONE', *, *, #17, .T. ) ;
#29 = APPLICATION_PROTOCOL_DEFINITION ( 'draft international standard', 'automotive_design', 1998, #112 ) ;
#30 = ORIENTED_EDGE ( 'NONE', *, *, #23, .F. ) ;
#31 = APPLICATION_CONTEXT ( 'automotive_design' ) ;
#32 = FACE_OUTER_BOUND ( 'NONE', #224, .T. ) ;
#33 = PRODUCT_DEFINITION_CONTEXT ( 'detailed design', #112, 'design' ) ;
#34 = ORIENTED_EDGE ( 'NONE', *, *, #116, .T. ) ;
#35 = LINE ( 'NONE', #25, #102 ) ;
#36 = LINE ( 'NONE', #21, #75 ) ;
#37 = PRODUCT_DEFINITION ( 'UNKNOWN', '', #238, #249 ) ;
#38 = ORIENTED_EDGE ( 'NONE', *, *, #246, .F. ) ;
#39 = DIRECTION ( 'NONE',  ( 0.5773503073393229100, 0.8164965539518150800, 2.660505646375808300E-016 ) ) ;
#40 = ADVANCED_FACE ( 'NONE', ( #32 ), #88, .F. ) ;
#41 = VECTOR ( 'NONE', #120, 1000.000000000000200 ) ;
#42 = CARTESIAN_POINT ( 'NONE',  ( 28.86751345948129800, 0.0000000000000000000, 49.99999999999998600 ) ) ;
#43 = FILL_AREA_STYLE_COLOUR ( '', #152 ) ;
#44 = EDGE_LOOP ( 'NONE', ( #77, #199, #124 ) ) ;
#45 = EDGE_CURVE ( 'NONE', #188, #182, #226, .T. ) ;
#46 = CARTESIAN_POINT ( 'NONE',  ( -12.83000569940130800, 9.072184931905722400, 22.22222173276130200 ) ) ;
#47 = PRESENTATION_STYLE_ASSIGNMENT (( #9 ) ) ;
#48 = CARTESIAN_POINT ( 'NONE',  ( 28.86751345948129800, 0.0000000000000000000, 49.99999999999998600 ) ) ;
#49 = FACE_OUTER_BOUND ( 'NONE', #219, .T. ) ;
#50 = PRODUCT ( 'tetrahedron_double', 'tetrahedron_double', '', ( #146 ) ) ;
#51 = COLOUR_RGB ( '',0.7921568627450980000, 0.8196078431372548800, 0.9333333333333333500 ) ;
#52 = APPLICATION_PROTOCOL_DEFINITION ( 'draft international standard', 'automotive_design', 1998, #31 ) ;
#53 = CLOSED_SHELL ( 'NONE', ( #192, #22, #89, #40 ) ) ;
#54 = FACE_OUTER_BOUND ( 'NONE', #228, .T. ) ;
#55 = LINE ( 'NONE', #145, #209 ) ;
#56 = STYLED_ITEM ( 'NONE', ( #220 ), #195 ) ;
#57 = FACE_OUTER_BOUND ( 'NONE', #20, .T. ) ;
#58 = MECHANICAL_DESIGN_GEOMETRIC_PRESENTATION_REPRESENTATION (  '', ( #127 ), #85 ) ;
#59 = STYLED_ITEM ( 'NONE', ( #147 ), #123 ) ;
#60 = CARTESIAN_POINT ( 'NONE',  ( -57.73502691896248300, 0.0000000000000000000, -2.660505470577014900E-014 ) ) ;
#61 = LINE ( 'NONE', #144, #99 ) ;
#62 = CARTESIAN_POINT ( 'NONE',  ( -12.83000569940132300, 9.072184931905745500, -22.22222173276133000 ) ) ;
#63 = EDGE_CURVE ( 'NONE', #185, #188, #165, .T. ) ;
#64 = CARTESIAN_POINT ( 'NONE',  ( 25.66001139880262400, -9.072184931905747300, 0.0000000000000000000 ) ) ;
#65 = DIRECTION ( 'NONE',  ( -0.9428090311990299200, 0.3333333627009854000, 0.0000000000000000000 ) ) ;
#66 = DIRECTION ( 'NONE',  ( -0.2886751536696619000, 0.8164965539518146400, -0.5000000330386074100 ) ) ;
#67 = SURFACE_STYLE_USAGE ( .BOTH. , #70 ) ;
#68 = CARTESIAN_POINT ( 'NONE',  ( 0.0000000000000000000, 0.0000000000000000000, 0.0000000000000000000 ) ) ;
#69 =( GEOMETRIC_REPRESENTATION_CONTEXT ( 3 ) GLOBAL_UNCERTAINTY_ASSIGNED_CONTEXT ( ( #73 ) ) GLOBAL_UNIT_ASSIGNED_CONTEXT ( ( #180, #203, #11 ) ) REPRESENTATION_CONTEXT ( 'NONE', 'WORKASPACE' ) );
#70 = SURFACE_SIDE_STYLE ('',( #74 ) ) ;
#71 =( NAMED_UNIT ( * ) PLANE_ANGLE_UNIT ( ) SI_UNIT ( $, .RADIAN. ) );
#72 = VERTEX_POINT ( 'NONE', #82 ) ;
#73 = UNCERTAINTY_MEASURE_WITH_UNIT (LENGTH_MEASURE( 1.000000000000000100E-005 ), #180, 'distance_accuracy_value', 'NONE');
#74 = SURFACE_STYLE_FILL_AREA ( #217 ) ;
#75 = VECTOR ( 'NONE', #39, 1000.000000000000100 ) ;
#76 = AXIS2_PLACEMENT_3D ( 'NONE', #68, #239, #160 ) ;
#77 = ORIENTED_EDGE ( 'NONE', *, *, #98, .T. ) ;
#78 = VERTEX_POINT ( 'NONE', #122 ) ;
#79 = EDGE_CURVE ( 'NONE', #72, #78, #184, .T. ) ;
#80 = VECTOR ( 'NONE', #155, 1000.000000000000200 ) ;
#81 = ORIENTED_EDGE ( 'NONE', *, *, #17, .F. ) ;
#82 = CARTESIAN_POINT ( 'NONE',  ( 28.86751345948129800, 0.0000000000000000000, -50.00000000000004300 ) ) ;
#83 = CLOSED_SHELL ( 'NONE', ( #214, #134, #3, #117 ) ) ;
#84 = PLANE ( 'NONE',  #143 ) ;
#85 =( GEOMETRIC_REPRESENTATION_CONTEXT ( 3 ) GLOBAL_UNCERTAINTY_ASSIGNED_CONTEXT ( ( #96 ) ) GLOBAL_UNIT_ASSIGNED_CONTEXT ( ( #241, #71, #159 ) ) REPRESENTATION_CONTEXT ( 'NONE', 'WORKASPACE' ) );
#86 = FILL_AREA_STYLE_COLOUR ( '', #51 ) ;
#87 = VECTOR ( 'NONE', #19, 1000.000000000000200 ) ;
#88 = PLANE ( 'NONE',  #138 ) ;
#89 = ADVANCED_FACE ( 'NONE', ( #187 ), #7, .F. ) ;
#90 = PLANE ( 'NONE',  #242 ) ;
#91 = FILL_AREA_STYLE ('',( #43 ) ) ;
#92 = ORIENTED_EDGE ( 'NONE', *, *, #246, .T. ) ;
#93 = DIRECTION ( 'NONE',  ( 1.000000000000000000, 0.0000000000000000000, 0.0000000000000000000 ) ) ;
#94 = ORIENTED_EDGE ( 'NONE', *, *, #98, .F. ) ;
#95 = FACE_OUTER_BOUND ( 'NONE', #44, .T. ) ;
#96 = UNCERTAINTY_MEASURE_WITH_UNIT (LENGTH_MEASURE( 1.000000000000000100E-005 ), #241, 'distance_accuracy_value', 'NONE');
#97 = DIRECTION ( 'NONE',  ( -0.8660254037844383700, 0.0000000000000000000, -0.5000000000000005600 ) ) ;
#98 = EDGE_CURVE ( 'NONE', #235, #106, #35, .T. ) ;
#99 = VECTOR ( 'NONE', #197, 1000.000000000000200 ) ;
#100 = ORIENTED_EDGE ( 'NONE', *, *, #79, .F. ) ;
#101 = CARTESIAN_POINT ( 'NONE',  ( 25.66001139880261700, 9.072184931905747300, -8.722735401264817400E-016 ) ) ;
#102 = VECTOR ( 'NONE', #194, 999.9999999999998900 ) ;
#103 = DIRECTION ( 'NONE',  ( 0.4714045155995156300, -0.3333333627009850100, -0.8164965719357550900 ) ) ;
#104 =( NAMED_UNIT ( * ) SI_UNIT ( $, .STERADIAN. ) SOLID_ANGLE_UNIT ( ) );
#105 =( NAMED_UNIT ( * ) PLANE_ANGLE_UNIT ( ) SI_UNIT ( $, .RADIAN. ) );
#106 = VERTEX_POINT ( 'NONE', #118 ) ;
#107 = CARTESIAN_POINT ( 'NONE',  ( 28.86751345948129800, 0.0000000000000000000, -50.00000000000004300 ) ) ;
#108 = CARTESIAN_POINT ( 'NONE',  ( 0.0000000000000000000, 0.0000000000000000000, 0.0000000000000000000 ) ) ;
#109 = EDGE_CURVE ( 'NONE', #78, #106, #202, .T. ) ;
#110 = DIRECTION ( 'NONE',  ( 0.0000000000000000000, 0.0000000000000000000, -1.000000000000000000 ) ) ;
#111 =( LENGTH_UNIT ( ) NAMED_UNIT ( * ) SI_UNIT ( .MILLI., .METRE. ) );
#112 = APPLICATION_CONTEXT ( 'automotive_design' ) ;
#113 = PRESENTATION_LAYER_ASSIGNMENT (  '', '', ( #56 ) ) ;
#114 = ORIENTED_EDGE ( 'NONE', *, *, #109, .T. ) ;
#115 = AXIS2_PLACEMENT_3D ( 'NONE', #62, #157, #4 ) ;
#116 = EDGE_CURVE ( 'NONE', #188, #128, #150, .T. ) ;
#117 = ADVANCED_FACE ( 'NONE', ( #95 ), #84, .F. ) ;
#118 = CARTESIAN_POINT ( 'NONE',  ( 0.0000000000000000000, -81.64965000000000800, 0.0000000000000000000 ) ) ;
#119 = ORIENTED_EDGE ( 'NONE', *, *, #45, .T. ) ;
#120 = DIRECTION ( 'NONE',  ( -0.8660254037844382600, 0.0000000000000000000, 0.5000000000000004400 ) ) ;
#121 = VECTOR ( 'NONE', #66, 1000.000000000000000 ) ;
#122 = CARTESIAN_POINT ( 'NONE',  ( -57.73502691896251100, 0.0000000000000000000, -1.387778780781445700E-014 ) ) ;
#123 = MANIFOLD_SOLID_BREP ( 'Loft1', #53 ) ;
#124 = ORIENTED_EDGE ( 'NONE', *, *, #175, .F. ) ;
#125 = DIRECTION ( 'NONE',  ( 0.0000000000000000000, 0.0000000000000000000, 1.000000000000000000 ) ) ;
#126 = APPLICATION_PROTOCOL_DEFINITION ( 'draft international standard', 'automotive_design', 1998, #236 ) ;
#127 = STYLED_ITEM ( 'NONE', ( #47 ), #243 ) ;
#128 = VERTEX_POINT ( 'NONE', #173 ) ;
#129 = EDGE_CURVE ( 'NONE', #72, #106, #158, .T. ) ;
#130 = FACE_OUTER_BOUND ( 'NONE', #13, .T. ) ;
#131 = ORIENTED_EDGE ( 'NONE', *, *, #6, .T. ) ;
#132 = CARTESIAN_POINT ( 'NONE',  ( -57.73502691896248300, 0.0000000000000000000, -2.660505470577014900E-014 ) ) ;
#133 = ORIENTED_EDGE ( 'NONE', *, *, #23, .T. ) ;
#134 = ADVANCED_FACE ( 'NONE', ( #49 ), #90, .F. ) ;
#135 = CARTESIAN_POINT ( 'NONE',  ( 28.86751345948129800, 0.0000000000000000000, -50.00000000000004300 ) ) ;
#136 = DIRECTION ( 'NONE',  ( 0.0000000000000000000, 0.0000000000000000000, -1.000000000000000000 ) ) ;
#137 = DIRECTION ( 'NONE',  ( 0.8660254037844383700, 0.0000000000000000000, -0.5000000000000005600 ) ) ;
#138 = AXIS2_PLACEMENT_3D ( 'NONE', #101, #154, #5 ) ;
#139 = SURFACE_SIDE_STYLE ('',( #248 ) ) ;
#140 = PRODUCT_DEFINITION_FORMATION_WITH_SPECIFIED_SOURCE ( 'ANY', '', #50, .NOT_KNOWN. ) ;
#141 = CARTESIAN_POINT ( 'NONE',  ( -57.73502691896248300, 0.0000000000000000000, -2.660505470577014900E-014 ) ) ;
#142 = APPLICATION_CONTEXT ( 'automotive_design' ) ;
#143 = AXIS2_PLACEMENT_3D ( 'NONE', #64, #65, #27 ) ;
#144 = CARTESIAN_POINT ( 'NONE',  ( 28.86751345948129800, 0.0000000000000000000, -50.00000000000004300 ) ) ;
#145 = CARTESIAN_POINT ( 'NONE',  ( 28.86751345948129800, 0.0000000000000000000, 49.99999999999998600 ) ) ;
#146 = PRODUCT_CONTEXT ( 'NONE', #236, 'mechanical' ) ;
#147 = PRESENTATION_STYLE_ASSIGNMENT (( #170 ) ) ;
#148 = PRODUCT_CONTEXT ( 'NONE', #31, 'mechanical' ) ;
#149 = ORIENTED_EDGE ( 'NONE', *, *, #63, .T. ) ;
#150 = LINE ( 'NONE', #232, #230 ) ;
#151 = ORIENTED_EDGE ( 'NONE', *, *, #6, .F. ) ;
#152 = COLOUR_RGB ( '',0.7921568627450980000, 0.8196078431372548800, 0.9333333333333333500 ) ;
#153 = DIRECTION ( 'NONE',  ( 0.4714045155995155200, 0.3333333627009849600, -0.8164965719357550900 ) ) ;
#154 = DIRECTION ( 'NONE',  ( -0.9428090311990299200, -0.3333333627009854600, 3.204937669457044500E-017 ) ) ;
#155 = DIRECTION ( 'NONE',  ( -0.8660254037844382600, 0.0000000000000000000, 0.5000000000000004400 ) ) ;
#156 = MECHANICAL_DESIGN_GEOMETRIC_PRESENTATION_REPRESENTATION (  '', ( #56 ), #69 ) ;
#157 = DIRECTION ( 'NONE',  ( 0.4714045155995154100, -0.3333333627009854600, 0.8164965719357550900 ) ) ;
#158 = LINE ( 'NONE', #196, #190 ) ;
#159 =( NAMED_UNIT ( * ) SI_UNIT ( $, .STERADIAN. ) SOLID_ANGLE_UNIT ( ) );
#160 = DIRECTION ( 'NONE',  ( 1.000000000000000000, 0.0000000000000000000, 0.0000000000000000000 ) ) ;
#161 = DIRECTION ( 'NONE',  ( 0.0000000000000000000, 0.0000000000000000000, 1.000000000000000000 ) ) ;
#162 = EDGE_LOOP ( 'NONE', ( #28, #38, #133 ) ) ;
#163 = CARTESIAN_POINT ( 'NONE',  ( -57.73502691896248300, 0.0000000000000000000, -2.660505470577014900E-014 ) ) ;
#164 = ORIENTED_EDGE ( 'NONE', *, *, #175, .T. ) ;
#165 = LINE ( 'NONE', #60, #15 ) ;
#166 = PRODUCT_DEFINITION_SHAPE ( 'NONE', 'NONE',  #222 ) ;
#167 = EDGE_LOOP ( 'NONE', ( #119, #81, #149 ) ) ;
#168 = PRESENTATION_LAYER_ASSIGNMENT (  '', '', ( #59 ) ) ;
#169 = ORIENTED_EDGE ( 'NONE', *, *, #109, .F. ) ;
#170 = SURFACE_STYLE_USAGE ( .BOTH. , #139 ) ;
#171 = DIRECTION ( 'NONE',  ( 0.5773503073393229100, -0.8164965539518152000, 2.660505646375808300E-016 ) ) ;
#172 = AXIS2_PLACEMENT_3D ( 'NONE', #189, #153, #97 ) ;
#173 = CARTESIAN_POINT ( 'NONE',  ( 28.86751345948129800, 0.0000000000000000000, -50.00000000000004300 ) ) ;
#174 = LINE ( 'NONE', #132, #87 ) ;
#175 = EDGE_CURVE ( 'NONE', #235, #72, #55, .T. ) ;
#176 =( LENGTH_UNIT ( ) NAMED_UNIT ( * ) SI_UNIT ( .MILLI., .METRE. ) );
#177 = CARTESIAN_POINT ( 'NONE',  ( 0.0000000000000000000, 0.0000000000000000000, 0.0000000000000000000 ) ) ;
#178 = ORIENTED_EDGE ( 'NONE', *, *, #79, .T. ) ;
#179 = SURFACE_SIDE_STYLE ('',( #208 ) ) ;
#180 =( LENGTH_UNIT ( ) NAMED_UNIT ( * ) SI_UNIT ( .MILLI., .METRE. ) );
#181 = FILL_AREA_STYLE_COLOUR ( '', #205 ) ;
#182 = VERTEX_POINT ( 'NONE', #10 ) ;
#183 =( NAMED_UNIT ( * ) PLANE_ANGLE_UNIT ( ) SI_UNIT ( $, .RADIAN. ) );
#184 = LINE ( 'NONE', #135, #41 ) ;
#185 = VERTEX_POINT ( 'NONE', #163 ) ;
#186 = MECHANICAL_DESIGN_GEOMETRIC_PRESENTATION_REPRESENTATION (  '', ( #59 ), #245 ) ;
#187 = FACE_OUTER_BOUND ( 'NONE', #162, .T. ) ;
#188 = VERTEX_POINT ( 'NONE', #48 ) ;
#189 = CARTESIAN_POINT ( 'NONE',  ( -12.83000569940130100, -9.072184931905717100, 22.22222173276129500 ) ) ;
#190 = VECTOR ( 'NONE', #215, 1000.000000000000100 ) ;
#191 = CARTESIAN_POINT ( 'NONE',  ( -12.83000569940132400, -9.072184931905745500, -22.22222173276133000 ) ) ;
#192 = ADVANCED_FACE ( 'NONE', ( #54 ), #218, .F. ) ;
#193 = SHAPE_DEFINITION_REPRESENTATION ( #227, #195 ) ;
#194 = DIRECTION ( 'NONE',  ( -0.2886751536696618400, -0.8164965539518147500, -0.5000000330386072900 ) ) ;
#195 = ADVANCED_BREP_SHAPE_REPRESENTATION ( 'tetrahedron_double', ( #123, #243, #76 ), #198 ) ;
#196 = CARTESIAN_POINT ( 'NONE',  ( 28.86751345948129800, 0.0000000000000000000, -50.00000000000004300 ) ) ;
#197 = DIRECTION ( 'NONE',  ( -0.2886751536696617300, 0.8164965539518145300, 0.5000000330386077400 ) ) ;
#198 =( GEOMETRIC_REPRESENTATION_CONTEXT ( 3 ) GLOBAL_UNCERTAINTY_ASSIGNED_CONTEXT ( ( #14 ) ) GLOBAL_UNIT_ASSIGNED_CONTEXT ( ( #111, #183, #8 ) ) REPRESENTATION_CONTEXT ( 'NONE', 'WORKASPACE' ) );
#199 = ORIENTED_EDGE ( 'NONE', *, *, #129, .F. ) ;
#200 = DIRECTION ( 'NONE',  ( 0.0000000000000000000, 1.000000000000000000, -0.0000000000000000000 ) ) ;
#201 = CARTESIAN_POINT ( 'NONE',  ( 0.0000000000000000000, 0.0000000000000000000, 0.0000000000000000000 ) ) ;
#202 = LINE ( 'NONE', #141, #1 ) ;
#203 =( NAMED_UNIT ( * ) PLANE_ANGLE_UNIT ( ) SI_UNIT ( $, .RADIAN. ) );
#204 = UNCERTAINTY_MEASURE_WITH_UNIT (LENGTH_MEASURE( 1.000000000000000100E-005 ), #176, 'distance_accuracy_value', 'NONE');
#205 = COLOUR_RGB ( '',0.7921568627450980000, 0.8196078431372548800, 0.9333333333333333500 ) ;
#206 = ORIENTED_EDGE ( 'NONE', *, *, #45, .F. ) ;
#207 = AXIS2_PLACEMENT_3D ( 'NONE', #201, #221, #93 ) ;
#208 = SURFACE_STYLE_FILL_AREA ( #91 ) ;
#209 = VECTOR ( 'NONE', #110, 1000.000000000000000 ) ;
#210 = AXIS2_PLACEMENT_3D ( 'NONE', #46, #103, #211 ) ;
#211 = DIRECTION ( 'NONE',  ( -0.8660254037844383700, 0.0000000000000000000, -0.5000000000000006700 ) ) ;
#212 = ORIENTED_EDGE ( 'NONE', *, *, #116, .F. ) ;
#213 = FILL_AREA_STYLE ('',( #86 ) ) ;
#214 = ADVANCED_FACE ( 'NONE', ( #57 ), #12, .T. ) ;
#215 = DIRECTION ( 'NONE',  ( -0.2886751536696617300, -0.8164965539518145300, 0.5000000330386076300 ) ) ;
#216 = LINE ( 'NONE', #107, #80 ) ;
#217 = FILL_AREA_STYLE ('',( #181 ) ) ;
#218 = PLANE ( 'NONE',  #234 ) ;
#219 = EDGE_LOOP ( 'NONE', ( #24, #169, #100 ) ) ;
#220 = PRESENTATION_STYLE_ASSIGNMENT (( #67 ) ) ;
#221 = DIRECTION ( 'NONE',  ( 0.0000000000000000000, 0.0000000000000000000, 1.000000000000000000 ) ) ;
#222 = PRODUCT_DEFINITION ( 'UNKNOWN', '', #140, #33 ) ;
#223 = FACE_OUTER_BOUND ( 'NONE', #167, .T. ) ;
#224 = EDGE_LOOP ( 'NONE', ( #92, #206, #34 ) ) ;
#225 = AXIS2_PLACEMENT_3D ( 'NONE', #177, #237, #125 ) ;
#226 = LINE ( 'NONE', #2, #121 ) ;
#227 = PRODUCT_DEFINITION_SHAPE ( 'NONE', 'NONE',  #37 ) ;
#228 = EDGE_LOOP ( 'NONE', ( #30, #212, #229 ) ) ;
#229 = ORIENTED_EDGE ( 'NONE', *, *, #63, .F. ) ;
#230 = VECTOR ( 'NONE', #136, 1000.000000000000000 ) ;
#231 = DIRECTION ( 'NONE',  ( 0.4714045155995154100, 0.3333333627009854000, 0.8164965719357549800 ) ) ;
#232 = CARTESIAN_POINT ( 'NONE',  ( 28.86751345948129800, 0.0000000000000000000, 49.99999999999998600 ) ) ;
#233 = DIRECTION ( 'NONE',  ( 0.8660254037844382600, 0.0000000000000000000, 0.5000000000000004400 ) ) ;
#234 = AXIS2_PLACEMENT_3D ( 'NONE', #108, #200, #161 ) ;
#235 = VERTEX_POINT ( 'NONE', #42 ) ;
#236 = APPLICATION_CONTEXT ( 'automotive_design' ) ;
#237 = DIRECTION ( 'NONE',  ( 0.0000000000000000000, 1.000000000000000000, -0.0000000000000000000 ) ) ;
#238 = PRODUCT_DEFINITION_FORMATION_WITH_SPECIFIED_SOURCE ( 'ANY', '', #240, .NOT_KNOWN. ) ;
#239 = DIRECTION ( 'NONE',  ( 0.0000000000000000000, 0.0000000000000000000, 1.000000000000000000 ) ) ;
#240 = PRODUCT ( 'tetrahedron_double', 'tetrahedron_double', '', ( #148 ) ) ;
#241 =( LENGTH_UNIT ( ) NAMED_UNIT ( * ) SI_UNIT ( .MILLI., .METRE. ) );
#242 = AXIS2_PLACEMENT_3D ( 'NONE', #191, #231, #137 ) ;
#243 = MANIFOLD_SOLID_BREP ( 'Loft2', #83 ) ;
#244 = APPLICATION_PROTOCOL_DEFINITION ( 'draft international standard', 'automotive_design', 1998, #142 ) ;
#245 =( GEOMETRIC_REPRESENTATION_CONTEXT ( 3 ) GLOBAL_UNCERTAINTY_ASSIGNED_CONTEXT ( ( #204 ) ) GLOBAL_UNIT_ASSIGNED_CONTEXT ( ( #176, #105, #104 ) ) REPRESENTATION_CONTEXT ( 'NONE', 'WORKASPACE' ) );
#246 = EDGE_CURVE ( 'NONE', #128, #182, #61, .T. ) ;
#247 = PRODUCT_RELATED_PRODUCT_CATEGORY ( 'part', '', ( #50 ) ) ;
#248 = SURFACE_STYLE_FILL_AREA ( #213 ) ;
#249 = PRODUCT_DEFINITION_CONTEXT ( 'detailed design', #142, 'design' ) ;
#250 = PRODUCT_RELATED_PRODUCT_CATEGORY ( 'part', '', ( #240 ) ) ;
ENDSEC;
END-ISO-10303-21;
