ISO-10303-21;
HEADER;
FILE_DESCRIPTION (( 'STEP AP214' ),
    '1' );
FILE_NAME ('curve_L_2D_with_caps_merged.STEP',
    '2025-02-06T19:58:30',
    ( '' ),
    ( '' ),
    'SwSTEP 2.0',
    'SolidWorks 2015',
    '' );
FILE_SCHEMA (( 'AUTOMOTIVE_DESIGN' ));
ENDSEC;

DATA;
#1 = DIRECTION ( 'NONE',  ( 0.0000000000000000000, 0.0000000000000000000, -1.000000000000000000 ) ) ;
#2 = ORIENTED_EDGE ( 'NONE', *, *, #280, .T. ) ;
#3 = CARTESIAN_POINT ( 'NONE',  ( 1375.000000000000000, 375.0000000000000000, 0.0000000000000000000 ) ) ;
#4 = DIRECTION ( 'NONE',  ( 1.000000000000000000, 0.0000000000000000000, 0.0000000000000000000 ) ) ;
#5 = DIRECTION ( 'NONE',  ( 0.0000000000000000000, 0.0000000000000000000, 1.000000000000000000 ) ) ;
#6 = DIRECTION ( 'NONE',  ( 1.000000000000000000, 0.0000000000000000000, 0.0000000000000000000 ) ) ;
#7 = DIRECTION ( 'NONE',  ( 6.123233995736766000E-017, 1.000000000000000000, 0.0000000000000000000 ) ) ;
#8 = CARTESIAN_POINT ( 'NONE',  ( 1000.000000000000000, 375.0000000000000000, 0.0000000000000000000 ) ) ;
#9 = CARTESIAN_POINT ( 'NONE',  ( 0.0000000000000000000, 0.0000000000000000000, 0.0000000000000000000 ) ) ;
#10 = CARTESIAN_POINT ( 'NONE',  ( 1000.000000000000000, -125.0000000000000000, 0.0000000000000000000 ) ) ;
#11 = DIRECTION ( 'NONE',  ( 1.000000000000000000, 0.0000000000000000000, 0.0000000000000000000 ) ) ;
#12 = AXIS2_PLACEMENT_3D ( 'NONE', #247, #88, #232 ) ;
#13 = CIRCLE ( 'NONE', #131, 124.9999999999999900 ) ;
#14 = FACE_OUTER_BOUND ( 'NONE', #86, .T. ) ;
#15 = EDGE_CURVE ( 'NONE', #197, #209, #128, .T. ) ;
#16 = EDGE_LOOP ( 'NONE', ( #153, #47 ) ) ;
#17 = APPLICATION_PROTOCOL_DEFINITION ( 'draft international standard', 'automotive_design', 1998, #275 ) ;
#18 = AXIS2_PLACEMENT_3D ( 'NONE', #100, #115, #1 ) ;
#19 = CIRCLE ( 'NONE', #260, 250.0000000000000000 ) ;
#20 = PRODUCT_DEFINITION_FORMATION_WITH_SPECIFIED_SOURCE ( 'ANY', '', #159, .NOT_KNOWN. ) ;
#21 = CIRCLE ( 'NONE', #191, 124.9999999999999900 ) ;
#22 = ORIENTED_EDGE ( 'NONE', *, *, #36, .T. ) ;
#23 = DIRECTION ( 'NONE',  ( 0.0000000000000000000, 0.0000000000000000000, -1.000000000000000000 ) ) ;
#24 = DIRECTION ( 'NONE',  ( 0.0000000000000000000, 0.0000000000000000000, -1.000000000000000000 ) ) ;
#25 = FACE_OUTER_BOUND ( 'NONE', #102, .T. ) ;
#26 = DIRECTION ( 'NONE',  ( 1.000000000000000000, 0.0000000000000000000, 0.0000000000000000000 ) ) ;
#27 = EDGE_CURVE ( 'NONE', #136, #197, #13, .T. ) ;
#28 =( LENGTH_UNIT ( ) NAMED_UNIT ( * ) SI_UNIT ( .MILLI., .METRE. ) );
#29 = AXIS2_PLACEMENT_3D ( 'NONE', #77, #203, #224 ) ;
#30 = CIRCLE ( 'NONE', #168, 500.0000000000000000 ) ;
#31 = DIRECTION ( 'NONE',  ( 0.0000000000000000000, 0.0000000000000000000, -1.000000000000000000 ) ) ;
#32 = UNCERTAINTY_MEASURE_WITH_UNIT (LENGTH_MEASURE( 1.000000000000000100E-005 ), #28, 'distance_accuracy_value', 'NONE');
#33 = ORIENTED_EDGE ( 'NONE', *, *, #240, .T. ) ;
#34 = DIRECTION ( 'NONE',  ( 1.000000000000000000, 0.0000000000000000000, 0.0000000000000000000 ) ) ;
#35 = CARTESIAN_POINT ( 'NONE',  ( 1000.000000000000000, 0.0000000000000000000, -124.9999999999999900 ) ) ;
#36 = EDGE_CURVE ( 'NONE', #96, #250, #187, .T. ) ;
#37 = PLANE ( 'NONE',  #124 ) ;
#38 = DIRECTION ( 'NONE',  ( 0.0000000000000000000, 0.0000000000000000000, 1.000000000000000000 ) ) ;
#39 = EDGE_LOOP ( 'NONE', ( #160, #237, #192, #170, #244 ) ) ;
#40 = LINE ( 'NONE', #179, #73 ) ;
#41 = COLOUR_RGB ( '',0.7921568627450980000, 0.8196078431372548800, 0.9333333333333333500 ) ;
#42 = ORIENTED_EDGE ( 'NONE', *, *, #204, .T. ) ;
#43 = PRODUCT_RELATED_PRODUCT_CATEGORY ( 'part', '', ( #255 ) ) ;
#44 = ADVANCED_FACE ( 'NONE', ( #234 ), #200, .T. ) ;
#45 = EDGE_CURVE ( 'NONE', #189, #229, #40, .T. ) ;
#46 = AXIS2_PLACEMENT_3D ( 'NONE', #80, #138, #31 ) ;
#47 = ORIENTED_EDGE ( 'NONE', *, *, #36, .F. ) ;
#48 = OPEN_SHELL ( 'NONE', ( #118, #282, #267, #71, #270, #44, #245, #150 ) ) ;
#49 = PRODUCT_DEFINITION_SHAPE ( 'NONE', 'NONE',  #180 ) ;
#50 = LINE ( 'NONE', #144, #251 ) ;
#51 = DIRECTION ( 'NONE',  ( 0.0000000000000000000, 1.000000000000000000, 0.0000000000000000000 ) ) ;
#52 = EDGE_CURVE ( 'NONE', #209, #258, #172, .T. ) ;
#53 = ORIENTED_EDGE ( 'NONE', *, *, #79, .T. ) ;
#54 = AXIS2_PLACEMENT_3D ( 'NONE', #222, #5, #167 ) ;
#55 = SURFACE_SIDE_STYLE ('',( #101 ) ) ;
#56 = DIRECTION ( 'NONE',  ( 6.123233995736766000E-017, 1.000000000000000000, 0.0000000000000000000 ) ) ;
#57 = PRODUCT_DEFINITION ( 'UNKNOWN', '', #273, #274 ) ;
#58 = CARTESIAN_POINT ( 'NONE',  ( 1000.000000000000000, 0.0000000000000000000, 0.0000000000000000000 ) ) ;
#59 = EDGE_CURVE ( 'NONE', #96, #209, #190, .T. ) ;
#60 = DIRECTION ( 'NONE',  ( 0.0000000000000000000, 0.0000000000000000000, -1.000000000000000000 ) ) ;
#61 = FACE_OUTER_BOUND ( 'NONE', #16, .T. ) ;
#62 = ORIENTED_EDGE ( 'NONE', *, *, #152, .F. ) ;
#63 = CIRCLE ( 'NONE', #12, 124.9999999999999900 ) ;
#64 = EDGE_CURVE ( 'NONE', #110, #176, #50, .T. ) ;
#65 = DIRECTION ( 'NONE',  ( 0.0000000000000000000, 0.0000000000000000000, 1.000000000000000000 ) ) ;
#66 = CIRCLE ( 'NONE', #227, 124.9999999999999900 ) ;
#67 = CARTESIAN_POINT ( 'NONE',  ( 1375.000000000000000, 1175.000000000000000, 124.9999999999999900 ) ) ;
#68 = CARTESIAN_POINT ( 'NONE',  ( 0.0000000000000000000, 0.0000000000000000000, 0.0000000000000000000 ) ) ;
#69 = VECTOR ( 'NONE', #231, 1000.000000000000000 ) ;
#70 = EDGE_CURVE ( 'NONE', #110, #276, #278, .T. ) ;
#71 = ADVANCED_FACE ( 'NONE', ( #61 ), #37, .F. ) ;
#72 = ORIENTED_EDGE ( 'NONE', *, *, #52, .F. ) ;
#73 = VECTOR ( 'NONE', #220, 1000.000000000000000 ) ;
#74 = CARTESIAN_POINT ( 'NONE',  ( 0.0000000000000000000, 0.0000000000000000000, 0.0000000000000000000 ) ) ;
#75 =( NAMED_UNIT ( * ) PLANE_ANGLE_UNIT ( ) SI_UNIT ( $, .RADIAN. ) );
#76 =( NAMED_UNIT ( * ) SI_UNIT ( $, .STERADIAN. ) SOLID_ANGLE_UNIT ( ) );
#77 = CARTESIAN_POINT ( 'NONE',  ( 1375.000000000000000, 375.0000000000000000, 0.0000000000000000000 ) ) ;
#78 = DIRECTION ( 'NONE',  ( 0.0000000000000000000, 0.0000000000000000000, 1.000000000000000000 ) ) ;
#79 = EDGE_CURVE ( 'NONE', #250, #96, #269, .T. ) ;
#80 = CARTESIAN_POINT ( 'NONE',  ( 0.0000000000000000000, 0.0000000000000000000, 0.0000000000000000000 ) ) ;
#81 = DIRECTION ( 'NONE',  ( 1.000000000000000000, 0.0000000000000000000, 0.0000000000000000000 ) ) ;
#82 = DIRECTION ( 'NONE',  ( 1.000000000000000000, 0.0000000000000000000, 0.0000000000000000000 ) ) ;
#83 = ORIENTED_EDGE ( 'NONE', *, *, #59, .F. ) ;
#84 = AXIS2_PLACEMENT_3D ( 'NONE', #9, #38, #81 ) ;
#85 = EDGE_LOOP ( 'NONE', ( #83, #22, #33, #199, #72 ) ) ;
#86 = EDGE_LOOP ( 'NONE', ( #256, #193, #137, #248, #257, #119 ) ) ;
#87 = CYLINDRICAL_SURFACE ( 'NONE', #185, 124.9999999999999900 ) ;
#88 = DIRECTION ( 'NONE',  ( 1.000000000000000000, 0.0000000000000000000, 0.0000000000000000000 ) ) ;
#89 = EDGE_CURVE ( 'NONE', #197, #276, #19, .T. ) ;
#90 = CIRCLE ( 'NONE', #132, 124.9999999999999900 ) ;
#91 = ORIENTED_EDGE ( 'NONE', *, *, #107, .F. ) ;
#92 = VECTOR ( 'NONE', #4, 1000.000000000000000 ) ;
#93 = DIRECTION ( 'NONE',  ( 1.000000000000000000, 0.0000000000000000000, 0.0000000000000000000 ) ) ;
#94 = FACE_OUTER_BOUND ( 'NONE', #149, .T. ) ;
#95 = DIRECTION ( 'NONE',  ( 0.0000000000000000000, 0.0000000000000000000, -1.000000000000000000 ) ) ;
#96 = VERTEX_POINT ( 'NONE', #223 ) ;
#97 = CARTESIAN_POINT ( 'NONE',  ( 1000.000000000000000, 124.9999999999999900, -1.530808498934190900E-014 ) ) ;
#98 = DIRECTION ( 'NONE',  ( 0.0000000000000000000, 0.0000000000000000000, -1.000000000000000000 ) ) ;
#99 = CARTESIAN_POINT ( 'NONE',  ( 1375.000000000000000, 375.0000000000000000, 0.0000000000000000000 ) ) ;
#100 = CARTESIAN_POINT ( 'NONE',  ( 0.0000000000000000000, 0.0000000000000000000, 0.0000000000000000000 ) ) ;
#101 = SURFACE_STYLE_FILL_AREA ( #134 ) ;
#102 = EDGE_LOOP ( 'NONE', ( #156, #261 ) ) ;
#103 = DIRECTION ( 'NONE',  ( 0.0000000000000000000, 0.0000000000000000000, -1.000000000000000000 ) ) ;
#104 = CARTESIAN_POINT ( 'NONE',  ( 1250.000000000000000, 375.0000000000000000, -1.530808498934190900E-014 ) ) ;
#105 = DIRECTION ( 'NONE',  ( 6.123233995736766000E-017, 1.000000000000000000, 0.0000000000000000000 ) ) ;
#106 = ORIENTED_EDGE ( 'NONE', *, *, #52, .T. ) ;
#107 = EDGE_CURVE ( 'NONE', #229, #176, #214, .T. ) ;
#108 = AXIS2_PLACEMENT_3D ( 'NONE', #279, #26, #24 ) ;
#109 = MECHANICAL_DESIGN_GEOMETRIC_PRESENTATION_REPRESENTATION (  '', ( #233 ), #281 ) ;
#110 = VERTEX_POINT ( 'NONE', #140 ) ;
#111 = UNCERTAINTY_MEASURE_WITH_UNIT (LENGTH_MEASURE( 1.000000000000000100E-005 ), #116, 'distance_accuracy_value', 'NONE');
#112 = ORIENTED_EDGE ( 'NONE', *, *, #45, .F. ) ;
#113 = DIRECTION ( 'NONE',  ( 1.000000000000000000, 0.0000000000000000000, 0.0000000000000000000 ) ) ;
#114 = FACE_OUTER_BOUND ( 'NONE', #85, .T. ) ;
#115 = DIRECTION ( 'NONE',  ( 1.000000000000000000, 0.0000000000000000000, 0.0000000000000000000 ) ) ;
#116 =( LENGTH_UNIT ( ) NAMED_UNIT ( * ) SI_UNIT ( .MILLI., .METRE. ) );
#117 = CARTESIAN_POINT ( 'NONE',  ( 1500.000000000000000, 375.0000000000000000, 0.0000000000000000000 ) ) ;
#118 = ADVANCED_FACE ( 'NONE', ( #230 ), #177, .T. ) ;
#119 = ORIENTED_EDGE ( 'NONE', *, *, #121, .F. ) ;
#120 = DIRECTION ( 'NONE',  ( 6.123233995736766000E-017, 1.000000000000000000, 0.0000000000000000000 ) ) ;
#121 = EDGE_CURVE ( 'NONE', #143, #110, #66, .T. ) ;
#122 = EDGE_LOOP ( 'NONE', ( #53, #148, #219, #210, #169 ) ) ;
#123 = CARTESIAN_POINT ( 'NONE',  ( 1375.000000000000000, 375.0000000000000000, 124.9999999999999900 ) ) ;
#124 = AXIS2_PLACEMENT_3D ( 'NONE', #238, #268, #135 ) ;
#125 = DIRECTION ( 'NONE',  ( 0.0000000000000000000, 0.0000000000000000000, -1.000000000000000000 ) ) ;
#126 = APPLICATION_CONTEXT ( 'automotive_design' ) ;
#127 = DIRECTION ( 'NONE',  ( 0.0000000000000000000, 1.000000000000000000, 0.0000000000000000000 ) ) ;
#128 = CIRCLE ( 'NONE', #108, 124.9999999999999900 ) ;
#129 = CARTESIAN_POINT ( 'NONE',  ( 1375.000000000000000, 375.0000000000000000, 0.0000000000000000000 ) ) ;
#130 = EDGE_LOOP ( 'NONE', ( #106, #2, #246, #62, #236, #205 ) ) ;
#131 = AXIS2_PLACEMENT_3D ( 'NONE', #216, #93, #253 ) ;
#132 = AXIS2_PLACEMENT_3D ( 'NONE', #211, #105, #125 ) ;
#133 = DIRECTION ( 'NONE',  ( 0.0000000000000000000, 0.0000000000000000000, 1.000000000000000000 ) ) ;
#134 = FILL_AREA_STYLE ('',( #265 ) ) ;
#135 = DIRECTION ( 'NONE',  ( 0.0000000000000000000, 0.0000000000000000000, -1.000000000000000000 ) ) ;
#136 = VERTEX_POINT ( 'NONE', #35 ) ;
#137 = ORIENTED_EDGE ( 'NONE', *, *, #27, .T. ) ;
#138 = DIRECTION ( 'NONE',  ( 1.000000000000000000, 0.0000000000000000000, 0.0000000000000000000 ) ) ;
#139 = SURFACE_STYLE_USAGE ( .BOTH. , #55 ) ;
#140 = CARTESIAN_POINT ( 'NONE',  ( 1375.000000000000000, 375.0000000000000000, -124.9999999999999900 ) ) ;
#141 = CYLINDRICAL_SURFACE ( 'NONE', #207, 124.9999999999999900 ) ;
#142 = DIRECTION ( 'NONE',  ( -1.000000000000000000, 6.123233995736766000E-017, 0.0000000000000000000 ) ) ;
#143 = VERTEX_POINT ( 'NONE', #117 ) ;
#144 = CARTESIAN_POINT ( 'NONE',  ( 1375.000000000000000, 375.0000000000000000, -124.9999999999999900 ) ) ;
#145 = APPLICATION_CONTEXT ( 'automotive_design' ) ;
#146 = CARTESIAN_POINT ( 'NONE',  ( 0.0000000000000000000, 0.0000000000000000000, -124.9999999999999900 ) ) ;
#147 = CYLINDRICAL_SURFACE ( 'NONE', #18, 124.9999999999999900 ) ;
#148 = ORIENTED_EDGE ( 'NONE', *, *, #59, .T. ) ;
#149 = EDGE_LOOP ( 'NONE', ( #42, #241, #171, #91, #112 ) ) ;
#150 = ADVANCED_FACE ( 'NONE', ( #114 ), #141, .T. ) ;
#151 = DIRECTION ( 'NONE',  ( 0.0000000000000000000, 0.0000000000000000000, 1.000000000000000000 ) ) ;
#152 = EDGE_CURVE ( 'NONE', #276, #189, #208, .T. ) ;
#153 = ORIENTED_EDGE ( 'NONE', *, *, #79, .F. ) ;
#154 = PRESENTATION_LAYER_ASSIGNMENT (  '', '', ( #233 ) ) ;
#155 = LINE ( 'NONE', #146, #69 ) ;
#156 = ORIENTED_EDGE ( 'NONE', *, *, #107, .T. ) ;
#157 = PRODUCT_DEFINITION_SHAPE ( 'NONE', 'NONE',  #57 ) ;
#158 = DIRECTION ( 'NONE',  ( 0.0000000000000000000, 1.000000000000000000, 0.0000000000000000000 ) ) ;
#159 = PRODUCT ( 'curve_L_2D_with_caps_merged', 'curve_L_2D_with_caps_merged', '', ( #178 ) ) ;
#160 = ORIENTED_EDGE ( 'NONE', *, *, #64, .F. ) ;
#161 =( NAMED_UNIT ( * ) PLANE_ANGLE_UNIT ( ) SI_UNIT ( $, .RADIAN. ) );
#162 = DIRECTION ( 'NONE',  ( 0.0000000000000000000, 0.0000000000000000000, -1.000000000000000000 ) ) ;
#163 = EDGE_CURVE ( 'NONE', #176, #229, #90, .T. ) ;
#164 = DIRECTION ( 'NONE',  ( 1.000000000000000000, 0.0000000000000000000, 0.0000000000000000000 ) ) ;
#165 = AXIS2_PLACEMENT_3D ( 'NONE', #68, #113, #23 ) ;
#166 = PRODUCT_CONTEXT ( 'NONE', #145, 'mechanical' ) ;
#167 = DIRECTION ( 'NONE',  ( 1.000000000000000000, 0.0000000000000000000, 0.0000000000000000000 ) ) ;
#168 = AXIS2_PLACEMENT_3D ( 'NONE', #239, #78, #34 ) ;
#169 = ORIENTED_EDGE ( 'NONE', *, *, #240, .F. ) ;
#170 = ORIENTED_EDGE ( 'NONE', *, *, #45, .T. ) ;
#171 = ORIENTED_EDGE ( 'NONE', *, *, #64, .T. ) ;
#172 = CIRCLE ( 'NONE', #195, 124.9999999999999900 ) ;
#173 = APPLICATION_PROTOCOL_DEFINITION ( 'draft international standard', 'automotive_design', 1998, #126 ) ;
#174 = AXIS2_PLACEMENT_3D ( 'NONE', #8, #225, #164 ) ;
#175 = MANIFOLD_SURFACE_SHAPE_REPRESENTATION ( 'curve_L_2D_with_caps_merged', ( #235, #84 ), #181 ) ;
#176 = VERTEX_POINT ( 'NONE', #183 ) ;
#177 = TOROIDAL_SURFACE ( 'NONE', #174, 375.0000000000000000, 124.9999999999999900 ) ;
#178 = PRODUCT_CONTEXT ( 'NONE', #126, 'mechanical' ) ;
#179 = CARTESIAN_POINT ( 'NONE',  ( 1375.000000000000000, 375.0000000000000000, 124.9999999999999900 ) ) ;
#180 = PRODUCT_DEFINITION ( 'UNKNOWN', '', #20, #215 ) ;
#181 =( GEOMETRIC_REPRESENTATION_CONTEXT ( 3 ) GLOBAL_UNCERTAINTY_ASSIGNED_CONTEXT ( ( #111 ) ) GLOBAL_UNIT_ASSIGNED_CONTEXT ( ( #116, #75, #76 ) ) REPRESENTATION_CONTEXT ( 'NONE', 'WORKASPACE' ) );
#182 =( NAMED_UNIT ( * ) SI_UNIT ( $, .STERADIAN. ) SOLID_ANGLE_UNIT ( ) );
#183 = CARTESIAN_POINT ( 'NONE',  ( 1375.000000000000000, 1175.000000000000000, -124.9999999999999900 ) ) ;
#184 = APPLICATION_PROTOCOL_DEFINITION ( 'draft international standard', 'automotive_design', 1998, #145 ) ;
#185 = AXIS2_PLACEMENT_3D ( 'NONE', #228, #127, #151 ) ;
#186 = CARTESIAN_POINT ( 'NONE',  ( 1375.000000000000000, 375.0000000000000000, 0.0000000000000000000 ) ) ;
#187 = CIRCLE ( 'NONE', #165, 124.9999999999999900 ) ;
#188 = PRESENTATION_STYLE_ASSIGNMENT (( #139 ) ) ;
#189 = VERTEX_POINT ( 'NONE', #123 ) ;
#190 = LINE ( 'NONE', #263, #92 ) ;
#191 = AXIS2_PLACEMENT_3D ( 'NONE', #186, #213, #60 ) ;
#192 = ORIENTED_EDGE ( 'NONE', *, *, #152, .T. ) ;
#193 = ORIENTED_EDGE ( 'NONE', *, *, #259, .T. ) ;
#194 = FACE_OUTER_BOUND ( 'NONE', #122, .T. ) ;
#195 = AXIS2_PLACEMENT_3D ( 'NONE', #58, #82, #98 ) ;
#196 = DIRECTION ( 'NONE',  ( 0.0000000000000000000, 0.0000000000000000000, -1.000000000000000000 ) ) ;
#197 = VERTEX_POINT ( 'NONE', #97 ) ;
#198 = DIRECTION ( 'NONE',  ( 6.123233995736766000E-017, 1.000000000000000000, 0.0000000000000000000 ) ) ;
#199 = ORIENTED_EDGE ( 'NONE', *, *, #259, .F. ) ;
#200 = CYLINDRICAL_SURFACE ( 'NONE', #242, 124.9999999999999900 ) ;
#201 = APPLICATION_PROTOCOL_DEFINITION ( 'draft international standard', 'automotive_design', 1998, #217 ) ;
#202 = CARTESIAN_POINT ( 'NONE',  ( 1375.000000000000000, 1175.000000000000000, 0.0000000000000000000 ) ) ;
#203 = DIRECTION ( 'NONE',  ( 6.123233995736766000E-017, 1.000000000000000000, 0.0000000000000000000 ) ) ;
#204 = EDGE_CURVE ( 'NONE', #189, #143, #21, .T. ) ;
#205 = ORIENTED_EDGE ( 'NONE', *, *, #15, .T. ) ;
#206 = CARTESIAN_POINT ( 'NONE',  ( 0.0000000000000000000, 0.0000000000000000000, -124.9999999999999900 ) ) ;
#207 = AXIS2_PLACEMENT_3D ( 'NONE', #74, #221, #95 ) ;
#208 = CIRCLE ( 'NONE', #277, 124.9999999999999900 ) ;
#209 = VERTEX_POINT ( 'NONE', #264 ) ;
#210 = ORIENTED_EDGE ( 'NONE', *, *, #27, .F. ) ;
#211 = CARTESIAN_POINT ( 'NONE',  ( 1375.000000000000000, 1175.000000000000000, 0.0000000000000000000 ) ) ;
#212 = AXIS2_PLACEMENT_3D ( 'NONE', #202, #56, #103 ) ;
#213 = DIRECTION ( 'NONE',  ( 6.123233995736766000E-017, 1.000000000000000000, 0.0000000000000000000 ) ) ;
#214 = CIRCLE ( 'NONE', #212, 124.9999999999999900 ) ;
#215 = PRODUCT_DEFINITION_CONTEXT ( 'detailed design', #217, 'design' ) ;
#216 = CARTESIAN_POINT ( 'NONE',  ( 1000.000000000000000, 0.0000000000000000000, 0.0000000000000000000 ) ) ;
#217 = APPLICATION_CONTEXT ( 'automotive_design' ) ;
#218 = AXIS2_PLACEMENT_3D ( 'NONE', #271, #120, #142 ) ;
#219 = ORIENTED_EDGE ( 'NONE', *, *, #15, .F. ) ;
#220 = DIRECTION ( 'NONE',  ( 0.0000000000000000000, 1.000000000000000000, 0.0000000000000000000 ) ) ;
#221 = DIRECTION ( 'NONE',  ( 1.000000000000000000, 0.0000000000000000000, 0.0000000000000000000 ) ) ;
#222 = CARTESIAN_POINT ( 'NONE',  ( 0.0000000000000000000, 0.0000000000000000000, 0.0000000000000000000 ) ) ;
#223 = CARTESIAN_POINT ( 'NONE',  ( 0.0000000000000000000, 1.530808498934191200E-014, 124.9999999999999900 ) ) ;
#224 = DIRECTION ( 'NONE',  ( 0.0000000000000000000, 0.0000000000000000000, -1.000000000000000000 ) ) ;
#225 = DIRECTION ( 'NONE',  ( 0.0000000000000000000, 0.0000000000000000000, 1.000000000000000000 ) ) ;
#226 = PLANE ( 'NONE',  #218 ) ;
#227 = AXIS2_PLACEMENT_3D ( 'NONE', #3, #198, #196 ) ;
#228 = CARTESIAN_POINT ( 'NONE',  ( 1375.000000000000000, 375.0000000000000000, 0.0000000000000000000 ) ) ;
#229 = VERTEX_POINT ( 'NONE', #67 ) ;
#230 = FACE_OUTER_BOUND ( 'NONE', #130, .T. ) ;
#231 = DIRECTION ( 'NONE',  ( 1.000000000000000000, 0.0000000000000000000, 0.0000000000000000000 ) ) ;
#232 = DIRECTION ( 'NONE',  ( 0.0000000000000000000, 0.0000000000000000000, -1.000000000000000000 ) ) ;
#233 = STYLED_ITEM ( 'NONE', ( #188 ), #175 ) ;
#234 = FACE_OUTER_BOUND ( 'NONE', #39, .T. ) ;
#235 = SHELL_BASED_SURFACE_MODEL ( 'NONE', ( #48 ) );
#236 = ORIENTED_EDGE ( 'NONE', *, *, #89, .F. ) ;
#237 = ORIENTED_EDGE ( 'NONE', *, *, #70, .T. ) ;
#238 = CARTESIAN_POINT ( 'NONE',  ( 0.0000000000000000000, 0.0000000000000000000, 0.0000000000000000000 ) ) ;
#239 = CARTESIAN_POINT ( 'NONE',  ( 1000.000000000000000, 375.0000000000000000, 0.0000000000000000000 ) ) ;
#240 = EDGE_CURVE ( 'NONE', #250, #136, #155, .T. ) ;
#241 = ORIENTED_EDGE ( 'NONE', *, *, #121, .T. ) ;
#242 = AXIS2_PLACEMENT_3D ( 'NONE', #129, #51, #254 ) ;
#243 = SHAPE_DEFINITION_REPRESENTATION ( #157, #175 ) ;
#244 = ORIENTED_EDGE ( 'NONE', *, *, #163, .F. ) ;
#245 = ADVANCED_FACE ( 'NONE', ( #14 ), #266, .T. ) ;
#246 = ORIENTED_EDGE ( 'NONE', *, *, #204, .F. ) ;
#247 = CARTESIAN_POINT ( 'NONE',  ( 1000.000000000000000, 0.0000000000000000000, 0.0000000000000000000 ) ) ;
#248 = ORIENTED_EDGE ( 'NONE', *, *, #89, .T. ) ;
#249 = AXIS2_PLACEMENT_3D ( 'NONE', #272, #65, #11 ) ;
#250 = VERTEX_POINT ( 'NONE', #206 ) ;
#251 = VECTOR ( 'NONE', #158, 1000.000000000000000 ) ;
#252 = PRODUCT_RELATED_PRODUCT_CATEGORY ( 'part', '', ( #159 ) ) ;
#253 = DIRECTION ( 'NONE',  ( 0.0000000000000000000, 0.0000000000000000000, -1.000000000000000000 ) ) ;
#254 = DIRECTION ( 'NONE',  ( 0.0000000000000000000, 0.0000000000000000000, 1.000000000000000000 ) ) ;
#255 = PRODUCT ( 'curve_L_2D_with_caps_merged', 'curve_L_2D_with_caps_merged', '', ( #166 ) ) ;
#256 = ORIENTED_EDGE ( 'NONE', *, *, #280, .F. ) ;
#257 = ORIENTED_EDGE ( 'NONE', *, *, #70, .F. ) ;
#258 = VERTEX_POINT ( 'NONE', #10 ) ;
#259 = EDGE_CURVE ( 'NONE', #258, #136, #63, .T. ) ;
#260 = AXIS2_PLACEMENT_3D ( 'NONE', #262, #133, #6 ) ;
#261 = ORIENTED_EDGE ( 'NONE', *, *, #163, .T. ) ;
#262 = CARTESIAN_POINT ( 'NONE',  ( 1000.000000000000000, 375.0000000000000000, -1.530808498934191200E-014 ) ) ;
#263 = CARTESIAN_POINT ( 'NONE',  ( 0.0000000000000000000, 1.530808498934191200E-014, 124.9999999999999900 ) ) ;
#264 = CARTESIAN_POINT ( 'NONE',  ( 1000.000000000000000, 1.530808498934191200E-014, 124.9999999999999900 ) ) ;
#265 = FILL_AREA_STYLE_COLOUR ( '', #41 ) ;
#266 = TOROIDAL_SURFACE ( 'NONE', #249, 375.0000000000000000, 124.9999999999999900 ) ;
#267 = ADVANCED_FACE ( 'NONE', ( #94 ), #87, .T. ) ;
#268 = DIRECTION ( 'NONE',  ( 1.000000000000000000, 0.0000000000000000000, 0.0000000000000000000 ) ) ;
#269 = CIRCLE ( 'NONE', #46, 124.9999999999999900 ) ;
#270 = ADVANCED_FACE ( 'NONE', ( #25 ), #226, .T. ) ;
#271 = CARTESIAN_POINT ( 'NONE',  ( 1375.000000000000000, 1175.000000000000000, 0.0000000000000000000 ) ) ;
#272 = CARTESIAN_POINT ( 'NONE',  ( 1000.000000000000000, 375.0000000000000000, 0.0000000000000000000 ) ) ;
#273 = PRODUCT_DEFINITION_FORMATION_WITH_SPECIFIED_SOURCE ( 'ANY', '', #255, .NOT_KNOWN. ) ;
#274 = PRODUCT_DEFINITION_CONTEXT ( 'detailed design', #275, 'design' ) ;
#275 = APPLICATION_CONTEXT ( 'automotive_design' ) ;
#276 = VERTEX_POINT ( 'NONE', #104 ) ;
#277 = AXIS2_PLACEMENT_3D ( 'NONE', #99, #7, #162 ) ;
#278 = CIRCLE ( 'NONE', #29, 124.9999999999999900 ) ;
#279 = CARTESIAN_POINT ( 'NONE',  ( 1000.000000000000000, 0.0000000000000000000, 0.0000000000000000000 ) ) ;
#280 = EDGE_CURVE ( 'NONE', #258, #143, #30, .T. ) ;
#281 =( GEOMETRIC_REPRESENTATION_CONTEXT ( 3 ) GLOBAL_UNCERTAINTY_ASSIGNED_CONTEXT ( ( #32 ) ) GLOBAL_UNIT_ASSIGNED_CONTEXT ( ( #28, #161, #182 ) ) REPRESENTATION_CONTEXT ( 'NONE', 'WORKASPACE' ) );
#282 = ADVANCED_FACE ( 'NONE', ( #194 ), #147, .T. ) ;
ENDSEC;
END-ISO-10303-21;
