ISO-10303-21;
HEADER;
FILE_DESCRIPTION (( 'STEP AP214' ),
    '1' );
FILE_NAME ('Paralelepipedo.STEP',
    '2023-05-02T21:26:23',
    ( '' ),
    ( '' ),
    'SwSTEP 2.0',
    'SolidWorks 2017',
    '' );
FILE_SCHEMA (( 'AUTOMOTIVE_DESIGN' ));
ENDSEC;

DATA;
#1 = LINE ( 'NONE', #131, #182 ) ;
#2 = ADVANCED_FACE ( 'NONE', ( #111 ), #152, .F. ) ;
#3 = ORIENTED_EDGE ( 'NONE', *, *, #32, .T. ) ;
#4 = CARTESIAN_POINT ( 'NONE',  ( 499.9999999999998900, 500.0000000000001100, 200.0000000000000900 ) ) ;
#5 = CARTESIAN_POINT ( 'NONE',  ( -500.0000000000001100, -500.0000000000000000, 200.0000000000000900 ) ) ;
#6 = DIRECTION ( 'NONE',  ( 0.0000000000000000000, 0.0000000000000000000, 1.000000000000000000 ) ) ;
#7 = AXIS2_PLACEMENT_3D ( 'NONE', #60, #44, #55 ) ;
#8 = PRODUCT_DEFINITION ( 'UNKNOWN', '', #84, #95 ) ;
#9 = VECTOR ( 'NONE', #122, 1000.000000000000000 ) ;
#10 = MECHANICAL_DESIGN_GEOMETRIC_PRESENTATION_REPRESENTATION (  '', ( #157 ), #43 ) ;
#11 = APPLICATION_PROTOCOL_DEFINITION ( 'draft international standard', 'automotive_design', 1998, #40 ) ;
#12 = EDGE_CURVE ( 'NONE', #199, #52, #148, .T. ) ;
#13 =( NAMED_UNIT ( * ) PLANE_ANGLE_UNIT ( ) SI_UNIT ( $, .RADIAN. ) );
#14 = CARTESIAN_POINT ( 'NONE',  ( -500.0000000000001100, 500.0000000000000000, 200.0000000000000900 ) ) ;
#15 = FACE_OUTER_BOUND ( 'NONE', #158, .T. ) ;
#16 = ORIENTED_EDGE ( 'NONE', *, *, #161, .F. ) ;
#17 = AXIS2_PLACEMENT_3D ( 'NONE', #56, #70, #117 ) ;
#18 = PRODUCT_DEFINITION_SHAPE ( 'NONE', 'NONE',  #8 ) ;
#19 = VECTOR ( 'NONE', #165, 1000.000000000000000 ) ;
#20 = EDGE_CURVE ( 'NONE', #48, #143, #163, .T. ) ;
#21 = VECTOR ( 'NONE', #164, 1000.000000000000000 ) ;
#22 = ORIENTED_EDGE ( 'NONE', *, *, #62, .T. ) ;
#23 = PLANE ( 'NONE',  #49 ) ;
#24 = CARTESIAN_POINT ( 'NONE',  ( 499.9999999999998900, 500.0000000000001100, -200.0000000000000900 ) ) ;
#25 = SURFACE_SIDE_STYLE ('',( #125 ) ) ;
#26 = CARTESIAN_POINT ( 'NONE',  ( 499.9999999999998900, -499.9999999999998900, 200.0000000000000900 ) ) ;
#27 = DIRECTION ( 'NONE',  ( 1.000000000000000000, 0.0000000000000000000, 0.0000000000000000000 ) ) ;
#28 = ORIENTED_EDGE ( 'NONE', *, *, #32, .F. ) ;
#29 = DIRECTION ( 'NONE',  ( 1.000000000000000000, 1.110223024625156500E-016, 0.0000000000000000000 ) ) ;
#30 = CARTESIAN_POINT ( 'NONE',  ( -500.0000000000001100, 500.0000000000000000, -200.0000000000000900 ) ) ;
#31 = ORIENTED_EDGE ( 'NONE', *, *, #20, .F. ) ;
#32 = EDGE_CURVE ( 'NONE', #153, #36, #180, .T. ) ;
#33 = SURFACE_STYLE_USAGE ( .BOTH. , #172 ) ;
#34 = VECTOR ( 'NONE', #132, 1000.000000000000000 ) ;
#35 = ORIENTED_EDGE ( 'NONE', *, *, #50, .T. ) ;
#36 = VERTEX_POINT ( 'NONE', #196 ) ;
#37 = SURFACE_STYLE_FILL_AREA ( #185 ) ;
#38 = ADVANCED_FACE ( 'NONE', ( #175 ), #169, .F. ) ;
#39 = EDGE_CURVE ( 'NONE', #36, #108, #159, .T. ) ;
#40 = APPLICATION_CONTEXT ( 'automotive_design' ) ;
#41 = FACE_OUTER_BOUND ( 'NONE', #102, .T. ) ;
#42 = DIRECTION ( 'NONE',  ( -1.000000000000000000, 0.0000000000000000000, 0.0000000000000000000 ) ) ;
#43 =( GEOMETRIC_REPRESENTATION_CONTEXT ( 3 ) GLOBAL_UNCERTAINTY_ASSIGNED_CONTEXT ( ( #124 ) ) GLOBAL_UNIT_ASSIGNED_CONTEXT ( ( #147, #129, #133 ) ) REPRESENTATION_CONTEXT ( 'NONE', 'WORKASPACE' ) );
#44 = DIRECTION ( 'NONE',  ( 0.0000000000000000000, -0.0000000000000000000, 1.000000000000000000 ) ) ;
#45 = EDGE_CURVE ( 'NONE', #199, #48, #112, .T. ) ;
#46 = ORIENTED_EDGE ( 'NONE', *, *, #12, .F. ) ;
#47 = DIRECTION ( 'NONE',  ( -0.0000000000000000000, -0.0000000000000000000, -1.000000000000000000 ) ) ;
#48 = VERTEX_POINT ( 'NONE', #120 ) ;
#49 = AXIS2_PLACEMENT_3D ( 'NONE', #57, #42, #6 ) ;
#50 = EDGE_CURVE ( 'NONE', #65, #199, #139, .T. ) ;
#51 = LINE ( 'NONE', #103, #58 ) ;
#52 = VERTEX_POINT ( 'NONE', #24 ) ;
#53 = AXIS2_PLACEMENT_3D ( 'NONE', #109, #136, #155 ) ;
#54 = AXIS2_PLACEMENT_3D ( 'NONE', #116, #72, #91 ) ;
#55 = DIRECTION ( 'NONE',  ( 1.000000000000000000, 0.0000000000000000000, -0.0000000000000000000 ) ) ;
#56 = CARTESIAN_POINT ( 'NONE',  ( 499.9999999999998900, -499.9999999999998900, 200.0000000000000900 ) ) ;
#57 = CARTESIAN_POINT ( 'NONE',  ( 499.9999999999998900, -499.9999999999998900, 200.0000000000000900 ) ) ;
#58 = VECTOR ( 'NONE', #166, 1000.000000000000000 ) ;
#59 = APPLICATION_CONTEXT ( 'automotive_design' ) ;
#60 = CARTESIAN_POINT ( 'NONE',  ( 0.0000000000000000000, 0.0000000000000000000, -200.0000000000000900 ) ) ;
#61 = FILL_AREA_STYLE_COLOUR ( '', #66 ) ;
#62 = EDGE_CURVE ( 'NONE', #108, #52, #51, .T. ) ;
#63 = ORIENTED_EDGE ( 'NONE', *, *, #76, .T. ) ;
#64 = EDGE_CURVE ( 'NONE', #143, #36, #80, .T. ) ;
#65 = VERTEX_POINT ( 'NONE', #201 ) ;
#66 = COLOUR_RGB ( '',0.7921568627450980000, 0.8196078431372548800, 0.9333333333333333500 ) ;
#67 = ADVANCED_FACE ( 'NONE', ( #41 ), #138, .T. ) ;
#68 = ORIENTED_EDGE ( 'NONE', *, *, #64, .T. ) ;
#69 = CARTESIAN_POINT ( 'NONE',  ( -500.0000000000001100, -500.0000000000000000, 200.0000000000000900 ) ) ;
#70 = DIRECTION ( 'NONE',  ( -1.110223024625156500E-016, 1.000000000000000000, 0.0000000000000000000 ) ) ;
#71 = EDGE_LOOP ( 'NONE', ( #28, #126, #118, #174 ) ) ;
#72 = DIRECTION ( 'NONE',  ( 0.0000000000000000000, 0.0000000000000000000, 1.000000000000000000 ) ) ;
#73 = CARTESIAN_POINT ( 'NONE',  ( 499.9999999999998900, 500.0000000000001100, 200.0000000000000900 ) ) ;
#74 = PRODUCT_CONTEXT ( 'NONE', #59, 'mechanical' ) ;
#75 = FILL_AREA_STYLE_COLOUR ( '', #173 ) ;
#76 = EDGE_CURVE ( 'NONE', #48, #153, #202, .T. ) ;
#77 = DIRECTION ( 'NONE',  ( -1.000000000000000000, -1.110223024625156500E-016, 0.0000000000000000000 ) ) ;
#78 = ORIENTED_EDGE ( 'NONE', *, *, #99, .T. ) ;
#79 = FACE_OUTER_BOUND ( 'NONE', #188, .T. ) ;
#80 = LINE ( 'NONE', #5, #134 ) ;
#81 = EDGE_LOOP ( 'NONE', ( #110, #98, #16, #68 ) ) ;
#82 = EDGE_LOOP ( 'NONE', ( #87, #113, #193, #140 ) ) ;
#83 = MANIFOLD_SOLID_BREP ( 'Ressalto-extrusão1', #94 ) ;
#84 = PRODUCT_DEFINITION_FORMATION_WITH_SPECIFIED_SOURCE ( 'ANY', '', #100, .NOT_KNOWN. ) ;
#85 = LINE ( 'NONE', #198, #142 ) ;
#86 = PRESENTATION_STYLE_ASSIGNMENT (( #89 ) ) ;
#87 = ORIENTED_EDGE ( 'NONE', *, *, #192, .T. ) ;
#88 = CARTESIAN_POINT ( 'NONE',  ( 499.9999999999998900, 500.0000000000001100, 200.0000000000000900 ) ) ;
#89 = SURFACE_STYLE_USAGE ( .BOTH. , #25 ) ;
#90 = DIRECTION ( 'NONE',  ( -0.0000000000000000000, -1.000000000000000000, -0.0000000000000000000 ) ) ;
#91 = DIRECTION ( 'NONE',  ( 1.000000000000000000, 0.0000000000000000000, 0.0000000000000000000 ) ) ;
#92 = VECTOR ( 'NONE', #77, 1000.000000000000000 ) ;
#93 = DIRECTION ( 'NONE',  ( 1.000000000000000000, 1.110223024625156500E-016, -0.0000000000000000000 ) ) ;
#94 = CLOSED_SHELL ( 'NONE', ( #179, #191, #101, #38, #67, #2 ) ) ;
#95 = PRODUCT_DEFINITION_CONTEXT ( 'detailed design', #40, 'design' ) ;
#96 = PRESENTATION_LAYER_ASSIGNMENT (  '', '', ( #157 ) ) ;
#97 = LINE ( 'NONE', #183, #19 ) ;
#98 = ORIENTED_EDGE ( 'NONE', *, *, #99, .F. ) ;
#99 = EDGE_CURVE ( 'NONE', #65, #108, #97, .T. ) ;
#100 = PRODUCT ( 'Paralelepipedo', 'Paralelepipedo', '', ( #74 ) ) ;
#101 = ADVANCED_FACE ( 'NONE', ( #79 ), #23, .F. ) ;
#102 = EDGE_LOOP ( 'NONE', ( #186, #144, #35, #156 ) ) ;
#103 = CARTESIAN_POINT ( 'NONE',  ( 499.9999999999998900, -499.9999999999998900, -200.0000000000000900 ) ) ;
#104 = PLANE ( 'NONE',  #162 ) ;
#105 = CARTESIAN_POINT ( 'NONE',  ( 499.9999999999998900, 500.0000000000001100, 200.0000000000000900 ) ) ;
#106 =( LENGTH_UNIT ( ) NAMED_UNIT ( * ) SI_UNIT ( .MILLI., .METRE. ) );
#107 = CARTESIAN_POINT ( 'NONE',  ( 499.9999999999998900, -499.9999999999998900, -200.0000000000000900 ) ) ;
#108 = VERTEX_POINT ( 'NONE', #107 ) ;
#109 = CARTESIAN_POINT ( 'NONE',  ( 0.0000000000000000000, 0.0000000000000000000, 200.0000000000000900 ) ) ;
#110 = ORIENTED_EDGE ( 'NONE', *, *, #39, .T. ) ;
#111 = FACE_OUTER_BOUND ( 'NONE', #71, .T. ) ;
#112 = LINE ( 'NONE', #88, #92 ) ;
#113 = ORIENTED_EDGE ( 'NONE', *, *, #76, .F. ) ;
#114 = ORIENTED_EDGE ( 'NONE', *, *, #64, .F. ) ;
#115 = ADVANCED_BREP_SHAPE_REPRESENTATION ( 'Paralelepipedo', ( #83, #54 ), #194 ) ;
#116 = CARTESIAN_POINT ( 'NONE',  ( 0.0000000000000000000, 0.0000000000000000000, 0.0000000000000000000 ) ) ;
#117 = DIRECTION ( 'NONE',  ( -1.000000000000000000, -1.110223024625156500E-016, 0.0000000000000000000 ) ) ;
#118 = ORIENTED_EDGE ( 'NONE', *, *, #62, .F. ) ;
#119 = CARTESIAN_POINT ( 'NONE',  ( -500.0000000000001100, -500.0000000000000000, 200.0000000000000900 ) ) ;
#120 = CARTESIAN_POINT ( 'NONE',  ( -500.0000000000001100, 500.0000000000000000, 200.0000000000000900 ) ) ;
#121 =( NAMED_UNIT ( * ) SI_UNIT ( $, .STERADIAN. ) SOLID_ANGLE_UNIT ( ) );
#122 = DIRECTION ( 'NONE',  ( -0.0000000000000000000, -0.0000000000000000000, -1.000000000000000000 ) ) ;
#123 = VECTOR ( 'NONE', #181, 1000.000000000000000 ) ;
#124 = UNCERTAINTY_MEASURE_WITH_UNIT (LENGTH_MEASURE( 1.000000000000000100E-005 ), #147, 'distance_accuracy_value', 'NONE');
#125 = SURFACE_STYLE_FILL_AREA ( #184 ) ;
#126 = ORIENTED_EDGE ( 'NONE', *, *, #192, .F. ) ;
#127 = MECHANICAL_DESIGN_GEOMETRIC_PRESENTATION_REPRESENTATION (  '', ( #187 ), #160 ) ;
#128 = PRESENTATION_STYLE_ASSIGNMENT (( #33 ) ) ;
#129 =( NAMED_UNIT ( * ) PLANE_ANGLE_UNIT ( ) SI_UNIT ( $, .RADIAN. ) );
#130 = CARTESIAN_POINT ( 'NONE',  ( 499.9999999999998900, -499.9999999999998900, -200.0000000000000900 ) ) ;
#131 = CARTESIAN_POINT ( 'NONE',  ( 499.9999999999998900, -499.9999999999998900, 200.0000000000000900 ) ) ;
#132 = DIRECTION ( 'NONE',  ( 0.0000000000000000000, 1.000000000000000000, 0.0000000000000000000 ) ) ;
#133 =( NAMED_UNIT ( * ) SI_UNIT ( $, .STERADIAN. ) SOLID_ANGLE_UNIT ( ) );
#134 = VECTOR ( 'NONE', #47, 1000.000000000000000 ) ;
#135 =( NAMED_UNIT ( * ) SI_UNIT ( $, .STERADIAN. ) SOLID_ANGLE_UNIT ( ) );
#136 = DIRECTION ( 'NONE',  ( 0.0000000000000000000, -0.0000000000000000000, 1.000000000000000000 ) ) ;
#137 = SHAPE_DEFINITION_REPRESENTATION ( #18, #115 ) ;
#138 = PLANE ( 'NONE',  #53 ) ;
#139 = LINE ( 'NONE', #26, #34 ) ;
#140 = ORIENTED_EDGE ( 'NONE', *, *, #12, .T. ) ;
#141 = PRESENTATION_LAYER_ASSIGNMENT (  '', '', ( #187 ) ) ;
#142 = VECTOR ( 'NONE', #151, 1000.000000000000000 ) ;
#143 = VERTEX_POINT ( 'NONE', #69 ) ;
#144 = ORIENTED_EDGE ( 'NONE', *, *, #161, .T. ) ;
#145 = PLANE ( 'NONE',  #17 ) ;
#146 = UNCERTAINTY_MEASURE_WITH_UNIT (LENGTH_MEASURE( 1.000000000000000100E-005 ), #200, 'distance_accuracy_value', 'NONE');
#147 =( LENGTH_UNIT ( ) NAMED_UNIT ( * ) SI_UNIT ( .MILLI., .METRE. ) );
#148 = LINE ( 'NONE', #73, #21 ) ;
#149 = PRODUCT_RELATED_PRODUCT_CATEGORY ( 'part', '', ( #100 ) ) ;
#150 = DIRECTION ( 'NONE',  ( 0.0000000000000000000, 0.0000000000000000000, -1.000000000000000000 ) ) ;
#151 = DIRECTION ( 'NONE',  ( -1.000000000000000000, -1.110223024625156500E-016, 0.0000000000000000000 ) ) ;
#152 = PLANE ( 'NONE',  #7 ) ;
#153 = VERTEX_POINT ( 'NONE', #30 ) ;
#154 = UNCERTAINTY_MEASURE_WITH_UNIT (LENGTH_MEASURE( 1.000000000000000100E-005 ), #106, 'distance_accuracy_value', 'NONE');
#155 = DIRECTION ( 'NONE',  ( 1.000000000000000000, 0.0000000000000000000, -0.0000000000000000000 ) ) ;
#156 = ORIENTED_EDGE ( 'NONE', *, *, #45, .T. ) ;
#157 = STYLED_ITEM ( 'NONE', ( #86 ), #115 ) ;
#158 = EDGE_LOOP ( 'NONE', ( #3, #114, #31, #63 ) ) ;
#159 = LINE ( 'NONE', #130, #176 ) ;
#160 =( GEOMETRIC_REPRESENTATION_CONTEXT ( 3 ) GLOBAL_UNCERTAINTY_ASSIGNED_CONTEXT ( ( #146 ) ) GLOBAL_UNIT_ASSIGNED_CONTEXT ( ( #200, #13, #121 ) ) REPRESENTATION_CONTEXT ( 'NONE', 'WORKASPACE' ) );
#161 = EDGE_CURVE ( 'NONE', #143, #65, #1, .T. ) ;
#162 = AXIS2_PLACEMENT_3D ( 'NONE', #119, #27, #150 ) ;
#163 = LINE ( 'NONE', #167, #123 ) ;
#164 = DIRECTION ( 'NONE',  ( -0.0000000000000000000, -0.0000000000000000000, -1.000000000000000000 ) ) ;
#165 = DIRECTION ( 'NONE',  ( -0.0000000000000000000, -0.0000000000000000000, -1.000000000000000000 ) ) ;
#166 = DIRECTION ( 'NONE',  ( 0.0000000000000000000, 1.000000000000000000, 0.0000000000000000000 ) ) ;
#167 = CARTESIAN_POINT ( 'NONE',  ( -500.0000000000001100, -500.0000000000000000, 200.0000000000000900 ) ) ;
#168 = DIRECTION ( 'NONE',  ( 1.000000000000000000, 1.110223024625156500E-016, -0.0000000000000000000 ) ) ;
#169 = PLANE ( 'NONE',  #177 ) ;
#170 =( NAMED_UNIT ( * ) PLANE_ANGLE_UNIT ( ) SI_UNIT ( $, .RADIAN. ) );
#171 = DIRECTION ( 'NONE',  ( 1.110223024625156500E-016, -1.000000000000000000, 0.0000000000000000000 ) ) ;
#172 = SURFACE_SIDE_STYLE ('',( #37 ) ) ;
#173 = COLOUR_RGB ( '',0.7921568627450980000, 0.8196078431372548800, 0.9333333333333333500 ) ;
#174 = ORIENTED_EDGE ( 'NONE', *, *, #39, .F. ) ;
#175 = FACE_OUTER_BOUND ( 'NONE', #82, .T. ) ;
#176 = VECTOR ( 'NONE', #93, 1000.000000000000000 ) ;
#177 = AXIS2_PLACEMENT_3D ( 'NONE', #4, #171, #29 ) ;
#178 = FACE_OUTER_BOUND ( 'NONE', #81, .T. ) ;
#179 = ADVANCED_FACE ( 'NONE', ( #15 ), #104, .F. ) ;
#180 = LINE ( 'NONE', #197, #189 ) ;
#181 = DIRECTION ( 'NONE',  ( -0.0000000000000000000, -1.000000000000000000, -0.0000000000000000000 ) ) ;
#182 = VECTOR ( 'NONE', #168, 1000.000000000000000 ) ;
#183 = CARTESIAN_POINT ( 'NONE',  ( 499.9999999999998900, -499.9999999999998900, 200.0000000000000900 ) ) ;
#184 = FILL_AREA_STYLE ('',( #75 ) ) ;
#185 = FILL_AREA_STYLE ('',( #61 ) ) ;
#186 = ORIENTED_EDGE ( 'NONE', *, *, #20, .T. ) ;
#187 = STYLED_ITEM ( 'NONE', ( #128 ), #83 ) ;
#188 = EDGE_LOOP ( 'NONE', ( #22, #46, #190, #78 ) ) ;
#189 = VECTOR ( 'NONE', #90, 1000.000000000000000 ) ;
#190 = ORIENTED_EDGE ( 'NONE', *, *, #50, .F. ) ;
#191 = ADVANCED_FACE ( 'NONE', ( #178 ), #145, .F. ) ;
#192 = EDGE_CURVE ( 'NONE', #52, #153, #85, .T. ) ;
#193 = ORIENTED_EDGE ( 'NONE', *, *, #45, .F. ) ;
#194 =( GEOMETRIC_REPRESENTATION_CONTEXT ( 3 ) GLOBAL_UNCERTAINTY_ASSIGNED_CONTEXT ( ( #154 ) ) GLOBAL_UNIT_ASSIGNED_CONTEXT ( ( #106, #170, #135 ) ) REPRESENTATION_CONTEXT ( 'NONE', 'WORKASPACE' ) );
#195 = APPLICATION_PROTOCOL_DEFINITION ( 'draft international standard', 'automotive_design', 1998, #59 ) ;
#196 = CARTESIAN_POINT ( 'NONE',  ( -500.0000000000001100, -500.0000000000000000, -200.0000000000000900 ) ) ;
#197 = CARTESIAN_POINT ( 'NONE',  ( -500.0000000000001100, -500.0000000000000000, -200.0000000000000900 ) ) ;
#198 = CARTESIAN_POINT ( 'NONE',  ( 499.9999999999998900, 500.0000000000001100, -200.0000000000000900 ) ) ;
#199 = VERTEX_POINT ( 'NONE', #105 ) ;
#200 =( LENGTH_UNIT ( ) NAMED_UNIT ( * ) SI_UNIT ( .MILLI., .METRE. ) );
#201 = CARTESIAN_POINT ( 'NONE',  ( 499.9999999999998900, -499.9999999999998900, 200.0000000000000900 ) ) ;
#202 = LINE ( 'NONE', #14, #9 ) ;
ENDSEC;
END-ISO-10303-21;
//+
Transfinite Volume{1};
//+
Transfinite Volume{1};
//+
Recombine Surface {5, 1, 4, 6, 2, 3};
//+
Transfinite Volume{1};
//+
Transfinite Volume{1} = {1, 4, 2, 3, 5, 6, 7, 8};
//+
Transfinite Curve {4, 1, 3, 2, 4, 3, 2, 1, 12, 9, 11, 7, 10, 5, 6, 8} = 10 Using Progression 1;
