ISO-10303-21;
HEADER;
FILE_DESCRIPTION (( 'STEP AP214' ),
    '1' );
FILE_NAME ('Tetraedro.STEP',
    '2023-05-03T15:44:45',
    ( '' ),
    ( '' ),
    'SwSTEP 2.0',
    'SolidWorks 2017',
    '' );
FILE_SCHEMA (( 'AUTOMOTIVE_DESIGN' ));
ENDSEC;

DATA;
#1 =( LENGTH_UNIT ( ) NAMED_UNIT ( * ) SI_UNIT ( .MILLI., .METRE. ) );
#2 = APPLICATION_PROTOCOL_DEFINITION ( 'draft international standard', 'automotive_design', 1998, #22 ) ;
#3 =( NAMED_UNIT ( * ) SI_UNIT ( $, .STERADIAN. ) SOLID_ANGLE_UNIT ( ) );
#4 = VECTOR ( 'NONE', #104, 1000.000000000000000 ) ;
#5 = EDGE_LOOP ( 'NONE', ( #20, #85, #37 ) ) ;
#6 = FILL_AREA_STYLE_COLOUR ( '', #103 ) ;
#7 =( NAMED_UNIT ( * ) PLANE_ANGLE_UNIT ( ) SI_UNIT ( $, .RADIAN. ) );
#8 = VECTOR ( 'NONE', #114, 1000.000000000000000 ) ;
#9 = UNCERTAINTY_MEASURE_WITH_UNIT (LENGTH_MEASURE( 1.000000000000000100E-005 ), #115, 'distance_accuracy_value', 'NONE');
#10 = PRODUCT ( 'Tetraedro', 'Tetraedro', '', ( #14 ) ) ;
#11 = CARTESIAN_POINT ( 'NONE',  ( 4.961698120790017100E-013, 0.0000000000000000000, 999.9999999999998900 ) ) ;
#12 = ORIENTED_EDGE ( 'NONE', *, *, #102, .T. ) ;
#13 = CARTESIAN_POINT ( 'NONE',  ( 333.3333333333334300, 333.3333333333334800, 333.3333333333334300 ) ) ;
#14 = PRODUCT_CONTEXT ( 'NONE', #48, 'mechanical' ) ;
#15 = MECHANICAL_DESIGN_GEOMETRIC_PRESENTATION_REPRESENTATION (  '', ( #89 ), #93 ) ;
#16 = LINE ( 'NONE', #33, #4 ) ;
#17 = VERTEX_POINT ( 'NONE', #11 ) ;
#18 = SURFACE_SIDE_STYLE ('',( #40 ) ) ;
#19 = EDGE_CURVE ( 'NONE', #118, #17, #27, .T. ) ;
#20 = ORIENTED_EDGE ( 'NONE', *, *, #102, .F. ) ;
#21 = CARTESIAN_POINT ( 'NONE',  ( 1.922962686383563800E-013, 0.0000000000000000000, 1000.000000000000200 ) ) ;
#22 = APPLICATION_CONTEXT ( 'automotive_design' ) ;
#23 = PRODUCT_DEFINITION_SHAPE ( 'NONE', 'NONE',  #31 ) ;
#24 = PRODUCT_DEFINITION_CONTEXT ( 'detailed design', #22, 'design' ) ;
#25 = CARTESIAN_POINT ( 'NONE',  ( 0.0000000000000000000, 0.0000000000000000000, 0.0000000000000000000 ) ) ;
#26 = VECTOR ( 'NONE', #44, 1000.000000000000100 ) ;
#27 = LINE ( 'NONE', #109, #119 ) ;
#28 = DIRECTION ( 'NONE',  ( 0.0000000000000000000, 0.0000000000000000000, -1.000000000000000000 ) ) ;
#29 = PRODUCT_RELATED_PRODUCT_CATEGORY ( 'part', '', ( #10 ) ) ;
#30 = ORIENTED_EDGE ( 'NONE', *, *, #134, .F. ) ;
#31 = PRODUCT_DEFINITION ( 'UNKNOWN', '', #95, #24 ) ;
#32 = ORIENTED_EDGE ( 'NONE', *, *, #19, .T. ) ;
#33 = CARTESIAN_POINT ( 'NONE',  ( 0.0000000000000000000, 0.0000000000000000000, 0.0000000000000000000 ) ) ;
#34 = AXIS2_PLACEMENT_3D ( 'NONE', #72, #123, #107 ) ;
#35 = CARTESIAN_POINT ( 'NONE',  ( 0.0000000000000000000, 0.0000000000000000000, 0.0000000000000000000 ) ) ;
#36 =( NAMED_UNIT ( * ) PLANE_ANGLE_UNIT ( ) SI_UNIT ( $, .RADIAN. ) );
#37 = ORIENTED_EDGE ( 'NONE', *, *, #41, .F. ) ;
#38 = EDGE_CURVE ( 'NONE', #118, #94, #132, .T. ) ;
#39 = MANIFOLD_SOLID_BREP ( 'Corte-extrusão2', #42 ) ;
#40 = SURFACE_STYLE_FILL_AREA ( #74 ) ;
#41 = EDGE_CURVE ( 'NONE', #135, #94, #55, .T. ) ;
#42 = CLOSED_SHELL ( 'NONE', ( #111, #51, #76, #67 ) ) ;
#43 = SURFACE_STYLE_USAGE ( .BOTH. , #99 ) ;
#44 = DIRECTION ( 'NONE',  ( 0.7071067811865474600, 0.0000000000000000000, -0.7071067811865474600 ) ) ;
#45 = DIRECTION ( 'NONE',  ( -1.000000000000000000, 0.0000000000000000000, -0.0000000000000000000 ) ) ;
#46 = VECTOR ( 'NONE', #96, 1000.000000000000000 ) ;
#47 =( NAMED_UNIT ( * ) SI_UNIT ( $, .STERADIAN. ) SOLID_ANGLE_UNIT ( ) );
#48 = APPLICATION_CONTEXT ( 'automotive_design' ) ;
#49 = DIRECTION ( 'NONE',  ( 1.000000000000000000, 0.0000000000000000000, 0.0000000000000000000 ) ) ;
#50 = COLOUR_RGB ( '',0.7921568627450980000, 0.8196078431372548800, 0.9333333333333333500 ) ;
#51 = ADVANCED_FACE ( 'NONE', ( #105 ), #57, .F. ) ;
#52 =( GEOMETRIC_REPRESENTATION_CONTEXT ( 3 ) GLOBAL_UNCERTAINTY_ASSIGNED_CONTEXT ( ( #79 ) ) GLOBAL_UNIT_ASSIGNED_CONTEXT ( ( #1, #36, #120 ) ) REPRESENTATION_CONTEXT ( 'NONE', 'WORKASPACE' ) );
#53 = LINE ( 'NONE', #128, #130 ) ;
#54 = ORIENTED_EDGE ( 'NONE', *, *, #19, .F. ) ;
#55 = LINE ( 'NONE', #106, #8 ) ;
#56 = EDGE_LOOP ( 'NONE', ( #54, #12, #30 ) ) ;
#57 = PLANE ( 'NONE',  #34 ) ;
#58 = AXIS2_PLACEMENT_3D ( 'NONE', #63, #83, #49 ) ;
#59 = DIRECTION ( 'NONE',  ( 0.5773502691896257300, 0.5773502691896258400, 0.5773502691896257300 ) ) ;
#60 = APPLICATION_PROTOCOL_DEFINITION ( 'draft international standard', 'automotive_design', 1998, #48 ) ;
#61 = DIRECTION ( 'NONE',  ( -0.0000000000000000000, -0.0000000000000000000, -1.000000000000000000 ) ) ;
#62 = ORIENTED_EDGE ( 'NONE', *, *, #38, .F. ) ;
#63 = CARTESIAN_POINT ( 'NONE',  ( 0.0000000000000000000, 0.0000000000000000000, 0.0000000000000000000 ) ) ;
#64 =( NAMED_UNIT ( * ) PLANE_ANGLE_UNIT ( ) SI_UNIT ( $, .RADIAN. ) );
#65 = UNCERTAINTY_MEASURE_WITH_UNIT (LENGTH_MEASURE( 1.000000000000000100E-005 ), #129, 'distance_accuracy_value', 'NONE');
#66 = EDGE_LOOP ( 'NONE', ( #32, #81, #62 ) ) ;
#67 = ADVANCED_FACE ( 'NONE', ( #73 ), #127, .T. ) ;
#68 = STYLED_ITEM ( 'NONE', ( #86 ), #39 ) ;
#69 = PLANE ( 'NONE',  #121 ) ;
#70 = FILL_AREA_STYLE ('',( #80 ) ) ;
#71 = EDGE_CURVE ( 'NONE', #17, #94, #112, .T. ) ;
#72 = CARTESIAN_POINT ( 'NONE',  ( 0.0000000000000000000, 0.0000000000000000000, 1000.000000000000000 ) ) ;
#73 = FACE_OUTER_BOUND ( 'NONE', #66, .T. ) ;
#74 = FILL_AREA_STYLE ('',( #6 ) ) ;
#75 = SURFACE_STYLE_FILL_AREA ( #70 ) ;
#76 = ADVANCED_FACE ( 'NONE', ( #101 ), #69, .T. ) ;
#77 = MECHANICAL_DESIGN_GEOMETRIC_PRESENTATION_REPRESENTATION (  '', ( #68 ), #52 ) ;
#78 = PRESENTATION_STYLE_ASSIGNMENT (( #100 ) ) ;
#79 = UNCERTAINTY_MEASURE_WITH_UNIT (LENGTH_MEASURE( 1.000000000000000100E-005 ), #1, 'distance_accuracy_value', 'NONE');
#80 = FILL_AREA_STYLE_COLOUR ( '', #50 ) ;
#81 = ORIENTED_EDGE ( 'NONE', *, *, #71, .T. ) ;
#82 = PLANE ( 'NONE',  #84 ) ;
#83 = DIRECTION ( 'NONE',  ( 0.0000000000000000000, 0.0000000000000000000, 1.000000000000000000 ) ) ;
#84 = AXIS2_PLACEMENT_3D ( 'NONE', #90, #92, #28 ) ;
#85 = ORIENTED_EDGE ( 'NONE', *, *, #38, .T. ) ;
#86 = PRESENTATION_STYLE_ASSIGNMENT (( #43 ) ) ;
#87 = ORIENTED_EDGE ( 'NONE', *, *, #41, .T. ) ;
#88 = CARTESIAN_POINT ( 'NONE',  ( 500.0000000000001100, 500.0000000000002300, 0.0000000000000000000 ) ) ;
#89 = STYLED_ITEM ( 'NONE', ( #78 ), #131 ) ;
#90 = CARTESIAN_POINT ( 'NONE',  ( 0.0000000000000000000, 0.0000000000000000000, 1000.000000000000000 ) ) ;
#91 = FACE_OUTER_BOUND ( 'NONE', #56, .T. ) ;
#92 = DIRECTION ( 'NONE',  ( 1.000000000000000000, 0.0000000000000000000, 0.0000000000000000000 ) ) ;
#93 =( GEOMETRIC_REPRESENTATION_CONTEXT ( 3 ) GLOBAL_UNCERTAINTY_ASSIGNED_CONTEXT ( ( #65 ) ) GLOBAL_UNIT_ASSIGNED_CONTEXT ( ( #129, #7, #3 ) ) REPRESENTATION_CONTEXT ( 'NONE', 'WORKASPACE' ) );
#94 = VERTEX_POINT ( 'NONE', #136 ) ;
#95 = PRODUCT_DEFINITION_FORMATION_WITH_SPECIFIED_SOURCE ( 'ANY', '', #10, .NOT_KNOWN. ) ;
#96 = DIRECTION ( 'NONE',  ( 0.7071067811865475700, -0.7071067811865474600, 0.0000000000000000000 ) ) ;
#97 = AXIS2_PLACEMENT_3D ( 'NONE', #13, #59, #124 ) ;
#98 = CARTESIAN_POINT ( 'NONE',  ( 2.775557561562891400E-013, 1000.000000000000000, 0.0000000000000000000 ) ) ;
#99 = SURFACE_SIDE_STYLE ('',( #75 ) ) ;
#100 = SURFACE_STYLE_USAGE ( .BOTH. , #18 ) ;
#101 = FACE_OUTER_BOUND ( 'NONE', #5, .T. ) ;
#102 = EDGE_CURVE ( 'NONE', #118, #135, #16, .T. ) ;
#103 = COLOUR_RGB ( '',0.7921568627450980000, 0.8196078431372548800, 0.9333333333333333500 ) ;
#104 = DIRECTION ( 'NONE',  ( -0.0000000000000000000, -1.000000000000000000, -0.0000000000000000000 ) ) ;
#105 = FACE_OUTER_BOUND ( 'NONE', #110, .T. ) ;
#106 = CARTESIAN_POINT ( 'NONE',  ( 0.0000000000000000000, 0.0000000000000000000, 0.0000000000000000000 ) ) ;
#107 = DIRECTION ( 'NONE',  ( 0.0000000000000000000, -0.0000000000000000000, 1.000000000000000000 ) ) ;
#108 = DIRECTION ( 'NONE',  ( 0.0000000000000000000, 0.0000000000000000000, -1.000000000000000000 ) ) ;
#109 = CARTESIAN_POINT ( 'NONE',  ( 0.0000000000000000000, 1.922962686383563800E-013, 1000.000000000000200 ) ) ;
#110 = EDGE_LOOP ( 'NONE', ( #122, #117, #87 ) ) ;
#111 = ADVANCED_FACE ( 'NONE', ( #91 ), #82, .F. ) ;
#112 = LINE ( 'NONE', #21, #26 ) ;
#113 = PRESENTATION_LAYER_ASSIGNMENT (  '', '', ( #68 ) ) ;
#114 = DIRECTION ( 'NONE',  ( 1.000000000000000000, 0.0000000000000000000, 0.0000000000000000000 ) ) ;
#115 =( LENGTH_UNIT ( ) NAMED_UNIT ( * ) SI_UNIT ( .MILLI., .METRE. ) );
#116 = PRESENTATION_LAYER_ASSIGNMENT (  '', '', ( #89 ) ) ;
#117 = ORIENTED_EDGE ( 'NONE', *, *, #134, .T. ) ;
#118 = VERTEX_POINT ( 'NONE', #98 ) ;
#119 = VECTOR ( 'NONE', #125, 1000.000000000000000 ) ;
#120 =( NAMED_UNIT ( * ) SI_UNIT ( $, .STERADIAN. ) SOLID_ANGLE_UNIT ( ) );
#121 = AXIS2_PLACEMENT_3D ( 'NONE', #35, #108, #45 ) ;
#122 = ORIENTED_EDGE ( 'NONE', *, *, #71, .F. ) ;
#123 = DIRECTION ( 'NONE',  ( 0.0000000000000000000, 1.000000000000000000, 0.0000000000000000000 ) ) ;
#124 = DIRECTION ( 'NONE',  ( 0.0000000000000000000, -0.7071067811865474600, 0.7071067811865475700 ) ) ;
#125 = DIRECTION ( 'NONE',  ( 0.0000000000000000000, -0.7071067811865474600, 0.7071067811865475700 ) ) ;
#126 = SHAPE_DEFINITION_REPRESENTATION ( #23, #131 ) ;
#127 = PLANE ( 'NONE',  #97 ) ;
#128 = CARTESIAN_POINT ( 'NONE',  ( 0.0000000000000000000, 0.0000000000000000000, 1000.000000000000000 ) ) ;
#129 =( LENGTH_UNIT ( ) NAMED_UNIT ( * ) SI_UNIT ( .MILLI., .METRE. ) );
#130 = VECTOR ( 'NONE', #61, 1000.000000000000000 ) ;
#131 = ADVANCED_BREP_SHAPE_REPRESENTATION ( 'Tetraedro', ( #39, #58 ), #133 ) ;
#132 = LINE ( 'NONE', #88, #46 ) ;
#133 =( GEOMETRIC_REPRESENTATION_CONTEXT ( 3 ) GLOBAL_UNCERTAINTY_ASSIGNED_CONTEXT ( ( #9 ) ) GLOBAL_UNIT_ASSIGNED_CONTEXT ( ( #115, #64, #47 ) ) REPRESENTATION_CONTEXT ( 'NONE', 'WORKASPACE' ) );
#134 = EDGE_CURVE ( 'NONE', #17, #135, #53, .T. ) ;
#135 = VERTEX_POINT ( 'NONE', #25 ) ;
#136 = CARTESIAN_POINT ( 'NONE',  ( 1000.000000000000000, 0.0000000000000000000, 0.0000000000000000000 ) ) ;
ENDSEC;
END-ISO-10303-21;
//+
Transfinite Volume{1};
