                                                                        S0000001
,,31HOpen CASCADE IGES processor 7.8,13HFilename.iges,                  G0000001
16HOpen CASCADE 7.8,31HOpen CASCADE IGES processor 7.8,32,308,15,308,15,G0000002
,1.,2,2HMM,1,0.01,15H20260324.203748,1.30778E-07,100.,5Hvitor,,11,0,    G0000003
15H20260324.203748,;                                                    G0000004
     402       1       0       0       0       0       0       000000000D0000001
     402       0       0       1       1                               0D0000002
     144       2       0       0       0       0       0       000020000D0000003
     144       0       0       1       0                               0D0000004
     120       3       0       0       0       0       7       000010000D0000005
     120       0       0       1       0                               0D0000006
     124       4       0       0       0       0       0       000000000D0000007
     124       0       0       1       0                               0D0000008
     110       5       0       0       0       0       0       000010000D0000009
     110       0       0       1       0                               0D0000010
     110       6       0       0       0       0       0       000010000D0000011
     110       0       0       1       0                               0D0000012
     142       7       0       0       0       0       0       000010500D0000013
     142       0       0       1       0                               0D0000014
     102       8       0       0       0       0       0       000010000D0000015
     102       0       0       1       0                               0D0000016
     110       9       0       0       0       0       0       000010000D0000017
     110       0       0       1       0                               0D0000018
     110      10       0       0       0       0       0       000010000D0000019
     110       0       0       1       0                               0D0000020
     110      11       0       0       0       0       0       000010000D0000021
     110       0       0       1       0                               0D0000022
     110      12       0       0       0       0       0       000010000D0000023
     110       0       0       1       0                               0D0000024
     102      13       0       0       0       0       0       000010000D0000025
     102       0       0       1       0                               0D0000026
     110      14       0       0       0       0       0       000010000D0000027
     110       0       0       1       0                               0D0000028
     100      15       0       0       0       0      31       000010000D0000029
     100       0       0       1       0                               0D0000030
     124      16       0       0       0       0       0       000000000D0000031
     124       0       0       1       0                               0D0000032
     110      17       0       0       0       0       0       000010000D0000033
     110       0       0       1       0                               0D0000034
     100      18       0       0       0       0      37       000010000D0000035
     100       0       0       1       0                               0D0000036
     124      19       0       0       0       0       0       000000000D0000037
     124       0       0       1       0                               0D0000038
     142      20       0       0       0       0       0       000010500D0000039
     142       0       0       1       0                               0D0000040
     126      21       0       0       0       0       0       000010000D0000041
     126       0       0      72       0                               0D0000042
     126      93       0       0       0       0       0       000010000D0000043
     126       0       0      88       0                               0D0000044
     144     181       0       0       0       0       0       000020000D0000045
     144       0       0       1       0                               0D0000046
     108     182       0       0       0       0       0       000010000D0000047
     108       0       0       1       0                               0D0000048
     142     183       0       0       0       0       0       000010500D0000049
     142       0       0       1       0                               0D0000050
     100     184       0       0       0       0      53       000010000D0000051
     100       0       0       1       0                               0D0000052
     124     185       0       0       0       0       0       000000000D0000053
     124       0       0       1       0                               0D0000054
     144     186       0       0       0       0       0       000020000D0000055
     144       0       0       1       0                               0D0000056
     108     187       0       0       0       0       0       000010000D0000057
     108       0       0       1       0                               0D0000058
     142     188       0       0       0       0       0       000010500D0000059
     142       0       0       1       0                               0D0000060
     100     189       0       0       0       0      63       000010000D0000061
     100       0       0       1       0                               0D0000062
     124     190       0       0       0       0       0       000000000D0000063
     124       0       0       1       0                               0D0000064
     144     191       0       0       0       0       0       000020000D0000065
     144       0       0       1       0                               0D0000066
     120     192       0       0       0       0      69       000010000D0000067
     120       0       0       1       0                               0D0000068
     124     193       0       0       0       0       0       000000000D0000069
     124       0       0       1       0                               0D0000070
     110     194       0       0       0       0       0       000010000D0000071
     110       0       0       1       0                               0D0000072
     110     195       0       0       0       0       0       000010000D0000073
     110       0       0       1       0                               0D0000074
     142     196       0       0       0       0       0       000010500D0000075
     142       0       0       1       0                               0D0000076
     102     197       0       0       0       0       0       000010000D0000077
     102       0       0       1       0                               0D0000078
     110     198       0       0       0       0       0       000010000D0000079
     110       0       0       1       0                               0D0000080
     110     199       0       0       0       0       0       000010000D0000081
     110       0       0       1       0                               0D0000082
     110     200       0       0       0       0       0       000010000D0000083
     110       0       0       1       0                               0D0000084
     126     201       0       0       0       0       0       000010000D0000085
     126       0       0      73       0                               0D0000086
     102     274       0       0       0       0       0       000010000D0000087
     102       0       0       1       0                               0D0000088
     110     275       0       0       0       0       0       000010000D0000089
     110       0       0       1       0                               0D0000090
     100     276       0       0       0       0      93       000010000D0000091
     100       0       0       1       0                               0D0000092
     124     277       0       0       0       0       0       000000000D0000093
     124       0       0       1       0                               0D0000094
     110     278       0       0       0       0       0       000010000D0000095
     110       0       0       1       0                               0D0000096
     126     279       0       0       0       0       0       000010000D0000097
     126       0       0      88       0                               0D0000098
     144     367       0       0       0       0       0       000020000D0000099
     144       0       0       1       0                               0D0000100
     108     368       0       0       0       0       0       000010000D0000101
     108       0       0       1       0                               0D0000102
     142     369       0       0       0       0       0       000010500D0000103
     142       0       0       1       0                               0D0000104
     100     370       0       0       0       0     107       000010000D0000105
     100       0       0       1       0                               0D0000106
     124     371       0       0       0       0       0       000000000D0000107
     124       0       0       1       0                               0D0000108
402,5,3,45,55,65,99;                                             0000001P0000001
144,5,1,1,13,39;                                                 0000003P0000002
120,9,11,0.,6.283185307;                                         0000005P0000003
124,0.,0.,1.,0.,0.,-1.,0.,0.,1.,0.,0.,0.;                        0000007P0000004
110,0.,0.,1.,0.,0.,0.;                                           0000009P0000005
110,20.,0.,0.,20.,0.,100.;                                       0000011P0000006
142,0,5,15,25,3;                                                 0000013P0000007
102,4,17,19,21,23;                                               0000015P0000008
110,-1.395147399E-17,1.776356839E-15,0.,1.,2.398081733E-14,0.;   0000017P0000009
110,1.,2.220446049E-14,0.,1.,6.283185307,0.;                     0000019P0000010
110,1.,6.283185307,0.,0.,6.283185307,0.;                         0000021P0000011
110,0.,6.283185307,0.,-1.395147399E-17,0.,0.;                    0000023P0000012
102,4,27,29,33,35;                                               0000025P0000013
110,0.,4.898587197E-15,20.,100.,4.898587197E-15,20.;             0000027P0000014
100,0.,0.,0.,20.,0.,20.,0.;                                      0000029P0000015
124,0.,0.,-1.,100.,0.,1.,0.,0.,1.,0.,-0.,0.;                     0000031P0000016
110,100.,4.898587197E-15,20.,0.,4.898587197E-15,20.;             0000033P0000017
100,0.,0.,0.,20.,0.,20.,0.;                                      0000035P0000018
124,0.,0.,1.,0.,0.,-1.,0.,0.,1.,0.,0.,0.;                        0000037P0000019
142,0,5,41,43,3;                                                 0000039P0000020
126,96,6,1,1,1,0,0.,0.,0.,0.,0.,0.,0.,8.114103306E-02,           0000041P0000021
8.114103306E-02,8.114103306E-02,8.114103306E-02,8.114103306E-02, 0000041P0000022
0.145377556,0.145377556,0.145377556,0.145377556,0.145377556,     0000041P0000023
0.193337345,0.193337345,0.193337345,0.193337345,0.193337345,     0000041P0000024
0.224974593,0.224974593,0.224974593,0.224974593,0.224974593,     0000041P0000025
0.284024026,0.284024026,0.284024026,0.284024026,0.284024026,     0000041P0000026
0.333859384,0.333859384,0.333859384,0.333859384,0.333859384,     0000041P0000027
0.369953159,0.369953159,0.369953159,0.369953159,0.369953159,     0000041P0000028
0.417687155,0.417687155,0.417687155,0.417687155,0.417687155,     0000041P0000029
0.499296262,0.499296262,0.499296262,0.499296262,0.499296262,     0000041P0000030
0.542672452,0.542672452,0.542672452,0.542672452,0.542672452,     0000041P0000031
0.580718154,0.580718154,0.580718154,0.580718154,0.580718154,     0000041P0000032
0.645127747,0.645127747,0.645127747,0.645127747,0.645127747,     0000041P0000033
0.693216751,0.693216751,0.693216751,0.693216751,0.693216751,     0000041P0000034
0.724939238,0.724939238,0.724939238,0.724939238,0.724939238,     0000041P0000035
0.784147765,0.784147765,0.784147765,0.784147765,0.784147765,     0000041P0000036
0.834117393,0.834117393,0.834117393,0.834117393,0.834117393,     0000041P0000037
0.870308414,0.870308414,0.870308414,0.870308414,0.870308414,     0000041P0000038
0.918171016,0.918171016,0.918171016,0.918171016,0.918171016,1.,  0000041P0000039
1.,1.,1.,1.,1.,1.,1.,1.,1.,1.,1.,1.,1.,1.,1.,1.,1.,1.,1.,1.,1.,  0000041P0000040
1.,1.,1.,1.,1.,1.,1.,1.,1.,1.,1.,1.,1.,1.,1.,1.,1.,1.,1.,1.,1.,  0000041P0000041
1.,1.,1.,1.,1.,1.,1.,1.,1.,1.,1.,1.,1.,1.,1.,1.,1.,1.,1.,1.,1.,  0000041P0000042
1.,1.,1.,1.,1.,1.,1.,1.,1.,1.,1.,1.,1.,1.,1.,1.,1.,1.,1.,1.,1.,  0000041P0000043
1.,1.,1.,1.,1.,1.,1.,1.,1.,1.,1.,1.,1.,1.,1.,1.,1.,1.,1.,0.5,    0000041P0000044
1.047197551,0.,0.492476867,1.047197551,0.,0.484966657,           0000041P0000045
1.051118719,0.,0.477520479,1.058935946,0.,0.470190058,           0000041P0000046
1.070579198,0.,0.463034394,1.085927142,0.,0.450649433,           0000041P0000047
1.11977351,0.,0.445325311,1.136960583,0.,0.440165842,            0000041P0000048
1.156354131,0.,0.435194743,1.177961556,0.,0.430447461,           0000041P0000049
1.201811172,0.,0.422636919,1.247465119,0.,0.4194477,1.268280144, 0000041P0000050
0.,0.416430784,1.29041662,0.,0.413614875,1.313897117,0.,         0000041P0000051
0.411035498,1.338740603,0.,0.407219638,1.382256284,0.,           0000041P0000052
0.405823745,1.400164268,0.,0.40456603,1.418637979,0.,            0000041P0000053
0.403462173,1.43762972,0.,0.402526322,1.457090135,0.,            0000041P0000054
0.400362015,1.51406926,0.,0.399585033,1.552560803,0.,            0000041P0000055
0.399538469,1.591596387,0.,0.400239137,1.630337767,0.,           0000041P0000056
0.401629649,1.667946514,0.,0.405206284,1.73365231,0.,            0000041P0000057
0.407238527,1.76239376,0.,0.409610393,1.789747254,0.,            0000041P0000058
0.412271176,1.815666866,0.,0.415173641,1.840115588,0.,           0000041P0000059
0.420517799,1.879690434,0.,0.422870387,1.895561782,0.,           0000041P0000060
0.425318528,1.910694864,0.,0.427852296,1.92510286,0.,            0000041P0000061
0.430463803,1.938797685,0.,0.436695296,1.968969996,0.,           0000041P0000062
0.440369823,1.984925006,0.,0.444154085,1.999663814,0.,           0000041P0000063
0.448035491,2.013190279,0.,0.452004381,2.025501439,0.,           0000041P0000064
0.462975227,2.055538546,0.,0.470141592,2.070936415,0.,           0000041P0000065
0.477483538,2.08261786,0.,0.484941781,2.090460905,0.,            0000041P0000066
0.492464378,2.094395102,0.,0.504005271,2.094395102,0.,           0000041P0000067
0.508009818,2.093283696,0.,0.512004754,2.091061493,0.,           0000041P0000068
0.515980929,2.08773528,0.,0.519928925,2.083317911,0.,            0000041P0000069
0.527268649,2.07301315,0.,0.530668945,2.067373351,0.,            0000041P0000070
0.534035329,2.060918799,0.,0.537362746,2.053660147,0.,           0000041P0000071
0.540645679,2.045608385,0.,0.549350567,2.021819144,0.,           0000041P0000072
0.554674689,2.00463207,0.,0.559834158,1.985238523,0.,            0000041P0000073
0.564805257,1.963631098,0.,0.569552539,1.939781481,0.,           0000041P0000074
0.577363081,1.894127534,0.,0.5805523,1.873312509,0.,0.583569216, 0000041P0000075
1.851176034,0.,0.586385125,1.827695537,0.,0.588964502,           0000041P0000076
1.802852051,0.,0.592780362,1.759336369,0.,0.594176255,           0000041P0000077
1.741428385,0.,0.59543397,1.722954675,0.,0.596537827,            0000041P0000078
1.703962933,0.,0.597473678,1.684502518,0.,0.599637985,           0000041P0000079
1.627523394,0.,0.600414967,1.589031851,0.,0.600461531,           0000041P0000080
1.549996266,0.,0.599760863,1.511254887,0.,0.598370351,           0000041P0000081
1.47364614,0.,0.594793716,1.407940344,0.,0.592761473,            0000041P0000082
1.379198893,0.,0.590389607,1.3518454,0.,0.587728824,1.325925788, 0000041P0000083
0.,0.584826359,1.301477066,0.,0.579482201,1.26190222,0.,         0000041P0000084
0.577129613,1.246030872,0.,0.574681472,1.23089779,0.,            0000041P0000085
0.572147704,1.216489794,0.,0.569536197,1.202794968,0.,           0000041P0000086
0.563304704,1.172622658,0.,0.559630177,1.156667646,0.,           0000041P0000087
0.555845915,1.141928839,0.,0.55196451,1.128402375,0.,            0000041P0000088
0.547995618,1.116091214,0.,0.537024773,1.086054108,0.,           0000041P0000089
0.529858408,1.070656239,0.,0.522516462,1.058974793,0.,           0000041P0000090
0.515058219,1.051131749,0.,0.507535622,1.047197551,0.,0.5,       0000041P0000091
1.047197551,0.,0.,1.,-0.,-0.,1.;                                 0000041P0000092
126,96,6,0,1,1,0,0.,0.,0.,0.,0.,0.,0.,8.114103306E-02,           0000043P0000093
8.114103306E-02,8.114103306E-02,8.114103306E-02,8.114103306E-02, 0000043P0000094
0.145377556,0.145377556,0.145377556,0.145377556,0.145377556,     0000043P0000095
0.193337345,0.193337345,0.193337345,0.193337345,0.193337345,     0000043P0000096
0.224974593,0.224974593,0.224974593,0.224974593,0.224974593,     0000043P0000097
0.284024026,0.284024026,0.284024026,0.284024026,0.284024026,     0000043P0000098
0.333859384,0.333859384,0.333859384,0.333859384,0.333859384,     0000043P0000099
0.369953159,0.369953159,0.369953159,0.369953159,0.369953159,     0000043P0000100
0.417687155,0.417687155,0.417687155,0.417687155,0.417687155,     0000043P0000101
0.499296262,0.499296262,0.499296262,0.499296262,0.499296262,     0000043P0000102
0.542672452,0.542672452,0.542672452,0.542672452,0.542672452,     0000043P0000103
0.580718154,0.580718154,0.580718154,0.580718154,0.580718154,     0000043P0000104
0.645127747,0.645127747,0.645127747,0.645127747,0.645127747,     0000043P0000105
0.693216751,0.693216751,0.693216751,0.693216751,0.693216751,     0000043P0000106
0.724939238,0.724939238,0.724939238,0.724939238,0.724939238,     0000043P0000107
0.784147765,0.784147765,0.784147765,0.784147765,0.784147765,     0000043P0000108
0.834117393,0.834117393,0.834117393,0.834117393,0.834117393,     0000043P0000109
0.870308414,0.870308414,0.870308414,0.870308414,0.870308414,     0000043P0000110
0.918171016,0.918171016,0.918171016,0.918171016,0.918171016,1.,  0000043P0000111
1.,1.,1.,1.,1.,1.,1.,1.,1.,1.,1.,1.,1.,1.,1.,1.,1.,1.,1.,1.,1.,  0000043P0000112
1.,1.,1.,1.,1.,1.,1.,1.,1.,1.,1.,1.,1.,1.,1.,1.,1.,1.,1.,1.,1.,  0000043P0000113
1.,1.,1.,1.,1.,1.,1.,1.,1.,1.,1.,1.,1.,1.,1.,1.,1.,1.,1.,1.,1.,  0000043P0000114
1.,1.,1.,1.,1.,1.,1.,1.,1.,1.,1.,1.,1.,1.,1.,1.,1.,1.,1.,1.,1.,  0000043P0000115
1.,1.,1.,1.,1.,1.,1.,1.,1.,1.,1.,1.,1.,1.,1.,1.,1.,1.,1.,50.,    0000043P0000116
17.320508076,10.,49.247686724,17.320508076,10.,48.496665698,     0000043P0000117
17.359719923,9.932082771,47.752047905,17.437891318,9.796687277,  0000043P0000118
47.019005769,17.552329085,9.593860239,46.303439425,17.697896595, 0000043P0000119
9.323475975,45.064943327,18.002037963,8.718720906,44.532531102,  0000043P0000120
18.151684422,8.409216702,44.016584226,18.313624338,8.056633037,  0000043P0000121
43.519474325,18.484497853,7.659453893,43.044746136,18.660291228, 0000043P0000122
7.215734277,42.263691904,18.967240401,6.355795118,41.944769975,  0000043P0000123
19.098579491,5.960649918,41.643078377,19.227954651,5.537025868,  0000043P0000124
41.361487534,19.35292642,5.084045255,41.103549805,19.470630473,  0000043P0000125
4.601036412,40.721963841,19.648510133,3.749094724,40.582374536,  0000043P0000126
19.714684718,3.397028511,40.45660303,19.775173171,3.032405709,   0000043P0000127
40.346217305,19.82887302,2.65623099,40.252632233,19.874779616,   0000043P0000128
2.269622856,40.036201455,19.981547849,1.135052983,39.958503295,  0000043P0000129
20.020783122,0.36551738,39.953846929,20.023353097,-0.416575711,  0000043P0000130
40.023913683,19.987674262,-1.191896138,40.162964937,19.91829658, 0000043P0000131
-1.941480146,40.520628352,19.744316406,-3.244028246,             0000043P0000132
40.723852745,19.646698897,-3.810923676,40.961039348,             0000043P0000133
19.534944331,-4.346936786,41.227117593,19.412881264,             0000043P0000134
-4.851104279,41.517364059,19.284100786,-5.322985118,             0000043P0000135
42.051779949,19.056048598,-6.080916243,42.287038698,             0000043P0000136
18.958238402,-6.382970754,42.531852823,18.859456954,             0000043P0000137
-6.669141737,42.785229625,18.760619894,-6.939883831,             0000043P0000138
43.046380342,18.662533873,-7.195647234,43.669529627,             0000043P0000139
18.438147137,-7.755823932,44.036982262,18.312916114,             0000043P0000140
-8.049408761,44.415408497,18.191979596,-8.318315974,             0000043P0000141
44.803549063,18.076862983,-8.563178937,45.20043814,17.968911553, 0000043P0000142
-8.784496004,46.297522687,17.699100814,-9.321239222,             0000043P0000143
47.014159167,17.553086215,-9.592518124,47.748353758,             0000043P0000144
17.438279787,-9.796014443,48.494178141,17.359850224,             0000043P0000145
-9.931857079,49.246437788,17.320508076,-10.,50.400527081,        0000043P0000146
17.320508076,-10.,50.800981831,17.331621854,-9.980749463,        0000043P0000147
51.20047539,17.353844686,-9.942260943,51.59809289,17.386945559,  0000043P0000148
-9.884555391,51.992892482,17.430478265,-9.807674655,             0000043P0000149
52.726864896,17.530554953,-9.627508348,53.066894499,             0000043P0000150
17.584840552,-9.52863301,53.403532942,17.646237874,-9.415072689, 0000043P0000151
53.73627461,17.714243483,-9.286803283,54.064567934,17.788269316, 0000043P0000152
-9.143778747,54.935056673,18.002037963,-8.718720906,             0000043P0000153
55.467468898,18.151684422,-8.409216702,55.983415774,             0000043P0000154
18.313624338,-8.056633037,56.480525675,18.484497853,             0000043P0000155
-7.659453893,56.955253864,18.660291228,-7.215734277,             0000043P0000156
57.736308096,18.967240401,-6.355795118,58.055230025,             0000043P0000157
19.098579491,-5.960649918,58.356921623,19.227954651,             0000043P0000158
-5.537025867,58.638512466,19.35292642,-5.084045255,58.896450195, 0000043P0000159
19.470630473,-4.601036412,59.278036159,19.648510133,             0000043P0000160
-3.749094724,59.417625464,19.714684718,-3.397028511,59.54339697, 0000043P0000161
19.775173171,-3.032405709,59.653782695,19.82887302,-2.65623099,  0000043P0000162
59.747367767,19.874779616,-2.269622856,59.963798546,             0000043P0000163
19.981547849,-1.135052981,60.041496704,20.020783122,             0000043P0000164
-0.365517389,60.04615307,20.023353097,0.416575723,59.976086319,  0000043P0000165
19.987674263,1.191896129,59.837035062,19.91829658,1.941480149,   0000043P0000166
59.479371648,19.744316406,3.244028246,59.276147255,19.646698897, 0000043P0000167
3.810923676,59.038960652,19.534944331,4.346936786,58.772882407,  0000043P0000168
19.412881264,4.851104279,58.482635941,19.284100786,5.322985118,  0000043P0000169
57.948220051,19.056048598,6.080916243,57.712961302,18.958238402, 0000043P0000170
6.382970754,57.468147177,18.859456954,6.669141737,57.214770375,  0000043P0000171
18.760619894,6.939883831,56.953619658,18.662533873,7.195647234,  0000043P0000172
56.330470387,18.438147142,7.755823919,55.963017715,18.312916107, 0000043P0000173
8.049408777,55.584591503,18.191979595,8.318315977,55.196450959,  0000043P0000174
18.07686299,8.563178922,54.799561845,17.96891155,8.784496012,    0000043P0000175
53.702477311,17.699100814,9.321239223,52.985840839,17.553086216, 0000043P0000176
9.592518122,52.251646232,17.438279786,9.796014445,51.505821865,  0000043P0000177
17.359850224,9.931857078,50.75356221,17.320508076,10.,50.,       0000043P0000178
17.320508076,10.,0.,1.,4.711933008E-06,0.999999988,              0000043P0000179
1.579029898E-04;                                                 0000043P0000180
144,47,1,0,49;                                                   0000045P0000181
108,-1.,-0.,-0.,-0.,0,0.,0.,0.,0.;                               0000047P0000182
142,0,47,0,51,2;                                                 0000049P0000183
100,0.,0.,0.,20.,0.,20.,0.;                                      0000051P0000184
124,0.,0.,-1.,0.,0.,1.,0.,0.,1.,0.,-0.,0.;                       0000053P0000185
144,57,1,0,59;                                                   0000055P0000186
108,1.,0.,0.,100.,0,100.,0.,0.,0.;                               0000057P0000187
142,0,57,0,61,2;                                                 0000059P0000188
100,0.,0.,0.,20.,0.,20.,0.;                                      0000061P0000189
124,0.,0.,1.,100.,0.,-1.,0.,0.,1.,0.,0.,0.;                      0000063P0000190
144,67,1,0,75;                                                   0000065P0000191
120,71,73,0.,6.283185307;                                        0000067P0000192
124,0.,1.,0.,50.,0.,0.,1.,0.,1.,0.,0.,0.;                        0000069P0000193
110,0.,0.,1.,0.,0.,0.;                                           0000071P0000194
110,10.,0.,17.320508076,10.,0.,70.;                              0000073P0000195
142,0,67,77,87,3;                                                0000075P0000196
102,4,79,81,83,85;                                               0000077P0000197
110,1.348803319E-16,2.069568533E-15,0.,1.,1.376676551E-14,0.;    0000079P0000198
110,1.,1.154631946E-14,0.,1.,6.283185307,0.;                     0000081P0000199
110,1.,6.283185307,0.,1.348803319E-16,6.283185307,0.;            0000083P0000200
126,96,6,1,0,1,0,0.,0.,0.,0.,0.,0.,0.,8.182898371E-02,           0000085P0000201
8.182898371E-02,8.182898371E-02,8.182898371E-02,8.182898371E-02, 0000085P0000202
0.129691586,0.129691586,0.129691586,0.129691586,0.129691586,     0000085P0000203
0.165882607,0.165882607,0.165882607,0.165882607,0.165882607,     0000085P0000204
0.215852235,0.215852235,0.215852235,0.215852235,0.215852235,     0000085P0000205
0.275060762,0.275060762,0.275060762,0.275060762,0.275060762,     0000085P0000206
0.306783249,0.306783249,0.306783249,0.306783249,0.306783249,     0000085P0000207
0.354872253,0.354872253,0.354872253,0.354872253,0.354872253,     0000085P0000208
0.419281846,0.419281846,0.419281846,0.419281846,0.419281846,     0000085P0000209
0.457327548,0.457327548,0.457327548,0.457327548,0.457327548,     0000085P0000210
0.500703738,0.500703738,0.500703738,0.500703738,0.500703738,     0000085P0000211
0.582312845,0.582312845,0.582312845,0.582312845,0.582312845,     0000085P0000212
0.630046841,0.630046841,0.630046841,0.630046841,0.630046841,     0000085P0000213
0.666140616,0.666140616,0.666140616,0.666140616,0.666140616,     0000085P0000214
0.715975974,0.715975974,0.715975974,0.715975974,0.715975974,     0000085P0000215
0.775025407,0.775025407,0.775025407,0.775025407,0.775025407,     0000085P0000216
0.806662655,0.806662655,0.806662655,0.806662655,0.806662655,     0000085P0000217
0.854622444,0.854622444,0.854622444,0.854622444,0.854622444,     0000085P0000218
0.918858967,0.918858967,0.918858967,0.918858967,0.918858967,1.,  0000085P0000219
1.,1.,1.,1.,1.,1.,1.,1.,1.,1.,1.,1.,1.,1.,1.,1.,1.,1.,1.,1.,1.,  0000085P0000220
1.,1.,1.,1.,1.,1.,1.,1.,1.,1.,1.,1.,1.,1.,1.,1.,1.,1.,1.,1.,1.,  0000085P0000221
1.,1.,1.,1.,1.,1.,1.,1.,1.,1.,1.,1.,1.,1.,1.,1.,1.,1.,1.,1.,1.,  0000085P0000222
1.,1.,1.,1.,1.,1.,1.,1.,1.,1.,1.,1.,1.,1.,1.,1.,1.,1.,1.,1.,1.,  0000085P0000223
1.,1.,1.,1.,1.,1.,1.,1.,1.,1.,1.,1.,1.,1.,1.,1.,1.,1.,1.,0.,     0000085P0000224
6.283185307,0.,-3.176272532E-19,6.207829086,0.,7.468209547E-04,  0000085P0000225
6.132603148,0.,2.235627298E-03,6.057250332,0.,4.414965512E-03,   0000085P0000226
5.981533798,0.,7.186719616E-03,5.905239535,0.,1.230846104E-02,   0000085P0000227
5.783104866,0.,1.435767292E-02,5.737727866,0.,1.65428991E-02,    0000085P0000228
5.691936859,0.,1.883860294E-02,5.645621342,0.,2.12158285E-02,    0000085P0000229
5.598667322,0.,2.547529879E-02,5.514875143,0.,2.733723819E-02,   0000085P0000230
5.478355233,0.,2.921343433E-02,5.44132743,0.,3.108857483E-02,    0000085P0000231
5.403725702,0.,3.29452783E-02,5.365482757,0.,3.727432894E-02,    0000085P0000232
5.272743341,0.,3.971893259E-02,5.217452312,0.,4.203602151E-02,   0000085P0000233
5.160635405,0.,4.415742705E-02,5.102241728,0.,4.601047281E-02,   0000085P0000234
5.042194464,0.,4.931308958E-02,4.907118387,0.,5.063006665E-02,   0000085P0000235
4.83115372,0.,5.130734794E-02,4.753825587,0.,5.125856282E-02,    0000085P0000236
4.676147843,0.,5.051377066E-02,4.599101581,0.,4.848701928E-02,   0000085P0000237
4.48359872,0.,4.761558725E-02,4.44386906,0.,4.65962181E-02,      0000085P0000238
4.404731783,0.,4.544798278E-02,4.366221782,0.,4.419180923E-02,   0000085P0000239
4.328384933,0.,4.08151696E-02,4.235035456,0.,3.858082661E-02,    0000085P0000240
4.180410512,0.,3.620852263E-02,4.127239028,0.,3.37526303E-02,    0000085P0000241
4.075376326,0.,3.125945725E-02,4.024683573,0.,2.54327273E-02,    0000085P0000242
3.908513823,0.,2.209569103E-02,3.843749882,0.,1.885204709E-02,   0000085P0000243
3.780397044,0.,1.577798714E-02,3.718157425,0.,1.293729045E-02,   0000085P0000244
3.656734653,0.,8.879380245E-03,3.559862324,0.,7.474168663E-03,   0000085P0000245
3.52408644,0.,6.183237283E-03,3.488474464,0.,5.017749164E-03,    0000085P0000246
3.452994732,0.,3.98726088E-03,3.417615003,0.,2.087533227E-03,    0000085P0000247
3.342038856,0.,1.26116409E-03,3.301864376,0.,6.328195157E-04,    0000085P0000248
3.261755827,0.,2.109697373E-04,3.221690848,0.,1.218073089E-16,   0000085P0000249
3.181645362,0.,1.213208591E-16,3.066236432,0.,7.468209463E-04,   0000085P0000250
2.991010495,0.,2.235627319E-03,2.915657678,0.,4.41496549E-03,    0000085P0000251
2.839941145,0.,7.186719625E-03,2.763646881,0.,1.230846111E-02,   0000085P0000252
2.64151221,0.,1.435767279E-02,2.596135215,0.,1.654289911E-02,    0000085P0000253
2.550344205,0.,1.883860307E-02,2.504028685,0.,2.121582841E-02,   0000085P0000254
2.45707467,0.,2.547529879E-02,2.373282489,0.,2.733723819E-02,    0000085P0000255
2.336762579,0.,2.921343433E-02,2.299734776,0.,3.108857483E-02,   0000085P0000256
2.262133048,0.,3.29452783E-02,2.223890104,0.,3.727432894E-02,    0000085P0000257
2.131150687,0.,3.971893259E-02,2.075859658,0.,4.203602151E-02,   0000085P0000258
2.019042751,0.,4.415742705E-02,1.960649074,0.,4.601047281E-02,   0000085P0000259
1.90060181,0.,4.931308958E-02,1.765525733,0.,5.063006664E-02,    0000085P0000260
1.689561067,0.,5.130734794E-02,1.612232932,0.,5.125856282E-02,   0000085P0000261
1.534555191,0.,5.051377065E-02,1.457508927,0.,4.848701928E-02,   0000085P0000262
1.342006067,0.,4.761558725E-02,1.302276406,0.,4.65962181E-02,    0000085P0000263
1.263139129,0.,4.544798278E-02,1.224629128,0.,4.419180923E-02,   0000085P0000264
1.186792279,0.,4.08151696E-02,1.093442802,0.,3.858082661E-02,    0000085P0000265
1.038817858,0.,3.620852263E-02,0.985646374,0.,3.37526303E-02,    0000085P0000266
0.933783672,0.,3.125945725E-02,0.883090919,0.,2.54327273E-02,    0000085P0000267
0.76692117,0.,2.209569103E-02,0.702157228,0.,1.885204709E-02,    0000085P0000268
0.63880439,0.,1.577798714E-02,0.576564771,0.,1.293729045E-02,    0000085P0000269
0.515141999,0.,7.163860277E-03,0.377315976,0.,4.400593109E-03,   0000085P0000270
0.301151703,0.,2.228253112E-03,0.225561738,0.,7.443474931E-04,   0000085P0000271
0.150333403,0.,-2.616659042E-17,7.52313276E-02,0.,               0000085P0000272
-2.648369125E-17,1.776356839E-15,0.,0.,1.,-0.,-0.,1.;            0000085P0000273
102,4,89,91,95,97;                                               0000087P0000274
110,50.,17.320508076,10.,50.,70.,10.;                            0000089P0000275
100,0.,0.,0.,10.,0.,10.,0.;                                      0000091P0000276
124,0.,-1.,0.,50.,0.,0.,-1.,70.,1.,0.,-0.,0.;                    0000093P0000277
110,50.,70.,10.,50.,17.320508076,10.;                            0000095P0000278
126,96,6,0,1,1,0,0.,0.,0.,0.,0.,0.,0.,8.182898371E-02,           0000097P0000279
8.182898371E-02,8.182898371E-02,8.182898371E-02,8.182898371E-02, 0000097P0000280
0.129691586,0.129691586,0.129691586,0.129691586,0.129691586,     0000097P0000281
0.165882607,0.165882607,0.165882607,0.165882607,0.165882607,     0000097P0000282
0.215852235,0.215852235,0.215852235,0.215852235,0.215852235,     0000097P0000283
0.275060762,0.275060762,0.275060762,0.275060762,0.275060762,     0000097P0000284
0.306783249,0.306783249,0.306783249,0.306783249,0.306783249,     0000097P0000285
0.354872253,0.354872253,0.354872253,0.354872253,0.354872253,     0000097P0000286
0.419281846,0.419281846,0.419281846,0.419281846,0.419281846,     0000097P0000287
0.457327548,0.457327548,0.457327548,0.457327548,0.457327548,     0000097P0000288
0.500703738,0.500703738,0.500703738,0.500703738,0.500703738,     0000097P0000289
0.582312845,0.582312845,0.582312845,0.582312845,0.582312845,     0000097P0000290
0.630046841,0.630046841,0.630046841,0.630046841,0.630046841,     0000097P0000291
0.666140616,0.666140616,0.666140616,0.666140616,0.666140616,     0000097P0000292
0.715975974,0.715975974,0.715975974,0.715975974,0.715975974,     0000097P0000293
0.775025407,0.775025407,0.775025407,0.775025407,0.775025407,     0000097P0000294
0.806662655,0.806662655,0.806662655,0.806662655,0.806662655,     0000097P0000295
0.854622444,0.854622444,0.854622444,0.854622444,0.854622444,     0000097P0000296
0.918858967,0.918858967,0.918858967,0.918858967,0.918858967,1.,  0000097P0000297
1.,1.,1.,1.,1.,1.,1.,1.,1.,1.,1.,1.,1.,1.,1.,1.,1.,1.,1.,1.,1.,  0000097P0000298
1.,1.,1.,1.,1.,1.,1.,1.,1.,1.,1.,1.,1.,1.,1.,1.,1.,1.,1.,1.,1.,  0000097P0000299
1.,1.,1.,1.,1.,1.,1.,1.,1.,1.,1.,1.,1.,1.,1.,1.,1.,1.,1.,1.,1.,  0000097P0000300
1.,1.,1.,1.,1.,1.,1.,1.,1.,1.,1.,1.,1.,1.,1.,1.,1.,1.,1.,1.,1.,  0000097P0000301
1.,1.,1.,1.,1.,1.,1.,1.,1.,1.,1.,1.,1.,1.,1.,1.,1.,1.,1.,50.,    0000097P0000302
17.320508076,10.,50.75356221,17.320508076,10.,51.505821865,      0000097P0000303
17.359850224,9.931857078,52.251646232,17.438279786,9.796014445,  0000097P0000304
52.985840839,17.553086216,9.592518122,53.702477311,17.699100814, 0000097P0000305
9.321239223,54.799561845,17.96891155,8.784496012,55.196450959,   0000097P0000306
18.07686299,8.563178922,55.584591503,18.191979595,8.318315977,   0000097P0000307
55.963017715,18.312916107,8.049408777,56.330470387,18.438147142, 0000097P0000308
7.755823919,56.953619658,18.662533873,7.195647234,57.214770375,  0000097P0000309
18.760619894,6.939883831,57.468147177,18.859456954,6.669141737,  0000097P0000310
57.712961302,18.958238402,6.382970754,57.948220051,19.056048598, 0000097P0000311
6.080916243,58.482635941,19.284100786,5.322985118,58.772882407,  0000097P0000312
19.412881264,4.851104279,59.038960652,19.534944331,4.346936786,  0000097P0000313
59.276147255,19.646698897,3.810923676,59.479371648,19.744316406, 0000097P0000314
3.244028246,59.837035062,19.91829658,1.941480149,59.976086319,   0000097P0000315
19.987674263,1.191896129,60.04615307,20.023353097,0.416575723,   0000097P0000316
60.041496704,20.020783122,-0.365517389,59.963798546,             0000097P0000317
19.981547849,-1.135052981,59.747367767,19.874779616,             0000097P0000318
-2.269622856,59.653782695,19.82887302,-2.65623099,59.54339697,   0000097P0000319
19.775173171,-3.032405709,59.417625464,19.714684718,             0000097P0000320
-3.397028511,59.278036159,19.648510133,-3.749094724,             0000097P0000321
58.896450195,19.470630473,-4.601036412,58.638512466,19.35292642, 0000097P0000322
-5.084045255,58.356921623,19.227954651,-5.537025867,             0000097P0000323
58.055230025,19.098579491,-5.960649918,57.736308096,             0000097P0000324
18.967240401,-6.355795118,56.955253864,18.660291228,             0000097P0000325
-7.215734277,56.480525675,18.484497853,-7.659453893,             0000097P0000326
55.983415774,18.313624338,-8.056633037,55.467468898,             0000097P0000327
18.151684422,-8.409216702,54.935056673,18.002037963,             0000097P0000328
-8.718720906,54.064567934,17.788269316,-9.143778747,53.73627461, 0000097P0000329
17.714243483,-9.286803283,53.403532942,17.646237874,             0000097P0000330
-9.415072689,53.066894499,17.584840552,-9.52863301,52.726864896, 0000097P0000331
17.530554953,-9.627508348,51.992892482,17.430478265,             0000097P0000332
-9.807674655,51.59809289,17.386945559,-9.884555391,51.20047539,  0000097P0000333
17.353844686,-9.942260943,50.800981831,17.331621854,             0000097P0000334
-9.980749463,50.400527081,17.320508076,-10.,49.246437788,        0000097P0000335
17.320508076,-10.,48.494178141,17.359850224,-9.931857079,        0000097P0000336
47.748353758,17.438279787,-9.796014443,47.014159167,             0000097P0000337
17.553086215,-9.592518124,46.297522687,17.699100814,             0000097P0000338
-9.321239222,45.20043814,17.968911553,-8.784496004,44.803549063, 0000097P0000339
18.076862983,-8.563178937,44.415408497,18.191979596,             0000097P0000340
-8.318315974,44.036982262,18.312916114,-8.049408761,             0000097P0000341
43.669529627,18.438147137,-7.755823932,43.046380342,             0000097P0000342
18.662533873,-7.195647234,42.785229625,18.760619894,             0000097P0000343
-6.939883831,42.531852823,18.859456954,-6.669141737,             0000097P0000344
42.287038698,18.958238402,-6.382970754,42.051779949,             0000097P0000345
19.056048598,-6.080916243,41.517364059,19.284100786,             0000097P0000346
-5.322985118,41.227117593,19.412881264,-4.851104279,             0000097P0000347
40.961039348,19.534944331,-4.346936786,40.723852745,             0000097P0000348
19.646698897,-3.810923676,40.520628352,19.744316406,             0000097P0000349
-3.244028246,40.162964937,19.91829658,-1.941480146,40.023913683, 0000097P0000350
19.987674262,-1.191896138,39.953846929,20.023353097,             0000097P0000351
-0.416575711,39.958503295,20.020783122,0.36551738,40.036201455,  0000097P0000352
19.981547849,1.135052983,40.252632233,19.874779616,2.269622856,  0000097P0000353
40.346217305,19.82887302,2.65623099,40.45660303,19.775173171,    0000097P0000354
3.032405709,40.582374536,19.714684718,3.397028511,40.721963841,  0000097P0000355
19.648510133,3.749094724,41.103549805,19.470630473,4.601036412,  0000097P0000356
41.361487534,19.35292642,5.084045255,41.643078377,19.227954651,  0000097P0000357
5.537025868,41.944769975,19.098579491,5.960649918,42.263691904,  0000097P0000358
18.967240401,6.355795118,43.044746136,18.660291228,7.215734277,  0000097P0000359
43.519474325,18.484497853,7.659453893,44.016584226,18.313624338, 0000097P0000360
8.056633037,44.532531102,18.151684422,8.409216702,45.064943327,  0000097P0000361
18.002037963,8.718720906,46.303439425,17.697896595,9.323475975,  0000097P0000362
47.019005769,17.552329085,9.593860239,47.752047905,17.437891318, 0000097P0000363
9.796687277,48.496665698,17.359719923,9.932082771,49.247686724,  0000097P0000364
17.320508076,10.,50.,17.320508076,10.,0.,1.,4.711933008E-06,     0000097P0000365
0.999999988,1.579029898E-04;                                     0000097P0000366
144,101,1,0,103;                                                 0000099P0000367
108,0.,1.,0.,70.,0,50.,70.,0.,0.;                                0000101P0000368
142,0,101,0,105,2;                                               0000103P0000369
100,0.,0.,0.,10.,0.,10.,0.;                                      0000105P0000370
124,0.,1.,0.,50.,0.,0.,1.,70.,1.,0.,0.,0.;                       0000107P0000371
S      1G      4D    108P    371                                        T0000001
