ISO-10303-21;
HEADER;
FILE_DESCRIPTION (( 'STEP AP214' ),
    '1' );
FILE_NAME ('curve_L_2D_with_caps_merged.STEP',
    '2025-04-10T16:48:41',
    ( '' ),
    ( '' ),
    'SwSTEP 2.0',
    'SolidWorks 2015',
    '' );
FILE_SCHEMA (( 'AUTOMOTIVE_DESIGN' ));
ENDSEC;

DATA;
#1 = SHAPE_DEFINITION_REPRESENTATION ( #205, #243 ) ;
#2 = VERTEX_POINT ( 'NONE', #158 ) ;
#3 = LINE ( 'NONE', #163, #172 ) ;
#4 = CARTESIAN_POINT ( 'NONE',  ( 1375.000000000000000, 375.0000000000000000, 124.9999999999999900 ) ) ;
#5 = ORIENTED_EDGE ( 'NONE', *, *, #92, .F. ) ;
#6 =( GEOMETRIC_REPRESENTATION_CONTEXT ( 3 ) GLOBAL_UNCERTAINTY_ASSIGNED_CONTEXT ( ( #247 ) ) GLOBAL_UNIT_ASSIGNED_CONTEXT ( ( #128, #103, #129 ) ) REPRESENTATION_CONTEXT ( 'NONE', 'WORKASPACE' ) );
#7 = DIRECTION ( 'NONE',  ( 0.0000000000000000000, 0.0000000000000000000, -1.000000000000000000 ) ) ;
#8 = DIRECTION ( 'NONE',  ( 1.000000000000000000, 0.0000000000000000000, 0.0000000000000000000 ) ) ;
#9 = DIRECTION ( 'NONE',  ( -1.000000000000000000, 6.123233995736766000E-017, 0.0000000000000000000 ) ) ;
#10 = FACE_OUTER_BOUND ( 'NONE', #46, .T. ) ;
#11 = DIRECTION ( 'NONE',  ( 6.123233995736766000E-017, 1.000000000000000000, 0.0000000000000000000 ) ) ;
#12 = AXIS2_PLACEMENT_3D ( 'NONE', #74, #99, #252 ) ;
#13 = VERTEX_POINT ( 'NONE', #4 ) ;
#14 = PLANE ( 'NONE',  #255 ) ;
#15 = EDGE_CURVE ( 'NONE', #90, #168, #250, .T. ) ;
#16 = DIRECTION ( 'NONE',  ( 0.0000000000000000000, 0.0000000000000000000, 1.000000000000000000 ) ) ;
#17 =( NAMED_UNIT ( * ) SI_UNIT ( $, .STERADIAN. ) SOLID_ANGLE_UNIT ( ) );
#18 = ORIENTED_EDGE ( 'NONE', *, *, #76, .T. ) ;
#19 = CARTESIAN_POINT ( 'NONE',  ( 1000.000000000000000, 0.0000000000000000000, 0.0000000000000000000 ) ) ;
#20 = CIRCLE ( 'NONE', #161, 500.0000000000000000 ) ;
#21 = EDGE_CURVE ( 'NONE', #188, #111, #69, .T. ) ;
#22 = EDGE_LOOP ( 'NONE', ( #240, #209, #18, #114, #44 ) ) ;
#23 = ADVANCED_FACE ( 'NONE', ( #178 ), #71, .F. ) ;
#24 = MECHANICAL_DESIGN_GEOMETRIC_PRESENTATION_REPRESENTATION (  '', ( #222 ), #262 ) ;
#25 = CYLINDRICAL_SURFACE ( 'NONE', #12, 124.9999999999999900 ) ;
#26 = AXIS2_PLACEMENT_3D ( 'NONE', #251, #145, #120 ) ;
#27 = CARTESIAN_POINT ( 'NONE',  ( 0.0000000000000000000, 0.0000000000000000000, 0.0000000000000000000 ) ) ;
#28 = DIRECTION ( 'NONE',  ( 1.000000000000000000, 0.0000000000000000000, 0.0000000000000000000 ) ) ;
#29 = DIRECTION ( 'NONE',  ( 0.0000000000000000000, 1.000000000000000000, 0.0000000000000000000 ) ) ;
#30 = FILL_AREA_STYLE_COLOUR ( '', #223 ) ;
#31 = EDGE_CURVE ( 'NONE', #90, #204, #20, .T. ) ;
#32 = CARTESIAN_POINT ( 'NONE',  ( 1000.000000000000000, 0.0000000000000000000, -124.9999999999999900 ) ) ;
#33 = EDGE_LOOP ( 'NONE', ( #154, #62, #130, #54, #117, #242 ) ) ;
#34 = ORIENTED_EDGE ( 'NONE', *, *, #108, .F. ) ;
#35 = DIRECTION ( 'NONE',  ( 6.123233995736766000E-017, 1.000000000000000000, 0.0000000000000000000 ) ) ;
#36 = APPLICATION_CONTEXT ( 'automotive_design' ) ;
#37 = PRODUCT_DEFINITION_CONTEXT ( 'detailed design', #36, 'design' ) ;
#38 = ORIENTED_EDGE ( 'NONE', *, *, #245, .T. ) ;
#39 = AXIS2_PLACEMENT_3D ( 'NONE', #102, #16, #61 ) ;
#40 = APPLICATION_PROTOCOL_DEFINITION ( 'draft international standard', 'automotive_design', 1998, #192 ) ;
#41 = CARTESIAN_POINT ( 'NONE',  ( 1000.000000000000000, 375.0000000000000000, 0.0000000000000000000 ) ) ;
#42 = ADVANCED_FACE ( 'NONE', ( #122 ), #25, .T. ) ;
#43 = AXIS2_PLACEMENT_3D ( 'NONE', #27, #121, #142 ) ;
#44 = ORIENTED_EDGE ( 'NONE', *, *, #218, .F. ) ;
#45 = DIRECTION ( 'NONE',  ( 1.000000000000000000, 0.0000000000000000000, 0.0000000000000000000 ) ) ;
#46 = EDGE_LOOP ( 'NONE', ( #234, #119, #94, #176, #149 ) ) ;
#47 = EDGE_CURVE ( 'NONE', #188, #173, #138, .T. ) ;
#48 = CIRCLE ( 'NONE', #26, 124.9999999999999900 ) ;
#49 = PRODUCT_DEFINITION_FORMATION_WITH_SPECIFIED_SOURCE ( 'ANY', '', #144, .NOT_KNOWN. ) ;
#50 = ORIENTED_EDGE ( 'NONE', *, *, #108, .T. ) ;
#51 = PRESENTATION_LAYER_ASSIGNMENT (  '', '', ( #222 ) ) ;
#52 = DIRECTION ( 'NONE',  ( 0.0000000000000000000, 0.0000000000000000000, -1.000000000000000000 ) ) ;
#53 = CARTESIAN_POINT ( 'NONE',  ( 1000.000000000000000, 0.0000000000000000000, 0.0000000000000000000 ) ) ;
#54 = ORIENTED_EDGE ( 'NONE', *, *, #76, .F. ) ;
#55 = DIRECTION ( 'NONE',  ( 0.0000000000000000000, 0.0000000000000000000, -1.000000000000000000 ) ) ;
#56 = TOROIDAL_SURFACE ( 'NONE', #239, 375.0000000000000000, 124.9999999999999900 ) ;
#57 = CARTESIAN_POINT ( 'NONE',  ( 0.0000000000000000000, 0.0000000000000000000, 0.0000000000000000000 ) ) ;
#58 = AXIS2_PLACEMENT_3D ( 'NONE', #19, #88, #257 ) ;
#59 = DIRECTION ( 'NONE',  ( 1.000000000000000000, 0.0000000000000000000, 0.0000000000000000000 ) ) ;
#60 = EDGE_LOOP ( 'NONE', ( #180, #224 ) ) ;
#61 = DIRECTION ( 'NONE',  ( 1.000000000000000000, 0.0000000000000000000, 0.0000000000000000000 ) ) ;
#62 = ORIENTED_EDGE ( 'NONE', *, *, #31, .T. ) ;
#63 = ADVANCED_FACE ( 'NONE', ( #10 ), #201, .T. ) ;
#64 = CARTESIAN_POINT ( 'NONE',  ( 1375.000000000000000, 375.0000000000000000, 0.0000000000000000000 ) ) ;
#65 = FACE_OUTER_BOUND ( 'NONE', #226, .T. ) ;
#66 = EDGE_CURVE ( 'NONE', #173, #90, #196, .T. ) ;
#67 = OPEN_SHELL ( 'NONE', ( #131, #277, #63, #23, #197, #42, #147, #241 ) ) ;
#68 = DIRECTION ( 'NONE',  ( 1.000000000000000000, 0.0000000000000000000, 0.0000000000000000000 ) ) ;
#69 = CIRCLE ( 'NONE', #211, 250.0000000000000000 ) ;
#70 = AXIS2_PLACEMENT_3D ( 'NONE', #53, #229, #182 ) ;
#71 = PLANE ( 'NONE',  #43 ) ;
#72 = CARTESIAN_POINT ( 'NONE',  ( 1000.000000000000000, 375.0000000000000000, 0.0000000000000000000 ) ) ;
#73 = DIRECTION ( 'NONE',  ( 0.0000000000000000000, 0.0000000000000000000, -1.000000000000000000 ) ) ;
#74 = CARTESIAN_POINT ( 'NONE',  ( 1375.000000000000000, 375.0000000000000000, 0.0000000000000000000 ) ) ;
#75 = CIRCLE ( 'NONE', #177, 124.9999999999999900 ) ;
#76 = EDGE_CURVE ( 'NONE', #111, #13, #75, .T. ) ;
#77 = DIRECTION ( 'NONE',  ( 6.123233995736766000E-017, 1.000000000000000000, 0.0000000000000000000 ) ) ;
#78 = DIRECTION ( 'NONE',  ( 0.0000000000000000000, 1.000000000000000000, 0.0000000000000000000 ) ) ;
#79 = SHELL_BASED_SURFACE_MODEL ( 'NONE', ( #67 ) );
#80 = CARTESIAN_POINT ( 'NONE',  ( 1375.000000000000000, 1175.000000000000000, 124.9999999999999900 ) ) ;
#81 = FILL_AREA_STYLE ('',( #30 ) ) ;
#82 = CARTESIAN_POINT ( 'NONE',  ( 1375.000000000000000, 375.0000000000000000, -124.9999999999999900 ) ) ;
#83 = APPLICATION_PROTOCOL_DEFINITION ( 'draft international standard', 'automotive_design', 1998, #167 ) ;
#84 = PRODUCT_DEFINITION_CONTEXT ( 'detailed design', #279, 'design' ) ;
#85 = DIRECTION ( 'NONE',  ( 1.000000000000000000, 0.0000000000000000000, 0.0000000000000000000 ) ) ;
#86 = CIRCLE ( 'NONE', #236, 124.9999999999999900 ) ;
#87 = CARTESIAN_POINT ( 'NONE',  ( 1000.000000000000000, -125.0000000000000000, 0.0000000000000000000 ) ) ;
#88 = DIRECTION ( 'NONE',  ( 1.000000000000000000, 0.0000000000000000000, 0.0000000000000000000 ) ) ;
#89 = AXIS2_PLACEMENT_3D ( 'NONE', #227, #29, #97 ) ;
#90 = VERTEX_POINT ( 'NONE', #87 ) ;
#91 = EDGE_LOOP ( 'NONE', ( #275, #151 ) ) ;
#92 = EDGE_CURVE ( 'NONE', #168, #188, #238, .T. ) ;
#93 = ORIENTED_EDGE ( 'NONE', *, *, #230, .T. ) ;
#94 = ORIENTED_EDGE ( 'NONE', *, *, #184, .T. ) ;
#95 = PRODUCT_DEFINITION_SHAPE ( 'NONE', 'NONE',  #261 ) ;
#96 = DIRECTION ( 'NONE',  ( 1.000000000000000000, 0.0000000000000000000, 0.0000000000000000000 ) ) ;
#97 = DIRECTION ( 'NONE',  ( 0.0000000000000000000, 0.0000000000000000000, 1.000000000000000000 ) ) ;
#98 = CARTESIAN_POINT ( 'NONE',  ( 1375.000000000000000, 1175.000000000000000, 0.0000000000000000000 ) ) ;
#99 = DIRECTION ( 'NONE',  ( 0.0000000000000000000, 1.000000000000000000, 0.0000000000000000000 ) ) ;
#100 = DIRECTION ( 'NONE',  ( 1.000000000000000000, 0.0000000000000000000, 0.0000000000000000000 ) ) ;
#101 = DIRECTION ( 'NONE',  ( 0.0000000000000000000, 0.0000000000000000000, -1.000000000000000000 ) ) ;
#102 = CARTESIAN_POINT ( 'NONE',  ( 0.0000000000000000000, 0.0000000000000000000, 0.0000000000000000000 ) ) ;
#103 =( NAMED_UNIT ( * ) PLANE_ANGLE_UNIT ( ) SI_UNIT ( $, .RADIAN. ) );
#104 = ORIENTED_EDGE ( 'NONE', *, *, #31, .F. ) ;
#105 = SURFACE_SIDE_STYLE ('',( #175 ) ) ;
#106 = DIRECTION ( 'NONE',  ( 0.0000000000000000000, 0.0000000000000000000, 1.000000000000000000 ) ) ;
#107 = DIRECTION ( 'NONE',  ( 6.123233995736766000E-017, 1.000000000000000000, 0.0000000000000000000 ) ) ;
#108 = EDGE_CURVE ( 'NONE', #260, #168, #132, .T. ) ;
#109 = LINE ( 'NONE', #235, #272 ) ;
#110 = ORIENTED_EDGE ( 'NONE', *, *, #171, .T. ) ;
#111 = VERTEX_POINT ( 'NONE', #135 ) ;
#112 = DIRECTION ( 'NONE',  ( 0.0000000000000000000, 0.0000000000000000000, -1.000000000000000000 ) ) ;
#113 = CIRCLE ( 'NONE', #248, 124.9999999999999900 ) ;
#114 = ORIENTED_EDGE ( 'NONE', *, *, #203, .T. ) ;
#115 = CARTESIAN_POINT ( 'NONE',  ( 1000.000000000000000, 0.0000000000000000000, 0.0000000000000000000 ) ) ;
#116 = DIRECTION ( 'NONE',  ( 0.0000000000000000000, 0.0000000000000000000, 1.000000000000000000 ) ) ;
#117 = ORIENTED_EDGE ( 'NONE', *, *, #21, .F. ) ;
#118 = CARTESIAN_POINT ( 'NONE',  ( 0.0000000000000000000, 1.530808498934191200E-014, 124.9999999999999900 ) ) ;
#119 = ORIENTED_EDGE ( 'NONE', *, *, #200, .T. ) ;
#120 = DIRECTION ( 'NONE',  ( 0.0000000000000000000, 0.0000000000000000000, -1.000000000000000000 ) ) ;
#121 = DIRECTION ( 'NONE',  ( 1.000000000000000000, 0.0000000000000000000, 0.0000000000000000000 ) ) ;
#122 = FACE_OUTER_BOUND ( 'NONE', #22, .T. ) ;
#123 = VECTOR ( 'NONE', #270, 1000.000000000000000 ) ;
#124 = DIRECTION ( 'NONE',  ( 0.0000000000000000000, 0.0000000000000000000, -1.000000000000000000 ) ) ;
#125 = EDGE_CURVE ( 'NONE', #139, #111, #185, .T. ) ;
#126 = CARTESIAN_POINT ( 'NONE',  ( 1000.000000000000000, 375.0000000000000000, 0.0000000000000000000 ) ) ;
#127 = ORIENTED_EDGE ( 'NONE', *, *, #47, .F. ) ;
#128 =( LENGTH_UNIT ( ) NAMED_UNIT ( * ) SI_UNIT ( .MILLI., .METRE. ) );
#129 =( NAMED_UNIT ( * ) SI_UNIT ( $, .STERADIAN. ) SOLID_ANGLE_UNIT ( ) );
#130 = ORIENTED_EDGE ( 'NONE', *, *, #258, .F. ) ;
#131 = ADVANCED_FACE ( 'NONE', ( #237 ), #56, .T. ) ;
#132 = LINE ( 'NONE', #194, #143 ) ;
#133 = PRODUCT_DEFINITION_FORMATION_WITH_SPECIFIED_SOURCE ( 'ANY', '', #162, .NOT_KNOWN. ) ;
#134 = VERTEX_POINT ( 'NONE', #159 ) ;
#135 = CARTESIAN_POINT ( 'NONE',  ( 1250.000000000000000, 375.0000000000000000, -1.530808498934190900E-014 ) ) ;
#136 = AXIS2_PLACEMENT_3D ( 'NONE', #57, #100, #253 ) ;
#137 = FACE_OUTER_BOUND ( 'NONE', #266, .T. ) ;
#138 = CIRCLE ( 'NONE', #70, 124.9999999999999900 ) ;
#139 = VERTEX_POINT ( 'NONE', #82 ) ;
#140 = EDGE_CURVE ( 'NONE', #170, #134, #220, .T. ) ;
#141 = PRODUCT_RELATED_PRODUCT_CATEGORY ( 'part', '', ( #144 ) ) ;
#142 = DIRECTION ( 'NONE',  ( 0.0000000000000000000, 0.0000000000000000000, -1.000000000000000000 ) ) ;
#143 = VECTOR ( 'NONE', #45, 1000.000000000000000 ) ;
#144 = PRODUCT ( 'curve_L_2D_with_caps_merged', 'curve_L_2D_with_caps_merged', '', ( #195 ) ) ;
#145 = DIRECTION ( 'NONE',  ( 6.123233995736766000E-017, 1.000000000000000000, 0.0000000000000000000 ) ) ;
#146 = DIRECTION ( 'NONE',  ( 0.0000000000000000000, 0.0000000000000000000, 1.000000000000000000 ) ) ;
#147 = ADVANCED_FACE ( 'NONE', ( #65 ), #179, .T. ) ;
#148 = CYLINDRICAL_SURFACE ( 'NONE', #276, 124.9999999999999900 ) ;
#149 = ORIENTED_EDGE ( 'NONE', *, *, #203, .F. ) ;
#150 = AXIS2_PLACEMENT_3D ( 'NONE', #115, #264, #52 ) ;
#151 = ORIENTED_EDGE ( 'NONE', *, *, #245, .F. ) ;
#152 = DIRECTION ( 'NONE',  ( 6.123233995736766000E-017, 1.000000000000000000, 0.0000000000000000000 ) ) ;
#153 = ORIENTED_EDGE ( 'NONE', *, *, #21, .T. ) ;
#154 = ORIENTED_EDGE ( 'NONE', *, *, #66, .T. ) ;
#155 = FACE_OUTER_BOUND ( 'NONE', #157, .T. ) ;
#156 = AXIS2_PLACEMENT_3D ( 'NONE', #165, #146, #256 ) ;
#157 = EDGE_LOOP ( 'NONE', ( #269, #38, #50, #246, #214 ) ) ;
#158 = CARTESIAN_POINT ( 'NONE',  ( 0.0000000000000000000, 1.530808498934191200E-014, 124.9999999999999900 ) ) ;
#159 = CARTESIAN_POINT ( 'NONE',  ( 1375.000000000000000, 1175.000000000000000, -124.9999999999999900 ) ) ;
#160 = CARTESIAN_POINT ( 'NONE',  ( 1500.000000000000000, 375.0000000000000000, 0.0000000000000000000 ) ) ;
#161 = AXIS2_PLACEMENT_3D ( 'NONE', #72, #207, #8 ) ;
#162 = PRODUCT ( 'curve_L_2D_with_caps_merged', 'curve_L_2D_with_caps_merged', '', ( #215 ) ) ;
#163 = CARTESIAN_POINT ( 'NONE',  ( 1375.000000000000000, 375.0000000000000000, -124.9999999999999900 ) ) ;
#164 = CIRCLE ( 'NONE', #263, 124.9999999999999900 ) ;
#165 = CARTESIAN_POINT ( 'NONE',  ( 0.0000000000000000000, 0.0000000000000000000, 0.0000000000000000000 ) ) ;
#166 = DIRECTION ( 'NONE',  ( 0.0000000000000000000, 1.000000000000000000, 0.0000000000000000000 ) ) ;
#167 = APPLICATION_CONTEXT ( 'automotive_design' ) ;
#168 = VERTEX_POINT ( 'NONE', #32 ) ;
#169 =( LENGTH_UNIT ( ) NAMED_UNIT ( * ) SI_UNIT ( .MILLI., .METRE. ) );
#170 = VERTEX_POINT ( 'NONE', #80 ) ;
#171 = EDGE_CURVE ( 'NONE', #260, #2, #164, .T. ) ;
#172 = VECTOR ( 'NONE', #78, 1000.000000000000000 ) ;
#173 = VERTEX_POINT ( 'NONE', #249 ) ;
#174 = ORIENTED_EDGE ( 'NONE', *, *, #15, .T. ) ;
#175 = SURFACE_STYLE_FILL_AREA ( #81 ) ;
#176 = ORIENTED_EDGE ( 'NONE', *, *, #140, .F. ) ;
#177 = AXIS2_PLACEMENT_3D ( 'NONE', #64, #107, #259 ) ;
#178 = FACE_OUTER_BOUND ( 'NONE', #91, .T. ) ;
#179 = TOROIDAL_SURFACE ( 'NONE', #254, 375.0000000000000000, 124.9999999999999900 ) ;
#180 = ORIENTED_EDGE ( 'NONE', *, *, #140, .T. ) ;
#181 = CARTESIAN_POINT ( 'NONE',  ( 1000.000000000000000, 375.0000000000000000, -1.530808498934191200E-014 ) ) ;
#182 = DIRECTION ( 'NONE',  ( 0.0000000000000000000, 0.0000000000000000000, -1.000000000000000000 ) ) ;
#183 = CARTESIAN_POINT ( 'NONE',  ( 1375.000000000000000, 375.0000000000000000, 0.0000000000000000000 ) ) ;
#184 = EDGE_CURVE ( 'NONE', #139, #134, #3, .T. ) ;
#185 = CIRCLE ( 'NONE', #208, 124.9999999999999900 ) ;
#186 = CARTESIAN_POINT ( 'NONE',  ( 0.0000000000000000000, 0.0000000000000000000, 0.0000000000000000000 ) ) ;
#187 = CARTESIAN_POINT ( 'NONE',  ( 0.0000000000000000000, 0.0000000000000000000, -124.9999999999999900 ) ) ;
#188 = VERTEX_POINT ( 'NONE', #228 ) ;
#189 = CARTESIAN_POINT ( 'NONE',  ( 0.0000000000000000000, 0.0000000000000000000, 0.0000000000000000000 ) ) ;
#190 = DIRECTION ( 'NONE',  ( 0.0000000000000000000, 0.0000000000000000000, 1.000000000000000000 ) ) ;
#191 = AXIS2_PLACEMENT_3D ( 'NONE', #186, #28, #55 ) ;
#192 = APPLICATION_CONTEXT ( 'automotive_design' ) ;
#193 = PRESENTATION_STYLE_ASSIGNMENT (( #274 ) ) ;
#194 = CARTESIAN_POINT ( 'NONE',  ( 0.0000000000000000000, 0.0000000000000000000, -124.9999999999999900 ) ) ;
#195 = PRODUCT_CONTEXT ( 'NONE', #167, 'mechanical' ) ;
#196 = CIRCLE ( 'NONE', #58, 124.9999999999999900 ) ;
#197 = ADVANCED_FACE ( 'NONE', ( #281 ), #14, .T. ) ;
#198 = AXIS2_PLACEMENT_3D ( 'NONE', #216, #85, #112 ) ;
#199 = ORIENTED_EDGE ( 'NONE', *, *, #200, .F. ) ;
#200 = EDGE_CURVE ( 'NONE', #204, #139, #48, .T. ) ;
#201 = CYLINDRICAL_SURFACE ( 'NONE', #89, 124.9999999999999900 ) ;
#202 = CARTESIAN_POINT ( 'NONE',  ( 1375.000000000000000, 375.0000000000000000, 0.0000000000000000000 ) ) ;
#203 = EDGE_CURVE ( 'NONE', #13, #170, #109, .T. ) ;
#204 = VERTEX_POINT ( 'NONE', #160 ) ;
#205 = PRODUCT_DEFINITION_SHAPE ( 'NONE', 'NONE',  #271 ) ;
#206 = DIRECTION ( 'NONE',  ( 6.123233995736766000E-017, 1.000000000000000000, 0.0000000000000000000 ) ) ;
#207 = DIRECTION ( 'NONE',  ( 0.0000000000000000000, 0.0000000000000000000, 1.000000000000000000 ) ) ;
#208 = AXIS2_PLACEMENT_3D ( 'NONE', #202, #152, #282 ) ;
#209 = ORIENTED_EDGE ( 'NONE', *, *, #125, .T. ) ;
#210 = DIRECTION ( 'NONE',  ( 1.000000000000000000, 0.0000000000000000000, 0.0000000000000000000 ) ) ;
#211 = AXIS2_PLACEMENT_3D ( 'NONE', #181, #116, #268 ) ;
#212 = CARTESIAN_POINT ( 'NONE',  ( 1375.000000000000000, 1175.000000000000000, 0.0000000000000000000 ) ) ;
#213 =( NAMED_UNIT ( * ) PLANE_ANGLE_UNIT ( ) SI_UNIT ( $, .RADIAN. ) );
#214 = ORIENTED_EDGE ( 'NONE', *, *, #66, .F. ) ;
#215 = PRODUCT_CONTEXT ( 'NONE', #192, 'mechanical' ) ;
#216 = CARTESIAN_POINT ( 'NONE',  ( 1000.000000000000000, 0.0000000000000000000, 0.0000000000000000000 ) ) ;
#217 = APPLICATION_PROTOCOL_DEFINITION ( 'draft international standard', 'automotive_design', 1998, #279 ) ;
#218 = EDGE_CURVE ( 'NONE', #134, #170, #113, .T. ) ;
#219 = PRODUCT_RELATED_PRODUCT_CATEGORY ( 'part', '', ( #162 ) ) ;
#220 = CIRCLE ( 'NONE', #280, 124.9999999999999900 ) ;
#221 = ORIENTED_EDGE ( 'NONE', *, *, #92, .T. ) ;
#222 = STYLED_ITEM ( 'NONE', ( #193 ), #243 ) ;
#223 = COLOUR_RGB ( '',0.7921568627450980000, 0.8196078431372548800, 0.9333333333333333500 ) ;
#224 = ORIENTED_EDGE ( 'NONE', *, *, #218, .T. ) ;
#225 = CYLINDRICAL_SURFACE ( 'NONE', #191, 124.9999999999999900 ) ;
#226 = EDGE_LOOP ( 'NONE', ( #104, #174, #221, #153, #278, #199 ) ) ;
#227 = CARTESIAN_POINT ( 'NONE',  ( 1375.000000000000000, 375.0000000000000000, 0.0000000000000000000 ) ) ;
#228 = CARTESIAN_POINT ( 'NONE',  ( 1000.000000000000000, 124.9999999999999900, -1.530808498934190900E-014 ) ) ;
#229 = DIRECTION ( 'NONE',  ( 1.000000000000000000, 0.0000000000000000000, 0.0000000000000000000 ) ) ;
#230 = EDGE_CURVE ( 'NONE', #2, #173, #232, .T. ) ;
#231 = CARTESIAN_POINT ( 'NONE',  ( 0.0000000000000000000, 0.0000000000000000000, 0.0000000000000000000 ) ) ;
#232 = LINE ( 'NONE', #118, #123 ) ;
#233 = DIRECTION ( 'NONE',  ( 0.0000000000000000000, 0.0000000000000000000, -1.000000000000000000 ) ) ;
#234 = ORIENTED_EDGE ( 'NONE', *, *, #258, .T. ) ;
#235 = CARTESIAN_POINT ( 'NONE',  ( 1375.000000000000000, 375.0000000000000000, 124.9999999999999900 ) ) ;
#236 = AXIS2_PLACEMENT_3D ( 'NONE', #183, #77, #233 ) ;
#237 = FACE_OUTER_BOUND ( 'NONE', #33, .T. ) ;
#238 = CIRCLE ( 'NONE', #198, 124.9999999999999900 ) ;
#239 = AXIS2_PLACEMENT_3D ( 'NONE', #41, #106, #68 ) ;
#240 = ORIENTED_EDGE ( 'NONE', *, *, #184, .F. ) ;
#241 = ADVANCED_FACE ( 'NONE', ( #155 ), #225, .T. ) ;
#242 = ORIENTED_EDGE ( 'NONE', *, *, #47, .T. ) ;
#243 = MANIFOLD_SURFACE_SHAPE_REPRESENTATION ( 'curve_L_2D_with_caps_merged', ( #79, #156 ), #6 ) ;
#244 = CIRCLE ( 'NONE', #136, 124.9999999999999900 ) ;
#245 = EDGE_CURVE ( 'NONE', #2, #260, #244, .T. ) ;
#246 = ORIENTED_EDGE ( 'NONE', *, *, #15, .F. ) ;
#247 = UNCERTAINTY_MEASURE_WITH_UNIT (LENGTH_MEASURE( 1.000000000000000100E-005 ), #128, 'distance_accuracy_value', 'NONE');
#248 = AXIS2_PLACEMENT_3D ( 'NONE', #267, #11, #7 ) ;
#249 = CARTESIAN_POINT ( 'NONE',  ( 1000.000000000000000, 1.530808498934191200E-014, 124.9999999999999900 ) ) ;
#250 = CIRCLE ( 'NONE', #150, 124.9999999999999900 ) ;
#251 = CARTESIAN_POINT ( 'NONE',  ( 1375.000000000000000, 375.0000000000000000, 0.0000000000000000000 ) ) ;
#252 = DIRECTION ( 'NONE',  ( 0.0000000000000000000, 0.0000000000000000000, 1.000000000000000000 ) ) ;
#253 = DIRECTION ( 'NONE',  ( 0.0000000000000000000, 0.0000000000000000000, -1.000000000000000000 ) ) ;
#254 = AXIS2_PLACEMENT_3D ( 'NONE', #126, #190, #59 ) ;
#255 = AXIS2_PLACEMENT_3D ( 'NONE', #98, #35, #9 ) ;
#256 = DIRECTION ( 'NONE',  ( 1.000000000000000000, 0.0000000000000000000, 0.0000000000000000000 ) ) ;
#257 = DIRECTION ( 'NONE',  ( 0.0000000000000000000, 0.0000000000000000000, -1.000000000000000000 ) ) ;
#258 = EDGE_CURVE ( 'NONE', #13, #204, #86, .T. ) ;
#259 = DIRECTION ( 'NONE',  ( 0.0000000000000000000, 0.0000000000000000000, -1.000000000000000000 ) ) ;
#260 = VERTEX_POINT ( 'NONE', #187 ) ;
#261 = PRODUCT_DEFINITION ( 'UNKNOWN', '', #49, #84 ) ;
#262 =( GEOMETRIC_REPRESENTATION_CONTEXT ( 3 ) GLOBAL_UNCERTAINTY_ASSIGNED_CONTEXT ( ( #265 ) ) GLOBAL_UNIT_ASSIGNED_CONTEXT ( ( #169, #213, #17 ) ) REPRESENTATION_CONTEXT ( 'NONE', 'WORKASPACE' ) );
#263 = AXIS2_PLACEMENT_3D ( 'NONE', #189, #96, #73 ) ;
#264 = DIRECTION ( 'NONE',  ( 1.000000000000000000, 0.0000000000000000000, 0.0000000000000000000 ) ) ;
#265 = UNCERTAINTY_MEASURE_WITH_UNIT (LENGTH_MEASURE( 1.000000000000000100E-005 ), #169, 'distance_accuracy_value', 'NONE');
#266 = EDGE_LOOP ( 'NONE', ( #110, #93, #127, #5, #34 ) ) ;
#267 = CARTESIAN_POINT ( 'NONE',  ( 1375.000000000000000, 1175.000000000000000, 0.0000000000000000000 ) ) ;
#268 = DIRECTION ( 'NONE',  ( 1.000000000000000000, 0.0000000000000000000, 0.0000000000000000000 ) ) ;
#269 = ORIENTED_EDGE ( 'NONE', *, *, #230, .F. ) ;
#270 = DIRECTION ( 'NONE',  ( 1.000000000000000000, 0.0000000000000000000, 0.0000000000000000000 ) ) ;
#271 = PRODUCT_DEFINITION ( 'UNKNOWN', '', #133, #37 ) ;
#272 = VECTOR ( 'NONE', #166, 1000.000000000000000 ) ;
#273 = APPLICATION_PROTOCOL_DEFINITION ( 'draft international standard', 'automotive_design', 1998, #36 ) ;
#274 = SURFACE_STYLE_USAGE ( .BOTH. , #105 ) ;
#275 = ORIENTED_EDGE ( 'NONE', *, *, #171, .F. ) ;
#276 = AXIS2_PLACEMENT_3D ( 'NONE', #231, #210, #101 ) ;
#277 = ADVANCED_FACE ( 'NONE', ( #137 ), #148, .T. ) ;
#278 = ORIENTED_EDGE ( 'NONE', *, *, #125, .F. ) ;
#279 = APPLICATION_CONTEXT ( 'automotive_design' ) ;
#280 = AXIS2_PLACEMENT_3D ( 'NONE', #212, #206, #124 ) ;
#281 = FACE_OUTER_BOUND ( 'NONE', #60, .T. ) ;
#282 = DIRECTION ( 'NONE',  ( 0.0000000000000000000, 0.0000000000000000000, -1.000000000000000000 ) ) ;
ENDSEC;
END-ISO-10303-21;
