ISO-10303-21;
HEADER;
FILE_DESCRIPTION (( 'STEP AP214' ),
    '1' );
FILE_NAME ('curve_L_3D.STEP',
    '2025-01-21T03:06:10',
    ( '' ),
    ( '' ),
    'SwSTEP 2.0',
    'SolidWorks 2015',
    '' );
FILE_SCHEMA (( 'AUTOMOTIVE_DESIGN' ));
ENDSEC;

DATA;
#1 = AXIS2_PLACEMENT_3D ( 'NONE', #66, #164, #73 ) ;
#2 = FACE_OUTER_BOUND ( 'NONE', #195, .T. ) ;
#3 = VERTEX_POINT ( 'NONE', #278 ) ;
#4 = CARTESIAN_POINT ( 'NONE',  ( 1000.000000000000000, 375.0000000000000000, 0.0000000000000000000 ) ) ;
#5 = CARTESIAN_POINT ( 'NONE',  ( 1250.000000000000000, 375.0000000000000000, -1.530808498934190900E-014 ) ) ;
#6 = AXIS2_PLACEMENT_3D ( 'NONE', #274, #56, #127 ) ;
#7 = DIRECTION ( 'NONE',  ( 6.123233995736766000E-017, 1.000000000000000000, 0.0000000000000000000 ) ) ;
#8 = CARTESIAN_POINT ( 'NONE',  ( 1000.000000000000000, 0.0000000000000000000, 124.9999999999999900 ) ) ;
#9 = VERTEX_POINT ( 'NONE', #62 ) ;
#10 = CARTESIAN_POINT ( 'NONE',  ( 1375.000000000000000, 375.0000000000000000, -124.9999999999999900 ) ) ;
#11 = CARTESIAN_POINT ( 'NONE',  ( 0.0000000000000000000, 0.0000000000000000000, 0.0000000000000000000 ) ) ;
#12 = PRODUCT ( 'curve_L_3D', 'curve_L_3D', '', ( #43 ) ) ;
#13 = CARTESIAN_POINT ( 'NONE',  ( 1500.000000000000000, 375.0000000000000000, 0.0000000000000000000 ) ) ;
#14 = VERTEX_POINT ( 'NONE', #5 ) ;
#15 = DIRECTION ( 'NONE',  ( 0.0000000000000000000, 0.0000000000000000000, -1.000000000000000000 ) ) ;
#16 = SURFACE_STYLE_USAGE ( .BOTH. , #117 ) ;
#17 = EDGE_CURVE ( 'NONE', #30, #20, #237, .T. ) ;
#18 = CARTESIAN_POINT ( 'NONE',  ( 1000.000000000000000, 0.0000000000000000000, 0.0000000000000000000 ) ) ;
#19 = DIRECTION ( 'NONE',  ( 0.0000000000000000000, 1.000000000000000000, 0.0000000000000000000 ) ) ;
#20 = VERTEX_POINT ( 'NONE', #233 ) ;
#21 = PRODUCT_DEFINITION ( 'UNKNOWN', '', #147, #189 ) ;
#22 = AXIS2_PLACEMENT_3D ( 'NONE', #283, #179, #138 ) ;
#23 = CIRCLE ( 'NONE', #53, 250.0000000000000000 ) ;
#24 = EDGE_LOOP ( 'NONE', ( #191, #157 ) ) ;
#25 = ORIENTED_EDGE ( 'NONE', *, *, #196, .F. ) ;
#26 = EDGE_CURVE ( 'NONE', #14, #256, #119, .T. ) ;
#27 = CIRCLE ( 'NONE', #190, 124.9999999999999900 ) ;
#28 = CARTESIAN_POINT ( 'NONE',  ( 1000.000000000000000, 1.530808498934191200E-014, -124.9999999999999900 ) ) ;
#29 = CYLINDRICAL_SURFACE ( 'NONE', #49, 124.9999999999999900 ) ;
#30 = VERTEX_POINT ( 'NONE', #28 ) ;
#31 = DIRECTION ( 'NONE',  ( 6.123233995736766000E-017, 1.000000000000000000, 0.0000000000000000000 ) ) ;
#32 = CARTESIAN_POINT ( 'NONE',  ( 1000.000000000000000, 1.530808498934191200E-014, -124.9999999999999900 ) ) ;
#33 = DIRECTION ( 'NONE',  ( 0.0000000000000000000, 0.0000000000000000000, -1.000000000000000000 ) ) ;
#34 = PRODUCT_DEFINITION ( 'UNKNOWN', '', #297, #167 ) ;
#35 = CARTESIAN_POINT ( 'NONE',  ( 0.0000000000000000000, 0.0000000000000000000, 0.0000000000000000000 ) ) ;
#36 = DIRECTION ( 'NONE',  ( 6.123233995736766000E-017, 1.000000000000000000, 0.0000000000000000000 ) ) ;
#37 = CARTESIAN_POINT ( 'NONE',  ( 1000.000000000000000, 0.0000000000000000000, 0.0000000000000000000 ) ) ;
#38 = CARTESIAN_POINT ( 'NONE',  ( 1375.000000000000000, 1175.000000000000000, 124.9999999999999900 ) ) ;
#39 = CARTESIAN_POINT ( 'NONE',  ( 1375.000000000000000, 1175.000000000000000, 0.0000000000000000000 ) ) ;
#40 = PLANE ( 'NONE',  #268 ) ;
#41 = ORIENTED_EDGE ( 'NONE', *, *, #296, .F. ) ;
#42 =( LENGTH_UNIT ( ) NAMED_UNIT ( * ) SI_UNIT ( .MILLI., .METRE. ) );
#43 = PRODUCT_CONTEXT ( 'NONE', #221, 'mechanical' ) ;
#44 = EDGE_CURVE ( 'NONE', #145, #255, #211, .T. ) ;
#45 = AXIS2_PLACEMENT_3D ( 'NONE', #152, #258, #107 ) ;
#46 = FILL_AREA_STYLE ('',( #161 ) ) ;
#47 = ADVANCED_FACE ( 'NONE', ( #95 ), #247, .T. ) ;
#48 = PRODUCT_DEFINITION_SHAPE ( 'NONE', 'NONE',  #34 ) ;
#49 = AXIS2_PLACEMENT_3D ( 'NONE', #131, #113, #279 ) ;
#50 = VERTEX_POINT ( 'NONE', #150 ) ;
#51 = EDGE_CURVE ( 'NONE', #3, #198, #97, .T. ) ;
#52 = PRODUCT_RELATED_PRODUCT_CATEGORY ( 'part', '', ( #86 ) ) ;
#53 = AXIS2_PLACEMENT_3D ( 'NONE', #136, #236, #158 ) ;
#54 = VECTOR ( 'NONE', #234, 1000.000000000000000 ) ;
#55 = ORIENTED_EDGE ( 'NONE', *, *, #17, .F. ) ;
#56 = DIRECTION ( 'NONE',  ( 0.0000000000000000000, 0.0000000000000000000, 1.000000000000000000 ) ) ;
#57 = AXIS2_PLACEMENT_3D ( 'NONE', #239, #72, #289 ) ;
#58 =( GEOMETRIC_REPRESENTATION_CONTEXT ( 3 ) GLOBAL_UNCERTAINTY_ASSIGNED_CONTEXT ( ( #254 ) ) GLOBAL_UNIT_ASSIGNED_CONTEXT ( ( #116, #199, #114 ) ) REPRESENTATION_CONTEXT ( 'NONE', 'WORKASPACE' ) );
#59 = EDGE_CURVE ( 'NONE', #3, #14, #23, .T. ) ;
#60 = PLANE ( 'NONE',  #45 ) ;
#61 = AXIS2_PLACEMENT_3D ( 'NONE', #18, #140, #15 ) ;
#62 = CARTESIAN_POINT ( 'NONE',  ( 1375.000000000000000, 375.0000000000000000, -124.9999999999999900 ) ) ;
#63 = EDGE_LOOP ( 'NONE', ( #55, #82, #175, #78, #79 ) ) ;
#64 = DIRECTION ( 'NONE',  ( 0.0000000000000000000, 0.0000000000000000000, -1.000000000000000000 ) ) ;
#65 = DIRECTION ( 'NONE',  ( -1.000000000000000000, -0.0000000000000000000, -0.0000000000000000000 ) ) ;
#66 = CARTESIAN_POINT ( 'NONE',  ( 1000.000000000000000, 0.0000000000000000000, 0.0000000000000000000 ) ) ;
#67 = CIRCLE ( 'NONE', #281, 124.9999999999999900 ) ;
#68 = MECHANICAL_DESIGN_GEOMETRIC_PRESENTATION_REPRESENTATION (  '', ( #111 ), #275 ) ;
#69 = ORIENTED_EDGE ( 'NONE', *, *, #44, .F. ) ;
#70 = DIRECTION ( 'NONE',  ( 6.123233995736766000E-017, 1.000000000000000000, 0.0000000000000000000 ) ) ;
#71 = APPLICATION_PROTOCOL_DEFINITION ( 'draft international standard', 'automotive_design', 1998, #202 ) ;
#72 = DIRECTION ( 'NONE',  ( 0.0000000000000000000, 0.0000000000000000000, 1.000000000000000000 ) ) ;
#73 = DIRECTION ( 'NONE',  ( 0.0000000000000000000, 0.0000000000000000000, -1.000000000000000000 ) ) ;
#74 = AXIS2_PLACEMENT_3D ( 'NONE', #35, #154, #217 ) ;
#75 = EDGE_CURVE ( 'NONE', #20, #214, #67, .T. ) ;
#76 = STYLED_ITEM ( 'NONE', ( #169 ), #271 ) ;
#77 = CIRCLE ( 'NONE', #100, 124.9999999999999900 ) ;
#78 = ORIENTED_EDGE ( 'NONE', *, *, #203, .T. ) ;
#79 = ORIENTED_EDGE ( 'NONE', *, *, #148, .T. ) ;
#80 = CIRCLE ( 'NONE', #1, 124.9999999999999900 ) ;
#81 = CARTESIAN_POINT ( 'NONE',  ( 1375.000000000000000, 375.0000000000000000, 0.0000000000000000000 ) ) ;
#82 = ORIENTED_EDGE ( 'NONE', *, *, #259, .F. ) ;
#83 = CARTESIAN_POINT ( 'NONE',  ( 1000.000000000000000, 375.0000000000000000, 0.0000000000000000000 ) ) ;
#84 = DIRECTION ( 'NONE',  ( 0.0000000000000000000, 1.000000000000000000, 0.0000000000000000000 ) ) ;
#85 = DIRECTION ( 'NONE',  ( 0.0000000000000000000, 0.0000000000000000000, -1.000000000000000000 ) ) ;
#86 = PRODUCT ( 'curve_L_3D', 'curve_L_3D', '', ( #91 ) ) ;
#87 = CIRCLE ( 'NONE', #288, 124.9999999999999900 ) ;
#88 = CARTESIAN_POINT ( 'NONE',  ( 1375.000000000000000, 375.0000000000000000, 0.0000000000000000000 ) ) ;
#89 = DIRECTION ( 'NONE',  ( 1.000000000000000000, 0.0000000000000000000, 0.0000000000000000000 ) ) ;
#90 = CARTESIAN_POINT ( 'NONE',  ( 1000.000000000000000, 0.0000000000000000000, 0.0000000000000000000 ) ) ;
#91 = PRODUCT_CONTEXT ( 'NONE', #139, 'mechanical' ) ;
#92 = ORIENTED_EDGE ( 'NONE', *, *, #51, .F. ) ;
#93 = CARTESIAN_POINT ( 'NONE',  ( 1375.000000000000000, 375.0000000000000000, 0.0000000000000000000 ) ) ;
#94 = EDGE_CURVE ( 'NONE', #256, #277, #186, .T. ) ;
#95 = FACE_OUTER_BOUND ( 'NONE', #134, .T. ) ;
#96 = ORIENTED_EDGE ( 'NONE', *, *, #296, .T. ) ;
#97 = CIRCLE ( 'NONE', #225, 124.9999999999999900 ) ;
#98 = CYLINDRICAL_SURFACE ( 'NONE', #22, 124.9999999999999900 ) ;
#99 = ORIENTED_EDGE ( 'NONE', *, *, #59, .T. ) ;
#100 = AXIS2_PLACEMENT_3D ( 'NONE', #280, #130, #232 ) ;
#101 = PRODUCT_DEFINITION_SHAPE ( 'NONE', 'NONE',  #21 ) ;
#102 = DIRECTION ( 'NONE',  ( 0.0000000000000000000, 0.0000000000000000000, 1.000000000000000000 ) ) ;
#103 = ORIENTED_EDGE ( 'NONE', *, *, #172, .F. ) ;
#104 = AXIS2_PLACEMENT_3D ( 'NONE', #159, #31, #109 ) ;
#105 = CARTESIAN_POINT ( 'NONE',  ( 1375.000000000000000, 375.0000000000000000, 124.9999999999999900 ) ) ;
#106 = EDGE_CURVE ( 'NONE', #50, #277, #155, .T. ) ;
#107 = DIRECTION ( 'NONE',  ( 0.0000000000000000000, 0.0000000000000000000, -1.000000000000000000 ) ) ;
#108 = AXIS2_PLACEMENT_3D ( 'NONE', #125, #7, #33 ) ;
#109 = DIRECTION ( 'NONE',  ( 0.0000000000000000000, 0.0000000000000000000, -1.000000000000000000 ) ) ;
#110 = ORIENTED_EDGE ( 'NONE', *, *, #51, .T. ) ;
#111 = STYLED_ITEM ( 'NONE', ( #210 ), #215 ) ;
#112 = DIRECTION ( 'NONE',  ( 0.0000000000000000000, 0.0000000000000000000, 1.000000000000000000 ) ) ;
#113 = DIRECTION ( 'NONE',  ( -1.000000000000000000, -0.0000000000000000000, -0.0000000000000000000 ) ) ;
#114 =( NAMED_UNIT ( * ) SI_UNIT ( $, .STERADIAN. ) SOLID_ANGLE_UNIT ( ) );
#115 = FACE_OUTER_BOUND ( 'NONE', #24, .T. ) ;
#116 =( LENGTH_UNIT ( ) NAMED_UNIT ( * ) SI_UNIT ( .MILLI., .METRE. ) );
#117 = SURFACE_SIDE_STYLE ('',( #282 ) ) ;
#118 = AXIS2_PLACEMENT_3D ( 'NONE', #88, #132, #291 ) ;
#119 = CIRCLE ( 'NONE', #108, 124.9999999999999900 ) ;
#120 = ORIENTED_EDGE ( 'NONE', *, *, #26, .F. ) ;
#121 = ORIENTED_EDGE ( 'NONE', *, *, #106, .F. ) ;
#122 = MECHANICAL_DESIGN_GEOMETRIC_PRESENTATION_REPRESENTATION (  '', ( #76 ), #224 ) ;
#123 = VECTOR ( 'NONE', #84, 1000.000000000000000 ) ;
#124 = ORIENTED_EDGE ( 'NONE', *, *, #75, .T. ) ;
#125 = CARTESIAN_POINT ( 'NONE',  ( 1375.000000000000000, 375.0000000000000000, 0.0000000000000000000 ) ) ;
#126 = EDGE_CURVE ( 'NONE', #198, #145, #87, .T. ) ;
#127 = DIRECTION ( 'NONE',  ( 1.000000000000000000, 0.0000000000000000000, 0.0000000000000000000 ) ) ;
#128 = ORIENTED_EDGE ( 'NONE', *, *, #178, .F. ) ;
#129 = DIRECTION ( 'NONE',  ( 0.0000000000000000000, 1.000000000000000000, 0.0000000000000000000 ) ) ;
#130 = DIRECTION ( 'NONE',  ( 6.123233995736766000E-017, 1.000000000000000000, 0.0000000000000000000 ) ) ;
#131 = CARTESIAN_POINT ( 'NONE',  ( 1000.000000000000000, 0.0000000000000000000, 0.0000000000000000000 ) ) ;
#132 = DIRECTION ( 'NONE',  ( 6.123233995736766000E-017, 1.000000000000000000, 0.0000000000000000000 ) ) ;
#133 = CIRCLE ( 'NONE', #61, 124.9999999999999900 ) ;
#134 = EDGE_LOOP ( 'NONE', ( #69, #213, #96, #99, #25, #248 ) ) ;
#135 = FACE_OUTER_BOUND ( 'NONE', #151, .T. ) ;
#136 = CARTESIAN_POINT ( 'NONE',  ( 1000.000000000000000, 375.0000000000000000, -1.530808498934191200E-014 ) ) ;
#137 =( NAMED_UNIT ( * ) PLANE_ANGLE_UNIT ( ) SI_UNIT ( $, .RADIAN. ) );
#138 = DIRECTION ( 'NONE',  ( 0.0000000000000000000, 0.0000000000000000000, 1.000000000000000000 ) ) ;
#139 = APPLICATION_CONTEXT ( 'automotive_design' ) ;
#140 = DIRECTION ( 'NONE',  ( 1.000000000000000000, 0.0000000000000000000, 0.0000000000000000000 ) ) ;
#141 = APPLICATION_PROTOCOL_DEFINITION ( 'draft international standard', 'automotive_design', 1998, #204 ) ;
#142 = ADVANCED_FACE ( 'NONE', ( #205 ), #98, .T. ) ;
#143 =( NAMED_UNIT ( * ) SI_UNIT ( $, .STERADIAN. ) SOLID_ANGLE_UNIT ( ) );
#144 = CYLINDRICAL_SURFACE ( 'NONE', #212, 124.9999999999999900 ) ;
#145 = VERTEX_POINT ( 'NONE', #173 ) ;
#146 = AXIS2_PLACEMENT_3D ( 'NONE', #39, #36, #235 ) ;
#147 = PRODUCT_DEFINITION_FORMATION_WITH_SPECIFIED_SOURCE ( 'ANY', '', #12, .NOT_KNOWN. ) ;
#148 = EDGE_CURVE ( 'NONE', #214, #20, #249, .T. ) ;
#149 = CIRCLE ( 'NONE', #104, 124.9999999999999900 ) ;
#150 = CARTESIAN_POINT ( 'NONE',  ( 1375.000000000000000, 1175.000000000000000, -124.9999999999999900 ) ) ;
#151 = EDGE_LOOP ( 'NONE', ( #41, #218, #124, #269, #92 ) ) ;
#152 = CARTESIAN_POINT ( 'NONE',  ( 0.0000000000000000000, 0.0000000000000000000, 0.0000000000000000000 ) ) ;
#153 = DIRECTION ( 'NONE',  ( 1.000000000000000000, 0.0000000000000000000, 0.0000000000000000000 ) ) ;
#154 = DIRECTION ( 'NONE',  ( 1.000000000000000000, 0.0000000000000000000, 0.0000000000000000000 ) ) ;
#155 = CIRCLE ( 'NONE', #146, 124.9999999999999900 ) ;
#156 = ORIENTED_EDGE ( 'NONE', *, *, #148, .F. ) ;
#157 = ORIENTED_EDGE ( 'NONE', *, *, #106, .T. ) ;
#158 = DIRECTION ( 'NONE',  ( 1.000000000000000000, 0.0000000000000000000, 0.0000000000000000000 ) ) ;
#159 = CARTESIAN_POINT ( 'NONE',  ( 1375.000000000000000, 1175.000000000000000, 0.0000000000000000000 ) ) ;
#160 = AXIS2_PLACEMENT_3D ( 'NONE', #93, #19, #182 ) ;
#161 = FILL_AREA_STYLE_COLOUR ( '', #227 ) ;
#162 = EDGE_LOOP ( 'NONE', ( #156, #272 ) ) ;
#163 = DIRECTION ( 'NONE',  ( 1.000000000000000000, 0.0000000000000000000, 0.0000000000000000000 ) ) ;
#164 = DIRECTION ( 'NONE',  ( 1.000000000000000000, 0.0000000000000000000, 0.0000000000000000000 ) ) ;
#165 = SHAPE_DEFINITION_REPRESENTATION ( #101, #215 ) ;
#166 = PRODUCT_RELATED_PRODUCT_CATEGORY ( 'part', '', ( #12 ) ) ;
#167 = PRODUCT_DEFINITION_CONTEXT ( 'detailed design', #202, 'design' ) ;
#168 = UNCERTAINTY_MEASURE_WITH_UNIT (LENGTH_MEASURE( 1.000000000000000100E-005 ), #222, 'distance_accuracy_value', 'NONE');
#169 = PRESENTATION_STYLE_ASSIGNMENT (( #223 ) ) ;
#170 = PRESENTATION_LAYER_ASSIGNMENT (  '', '', ( #76 ) ) ;
#171 = ORIENTED_EDGE ( 'NONE', *, *, #26, .T. ) ;
#172 = EDGE_CURVE ( 'NONE', #277, #50, #149, .T. ) ;
#173 = CARTESIAN_POINT ( 'NONE',  ( 1000.000000000000000, -125.0000000000000000, 0.0000000000000000000 ) ) ;
#174 = DIRECTION ( 'NONE',  ( 0.0000000000000000000, 0.0000000000000000000, 1.000000000000000000 ) ) ;
#175 = ORIENTED_EDGE ( 'NONE', *, *, #126, .F. ) ;
#176 = CARTESIAN_POINT ( 'NONE',  ( 1000.000000000000000, 0.0000000000000000000, 124.9999999999999900 ) ) ;
#177 = CARTESIAN_POINT ( 'NONE',  ( 1375.000000000000000, 375.0000000000000000, 124.9999999999999900 ) ) ;
#178 = EDGE_CURVE ( 'NONE', #256, #255, #27, .T. ) ;
#179 = DIRECTION ( 'NONE',  ( -1.000000000000000000, -0.0000000000000000000, -0.0000000000000000000 ) ) ;
#180 = LINE ( 'NONE', #176, #193 ) ;
#181 = ORIENTED_EDGE ( 'NONE', *, *, #178, .T. ) ;
#182 = DIRECTION ( 'NONE',  ( 0.0000000000000000000, 0.0000000000000000000, 1.000000000000000000 ) ) ;
#183 =( NAMED_UNIT ( * ) PLANE_ANGLE_UNIT ( ) SI_UNIT ( $, .RADIAN. ) );
#184 = FILL_AREA_STYLE_COLOUR ( '', #266 ) ;
#185 = ORIENTED_EDGE ( 'NONE', *, *, #250, .T. ) ;
#186 = LINE ( 'NONE', #105, #54 ) ;
#187 = ADVANCED_FACE ( 'NONE', ( #257 ), #60, .F. ) ;
#188 = EDGE_CURVE ( 'NONE', #9, #50, #220, .T. ) ;
#189 = PRODUCT_DEFINITION_CONTEXT ( 'detailed design', #204, 'design' ) ;
#190 = AXIS2_PLACEMENT_3D ( 'NONE', #194, #252, #64 ) ;
#191 = ORIENTED_EDGE ( 'NONE', *, *, #172, .T. ) ;
#192 = ORIENTED_EDGE ( 'NONE', *, *, #196, .T. ) ;
#193 = VECTOR ( 'NONE', #65, 1000.000000000000000 ) ;
#194 = CARTESIAN_POINT ( 'NONE',  ( 1375.000000000000000, 375.0000000000000000, 0.0000000000000000000 ) ) ;
#195 = EDGE_LOOP ( 'NONE', ( #209, #273, #128, #120, #197, #110 ) ) ;
#196 = EDGE_CURVE ( 'NONE', #9, #14, #77, .T. ) ;
#197 = ORIENTED_EDGE ( 'NONE', *, *, #59, .F. ) ;
#198 = VERTEX_POINT ( 'NONE', #8 ) ;
#199 =( NAMED_UNIT ( * ) PLANE_ANGLE_UNIT ( ) SI_UNIT ( $, .RADIAN. ) );
#200 = AXIS2_PLACEMENT_3D ( 'NONE', #83, #112, #219 ) ;
#201 = AXIS2_PLACEMENT_3D ( 'NONE', #242, #264, #89 ) ;
#202 = APPLICATION_CONTEXT ( 'automotive_design' ) ;
#203 = EDGE_CURVE ( 'NONE', #198, #214, #180, .T. ) ;
#204 = APPLICATION_CONTEXT ( 'automotive_design' ) ;
#205 = FACE_OUTER_BOUND ( 'NONE', #63, .T. ) ;
#206 = EDGE_LOOP ( 'NONE', ( #294, #192, #171, #230, #121 ) ) ;
#207 = SURFACE_STYLE_FILL_AREA ( #46 ) ;
#208 = ADVANCED_FACE ( 'NONE', ( #135 ), #29, .T. ) ;
#209 = ORIENTED_EDGE ( 'NONE', *, *, #126, .T. ) ;
#210 = PRESENTATION_STYLE_ASSIGNMENT (( #16 ) ) ;
#211 = CIRCLE ( 'NONE', #293, 500.0000000000000000 ) ;
#212 = AXIS2_PLACEMENT_3D ( 'NONE', #81, #129, #174 ) ;
#213 = ORIENTED_EDGE ( 'NONE', *, *, #259, .T. ) ;
#214 = VERTEX_POINT ( 'NONE', #216 ) ;
#215 = ADVANCED_BREP_SHAPE_REPRESENTATION ( 'curve_L_3D', ( #271, #57 ), #58 ) ;
#216 = CARTESIAN_POINT ( 'NONE',  ( 0.0000000000000000000, 0.0000000000000000000, 124.9999999999999900 ) ) ;
#217 = DIRECTION ( 'NONE',  ( 0.0000000000000000000, 0.0000000000000000000, -1.000000000000000000 ) ) ;
#218 = ORIENTED_EDGE ( 'NONE', *, *, #17, .T. ) ;
#219 = DIRECTION ( 'NONE',  ( 1.000000000000000000, 0.0000000000000000000, 0.0000000000000000000 ) ) ;
#220 = LINE ( 'NONE', #10, #123 ) ;
#221 = APPLICATION_CONTEXT ( 'automotive_design' ) ;
#222 =( LENGTH_UNIT ( ) NAMED_UNIT ( * ) SI_UNIT ( .MILLI., .METRE. ) );
#223 = SURFACE_STYLE_USAGE ( .BOTH. , #243 ) ;
#224 =( GEOMETRIC_REPRESENTATION_CONTEXT ( 3 ) GLOBAL_UNCERTAINTY_ASSIGNED_CONTEXT ( ( #168 ) ) GLOBAL_UNIT_ASSIGNED_CONTEXT ( ( #222, #137, #285 ) ) REPRESENTATION_CONTEXT ( 'NONE', 'WORKASPACE' ) );
#225 = AXIS2_PLACEMENT_3D ( 'NONE', #90, #260, #241 ) ;
#226 = ADVANCED_FACE ( 'NONE', ( #2 ), #270, .T. ) ;
#227 = COLOUR_RGB ( '',0.7921568627450980000, 0.8196078431372548800, 0.9333333333333333500 ) ;
#228 = ORIENTED_EDGE ( 'NONE', *, *, #188, .T. ) ;
#229 = FACE_OUTER_BOUND ( 'NONE', #206, .T. ) ;
#230 = ORIENTED_EDGE ( 'NONE', *, *, #94, .T. ) ;
#231 = DIRECTION ( 'NONE',  ( -1.000000000000000000, -0.0000000000000000000, -0.0000000000000000000 ) ) ;
#232 = DIRECTION ( 'NONE',  ( 0.0000000000000000000, 0.0000000000000000000, -1.000000000000000000 ) ) ;
#233 = CARTESIAN_POINT ( 'NONE',  ( 0.0000000000000000000, 1.530808498934191200E-014, -124.9999999999999900 ) ) ;
#234 = DIRECTION ( 'NONE',  ( 0.0000000000000000000, 1.000000000000000000, 0.0000000000000000000 ) ) ;
#235 = DIRECTION ( 'NONE',  ( 0.0000000000000000000, 0.0000000000000000000, -1.000000000000000000 ) ) ;
#236 = DIRECTION ( 'NONE',  ( 0.0000000000000000000, 0.0000000000000000000, 1.000000000000000000 ) ) ;
#237 = LINE ( 'NONE', #32, #238 ) ;
#238 = VECTOR ( 'NONE', #231, 1000.000000000000000 ) ;
#239 = CARTESIAN_POINT ( 'NONE',  ( 0.0000000000000000000, 0.0000000000000000000, 0.0000000000000000000 ) ) ;
#240 = DIRECTION ( 'NONE',  ( 0.0000000000000000000, 0.0000000000000000000, -1.000000000000000000 ) ) ;
#241 = DIRECTION ( 'NONE',  ( 0.0000000000000000000, 0.0000000000000000000, -1.000000000000000000 ) ) ;
#242 = CARTESIAN_POINT ( 'NONE',  ( 0.0000000000000000000, 0.0000000000000000000, 0.0000000000000000000 ) ) ;
#243 = SURFACE_SIDE_STYLE ('',( #207 ) ) ;
#244 = CARTESIAN_POINT ( 'NONE',  ( 1375.000000000000000, 1175.000000000000000, 0.0000000000000000000 ) ) ;
#245 = ADVANCED_FACE ( 'NONE', ( #229 ), #144, .T. ) ;
#246 = CYLINDRICAL_SURFACE ( 'NONE', #160, 124.9999999999999900 ) ;
#247 = TOROIDAL_SURFACE ( 'NONE', #6, 375.0000000000000000, 124.9999999999999900 ) ;
#248 = ORIENTED_EDGE ( 'NONE', *, *, #250, .F. ) ;
#249 = CIRCLE ( 'NONE', #74, 124.9999999999999900 ) ;
#250 = EDGE_CURVE ( 'NONE', #255, #9, #286, .T. ) ;
#251 = DIRECTION ( 'NONE',  ( 1.000000000000000000, 0.0000000000000000000, 0.0000000000000000000 ) ) ;
#252 = DIRECTION ( 'NONE',  ( 6.123233995736766000E-017, 1.000000000000000000, 0.0000000000000000000 ) ) ;
#253 = DIRECTION ( 'NONE',  ( 0.0000000000000000000, 0.0000000000000000000, -1.000000000000000000 ) ) ;
#254 = UNCERTAINTY_MEASURE_WITH_UNIT (LENGTH_MEASURE( 1.000000000000000100E-005 ), #116, 'distance_accuracy_value', 'NONE');
#255 = VERTEX_POINT ( 'NONE', #13 ) ;
#256 = VERTEX_POINT ( 'NONE', #177 ) ;
#257 = FACE_OUTER_BOUND ( 'NONE', #162, .T. ) ;
#258 = DIRECTION ( 'NONE',  ( 1.000000000000000000, 0.0000000000000000000, 0.0000000000000000000 ) ) ;
#259 = EDGE_CURVE ( 'NONE', #145, #30, #133, .T. ) ;
#260 = DIRECTION ( 'NONE',  ( 1.000000000000000000, 0.0000000000000000000, 0.0000000000000000000 ) ) ;
#261 = FILL_AREA_STYLE ('',( #184 ) ) ;
#262 = EDGE_LOOP ( 'NONE', ( #181, #185, #228, #103, #290 ) ) ;
#263 = APPLICATION_PROTOCOL_DEFINITION ( 'draft international standard', 'automotive_design', 1998, #221 ) ;
#264 = DIRECTION ( 'NONE',  ( 0.0000000000000000000, 0.0000000000000000000, 1.000000000000000000 ) ) ;
#265 = UNCERTAINTY_MEASURE_WITH_UNIT (LENGTH_MEASURE( 1.000000000000000100E-005 ), #42, 'distance_accuracy_value', 'NONE');
#266 = COLOUR_RGB ( '',0.7921568627450980000, 0.8196078431372548800, 0.9333333333333333500 ) ;
#267 = ADVANCED_FACE ( 'NONE', ( #276 ), #246, .T. ) ;
#268 = AXIS2_PLACEMENT_3D ( 'NONE', #244, #70, #240 ) ;
#269 = ORIENTED_EDGE ( 'NONE', *, *, #203, .F. ) ;
#270 = TOROIDAL_SURFACE ( 'NONE', #200, 375.0000000000000000, 124.9999999999999900 ) ;
#271 = MANIFOLD_SOLID_BREP ( 'Varredura1', #295 ) ;
#272 = ORIENTED_EDGE ( 'NONE', *, *, #75, .F. ) ;
#273 = ORIENTED_EDGE ( 'NONE', *, *, #44, .T. ) ;
#274 = CARTESIAN_POINT ( 'NONE',  ( 1000.000000000000000, 375.0000000000000000, 0.0000000000000000000 ) ) ;
#275 =( GEOMETRIC_REPRESENTATION_CONTEXT ( 3 ) GLOBAL_UNCERTAINTY_ASSIGNED_CONTEXT ( ( #265 ) ) GLOBAL_UNIT_ASSIGNED_CONTEXT ( ( #42, #183, #143 ) ) REPRESENTATION_CONTEXT ( 'NONE', 'WORKASPACE' ) );
#276 = FACE_OUTER_BOUND ( 'NONE', #262, .T. ) ;
#277 = VERTEX_POINT ( 'NONE', #38 ) ;
#278 = CARTESIAN_POINT ( 'NONE',  ( 1000.000000000000000, 124.9999999999999900, -1.530808498934190900E-014 ) ) ;
#279 = DIRECTION ( 'NONE',  ( 0.0000000000000000000, 0.0000000000000000000, 1.000000000000000000 ) ) ;
#280 = CARTESIAN_POINT ( 'NONE',  ( 1375.000000000000000, 375.0000000000000000, 0.0000000000000000000 ) ) ;
#281 = AXIS2_PLACEMENT_3D ( 'NONE', #11, #153, #85 ) ;
#282 = SURFACE_STYLE_FILL_AREA ( #261 ) ;
#283 = CARTESIAN_POINT ( 'NONE',  ( 1000.000000000000000, 0.0000000000000000000, 0.0000000000000000000 ) ) ;
#284 = PRESENTATION_LAYER_ASSIGNMENT (  '', '', ( #111 ) ) ;
#285 =( NAMED_UNIT ( * ) SI_UNIT ( $, .STERADIAN. ) SOLID_ANGLE_UNIT ( ) );
#286 = CIRCLE ( 'NONE', #118, 124.9999999999999900 ) ;
#287 = APPLICATION_PROTOCOL_DEFINITION ( 'draft international standard', 'automotive_design', 1998, #139 ) ;
#288 = AXIS2_PLACEMENT_3D ( 'NONE', #37, #163, #253 ) ;
#289 = DIRECTION ( 'NONE',  ( 1.000000000000000000, 0.0000000000000000000, 0.0000000000000000000 ) ) ;
#290 = ORIENTED_EDGE ( 'NONE', *, *, #94, .F. ) ;
#291 = DIRECTION ( 'NONE',  ( 0.0000000000000000000, 0.0000000000000000000, -1.000000000000000000 ) ) ;
#292 = ADVANCED_FACE ( 'NONE', ( #115 ), #40, .T. ) ;
#293 = AXIS2_PLACEMENT_3D ( 'NONE', #4, #102, #251 ) ;
#294 = ORIENTED_EDGE ( 'NONE', *, *, #188, .F. ) ;
#295 = CLOSED_SHELL ( 'NONE', ( #226, #208, #267, #245, #47, #142, #292, #187 ) ) ;
#296 = EDGE_CURVE ( 'NONE', #30, #3, #80, .T. ) ;
#297 = PRODUCT_DEFINITION_FORMATION_WITH_SPECIFIED_SOURCE ( 'ANY', '', #86, .NOT_KNOWN. ) ;
ENDSEC;
END-ISO-10303-21;
