ISO-10303-21;
HEADER;
FILE_DESCRIPTION (( 'STEP AP214' ),
    '1' );
FILE_NAME ('curved_fluid_and_pipe_fsi_example.STEP',
    '2026-09-04T11:30:36',
    ( '' ),
    ( '' ),
    'SwSTEP 2.0',
    'SolidWorks 2015',
    '' );
FILE_SCHEMA (( 'AUTOMOTIVE_DESIGN' ));
ENDSEC;

DATA;
#1 = VERTEX_POINT ( 'NONE', #822 ) ;
#2 = DIRECTION ( 'NONE',  ( -1.000000000000000000, -0.0000000000000000000, -0.0000000000000000000 ) ) ;
#3 = CARTESIAN_POINT ( 'NONE',  ( 1042.200000000000000, 0.0000000000000000000, 0.0000000000000000000 ) ) ;
#4 = CARTESIAN_POINT ( 'NONE',  ( 1042.200000000000000, 0.0000000000000000000, 0.0000000000000000000 ) ) ;
#5 = VECTOR ( 'NONE', #1047, 1000.000000000000000 ) ;
#6 = CIRCLE ( 'NONE', #925, 149.2000000000000200 ) ;
#7 = DIRECTION ( 'NONE',  ( -1.000000000000000000, 0.0000000000000000000, 0.0000000000000000000 ) ) ;
#8 = ORIENTED_EDGE ( 'NONE', *, *, #73, .T. ) ;
#9 = SURFACE_STYLE_FILL_AREA ( #635 ) ;
#10 = AXIS2_PLACEMENT_3D ( 'NONE', #884, #170, #958 ) ;
#11 = ORIENTED_EDGE ( 'NONE', *, *, #569, .T. ) ;
#12 = CARTESIAN_POINT ( 'NONE',  ( 1661.899999999999600, 942.1999999999998200, 1.982703167819566100E-014 ) ) ;
#13 = CARTESIAN_POINT ( 'NONE',  ( 0.0000000000000000000, 1.982703167819565100E-014, -161.9000000000000100 ) ) ;
#14 = EDGE_CURVE ( 'NONE', #175, #922, #418, .T. ) ;
#15 = ORIENTED_EDGE ( 'NONE', *, *, #1001, .T. ) ;
#16 = AXIS2_PLACEMENT_3D ( 'NONE', #146, #1137, #604 ) ;
#17 = ORIENTED_EDGE ( 'NONE', *, *, #160, .F. ) ;
#18 = CARTESIAN_POINT ( 'NONE',  ( 3000.000000000000000, 1399.999999999999800, 161.9000000000000100 ) ) ;
#19 = ORIENTED_EDGE ( 'NONE', *, *, #589, .T. ) ;
#20 = LINE ( 'NONE', #501, #77 ) ;
#21 = CARTESIAN_POINT ( 'NONE',  ( 1350.799999999999700, 457.8000000000000100, -1.827173024327854800E-014 ) ) ;
#22 = CARTESIAN_POINT ( 'NONE',  ( 1499.999999999999800, 457.8000000000000100, 0.0000000000000000000 ) ) ;
#23 = ORIENTED_EDGE ( 'NONE', *, *, #879, .F. ) ;
#24 = EDGE_CURVE ( 'NONE', #201, #517, #760, .T. ) ;
#25 = CARTESIAN_POINT ( 'NONE',  ( 1499.999999999999800, 942.1999999999998200, 0.0000000000000000000 ) ) ;
#26 = ORIENTED_EDGE ( 'NONE', *, *, #726, .F. ) ;
#27 = CARTESIAN_POINT ( 'NONE',  ( 1042.200000000000000, 0.0000000000000000000, 149.2000000000000200 ) ) ;
#28 = CARTESIAN_POINT ( 'NONE',  ( 1957.800000000000000, 942.1999999999998200, 0.0000000000000000000 ) ) ;
#29 = ORIENTED_EDGE ( 'NONE', *, *, #1169, .T. ) ;
#30 = EDGE_CURVE ( 'NONE', #954, #615, #1103, .T. ) ;
#31 = PLANE ( 'NONE',  #121 ) ;
#32 = ORIENTED_EDGE ( 'NONE', *, *, #415, .F. ) ;
#33 = DIRECTION ( 'NONE',  ( 1.000000000000000000, 0.0000000000000000000, 0.0000000000000000000 ) ) ;
#34 = CARTESIAN_POINT ( 'NONE',  ( 1649.199999999999800, 942.1999999999998200, 1.827173024327851700E-014 ) ) ;
#35 = AXIS2_PLACEMENT_3D ( 'NONE', #536, #456, #1165 ) ;
#36 = DIRECTION ( 'NONE',  ( 6.123233995736766000E-017, 1.000000000000000000, 0.0000000000000000000 ) ) ;
#37 = FACE_OUTER_BOUND ( 'NONE', #691, .T. ) ;
#38 = DIRECTION ( 'NONE',  ( 1.000000000000000000, 0.0000000000000000000, 0.0000000000000000000 ) ) ;
#39 = VERTEX_POINT ( 'NONE', #740 ) ;
#40 = CARTESIAN_POINT ( 'NONE',  ( 1957.800000000000000, 1549.199999999999800, 0.0000000000000000000 ) ) ;
#41 = FACE_OUTER_BOUND ( 'NONE', #541, .T. ) ;
#42 = AXIS2_PLACEMENT_3D ( 'NONE', #28, #1005, #841 ) ;
#43 = CARTESIAN_POINT ( 'NONE',  ( 1350.799999999999700, 942.1999999999998200, 0.0000000000000000000 ) ) ;
#44 = EDGE_LOOP ( 'NONE', ( #693, #579, #243, #1037, #704 ) ) ;
#45 = CARTESIAN_POINT ( 'NONE',  ( 1499.999999999999800, 457.8000000000000100, 0.0000000000000000000 ) ) ;
#46 = VERTEX_POINT ( 'NONE', #12 ) ;
#47 = EDGE_CURVE ( 'NONE', #936, #1134, #206, .T. ) ;
#48 = AXIS2_PLACEMENT_3D ( 'NONE', #887, #873, #962 ) ;
#49 = CIRCLE ( 'NONE', #1112, 161.9000000000000100 ) ;
#50 = LINE ( 'NONE', #27, #277 ) ;
#51 = EDGE_LOOP ( 'NONE', ( #23, #645, #65, #880, #690 ) ) ;
#52 = ORIENTED_EDGE ( 'NONE', *, *, #160, .T. ) ;
#53 = EDGE_CURVE ( 'NONE', #969, #405, #562, .T. ) ;
#54 = CARTESIAN_POINT ( 'NONE',  ( 1499.999999999999800, 457.8000000000000100, 0.0000000000000000000 ) ) ;
#55 = DIRECTION ( 'NONE',  ( 1.000000000000000000, 0.0000000000000000000, 0.0000000000000000000 ) ) ;
#56 = DIRECTION ( 'NONE',  ( 1.000000000000000000, 0.0000000000000000000, 0.0000000000000000000 ) ) ;
#57 = VERTEX_POINT ( 'NONE', #396 ) ;
#58 = ORIENTED_EDGE ( 'NONE', *, *, #825, .T. ) ;
#59 = DIRECTION ( 'NONE',  ( 0.0000000000000000000, 1.000000000000000000, 0.0000000000000000000 ) ) ;
#60 = CARTESIAN_POINT ( 'NONE',  ( 0.0000000000000000000, 0.0000000000000000000, 0.0000000000000000000 ) ) ;
#61 = AXIS2_PLACEMENT_3D ( 'NONE', #638, #2, #750 ) ;
#62 = CARTESIAN_POINT ( 'NONE',  ( 1957.800000000000000, 1399.999999999999800, 149.2000000000000200 ) ) ;
#63 = DIRECTION ( 'NONE',  ( 0.0000000000000000000, 0.0000000000000000000, 1.000000000000000000 ) ) ;
#64 = CIRCLE ( 'NONE', #553, 149.2000000000000200 ) ;
#65 = ORIENTED_EDGE ( 'NONE', *, *, #964, .T. ) ;
#66 = DIRECTION ( 'NONE',  ( 0.0000000000000000000, 0.0000000000000000000, -1.000000000000000000 ) ) ;
#67 = EDGE_LOOP ( 'NONE', ( #15, #916, #874, #32, #851, #1039 ) ) ;
#68 = DIRECTION ( 'NONE',  ( 0.0000000000000000000, 0.0000000000000000000, -1.000000000000000000 ) ) ;
#69 = AXIS2_PLACEMENT_3D ( 'NONE', #872, #1060, #240 ) ;
#70 = ORIENTED_EDGE ( 'NONE', *, *, #384, .T. ) ;
#71 = ORIENTED_EDGE ( 'NONE', *, *, #538, .F. ) ;
#72 = DIRECTION ( 'NONE',  ( 0.0000000000000000000, 0.0000000000000000000, 1.000000000000000000 ) ) ;
#73 = EDGE_CURVE ( 'NONE', #311, #1000, #327, .T. ) ;
#74 = DIRECTION ( 'NONE',  ( -1.000000000000000000, -0.0000000000000000000, -0.0000000000000000000 ) ) ;
#75 = AXIS2_PLACEMENT_3D ( 'NONE', #274, #373, #1078 ) ;
#76 = CIRCLE ( 'NONE', #1052, 149.2000000000000200 ) ;
#77 = VECTOR ( 'NONE', #495, 1000.000000000000000 ) ;
#78 = CYLINDRICAL_SURFACE ( 'NONE', #608, 161.9000000000000100 ) ;
#79 = CARTESIAN_POINT ( 'NONE',  ( 1042.200000000000000, 0.0000000000000000000, 0.0000000000000000000 ) ) ;
#80 = EDGE_CURVE ( 'NONE', #286, #95, #949, .T. ) ;
#81 = DIRECTION ( 'NONE',  ( -1.000000000000000000, 0.0000000000000000000, 0.0000000000000000000 ) ) ;
#82 = ORIENTED_EDGE ( 'NONE', *, *, #53, .F. ) ;
#83 = ORIENTED_EDGE ( 'NONE', *, *, #114, .T. ) ;
#84 = CARTESIAN_POINT ( 'NONE',  ( 1042.200000000000000, 0.0000000000000000000, 0.0000000000000000000 ) ) ;
#85 = ADVANCED_FACE ( 'NONE', ( #338, #721 ), #113, .T. ) ;
#86 = DIRECTION ( 'NONE',  ( 0.0000000000000000000, 0.0000000000000000000, 1.000000000000000000 ) ) ;
#87 = EDGE_CURVE ( 'NONE', #378, #190, #169, .T. ) ;
#88 = LINE ( 'NONE', #422, #786 ) ;
#89 = CIRCLE ( 'NONE', #634, 149.2000000000000200 ) ;
#90 = DIRECTION ( 'NONE',  ( -1.000000000000000000, -0.0000000000000000000, -0.0000000000000000000 ) ) ;
#91 = ORIENTED_EDGE ( 'NONE', *, *, #658, .T. ) ;
#92 = CARTESIAN_POINT ( 'NONE',  ( 0.0000000000000000000, 0.0000000000000000000, 0.0000000000000000000 ) ) ;
#93 = AXIS2_PLACEMENT_3D ( 'NONE', #779, #1067, #999 ) ;
#94 = DIRECTION ( 'NONE',  ( 0.0000000000000000000, 0.0000000000000000000, -1.000000000000000000 ) ) ;
#95 = VERTEX_POINT ( 'NONE', #650 ) ;
#96 = DIRECTION ( 'NONE',  ( 0.0000000000000000000, 0.0000000000000000000, -1.000000000000000000 ) ) ;
#97 = SURFACE_STYLE_USAGE ( .BOTH. , #1003 ) ;
#98 = AXIS2_PLACEMENT_3D ( 'NONE', #1097, #1011, #655 ) ;
#99 = FILL_AREA_STYLE_COLOUR ( '', #276 ) ;
#100 = VERTEX_POINT ( 'NONE', #923 ) ;
#101 =( NAMED_UNIT ( * ) SI_UNIT ( $, .STERADIAN. ) SOLID_ANGLE_UNIT ( ) );
#102 = VERTEX_POINT ( 'NONE', #118 ) ;
#103 =( LENGTH_UNIT ( ) NAMED_UNIT ( * ) SI_UNIT ( .MILLI., .METRE. ) );
#104 = CARTESIAN_POINT ( 'NONE',  ( 1499.999999999999800, 942.1999999999998200, 0.0000000000000000000 ) ) ;
#105 = CIRCLE ( 'NONE', #293, 161.9000000000000100 ) ;
#106 = DIRECTION ( 'NONE',  ( 1.000000000000000000, 0.0000000000000000000, 0.0000000000000000000 ) ) ;
#107 = TOROIDAL_SURFACE ( 'NONE', #387, 457.8000000000000100, 149.2000000000000200 ) ;
#108 = EDGE_CURVE ( 'NONE', #95, #863, #64, .T. ) ;
#109 = CARTESIAN_POINT ( 'NONE',  ( 1499.999999999999800, 457.8000000000000100, 0.0000000000000000000 ) ) ;
#110 = ORIENTED_EDGE ( 'NONE', *, *, #1055, .F. ) ;
#111 =( GEOMETRIC_REPRESENTATION_CONTEXT ( 3 ) GLOBAL_UNCERTAINTY_ASSIGNED_CONTEXT ( ( #942 ) ) GLOBAL_UNIT_ASSIGNED_CONTEXT ( ( #436, #253, #515 ) ) REPRESENTATION_CONTEXT ( 'NONE', 'WORKASPACE' ) );
#112 = ORIENTED_EDGE ( 'NONE', *, *, #1055, .T. ) ;
#113 = PLANE ( 'NONE',  #98 ) ;
#114 = EDGE_CURVE ( 'NONE', #761, #479, #855, .T. ) ;
#115 = ORIENTED_EDGE ( 'NONE', *, *, #1116, .T. ) ;
#116 = ORIENTED_EDGE ( 'NONE', *, *, #756, .F. ) ;
#117 = DIRECTION ( 'NONE',  ( 1.000000000000000000, 0.0000000000000000000, 0.0000000000000000000 ) ) ;
#118 = CARTESIAN_POINT ( 'NONE',  ( 1957.800000000000000, 1250.799999999999700, 1.827173024327854800E-014 ) ) ;
#119 = CARTESIAN_POINT ( 'NONE',  ( 0.0000000000000000000, 0.0000000000000000000, 149.2000000000000200 ) ) ;
#120 = ORIENTED_EDGE ( 'NONE', *, *, #361, .F. ) ;
#121 = AXIS2_PLACEMENT_3D ( 'NONE', #755, #1022, #214 ) ;
#122 = DIRECTION ( 'NONE',  ( 0.0000000000000000000, 0.0000000000000000000, -1.000000000000000000 ) ) ;
#123 = VERTEX_POINT ( 'NONE', #202 ) ;
#124 = DIRECTION ( 'NONE',  ( 1.000000000000000000, 0.0000000000000000000, 0.0000000000000000000 ) ) ;
#125 = CARTESIAN_POINT ( 'NONE',  ( 1957.800000000000000, 1399.999999999999800, -149.2000000000000200 ) ) ;
#126 = CARTESIAN_POINT ( 'NONE',  ( 1957.800000000000000, 1399.999999999999800, -161.9000000000000100 ) ) ;
#127 = CARTESIAN_POINT ( 'NONE',  ( 1649.200000000000000, 457.8000000000000100, 0.0000000000000000000 ) ) ;
#128 = ORIENTED_EDGE ( 'NONE', *, *, #1158, .T. ) ;
#129 = CARTESIAN_POINT ( 'NONE',  ( 1957.800000000000000, 1399.999999999999800, 161.9000000000000100 ) ) ;
#130 = VERTEX_POINT ( 'NONE', #401 ) ;
#131 = CARTESIAN_POINT ( 'NONE',  ( 1042.200000000000000, 457.8000000000000100, 0.0000000000000000000 ) ) ;
#132 = ORIENTED_EDGE ( 'NONE', *, *, #1071, .T. ) ;
#133 = AXIS2_PLACEMENT_3D ( 'NONE', #620, #725, #177 ) ;
#134 = CYLINDRICAL_SURFACE ( 'NONE', #461, 161.9000000000000100 ) ;
#135 = CIRCLE ( 'NONE', #489, 149.2000000000000200 ) ;
#136 = EDGE_CURVE ( 'NONE', #499, #405, #994, .T. ) ;
#137 = DIRECTION ( 'NONE',  ( 0.0000000000000000000, 0.0000000000000000000, 1.000000000000000000 ) ) ;
#138 = DIRECTION ( 'NONE',  ( 6.123233995736766000E-017, 1.000000000000000000, 0.0000000000000000000 ) ) ;
#139 = AXIS2_PLACEMENT_3D ( 'NONE', #54, #686, #698 ) ;
#140 = CARTESIAN_POINT ( 'NONE',  ( 1957.800000000000000, 1399.999999999999800, 0.0000000000000000000 ) ) ;
#141 = DIRECTION ( 'NONE',  ( 0.0000000000000000000, 0.0000000000000000000, -1.000000000000000000 ) ) ;
#142 = VERTEX_POINT ( 'NONE', #490 ) ;
#143 = DIRECTION ( 'NONE',  ( 0.0000000000000000000, 0.0000000000000000000, -1.000000000000000000 ) ) ;
#144 = EDGE_CURVE ( 'NONE', #184, #397, #295, .T. ) ;
#145 = ORIENTED_EDGE ( 'NONE', *, *, #213, .T. ) ;
#146 = CARTESIAN_POINT ( 'NONE',  ( 1499.999999999999800, 457.8000000000000100, 0.0000000000000000000 ) ) ;
#147 = CIRCLE ( 'NONE', #133, 161.9000000000000100 ) ;
#148 = FACE_OUTER_BOUND ( 'NONE', #508, .T. ) ;
#149 = VECTOR ( 'NONE', #563, 1000.000000000000000 ) ;
#150 = ORIENTED_EDGE ( 'NONE', *, *, #197, .T. ) ;
#151 = EDGE_CURVE ( 'NONE', #187, #57, #237, .T. ) ;
#152 = CARTESIAN_POINT ( 'NONE',  ( 1042.200000000000000, 1.827173024327851400E-014, -149.2000000000000200 ) ) ;
#153 = CARTESIAN_POINT ( 'NONE',  ( 1499.999999999999800, 942.1999999999998200, 0.0000000000000000000 ) ) ;
#154 = ORIENTED_EDGE ( 'NONE', *, *, #706, .T. ) ;
#155 = DIRECTION ( 'NONE',  ( 0.0000000000000000000, 0.0000000000000000000, -1.000000000000000000 ) ) ;
#156 = AXIS2_PLACEMENT_3D ( 'NONE', #966, #600, #784 ) ;
#157 = CARTESIAN_POINT ( 'NONE',  ( 1499.999999999999800, 457.8000000000000100, 0.0000000000000000000 ) ) ;
#158 = CARTESIAN_POINT ( 'NONE',  ( 1042.200000000000000, 457.8000000000000100, 0.0000000000000000000 ) ) ;
#159 = ORIENTED_EDGE ( 'NONE', *, *, #108, .F. ) ;
#160 = EDGE_CURVE ( 'NONE', #175, #479, #395, .T. ) ;
#161 = ORIENTED_EDGE ( 'NONE', *, *, #361, .T. ) ;
#162 = AXIS2_PLACEMENT_3D ( 'NONE', #931, #927, #577 ) ;
#163 = ADVANCED_FACE ( 'NONE', ( #1019 ), #78, .T. ) ;
#164 = AXIS2_PLACEMENT_3D ( 'NONE', #191, #473, #561 ) ;
#165 = DIRECTION ( 'NONE',  ( 1.000000000000000000, 0.0000000000000000000, 0.0000000000000000000 ) ) ;
#166 = CIRCLE ( 'NONE', #275, 149.2000000000000200 ) ;
#167 = CIRCLE ( 'NONE', #963, 149.2000000000000200 ) ;
#168 = DIRECTION ( 'NONE',  ( 1.000000000000000000, 0.0000000000000000000, 0.0000000000000000000 ) ) ;
#169 = CIRCLE ( 'NONE', #602, 149.2000000000000200 ) ;
#170 = DIRECTION ( 'NONE',  ( 1.000000000000000000, 0.0000000000000000000, 0.0000000000000000000 ) ) ;
#171 = DIRECTION ( 'NONE',  ( -1.000000000000000000, -0.0000000000000000000, -0.0000000000000000000 ) ) ;
#172 = AXIS2_PLACEMENT_3D ( 'NONE', #363, #262, #278 ) ;
#173 = CARTESIAN_POINT ( 'NONE',  ( 1957.800000000000000, 1399.999999999999800, 0.0000000000000000000 ) ) ;
#174 = VERTEX_POINT ( 'NONE', #853 ) ;
#175 = VERTEX_POINT ( 'NONE', #129 ) ;
#176 = ADVANCED_FACE ( 'NONE', ( #383 ), #628, .F. ) ;
#177 = DIRECTION ( 'NONE',  ( 0.0000000000000000000, 0.0000000000000000000, -1.000000000000000000 ) ) ;
#178 = EDGE_CURVE ( 'NONE', #443, #270, #789, .T. ) ;
#179 = VERTEX_POINT ( 'NONE', #219 ) ;
#180 = LINE ( 'NONE', #1062, #392 ) ;
#181 = CIRCLE ( 'NONE', #371, 161.9000000000000100 ) ;
#182 = CARTESIAN_POINT ( 'NONE',  ( 0.0000000000000000000, 0.0000000000000000000, 0.0000000000000000000 ) ) ;
#183 = ORIENTED_EDGE ( 'NONE', *, *, #879, .T. ) ;
#184 = VERTEX_POINT ( 'NONE', #43 ) ;
#185 = CYLINDRICAL_SURFACE ( 'NONE', #217, 161.9000000000000100 ) ;
#186 = AXIS2_PLACEMENT_3D ( 'NONE', #1089, #557, #366 ) ;
#187 = VERTEX_POINT ( 'NONE', #126 ) ;
#188 = DIRECTION ( 'NONE',  ( 1.000000000000000000, 0.0000000000000000000, 0.0000000000000000000 ) ) ;
#189 = DIRECTION ( 'NONE',  ( 0.0000000000000000000, 0.0000000000000000000, 1.000000000000000000 ) ) ;
#190 = VERTEX_POINT ( 'NONE', #314 ) ;
#191 = CARTESIAN_POINT ( 'NONE',  ( 0.0000000000000000000, 0.0000000000000000000, 0.0000000000000000000 ) ) ;
#192 = AXIS2_PLACEMENT_3D ( 'NONE', #583, #1107, #848 ) ;
#193 = FACE_OUTER_BOUND ( 'NONE', #897, .T. ) ;
#194 = CARTESIAN_POINT ( 'NONE',  ( 1957.800000000000000, 1399.999999999999800, 0.0000000000000000000 ) ) ;
#195 = FACE_OUTER_BOUND ( 'NONE', #67, .T. ) ;
#196 = ORIENTED_EDGE ( 'NONE', *, *, #1036, .F. ) ;
#197 = EDGE_CURVE ( 'NONE', #39, #438, #1059, .T. ) ;
#198 = DIRECTION ( 'NONE',  ( 1.000000000000000000, 0.0000000000000000000, 0.0000000000000000000 ) ) ;
#199 = AXIS2_PLACEMENT_3D ( 'NONE', #25, #389, #926 ) ;
#200 = ORIENTED_EDGE ( 'NONE', *, *, #898, .F. ) ;
#201 = VERTEX_POINT ( 'NONE', #764 ) ;
#202 = CARTESIAN_POINT ( 'NONE',  ( 1957.800000000000000, 1399.999999999999800, -149.2000000000000200 ) ) ;
#203 = VERTEX_POINT ( 'NONE', #226 ) ;
#204 = CIRCLE ( 'NONE', #192, 149.2000000000000200 ) ;
#205 = DIRECTION ( 'NONE',  ( 0.0000000000000000000, 0.0000000000000000000, -1.000000000000000000 ) ) ;
#206 = CIRCLE ( 'NONE', #199, 149.2000000000000200 ) ;
#207 = ORIENTED_EDGE ( 'NONE', *, *, #451, .T. ) ;
#208 = CARTESIAN_POINT ( 'NONE',  ( 1499.999999999999800, 942.1999999999998200, 149.2000000000000200 ) ) ;
#209 = CYLINDRICAL_SURFACE ( 'NONE', #232, 161.9000000000000100 ) ;
#210 = ORIENTED_EDGE ( 'NONE', *, *, #235, .F. ) ;
#211 = CARTESIAN_POINT ( 'NONE',  ( 1042.200000000000000, 0.0000000000000000000, 0.0000000000000000000 ) ) ;
#212 = CARTESIAN_POINT ( 'NONE',  ( 1499.999999999999800, 457.8000000000000100, 161.9000000000000100 ) ) ;
#213 = EDGE_CURVE ( 'NONE', #969, #554, #1034, .T. ) ;
#214 = DIRECTION ( 'NONE',  ( 0.0000000000000000000, 0.0000000000000000000, -1.000000000000000000 ) ) ;
#215 = DIRECTION ( 'NONE',  ( 1.000000000000000000, 0.0000000000000000000, 0.0000000000000000000 ) ) ;
#216 = ORIENTED_EDGE ( 'NONE', *, *, #832, .T. ) ;
#217 = AXIS2_PLACEMENT_3D ( 'NONE', #364, #719, #977 ) ;
#218 = DIRECTION ( 'NONE',  ( -0.0000000000000000000, -0.0000000000000000000, -1.000000000000000000 ) ) ;
#219 = CARTESIAN_POINT ( 'NONE',  ( 1499.999999999999800, 457.8000000000000100, -149.2000000000000200 ) ) ;
#220 = EDGE_CURVE ( 'NONE', #457, #969, #478, .T. ) ;
#221 = DIRECTION ( 'NONE',  ( 0.0000000000000000000, 0.0000000000000000000, -1.000000000000000000 ) ) ;
#222 = FACE_OUTER_BOUND ( 'NONE', #622, .T. ) ;
#223 =( NAMED_UNIT ( * ) PLANE_ANGLE_UNIT ( ) SI_UNIT ( $, .RADIAN. ) );
#224 = CIRCLE ( 'NONE', #522, 149.2000000000000200 ) ;
#225 = ORIENTED_EDGE ( 'NONE', *, *, #1071, .F. ) ;
#226 = CARTESIAN_POINT ( 'NONE',  ( 0.0000000000000000000, 1.827173024327851400E-014, -149.2000000000000200 ) ) ;
#227 = CARTESIAN_POINT ( 'NONE',  ( 1042.200000000000000, 0.0000000000000000000, 0.0000000000000000000 ) ) ;
#228 = EDGE_CURVE ( 'NONE', #615, #179, #514, .T. ) ;
#229 = EDGE_LOOP ( 'NONE', ( #376, #689 ) ) ;
#230 = ORIENTED_EDGE ( 'NONE', *, *, #500, .F. ) ;
#231 = DIRECTION ( 'NONE',  ( 0.0000000000000000000, 0.0000000000000000000, -1.000000000000000000 ) ) ;
#232 = AXIS2_PLACEMENT_3D ( 'NONE', #22, #640, #1100 ) ;
#233 = PRODUCT ( 'curved_fluid_and_pipe_fsi_example', 'curved_fluid_and_pipe_fsi_example', '', ( #466 ) ) ;
#234 = VECTOR ( 'NONE', #59, 1000.000000000000000 ) ;
#235 = EDGE_CURVE ( 'NONE', #1000, #988, #204, .T. ) ;
#236 = DIRECTION ( 'NONE',  ( 0.0000000000000000000, 0.0000000000000000000, -1.000000000000000000 ) ) ;
#237 = CIRCLE ( 'NONE', #941, 161.9000000000000100 ) ;
#238 = ORIENTED_EDGE ( 'NONE', *, *, #144, .F. ) ;
#239 = DIRECTION ( 'NONE',  ( 1.000000000000000000, 0.0000000000000000000, 0.0000000000000000000 ) ) ;
#240 = DIRECTION ( 'NONE',  ( 0.0000000000000000000, 0.0000000000000000000, -1.000000000000000000 ) ) ;
#241 = ORIENTED_EDGE ( 'NONE', *, *, #1014, .T. ) ;
#242 = CARTESIAN_POINT ( 'NONE',  ( 1957.800000000000000, 1399.999999999999800, -161.9000000000000100 ) ) ;
#243 = ORIENTED_EDGE ( 'NONE', *, *, #774, .T. ) ;
#244 = AXIS2_PLACEMENT_3D ( 'NONE', #481, #1009, #1015 ) ;
#245 = CARTESIAN_POINT ( 'NONE',  ( 1042.200000000000000, 457.8000000000000100, 0.0000000000000000000 ) ) ;
#246 = CIRCLE ( 'NONE', #849, 619.7000000000001600 ) ;
#247 = CIRCLE ( 'NONE', #1167, 607.0000000000000000 ) ;
#248 = ORIENTED_EDGE ( 'NONE', *, *, #781, .F. ) ;
#249 = AXIS2_PLACEMENT_3D ( 'NONE', #491, #770, #856 ) ;
#250 = AXIS2_PLACEMENT_3D ( 'NONE', #4, #1068, #990 ) ;
#251 = DIRECTION ( 'NONE',  ( 0.0000000000000000000, 0.0000000000000000000, -1.000000000000000000 ) ) ;
#252 = ADVANCED_FACE ( 'NONE', ( #976 ), #107, .T. ) ;
#253 =( NAMED_UNIT ( * ) PLANE_ANGLE_UNIT ( ) SI_UNIT ( $, .RADIAN. ) );
#254 = ORIENTED_EDGE ( 'NONE', *, *, #940, .T. ) ;
#255 = EDGE_CURVE ( 'NONE', #499, #1120, #1114, .T. ) ;
#256 = EDGE_LOOP ( 'NONE', ( #1083, #550, #762, #685, #91 ) ) ;
#257 = AXIS2_PLACEMENT_3D ( 'NONE', #1130, #960, #68 ) ;
#258 = CARTESIAN_POINT ( 'NONE',  ( 1649.199999999999800, 942.1999999999998200, 1.827173024327851700E-014 ) ) ;
#259 = SURFACE_STYLE_FILL_AREA ( #616 ) ;
#260 = ADVANCED_FACE ( 'NONE', ( #37 ), #771, .T. ) ;
#261 = VECTOR ( 'NONE', #672, 1000.000000000000000 ) ;
#262 = DIRECTION ( 'NONE',  ( 0.0000000000000000000, 0.0000000000000000000, 1.000000000000000000 ) ) ;
#263 = EDGE_LOOP ( 'NONE', ( #621, #524, #248, #312, #606 ) ) ;
#264 = DIRECTION ( 'NONE',  ( -1.000000000000000000, 0.0000000000000000000, 0.0000000000000000000 ) ) ;
#265 = ORIENTED_EDGE ( 'NONE', *, *, #178, .T. ) ;
#266 = DIRECTION ( 'NONE',  ( 1.000000000000000000, 0.0000000000000000000, 0.0000000000000000000 ) ) ;
#267 = ADVANCED_FACE ( 'NONE', ( #961 ), #612, .T. ) ;
#268 = DIRECTION ( 'NONE',  ( 6.123233995736766000E-017, 1.000000000000000000, 0.0000000000000000000 ) ) ;
#269 = ORIENTED_EDGE ( 'NONE', *, *, #952, .F. ) ;
#270 = VERTEX_POINT ( 'NONE', #671 ) ;
#271 = EDGE_CURVE ( 'NONE', #397, #956, #559, .T. ) ;
#272 = ORIENTED_EDGE ( 'NONE', *, *, #948, .F. ) ;
#273 = CARTESIAN_POINT ( 'NONE',  ( 3000.000000000000000, 1399.999999999999800, -161.9000000000000100 ) ) ;
#274 = CARTESIAN_POINT ( 'NONE',  ( 3000.000000000000000, 1399.999999999999800, 0.0000000000000000000 ) ) ;
#275 = AXIS2_PLACEMENT_3D ( 'NONE', #519, #972, #155 ) ;
#276 = COLOUR_RGB ( '',0.6509803921568627600, 0.6196078431372549200, 0.5882352941176470800 ) ;
#277 = VECTOR ( 'NONE', #305, 1000.000000000000000 ) ;
#278 = DIRECTION ( 'NONE',  ( 1.000000000000000000, 0.0000000000000000000, 0.0000000000000000000 ) ) ;
#279 = ORIENTED_EDGE ( 'NONE', *, *, #774, .F. ) ;
#280 = FACE_OUTER_BOUND ( 'NONE', #1104, .T. ) ;
#281 = EDGE_CURVE ( 'NONE', #633, #102, #326, .T. ) ;
#282 = AXIS2_PLACEMENT_3D ( 'NONE', #153, #699, #787 ) ;
#283 = FILL_AREA_STYLE ('',( #99 ) ) ;
#284 = APPLICATION_CONTEXT ( 'automotive_design' ) ;
#285 = ORIENTED_EDGE ( 'NONE', *, *, #228, .F. ) ;
#286 = VERTEX_POINT ( 'NONE', #34 ) ;
#287 = CARTESIAN_POINT ( 'NONE',  ( 1957.800000000000000, 1399.999999999999800, 0.0000000000000000000 ) ) ;
#288 = CLOSED_SHELL ( 'NONE', ( #1163, #347, #535, #626, #455, #619, #986, #900, #356, #260, #1140, #429, #369, #731, #1166, #176, #526, #892, #802, #163, #85, #447 ) ) ;
#289 = FILL_AREA_STYLE_COLOUR ( '', #646 ) ;
#290 = CIRCLE ( 'NONE', #35, 149.2000000000000200 ) ;
#291 = CIRCLE ( 'NONE', #1105, 149.2000000000000200 ) ;
#292 = DIRECTION ( 'NONE',  ( 0.0000000000000000000, 0.0000000000000000000, -1.000000000000000000 ) ) ;
#293 = AXIS2_PLACEMENT_3D ( 'NONE', #705, #165, #66 ) ;
#294 = DIRECTION ( 'NONE',  ( 1.000000000000000000, 0.0000000000000000000, 0.0000000000000000000 ) ) ;
#295 = CIRCLE ( 'NONE', #42, 607.0000000000002300 ) ;
#296 = CARTESIAN_POINT ( 'NONE',  ( 1499.999999999999800, 942.1999999999998200, 0.0000000000000000000 ) ) ;
#297 = VERTEX_POINT ( 'NONE', #324 ) ;
#298 = EDGE_CURVE ( 'NONE', #517, #633, #688, .T. ) ;
#299 = DIRECTION ( 'NONE',  ( 0.0000000000000000000, 0.0000000000000000000, 1.000000000000000000 ) ) ;
#300 = ORIENTED_EDGE ( 'NONE', *, *, #538, .T. ) ;
#301 = DIRECTION ( 'NONE',  ( 0.0000000000000000000, 0.0000000000000000000, -1.000000000000000000 ) ) ;
#302 = ORIENTED_EDGE ( 'NONE', *, *, #399, .T. ) ;
#303 = CARTESIAN_POINT ( 'NONE',  ( 1499.999999999999800, 457.8000000000000100, 0.0000000000000000000 ) ) ;
#304 = DIRECTION ( 'NONE',  ( 0.0000000000000000000, 0.0000000000000000000, -1.000000000000000000 ) ) ;
#305 = DIRECTION ( 'NONE',  ( -1.000000000000000000, -0.0000000000000000000, -0.0000000000000000000 ) ) ;
#306 = VECTOR ( 'NONE', #991, 1000.000000000000000 ) ;
#307 = AXIS2_PLACEMENT_3D ( 'NONE', #652, #218, #758 ) ;
#308 = SURFACE_STYLE_FILL_AREA ( #283 ) ;
#309 = EDGE_CURVE ( 'NONE', #123, #174, #20, .T. ) ;
#310 = DIRECTION ( 'NONE',  ( 6.123233995736766000E-017, 1.000000000000000000, 0.0000000000000000000 ) ) ;
#311 = VERTEX_POINT ( 'NONE', #684 ) ;
#312 = ORIENTED_EDGE ( 'NONE', *, *, #978, .T. ) ;
#313 = DIRECTION ( 'NONE',  ( 0.0000000000000000000, 0.0000000000000000000, -1.000000000000000000 ) ) ;
#314 = CARTESIAN_POINT ( 'NONE',  ( 1042.200000000000000, 149.2000000000000200, -1.827173024327851700E-014 ) ) ;
#315 = DIRECTION ( 'NONE',  ( 1.000000000000000000, 0.0000000000000000000, 0.0000000000000000000 ) ) ;
#316 = CARTESIAN_POINT ( 'NONE',  ( 1499.999999999999800, 457.8000000000000100, 0.0000000000000000000 ) ) ;
#317 = AXIS2_PLACEMENT_3D ( 'NONE', #1008, #566, #33 ) ;
#318 = DIRECTION ( 'NONE',  ( 0.0000000000000000000, 0.0000000000000000000, -1.000000000000000000 ) ) ;
#319 = ORIENTED_EDGE ( 'NONE', *, *, #323, .F. ) ;
#320 = CARTESIAN_POINT ( 'NONE',  ( 1957.800000000000000, 1399.999999999999800, 0.0000000000000000000 ) ) ;
#321 = MECHANICAL_DESIGN_GEOMETRIC_PRESENTATION_REPRESENTATION (  '', ( #785 ), #935 ) ;
#322 = ORIENTED_EDGE ( 'NONE', *, *, #464, .T. ) ;
#323 = EDGE_CURVE ( 'NONE', #311, #474, #627, .T. ) ;
#324 = CARTESIAN_POINT ( 'NONE',  ( 1042.200000000000000, 0.0000000000000000000, 149.2000000000000200 ) ) ;
#325 = TOROIDAL_SURFACE ( 'NONE', #997, 457.8000000000001800, 149.2000000000000200 ) ;
#326 = CIRCLE ( 'NONE', #442, 149.2000000000000200 ) ;
#327 = CIRCLE ( 'NONE', #317, 308.5999999999999700 ) ;
#328 = CARTESIAN_POINT ( 'NONE',  ( 1042.200000000000000, 0.0000000000000000000, 0.0000000000000000000 ) ) ;
#329 = CARTESIAN_POINT ( 'NONE',  ( 1338.099999999999900, 457.8000000000000100, -1.982703167819566100E-014 ) ) ;
#330 = EDGE_CURVE ( 'NONE', #123, #397, #167, .T. ) ;
#331 = ORIENTED_EDGE ( 'NONE', *, *, #694, .F. ) ;
#332 = VERTEX_POINT ( 'NONE', #865 ) ;
#333 = DIRECTION ( 'NONE',  ( 1.000000000000000000, 0.0000000000000000000, 0.0000000000000000000 ) ) ;
#334 = CIRCLE ( 'NONE', #498, 607.0000000000002300 ) ;
#335 = CIRCLE ( 'NONE', #746, 149.2000000000000200 ) ;
#336 = EDGE_CURVE ( 'NONE', #39, #457, #877, .T. ) ;
#337 = CARTESIAN_POINT ( 'NONE',  ( 1957.800000000000000, 1399.999999999999800, 0.0000000000000000000 ) ) ;
#338 = FACE_BOUND ( 'NONE', #414, .T. ) ;
#339 = DIRECTION ( 'NONE',  ( 0.0000000000000000000, 0.0000000000000000000, -1.000000000000000000 ) ) ;
#340 = CARTESIAN_POINT ( 'NONE',  ( 1957.800000000000000, 1238.099999999999700, 1.982703167819566100E-014 ) ) ;
#341 = ORIENTED_EDGE ( 'NONE', *, *, #917, .F. ) ;
#342 = CARTESIAN_POINT ( 'NONE',  ( 1499.999999999999800, 457.8000000000000100, -161.9000000000000100 ) ) ;
#343 = ORIENTED_EDGE ( 'NONE', *, *, #309, .F. ) ;
#344 = AXIS2_PLACEMENT_3D ( 'NONE', #1161, #266, #902 ) ;
#345 = CARTESIAN_POINT ( 'NONE',  ( 1957.800000000000000, 942.1999999999998200, 0.0000000000000000000 ) ) ;
#346 = DIRECTION ( 'NONE',  ( 6.123233995736766000E-017, 1.000000000000000000, 0.0000000000000000000 ) ) ;
#347 = ADVANCED_FACE ( 'NONE', ( #195 ), #1032, .T. ) ;
#348 = DIRECTION ( 'NONE',  ( 1.000000000000000000, 0.0000000000000000000, 0.0000000000000000000 ) ) ;
#349 = EDGE_CURVE ( 'NONE', #270, #332, #920, .T. ) ;
#350 = ORIENTED_EDGE ( 'NONE', *, *, #220, .F. ) ;
#351 = AXIS2_PLACEMENT_3D ( 'NONE', #601, #346, #974 ) ;
#352 = CARTESIAN_POINT ( 'NONE',  ( 1042.200000000000000, 0.0000000000000000000, 149.2000000000000200 ) ) ;
#353 = FACE_OUTER_BOUND ( 'NONE', #911, .T. ) ;
#354 = FACE_OUTER_BOUND ( 'NONE', #51, .T. ) ;
#355 = EDGE_LOOP ( 'NONE', ( #225, #801, #1029, #58, #452, #715 ) ) ;
#356 = ADVANCED_FACE ( 'NONE', ( #675 ), #1085, .F. ) ;
#357 = DIRECTION ( 'NONE',  ( -1.000000000000000000, 0.0000000000000000000, 0.0000000000000000000 ) ) ;
#358 = AXIS2_PLACEMENT_3D ( 'NONE', #173, #723, #809 ) ;
#359 = CARTESIAN_POINT ( 'NONE',  ( 0.0000000000000000000, 0.0000000000000000000, 0.0000000000000000000 ) ) ;
#360 = ORIENTED_EDGE ( 'NONE', *, *, #861, .F. ) ;
#361 = EDGE_CURVE ( 'NONE', #954, #564, #854, .T. ) ;
#362 = ORIENTED_EDGE ( 'NONE', *, *, #475, .F. ) ;
#363 = CARTESIAN_POINT ( 'NONE',  ( 1042.200000000000000, 457.8000000000000100, -1.827173024327851400E-014 ) ) ;
#364 = CARTESIAN_POINT ( 'NONE',  ( 1957.800000000000000, 1399.999999999999800, 0.0000000000000000000 ) ) ;
#365 = CYLINDRICAL_SURFACE ( 'NONE', #720, 149.2000000000000200 ) ;
#366 = DIRECTION ( 'NONE',  ( 0.0000000000000000000, 0.0000000000000000000, -1.000000000000000000 ) ) ;
#367 = CYLINDRICAL_SURFACE ( 'NONE', #614, 149.2000000000000200 ) ;
#368 = ORIENTED_EDGE ( 'NONE', *, *, #336, .T. ) ;
#369 = ADVANCED_FACE ( 'NONE', ( #463 ), #411, .T. ) ;
#370 = ORIENTED_EDGE ( 'NONE', *, *, #1024, .F. ) ;
#371 = AXIS2_PLACEMENT_3D ( 'NONE', #852, #410, #834 ) ;
#372 = DIRECTION ( 'NONE',  ( -1.000000000000000000, 0.0000000000000000000, 0.0000000000000000000 ) ) ;
#373 = DIRECTION ( 'NONE',  ( 1.000000000000000000, 0.0000000000000000000, 0.0000000000000000000 ) ) ;
#374 = DIRECTION ( 'NONE',  ( 1.000000000000000000, 0.0000000000000000000, 0.0000000000000000000 ) ) ;
#375 = CARTESIAN_POINT ( 'NONE',  ( 1957.800000000000000, 942.1999999999998200, 0.0000000000000000000 ) ) ;
#376 = ORIENTED_EDGE ( 'NONE', *, *, #658, .F. ) ;
#377 = AXIS2_PLACEMENT_3D ( 'NONE', #109, #310, #1016 ) ;
#378 = VERTEX_POINT ( 'NONE', #152 ) ;
#379 = ORIENTED_EDGE ( 'NONE', *, *, #220, .T. ) ;
#380 = AXIS2_PLACEMENT_3D ( 'NONE', #3, #188, #909 ) ;
#381 = CYLINDRICAL_SURFACE ( 'NONE', #544, 149.2000000000000200 ) ;
#382 = CIRCLE ( 'NONE', #16, 149.2000000000000200 ) ;
#383 = FACE_OUTER_BOUND ( 'NONE', #748, .T. ) ;
#384 = EDGE_CURVE ( 'NONE', #548, #954, #382, .T. ) ;
#385 =( NAMED_UNIT ( * ) PLANE_ANGLE_UNIT ( ) SI_UNIT ( $, .RADIAN. ) );
#386 = DIRECTION ( 'NONE',  ( -1.000000000000000000, -0.0000000000000000000, -0.0000000000000000000 ) ) ;
#387 = AXIS2_PLACEMENT_3D ( 'NONE', #131, #137, #767 ) ;
#388 =( LENGTH_UNIT ( ) NAMED_UNIT ( * ) SI_UNIT ( .MILLI., .METRE. ) );
#389 = DIRECTION ( 'NONE',  ( 6.123233995736766000E-017, 1.000000000000000000, 0.0000000000000000000 ) ) ;
#390 = EDGE_LOOP ( 'NONE', ( #844, #995, #662, #272, #230 ) ) ;
#391 = ORIENTED_EDGE ( 'NONE', *, *, #1123, .F. ) ;
#392 = VECTOR ( 'NONE', #171, 1000.000000000000000 ) ;
#393 = CIRCLE ( 'NONE', #351, 149.2000000000000200 ) ;
#394 = CARTESIAN_POINT ( 'NONE',  ( 1957.800000000000000, 1399.999999999999800, 0.0000000000000000000 ) ) ;
#395 = LINE ( 'NONE', #1092, #149 ) ;
#396 = CARTESIAN_POINT ( 'NONE',  ( 1957.800000000000000, 1561.899999999999900, 0.0000000000000000000 ) ) ;
#397 = VERTEX_POINT ( 'NONE', #1049 ) ;
#398 = DIRECTION ( 'NONE',  ( 0.0000000000000000000, 0.0000000000000000000, -1.000000000000000000 ) ) ;
#399 = EDGE_CURVE ( 'NONE', #190, #297, #6, .T. ) ;
#400 = CARTESIAN_POINT ( 'NONE',  ( 0.0000000000000000000, 1.827173024327851400E-014, -149.2000000000000200 ) ) ;
#401 = CARTESIAN_POINT ( 'NONE',  ( 0.0000000000000000000, 0.0000000000000000000, 149.2000000000000200 ) ) ;
#402 = DIRECTION ( 'NONE',  ( 0.0000000000000000000, 0.0000000000000000000, -1.000000000000000000 ) ) ;
#403 = AXIS2_PLACEMENT_3D ( 'NONE', #79, #540, #189 ) ;
#404 = DIRECTION ( 'NONE',  ( -1.000000000000000000, -0.0000000000000000000, -0.0000000000000000000 ) ) ;
#405 = VERTEX_POINT ( 'NONE', #329 ) ;
#406 = CARTESIAN_POINT ( 'NONE',  ( 1042.200000000000000, 457.8000000000000100, 0.0000000000000000000 ) ) ;
#407 = ORIENTED_EDGE ( 'NONE', *, *, #108, .T. ) ;
#408 = EDGE_CURVE ( 'NONE', #187, #761, #448, .T. ) ;
#409 = CARTESIAN_POINT ( 'NONE',  ( 1957.800000000000000, 1399.999999999999800, 0.0000000000000000000 ) ) ;
#410 = DIRECTION ( 'NONE',  ( 1.000000000000000000, 0.0000000000000000000, 0.0000000000000000000 ) ) ;
#411 = TOROIDAL_SURFACE ( 'NONE', #1058, 457.8000000000001800, 161.9000000000000100 ) ;
#412 = ORIENTED_EDGE ( 'NONE', *, *, #24, .T. ) ;
#413 = AXIS2_PLACEMENT_3D ( 'NONE', #1142, #955, #710 ) ;
#414 = EDGE_LOOP ( 'NONE', ( #757, #1135 ) ) ;
#415 = EDGE_CURVE ( 'NONE', #405, #39, #432, .T. ) ;
#416 = PRESENTATION_STYLE_ASSIGNMENT (( #968 ) ) ;
#417 = LINE ( 'NONE', #937, #947 ) ;
#418 = CIRCLE ( 'NONE', #683, 161.9000000000000100 ) ;
#419 = ORIENTED_EDGE ( 'NONE', *, *, #649, .F. ) ;
#420 = DIRECTION ( 'NONE',  ( 1.000000000000000000, 0.0000000000000000000, 0.0000000000000000000 ) ) ;
#421 = CIRCLE ( 'NONE', #843, 308.6000000000001900 ) ;
#422 = CARTESIAN_POINT ( 'NONE',  ( 1499.999999999999800, 457.8000000000000100, -149.2000000000000200 ) ) ;
#423 = DIRECTION ( 'NONE',  ( 1.000000000000000000, 0.0000000000000000000, 0.0000000000000000000 ) ) ;
#424 = CARTESIAN_POINT ( 'NONE',  ( 1957.800000000000000, 942.1999999999998200, 0.0000000000000000000 ) ) ;
#425 = AXIS2_PLACEMENT_3D ( 'NONE', #245, #63, #239 ) ;
#426 = ORIENTED_EDGE ( 'NONE', *, *, #1094, .F. ) ;
#427 = ORIENTED_EDGE ( 'NONE', *, *, #197, .F. ) ;
#428 = DIRECTION ( 'NONE',  ( 0.0000000000000000000, 0.0000000000000000000, 1.000000000000000000 ) ) ;
#429 = ADVANCED_FACE ( 'NONE', ( #1160 ), #641, .F. ) ;
#430 = CIRCLE ( 'NONE', #282, 149.2000000000000200 ) ;
#431 = AXIS2_PLACEMENT_3D ( 'NONE', #296, #666, #570 ) ;
#432 = CIRCLE ( 'NONE', #827, 161.9000000000000100 ) ;
#433 = CARTESIAN_POINT ( 'NONE',  ( 1499.999999999999800, 457.8000000000000100, 0.0000000000000000000 ) ) ;
#434 = EDGE_LOOP ( 'NONE', ( #450, #128, #29, #343, #362 ) ) ;
#435 = FACE_OUTER_BOUND ( 'NONE', #783, .T. ) ;
#436 =( LENGTH_UNIT ( ) NAMED_UNIT ( * ) SI_UNIT ( .MILLI., .METRE. ) );
#437 = AXIS2_PLACEMENT_3D ( 'NONE', #1148, #613, #798 ) ;
#438 = VERTEX_POINT ( 'NONE', #862 ) ;
#439 = DIRECTION ( 'NONE',  ( 1.000000000000000000, 0.0000000000000000000, 0.0000000000000000000 ) ) ;
#440 = EDGE_CURVE ( 'NONE', #956, #142, #135, .T. ) ;
#441 = CLOSED_SHELL ( 'NONE', ( #252, #1147, #796, #267, #971, #981, #543, #967, #709, #885, #812, #521 ) ) ;
#442 = AXIS2_PLACEMENT_3D ( 'NONE', #409, #315, #402 ) ;
#443 = VERTEX_POINT ( 'NONE', #460 ) ;
#444 = UNCERTAINTY_MEASURE_WITH_UNIT (LENGTH_MEASURE( 1.000000000000000100E-005 ), #103, 'distance_accuracy_value', 'NONE');
#445 = CARTESIAN_POINT ( 'NONE',  ( 1957.800000000000000, 942.1999999999998200, 0.0000000000000000000 ) ) ;
#446 = VECTOR ( 'NONE', #728, 1000.000000000000000 ) ;
#447 = ADVANCED_FACE ( 'NONE', ( #1057, #829 ), #465, .F. ) ;
#448 = LINE ( 'NONE', #242, #1101 ) ;
#449 = DIRECTION ( 'NONE',  ( 0.0000000000000000000, 0.0000000000000000000, -1.000000000000000000 ) ) ;
#450 = ORIENTED_EDGE ( 'NONE', *, *, #440, .F. ) ;
#451 = EDGE_CURVE ( 'NONE', #554, #100, #585, .T. ) ;
#452 = ORIENTED_EDGE ( 'NONE', *, *, #14, .F. ) ;
#453 = TOROIDAL_SURFACE ( 'NONE', #901, 457.8000000000000100, 149.2000000000000200 ) ;
#454 = DIRECTION ( 'NONE',  ( -0.0000000000000000000, -0.0000000000000000000, -1.000000000000000000 ) ) ;
#455 = ADVANCED_FACE ( 'NONE', ( #354 ), #805, .T. ) ;
#456 = DIRECTION ( 'NONE',  ( 1.000000000000000000, 0.0000000000000000000, 0.0000000000000000000 ) ) ;
#457 = VERTEX_POINT ( 'NONE', #817 ) ;
#458 = CARTESIAN_POINT ( 'NONE',  ( 0.0000000000000000000, 0.0000000000000000000, 0.0000000000000000000 ) ) ;
#459 = ORIENTED_EDGE ( 'NONE', *, *, #144, .T. ) ;
#460 = CARTESIAN_POINT ( 'NONE',  ( 1042.200000000000000, -149.1999999999999900, 0.0000000000000000000 ) ) ;
#461 = AXIS2_PLACEMENT_3D ( 'NONE', #539, #894, #824 ) ;
#462 = DIRECTION ( 'NONE',  ( 1.000000000000000000, 0.0000000000000000000, 0.0000000000000000000 ) ) ;
#463 = FACE_OUTER_BOUND ( 'NONE', #355, .T. ) ;
#464 = EDGE_CURVE ( 'NONE', #636, #775, #528, .T. ) ;
#465 = PLANE ( 'NONE',  #989 ) ;
#466 = PRODUCT_CONTEXT ( 'NONE', #284, 'mechanical' ) ;
#467 = ORIENTED_EDGE ( 'NONE', *, *, #837, .T. ) ;
#468 = ORIENTED_EDGE ( 'NONE', *, *, #1150, .T. ) ;
#469 = AXIS2_PLACEMENT_3D ( 'NONE', #581, #676, #398 ) ;
#470 = DIRECTION ( 'NONE',  ( 0.0000000000000000000, 0.0000000000000000000, -1.000000000000000000 ) ) ;
#471 = CARTESIAN_POINT ( 'NONE',  ( 1350.799999999999700, 942.1999999999998200, 0.0000000000000000000 ) ) ;
#472 = ORIENTED_EDGE ( 'NONE', *, *, #592, .F. ) ;
#473 = DIRECTION ( 'NONE',  ( 0.0000000000000000000, 0.0000000000000000000, 1.000000000000000000 ) ) ;
#474 = VERTEX_POINT ( 'NONE', #820 ) ;
#475 = EDGE_CURVE ( 'NONE', #142, #123, #1004, .T. ) ;
#476 = AXIS2_PLACEMENT_3D ( 'NONE', #359, #551, #807 ) ;
#477 = FACE_OUTER_BOUND ( 'NONE', #1087, .T. ) ;
#478 = CIRCLE ( 'NONE', #1118, 161.9000000000000100 ) ;
#479 = VERTEX_POINT ( 'NONE', #18 ) ;
#480 = EDGE_CURVE ( 'NONE', #988, #270, #867, .T. ) ;
#481 = CARTESIAN_POINT ( 'NONE',  ( 1042.200000000000000, 457.8000000000000100, 0.0000000000000000000 ) ) ;
#482 = DIRECTION ( 'NONE',  ( 0.0000000000000000000, 0.0000000000000000000, -1.000000000000000000 ) ) ;
#483 = DIRECTION ( 'NONE',  ( 0.0000000000000000000, 0.0000000000000000000, -1.000000000000000000 ) ) ;
#484 = DIRECTION ( 'NONE',  ( 0.0000000000000000000, 0.0000000000000000000, 1.000000000000000000 ) ) ;
#485 = ORIENTED_EDGE ( 'NONE', *, *, #349, .F. ) ;
#486 = ORIENTED_EDGE ( 'NONE', *, *, #617, .F. ) ;
#487 = DIRECTION ( 'NONE',  ( 1.000000000000000000, 0.0000000000000000000, 0.0000000000000000000 ) ) ;
#488 = CARTESIAN_POINT ( 'NONE',  ( 1499.999999999999800, 942.1999999999998200, -161.9000000000000100 ) ) ;
#489 = AXIS2_PLACEMENT_3D ( 'NONE', #287, #1095, #552 ) ;
#490 = CARTESIAN_POINT ( 'NONE',  ( 1957.800000000000000, 1250.799999999999700, 1.827173024327854800E-014 ) ) ;
#491 = CARTESIAN_POINT ( 'NONE',  ( 1499.999999999999800, 457.8000000000000100, 0.0000000000000000000 ) ) ;
#492 = LINE ( 'NONE', #1133, #5 ) ;
#493 = FACE_OUTER_BOUND ( 'NONE', #983, .T. ) ;
#494 = EDGE_LOOP ( 'NONE', ( #110, #254, #154, #651, #951, #1045 ) ) ;
#495 = DIRECTION ( 'NONE',  ( 1.000000000000000000, 0.0000000000000000000, 0.0000000000000000000 ) ) ;
#496 = AXIS2_PLACEMENT_3D ( 'NONE', #303, #572, #661 ) ;
#497 = DIRECTION ( 'NONE',  ( 0.0000000000000000000, 1.000000000000000000, 0.0000000000000000000 ) ) ;
#498 = AXIS2_PLACEMENT_3D ( 'NONE', #445, #454, #357 ) ;
#499 = VERTEX_POINT ( 'NONE', #838 ) ;
#500 = EDGE_CURVE ( 'NONE', #474, #130, #50, .T. ) ;
#501 = CARTESIAN_POINT ( 'NONE',  ( 1957.800000000000000, 1399.999999999999800, -149.2000000000000200 ) ) ;
#502 = CIRCLE ( 'NONE', #727, 149.2000000000000200 ) ;
#503 = PRODUCT_DEFINITION ( 'UNKNOWN', '', #1098, #860 ) ;
#504 = FACE_OUTER_BOUND ( 'NONE', #390, .T. ) ;
#505 = ORIENTED_EDGE ( 'NONE', *, *, #178, .F. ) ;
#506 = EDGE_LOOP ( 'NONE', ( #238, #331, #200, #468, #1065, #1064 ) ) ;
#507 = DIRECTION ( 'NONE',  ( 0.0000000000000000000, 0.0000000000000000000, -1.000000000000000000 ) ) ;
#508 = EDGE_LOOP ( 'NONE', ( #505, #912, #319, #8, #842, #753 ) ) ;
#509 = CARTESIAN_POINT ( 'NONE',  ( 3000.000000000000000, 1399.999999999999800, -149.2000000000000200 ) ) ;
#510 = ORIENTED_EDGE ( 'NONE', *, *, #637, .F. ) ;
#511 = DIRECTION ( 'NONE',  ( 0.0000000000000000000, 1.000000000000000000, 0.0000000000000000000 ) ) ;
#512 = CARTESIAN_POINT ( 'NONE',  ( 1957.800000000000000, 1399.999999999999800, 0.0000000000000000000 ) ) ;
#513 = CIRCLE ( 'NONE', #681, 308.6000000000001900 ) ;
#514 = CIRCLE ( 'NONE', #469, 149.2000000000000200 ) ;
#515 =( NAMED_UNIT ( * ) SI_UNIT ( $, .STERADIAN. ) SOLID_ANGLE_UNIT ( ) );
#516 = AXIS2_PLACEMENT_3D ( 'NONE', #84, #90, #819 ) ;
#517 = VERTEX_POINT ( 'NONE', #40 ) ;
#518 = CARTESIAN_POINT ( 'NONE',  ( 1499.999999999999800, 457.8000000000000100, 0.0000000000000000000 ) ) ;
#519 = CARTESIAN_POINT ( 'NONE',  ( 0.0000000000000000000, 0.0000000000000000000, 0.0000000000000000000 ) ) ;
#520 = EDGE_CURVE ( 'NONE', #174, #1164, #291, .T. ) ;
#521 = ADVANCED_FACE ( 'NONE', ( #477 ), #31, .F. ) ;
#522 = AXIS2_PLACEMENT_3D ( 'NONE', #433, #1149, #1054 ) ;
#523 = CARTESIAN_POINT ( 'NONE',  ( 1499.999999999999800, 457.8000000000000100, 149.2000000000000200 ) ) ;
#524 = ORIENTED_EDGE ( 'NONE', *, *, #837, .F. ) ;
#525 = ORIENTED_EDGE ( 'NONE', *, *, #440, .T. ) ;
#526 = ADVANCED_FACE ( 'NONE', ( #493 ), #752, .T. ) ;
#527 = FACE_OUTER_BOUND ( 'NONE', #506, .T. ) ;
#528 = CIRCLE ( 'NONE', #75, 149.2000000000000200 ) ;
#529 = CARTESIAN_POINT ( 'NONE',  ( 3000.000000000000000, 1399.999999999999800, 149.2000000000000200 ) ) ;
#530 = VERTEX_POINT ( 'NONE', #659 ) ;
#531 = CARTESIAN_POINT ( 'NONE',  ( 1957.800000000000000, 942.1999999999998200, 1.827173024327851400E-014 ) ) ;
#532 = VERTEX_POINT ( 'NONE', #119 ) ;
#533 = VERTEX_POINT ( 'NONE', #400 ) ;
#534 = PRESENTATION_LAYER_ASSIGNMENT (  '', '', ( #785 ) ) ;
#535 = ADVANCED_FACE ( 'NONE', ( #1125 ), #893, .F. ) ;
#536 = CARTESIAN_POINT ( 'NONE',  ( 1957.800000000000000, 1399.999999999999800, 0.0000000000000000000 ) ) ;
#537 = CARTESIAN_POINT ( 'NONE',  ( 1957.800000000000000, 942.1999999999998200, 0.0000000000000000000 ) ) ;
#538 = EDGE_CURVE ( 'NONE', #791, #615, #247, .T. ) ;
#539 = CARTESIAN_POINT ( 'NONE',  ( 1499.999999999999800, 457.8000000000000100, 0.0000000000000000000 ) ) ;
#540 = DIRECTION ( 'NONE',  ( -1.000000000000000000, -0.0000000000000000000, -0.0000000000000000000 ) ) ;
#541 = EDGE_LOOP ( 'NONE', ( #407, #112, #739, #833, #26, #573 ) ) ;
#542 = ORIENTED_EDGE ( 'NONE', *, *, #136, .T. ) ;
#543 = ADVANCED_FACE ( 'NONE', ( #718 ), #737, .T. ) ;
#544 = AXIS2_PLACEMENT_3D ( 'NONE', #1061, #996, #998 ) ;
#545 = DIRECTION ( 'NONE',  ( -0.0000000000000000000, -0.0000000000000000000, -1.000000000000000000 ) ) ;
#546 = LINE ( 'NONE', #1066, #446 ) ;
#547 = FACE_OUTER_BOUND ( 'NONE', #263, .T. ) ;
#548 = VERTEX_POINT ( 'NONE', #21 ) ;
#549 = AXIS2_PLACEMENT_3D ( 'NONE', #328, #56, #1122 ) ;
#550 = ORIENTED_EDGE ( 'NONE', *, *, #890, .F. ) ;
#551 = DIRECTION ( 'NONE',  ( 1.000000000000000000, 0.0000000000000000000, 0.0000000000000000000 ) ) ;
#552 = DIRECTION ( 'NONE',  ( 0.0000000000000000000, 0.0000000000000000000, -1.000000000000000000 ) ) ;
#553 = AXIS2_PLACEMENT_3D ( 'NONE', #846, #36, #122 ) ;
#554 = VERTEX_POINT ( 'NONE', #488 ) ;
#555 = DIRECTION ( 'NONE',  ( 1.000000000000000000, 0.0000000000000000000, 0.0000000000000000000 ) ) ;
#556 = AXIS2_PLACEMENT_3D ( 'NONE', #818, #987, #714 ) ;
#557 = DIRECTION ( 'NONE',  ( 1.000000000000000000, 0.0000000000000000000, 0.0000000000000000000 ) ) ;
#558 = PRESENTATION_STYLE_ASSIGNMENT (( #644 ) ) ;
#559 = CIRCLE ( 'NONE', #811, 149.2000000000000200 ) ;
#560 = EDGE_CURVE ( 'NONE', #530, #203, #417, .T. ) ;
#561 = DIRECTION ( 'NONE',  ( 1.000000000000000000, 0.0000000000000000000, 0.0000000000000000000 ) ) ;
#562 = CIRCLE ( 'NONE', #377, 161.9000000000000100 ) ;
#563 = DIRECTION ( 'NONE',  ( 1.000000000000000000, 0.0000000000000000000, 0.0000000000000000000 ) ) ;
#564 = VERTEX_POINT ( 'NONE', #208 ) ;
#565 = DIRECTION ( 'NONE',  ( 6.123233995736766000E-017, 1.000000000000000000, 0.0000000000000000000 ) ) ;
#566 = DIRECTION ( 'NONE',  ( 0.0000000000000000000, 0.0000000000000000000, 1.000000000000000000 ) ) ;
#567 = CARTESIAN_POINT ( 'NONE',  ( 3000.000000000000000, 1399.999999999999800, 0.0000000000000000000 ) ) ;
#568 = CARTESIAN_POINT ( 'NONE',  ( 3000.000000000000000, 1399.999999999999800, 0.0000000000000000000 ) ) ;
#569 = EDGE_CURVE ( 'NONE', #201, #636, #657, .T. ) ;
#570 = DIRECTION ( 'NONE',  ( 0.0000000000000000000, 0.0000000000000000000, -1.000000000000000000 ) ) ;
#571 = TOROIDAL_SURFACE ( 'NONE', #48, 457.8000000000000100, 149.2000000000000200 ) ;
#572 = DIRECTION ( 'NONE',  ( 6.123233995736766000E-017, 1.000000000000000000, 0.0000000000000000000 ) ) ;
#573 = ORIENTED_EDGE ( 'NONE', *, *, #80, .T. ) ;
#574 = ORIENTED_EDGE ( 'NONE', *, *, #30, .T. ) ;
#575 = CARTESIAN_POINT ( 'NONE',  ( 1042.200000000000000, 0.0000000000000000000, 161.9000000000000100 ) ) ;
#576 = AXIS2_PLACEMENT_3D ( 'NONE', #194, #555, #1082 ) ;
#577 = DIRECTION ( 'NONE',  ( -1.000000000000000000, 0.0000000000000000000, 0.0000000000000000000 ) ) ;
#578 = DIRECTION ( 'NONE',  ( 0.0000000000000000000, 0.0000000000000000000, 1.000000000000000000 ) ) ;
#579 = ORIENTED_EDGE ( 'NONE', *, *, #1106, .T. ) ;
#580 = EDGE_CURVE ( 'NONE', #1120, #1, #933, .T. ) ;
#581 = CARTESIAN_POINT ( 'NONE',  ( 1499.999999999999800, 457.8000000000000100, 0.0000000000000000000 ) ) ;
#582 = AXIS2_PLACEMENT_3D ( 'NONE', #836, #484, #198 ) ;
#583 = CARTESIAN_POINT ( 'NONE',  ( 1499.999999999999800, 457.8000000000000100, 0.0000000000000000000 ) ) ;
#584 = CYLINDRICAL_SURFACE ( 'NONE', #403, 149.2000000000000200 ) ;
#585 = CIRCLE ( 'NONE', #735, 161.9000000000000100 ) ;
#586 = CARTESIAN_POINT ( 'NONE',  ( 1042.200000000000000, 0.0000000000000000000, 0.0000000000000000000 ) ) ;
#587 = VECTOR ( 'NONE', #1030, 1000.000000000000000 ) ;
#588 = ORIENTED_EDGE ( 'NONE', *, *, #53, .T. ) ;
#589 = EDGE_CURVE ( 'NONE', #479, #761, #181, .T. ) ;
#590 = AXIS2_PLACEMENT_3D ( 'NONE', #158, #797, #953 ) ;
#591 = ORIENTED_EDGE ( 'NONE', *, *, #464, .F. ) ;
#592 = EDGE_CURVE ( 'NONE', #443, #530, #1141, .T. ) ;
#593 = FACE_OUTER_BOUND ( 'NONE', #668, .T. ) ;
#594 = AXIS2_PLACEMENT_3D ( 'NONE', #1084, #741, #7 ) ;
#595 = FACE_OUTER_BOUND ( 'NONE', #44, .T. ) ;
#596 = DIRECTION ( 'NONE',  ( 1.000000000000000000, 0.0000000000000000000, 0.0000000000000000000 ) ) ;
#597 = VERTEX_POINT ( 'NONE', #1027 ) ;
#598 = DIRECTION ( 'NONE',  ( -0.0000000000000000000, -0.0000000000000000000, -1.000000000000000000 ) ) ;
#599 = ORIENTED_EDGE ( 'NONE', *, *, #1007, .F. ) ;
#600 = DIRECTION ( 'NONE',  ( 0.0000000000000000000, 1.000000000000000000, 0.0000000000000000000 ) ) ;
#601 = CARTESIAN_POINT ( 'NONE',  ( 1499.999999999999800, 942.1999999999998200, 0.0000000000000000000 ) ) ;
#602 = AXIS2_PLACEMENT_3D ( 'NONE', #211, #929, #205 ) ;
#603 = CARTESIAN_POINT ( 'NONE',  ( 1499.999999999999800, 942.1999999999998200, -149.2000000000000200 ) ) ;
#604 = DIRECTION ( 'NONE',  ( 0.0000000000000000000, 0.0000000000000000000, -1.000000000000000000 ) ) ;
#605 = ORIENTED_EDGE ( 'NONE', *, *, #415, .T. ) ;
#606 = ORIENTED_EDGE ( 'NONE', *, *, #1024, .T. ) ;
#607 = CARTESIAN_POINT ( 'NONE',  ( 1499.999999999999800, 457.8000000000000100, 149.2000000000000200 ) ) ;
#608 = AXIS2_PLACEMENT_3D ( 'NONE', #831, #386, #578 ) ;
#609 = DIRECTION ( 'NONE',  ( -1.000000000000000000, 0.0000000000000000000, 0.0000000000000000000 ) ) ;
#610 = FACE_OUTER_BOUND ( 'NONE', #1051, .T. ) ;
#611 = ADVANCED_BREP_SHAPE_REPRESENTATION ( 'curved_fluid_and_pipe_fsi_example', ( #980, #859, #164 ), #957 ) ;
#612 = CYLINDRICAL_SURFACE ( 'NONE', #249, 149.2000000000000200 ) ;
#613 = DIRECTION ( 'NONE',  ( 6.123233995736766000E-017, 1.000000000000000000, 0.0000000000000000000 ) ) ;
#614 = AXIS2_PLACEMENT_3D ( 'NONE', #700, #878, #72 ) ;
#615 = VERTEX_POINT ( 'NONE', #127 ) ;
#616 = FILL_AREA_STYLE ('',( #1136 ) ) ;
#617 = EDGE_CURVE ( 'NONE', #332, #1000, #224, .T. ) ;
#618 = DIRECTION ( 'NONE',  ( 0.0000000000000000000, 0.0000000000000000000, -1.000000000000000000 ) ) ;
#619 = ADVANCED_FACE ( 'NONE', ( #504 ), #639, .F. ) ;
#620 = CARTESIAN_POINT ( 'NONE',  ( 1499.999999999999800, 942.1999999999998200, 0.0000000000000000000 ) ) ;
#621 = ORIENTED_EDGE ( 'NONE', *, *, #1106, .F. ) ;
#622 = EDGE_LOOP ( 'NONE', ( #368, #379, #145, #196, #360, #427 ) ) ;
#623 = CARTESIAN_POINT ( 'NONE',  ( 3000.000000000000000, 1399.999999999999800, 0.0000000000000000000 ) ) ;
#624 = CARTESIAN_POINT ( 'NONE',  ( 1957.800000000000000, 1399.999999999999800, 149.2000000000000200 ) ) ;
#625 = LINE ( 'NONE', #1132, #1159 ) ;
#626 = ADVANCED_FACE ( 'NONE', ( #1139 ), #907, .T. ) ;
#627 = CIRCLE ( 'NONE', #549, 149.2000000000000200 ) ;
#628 = CYLINDRICAL_SURFACE ( 'NONE', #678, 149.2000000000000200 ) ;
#629 = CARTESIAN_POINT ( 'NONE',  ( 1042.200000000000000, 457.8000000000000100, 0.0000000000000000000 ) ) ;
#630 = ORIENTED_EDGE ( 'NONE', *, *, #213, .F. ) ;
#631 = DIRECTION ( 'NONE',  ( 0.0000000000000000000, 0.0000000000000000000, -1.000000000000000000 ) ) ;
#632 = DIRECTION ( 'NONE',  ( -0.0000000000000000000, -0.0000000000000000000, -1.000000000000000000 ) ) ;
#633 = VERTEX_POINT ( 'NONE', #696 ) ;
#634 = AXIS2_PLACEMENT_3D ( 'NONE', #1155, #1168, #618 ) ;
#635 = FILL_AREA_STYLE ('',( #289 ) ) ;
#636 = VERTEX_POINT ( 'NONE', #509 ) ;
#637 = EDGE_CURVE ( 'NONE', #988, #936, #492, .T. ) ;
#638 = CARTESIAN_POINT ( 'NONE',  ( 1042.200000000000000, 0.0000000000000000000, 0.0000000000000000000 ) ) ;
#639 = CYLINDRICAL_SURFACE ( 'NONE', #1002, 149.2000000000000200 ) ;
#640 = DIRECTION ( 'NONE',  ( 0.0000000000000000000, 1.000000000000000000, 0.0000000000000000000 ) ) ;
#641 = CYLINDRICAL_SURFACE ( 'NONE', #257, 149.2000000000000200 ) ;
#642 = CARTESIAN_POINT ( 'NONE',  ( 1957.800000000000000, 1399.999999999999800, 0.0000000000000000000 ) ) ;
#643 = AXIS2_PLACEMENT_3D ( 'NONE', #406, #1025, #487 ) ;
#644 = SURFACE_STYLE_USAGE ( .BOTH. , #910 ) ;
#645 = ORIENTED_EDGE ( 'NONE', *, *, #1044, .T. ) ;
#646 = COLOUR_RGB ( '',0.7921568627450980000, 0.8196078431372548800, 0.9333333333333333500 ) ;
#647 =( NAMED_UNIT ( * ) PLANE_ANGLE_UNIT ( ) SI_UNIT ( $, .RADIAN. ) );
#648 = UNCERTAINTY_MEASURE_WITH_UNIT (LENGTH_MEASURE( 1.000000000000000100E-005 ), #388, 'distance_accuracy_value', 'NONE');
#649 = EDGE_CURVE ( 'NONE', #597, #457, #246, .T. ) ;
#650 = CARTESIAN_POINT ( 'NONE',  ( 1499.999999999999800, 942.1999999999998200, -149.2000000000000200 ) ) ;
#651 = ORIENTED_EDGE ( 'NONE', *, *, #726, .T. ) ;
#652 = CARTESIAN_POINT ( 'NONE',  ( 1957.800000000000000, 942.1999999999998200, 0.0000000000000000000 ) ) ;
#653 = STYLED_ITEM ( 'NONE', ( #416 ), #980 ) ;
#654 = ORIENTED_EDGE ( 'NONE', *, *, #825, .F. ) ;
#655 = DIRECTION ( 'NONE',  ( 0.0000000000000000000, 0.0000000000000000000, -1.000000000000000000 ) ) ;
#656 = CYLINDRICAL_SURFACE ( 'NONE', #156, 149.2000000000000200 ) ;
#657 = LINE ( 'NONE', #125, #261 ) ;
#658 = EDGE_CURVE ( 'NONE', #1, #847, #702, .T. ) ;
#659 = CARTESIAN_POINT ( 'NONE',  ( 1042.200000000000000, 1.827173024327851400E-014, -149.2000000000000200 ) ) ;
#660 = ORIENTED_EDGE ( 'NONE', *, *, #309, .T. ) ;
#661 = DIRECTION ( 'NONE',  ( 0.0000000000000000000, 0.0000000000000000000, -1.000000000000000000 ) ) ;
#662 = ORIENTED_EDGE ( 'NONE', *, *, #560, .T. ) ;
#663 = CIRCLE ( 'NONE', #973, 149.2000000000000200 ) ;
#664 = AXIS2_PLACEMENT_3D ( 'NONE', #586, #55, #141 ) ;
#665 = CARTESIAN_POINT ( 'NONE',  ( 1042.200000000000000, 457.8000000000000100, 0.0000000000000000000 ) ) ;
#666 = DIRECTION ( 'NONE',  ( 6.123233995736766000E-017, 1.000000000000000000, 0.0000000000000000000 ) ) ;
#667 = DIRECTION ( 'NONE',  ( -1.000000000000000000, -0.0000000000000000000, -0.0000000000000000000 ) ) ;
#668 = EDGE_LOOP ( 'NONE', ( #486, #1110, #1040, #115, #510, #210 ) ) ;
#669 = DIRECTION ( 'NONE',  ( 0.0000000000000000000, 0.0000000000000000000, 1.000000000000000000 ) ) ;
#670 = ORIENTED_EDGE ( 'NONE', *, *, #940, .F. ) ;
#671 = CARTESIAN_POINT ( 'NONE',  ( 1649.200000000000000, 457.8000000000000100, 0.0000000000000000000 ) ) ;
#672 = DIRECTION ( 'NONE',  ( 1.000000000000000000, 0.0000000000000000000, 0.0000000000000000000 ) ) ;
#673 = CIRCLE ( 'NONE', #803, 149.2000000000000200 ) ;
#674 = CARTESIAN_POINT ( 'NONE',  ( 1957.800000000000000, 1399.999999999999800, 0.0000000000000000000 ) ) ;
#675 = FACE_OUTER_BOUND ( 'NONE', #434, .T. ) ;
#676 = DIRECTION ( 'NONE',  ( 6.123233995736766000E-017, 1.000000000000000000, 0.0000000000000000000 ) ) ;
#677 = ORIENTED_EDGE ( 'NONE', *, *, #617, .T. ) ;
#678 = AXIS2_PLACEMENT_3D ( 'NONE', #939, #850, #669 ) ;
#679 = TOROIDAL_SURFACE ( 'NONE', #1033, 457.8000000000001800, 149.2000000000000200 ) ;
#680 = EDGE_LOOP ( 'NONE', ( #599, #970, #70, #161, #670, #159 ) ) ;
#681 = AXIS2_PLACEMENT_3D ( 'NONE', #1073, #982, #889 ) ;
#682 = ORIENTED_EDGE ( 'NONE', *, *, #151, .T. ) ;
#683 = AXIS2_PLACEMENT_3D ( 'NONE', #642, #899, #826 ) ;
#684 = CARTESIAN_POINT ( 'NONE',  ( 1042.200000000000000, 149.2000000000000200, -1.827173024327851700E-014 ) ) ;
#685 = ORIENTED_EDGE ( 'NONE', *, *, #580, .T. ) ;
#686 = DIRECTION ( 'NONE',  ( 6.123233995736766000E-017, 1.000000000000000000, 0.0000000000000000000 ) ) ;
#687 = CIRCLE ( 'NONE', #1090, 619.7000000000001600 ) ;
#688 = CIRCLE ( 'NONE', #906, 149.2000000000000200 ) ;
#689 = ORIENTED_EDGE ( 'NONE', *, *, #964, .F. ) ;
#690 = ORIENTED_EDGE ( 'NONE', *, *, #255, .F. ) ;
#691 = EDGE_LOOP ( 'NONE', ( #682, #943, #52, #1162, #724 ) ) ;
#692 = CARTESIAN_POINT ( 'NONE',  ( 1499.999999999999800, 457.8000000000000100, 149.2000000000000200 ) ) ;
#693 = ORIENTED_EDGE ( 'NONE', *, *, #87, .F. ) ;
#694 = EDGE_CURVE ( 'NONE', #1012, #184, #430, .T. ) ;
#695 = DIRECTION ( 'NONE',  ( 0.0000000000000000000, 0.0000000000000000000, -1.000000000000000000 ) ) ;
#696 = CARTESIAN_POINT ( 'NONE',  ( 1957.800000000000000, 1399.999999999999800, 149.2000000000000200 ) ) ;
#697 = ORIENTED_EDGE ( 'NONE', *, *, #1014, .F. ) ;
#698 = DIRECTION ( 'NONE',  ( 0.0000000000000000000, 0.0000000000000000000, -1.000000000000000000 ) ) ;
#699 = DIRECTION ( 'NONE',  ( 6.123233995736766000E-017, 1.000000000000000000, 0.0000000000000000000 ) ) ;
#700 = CARTESIAN_POINT ( 'NONE',  ( 1499.999999999999800, 457.8000000000000100, 0.0000000000000000000 ) ) ;
#701 = PRESENTATION_LAYER_ASSIGNMENT (  '', '', ( #1076 ) ) ;
#702 = CIRCLE ( 'NONE', #1081, 161.9000000000000100 ) ;
#703 = VECTOR ( 'NONE', #404, 1000.000000000000000 ) ;
#704 = ORIENTED_EDGE ( 'NONE', *, *, #399, .F. ) ;
#705 = CARTESIAN_POINT ( 'NONE',  ( 0.0000000000000000000, 0.0000000000000000000, 0.0000000000000000000 ) ) ;
#706 = EDGE_CURVE ( 'NONE', #564, #286, #393, .T. ) ;
#707 = ORIENTED_EDGE ( 'NONE', *, *, #451, .F. ) ;
#708 = AXIS2_PLACEMENT_3D ( 'NONE', #157, #782, #695 ) ;
#709 = ADVANCED_FACE ( 'NONE', ( #610 ), #571, .T. ) ;
#710 = DIRECTION ( 'NONE',  ( 0.0000000000000000000, 0.0000000000000000000, -1.000000000000000000 ) ) ;
#711 = DIRECTION ( 'NONE',  ( 1.000000000000000000, 0.0000000000000000000, 0.0000000000000000000 ) ) ;
#712 = ORIENTED_EDGE ( 'NONE', *, *, #781, .T. ) ;
#713 = ORIENTED_EDGE ( 'NONE', *, *, #80, .F. ) ;
#714 = DIRECTION ( 'NONE',  ( 0.0000000000000000000, 0.0000000000000000000, -1.000000000000000000 ) ) ;
#715 = ORIENTED_EDGE ( 'NONE', *, *, #749, .F. ) ;
#716 = CARTESIAN_POINT ( 'NONE',  ( 1042.200000000000000, -149.1999999999999900, 0.0000000000000000000 ) ) ;
#717 = CIRCLE ( 'NONE', #476, 149.2000000000000200 ) ;
#718 = FACE_OUTER_BOUND ( 'NONE', #494, .T. ) ;
#719 = DIRECTION ( 'NONE',  ( 1.000000000000000000, 0.0000000000000000000, 0.0000000000000000000 ) ) ;
#720 = AXIS2_PLACEMENT_3D ( 'NONE', #799, #348, #1048 ) ;
#721 = FACE_OUTER_BOUND ( 'NONE', #1128, .T. ) ;
#722 = CARTESIAN_POINT ( 'NONE',  ( 1042.200000000000000, 1.982703167819565100E-014, -161.9000000000000100 ) ) ;
#723 = DIRECTION ( 'NONE',  ( 1.000000000000000000, 0.0000000000000000000, 0.0000000000000000000 ) ) ;
#724 = ORIENTED_EDGE ( 'NONE', *, *, #408, .F. ) ;
#725 = DIRECTION ( 'NONE',  ( 6.123233995736766000E-017, 1.000000000000000000, 0.0000000000000000000 ) ) ;
#726 = EDGE_CURVE ( 'NONE', #286, #102, #513, .T. ) ;
#727 = AXIS2_PLACEMENT_3D ( 'NONE', #1035, #138, #858 ) ;
#728 = DIRECTION ( 'NONE',  ( 0.0000000000000000000, 1.000000000000000000, 0.0000000000000000000 ) ) ;
#729 = ORIENTED_EDGE ( 'NONE', *, *, #330, .F. ) ;
#730 = ORIENTED_EDGE ( 'NONE', *, *, #47, .F. ) ;
#731 = ADVANCED_FACE ( 'NONE', ( #527 ), #325, .F. ) ;
#732 = DIRECTION ( 'NONE',  ( 1.000000000000000000, 0.0000000000000000000, 0.0000000000000000000 ) ) ;
#733 = DIRECTION ( 'NONE',  ( 6.123233995736766000E-017, 1.000000000000000000, 0.0000000000000000000 ) ) ;
#734 = CARTESIAN_POINT ( 'NONE',  ( 1957.800000000000000, 942.1999999999998200, 0.0000000000000000000 ) ) ;
#735 = AXIS2_PLACEMENT_3D ( 'NONE', #104, #733, #96 ) ;
#736 = DIRECTION ( 'NONE',  ( 1.000000000000000000, 0.0000000000000000000, 0.0000000000000000000 ) ) ;
#737 = TOROIDAL_SURFACE ( 'NONE', #162, 457.8000000000001800, 149.2000000000000200 ) ;
#738 = APPLICATION_CONTEXT ( 'automotive_design' ) ;
#739 = ORIENTED_EDGE ( 'NONE', *, *, #24, .F. ) ;
#740 = CARTESIAN_POINT ( 'NONE',  ( 1499.999999999999800, 457.8000000000000100, 161.9000000000000100 ) ) ;
#741 = DIRECTION ( 'NONE',  ( -0.0000000000000000000, -0.0000000000000000000, -1.000000000000000000 ) ) ;
#742 = AXIS2_PLACEMENT_3D ( 'NONE', #227, #1026, #1109 ) ;
#743 = CARTESIAN_POINT ( 'NONE',  ( 1499.999999999999800, 942.1999999999998200, 0.0000000000000000000 ) ) ;
#744 = CARTESIAN_POINT ( 'NONE',  ( 1042.200000000000000, 0.0000000000000000000, 0.0000000000000000000 ) ) ;
#745 = ORIENTED_EDGE ( 'NONE', *, *, #808, .F. ) ;
#746 = AXIS2_PLACEMENT_3D ( 'NONE', #458, #736, #631 ) ;
#747 = DIRECTION ( 'NONE',  ( 0.0000000000000000000, 0.0000000000000000000, -1.000000000000000000 ) ) ;
#748 = EDGE_LOOP ( 'NONE', ( #391, #485, #944, #1127, #816, #768 ) ) ;
#749 = EDGE_CURVE ( 'NONE', #57, #175, #932, .T. ) ;
#750 = DIRECTION ( 'NONE',  ( 0.0000000000000000000, 0.0000000000000000000, 1.000000000000000000 ) ) ;
#751 = CIRCLE ( 'NONE', #380, 161.9000000000000100 ) ;
#752 = TOROIDAL_SURFACE ( 'NONE', #244, 457.8000000000000100, 161.9000000000000100 ) ;
#753 = ORIENTED_EDGE ( 'NONE', *, *, #480, .T. ) ;
#754 = ORIENTED_EDGE ( 'NONE', *, *, #271, .F. ) ;
#755 = CARTESIAN_POINT ( 'NONE',  ( 0.0000000000000000000, 0.0000000000000000000, 0.0000000000000000000 ) ) ;
#756 = EDGE_CURVE ( 'NONE', #190, #548, #840, .T. ) ;
#757 = ORIENTED_EDGE ( 'NONE', *, *, #520, .F. ) ;
#758 = DIRECTION ( 'NONE',  ( -1.000000000000000000, 0.0000000000000000000, 0.0000000000000000000 ) ) ;
#759 = DIRECTION ( 'NONE',  ( 0.0000000000000000000, 0.0000000000000000000, -1.000000000000000000 ) ) ;
#760 = CIRCLE ( 'NONE', #186, 149.2000000000000200 ) ;
#761 = VERTEX_POINT ( 'NONE', #273 ) ;
#762 = ORIENTED_EDGE ( 'NONE', *, *, #1001, .F. ) ;
#763 = PRESENTATION_STYLE_ASSIGNMENT (( #97 ) ) ;
#764 = CARTESIAN_POINT ( 'NONE',  ( 1957.800000000000000, 1399.999999999999800, -149.2000000000000200 ) ) ;
#765 =( GEOMETRIC_REPRESENTATION_CONTEXT ( 3 ) GLOBAL_UNCERTAINTY_ASSIGNED_CONTEXT ( ( #776 ) ) GLOBAL_UNIT_ASSIGNED_CONTEXT ( ( #1091, #385, #1086 ) ) REPRESENTATION_CONTEXT ( 'NONE', 'WORKASPACE' ) );
#766 = EDGE_CURVE ( 'NONE', #474, #443, #89, .T. ) ;
#767 = DIRECTION ( 'NONE',  ( 1.000000000000000000, 0.0000000000000000000, 0.0000000000000000000 ) ) ;
#768 = ORIENTED_EDGE ( 'NONE', *, *, #898, .T. ) ;
#769 = AXIS2_PLACEMENT_3D ( 'NONE', #320, #38, #930 ) ;
#770 = DIRECTION ( 'NONE',  ( 0.0000000000000000000, 1.000000000000000000, 0.0000000000000000000 ) ) ;
#771 = CYLINDRICAL_SURFACE ( 'NONE', #769, 161.9000000000000100 ) ;
#772 = DIRECTION ( 'NONE',  ( 6.123233995736766000E-017, 1.000000000000000000, 0.0000000000000000000 ) ) ;
#773 = ORIENTED_EDGE ( 'NONE', *, *, #706, .F. ) ;
#774 = EDGE_CURVE ( 'NONE', #533, #532, #335, .T. ) ;
#775 = VERTEX_POINT ( 'NONE', #529 ) ;
#776 = UNCERTAINTY_MEASURE_WITH_UNIT (LENGTH_MEASURE( 1.000000000000000100E-005 ), #1091, 'distance_accuracy_value', 'NONE');
#777 = ORIENTED_EDGE ( 'NONE', *, *, #281, .T. ) ;
#778 = AXIS2_PLACEMENT_3D ( 'NONE', #1070, #268, #449 ) ;
#779 = CARTESIAN_POINT ( 'NONE',  ( 1499.999999999999800, 457.8000000000000100, 0.0000000000000000000 ) ) ;
#780 = ORIENTED_EDGE ( 'NONE', *, *, #87, .T. ) ;
#781 = EDGE_CURVE ( 'NONE', #297, #791, #804, .T. ) ;
#782 = DIRECTION ( 'NONE',  ( 6.123233995736766000E-017, 1.000000000000000000, 0.0000000000000000000 ) ) ;
#783 = EDGE_LOOP ( 'NONE', ( #472, #265, #1156, #677, #821, #269 ) ) ;
#784 = DIRECTION ( 'NONE',  ( 0.0000000000000000000, 0.0000000000000000000, 1.000000000000000000 ) ) ;
#785 = STYLED_ITEM ( 'NONE', ( #558 ), #859 ) ;
#786 = VECTOR ( 'NONE', #511, 1000.000000000000000 ) ;
#787 = DIRECTION ( 'NONE',  ( 0.0000000000000000000, 0.0000000000000000000, -1.000000000000000000 ) ) ;
#788 = CYLINDRICAL_SURFACE ( 'NONE', #516, 149.2000000000000200 ) ;
#789 = CIRCLE ( 'NONE', #643, 607.0000000000000000 ) ;
#790 = DIRECTION ( 'NONE',  ( -1.000000000000000000, -0.0000000000000000000, -0.0000000000000000000 ) ) ;
#791 = VERTEX_POINT ( 'NONE', #716 ) ;
#792 = CARTESIAN_POINT ( 'NONE',  ( 1042.200000000000000, 457.8000000000000100, 0.0000000000000000000 ) ) ;
#793 = AXIS2_PLACEMENT_3D ( 'NONE', #946, #168, #339 ) ;
#794 = EDGE_CURVE ( 'NONE', #102, #201, #290, .T. ) ;
#795 = CARTESIAN_POINT ( 'NONE',  ( 1499.999999999999800, 942.1999999999998200, 149.2000000000000200 ) ) ;
#796 = ADVANCED_FACE ( 'NONE', ( #595 ), #584, .T. ) ;
#797 = DIRECTION ( 'NONE',  ( 0.0000000000000000000, 0.0000000000000000000, 1.000000000000000000 ) ) ;
#798 = DIRECTION ( 'NONE',  ( 0.0000000000000000000, 0.0000000000000000000, -1.000000000000000000 ) ) ;
#799 = CARTESIAN_POINT ( 'NONE',  ( 1957.800000000000000, 1399.999999999999800, 0.0000000000000000000 ) ) ;
#800 = ORIENTED_EDGE ( 'NONE', *, *, #569, .F. ) ;
#801 = ORIENTED_EDGE ( 'NONE', *, *, #1094, .T. ) ;
#802 = ADVANCED_FACE ( 'NONE', ( #193 ), #788, .F. ) ;
#803 = AXIS2_PLACEMENT_3D ( 'NONE', #744, #462, #470 ) ;
#804 = CIRCLE ( 'NONE', #250, 149.2000000000000200 ) ;
#805 = CYLINDRICAL_SURFACE ( 'NONE', #61, 161.9000000000000100 ) ;
#806 = ORIENTED_EDGE ( 'NONE', *, *, #323, .T. ) ;
#807 = DIRECTION ( 'NONE',  ( 0.0000000000000000000, 0.0000000000000000000, -1.000000000000000000 ) ) ;
#808 = EDGE_CURVE ( 'NONE', #775, #636, #76, .T. ) ;
#809 = DIRECTION ( 'NONE',  ( 0.0000000000000000000, 0.0000000000000000000, -1.000000000000000000 ) ) ;
#810 = ORIENTED_EDGE ( 'NONE', *, *, #1150, .F. ) ;
#811 = AXIS2_PLACEMENT_3D ( 'NONE', #1119, #124, #759 ) ;
#812 = ADVANCED_FACE ( 'NONE', ( #1113 ), #1063, .T. ) ;
#813 = CIRCLE ( 'NONE', #413, 149.2000000000000200 ) ;
#814 = DIRECTION ( 'NONE',  ( -1.000000000000000000, 0.0000000000000000000, 0.0000000000000000000 ) ) ;
#815 = ORIENTED_EDGE ( 'NONE', *, *, #384, .F. ) ;
#816 = ORIENTED_EDGE ( 'NONE', *, *, #47, .T. ) ;
#817 = CARTESIAN_POINT ( 'NONE',  ( 1661.899999999999900, 457.8000000000000100, 0.0000000000000000000 ) ) ;
#818 = CARTESIAN_POINT ( 'NONE',  ( 1499.999999999999800, 942.1999999999998200, 0.0000000000000000000 ) ) ;
#819 = DIRECTION ( 'NONE',  ( 0.0000000000000000000, 0.0000000000000000000, 1.000000000000000000 ) ) ;
#820 = CARTESIAN_POINT ( 'NONE',  ( 1042.200000000000000, 0.0000000000000000000, 149.2000000000000200 ) ) ;
#821 = ORIENTED_EDGE ( 'NONE', *, *, #73, .F. ) ;
#822 = CARTESIAN_POINT ( 'NONE',  ( 0.0000000000000000000, 0.0000000000000000000, 161.9000000000000100 ) ) ;
#823 = EDGE_LOOP ( 'NONE', ( #712, #300, #1053, #815, #116, #302 ) ) ;
#824 = DIRECTION ( 'NONE',  ( 0.0000000000000000000, 0.0000000000000000000, 1.000000000000000000 ) ) ;
#825 = EDGE_CURVE ( 'NONE', #46, #922, #959, .T. ) ;
#826 = DIRECTION ( 'NONE',  ( 0.0000000000000000000, 0.0000000000000000000, -1.000000000000000000 ) ) ;
#827 = AXIS2_PLACEMENT_3D ( 'NONE', #518, #772, #231 ) ;
#828 = FACE_OUTER_BOUND ( 'NONE', #680, .T. ) ;
#829 = FACE_OUTER_BOUND ( 'NONE', #229, .T. ) ;
#830 = ORIENTED_EDGE ( 'NONE', *, *, #794, .T. ) ;
#831 = CARTESIAN_POINT ( 'NONE',  ( 1042.200000000000000, 0.0000000000000000000, 0.0000000000000000000 ) ) ;
#832 = EDGE_CURVE ( 'NONE', #922, #187, #1017, .T. ) ;
#833 = ORIENTED_EDGE ( 'NONE', *, *, #794, .F. ) ;
#834 = DIRECTION ( 'NONE',  ( 0.0000000000000000000, 0.0000000000000000000, -1.000000000000000000 ) ) ;
#835 = ORIENTED_EDGE ( 'NONE', *, *, #1129, .F. ) ;
#836 = CARTESIAN_POINT ( 'NONE',  ( 1042.200000000000000, 457.8000000000000100, -1.982703167819565100E-014 ) ) ;
#837 = EDGE_CURVE ( 'NONE', #791, #378, #673, .T. ) ;
#838 = CARTESIAN_POINT ( 'NONE',  ( 1042.200000000000000, 161.9000000000000100, -1.982703167819564800E-014 ) ) ;
#839 = CIRCLE ( 'NONE', #69, 161.9000000000000100 ) ;
#840 = CIRCLE ( 'NONE', #172, 308.5999999999999700 ) ;
#841 = DIRECTION ( 'NONE',  ( -1.000000000000000000, 0.0000000000000000000, 0.0000000000000000000 ) ) ;
#842 = ORIENTED_EDGE ( 'NONE', *, *, #235, .T. ) ;
#843 = AXIS2_PLACEMENT_3D ( 'NONE', #531, #985, #814 ) ;
#844 = ORIENTED_EDGE ( 'NONE', *, *, #766, .T. ) ;
#845 = DIRECTION ( 'NONE',  ( 1.000000000000000000, 0.0000000000000000000, 0.0000000000000000000 ) ) ;
#846 = CARTESIAN_POINT ( 'NONE',  ( 1499.999999999999800, 942.1999999999998200, 0.0000000000000000000 ) ) ;
#847 = VERTEX_POINT ( 'NONE', #13 ) ;
#848 = DIRECTION ( 'NONE',  ( 0.0000000000000000000, 0.0000000000000000000, -1.000000000000000000 ) ) ;
#849 = AXIS2_PLACEMENT_3D ( 'NONE', #792, #882, #711 ) ;
#850 = DIRECTION ( 'NONE',  ( 0.0000000000000000000, 1.000000000000000000, 0.0000000000000000000 ) ) ;
#851 = ORIENTED_EDGE ( 'NONE', *, *, #136, .F. ) ;
#852 = CARTESIAN_POINT ( 'NONE',  ( 3000.000000000000000, 1399.999999999999800, 0.0000000000000000000 ) ) ;
#853 = CARTESIAN_POINT ( 'NONE',  ( 3000.000000000000000, 1399.999999999999800, -149.2000000000000200 ) ) ;
#854 = LINE ( 'NONE', #692, #234 ) ;
#855 = CIRCLE ( 'NONE', #1042, 161.9000000000000100 ) ;
#856 = DIRECTION ( 'NONE',  ( 0.0000000000000000000, 0.0000000000000000000, 1.000000000000000000 ) ) ;
#857 = AXIS2_PLACEMENT_3D ( 'NONE', #182, #1077, #94 ) ;
#858 = DIRECTION ( 'NONE',  ( 0.0000000000000000000, 0.0000000000000000000, -1.000000000000000000 ) ) ;
#859 = MANIFOLD_SOLID_BREP ( 'Varredura2', #288 ) ;
#860 = PRODUCT_DEFINITION_CONTEXT ( 'detailed design', #738, 'design' ) ;
#861 = EDGE_CURVE ( 'NONE', #438, #46, #49, .T. ) ;
#862 = CARTESIAN_POINT ( 'NONE',  ( 1499.999999999999800, 942.1999999999998200, 161.9000000000000100 ) ) ;
#863 = VERTEX_POINT ( 'NONE', #471 ) ;
#864 = ORIENTED_EDGE ( 'NONE', *, *, #952, .T. ) ;
#865 = CARTESIAN_POINT ( 'NONE',  ( 1499.999999999999800, 457.8000000000000100, -149.2000000000000200 ) ) ;
#866 = LINE ( 'NONE', #62, #306 ) ;
#867 = CIRCLE ( 'NONE', #883, 149.2000000000000200 ) ;
#868 = DIRECTION ( 'NONE',  ( -0.0000000000000000000, -0.0000000000000000000, -1.000000000000000000 ) ) ;
#869 = ORIENTED_EDGE ( 'NONE', *, *, #408, .T. ) ;
#870 = AXIS2_PLACEMENT_3D ( 'NONE', #512, #423, #143 ) ;
#871 = ORIENTED_EDGE ( 'NONE', *, *, #14, .T. ) ;
#872 = CARTESIAN_POINT ( 'NONE',  ( 1042.200000000000000, 0.0000000000000000000, 0.0000000000000000000 ) ) ;
#873 = DIRECTION ( 'NONE',  ( 0.0000000000000000000, 0.0000000000000000000, 1.000000000000000000 ) ) ;
#874 = ORIENTED_EDGE ( 'NONE', *, *, #336, .F. ) ;
#875 = CARTESIAN_POINT ( 'NONE',  ( 1957.800000000000000, 1399.999999999999800, 149.2000000000000200 ) ) ;
#876 = MECHANICAL_DESIGN_GEOMETRIC_PRESENTATION_REPRESENTATION (  '', ( #1076 ), #765 ) ;
#877 = CIRCLE ( 'NONE', #139, 161.9000000000000100 ) ;
#878 = DIRECTION ( 'NONE',  ( 0.0000000000000000000, 1.000000000000000000, 0.0000000000000000000 ) ) ;
#879 = EDGE_CURVE ( 'NONE', #888, #499, #751, .T. ) ;
#880 = ORIENTED_EDGE ( 'NONE', *, *, #580, .F. ) ;
#881 = LINE ( 'NONE', #624, #1075 ) ;
#882 = DIRECTION ( 'NONE',  ( 0.0000000000000000000, 0.0000000000000000000, 1.000000000000000000 ) ) ;
#883 = AXIS2_PLACEMENT_3D ( 'NONE', #316, #565, #301 ) ;
#884 = CARTESIAN_POINT ( 'NONE',  ( 1957.800000000000000, 1399.999999999999800, 0.0000000000000000000 ) ) ;
#885 = ADVANCED_FACE ( 'NONE', ( #547 ), #381, .T. ) ;
#886 = DIRECTION ( 'NONE',  ( 6.123233995736766000E-017, 1.000000000000000000, 0.0000000000000000000 ) ) ;
#887 = CARTESIAN_POINT ( 'NONE',  ( 1042.200000000000000, 457.8000000000000100, 0.0000000000000000000 ) ) ;
#888 = VERTEX_POINT ( 'NONE', #722 ) ;
#889 = DIRECTION ( 'NONE',  ( -1.000000000000000000, 0.0000000000000000000, 0.0000000000000000000 ) ) ;
#890 = EDGE_CURVE ( 'NONE', #597, #888, #975, .T. ) ;
#891 = ORIENTED_EDGE ( 'NONE', *, *, #890, .T. ) ;
#892 = ADVANCED_FACE ( 'NONE', ( #148 ), #1031, .F. ) ;
#893 = TOROIDAL_SURFACE ( 'NONE', #307, 457.8000000000001800, 149.2000000000000200 ) ;
#894 = DIRECTION ( 'NONE',  ( 0.0000000000000000000, 1.000000000000000000, 0.0000000000000000000 ) ) ;
#895 = EDGE_LOOP ( 'NONE', ( #905, #754, #729, #660, #1146 ) ) ;
#896 = CARTESIAN_POINT ( 'NONE',  ( 1042.200000000000000, 0.0000000000000000000, 161.9000000000000100 ) ) ;
#897 = EDGE_LOOP ( 'NONE', ( #1143, #864, #806, #1020, #835 ) ) ;
#898 = EDGE_CURVE ( 'NONE', #1134, #1012, #502, .T. ) ;
#899 = DIRECTION ( 'NONE',  ( 1.000000000000000000, 0.0000000000000000000, 0.0000000000000000000 ) ) ;
#900 = ADVANCED_FACE ( 'NONE', ( #222 ), #134, .T. ) ;
#901 = AXIS2_PLACEMENT_3D ( 'NONE', #629, #86, #294 ) ;
#902 = DIRECTION ( 'NONE',  ( 0.0000000000000000000, 0.0000000000000000000, -1.000000000000000000 ) ) ;
#903 = ORIENTED_EDGE ( 'NONE', *, *, #589, .F. ) ;
#904 = CARTESIAN_POINT ( 'NONE',  ( 3000.000000000000000, 1399.999999999999800, 149.2000000000000200 ) ) ;
#905 = ORIENTED_EDGE ( 'NONE', *, *, #1158, .F. ) ;
#906 = AXIS2_PLACEMENT_3D ( 'NONE', #140, #1021, #221 ) ;
#907 = TOROIDAL_SURFACE ( 'NONE', #1023, 457.8000000000001800, 161.9000000000000100 ) ;
#908 = CIRCLE ( 'NONE', #556, 149.2000000000000200 ) ;
#909 = DIRECTION ( 'NONE',  ( 0.0000000000000000000, 0.0000000000000000000, -1.000000000000000000 ) ) ;
#910 = SURFACE_SIDE_STYLE ('',( #308 ) ) ;
#911 = EDGE_LOOP ( 'NONE', ( #412, #979, #241, #591, #800 ) ) ;
#912 = ORIENTED_EDGE ( 'NONE', *, *, #766, .F. ) ;
#913 = APPLICATION_PROTOCOL_DEFINITION ( 'draft international standard', 'automotive_design', 1998, #738 ) ;
#914 = DIRECTION ( 'NONE',  ( 1.000000000000000000, 0.0000000000000000000, 0.0000000000000000000 ) ) ;
#915 = MECHANICAL_DESIGN_GEOMETRIC_PRESENTATION_REPRESENTATION (  '', ( #653 ), #111 ) ;
#916 = ORIENTED_EDGE ( 'NONE', *, *, #649, .T. ) ;
#917 = EDGE_CURVE ( 'NONE', #179, #548, #1056, .T. ) ;
#918 = ORIENTED_EDGE ( 'NONE', *, *, #832, .F. ) ;
#919 = CIRCLE ( 'NONE', #778, 161.9000000000000100 ) ;
#920 = CIRCLE ( 'NONE', #708, 149.2000000000000200 ) ;
#921 = DIRECTION ( 'NONE',  ( 1.000000000000000000, 0.0000000000000000000, 0.0000000000000000000 ) ) ;
#922 = VERTEX_POINT ( 'NONE', #340 ) ;
#923 = CARTESIAN_POINT ( 'NONE',  ( 1338.099999999999900, 942.1999999999998200, 0.0000000000000000000 ) ) ;
#924 = ORIENTED_EDGE ( 'NONE', *, *, #756, .T. ) ;
#925 = AXIS2_PLACEMENT_3D ( 'NONE', #1038, #420, #507 ) ;
#926 = DIRECTION ( 'NONE',  ( 0.0000000000000000000, 0.0000000000000000000, -1.000000000000000000 ) ) ;
#927 = DIRECTION ( 'NONE',  ( -0.0000000000000000000, -0.0000000000000000000, -1.000000000000000000 ) ) ;
#928 = EDGE_LOOP ( 'NONE', ( #574, #1108, #1093, #713, #773, #120 ) ) ;
#929 = DIRECTION ( 'NONE',  ( 1.000000000000000000, 0.0000000000000000000, 0.0000000000000000000 ) ) ;
#930 = DIRECTION ( 'NONE',  ( 0.0000000000000000000, 0.0000000000000000000, -1.000000000000000000 ) ) ;
#931 = CARTESIAN_POINT ( 'NONE',  ( 1957.800000000000000, 942.1999999999998200, 0.0000000000000000000 ) ) ;
#932 = CIRCLE ( 'NONE', #358, 161.9000000000000100 ) ;
#933 = LINE ( 'NONE', #575, #703 ) ;
#934 = DIRECTION ( 'NONE',  ( 6.123233995736766000E-017, 1.000000000000000000, 0.0000000000000000000 ) ) ;
#935 =( GEOMETRIC_REPRESENTATION_CONTEXT ( 3 ) GLOBAL_UNCERTAINTY_ASSIGNED_CONTEXT ( ( #444 ) ) GLOBAL_UNIT_ASSIGNED_CONTEXT ( ( #103, #223, #1018 ) ) REPRESENTATION_CONTEXT ( 'NONE', 'WORKASPACE' ) );
#936 = VERTEX_POINT ( 'NONE', #795 ) ;
#937 = CARTESIAN_POINT ( 'NONE',  ( 1042.200000000000000, 1.827173024327851400E-014, -149.2000000000000200 ) ) ;
#938 = ORIENTED_EDGE ( 'NONE', *, *, #271, .T. ) ;
#939 = CARTESIAN_POINT ( 'NONE',  ( 1499.999999999999800, 457.8000000000000100, 0.0000000000000000000 ) ) ;
#940 = EDGE_CURVE ( 'NONE', #863, #564, #992, .T. ) ;
#941 = AXIS2_PLACEMENT_3D ( 'NONE', #674, #1111, #318 ) ;
#942 = UNCERTAINTY_MEASURE_WITH_UNIT (LENGTH_MEASURE( 1.000000000000000100E-005 ), #436, 'distance_accuracy_value', 'NONE');
#943 = ORIENTED_EDGE ( 'NONE', *, *, #749, .T. ) ;
#944 = ORIENTED_EDGE ( 'NONE', *, *, #480, .F. ) ;
#945 = DIRECTION ( 'NONE',  ( -1.000000000000000000, 0.0000000000000000000, 0.0000000000000000000 ) ) ;
#946 = CARTESIAN_POINT ( 'NONE',  ( 1042.200000000000000, 0.0000000000000000000, 0.0000000000000000000 ) ) ;
#947 = VECTOR ( 'NONE', #667, 1000.000000000000000 ) ;
#948 = EDGE_CURVE ( 'NONE', #130, #203, #166, .T. ) ;
#949 = CIRCLE ( 'NONE', #431, 149.2000000000000200 ) ;
#950 = PRODUCT_DEFINITION_SHAPE ( 'NONE', 'NONE',  #503 ) ;
#951 = ORIENTED_EDGE ( 'NONE', *, *, #281, .F. ) ;
#952 = EDGE_CURVE ( 'NONE', #530, #311, #813, .T. ) ;
#953 = DIRECTION ( 'NONE',  ( 1.000000000000000000, 0.0000000000000000000, 0.0000000000000000000 ) ) ;
#954 = VERTEX_POINT ( 'NONE', #607 ) ;
#955 = DIRECTION ( 'NONE',  ( 1.000000000000000000, 0.0000000000000000000, 0.0000000000000000000 ) ) ;
#956 = VERTEX_POINT ( 'NONE', #875 ) ;
#957 =( GEOMETRIC_REPRESENTATION_CONTEXT ( 3 ) GLOBAL_UNCERTAINTY_ASSIGNED_CONTEXT ( ( #648 ) ) GLOBAL_UNIT_ASSIGNED_CONTEXT ( ( #388, #647, #101 ) ) REPRESENTATION_CONTEXT ( 'NONE', 'WORKASPACE' ) );
#958 = DIRECTION ( 'NONE',  ( 0.0000000000000000000, 0.0000000000000000000, -1.000000000000000000 ) ) ;
#959 = CIRCLE ( 'NONE', #594, 295.9000000000002600 ) ;
#960 = DIRECTION ( 'NONE',  ( 1.000000000000000000, 0.0000000000000000000, 0.0000000000000000000 ) ) ;
#961 = FACE_OUTER_BOUND ( 'NONE', #928, .T. ) ;
#962 = DIRECTION ( 'NONE',  ( 1.000000000000000000, 0.0000000000000000000, 0.0000000000000000000 ) ) ;
#963 = AXIS2_PLACEMENT_3D ( 'NONE', #337, #596, #236 ) ;
#964 = EDGE_CURVE ( 'NONE', #847, #1, #105, .T. ) ;
#965 = ORIENTED_EDGE ( 'NONE', *, *, #808, .T. ) ;
#966 = CARTESIAN_POINT ( 'NONE',  ( 1499.999999999999800, 457.8000000000000100, 0.0000000000000000000 ) ) ;
#967 = ADVANCED_FACE ( 'NONE', ( #828 ), #367, .T. ) ;
#968 = SURFACE_STYLE_USAGE ( .BOTH. , #1050 ) ;
#969 = VERTEX_POINT ( 'NONE', #342 ) ;
#970 = ORIENTED_EDGE ( 'NONE', *, *, #917, .T. ) ;
#971 = ADVANCED_FACE ( 'NONE', ( #353 ), #365, .T. ) ;
#972 = DIRECTION ( 'NONE',  ( 1.000000000000000000, 0.0000000000000000000, 0.0000000000000000000 ) ) ;
#973 = AXIS2_PLACEMENT_3D ( 'NONE', #568, #106, #747 ) ;
#974 = DIRECTION ( 'NONE',  ( 0.0000000000000000000, 0.0000000000000000000, -1.000000000000000000 ) ) ;
#975 = CIRCLE ( 'NONE', #664, 161.9000000000000100 ) ;
#976 = FACE_OUTER_BOUND ( 'NONE', #823, .T. ) ;
#977 = DIRECTION ( 'NONE',  ( 0.0000000000000000000, 0.0000000000000000000, -1.000000000000000000 ) ) ;
#978 = EDGE_CURVE ( 'NONE', #297, #532, #1069, .T. ) ;
#979 = ORIENTED_EDGE ( 'NONE', *, *, #298, .T. ) ;
#980 = MANIFOLD_SOLID_BREP ( 'Varredura1', #441 ) ;
#981 = ADVANCED_FACE ( 'NONE', ( #1041 ), #1099, .T. ) ;
#982 = DIRECTION ( 'NONE',  ( -0.0000000000000000000, -0.0000000000000000000, -1.000000000000000000 ) ) ;
#983 = EDGE_LOOP ( 'NONE', ( #419, #891, #183, #542, #82, #350 ) ) ;
#984 = PRODUCT_RELATED_PRODUCT_CATEGORY ( 'part', '', ( #233 ) ) ;
#985 = DIRECTION ( 'NONE',  ( -0.0000000000000000000, -0.0000000000000000000, -1.000000000000000000 ) ) ;
#986 = ADVANCED_FACE ( 'NONE', ( #593 ), #656, .F. ) ;
#987 = DIRECTION ( 'NONE',  ( 6.123233995736766000E-017, 1.000000000000000000, 0.0000000000000000000 ) ) ;
#988 = VERTEX_POINT ( 'NONE', #523 ) ;
#989 = AXIS2_PLACEMENT_3D ( 'NONE', #92, #914, #292 ) ;
#990 = DIRECTION ( 'NONE',  ( 0.0000000000000000000, 0.0000000000000000000, -1.000000000000000000 ) ) ;
#991 = DIRECTION ( 'NONE',  ( 1.000000000000000000, 0.0000000000000000000, 0.0000000000000000000 ) ) ;
#992 = CIRCLE ( 'NONE', #437, 149.2000000000000200 ) ;
#993 = DIRECTION ( 'NONE',  ( 0.0000000000000000000, 0.0000000000000000000, -1.000000000000000000 ) ) ;
#994 = CIRCLE ( 'NONE', #582, 295.8999999999998100 ) ;
#995 = ORIENTED_EDGE ( 'NONE', *, *, #592, .T. ) ;
#996 = DIRECTION ( 'NONE',  ( -1.000000000000000000, -0.0000000000000000000, -0.0000000000000000000 ) ) ;
#997 = AXIS2_PLACEMENT_3D ( 'NONE', #375, #545, #372 ) ;
#998 = DIRECTION ( 'NONE',  ( 0.0000000000000000000, 0.0000000000000000000, 1.000000000000000000 ) ) ;
#999 = DIRECTION ( 'NONE',  ( 0.0000000000000000000, 0.0000000000000000000, -1.000000000000000000 ) ) ;
#1000 = VERTEX_POINT ( 'NONE', #1151 ) ;
#1001 = EDGE_CURVE ( 'NONE', #1120, #597, #839, .T. ) ;
#1002 = AXIS2_PLACEMENT_3D ( 'NONE', #1145, #74, #428 ) ;
#1003 = SURFACE_SIDE_STYLE ('',( #9 ) ) ;
#1004 = CIRCLE ( 'NONE', #1138, 149.2000000000000200 ) ;
#1005 = DIRECTION ( 'NONE',  ( -0.0000000000000000000, -0.0000000000000000000, -1.000000000000000000 ) ) ;
#1006 = VECTOR ( 'NONE', #497, 1000.000000000000000 ) ;
#1007 = EDGE_CURVE ( 'NONE', #179, #95, #88, .T. ) ;
#1008 = CARTESIAN_POINT ( 'NONE',  ( 1042.200000000000000, 457.8000000000000100, -1.827173024327851400E-014 ) ) ;
#1009 = DIRECTION ( 'NONE',  ( 0.0000000000000000000, 0.0000000000000000000, 1.000000000000000000 ) ) ;
#1010 = APPLICATION_PROTOCOL_DEFINITION ( 'draft international standard', 'automotive_design', 1998, #284 ) ;
#1011 = DIRECTION ( 'NONE',  ( 1.000000000000000000, 0.0000000000000000000, 0.0000000000000000000 ) ) ;
#1012 = VERTEX_POINT ( 'NONE', #603 ) ;
#1013 = ORIENTED_EDGE ( 'NONE', *, *, #948, .T. ) ;
#1014 = EDGE_CURVE ( 'NONE', #633, #775, #866, .T. ) ;
#1015 = DIRECTION ( 'NONE',  ( 1.000000000000000000, 0.0000000000000000000, 0.0000000000000000000 ) ) ;
#1016 = DIRECTION ( 'NONE',  ( 0.0000000000000000000, 0.0000000000000000000, -1.000000000000000000 ) ) ;
#1017 = CIRCLE ( 'NONE', #576, 161.9000000000000100 ) ;
#1018 =( NAMED_UNIT ( * ) SI_UNIT ( $, .STERADIAN. ) SOLID_ANGLE_UNIT ( ) );
#1019 = FACE_OUTER_BOUND ( 'NONE', #256, .T. ) ;
#1020 = ORIENTED_EDGE ( 'NONE', *, *, #500, .T. ) ;
#1021 = DIRECTION ( 'NONE',  ( 1.000000000000000000, 0.0000000000000000000, 0.0000000000000000000 ) ) ;
#1022 = DIRECTION ( 'NONE',  ( 1.000000000000000000, 0.0000000000000000000, 0.0000000000000000000 ) ) ;
#1023 = AXIS2_PLACEMENT_3D ( 'NONE', #424, #598, #609 ) ;
#1024 = EDGE_CURVE ( 'NONE', #532, #533, #717, .T. ) ;
#1025 = DIRECTION ( 'NONE',  ( 0.0000000000000000000, 0.0000000000000000000, 1.000000000000000000 ) ) ;
#1026 = DIRECTION ( 'NONE',  ( 1.000000000000000000, 0.0000000000000000000, 0.0000000000000000000 ) ) ;
#1027 = CARTESIAN_POINT ( 'NONE',  ( 1042.200000000000000, -161.9000000000000300, 0.0000000000000000000 ) ) ;
#1028 = EDGE_LOOP ( 'NONE', ( #1013, #1126 ) ) ;
#1029 = ORIENTED_EDGE ( 'NONE', *, *, #861, .T. ) ;
#1030 = DIRECTION ( 'NONE',  ( 0.0000000000000000000, 1.000000000000000000, 0.0000000000000000000 ) ) ;
#1031 = TOROIDAL_SURFACE ( 'NONE', #590, 457.8000000000000100, 149.2000000000000200 ) ;
#1032 = TOROIDAL_SURFACE ( 'NONE', #425, 457.8000000000000100, 161.9000000000000100 ) ;
#1033 = AXIS2_PLACEMENT_3D ( 'NONE', #537, #1079, #264 ) ;
#1034 = LINE ( 'NONE', #1117, #1006 ) ;
#1035 = CARTESIAN_POINT ( 'NONE',  ( 1499.999999999999800, 942.1999999999998200, 0.0000000000000000000 ) ) ;
#1036 = EDGE_CURVE ( 'NONE', #46, #554, #919, .T. ) ;
#1037 = ORIENTED_EDGE ( 'NONE', *, *, #978, .F. ) ;
#1038 = CARTESIAN_POINT ( 'NONE',  ( 1042.200000000000000, 0.0000000000000000000, 0.0000000000000000000 ) ) ;
#1039 = ORIENTED_EDGE ( 'NONE', *, *, #255, .T. ) ;
#1040 = ORIENTED_EDGE ( 'NONE', *, *, #694, .T. ) ;
#1041 = FACE_OUTER_BOUND ( 'NONE', #1096, .T. ) ;
#1042 = AXIS2_PLACEMENT_3D ( 'NONE', #1102, #215, #482 ) ;
#1043 = VECTOR ( 'NONE', #790, 1000.000000000000000 ) ;
#1044 = EDGE_CURVE ( 'NONE', #888, #847, #625, .T. ) ;
#1045 = ORIENTED_EDGE ( 'NONE', *, *, #298, .F. ) ;
#1046 = ORIENTED_EDGE ( 'NONE', *, *, #151, .F. ) ;
#1047 = DIRECTION ( 'NONE',  ( 0.0000000000000000000, 1.000000000000000000, 0.0000000000000000000 ) ) ;
#1048 = DIRECTION ( 'NONE',  ( 0.0000000000000000000, 0.0000000000000000000, -1.000000000000000000 ) ) ;
#1049 = CARTESIAN_POINT ( 'NONE',  ( 1957.800000000000000, 1549.199999999999800, 0.0000000000000000000 ) ) ;
#1050 = SURFACE_SIDE_STYLE ('',( #259 ) ) ;
#1051 = EDGE_LOOP ( 'NONE', ( #71, #467, #780, #924, #341, #285 ) ) ;
#1052 = AXIS2_PLACEMENT_3D ( 'NONE', #623, #732, #993 ) ;
#1053 = ORIENTED_EDGE ( 'NONE', *, *, #30, .F. ) ;
#1054 = DIRECTION ( 'NONE',  ( 0.0000000000000000000, 0.0000000000000000000, -1.000000000000000000 ) ) ;
#1055 = EDGE_CURVE ( 'NONE', #863, #517, #334, .T. ) ;
#1056 = CIRCLE ( 'NONE', #93, 149.2000000000000200 ) ;
#1057 = FACE_BOUND ( 'NONE', #1028, .T. ) ;
#1058 = AXIS2_PLACEMENT_3D ( 'NONE', #345, #868, #945 ) ;
#1059 = LINE ( 'NONE', #212, #587 ) ;
#1060 = DIRECTION ( 'NONE',  ( 1.000000000000000000, 0.0000000000000000000, 0.0000000000000000000 ) ) ;
#1061 = CARTESIAN_POINT ( 'NONE',  ( 1042.200000000000000, 0.0000000000000000000, 0.0000000000000000000 ) ) ;
#1062 = CARTESIAN_POINT ( 'NONE',  ( 1042.200000000000000, 1.827173024327851400E-014, -149.2000000000000200 ) ) ;
#1063 = PLANE ( 'NONE',  #344 ) ;
#1064 = ORIENTED_EDGE ( 'NONE', *, *, #330, .T. ) ;
#1065 = ORIENTED_EDGE ( 'NONE', *, *, #475, .T. ) ;
#1066 = CARTESIAN_POINT ( 'NONE',  ( 1499.999999999999800, 457.8000000000000100, -149.2000000000000200 ) ) ;
#1067 = DIRECTION ( 'NONE',  ( 6.123233995736766000E-017, 1.000000000000000000, 0.0000000000000000000 ) ) ;
#1068 = DIRECTION ( 'NONE',  ( 1.000000000000000000, 0.0000000000000000000, 0.0000000000000000000 ) ) ;
#1069 = LINE ( 'NONE', #352, #1043 ) ;
#1070 = CARTESIAN_POINT ( 'NONE',  ( 1499.999999999999800, 942.1999999999998200, 0.0000000000000000000 ) ) ;
#1071 = EDGE_CURVE ( 'NONE', #100, #57, #687, .T. ) ;
#1072 = CIRCLE ( 'NONE', #857, 149.2000000000000200 ) ;
#1073 = CARTESIAN_POINT ( 'NONE',  ( 1957.800000000000000, 942.1999999999998200, 1.827173024327851400E-014 ) ) ;
#1074 = EDGE_LOOP ( 'NONE', ( #207, #132, #1046, #918, #654, #1152 ) ) ;
#1075 = VECTOR ( 'NONE', #374, 1000.000000000000000 ) ;
#1076 = STYLED_ITEM ( 'NONE', ( #763 ), #611 ) ;
#1077 = DIRECTION ( 'NONE',  ( 1.000000000000000000, 0.0000000000000000000, 0.0000000000000000000 ) ) ;
#1078 = DIRECTION ( 'NONE',  ( 0.0000000000000000000, 0.0000000000000000000, -1.000000000000000000 ) ) ;
#1079 = DIRECTION ( 'NONE',  ( -0.0000000000000000000, -0.0000000000000000000, -1.000000000000000000 ) ) ;
#1080 = EDGE_LOOP ( 'NONE', ( #1154, #459, #938, #525, #810, #730 ) ) ;
#1081 = AXIS2_PLACEMENT_3D ( 'NONE', #60, #439, #1131 ) ;
#1082 = DIRECTION ( 'NONE',  ( 0.0000000000000000000, 0.0000000000000000000, -1.000000000000000000 ) ) ;
#1083 = ORIENTED_EDGE ( 'NONE', *, *, #1044, .F. ) ;
#1084 = CARTESIAN_POINT ( 'NONE',  ( 1957.800000000000000, 942.1999999999998200, 1.982703167819565100E-014 ) ) ;
#1085 = CYLINDRICAL_SURFACE ( 'NONE', #870, 149.2000000000000200 ) ;
#1086 =( NAMED_UNIT ( * ) SI_UNIT ( $, .STERADIAN. ) SOLID_ANGLE_UNIT ( ) );
#1087 = EDGE_LOOP ( 'NONE', ( #370, #279 ) ) ;
#1088 = SHAPE_DEFINITION_REPRESENTATION ( #950, #611 ) ;
#1089 = CARTESIAN_POINT ( 'NONE',  ( 1957.800000000000000, 1399.999999999999800, 0.0000000000000000000 ) ) ;
#1090 = AXIS2_PLACEMENT_3D ( 'NONE', #734, #632, #81 ) ;
#1091 =( LENGTH_UNIT ( ) NAMED_UNIT ( * ) SI_UNIT ( .MILLI., .METRE. ) );
#1092 = CARTESIAN_POINT ( 'NONE',  ( 1957.800000000000000, 1399.999999999999800, 161.9000000000000100 ) ) ;
#1093 = ORIENTED_EDGE ( 'NONE', *, *, #1007, .T. ) ;
#1094 = EDGE_CURVE ( 'NONE', #100, #438, #147, .T. ) ;
#1095 = DIRECTION ( 'NONE',  ( 1.000000000000000000, 0.0000000000000000000, 0.0000000000000000000 ) ) ;
#1096 = EDGE_LOOP ( 'NONE', ( #697, #777, #830, #11, #745 ) ) ;
#1097 = CARTESIAN_POINT ( 'NONE',  ( 3000.000000000000000, 1399.999999999999800, 0.0000000000000000000 ) ) ;
#1098 = PRODUCT_DEFINITION_FORMATION_WITH_SPECIFIED_SOURCE ( 'ANY', '', #233, .NOT_KNOWN. ) ;
#1099 = CYLINDRICAL_SURFACE ( 'NONE', #10, 149.2000000000000200 ) ;
#1100 = DIRECTION ( 'NONE',  ( 0.0000000000000000000, 0.0000000000000000000, 1.000000000000000000 ) ) ;
#1101 = VECTOR ( 'NONE', #333, 1000.000000000000000 ) ;
#1102 = CARTESIAN_POINT ( 'NONE',  ( 3000.000000000000000, 1399.999999999999800, 0.0000000000000000000 ) ) ;
#1103 = CIRCLE ( 'NONE', #496, 149.2000000000000200 ) ;
#1104 = EDGE_LOOP ( 'NONE', ( #17, #871, #216, #869, #903 ) ) ;
#1105 = AXIS2_PLACEMENT_3D ( 'NONE', #567, #921, #313 ) ;
#1106 = EDGE_CURVE ( 'NONE', #378, #533, #180, .T. ) ;
#1107 = DIRECTION ( 'NONE',  ( 6.123233995736766000E-017, 1.000000000000000000, 0.0000000000000000000 ) ) ;
#1108 = ORIENTED_EDGE ( 'NONE', *, *, #228, .T. ) ;
#1109 = DIRECTION ( 'NONE',  ( 0.0000000000000000000, 0.0000000000000000000, -1.000000000000000000 ) ) ;
#1110 = ORIENTED_EDGE ( 'NONE', *, *, #1123, .T. ) ;
#1111 = DIRECTION ( 'NONE',  ( 1.000000000000000000, 0.0000000000000000000, 0.0000000000000000000 ) ) ;
#1112 = AXIS2_PLACEMENT_3D ( 'NONE', #743, #886, #251 ) ;
#1113 = FACE_OUTER_BOUND ( 'NONE', #1121, .T. ) ;
#1114 = CIRCLE ( 'NONE', #742, 161.9000000000000100 ) ;
#1115 = EDGE_LOOP ( 'NONE', ( #630, #588, #605, #150, #426, #707 ) ) ;
#1116 = EDGE_CURVE ( 'NONE', #184, #936, #908, .T. ) ;
#1117 = CARTESIAN_POINT ( 'NONE',  ( 1499.999999999999800, 457.8000000000000100, -161.9000000000000100 ) ) ;
#1118 = AXIS2_PLACEMENT_3D ( 'NONE', #45, #934, #304 ) ;
#1119 = CARTESIAN_POINT ( 'NONE',  ( 1957.800000000000000, 1399.999999999999800, 0.0000000000000000000 ) ) ;
#1120 = VERTEX_POINT ( 'NONE', #896 ) ;
#1121 = EDGE_LOOP ( 'NONE', ( #322, #965 ) ) ;
#1122 = DIRECTION ( 'NONE',  ( 0.0000000000000000000, 0.0000000000000000000, -1.000000000000000000 ) ) ;
#1123 = EDGE_CURVE ( 'NONE', #332, #1012, #546, .T. ) ;
#1124 = COLOUR_RGB ( '',0.3333333333333333100, 1.000000000000000000, 0.9372549019607843100 ) ;
#1125 = FACE_OUTER_BOUND ( 'NONE', #1080, .T. ) ;
#1126 = ORIENTED_EDGE ( 'NONE', *, *, #1129, .T. ) ;
#1127 = ORIENTED_EDGE ( 'NONE', *, *, #637, .T. ) ;
#1128 = EDGE_LOOP ( 'NONE', ( #83, #19 ) ) ;
#1129 = EDGE_CURVE ( 'NONE', #203, #130, #1072, .T. ) ;
#1130 = CARTESIAN_POINT ( 'NONE',  ( 1957.800000000000000, 1399.999999999999800, 0.0000000000000000000 ) ) ;
#1131 = DIRECTION ( 'NONE',  ( 0.0000000000000000000, 0.0000000000000000000, -1.000000000000000000 ) ) ;
#1132 = CARTESIAN_POINT ( 'NONE',  ( 1042.200000000000000, 1.982703167819565100E-014, -161.9000000000000100 ) ) ;
#1133 = CARTESIAN_POINT ( 'NONE',  ( 1499.999999999999800, 457.8000000000000100, 149.2000000000000200 ) ) ;
#1134 = VERTEX_POINT ( 'NONE', #258 ) ;
#1135 = ORIENTED_EDGE ( 'NONE', *, *, #1169, .F. ) ;
#1136 = FILL_AREA_STYLE_COLOUR ( '', #1124 ) ;
#1137 = DIRECTION ( 'NONE',  ( 6.123233995736766000E-017, 1.000000000000000000, 0.0000000000000000000 ) ) ;
#1138 = AXIS2_PLACEMENT_3D ( 'NONE', #394, #117, #483 ) ;
#1139 = FACE_OUTER_BOUND ( 'NONE', #1074, .T. ) ;
#1140 = ADVANCED_FACE ( 'NONE', ( #280 ), #185, .T. ) ;
#1141 = CIRCLE ( 'NONE', #793, 149.2000000000000200 ) ;
#1142 = CARTESIAN_POINT ( 'NONE',  ( 1042.200000000000000, 0.0000000000000000000, 0.0000000000000000000 ) ) ;
#1143 = ORIENTED_EDGE ( 'NONE', *, *, #560, .F. ) ;
#1144 = FACE_OUTER_BOUND ( 'NONE', #1115, .T. ) ;
#1145 = CARTESIAN_POINT ( 'NONE',  ( 1042.200000000000000, 0.0000000000000000000, 0.0000000000000000000 ) ) ;
#1146 = ORIENTED_EDGE ( 'NONE', *, *, #520, .T. ) ;
#1147 = ADVANCED_FACE ( 'NONE', ( #41 ), #679, .T. ) ;
#1148 = CARTESIAN_POINT ( 'NONE',  ( 1499.999999999999800, 942.1999999999998200, 0.0000000000000000000 ) ) ;
#1149 = DIRECTION ( 'NONE',  ( 6.123233995736766000E-017, 1.000000000000000000, 0.0000000000000000000 ) ) ;
#1150 = EDGE_CURVE ( 'NONE', #1134, #142, #421, .T. ) ;
#1151 = CARTESIAN_POINT ( 'NONE',  ( 1350.799999999999700, 457.8000000000000100, -1.827173024327854800E-014 ) ) ;
#1152 = ORIENTED_EDGE ( 'NONE', *, *, #1036, .T. ) ;
#1153 = PRESENTATION_LAYER_ASSIGNMENT (  '', '', ( #653 ) ) ;
#1154 = ORIENTED_EDGE ( 'NONE', *, *, #1116, .F. ) ;
#1155 = CARTESIAN_POINT ( 'NONE',  ( 1042.200000000000000, 0.0000000000000000000, 0.0000000000000000000 ) ) ;
#1156 = ORIENTED_EDGE ( 'NONE', *, *, #349, .T. ) ;
#1157 = DIRECTION ( 'NONE',  ( -1.000000000000000000, -0.0000000000000000000, -0.0000000000000000000 ) ) ;
#1158 = EDGE_CURVE ( 'NONE', #956, #1164, #881, .T. ) ;
#1159 = VECTOR ( 'NONE', #1157, 1000.000000000000000 ) ;
#1160 = FACE_OUTER_BOUND ( 'NONE', #895, .T. ) ;
#1161 = CARTESIAN_POINT ( 'NONE',  ( 3000.000000000000000, 1399.999999999999800, 0.0000000000000000000 ) ) ;
#1162 = ORIENTED_EDGE ( 'NONE', *, *, #114, .F. ) ;
#1163 = ADVANCED_FACE ( 'NONE', ( #435 ), #453, .F. ) ;
#1164 = VERTEX_POINT ( 'NONE', #904 ) ;
#1165 = DIRECTION ( 'NONE',  ( 0.0000000000000000000, 0.0000000000000000000, -1.000000000000000000 ) ) ;
#1166 = ADVANCED_FACE ( 'NONE', ( #1144 ), #209, .T. ) ;
#1167 = AXIS2_PLACEMENT_3D ( 'NONE', #665, #299, #845 ) ;
#1168 = DIRECTION ( 'NONE',  ( 1.000000000000000000, 0.0000000000000000000, 0.0000000000000000000 ) ) ;
#1169 = EDGE_CURVE ( 'NONE', #1164, #174, #663, .T. ) ;
ENDSEC;
END-ISO-10303-21;
