ISO-10303-21;
HEADER;
FILE_DESCRIPTION (( 'STEP AP214' ),
    '1' );
FILE_NAME ('decoupling_cavity_complex.STEP',
    '2026-08-09T00:12:46',
    ( '' ),
    ( '' ),
    'SwSTEP 2.0',
    'SolidWorks 2015',
    '' );
FILE_SCHEMA (( 'AUTOMOTIVE_DESIGN' ));
ENDSEC;

DATA;
#1 = SURFACE_SIDE_STYLE ('',( #1095 ) ) ;
#2 = ORIENTED_EDGE ( 'NONE', *, *, #743, .F. ) ;
#3 = ORIENTED_EDGE ( 'NONE', *, *, #45, .F. ) ;
#4 = VECTOR ( 'NONE', #116, 1000.000000000000000 ) ;
#5 = EDGE_LOOP ( 'NONE', ( #105, #1065, #535, #807 ) ) ;
#6 = CARTESIAN_POINT ( 'NONE',  ( 8.881784197001246000E-015, -79.99999999999994300, -200.0000000000000000 ) ) ;
#7 = LINE ( 'NONE', #940, #58 ) ;
#8 = LINE ( 'NONE', #1031, #824 ) ;
#9 = DIRECTION ( 'NONE',  ( -1.000000000000000000, -6.123233995736778400E-017, 0.0000000000000000000 ) ) ;
#10 = CARTESIAN_POINT ( 'NONE',  ( 0.0000000000000000000, 400.0000000000000000, 150.0000000000000000 ) ) ;
#11 = LINE ( 'NONE', #788, #452 ) ;
#12 = ORIENTED_EDGE ( 'NONE', *, *, #376, .T. ) ;
#13 = DIRECTION ( 'NONE',  ( -0.0000000000000000000, -0.0000000000000000000, -1.000000000000000000 ) ) ;
#14 = DIRECTION ( 'NONE',  ( 1.000000000000000000, 0.0000000000000000000, 0.0000000000000000000 ) ) ;
#15 =( NAMED_UNIT ( * ) PLANE_ANGLE_UNIT ( ) SI_UNIT ( $, .RADIAN. ) );
#16 = CARTESIAN_POINT ( 'NONE',  ( 600.0000000000000000, 1.224646852585167900E-014, 150.0000000000000000 ) ) ;
#17 = VERTEX_POINT ( 'NONE', #760 ) ;
#18 = CARTESIAN_POINT ( 'NONE',  ( 800.0000000000000000, 2.449293705170335700E-014, 0.0000000000000000000 ) ) ;
#19 = VECTOR ( 'NONE', #303, 1000.000000000000000 ) ;
#20 = CARTESIAN_POINT ( 'NONE',  ( 8.881784197001246000E-015, -79.99999999999994300, 200.0000000000000000 ) ) ;
#21 = CARTESIAN_POINT ( 'NONE',  ( 300.0000000000000000, -79.99999999999991500, 200.0000000000000000 ) ) ;
#22 = MANIFOLD_SOLID_BREP ( 'Ressalto-extrusão7', #840 ) ;
#23 = FACE_OUTER_BOUND ( 'NONE', #888, .T. ) ;
#24 = EDGE_CURVE ( 'NONE', #1120, #84, #520, .T. ) ;
#25 = AXIS2_PLACEMENT_3D ( 'NONE', #1123, #684, #70 ) ;
#26 = EDGE_LOOP ( 'NONE', ( #897, #748, #280, #836 ) ) ;
#27 = CARTESIAN_POINT ( 'NONE',  ( 300.0000000000000000, 6.123233995736757400E-015, 0.0000000000000000000 ) ) ;
#28 = FACE_OUTER_BOUND ( 'NONE', #583, .T. ) ;
#29 = CARTESIAN_POINT ( 'NONE',  ( 600.0000000000000000, 0.0000000000000000000, 150.0000000000000000 ) ) ;
#30 = MECHANICAL_DESIGN_GEOMETRIC_PRESENTATION_REPRESENTATION (  '', ( #85 ), #671 ) ;
#31 = EDGE_LOOP ( 'NONE', ( #922, #777, #910, #77 ) ) ;
#32 = EDGE_CURVE ( 'NONE', #1012, #622, #1074, .T. ) ;
#33 = ORIENTED_EDGE ( 'NONE', *, *, #630, .F. ) ;
#34 = ADVANCED_FACE ( 'NONE', ( #467 ), #487, .F. ) ;
#35 = LINE ( 'NONE', #428, #377 ) ;
#36 = DIRECTION ( 'NONE',  ( 1.000000000000000000, 2.775557561562891400E-017, 0.0000000000000000000 ) ) ;
#37 = ORIENTED_EDGE ( 'NONE', *, *, #391, .F. ) ;
#38 = CARTESIAN_POINT ( 'NONE',  ( 300.0000000000000000, 0.0000000000000000000, -200.0000000000000000 ) ) ;
#39 = PLANE ( 'NONE',  #413 ) ;
#40 = EDGE_CURVE ( 'NONE', #378, #209, #890, .T. ) ;
#41 = VERTEX_POINT ( 'NONE', #423 ) ;
#42 = AXIS2_PLACEMENT_3D ( 'NONE', #6, #270, #375 ) ;
#43 = DIRECTION ( 'NONE',  ( -0.0000000000000000000, -0.0000000000000000000, -1.000000000000000000 ) ) ;
#44 = VERTEX_POINT ( 'NONE', #237 ) ;
#45 = EDGE_CURVE ( 'NONE', #91, #185, #783, .T. ) ;
#46 = DIRECTION ( 'NONE',  ( 1.000000000000000000, 0.0000000000000000000, 0.0000000000000000000 ) ) ;
#47 = LINE ( 'NONE', #477, #711 ) ;
#48 = EDGE_CURVE ( 'NONE', #220, #626, #1017, .T. ) ;
#49 = ADVANCED_FACE ( 'NONE', ( #669 ), #1024, .F. ) ;
#50 = EDGE_LOOP ( 'NONE', ( #956, #33, #1078, #398 ) ) ;
#51 =( NAMED_UNIT ( * ) SI_UNIT ( $, .STERADIAN. ) SOLID_ANGLE_UNIT ( ) );
#52 = AXIS2_PLACEMENT_3D ( 'NONE', #38, #557, #469 ) ;
#53 = FILL_AREA_STYLE ('',( #1035 ) ) ;
#54 = ADVANCED_FACE ( 'NONE', ( #28 ), #944, .T. ) ;
#55 = VECTOR ( 'NONE', #639, 1000.000000000000000 ) ;
#56 =( NAMED_UNIT ( * ) PLANE_ANGLE_UNIT ( ) SI_UNIT ( $, .RADIAN. ) );
#57 = CARTESIAN_POINT ( 'NONE',  ( -200.0000000000000000, 0.0000000000000000000, 0.0000000000000000000 ) ) ;
#58 = VECTOR ( 'NONE', #519, 1000.000000000000000 ) ;
#59 = LINE ( 'NONE', #619, #1080 ) ;
#60 = DIRECTION ( 'NONE',  ( 0.0000000000000000000, 0.0000000000000000000, -1.000000000000000000 ) ) ;
#61 =( NAMED_UNIT ( * ) PLANE_ANGLE_UNIT ( ) SI_UNIT ( $, .RADIAN. ) );
#62 = FILL_AREA_STYLE_COLOUR ( '', #102 ) ;
#63 = FACE_OUTER_BOUND ( 'NONE', #272, .T. ) ;
#64 = ADVANCED_FACE ( 'NONE', ( #809 ), #1027, .T. ) ;
#65 = EDGE_CURVE ( 'NONE', #1012, #750, #7, .T. ) ;
#66 = CARTESIAN_POINT ( 'NONE',  ( 6.289557178068976300E-047, -3.081487911019577400E-030, 150.0000000000000000 ) ) ;
#67 = CARTESIAN_POINT ( 'NONE',  ( 780.0000000000000000, 300.0000000000000000, -2.449293598294705800E-014 ) ) ;
#68 = FACE_OUTER_BOUND ( 'NONE', #653, .T. ) ;
#69 = AXIS2_PLACEMENT_3D ( 'NONE', #810, #658, #205 ) ;
#70 = DIRECTION ( 'NONE',  ( 1.000000000000000000, 0.0000000000000000000, 0.0000000000000000000 ) ) ;
#71 = CARTESIAN_POINT ( 'NONE',  ( -200.0000000000000000, 0.0000000000000000000, -200.0000000000000000 ) ) ;
#72 = LINE ( 'NONE', #633, #362 ) ;
#73 = DIRECTION ( 'NONE',  ( -1.000000000000000000, -1.110223024625156500E-016, 0.0000000000000000000 ) ) ;
#74 = CARTESIAN_POINT ( 'NONE',  ( 300.0000000000000000, 6.123233995736757400E-015, 180.0000000000000300 ) ) ;
#75 = PRESENTATION_LAYER_ASSIGNMENT (  '', '', ( #989 ) ) ;
#76 = SURFACE_SIDE_STYLE ('',( #1004 ) ) ;
#77 = ORIENTED_EDGE ( 'NONE', *, *, #424, .F. ) ;
#78 = PRODUCT ( 'decoupling_cavity_complex', 'decoupling_cavity_complex', '', ( #826 ) ) ;
#79 = ORIENTED_EDGE ( 'NONE', *, *, #967, .T. ) ;
#80 = CARTESIAN_POINT ( 'NONE',  ( 600.0000000000000000, 300.0000000000000000, -2.449293598294705800E-014 ) ) ;
#81 = ORIENTED_EDGE ( 'NONE', *, *, #486, .F. ) ;
#82 = CARTESIAN_POINT ( 'NONE',  ( 0.0000000000000000000, 0.0000000000000000000, 150.0000000000000000 ) ) ;
#83 = LINE ( 'NONE', #200, #55 ) ;
#84 = VERTEX_POINT ( 'NONE', #1038 ) ;
#85 = STYLED_ITEM ( 'NONE', ( #223 ), #896 ) ;
#86 = CARTESIAN_POINT ( 'NONE',  ( 6.289557178068976300E-047, -3.081487911019577400E-030, 150.0000000000000000 ) ) ;
#87 = FACE_OUTER_BOUND ( 'NONE', #345, .T. ) ;
#88 = CARTESIAN_POINT ( 'NONE',  ( 300.0000000000000000, -79.99999999999991500, -180.0000000000000300 ) ) ;
#89 = CARTESIAN_POINT ( 'NONE',  ( 300.0000000000000000, -79.99999999999991500, -200.0000000000000000 ) ) ;
#90 = MANIFOLD_SOLID_BREP ( 'Ressalto-extrusão5', #1125 ) ;
#91 = VERTEX_POINT ( 'NONE', #74 ) ;
#92 = DIRECTION ( 'NONE',  ( 0.0000000000000000000, 0.0000000000000000000, 1.000000000000000000 ) ) ;
#93 = DIRECTION ( 'NONE',  ( 2.041077998578920100E-017, -1.000000000000000000, 0.0000000000000000000 ) ) ;
#94 = VECTOR ( 'NONE', #174, 1000.000000000000000 ) ;
#95 = PRODUCT_DEFINITION_SHAPE ( 'NONE', 'NONE',  #1073 ) ;
#96 =( GEOMETRIC_REPRESENTATION_CONTEXT ( 3 ) GLOBAL_UNCERTAINTY_ASSIGNED_CONTEXT ( ( #703 ) ) GLOBAL_UNIT_ASSIGNED_CONTEXT ( ( #436, #919, #1099 ) ) REPRESENTATION_CONTEXT ( 'NONE', 'WORKASPACE' ) );
#97 = DIRECTION ( 'NONE',  ( 1.000000000000000000, 0.0000000000000000000, 0.0000000000000000000 ) ) ;
#98 = ORIENTED_EDGE ( 'NONE', *, *, #284, .F. ) ;
#99 = VERTEX_POINT ( 'NONE', #847 ) ;
#100 = VECTOR ( 'NONE', #363, 1000.000000000000000 ) ;
#101 = DIRECTION ( 'NONE',  ( 0.0000000000000000000, 0.0000000000000000000, 1.000000000000000000 ) ) ;
#102 = COLOUR_RGB ( '',0.7921568627450980000, 0.8196078431372548800, 0.9333333333333333500 ) ;
#103 = DIRECTION ( 'NONE',  ( 1.000000000000000000, 2.775557561562891400E-017, 0.0000000000000000000 ) ) ;
#104 = CARTESIAN_POINT ( 'NONE',  ( -200.0000000000000000, 0.0000000000000000000, -200.0000000000000000 ) ) ;
#105 = ORIENTED_EDGE ( 'NONE', *, *, #634, .T. ) ;
#106 = PLANE ( 'NONE',  #848 ) ;
#107 = DIRECTION ( 'NONE',  ( -0.0000000000000000000, -0.0000000000000000000, -1.000000000000000000 ) ) ;
#108 = ORIENTED_EDGE ( 'NONE', *, *, #999, .T. ) ;
#109 = MECHANICAL_DESIGN_GEOMETRIC_PRESENTATION_REPRESENTATION (  '', ( #453 ), #330 ) ;
#110 = PLANE ( 'NONE',  #215 ) ;
#111 = COLOUR_RGB ( '',0.7921568627450980000, 0.8196078431372548800, 0.9333333333333333500 ) ;
#112 = ORIENTED_EDGE ( 'NONE', *, *, #687, .F. ) ;
#113 = DIRECTION ( 'NONE',  ( 1.000000000000000000, 0.0000000000000000000, 0.0000000000000000000 ) ) ;
#114 = VECTOR ( 'NONE', #953, 1000.000000000000000 ) ;
#115 = LINE ( 'NONE', #939, #1057 ) ;
#116 = DIRECTION ( 'NONE',  ( 0.0000000000000000000, 0.0000000000000000000, 1.000000000000000000 ) ) ;
#117 = VERTEX_POINT ( 'NONE', #929 ) ;
#118 = ORIENTED_EDGE ( 'NONE', *, *, #150, .F. ) ;
#119 = CARTESIAN_POINT ( 'NONE',  ( 0.0000000000000000000, 0.0000000000000000000, 150.0000000000000000 ) ) ;
#120 = LINE ( 'NONE', #20, #516 ) ;
#121 = DIRECTION ( 'NONE',  ( -0.0000000000000000000, 0.0000000000000000000, 1.000000000000000000 ) ) ;
#122 = CARTESIAN_POINT ( 'NONE',  ( 600.0000000000000000, 0.0000000000000000000, 150.0000000000000000 ) ) ;
#123 = ORIENTED_EDGE ( 'NONE', *, *, #676, .T. ) ;
#124 = ORIENTED_EDGE ( 'NONE', *, *, #284, .T. ) ;
#125 = VECTOR ( 'NONE', #978, 1000.000000000000000 ) ;
#126 = EDGE_CURVE ( 'NONE', #41, #181, #353, .T. ) ;
#127 = ORIENTED_EDGE ( 'NONE', *, *, #682, .T. ) ;
#128 = DIRECTION ( 'NONE',  ( 1.000000000000000000, 0.0000000000000000000, 0.0000000000000000000 ) ) ;
#129 = LINE ( 'NONE', #942, #475 ) ;
#130 = DIRECTION ( 'NONE',  ( 1.000000000000000000, 5.551115123125783700E-016, -0.0000000000000000000 ) ) ;
#131 = FACE_OUTER_BOUND ( 'NONE', #1069, .T. ) ;
#132 = ORIENTED_EDGE ( 'NONE', *, *, #574, .F. ) ;
#133 = LINE ( 'NONE', #451, #1113 ) ;
#134 = ORIENTED_EDGE ( 'NONE', *, *, #723, .T. ) ;
#135 = ORIENTED_EDGE ( 'NONE', *, *, #838, .T. ) ;
#136 = EDGE_CURVE ( 'NONE', #91, #1120, #530, .T. ) ;
#137 = AXIS2_PLACEMENT_3D ( 'NONE', #692, #845, #596 ) ;
#138 = UNCERTAINTY_MEASURE_WITH_UNIT (LENGTH_MEASURE( 1.000000000000000100E-005 ), #1018, 'distance_accuracy_value', 'NONE');
#139 = ORIENTED_EDGE ( 'NONE', *, *, #589, .T. ) ;
#140 = LINE ( 'NONE', #496, #19 ) ;
#141 = UNCERTAINTY_MEASURE_WITH_UNIT (LENGTH_MEASURE( 1.000000000000000100E-005 ), #162, 'distance_accuracy_value', 'NONE');
#142 = CARTESIAN_POINT ( 'NONE',  ( 0.0000000000000000000, 0.0000000000000000000, 0.0000000000000000000 ) ) ;
#143 = EDGE_CURVE ( 'NONE', #553, #389, #992, .T. ) ;
#144 = CARTESIAN_POINT ( 'NONE',  ( -200.0000000000000000, 0.0000000000000000000, 0.0000000000000000000 ) ) ;
#145 = CARTESIAN_POINT ( 'NONE',  ( 2.220446049250311100E-015, -79.99999999999992900, 180.0000000000000300 ) ) ;
#146 = VERTEX_POINT ( 'NONE', #784 ) ;
#147 =( LENGTH_UNIT ( ) NAMED_UNIT ( * ) SI_UNIT ( .MILLI., .METRE. ) );
#148 = EDGE_LOOP ( 'NONE', ( #454, #780, #870, #539 ) ) ;
#149 = ORIENTED_EDGE ( 'NONE', *, *, #160, .F. ) ;
#150 = EDGE_CURVE ( 'NONE', #468, #117, #677, .T. ) ;
#151 = FACE_OUTER_BOUND ( 'NONE', #646, .T. ) ;
#152 = DIRECTION ( 'NONE',  ( 0.0000000000000000000, 1.000000000000000000, -0.0000000000000000000 ) ) ;
#153 = AXIS2_PLACEMENT_3D ( 'NONE', #166, #513, #1112 ) ;
#154 = VECTOR ( 'NONE', #435, 1000.000000000000000 ) ;
#155 = CARTESIAN_POINT ( 'NONE',  ( 300.0000000000000000, 0.0000000000000000000, 0.0000000000000000000 ) ) ;
#156 = ADVANCED_FACE ( 'NONE', ( #904 ), #782, .T. ) ;
#157 = DIRECTION ( 'NONE',  ( 1.000000000000000000, -0.0000000000000000000, 0.0000000000000000000 ) ) ;
#158 = SURFACE_SIDE_STYLE ('',( #213 ) ) ;
#159 = SURFACE_STYLE_USAGE ( .BOTH. , #332 ) ;
#160 = EDGE_CURVE ( 'NONE', #389, #1010, #11, .T. ) ;
#161 = VERTEX_POINT ( 'NONE', #957 ) ;
#162 =( LENGTH_UNIT ( ) NAMED_UNIT ( * ) SI_UNIT ( .MILLI., .METRE. ) );
#163 = ORIENTED_EDGE ( 'NONE', *, *, #856, .F. ) ;
#164 = DIRECTION ( 'NONE',  ( 0.0000000000000000000, -0.0000000000000000000, 1.000000000000000000 ) ) ;
#165 = DIRECTION ( 'NONE',  ( 0.0000000000000000000, 1.000000000000000000, -0.0000000000000000000 ) ) ;
#166 = CARTESIAN_POINT ( 'NONE',  ( 1.499759782661865900E-030, -2.449293598294715300E-014, 180.0000000000000300 ) ) ;
#167 = APPLICATION_CONTEXT ( 'automotive_design' ) ;
#168 = ORIENTED_EDGE ( 'NONE', *, *, #438, .T. ) ;
#169 = CARTESIAN_POINT ( 'NONE',  ( 0.0000000000000000000, 0.0000000000000000000, 150.0000000000000000 ) ) ;
#170 = PRESENTATION_STYLE_ASSIGNMENT (( #710 ) ) ;
#171 = LINE ( 'NONE', #736, #867 ) ;
#172 = STYLED_ITEM ( 'NONE', ( #800 ), #22 ) ;
#173 =( NAMED_UNIT ( * ) PLANE_ANGLE_UNIT ( ) SI_UNIT ( $, .RADIAN. ) );
#174 = DIRECTION ( 'NONE',  ( 5.551115123125783700E-016, -1.000000000000000000, 0.0000000000000000000 ) ) ;
#175 = DIRECTION ( 'NONE',  ( 1.000000000000000000, 0.0000000000000000000, 0.0000000000000000000 ) ) ;
#176 = ORIENTED_EDGE ( 'NONE', *, *, #735, .F. ) ;
#177 = ORIENTED_EDGE ( 'NONE', *, *, #796, .F. ) ;
#178 = UNCERTAINTY_MEASURE_WITH_UNIT (LENGTH_MEASURE( 1.000000000000000100E-005 ), #230, 'distance_accuracy_value', 'NONE');
#179 = CARTESIAN_POINT ( 'NONE',  ( 0.0000000000000000000, 500.0000000000000000, -150.0000000000000000 ) ) ;
#180 =( GEOMETRIC_REPRESENTATION_CONTEXT ( 3 ) GLOBAL_UNCERTAINTY_ASSIGNED_CONTEXT ( ( #1103 ) ) GLOBAL_UNIT_ASSIGNED_CONTEXT ( ( #1114, #173, #775 ) ) REPRESENTATION_CONTEXT ( 'NONE', 'WORKASPACE' ) );
#181 = VERTEX_POINT ( 'NONE', #265 ) ;
#182 = ORIENTED_EDGE ( 'NONE', *, *, #1039, .T. ) ;
#183 = LINE ( 'NONE', #857, #154 ) ;
#184 = CARTESIAN_POINT ( 'NONE',  ( 50.00000000000000000, 0.0000000000000000000, 150.0000000000000000 ) ) ;
#185 = VERTEX_POINT ( 'NONE', #708 ) ;
#186 = DIRECTION ( 'NONE',  ( 1.000000000000000000, 2.041077998578920100E-017, 0.0000000000000000000 ) ) ;
#187 = LINE ( 'NONE', #426, #693 ) ;
#188 = CARTESIAN_POINT ( 'NONE',  ( 0.0000000000000000000, 0.0000000000000000000, 200.0000000000000000 ) ) ;
#189 = EDGE_CURVE ( 'NONE', #568, #1012, #394, .T. ) ;
#190 = DIRECTION ( 'NONE',  ( -1.000000000000000000, -0.0000000000000000000, -0.0000000000000000000 ) ) ;
#191 = PLANE ( 'NONE',  #629 ) ;
#192 = CARTESIAN_POINT ( 'NONE',  ( 0.0000000000000000000, 0.0000000000000000000, 150.0000000000000000 ) ) ;
#193 = CARTESIAN_POINT ( 'NONE',  ( 800.0000000000000000, -79.99999999999990100, 0.0000000000000000000 ) ) ;
#194 = ORIENTED_EDGE ( 'NONE', *, *, #189, .T. ) ;
#195 = EDGE_LOOP ( 'NONE', ( #657, #3, #911, #244 ) ) ;
#196 = VECTOR ( 'NONE', #926, 1000.000000000000000 ) ;
#197 = LINE ( 'NONE', #370, #308 ) ;
#198 = EDGE_LOOP ( 'NONE', ( #937, #972, #869, #410 ) ) ;
#199 = EDGE_CURVE ( 'NONE', #17, #361, #133, .T. ) ;
#200 = CARTESIAN_POINT ( 'NONE',  ( 2.220446049250311100E-015, -79.99999999999992900, -180.0000000000000300 ) ) ;
#201 = EDGE_CURVE ( 'NONE', #161, #568, #217, .T. ) ;
#202 = COLOUR_RGB ( '',0.7921568627450980000, 0.8196078431372548800, 0.9333333333333333500 ) ;
#203 = MECHANICAL_DESIGN_GEOMETRIC_PRESENTATION_REPRESENTATION (  '', ( #989 ), #1014 ) ;
#204 = PRESENTATION_STYLE_ASSIGNMENT (( #489 ) ) ;
#205 = DIRECTION ( 'NONE',  ( 0.0000000000000000000, 0.0000000000000000000, 1.000000000000000000 ) ) ;
#206 = CARTESIAN_POINT ( 'NONE',  ( -350.0000000000000000, 400.0000000000000000, 150.0000000000000000 ) ) ;
#207 = EDGE_CURVE ( 'NONE', #209, #528, #360, .T. ) ;
#208 = CLOSED_SHELL ( 'NONE', ( #834, #504, #64, #225, #334, #409 ) ) ;
#209 = VERTEX_POINT ( 'NONE', #963 ) ;
#210 = DIRECTION ( 'NONE',  ( 1.000000000000000000, 0.0000000000000000000, 0.0000000000000000000 ) ) ;
#211 = VECTOR ( 'NONE', #799, 1000.000000000000000 ) ;
#212 = DIRECTION ( 'NONE',  ( -1.000000000000000000, -0.0000000000000000000, -0.0000000000000000000 ) ) ;
#213 = SURFACE_STYLE_FILL_AREA ( #603 ) ;
#214 = LINE ( 'NONE', #865, #404 ) ;
#215 = AXIS2_PLACEMENT_3D ( 'NONE', #643, #1063, #1055 ) ;
#216 = EDGE_CURVE ( 'NONE', #984, #502, #787, .T. ) ;
#217 = LINE ( 'NONE', #536, #94 ) ;
#218 = VERTEX_POINT ( 'NONE', #89 ) ;
#219 = EDGE_CURVE ( 'NONE', #17, #44, #1020, .T. ) ;
#220 = VERTEX_POINT ( 'NONE', #540 ) ;
#221 = LINE ( 'NONE', #1079, #1105 ) ;
#222 = FILL_AREA_STYLE ('',( #1041 ) ) ;
#223 = PRESENTATION_STYLE_ASSIGNMENT (( #263 ) ) ;
#224 = SURFACE_STYLE_FILL_AREA ( #222 ) ;
#225 = ADVANCED_FACE ( 'NONE', ( #305 ), #704, .T. ) ;
#226 = VECTOR ( 'NONE', #1052, 1000.000000000000000 ) ;
#227 = PLANE ( 'NONE',  #1101 ) ;
#228 = ADVANCED_FACE ( 'NONE', ( #63 ), #447, .T. ) ;
#229 = VERTEX_POINT ( 'NONE', #259 ) ;
#230 =( LENGTH_UNIT ( ) NAMED_UNIT ( * ) SI_UNIT ( .MILLI., .METRE. ) );
#231 = DIRECTION ( 'NONE',  ( 0.0000000000000000000, 1.000000000000000000, -0.0000000000000000000 ) ) ;
#232 = AXIS2_PLACEMENT_3D ( 'NONE', #71, #157, #420 ) ;
#233 = FACE_OUTER_BOUND ( 'NONE', #739, .T. ) ;
#234 =( NAMED_UNIT ( * ) SI_UNIT ( $, .STERADIAN. ) SOLID_ANGLE_UNIT ( ) );
#235 = DIRECTION ( 'NONE',  ( 0.0000000000000000000, -0.0000000000000000000, 1.000000000000000000 ) ) ;
#236 = VECTOR ( 'NONE', #960, 1000.000000000000000 ) ;
#237 = CARTESIAN_POINT ( 'NONE',  ( 0.0000000000000000000, 0.0000000000000000000, -150.0000000000000000 ) ) ;
#238 = VECTOR ( 'NONE', #872, 1000.000000000000000 ) ;
#239 = SURFACE_SIDE_STYLE ('',( #336 ) ) ;
#240 = ORIENTED_EDGE ( 'NONE', *, *, #216, .F. ) ;
#241 = ORIENTED_EDGE ( 'NONE', *, *, #45, .T. ) ;
#242 = CARTESIAN_POINT ( 'NONE',  ( 600.0000000000000000, 300.0000000000000000, -50.00000000000002100 ) ) ;
#243 = CARTESIAN_POINT ( 'NONE',  ( 50.00000000000000000, 400.0000000000000000, 150.0000000000000000 ) ) ;
#244 = ORIENTED_EDGE ( 'NONE', *, *, #796, .T. ) ;
#245 = ORIENTED_EDGE ( 'NONE', *, *, #785, .T. ) ;
#246 = DIRECTION ( 'NONE',  ( -1.000000000000000000, 0.0000000000000000000, 0.0000000000000000000 ) ) ;
#247 = AXIS2_PLACEMENT_3D ( 'NONE', #352, #273, #778 ) ;
#248 = CARTESIAN_POINT ( 'NONE',  ( 0.0000000000000000000, 0.0000000000000000000, 0.0000000000000000000 ) ) ;
#249 = EDGE_CURVE ( 'NONE', #458, #99, #689, .T. ) ;
#250 = LINE ( 'NONE', #1075, #751 ) ;
#251 = VECTOR ( 'NONE', #365, 1000.000000000000000 ) ;
#252 = CARTESIAN_POINT ( 'NONE',  ( 600.0000000000000000, 400.0000000000000000, 150.0000000000000000 ) ) ;
#253 = ORIENTED_EDGE ( 'NONE', *, *, #460, .T. ) ;
#254 = ADVANCED_FACE ( 'NONE', ( #662 ), #433, .T. ) ;
#255 = SURFACE_SIDE_STYLE ('',( #988 ) ) ;
#256 = DIRECTION ( 'NONE',  ( -6.123233995736779600E-017, 1.000000000000000000, 0.0000000000000000000 ) ) ;
#257 = APPLICATION_PROTOCOL_DEFINITION ( 'draft international standard', 'automotive_design', 1998, #167 ) ;
#258 = ORIENTED_EDGE ( 'NONE', *, *, #275, .T. ) ;
#259 = CARTESIAN_POINT ( 'NONE',  ( -200.0000000000000000, -79.99999999999997200, 0.0000000000000000000 ) ) ;
#260 = LINE ( 'NONE', #393, #1129 ) ;
#261 =( LENGTH_UNIT ( ) NAMED_UNIT ( * ) SI_UNIT ( .MILLI., .METRE. ) );
#262 = DIRECTION ( 'NONE',  ( 0.0000000000000000000, 0.0000000000000000000, 1.000000000000000000 ) ) ;
#263 = SURFACE_STYLE_USAGE ( .BOTH. , #239 ) ;
#264 = MECHANICAL_DESIGN_GEOMETRIC_PRESENTATION_REPRESENTATION (  '', ( #982 ), #180 ) ;
#265 = CARTESIAN_POINT ( 'NONE',  ( 300.0000000000000000, 6.123233995736757400E-015, 0.0000000000000000000 ) ) ;
#266 = VECTOR ( 'NONE', #107, 1000.000000000000000 ) ;
#267 = ORIENTED_EDGE ( 'NONE', *, *, #1093, .T. ) ;
#268 = FACE_OUTER_BOUND ( 'NONE', #923, .T. ) ;
#269 = CARTESIAN_POINT ( 'NONE',  ( 300.0000000000000000, 0.0000000000000000000, 0.0000000000000000000 ) ) ;
#270 = DIRECTION ( 'NONE',  ( -1.110223024625156500E-016, 1.000000000000000000, 0.0000000000000000000 ) ) ;
#271 = EDGE_CURVE ( 'NONE', #626, #984, #401, .T. ) ;
#272 = EDGE_LOOP ( 'NONE', ( #581, #734, #732, #12 ) ) ;
#273 = DIRECTION ( 'NONE',  ( -1.000000000000000000, -0.0000000000000000000, -0.0000000000000000000 ) ) ;
#274 = PRESENTATION_LAYER_ASSIGNMENT (  '', '', ( #453 ) ) ;
#275 = EDGE_CURVE ( 'NONE', #592, #99, #642, .T. ) ;
#276 = DIRECTION ( 'NONE',  ( 0.0000000000000000000, -0.0000000000000000000, -1.000000000000000000 ) ) ;
#277 = LINE ( 'NONE', #728, #804 ) ;
#278 = CARTESIAN_POINT ( 'NONE',  ( 800.0000000000000000, -79.99999999999990100, 0.0000000000000000000 ) ) ;
#279 = ORIENTED_EDGE ( 'NONE', *, *, #891, .T. ) ;
#280 = ORIENTED_EDGE ( 'NONE', *, *, #189, .F. ) ;
#281 = DIRECTION ( 'NONE',  ( -0.0000000000000000000, 0.0000000000000000000, 1.000000000000000000 ) ) ;
#282 = EDGE_CURVE ( 'NONE', #1116, #311, #197, .T. ) ;
#283 = DIRECTION ( 'NONE',  ( -0.0000000000000000000, 0.0000000000000000000, 1.000000000000000000 ) ) ;
#284 = EDGE_CURVE ( 'NONE', #1010, #311, #1025, .T. ) ;
#285 = VECTOR ( 'NONE', #647, 1000.000000000000000 ) ;
#286 = DIRECTION ( 'NONE',  ( -1.000000000000000000, 0.0000000000000000000, 0.0000000000000000000 ) ) ;
#287 = CARTESIAN_POINT ( 'NONE',  ( 800.0000000000000000, 0.0000000000000000000, 180.0000000000000300 ) ) ;
#288 = LINE ( 'NONE', #552, #465 ) ;
#289 = VERTEX_POINT ( 'NONE', #881 ) ;
#290 = ORIENTED_EDGE ( 'NONE', *, *, #891, .F. ) ;
#291 = CARTESIAN_POINT ( 'NONE',  ( 300.0000000000000000, 6.123233995736757400E-015, -180.0000000000000300 ) ) ;
#292 = VECTOR ( 'NONE', #648, 1000.000000000000000 ) ;
#293 = DIRECTION ( 'NONE',  ( 0.0000000000000000000, 0.0000000000000000000, 1.000000000000000000 ) ) ;
#294 = ORIENTED_EDGE ( 'NONE', *, *, #275, .F. ) ;
#295 = ORIENTED_EDGE ( 'NONE', *, *, #856, .T. ) ;
#296 = ORIENTED_EDGE ( 'NONE', *, *, #486, .T. ) ;
#297 = FACE_OUTER_BOUND ( 'NONE', #727, .T. ) ;
#298 = CARTESIAN_POINT ( 'NONE',  ( 600.0000000000000000, 300.0000000000000000, 49.99999999999997200 ) ) ;
#299 = ORIENTED_EDGE ( 'NONE', *, *, #249, .F. ) ;
#300 = CARTESIAN_POINT ( 'NONE',  ( 50.00000000000000000, 400.0000000000000000, -150.0000000000000000 ) ) ;
#301 = STYLED_ITEM ( 'NONE', ( #654 ), #946 ) ;
#302 = ADVANCED_FACE ( 'NONE', ( #510 ), #712, .F. ) ;
#303 = DIRECTION ( 'NONE',  ( 0.0000000000000000000, -1.000000000000000000, 0.0000000000000000000 ) ) ;
#304 = CARTESIAN_POINT ( 'NONE',  ( 0.0000000000000000000, 0.0000000000000000000, 0.0000000000000000000 ) ) ;
#305 = FACE_OUTER_BOUND ( 'NONE', #148, .T. ) ;
#306 = ORIENTED_EDGE ( 'NONE', *, *, #282, .T. ) ;
#307 = ORIENTED_EDGE ( 'NONE', *, *, #391, .T. ) ;
#308 = VECTOR ( 'NONE', #101, 1000.000000000000000 ) ;
#309 = LINE ( 'NONE', #155, #688 ) ;
#310 = EDGE_CURVE ( 'NONE', #1067, #612, #333, .T. ) ;
#311 = VERTEX_POINT ( 'NONE', #193 ) ;
#312 = ADVANCED_FACE ( 'NONE', ( #543 ), #372, .F. ) ;
#313 = EDGE_CURVE ( 'NONE', #612, #185, #569, .T. ) ;
#314 = EDGE_CURVE ( 'NONE', #622, #161, #763, .T. ) ;
#315 = ADVANCED_FACE ( 'NONE', ( #151 ), #106, .F. ) ;
#316 = ORIENTED_EDGE ( 'NONE', *, *, #48, .T. ) ;
#317 = ORIENTED_EDGE ( 'NONE', *, *, #1093, .F. ) ;
#318 = ORIENTED_EDGE ( 'NONE', *, *, #825, .T. ) ;
#319 = VERTEX_POINT ( 'NONE', #786 ) ;
#320 = LINE ( 'NONE', #339, #538 ) ;
#321 = EDGE_CURVE ( 'NONE', #1116, #518, #973, .T. ) ;
#322 =( NAMED_UNIT ( * ) PLANE_ANGLE_UNIT ( ) SI_UNIT ( $, .RADIAN. ) );
#323 = ORIENTED_EDGE ( 'NONE', *, *, #1037, .F. ) ;
#324 = FILL_AREA_STYLE_COLOUR ( '', #202 ) ;
#325 = CARTESIAN_POINT ( 'NONE',  ( 300.0000000000000000, -79.99999999999991500, -180.0000000000000300 ) ) ;
#326 = VECTOR ( 'NONE', #13, 1000.000000000000000 ) ;
#327 = CARTESIAN_POINT ( 'NONE',  ( 300.0000000000000000, 6.123233995736757400E-015, 180.0000000000000300 ) ) ;
#328 = ORIENTED_EDGE ( 'NONE', *, *, #1037, .T. ) ;
#329 = ORIENTED_EDGE ( 'NONE', *, *, #1082, .T. ) ;
#330 =( GEOMETRIC_REPRESENTATION_CONTEXT ( 3 ) GLOBAL_UNCERTAINTY_ASSIGNED_CONTEXT ( ( #665 ) ) GLOBAL_UNIT_ASSIGNED_CONTEXT ( ( #1059, #15, #715 ) ) REPRESENTATION_CONTEXT ( 'NONE', 'WORKASPACE' ) );
#331 = VECTOR ( 'NONE', #880, 1000.000000000000000 ) ;
#332 = SURFACE_SIDE_STYLE ('',( #674 ) ) ;
#333 = LINE ( 'NONE', #631, #765 ) ;
#334 = ADVANCED_FACE ( 'NONE', ( #977 ), #971, .T. ) ;
#335 = DIRECTION ( 'NONE',  ( 0.0000000000000000000, 0.0000000000000000000, -1.000000000000000000 ) ) ;
#336 = SURFACE_STYLE_FILL_AREA ( #419 ) ;
#337 = EDGE_CURVE ( 'NONE', #752, #218, #549, .T. ) ;
#338 = CARTESIAN_POINT ( 'NONE',  ( 8.881784197001246000E-015, -79.99999999999994300, 200.0000000000000000 ) ) ;
#339 = CARTESIAN_POINT ( 'NONE',  ( 800.0000000000000000, -79.99999999999990100, 180.0000000000000300 ) ) ;
#340 = ADVANCED_FACE ( 'NONE', ( #695 ), #191, .T. ) ;
#341 = ORIENTED_EDGE ( 'NONE', *, *, #1022, .T. ) ;
#342 = PLANE ( 'NONE',  #232 ) ;
#343 =( NAMED_UNIT ( * ) SI_UNIT ( $, .STERADIAN. ) SOLID_ANGLE_UNIT ( ) );
#344 = DIRECTION ( 'NONE',  ( -0.0000000000000000000, -0.0000000000000000000, -1.000000000000000000 ) ) ;
#345 = EDGE_LOOP ( 'NONE', ( #757, #1043, #414, #134 ) ) ;
#346 = UNCERTAINTY_MEASURE_WITH_UNIT (LENGTH_MEASURE( 1.000000000000000100E-005 ), #261, 'distance_accuracy_value', 'NONE');
#347 = MECHANICAL_DESIGN_GEOMETRIC_PRESENTATION_REPRESENTATION (  '', ( #172 ), #909 ) ;
#348 = ORIENTED_EDGE ( 'NONE', *, *, #905, .T. ) ;
#349 = DIRECTION ( 'NONE',  ( 0.0000000000000000000, -1.000000000000000000, 0.0000000000000000000 ) ) ;
#350 = FACE_OUTER_BOUND ( 'NONE', #1006, .T. ) ;
#351 = ORIENTED_EDGE ( 'NONE', *, *, #589, .F. ) ;
#352 = CARTESIAN_POINT ( 'NONE',  ( 780.0000000000000000, 300.0000000000000000, -2.449293598294705800E-014 ) ) ;
#353 = LINE ( 'NONE', #863, #114 ) ;
#354 = DIRECTION ( 'NONE',  ( -1.000000000000000000, 0.0000000000000000000, 0.0000000000000000000 ) ) ;
#355 = DIRECTION ( 'NONE',  ( 0.0000000000000000000, 0.0000000000000000000, -1.000000000000000000 ) ) ;
#356 = EDGE_LOOP ( 'NONE', ( #720, #907, #1050, #981 ) ) ;
#357 = VERTEX_POINT ( 'NONE', #537 ) ;
#358 = AXIS2_PLACEMENT_3D ( 'NONE', #412, #901, #387 ) ;
#359 = LINE ( 'NONE', #814, #949 ) ;
#360 = LINE ( 'NONE', #269, #566 ) ;
#361 = VERTEX_POINT ( 'NONE', #10 ) ;
#362 = VECTOR ( 'NONE', #461, 1000.000000000000000 ) ;
#363 = DIRECTION ( 'NONE',  ( -1.000000000000000000, 0.0000000000000000000, 0.0000000000000000000 ) ) ;
#364 = CARTESIAN_POINT ( 'NONE',  ( 0.0000000000000000000, 0.0000000000000000000, -150.0000000000000000 ) ) ;
#365 = DIRECTION ( 'NONE',  ( -0.0000000000000000000, -0.0000000000000000000, -1.000000000000000000 ) ) ;
#366 = SHAPE_DEFINITION_REPRESENTATION ( #95, #1019 ) ;
#367 = DIRECTION ( 'NONE',  ( 0.0000000000000000000, 1.000000000000000000, -0.0000000000000000000 ) ) ;
#368 = CARTESIAN_POINT ( 'NONE',  ( -200.0000000000000000, -79.99999999999997200, 200.0000000000000000 ) ) ;
#369 = ORIENTED_EDGE ( 'NONE', *, *, #32, .T. ) ;
#370 = CARTESIAN_POINT ( 'NONE',  ( 800.0000000000000000, -79.99999999999990100, -180.0000000000000300 ) ) ;
#371 = MECHANICAL_DESIGN_GEOMETRIC_PRESENTATION_REPRESENTATION (  '', ( #930 ), #571 ) ;
#372 = PLANE ( 'NONE',  #604 ) ;
#373 = DIRECTION ( 'NONE',  ( -1.000000000000000000, -6.123233995736778400E-017, 0.0000000000000000000 ) ) ;
#374 = DIRECTION ( 'NONE',  ( 0.0000000000000000000, 0.0000000000000000000, 1.000000000000000000 ) ) ;
#375 = DIRECTION ( 'NONE',  ( -1.000000000000000000, -1.110223024625156500E-016, 0.0000000000000000000 ) ) ;
#376 = EDGE_CURVE ( 'NONE', #518, #553, #288, .T. ) ;
#377 = VECTOR ( 'NONE', #344, 1000.000000000000000 ) ;
#378 = VERTEX_POINT ( 'NONE', #713 ) ;
#379 = AXIS2_PLACEMENT_3D ( 'NONE', #82, #354, #430 ) ;
#380 = CARTESIAN_POINT ( 'NONE',  ( 600.0000000000000000, 400.0000000000000000, -150.0000000000000000 ) ) ;
#381 = PLANE ( 'NONE',  #411 ) ;
#382 = ORIENTED_EDGE ( 'NONE', *, *, #473, .T. ) ;
#383 = CARTESIAN_POINT ( 'NONE',  ( 2.220446049250311100E-015, -79.99999999999992900, 0.0000000000000000000 ) ) ;
#384 = CARTESIAN_POINT ( 'NONE',  ( 50.00000000000000000, 500.0000000000000000, 150.0000000000000000 ) ) ;
#385 = AXIS2_PLACEMENT_3D ( 'NONE', #421, #935, #164 ) ;
#386 = CARTESIAN_POINT ( 'NONE',  ( 50.00000000000000000, 500.0000000000000000, -150.0000000000000000 ) ) ;
#387 = DIRECTION ( 'NONE',  ( 0.0000000000000000000, 0.0000000000000000000, -1.000000000000000000 ) ) ;
#388 = EDGE_LOOP ( 'NONE', ( #348, #1089, #494, #124 ) ) ;
#389 = VERTEX_POINT ( 'NONE', #27 ) ;
#390 = LINE ( 'NONE', #611, #864 ) ;
#391 = EDGE_CURVE ( 'NONE', #709, #578, #72, .T. ) ;
#392 = PLANE ( 'NONE',  #524 ) ;
#393 = CARTESIAN_POINT ( 'NONE',  ( 780.0000000000000000, 300.0000000000000000, 49.99999999999997200 ) ) ;
#394 = LINE ( 'NONE', #968, #226 ) ;
#395 = ORIENTED_EDGE ( 'NONE', *, *, #488, .T. ) ;
#396 = ORIENTED_EDGE ( 'NONE', *, *, #199, .T. ) ;
#397 = ORIENTED_EDGE ( 'NONE', *, *, #742, .F. ) ;
#398 = ORIENTED_EDGE ( 'NONE', *, *, #613, .T. ) ;
#399 = ORIENTED_EDGE ( 'NONE', *, *, #574, .T. ) ;
#400 = FACE_OUTER_BOUND ( 'NONE', #558, .T. ) ;
#401 = LINE ( 'NONE', #794, #860 ) ;
#402 = CLOSED_SHELL ( 'NONE', ( #156, #681, #1005, #927, #584, #828 ) ) ;
#403 = DIRECTION ( 'NONE',  ( 0.0000000000000000000, 1.000000000000000000, -0.0000000000000000000 ) ) ;
#404 = VECTOR ( 'NONE', #175, 1000.000000000000000 ) ;
#405 = PRESENTATION_LAYER_ASSIGNMENT (  '', '', ( #172 ) ) ;
#406 = VERTEX_POINT ( 'NONE', #291 ) ;
#407 = DIRECTION ( 'NONE',  ( -0.0000000000000000000, 0.0000000000000000000, -1.000000000000000000 ) ) ;
#408 = PLANE ( 'NONE',  #958 ) ;
#409 = ADVANCED_FACE ( 'NONE', ( #595 ), #110, .F. ) ;
#410 = ORIENTED_EDGE ( 'NONE', *, *, #199, .F. ) ;
#411 = AXIS2_PLACEMENT_3D ( 'NONE', #192, #283, #979 ) ;
#412 = CARTESIAN_POINT ( 'NONE',  ( 600.0000000000000000, 300.0000000000000000, -2.449293598294705800E-014 ) ) ;
#413 = AXIS2_PLACEMENT_3D ( 'NONE', #690, #256, #938 ) ;
#414 = ORIENTED_EDGE ( 'NONE', *, *, #314, .F. ) ;
#415 = ORIENTED_EDGE ( 'NONE', *, *, #337, .T. ) ;
#416 = CARTESIAN_POINT ( 'NONE',  ( 1.499759782661865900E-030, -2.449293598294715300E-014, 0.0000000000000000000 ) ) ;
#417 = LINE ( 'NONE', #425, #652 ) ;
#418 = ORIENTED_EDGE ( 'NONE', *, *, #514, .F. ) ;
#419 = FILL_AREA_STYLE ('',( #324 ) ) ;
#420 = DIRECTION ( 'NONE',  ( 0.0000000000000000000, 0.0000000000000000000, -1.000000000000000000 ) ) ;
#421 = CARTESIAN_POINT ( 'NONE',  ( 0.0000000000000000000, 0.0000000000000000000, 200.0000000000000000 ) ) ;
#422 = ORIENTED_EDGE ( 'NONE', *, *, #842, .T. ) ;
#423 = CARTESIAN_POINT ( 'NONE',  ( -200.0000000000000000, 0.0000000000000000000, 0.0000000000000000000 ) ) ;
#424 = EDGE_CURVE ( 'NONE', #220, #502, #260, .T. ) ;
#425 = CARTESIAN_POINT ( 'NONE',  ( 0.0000000000000000000, 400.0000000000000000, 150.0000000000000000 ) ) ;
#426 = CARTESIAN_POINT ( 'NONE',  ( 300.0000000000000000, 6.123233995736757400E-015, -180.0000000000000300 ) ) ;
#427 = ADVANCED_FACE ( 'NONE', ( #980 ), #1003, .F. ) ;
#428 = CARTESIAN_POINT ( 'NONE',  ( 800.0000000000000000, 2.449293705170335700E-014, 180.0000000000000300 ) ) ;
#429 =( LENGTH_UNIT ( ) NAMED_UNIT ( * ) SI_UNIT ( .MILLI., .METRE. ) );
#430 = DIRECTION ( 'NONE',  ( 0.0000000000000000000, 0.0000000000000000000, 1.000000000000000000 ) ) ;
#431 = DIRECTION ( 'NONE',  ( -0.0000000000000000000, -0.0000000000000000000, -1.000000000000000000 ) ) ;
#432 = LINE ( 'NONE', #1085, #556 ) ;
#433 = CYLINDRICAL_SURFACE ( 'NONE', #247, 49.99999999999999300 ) ;
#434 = EDGE_LOOP ( 'NONE', ( #873, #123, #459, #267 ) ) ;
#435 = DIRECTION ( 'NONE',  ( -0.0000000000000000000, -0.0000000000000000000, -1.000000000000000000 ) ) ;
#436 =( LENGTH_UNIT ( ) NAMED_UNIT ( * ) SI_UNIT ( .MILLI., .METRE. ) );
#437 = EDGE_CURVE ( 'NONE', #762, #289, #120, .T. ) ;
#438 = EDGE_CURVE ( 'NONE', #161, #117, #47, .T. ) ;
#439 =( GEOMETRIC_REPRESENTATION_CONTEXT ( 3 ) GLOBAL_UNCERTAINTY_ASSIGNED_CONTEXT ( ( #1071 ) ) GLOBAL_UNIT_ASSIGNED_CONTEXT ( ( #429, #56, #51 ) ) REPRESENTATION_CONTEXT ( 'NONE', 'WORKASPACE' ) );
#440 = PLANE ( 'NONE',  #533 ) ;
#441 = VERTEX_POINT ( 'NONE', #899 ) ;
#442 = DIRECTION ( 'NONE',  ( 5.551115123125783700E-016, -1.000000000000000000, 0.0000000000000000000 ) ) ;
#443 = DIRECTION ( 'NONE',  ( 0.0000000000000000000, -1.000000000000000000, 0.0000000000000000000 ) ) ;
#444 = AXIS2_PLACEMENT_3D ( 'NONE', #738, #833, #235 ) ;
#445 = EDGE_LOOP ( 'NONE', ( #317, #1121, #108, #883 ) ) ;
#446 = EDGE_CURVE ( 'NONE', #568, #319, #913, .T. ) ;
#447 = PLANE ( 'NONE',  #771 ) ;
#448 = COLOUR_RGB ( '',0.7921568627450980000, 0.8196078431372548800, 0.9333333333333333500 ) ;
#449 = CARTESIAN_POINT ( 'NONE',  ( 300.0000000000000000, 0.0000000000000000000, -200.0000000000000000 ) ) ;
#450 = PLANE ( 'NONE',  #932 ) ;
#451 = CARTESIAN_POINT ( 'NONE',  ( 0.0000000000000000000, 0.0000000000000000000, 150.0000000000000000 ) ) ;
#452 = VECTOR ( 'NONE', #443, 1000.000000000000000 ) ;
#453 = STYLED_ITEM ( 'NONE', ( #170 ), #551 ) ;
#454 = ORIENTED_EDGE ( 'NONE', *, *, #676, .F. ) ;
#455 = EDGE_LOOP ( 'NONE', ( #127, #351, #1091, #318 ) ) ;
#456 = DIRECTION ( 'NONE',  ( -0.0000000000000000000, 0.0000000000000000000, 1.000000000000000000 ) ) ;
#457 = CARTESIAN_POINT ( 'NONE',  ( 2.220446049250311100E-015, -79.99999999999992900, 0.0000000000000000000 ) ) ;
#458 = VERTEX_POINT ( 'NONE', #380 ) ;
#459 = ORIENTED_EDGE ( 'NONE', *, *, #1094, .T. ) ;
#460 = EDGE_CURVE ( 'NONE', #406, #951, #277, .T. ) ;
#461 = DIRECTION ( 'NONE',  ( 1.000000000000000000, 0.0000000000000000000, 0.0000000000000000000 ) ) ;
#462 = CARTESIAN_POINT ( 'NONE',  ( -350.0000000000000000, 400.0000000000000000, 150.0000000000000000 ) ) ;
#463 = FACE_OUTER_BOUND ( 'NONE', #31, .T. ) ;
#464 = FACE_OUTER_BOUND ( 'NONE', #445, .T. ) ;
#465 = VECTOR ( 'NONE', #374, 1000.000000000000000 ) ;
#466 = AXIS2_PLACEMENT_3D ( 'NONE', #338, #500, #599 ) ;
#467 = FACE_OUTER_BOUND ( 'NONE', #774, .T. ) ;
#468 = VERTEX_POINT ( 'NONE', #386 ) ;
#469 = DIRECTION ( 'NONE',  ( 0.0000000000000000000, 0.0000000000000000000, 1.000000000000000000 ) ) ;
#470 = CARTESIAN_POINT ( 'NONE',  ( 300.0000000000000000, 0.0000000000000000000, 0.0000000000000000000 ) ) ;
#471 = ORIENTED_EDGE ( 'NONE', *, *, #512, .T. ) ;
#472 = VECTOR ( 'NONE', #36, 1000.000000000000000 ) ;
#473 = EDGE_CURVE ( 'NONE', #357, #752, #969, .T. ) ;
#474 = DIRECTION ( 'NONE',  ( 0.0000000000000000000, 0.0000000000000000000, 1.000000000000000000 ) ) ;
#475 = VECTOR ( 'NONE', #593, 1000.000000000000000 ) ;
#476 = FACE_OUTER_BOUND ( 'NONE', #523, .T. ) ;
#477 = CARTESIAN_POINT ( 'NONE',  ( -350.0000000000000600, 500.0000000000000000, 150.0000000000000000 ) ) ;
#478 = CARTESIAN_POINT ( 'NONE',  ( -200.0000000000000000, 0.0000000000000000000, 200.0000000000000000 ) ) ;
#479 = PLANE ( 'NONE',  #820 ) ;
#480 = VECTOR ( 'NONE', #231, 1000.000000000000000 ) ;
#481 = ADVANCED_FACE ( 'NONE', ( #791 ), #479, .T. ) ;
#482 = ORIENTED_EDGE ( 'NONE', *, *, #488, .F. ) ;
#483 = DIRECTION ( 'NONE',  ( 1.000000000000000000, 0.0000000000000000000, -0.0000000000000000000 ) ) ;
#484 = EDGE_LOOP ( 'NONE', ( #382, #415, #79, #422 ) ) ;
#485 = ADVANCED_FACE ( 'NONE', ( #832 ), #986, .F. ) ;
#486 = EDGE_CURVE ( 'NONE', #996, #458, #359, .T. ) ;
#487 = PLANE ( 'NONE',  #1066 ) ;
#488 = EDGE_CURVE ( 'NONE', #218, #528, #171, .T. ) ;
#489 = SURFACE_STYLE_USAGE ( .BOTH. , #915 ) ;
#490 = AXIS2_PLACEMENT_3D ( 'NONE', #142, #749, #772 ) ;
#491 = EDGE_LOOP ( 'NONE', ( #98, #508, #399, #306 ) ) ;
#492 = CARTESIAN_POINT ( 'NONE',  ( 300.0000000000000000, -79.99999999999991500, 180.0000000000000300 ) ) ;
#493 = LINE ( 'NONE', #368, #211 ) ;
#494 = ORIENTED_EDGE ( 'NONE', *, *, #160, .T. ) ;
#495 = AXIS2_PLACEMENT_3D ( 'NONE', #248, #843, #853 ) ;
#496 = CARTESIAN_POINT ( 'NONE',  ( 300.0000000000000000, 0.0000000000000000000, 200.0000000000000000 ) ) ;
#497 = ADVANCED_FACE ( 'NONE', ( #476 ), #572, .F. ) ;
#498 = LINE ( 'NONE', #781, #236 ) ;
#499 = CYLINDRICAL_SURFACE ( 'NONE', #1109, 49.99999999999999300 ) ;
#500 = DIRECTION ( 'NONE',  ( 1.110223024625156500E-016, -1.000000000000000000, 0.0000000000000000000 ) ) ;
#501 = PLANE ( 'NONE',  #25 ) ;
#502 = VERTEX_POINT ( 'NONE', #298 ) ;
#503 = DIRECTION ( 'NONE',  ( -0.0000000000000000000, -0.0000000000000000000, -1.000000000000000000 ) ) ;
#504 = ADVANCED_FACE ( 'NONE', ( #464 ), #893, .T. ) ;
#505 = DIRECTION ( 'NONE',  ( 1.000000000000000000, 0.0000000000000000000, 0.0000000000000000000 ) ) ;
#506 = DIRECTION ( 'NONE',  ( 1.000000000000000000, 0.0000000000000000000, 0.0000000000000000000 ) ) ;
#507 = DIRECTION ( 'NONE',  ( 0.0000000000000000000, 1.000000000000000000, 0.0000000000000000000 ) ) ;
#508 = ORIENTED_EDGE ( 'NONE', *, *, #1030, .F. ) ;
#509 = ORIENTED_EDGE ( 'NONE', *, *, #1053, .F. ) ;
#510 = FACE_OUTER_BOUND ( 'NONE', #747, .T. ) ;
#511 = DIRECTION ( 'NONE',  ( 0.0000000000000000000, 1.000000000000000000, -0.0000000000000000000 ) ) ;
#512 = EDGE_CURVE ( 'NONE', #146, #592, #737, .T. ) ;
#513 = DIRECTION ( 'NONE',  ( 6.123233995736779600E-017, -1.000000000000000000, 0.0000000000000000000 ) ) ;
#514 = EDGE_CURVE ( 'NONE', #608, #1067, #1054, .T. ) ;
#515 = LINE ( 'NONE', #144, #903 ) ;
#516 = VECTOR ( 'NONE', #908, 1000.000000000000000 ) ;
#517 =( NAMED_UNIT ( * ) SI_UNIT ( $, .STERADIAN. ) SOLID_ANGLE_UNIT ( ) );
#518 = VERTEX_POINT ( 'NONE', #1083 ) ;
#519 = DIRECTION ( 'NONE',  ( -0.0000000000000000000, -0.0000000000000000000, -1.000000000000000000 ) ) ;
#520 = LINE ( 'NONE', #764, #1100 ) ;
#521 = DIRECTION ( 'NONE',  ( -1.000000000000000000, 0.0000000000000000000, 0.0000000000000000000 ) ) ;
#522 = DIRECTION ( 'NONE',  ( 0.0000000000000000000, 1.000000000000000000, -0.0000000000000000000 ) ) ;
#523 = EDGE_LOOP ( 'NONE', ( #637, #418, #862, #948 ) ) ;
#524 = AXIS2_PLACEMENT_3D ( 'NONE', #119, #673, #128 ) ;
#525 = ORIENTED_EDGE ( 'NONE', *, *, #914, .F. ) ;
#526 = DIRECTION ( 'NONE',  ( 0.0000000000000000000, -1.000000000000000000, 0.0000000000000000000 ) ) ;
#527 = FACE_OUTER_BOUND ( 'NONE', #198, .T. ) ;
#528 = VERTEX_POINT ( 'NONE', #724 ) ;
#529 = CARTESIAN_POINT ( 'NONE',  ( 780.0000000000000000, 300.0000000000000000, -2.449293598294705800E-014 ) ) ;
#530 = LINE ( 'NONE', #700, #560 ) ;
#531 = DIRECTION ( 'NONE',  ( 0.0000000000000000000, -1.000000000000000000, 0.0000000000000000000 ) ) ;
#532 = AXIS2_PLACEMENT_3D ( 'NONE', #995, #130, #1087 ) ;
#533 = AXIS2_PLACEMENT_3D ( 'NONE', #1046, #349, #1130 ) ;
#534 = PLANE ( 'NONE',  #42 ) ;
#535 = ORIENTED_EDGE ( 'NONE', *, *, #136, .T. ) ;
#536 = CARTESIAN_POINT ( 'NONE',  ( -349.9999999999997700, -1.942890293094022900E-013, 150.0000000000000000 ) ) ;
#537 = CARTESIAN_POINT ( 'NONE',  ( -200.0000000000000000, 0.0000000000000000000, -200.0000000000000000 ) ) ;
#538 = VECTOR ( 'NONE', #1021, 1000.000000000000000 ) ;
#539 = ORIENTED_EDGE ( 'NONE', *, *, #630, .T. ) ;
#540 = CARTESIAN_POINT ( 'NONE',  ( 780.0000000000000000, 300.0000000000000000, 49.99999999999997200 ) ) ;
#541 = ORIENTED_EDGE ( 'NONE', *, *, #473, .F. ) ;
#542 = CARTESIAN_POINT ( 'NONE',  ( 0.0000000000000000000, 0.0000000000000000000, -180.0000000000000300 ) ) ;
#543 = FACE_OUTER_BOUND ( 'NONE', #740, .T. ) ;
#544 = PLANE ( 'NONE',  #705 ) ;
#545 = LINE ( 'NONE', #384, #196 ) ;
#546 = CARTESIAN_POINT ( 'NONE',  ( 800.0000000000000000, 0.0000000000000000000, 180.0000000000000300 ) ) ;
#547 = DIRECTION ( 'NONE',  ( 0.0000000000000000000, -1.000000000000000000, 0.0000000000000000000 ) ) ;
#548 = PRESENTATION_STYLE_ASSIGNMENT (( #667 ) ) ;
#549 = LINE ( 'NONE', #449, #918 ) ;
#550 = CARTESIAN_POINT ( 'NONE',  ( -0.0000000000000000000, 0.0000000000000000000, -200.0000000000000000 ) ) ;
#551 = MANIFOLD_SOLID_BREP ( 'Ressalto-extrusão2', #554 ) ;
#552 = CARTESIAN_POINT ( 'NONE',  ( 800.0000000000000000, 2.449293705170335700E-014, -180.0000000000000300 ) ) ;
#553 = VERTEX_POINT ( 'NONE', #18 ) ;
#554 = CLOSED_SHELL ( 'NONE', ( #485, #746, #1076, #920, #659, #573 ) ) ;
#555 = ORIENTED_EDGE ( 'NONE', *, *, #219, .T. ) ;
#556 = VECTOR ( 'NONE', #815, 1000.000000000000000 ) ;
#557 = DIRECTION ( 'NONE',  ( -1.000000000000000000, 0.0000000000000000000, 0.0000000000000000000 ) ) ;
#558 = EDGE_LOOP ( 'NONE', ( #299, #1002, #471, #258 ) ) ;
#559 = DIRECTION ( 'NONE',  ( 1.000000000000000000, 0.0000000000000000000, 0.0000000000000000000 ) ) ;
#560 = VECTOR ( 'NONE', #531, 1000.000000000000000 ) ;
#561 = DIRECTION ( 'NONE',  ( 0.0000000000000000000, -1.000000000000000000, 0.0000000000000000000 ) ) ;
#562 = MECHANICAL_DESIGN_GEOMETRIC_PRESENTATION_REPRESENTATION (  '', ( #301 ), #620 ) ;
#563 = ORIENTED_EDGE ( 'NONE', *, *, #314, .T. ) ;
#564 = FILL_AREA_STYLE_COLOUR ( '', #111 ) ;
#565 = CARTESIAN_POINT ( 'NONE',  ( 300.0000000000000000, 6.123233995736757400E-015, -200.0000000000000000 ) ) ;
#566 = VECTOR ( 'NONE', #526, 1000.000000000000000 ) ;
#567 = EDGE_LOOP ( 'NONE', ( #744, #1049, #329, #328 ) ) ;
#568 = VERTEX_POINT ( 'NONE', #462 ) ;
#569 = LINE ( 'NONE', #638, #331 ) ;
#570 = PLANE ( 'NONE',  #444 ) ;
#571 =( GEOMETRIC_REPRESENTATION_CONTEXT ( 3 ) GLOBAL_UNCERTAINTY_ASSIGNED_CONTEXT ( ( #987 ) ) GLOBAL_UNIT_ASSIGNED_CONTEXT ( ( #147, #756, #234 ) ) REPRESENTATION_CONTEXT ( 'NONE', 'WORKASPACE' ) );
#572 = PLANE ( 'NONE',  #1007 ) ;
#573 = ADVANCED_FACE ( 'NONE', ( #233 ), #544, .F. ) ;
#574 = EDGE_CURVE ( 'NONE', #951, #1116, #83, .T. ) ;
#575 = FILL_AREA_STYLE ('',( #564 ) ) ;
#576 = EDGE_CURVE ( 'NONE', #752, #209, #822, .T. ) ;
#577 = DIRECTION ( 'NONE',  ( -1.000000000000000000, -1.110223024625156500E-016, 0.0000000000000000000 ) ) ;
#578 = VERTEX_POINT ( 'NONE', #635 ) ;
#579 = FACE_OUTER_BOUND ( 'NONE', #900, .T. ) ;
#580 = SURFACE_SIDE_STYLE ('',( #224 ) ) ;
#581 = ORIENTED_EDGE ( 'NONE', *, *, #905, .F. ) ;
#582 = CARTESIAN_POINT ( 'NONE',  ( 300.0000000000000000, 0.0000000000000000000, 180.0000000000000300 ) ) ;
#583 = EDGE_LOOP ( 'NONE', ( #149, #323, #253, #795 ) ) ;
#584 = ADVANCED_FACE ( 'NONE', ( #527 ), #381, .T. ) ;
#585 = VECTOR ( 'NONE', #841, 1000.000000000000000 ) ;
#586 = AXIS2_PLACEMENT_3D ( 'NONE', #546, #286, #884 ) ;
#587 = DIRECTION ( 'NONE',  ( 0.0000000000000000000, 1.000000000000000000, -0.0000000000000000000 ) ) ;
#588 = PRESENTATION_LAYER_ASSIGNMENT (  '', '', ( #982 ) ) ;
#589 = EDGE_CURVE ( 'NONE', #357, #378, #701, .T. ) ;
#590 = DIRECTION ( 'NONE',  ( 0.0000000000000000000, 0.0000000000000000000, -1.000000000000000000 ) ) ;
#591 = EDGE_LOOP ( 'NONE', ( #906, #877, #789, #168 ) ) ;
#592 = VERTEX_POINT ( 'NONE', #1070 ) ;
#593 = DIRECTION ( 'NONE',  ( -1.000000000000000000, -2.041077998578920100E-017, 0.0000000000000000000 ) ) ;
#594 = PRODUCT_DEFINITION_CONTEXT ( 'detailed design', #1096, 'design' ) ;
#595 = FACE_OUTER_BOUND ( 'NONE', #434, .T. ) ;
#596 = DIRECTION ( 'NONE',  ( 1.000000000000000000, 0.0000000000000000000, 0.0000000000000000000 ) ) ;
#597 = FACE_OUTER_BOUND ( 'NONE', #617, .T. ) ;
#598 = CARTESIAN_POINT ( 'NONE',  ( 0.0000000000000000000, 400.0000000000000000, -150.0000000000000000 ) ) ;
#599 = DIRECTION ( 'NONE',  ( 1.000000000000000000, 1.110223024625156500E-016, 0.0000000000000000000 ) ) ;
#600 = DIRECTION ( 'NONE',  ( 0.0000000000000000000, -1.000000000000000000, 0.0000000000000000000 ) ) ;
#601 = ORIENTED_EDGE ( 'NONE', *, *, #126, .F. ) ;
#602 = DIRECTION ( 'NONE',  ( 0.0000000000000000000, 0.0000000000000000000, 1.000000000000000000 ) ) ;
#603 = FILL_AREA_STYLE ('',( #1122 ) ) ;
#604 = AXIS2_PLACEMENT_3D ( 'NONE', #627, #547, #276 ) ;
#605 = CARTESIAN_POINT ( 'NONE',  ( -200.0000000000000000, 0.0000000000000000000, -200.0000000000000000 ) ) ;
#606 = CARTESIAN_POINT ( 'NONE',  ( 8.881784197001246000E-015, -79.99999999999994300, -200.0000000000000000 ) ) ;
#607 = ORIENTED_EDGE ( 'NONE', *, *, #437, .F. ) ;
#608 = VERTEX_POINT ( 'NONE', #976 ) ;
#609 = CARTESIAN_POINT ( 'NONE',  ( -200.0000000000000000, -79.99999999999997200, 0.0000000000000000000 ) ) ;
#610 = LINE ( 'NONE', #797, #941 ) ;
#611 = CARTESIAN_POINT ( 'NONE',  ( 1.499759782661865900E-030, -2.449293598294715300E-014, -180.0000000000000300 ) ) ;
#612 = VERTEX_POINT ( 'NONE', #1062 ) ;
#613 = EDGE_CURVE ( 'NONE', #289, #229, #493, .T. ) ;
#614 = FACE_OUTER_BOUND ( 'NONE', #484, .T. ) ;
#615 = PRODUCT_DEFINITION_FORMATION_WITH_SPECIFIED_SOURCE ( 'ANY', '', #78, .NOT_KNOWN. ) ;
#616 = PLANE ( 'NONE',  #379 ) ;
#617 = EDGE_LOOP ( 'NONE', ( #632, #819, #396, #808 ) ) ;
#618 = VECTOR ( 'NONE', #152, 1000.000000000000000 ) ;
#619 = CARTESIAN_POINT ( 'NONE',  ( -349.9999999999997700, -1.942890293094022900E-013, -150.0000000000000000 ) ) ;
#620 =( GEOMETRIC_REPRESENTATION_CONTEXT ( 3 ) GLOBAL_UNCERTAINTY_ASSIGNED_CONTEXT ( ( #138 ) ) GLOBAL_UNIT_ASSIGNED_CONTEXT ( ( #1018, #1124, #517 ) ) REPRESENTATION_CONTEXT ( 'NONE', 'WORKASPACE' ) );
#621 = ORIENTED_EDGE ( 'NONE', *, *, #321, .F. ) ;
#622 = VERTEX_POINT ( 'NONE', #983 ) ;
#623 = DIRECTION ( 'NONE',  ( 1.000000000000000000, 0.0000000000000000000, -0.0000000000000000000 ) ) ;
#624 = VECTOR ( 'NONE', #511, 1000.000000000000000 ) ;
#625 = EDGE_CURVE ( 'NONE', #1045, #91, #610, .T. ) ;
#626 = VERTEX_POINT ( 'NONE', #887 ) ;
#627 = CARTESIAN_POINT ( 'NONE',  ( 0.0000000000000000000, 0.0000000000000000000, -200.0000000000000000 ) ) ;
#628 = DIRECTION ( 'NONE',  ( 1.000000000000000000, -0.0000000000000000000, 0.0000000000000000000 ) ) ;
#629 = AXIS2_PLACEMENT_3D ( 'NONE', #886, #281, #790 ) ;
#630 = EDGE_CURVE ( 'NONE', #762, #441, #961, .T. ) ;
#631 = CARTESIAN_POINT ( 'NONE',  ( 800.0000000000000000, 0.0000000000000000000, 0.0000000000000000000 ) ) ;
#632 = ORIENTED_EDGE ( 'NONE', *, *, #731, .F. ) ;
#633 = CARTESIAN_POINT ( 'NONE',  ( 0.0000000000000000000, 0.0000000000000000000, 200.0000000000000000 ) ) ;
#634 = EDGE_CURVE ( 'NONE', #84, #1045, #898, .T. ) ;
#635 = CARTESIAN_POINT ( 'NONE',  ( 300.0000000000000000, 6.123233995736757400E-015, 200.0000000000000000 ) ) ;
#636 = EDGE_CURVE ( 'NONE', #709, #41, #221, .T. ) ;
#637 = ORIENTED_EDGE ( 'NONE', *, *, #310, .F. ) ;
#638 = CARTESIAN_POINT ( 'NONE',  ( 1.499759782661865900E-030, -2.449293598294715300E-014, 0.0000000000000000000 ) ) ;
#639 = DIRECTION ( 'NONE',  ( 1.000000000000000000, 2.775557561562891400E-017, 0.0000000000000000000 ) ) ;
#640 = EDGE_LOOP ( 'NONE', ( #316, #182 ) ) ;
#641 = LINE ( 'NONE', #947, #801 ) ;
#642 = LINE ( 'NONE', #16, #251 ) ;
#643 = CARTESIAN_POINT ( 'NONE',  ( 0.0000000000000000000, 0.0000000000000000000, 0.0000000000000000000 ) ) ;
#644 = ORIENTED_EDGE ( 'NONE', *, *, #201, .T. ) ;
#645 = DIRECTION ( 'NONE',  ( -0.0000000000000000000, 0.0000000000000000000, 1.000000000000000000 ) ) ;
#646 = EDGE_LOOP ( 'NONE', ( #621, #132, #1106, #678 ) ) ;
#647 = DIRECTION ( 'NONE',  ( 0.0000000000000000000, 1.000000000000000000, -0.0000000000000000000 ) ) ;
#648 = DIRECTION ( 'NONE',  ( -0.0000000000000000000, -0.0000000000000000000, -1.000000000000000000 ) ) ;
#649 = ORIENTED_EDGE ( 'NONE', *, *, #950, .T. ) ;
#650 = ORIENTED_EDGE ( 'NONE', *, *, #136, .F. ) ;
#651 = PRESENTATION_LAYER_ASSIGNMENT (  '', '', ( #85 ) ) ;
#652 = VECTOR ( 'NONE', #506, 1000.000000000000000 ) ;
#653 = EDGE_LOOP ( 'NONE', ( #813, #962, #1008, #925 ) ) ;
#654 = PRESENTATION_STYLE_ASSIGNMENT (( #159 ) ) ;
#655 = DIRECTION ( 'NONE',  ( 0.0000000000000000000, -1.000000000000000000, 0.0000000000000000000 ) ) ;
#656 = VECTOR ( 'NONE', #9, 1000.000000000000000 ) ;
#657 = ORIENTED_EDGE ( 'NONE', *, *, #313, .T. ) ;
#658 = DIRECTION ( 'NONE',  ( -1.000000000000000000, 0.0000000000000000000, 0.0000000000000000000 ) ) ;
#659 = ADVANCED_FACE ( 'NONE', ( #297 ), #392, .T. ) ;
#660 = ORIENTED_EDGE ( 'NONE', *, *, #636, .F. ) ;
#661 = FACE_OUTER_BOUND ( 'NONE', #491, .T. ) ;
#662 = FACE_OUTER_BOUND ( 'NONE', #356, .T. ) ;
#663 = ADVANCED_FACE ( 'NONE', ( #661 ), #894, .T. ) ;
#664 = CARTESIAN_POINT ( 'NONE',  ( 800.0000000000000000, -79.99999999999990100, -180.0000000000000300 ) ) ;
#665 = UNCERTAINTY_MEASURE_WITH_UNIT (LENGTH_MEASURE( 1.000000000000000100E-005 ), #1059, 'distance_accuracy_value', 'NONE');
#666 = ORIENTED_EDGE ( 'NONE', *, *, #970, .F. ) ;
#667 = SURFACE_STYLE_USAGE ( .BOTH. , #580 ) ;
#668 = PRODUCT_RELATED_PRODUCT_CATEGORY ( 'part', '', ( #78 ) ) ;
#669 = FACE_OUTER_BOUND ( 'NONE', #195, .T. ) ;
#670 = ORIENTED_EDGE ( 'NONE', *, *, #576, .T. ) ;
#671 =( GEOMETRIC_REPRESENTATION_CONTEXT ( 3 ) GLOBAL_UNCERTAINTY_ASSIGNED_CONTEXT ( ( #346 ) ) GLOBAL_UNIT_ASSIGNED_CONTEXT ( ( #261, #954, #1048 ) ) REPRESENTATION_CONTEXT ( 'NONE', 'WORKASPACE' ) );
#672 = VECTOR ( 'NONE', #561, 1000.000000000000000 ) ;
#673 = DIRECTION ( 'NONE',  ( -0.0000000000000000000, 0.0000000000000000000, 1.000000000000000000 ) ) ;
#674 = SURFACE_STYLE_FILL_AREA ( #698 ) ;
#675 = CARTESIAN_POINT ( 'NONE',  ( -0.0000000000000000000, 0.0000000000000000000, 0.0000000000000000000 ) ) ;
#676 = EDGE_CURVE ( 'NONE', #181, #441, #990, .T. ) ;
#677 = LINE ( 'NONE', #179, #238 ) ;
#678 = ORIENTED_EDGE ( 'NONE', *, *, #1082, .F. ) ;
#679 = AXIS2_PLACEMENT_3D ( 'NONE', #827, #1013, #1000 ) ;
#680 = DIRECTION ( 'NONE',  ( 0.0000000000000000000, 0.0000000000000000000, 1.000000000000000000 ) ) ;
#681 = ADVANCED_FACE ( 'NONE', ( #400 ), #921, .T. ) ;
#682 = EDGE_CURVE ( 'NONE', #850, #378, #876, .T. ) ;
#683 = DIRECTION ( 'NONE',  ( 1.000000000000000000, 2.775557561562891400E-017, 0.0000000000000000000 ) ) ;
#684 = DIRECTION ( 'NONE',  ( -0.0000000000000000000, 0.0000000000000000000, 1.000000000000000000 ) ) ;
#685 = ADVANCED_FACE ( 'NONE', ( #1068 ), #408, .F. ) ;
#686 = DIRECTION ( 'NONE',  ( 1.000000000000000000, 0.0000000000000000000, 0.0000000000000000000 ) ) ;
#687 = EDGE_CURVE ( 'NONE', #502, #984, #1044, .T. ) ;
#688 = VECTOR ( 'NONE', #600, 1000.000000000000000 ) ;
#689 = LINE ( 'NONE', #868, #885 ) ;
#690 = CARTESIAN_POINT ( 'NONE',  ( 1.499759782661865900E-030, -2.449293598294715300E-014, -180.0000000000000300 ) ) ;
#691 =( NAMED_UNIT ( * ) SI_UNIT ( $, .STERADIAN. ) SOLID_ANGLE_UNIT ( ) );
#692 = CARTESIAN_POINT ( 'NONE',  ( 0.0000000000000000000, 0.0000000000000000000, -200.0000000000000000 ) ) ;
#693 = VECTOR ( 'NONE', #602, 1000.000000000000000 ) ;
#694 = DIRECTION ( 'NONE',  ( 0.0000000000000000000, 0.0000000000000000000, -1.000000000000000000 ) ) ;
#695 = FACE_OUTER_BOUND ( 'NONE', #388, .T. ) ;
#696 = SURFACE_STYLE_USAGE ( .BOTH. , #76 ) ;
#697 = DIRECTION ( 'NONE',  ( 0.0000000000000000000, 0.0000000000000000000, -1.000000000000000000 ) ) ;
#698 = FILL_AREA_STYLE ('',( #871 ) ) ;
#699 = EDGE_LOOP ( 'NONE', ( #1064, #163, #1077, #135 ) ) ;
#700 = CARTESIAN_POINT ( 'NONE',  ( 300.0000000000000000, 0.0000000000000000000, 180.0000000000000300 ) ) ;
#701 = LINE ( 'NONE', #104, #4 ) ;
#702 = DIRECTION ( 'NONE',  ( -1.000000000000000000, -0.0000000000000000000, -0.0000000000000000000 ) ) ;
#703 = UNCERTAINTY_MEASURE_WITH_UNIT (LENGTH_MEASURE( 1.000000000000000100E-005 ), #436, 'distance_accuracy_value', 'NONE');
#704 = PLANE ( 'NONE',  #1128 ) ;
#705 = AXIS2_PLACEMENT_3D ( 'NONE', #364, #722, #559 ) ;
#706 = FACE_OUTER_BOUND ( 'NONE', #455, .T. ) ;
#707 = DIRECTION ( 'NONE',  ( 1.000000000000000000, 0.0000000000000000000, 0.0000000000000000000 ) ) ;
#708 = CARTESIAN_POINT ( 'NONE',  ( 300.0000000000000000, 6.123233995736757400E-015, 0.0000000000000000000 ) ) ;
#709 = VERTEX_POINT ( 'NONE', #478 ) ;
#710 = SURFACE_STYLE_USAGE ( .BOTH. , #1 ) ;
#711 = VECTOR ( 'NONE', #889, 1000.000000000000000 ) ;
#712 = PLANE ( 'NONE',  #586 ) ;
#713 = CARTESIAN_POINT ( 'NONE',  ( -200.0000000000000000, 0.0000000000000000000, 0.0000000000000000000 ) ) ;
#714 = ORIENTED_EDGE ( 'NONE', *, *, #999, .F. ) ;
#715 =( NAMED_UNIT ( * ) SI_UNIT ( $, .STERADIAN. ) SOLID_ANGLE_UNIT ( ) );
#716 = AXIS2_PLACEMENT_3D ( 'NONE', #86, #93, #186 ) ;
#717 = COLOUR_RGB ( '',0.7921568627450980000, 0.8196078431372548800, 0.9333333333333333500 ) ;
#718 = VECTOR ( 'NONE', #113, 1000.000000000000000 ) ;
#719 = CARTESIAN_POINT ( 'NONE',  ( 800.0000000000000000, 0.0000000000000000000, -180.0000000000000300 ) ) ;
#720 = ORIENTED_EDGE ( 'NONE', *, *, #271, .F. ) ;
#721 = ORIENTED_EDGE ( 'NONE', *, *, #207, .T. ) ;
#722 = DIRECTION ( 'NONE',  ( -0.0000000000000000000, 0.0000000000000000000, 1.000000000000000000 ) ) ;
#723 = EDGE_CURVE ( 'NONE', #622, #468, #545, .T. ) ;
#724 = CARTESIAN_POINT ( 'NONE',  ( 300.0000000000000000, -79.99999999999991500, 0.0000000000000000000 ) ) ;
#725 = COLOUR_RGB ( '',0.7921568627450980000, 0.8196078431372548800, 0.9333333333333333500 ) ;
#726 = FACE_OUTER_BOUND ( 'NONE', #26, .T. ) ;
#727 = EDGE_LOOP ( 'NONE', ( #644, #194, #369, #563 ) ) ;
#728 = CARTESIAN_POINT ( 'NONE',  ( 300.0000000000000000, 0.0000000000000000000, -180.0000000000000300 ) ) ;
#729 = COLOUR_RGB ( '',0.7921568627450980000, 0.8196078431372548800, 0.9333333333333333500 ) ;
#730 = DIRECTION ( 'NONE',  ( 1.000000000000000000, 0.0000000000000000000, -0.0000000000000000000 ) ) ;
#731 = EDGE_CURVE ( 'NONE', #44, #996, #1011, .T. ) ;
#732 = ORIENTED_EDGE ( 'NONE', *, *, #321, .T. ) ;
#733 = DIRECTION ( 'NONE',  ( 0.0000000000000000000, 1.000000000000000000, -0.0000000000000000000 ) ) ;
#734 = ORIENTED_EDGE ( 'NONE', *, *, #282, .F. ) ;
#735 = EDGE_CURVE ( 'NONE', #578, #762, #140, .T. ) ;
#736 = CARTESIAN_POINT ( 'NONE',  ( 300.0000000000000000, -79.99999999999991500, -200.0000000000000000 ) ) ;
#737 = LINE ( 'NONE', #29, #959 ) ;
#738 = CARTESIAN_POINT ( 'NONE',  ( 0.0000000000000000000, 400.0000000000000000, 150.0000000000000000 ) ) ;
#739 = EDGE_LOOP ( 'NONE', ( #509, #118, #2, #525 ) ) ;
#740 = EDGE_LOOP ( 'NONE', ( #816, #1088, #541, #139 ) ) ;
#741 = VECTOR ( 'NONE', #103, 1000.000000000000000 ) ;
#742 = EDGE_CURVE ( 'NONE', #528, #850, #432, .T. ) ;
#743 = EDGE_CURVE ( 'NONE', #750, #468, #250, .T. ) ;
#744 = ORIENTED_EDGE ( 'NONE', *, *, #143, .F. ) ;
#745 = CARTESIAN_POINT ( 'NONE',  ( 300.0000000000000000, 6.123233995736757400E-015, 200.0000000000000000 ) ) ;
#746 = ADVANCED_FACE ( 'NONE', ( #726 ), #570, .F. ) ;
#747 = EDGE_LOOP ( 'NONE', ( #1023, #177, #823, #295 ) ) ;
#748 = ORIENTED_EDGE ( 'NONE', *, *, #65, .F. ) ;
#749 = DIRECTION ( 'NONE',  ( 0.0000000000000000000, 0.0000000000000000000, 1.000000000000000000 ) ) ;
#750 = VERTEX_POINT ( 'NONE', #300 ) ;
#751 = VECTOR ( 'NONE', #587, 1000.000000000000000 ) ;
#752 = VERTEX_POINT ( 'NONE', #565 ) ;
#753 = ADVANCED_FACE ( 'NONE', ( #859 ), #39, .T. ) ;
#754 = DIRECTION ( 'NONE',  ( -0.0000000000000000000, -0.0000000000000000000, -1.000000000000000000 ) ) ;
#755 = DIRECTION ( 'NONE',  ( -1.000000000000000000, -2.775557561562891400E-017, 0.0000000000000000000 ) ) ;
#756 =( NAMED_UNIT ( * ) PLANE_ANGLE_UNIT ( ) SI_UNIT ( $, .RADIAN. ) );
#757 = ORIENTED_EDGE ( 'NONE', *, *, #150, .T. ) ;
#758 = PRESENTATION_LAYER_ASSIGNMENT (  '', '', ( #301 ) ) ;
#759 = CARTESIAN_POINT ( 'NONE',  ( 300.0000000000000000, -79.99999999999991500, 0.0000000000000000000 ) ) ;
#760 = CARTESIAN_POINT ( 'NONE',  ( 0.0000000000000000000, 0.0000000000000000000, 150.0000000000000000 ) ) ;
#761 = VERTEX_POINT ( 'NONE', #994 ) ;
#762 = VERTEX_POINT ( 'NONE', #931 ) ;
#763 = LINE ( 'NONE', #975, #100 ) ;
#764 = CARTESIAN_POINT ( 'NONE',  ( 2.220446049250311100E-015, -79.99999999999992900, 180.0000000000000300 ) ) ;
#765 = VECTOR ( 'NONE', #367, 1000.000000000000000 ) ;
#766 = FACE_OUTER_BOUND ( 'NONE', #769, .T. ) ;
#767 = PLANE ( 'NONE',  #917 ) ;
#768 = PLANE ( 'NONE',  #495 ) ;
#769 = EDGE_LOOP ( 'NONE', ( #601, #660, #307, #1060 ) ) ;
#770 = SURFACE_STYLE_USAGE ( .BOTH. , #158 ) ;
#771 = AXIS2_PLACEMENT_3D ( 'NONE', #1056, #628, #694 ) ;
#772 = DIRECTION ( 'NONE',  ( 1.000000000000000000, 0.0000000000000000000, 0.0000000000000000000 ) ) ;
#773 = DIRECTION ( 'NONE',  ( 1.000000000000000000, 0.0000000000000000000, 0.0000000000000000000 ) ) ;
#774 = EDGE_LOOP ( 'NONE', ( #112, #240 ) ) ;
#775 =( NAMED_UNIT ( * ) SI_UNIT ( $, .STERADIAN. ) SOLID_ANGLE_UNIT ( ) );
#776 = DIRECTION ( 'NONE',  ( -1.000000000000000000, -6.123233995736778400E-017, 0.0000000000000000000 ) ) ;
#777 = ORIENTED_EDGE ( 'NONE', *, *, #271, .T. ) ;
#778 = DIRECTION ( 'NONE',  ( 0.0000000000000000000, 0.0000000000000000000, 1.000000000000000000 ) ) ;
#779 = VECTOR ( 'NONE', #293, 1000.000000000000000 ) ;
#780 = ORIENTED_EDGE ( 'NONE', *, *, #1117, .F. ) ;
#781 = CARTESIAN_POINT ( 'NONE',  ( 800.0000000000000000, 0.0000000000000000000, 0.0000000000000000000 ) ) ;
#782 = PLANE ( 'NONE',  #716 ) ;
#783 = LINE ( 'NONE', #327, #952 ) ;
#784 = CARTESIAN_POINT ( 'NONE',  ( 600.0000000000000000, 400.0000000000000000, 150.0000000000000000 ) ) ;
#785 = EDGE_CURVE ( 'NONE', #185, #608, #309, .T. ) ;
#786 = CARTESIAN_POINT ( 'NONE',  ( -350.0000000000000000, 400.0000000000000000, -150.0000000000000000 ) ) ;
#787 = CIRCLE ( 'NONE', #997, 49.99999999999999300 ) ;
#788 = CARTESIAN_POINT ( 'NONE',  ( 300.0000000000000000, 0.0000000000000000000, 0.0000000000000000000 ) ) ;
#789 = ORIENTED_EDGE ( 'NONE', *, *, #201, .F. ) ;
#790 = DIRECTION ( 'NONE',  ( 1.000000000000000000, 0.0000000000000000000, 0.0000000000000000000 ) ) ;
#791 = FACE_OUTER_BOUND ( 'NONE', #5, .T. ) ;
#792 = AXIS2_PLACEMENT_3D ( 'NONE', #1126, #246, #852 ) ;
#793 = PRESENTATION_STYLE_ASSIGNMENT (( #696 ) ) ;
#794 = CARTESIAN_POINT ( 'NONE',  ( 780.0000000000000000, 300.0000000000000000, -50.00000000000002100 ) ) ;
#795 = ORIENTED_EDGE ( 'NONE', *, *, #1030, .T. ) ;
#796 = EDGE_CURVE ( 'NONE', #1045, #612, #35, .T. ) ;
#797 = CARTESIAN_POINT ( 'NONE',  ( 1.499759782661865900E-030, -2.449293598294715300E-014, 180.0000000000000300 ) ) ;
#798 = CLOSED_SHELL ( 'NONE', ( #302, #49, #1115, #685, #481, #497 ) ) ;
#799 = DIRECTION ( 'NONE',  ( -0.0000000000000000000, -0.0000000000000000000, -1.000000000000000000 ) ) ;
#800 = PRESENTATION_STYLE_ASSIGNMENT (( #934 ) ) ;
#801 = VECTOR ( 'NONE', #680, 1000.000000000000000 ) ;
#802 = CARTESIAN_POINT ( 'NONE',  ( 0.0000000000000000000, 0.0000000000000000000, 180.0000000000000300 ) ) ;
#803 = ORIENTED_EDGE ( 'NONE', *, *, #207, .F. ) ;
#804 = VECTOR ( 'NONE', #655, 1000.000000000000000 ) ;
#805 = VECTOR ( 'NONE', #837, 1000.000000000000000 ) ;
#806 = DIRECTION ( 'NONE',  ( 0.0000000000000000000, -1.000000000000000000, 0.0000000000000000000 ) ) ;
#807 = ORIENTED_EDGE ( 'NONE', *, *, #24, .T. ) ;
#808 = ORIENTED_EDGE ( 'NONE', *, *, #970, .T. ) ;
#809 = FACE_OUTER_BOUND ( 'NONE', #50, .T. ) ;
#810 = CARTESIAN_POINT ( 'NONE',  ( -200.0000000000000000, 0.0000000000000000000, 200.0000000000000000 ) ) ;
#811 = DIRECTION ( 'NONE',  ( -2.775557561562891400E-017, 1.000000000000000000, 0.0000000000000000000 ) ) ;
#812 = AXIS2_PLACEMENT_3D ( 'NONE', #529, #707, #697 ) ;
#813 = ORIENTED_EDGE ( 'NONE', *, *, #743, .T. ) ;
#814 = CARTESIAN_POINT ( 'NONE',  ( -0.0000000000000000000, 400.0000000000000000, -150.0000000000000000 ) ) ;
#815 = DIRECTION ( 'NONE',  ( -1.000000000000000000, -1.110223024625156500E-016, 0.0000000000000000000 ) ) ;
#816 = ORIENTED_EDGE ( 'NONE', *, *, #40, .T. ) ;
#817 = VECTOR ( 'NONE', #92, 1000.000000000000000 ) ;
#818 = SURFACE_STYLE_FILL_AREA ( #53 ) ;
#819 = ORIENTED_EDGE ( 'NONE', *, *, #219, .F. ) ;
#820 = AXIS2_PLACEMENT_3D ( 'NONE', #802, #121, #902 ) ;
#821 = EDGE_LOOP ( 'NONE', ( #37, #714, #607, #176 ) ) ;
#822 = LINE ( 'NONE', #882, #779 ) ;
#823 = ORIENTED_EDGE ( 'NONE', *, *, #634, .F. ) ;
#824 = VECTOR ( 'NONE', #165, 1000.000000000000000 ) ;
#825 = EDGE_CURVE ( 'NONE', #761, #850, #641, .T. ) ;
#826 = PRODUCT_CONTEXT ( 'NONE', #167, 'mechanical' ) ;
#827 = CARTESIAN_POINT ( 'NONE',  ( 2.220446049250311100E-015, -79.99999999999992900, -180.0000000000000300 ) ) ;
#828 = ADVANCED_FACE ( 'NONE', ( #350 ), #501, .F. ) ;
#829 = PRESENTATION_LAYER_ASSIGNMENT (  '', '', ( #1040 ) ) ;
#830 = ORIENTED_EDGE ( 'NONE', *, *, #838, .F. ) ;
#831 = ORIENTED_EDGE ( 'NONE', *, *, #825, .F. ) ;
#832 = FACE_OUTER_BOUND ( 'NONE', #591, .T. ) ;
#833 = DIRECTION ( 'NONE',  ( 0.0000000000000000000, 1.000000000000000000, 0.0000000000000000000 ) ) ;
#834 = ADVANCED_FACE ( 'NONE', ( #766 ), #1119, .T. ) ;
#835 = EDGE_CURVE ( 'NONE', #361, #146, #417, .T. ) ;
#836 = ORIENTED_EDGE ( 'NONE', *, *, #446, .T. ) ;
#837 = DIRECTION ( 'NONE',  ( -0.0000000000000000000, -0.0000000000000000000, -1.000000000000000000 ) ) ;
#838 = EDGE_CURVE ( 'NONE', #1120, #608, #183, .T. ) ;
#839 = LINE ( 'NONE', #605, #624 ) ;
#840 = CLOSED_SHELL ( 'NONE', ( #228, #663, #54, #753, #315, #340 ) ) ;
#841 = DIRECTION ( 'NONE',  ( 1.000000000000000000, 0.0000000000000000000, 0.0000000000000000000 ) ) ;
#842 = EDGE_CURVE ( 'NONE', #761, #357, #839, .T. ) ;
#843 = DIRECTION ( 'NONE',  ( -0.0000000000000000000, 0.0000000000000000000, 1.000000000000000000 ) ) ;
#844 = ADVANCED_FACE ( 'NONE', ( #579 ), #768, .T. ) ;
#845 = DIRECTION ( 'NONE',  ( -0.0000000000000000000, 0.0000000000000000000, 1.000000000000000000 ) ) ;
#846 = VECTOR ( 'NONE', #754, 1000.000000000000000 ) ;
#847 = CARTESIAN_POINT ( 'NONE',  ( 600.0000000000000000, 1.224646852585167900E-014, -150.0000000000000000 ) ) ;
#848 = AXIS2_PLACEMENT_3D ( 'NONE', #542, #456, #97 ) ;
#849 = ORIENTED_EDGE ( 'NONE', *, *, #40, .F. ) ;
#850 = VERTEX_POINT ( 'NONE', #609 ) ;
#851 = CARTESIAN_POINT ( 'NONE',  ( 780.0000000000000000, 300.0000000000000000, -2.449293598294705800E-014 ) ) ;
#852 = DIRECTION ( 'NONE',  ( 0.0000000000000000000, 0.0000000000000000000, 1.000000000000000000 ) ) ;
#853 = DIRECTION ( 'NONE',  ( 1.000000000000000000, 0.0000000000000000000, 0.0000000000000000000 ) ) ;
#854 = PLANE ( 'NONE',  #137 ) ;
#855 = FILL_AREA_STYLE ('',( #1118 ) ) ;
#856 = EDGE_CURVE ( 'NONE', #84, #1067, #320, .T. ) ;
#857 = CARTESIAN_POINT ( 'NONE',  ( 300.0000000000000000, -79.99999999999991500, 180.0000000000000300 ) ) ;
#858 = APPLICATION_PROTOCOL_DEFINITION ( 'draft international standard', 'automotive_design', 1998, #1096 ) ;
#859 = FACE_OUTER_BOUND ( 'NONE', #567, .T. ) ;
#860 = VECTOR ( 'NONE', #190, 1000.000000000000000 ) ;
#861 = DIRECTION ( 'NONE',  ( 1.000000000000000000, 0.0000000000000000000, 0.0000000000000000000 ) ) ;
#862 = ORIENTED_EDGE ( 'NONE', *, *, #785, .F. ) ;
#863 = CARTESIAN_POINT ( 'NONE',  ( -0.0000000000000000000, 0.0000000000000000000, 0.0000000000000000000 ) ) ;
#864 = VECTOR ( 'NONE', #776, 1000.000000000000000 ) ;
#865 = CARTESIAN_POINT ( 'NONE',  ( -0.0000000000000000000, 400.0000000000000000, -150.0000000000000000 ) ) ;
#866 = MANIFOLD_SOLID_BREP ( 'Ressalto-extrusão6', #798 ) ;
#867 = VECTOR ( 'NONE', #474, 1000.000000000000000 ) ;
#868 = CARTESIAN_POINT ( 'NONE',  ( 600.0000000000000000, 0.0000000000000000000, -150.0000000000000000 ) ) ;
#869 = ORIENTED_EDGE ( 'NONE', *, *, #835, .F. ) ;
#870 = ORIENTED_EDGE ( 'NONE', *, *, #735, .T. ) ;
#871 = FILL_AREA_STYLE_COLOUR ( '', #729 ) ;
#872 = DIRECTION ( 'NONE',  ( -1.000000000000000000, 0.0000000000000000000, 0.0000000000000000000 ) ) ;
#873 = ORIENTED_EDGE ( 'NONE', *, *, #126, .T. ) ;
#874 = CARTESIAN_POINT ( 'NONE',  ( 780.0000000000000000, 300.0000000000000000, -2.449293598294705800E-014 ) ) ;
#875 = DIRECTION ( 'NONE',  ( -0.0000000000000000000, 0.0000000000000000000, -1.000000000000000000 ) ) ;
#876 = LINE ( 'NONE', #57, #480 ) ;
#877 = ORIENTED_EDGE ( 'NONE', *, *, #446, .F. ) ;
#878 = AXIS2_PLACEMENT_3D ( 'NONE', #1036, #507, #936 ) ;
#879 = VECTOR ( 'NONE', #928, 1000.000000000000000 ) ;
#880 = DIRECTION ( 'NONE',  ( -1.000000000000000000, -6.123233995736778400E-017, 0.0000000000000000000 ) ) ;
#881 = CARTESIAN_POINT ( 'NONE',  ( -200.0000000000000000, -79.99999999999997200, 200.0000000000000000 ) ) ;
#882 = CARTESIAN_POINT ( 'NONE',  ( 300.0000000000000000, 6.123233995736757400E-015, -200.0000000000000000 ) ) ;
#883 = ORIENTED_EDGE ( 'NONE', *, *, #636, .T. ) ;
#884 = DIRECTION ( 'NONE',  ( 0.0000000000000000000, 0.0000000000000000000, 1.000000000000000000 ) ) ;
#885 = VECTOR ( 'NONE', #1047, 1000.000000000000000 ) ;
#886 = CARTESIAN_POINT ( 'NONE',  ( 0.0000000000000000000, 0.0000000000000000000, 0.0000000000000000000 ) ) ;
#887 = CARTESIAN_POINT ( 'NONE',  ( 780.0000000000000000, 300.0000000000000000, -50.00000000000002100 ) ) ;
#888 = EDGE_LOOP ( 'NONE', ( #245, #830, #650, #241 ) ) ;
#889 = DIRECTION ( 'NONE',  ( -0.0000000000000000000, -0.0000000000000000000, -1.000000000000000000 ) ) ;
#890 = LINE ( 'NONE', #675, #585 ) ;
#891 = EDGE_CURVE ( 'NONE', #99, #44, #129, .T. ) ;
#892 = AXIS2_PLACEMENT_3D ( 'NONE', #122, #730, #1102 ) ;
#893 = PLANE ( 'NONE',  #69 ) ;
#894 = PLANE ( 'NONE',  #679 ) ;
#895 = EDGE_LOOP ( 'NONE', ( #721, #482, #1016, #670 ) ) ;
#896 = MANIFOLD_SOLID_BREP ( 'Ressalto-extrusão4', #208 ) ;
#897 = ORIENTED_EDGE ( 'NONE', *, *, #914, .T. ) ;
#898 = LINE ( 'NONE', #287, #285 ) ;
#899 = CARTESIAN_POINT ( 'NONE',  ( 300.0000000000000000, -79.99999999999991500, 0.0000000000000000000 ) ) ;
#900 = EDGE_LOOP ( 'NONE', ( #849, #1032, #397, #803 ) ) ;
#901 = DIRECTION ( 'NONE',  ( 1.000000000000000000, 0.0000000000000000000, 0.0000000000000000000 ) ) ;
#902 = DIRECTION ( 'NONE',  ( 1.000000000000000000, 0.0000000000000000000, 0.0000000000000000000 ) ) ;
#903 = VECTOR ( 'NONE', #403, 1000.000000000000000 ) ;
#904 = FACE_OUTER_BOUND ( 'NONE', #991, .T. ) ;
#905 = EDGE_CURVE ( 'NONE', #311, #553, #498, .T. ) ;
#906 = ORIENTED_EDGE ( 'NONE', *, *, #1053, .T. ) ;
#907 = ORIENTED_EDGE ( 'NONE', *, *, #48, .F. ) ;
#908 = DIRECTION ( 'NONE',  ( -1.000000000000000000, -1.110223024625156500E-016, 0.0000000000000000000 ) ) ;
#909 =( GEOMETRIC_REPRESENTATION_CONTEXT ( 3 ) GLOBAL_UNCERTAINTY_ASSIGNED_CONTEXT ( ( #141 ) ) GLOBAL_UNIT_ASSIGNED_CONTEXT ( ( #162, #61, #343 ) ) REPRESENTATION_CONTEXT ( 'NONE', 'WORKASPACE' ) );
#910 = ORIENTED_EDGE ( 'NONE', *, *, #216, .T. ) ;
#911 = ORIENTED_EDGE ( 'NONE', *, *, #625, .F. ) ;
#912 = VECTOR ( 'NONE', #733, 1000.000000000000000 ) ;
#913 = LINE ( 'NONE', #206, #292 ) ;
#914 = EDGE_CURVE ( 'NONE', #319, #750, #214, .T. ) ;
#915 = SURFACE_SIDE_STYLE ('',( #818 ) ) ;
#916 = CIRCLE ( 'NONE', #812, 49.99999999999999300 ) ;
#917 = AXIS2_PLACEMENT_3D ( 'NONE', #851, #861, #60 ) ;
#918 = VECTOR ( 'NONE', #1058, 1000.000000000000000 ) ;
#919 =( NAMED_UNIT ( * ) PLANE_ANGLE_UNIT ( ) SI_UNIT ( $, .RADIAN. ) );
#920 = ADVANCED_FACE ( 'NONE', ( #87 ), #440, .F. ) ;
#921 = PLANE ( 'NONE',  #892 ) ;
#922 = ORIENTED_EDGE ( 'NONE', *, *, #1039, .F. ) ;
#923 = EDGE_LOOP ( 'NONE', ( #81, #666, #933, #649 ) ) ;
#924 = CARTESIAN_POINT ( 'NONE',  ( 8.881784197001246000E-015, -79.99999999999994300, 0.0000000000000000000 ) ) ;
#925 = ORIENTED_EDGE ( 'NONE', *, *, #65, .T. ) ;
#926 = DIRECTION ( 'NONE',  ( -0.0000000000000000000, -0.0000000000000000000, -1.000000000000000000 ) ) ;
#927 = ADVANCED_FACE ( 'NONE', ( #597 ), #616, .T. ) ;
#928 = DIRECTION ( 'NONE',  ( -1.000000000000000000, -2.041077998578920100E-017, 0.0000000000000000000 ) ) ;
#929 = CARTESIAN_POINT ( 'NONE',  ( -350.0000000000000600, 500.0000000000000000, -150.0000000000000000 ) ) ;
#930 = STYLED_ITEM ( 'NONE', ( #964 ), #90 ) ;
#931 = CARTESIAN_POINT ( 'NONE',  ( 300.0000000000000000, -79.99999999999991500, 200.0000000000000000 ) ) ;
#932 = AXIS2_PLACEMENT_3D ( 'NONE', #184, #521, #1042 ) ;
#933 = ORIENTED_EDGE ( 'NONE', *, *, #835, .T. ) ;
#934 = SURFACE_STYLE_USAGE ( .BOTH. , #255 ) ;
#935 = DIRECTION ( 'NONE',  ( 0.0000000000000000000, 1.000000000000000000, 0.0000000000000000000 ) ) ;
#936 = DIRECTION ( 'NONE',  ( 0.0000000000000000000, -0.0000000000000000000, 1.000000000000000000 ) ) ;
#937 = ORIENTED_EDGE ( 'NONE', *, *, #1022, .F. ) ;
#938 = DIRECTION ( 'NONE',  ( -1.000000000000000000, -6.123233995736779600E-017, 0.0000000000000000000 ) ) ;
#939 = CARTESIAN_POINT ( 'NONE',  ( 0.0000000000000000000, 400.0000000000000000, 150.0000000000000000 ) ) ;
#940 = CARTESIAN_POINT ( 'NONE',  ( 50.00000000000000000, 400.0000000000000000, 150.0000000000000000 ) ) ;
#941 = VECTOR ( 'NONE', #373, 1000.000000000000000 ) ;
#942 = CARTESIAN_POINT ( 'NONE',  ( 6.289557178068976300E-047, -3.081487911019577400E-030, -150.0000000000000000 ) ) ;
#943 = ADVANCED_FACE ( 'NONE', ( #706 ), #342, .F. ) ;
#944 = PLANE ( 'NONE',  #792 ) ;
#945 = AXIS2_PLACEMENT_3D ( 'NONE', #67, #505, #335 ) ;
#946 = MANIFOLD_SOLID_BREP ( 'Ressalto-extrusão1', #402 ) ;
#947 = CARTESIAN_POINT ( 'NONE',  ( -200.0000000000000000, -79.99999999999997200, -200.0000000000000000 ) ) ;
#948 = ORIENTED_EDGE ( 'NONE', *, *, #313, .F. ) ;
#949 = VECTOR ( 'NONE', #46, 1000.000000000000000 ) ;
#950 = EDGE_CURVE ( 'NONE', #146, #458, #1084, .T. ) ;
#951 = VERTEX_POINT ( 'NONE', #325 ) ;
#952 = VECTOR ( 'NONE', #431, 1000.000000000000000 ) ;
#953 = DIRECTION ( 'NONE',  ( 1.000000000000000000, 0.0000000000000000000, 0.0000000000000000000 ) ) ;
#954 =( NAMED_UNIT ( * ) PLANE_ANGLE_UNIT ( ) SI_UNIT ( $, .RADIAN. ) );
#955 = CARTESIAN_POINT ( 'NONE',  ( 800.0000000000000000, 2.449293705170335700E-014, 180.0000000000000300 ) ) ;
#956 = ORIENTED_EDGE ( 'NONE', *, *, #1094, .F. ) ;
#957 = CARTESIAN_POINT ( 'NONE',  ( -350.0000000000000600, 500.0000000000000000, 150.0000000000000000 ) ) ;
#958 = AXIS2_PLACEMENT_3D ( 'NONE', #145, #811, #755 ) ;
#959 = VECTOR ( 'NONE', #806, 1000.000000000000000 ) ;
#960 = DIRECTION ( 'NONE',  ( 0.0000000000000000000, 1.000000000000000000, -0.0000000000000000000 ) ) ;
#961 = LINE ( 'NONE', #21, #266 ) ;
#962 = ORIENTED_EDGE ( 'NONE', *, *, #723, .F. ) ;
#963 = CARTESIAN_POINT ( 'NONE',  ( 300.0000000000000000, 6.123233995736757400E-015, 0.0000000000000000000 ) ) ;
#964 = PRESENTATION_STYLE_ASSIGNMENT (( #770 ) ) ;
#965 = VECTOR ( 'NONE', #73, 1000.000000000000000 ) ;
#966 = CARTESIAN_POINT ( 'NONE',  ( 300.0000000000000000, 0.0000000000000000000, 200.0000000000000000 ) ) ;
#967 = EDGE_CURVE ( 'NONE', #218, #761, #993, .T. ) ;
#968 = CARTESIAN_POINT ( 'NONE',  ( 0.0000000000000000000, 400.0000000000000000, 150.0000000000000000 ) ) ;
#969 = LINE ( 'NONE', #550, #718 ) ;
#970 = EDGE_CURVE ( 'NONE', #361, #996, #115, .T. ) ;
#971 = PLANE ( 'NONE',  #1028 ) ;
#972 = ORIENTED_EDGE ( 'NONE', *, *, #512, .F. ) ;
#973 = LINE ( 'NONE', #719, #125 ) ;
#974 = PRESENTATION_LAYER_ASSIGNMENT (  '', '', ( #930 ) ) ;
#975 = CARTESIAN_POINT ( 'NONE',  ( 0.0000000000000000000, 500.0000000000000000, 150.0000000000000000 ) ) ;
#976 = CARTESIAN_POINT ( 'NONE',  ( 300.0000000000000000, -79.99999999999991500, 0.0000000000000000000 ) ) ;
#977 = FACE_OUTER_BOUND ( 'NONE', #821, .T. ) ;
#978 = DIRECTION ( 'NONE',  ( 0.0000000000000000000, 1.000000000000000000, -0.0000000000000000000 ) ) ;
#979 = DIRECTION ( 'NONE',  ( 1.000000000000000000, 0.0000000000000000000, 0.0000000000000000000 ) ) ;
#980 = FACE_OUTER_BOUND ( 'NONE', #895, .T. ) ;
#981 = ORIENTED_EDGE ( 'NONE', *, *, #687, .T. ) ;
#982 = STYLED_ITEM ( 'NONE', ( #793 ), #866 ) ;
#983 = CARTESIAN_POINT ( 'NONE',  ( 50.00000000000000000, 500.0000000000000000, 150.0000000000000000 ) ) ;
#984 = VERTEX_POINT ( 'NONE', #242 ) ;
#985 = ORIENTED_EDGE ( 'NONE', *, *, #731, .T. ) ;
#986 = PLANE ( 'NONE',  #532 ) ;
#987 = UNCERTAINTY_MEASURE_WITH_UNIT (LENGTH_MEASURE( 1.000000000000000100E-005 ), #147, 'distance_accuracy_value', 'NONE');
#988 = SURFACE_STYLE_FILL_AREA ( #855 ) ;
#989 = STYLED_ITEM ( 'NONE', ( #548 ), #1019 ) ;
#990 = LINE ( 'NONE', #470, #672 ) ;
#991 = EDGE_LOOP ( 'NONE', ( #290, #294, #341, #555 ) ) ;
#992 = LINE ( 'NONE', #416, #656 ) ;
#993 = LINE ( 'NONE', #606, #965 ) ;
#994 = CARTESIAN_POINT ( 'NONE',  ( -200.0000000000000000, -79.99999999999997200, -200.0000000000000000 ) ) ;
#995 = CARTESIAN_POINT ( 'NONE',  ( -349.9999999999997700, -1.942890293094022900E-013, 150.0000000000000000 ) ) ;
#996 = VERTEX_POINT ( 'NONE', #598 ) ;
#997 = AXIS2_PLACEMENT_3D ( 'NONE', #80, #773, #355 ) ;
#998 = MECHANICAL_DESIGN_GEOMETRIC_PRESENTATION_REPRESENTATION (  '', ( #1040 ), #96 ) ;
#999 = EDGE_CURVE ( 'NONE', #289, #709, #8, .T. ) ;
#1000 = DIRECTION ( 'NONE',  ( 1.000000000000000000, 2.775557561562891400E-017, 0.0000000000000000000 ) ) ;
#1001 = ORIENTED_EDGE ( 'NONE', *, *, #742, .T. ) ;
#1002 = ORIENTED_EDGE ( 'NONE', *, *, #950, .F. ) ;
#1003 = PLANE ( 'NONE',  #52 ) ;
#1004 = SURFACE_STYLE_FILL_AREA ( #1034 ) ;
#1005 = ADVANCED_FACE ( 'NONE', ( #268 ), #1110, .T. ) ;
#1006 = EDGE_LOOP ( 'NONE', ( #279, #985, #296, #1051 ) ) ;
#1007 = AXIS2_PLACEMENT_3D ( 'NONE', #304, #645, #210 ) ;
#1008 = ORIENTED_EDGE ( 'NONE', *, *, #32, .F. ) ;
#1009 = ADVANCED_FACE ( 'NONE', ( #614 ), #854, .F. ) ;
#1010 = VERTEX_POINT ( 'NONE', #759 ) ;
#1011 = LINE ( 'NONE', #1015, #912 ) ;
#1012 = VERTEX_POINT ( 'NONE', #243 ) ;
#1013 = DIRECTION ( 'NONE',  ( 2.775557561562891400E-017, -1.000000000000000000, 0.0000000000000000000 ) ) ;
#1014 =( GEOMETRIC_REPRESENTATION_CONTEXT ( 3 ) GLOBAL_UNCERTAINTY_ASSIGNED_CONTEXT ( ( #178 ) ) GLOBAL_UNIT_ASSIGNED_CONTEXT ( ( #230, #322, #691 ) ) REPRESENTATION_CONTEXT ( 'NONE', 'WORKASPACE' ) );
#1015 = CARTESIAN_POINT ( 'NONE',  ( 0.0000000000000000000, 0.0000000000000000000, -150.0000000000000000 ) ) ;
#1016 = ORIENTED_EDGE ( 'NONE', *, *, #337, .F. ) ;
#1017 = CIRCLE ( 'NONE', #945, 49.99999999999999300 ) ;
#1018 =( LENGTH_UNIT ( ) NAMED_UNIT ( * ) SI_UNIT ( .MILLI., .METRE. ) );
#1019 = ADVANCED_BREP_SHAPE_REPRESENTATION ( 'decoupling_cavity_complex', ( #946, #551, #896, #90, #866, #22, #1104, #490 ), #439 ) ;
#1020 = LINE ( 'NONE', #169, #326 ) ;
#1021 = DIRECTION ( 'NONE',  ( -0.0000000000000000000, -0.0000000000000000000, -1.000000000000000000 ) ) ;
#1022 = EDGE_CURVE ( 'NONE', #592, #17, #1097, .T. ) ;
#1023 = ORIENTED_EDGE ( 'NONE', *, *, #310, .T. ) ;
#1024 = PLANE ( 'NONE',  #153 ) ;
#1025 = LINE ( 'NONE', #457, #741 ) ;
#1026 = ADVANCED_FACE ( 'NONE', ( #1108 ), #767, .T. ) ;
#1027 = PLANE ( 'NONE',  #466 ) ;
#1028 = AXIS2_PLACEMENT_3D ( 'NONE', #188, #1061, #14 ) ;
#1029 = LINE ( 'NONE', #924, #1086 ) ;
#1030 = EDGE_CURVE ( 'NONE', #951, #1010, #1127, .T. ) ;
#1031 = CARTESIAN_POINT ( 'NONE',  ( -200.0000000000000000, 0.0000000000000000000, 200.0000000000000000 ) ) ;
#1032 = ORIENTED_EDGE ( 'NONE', *, *, #682, .F. ) ;
#1033 = CARTESIAN_POINT ( 'NONE',  ( 600.0000000000000000, 300.0000000000000000, -2.449293598294705800E-014 ) ) ;
#1034 = FILL_AREA_STYLE ('',( #62 ) ) ;
#1035 = FILL_AREA_STYLE_COLOUR ( '', #717 ) ;
#1036 = CARTESIAN_POINT ( 'NONE',  ( 0.0000000000000000000, 400.0000000000000000, 150.0000000000000000 ) ) ;
#1037 = EDGE_CURVE ( 'NONE', #406, #389, #187, .T. ) ;
#1038 = CARTESIAN_POINT ( 'NONE',  ( 800.0000000000000000, -79.99999999999990100, 180.0000000000000300 ) ) ;
#1039 = EDGE_CURVE ( 'NONE', #626, #220, #916, .T. ) ;
#1040 = STYLED_ITEM ( 'NONE', ( #204 ), #1104 ) ;
#1041 = FILL_AREA_STYLE_COLOUR ( '', #1098 ) ;
#1042 = DIRECTION ( 'NONE',  ( 0.0000000000000000000, 0.0000000000000000000, 1.000000000000000000 ) ) ;
#1043 = ORIENTED_EDGE ( 'NONE', *, *, #438, .F. ) ;
#1044 = CIRCLE ( 'NONE', #358, 49.99999999999999300 ) ;
#1045 = VERTEX_POINT ( 'NONE', #955 ) ;
#1046 = CARTESIAN_POINT ( 'NONE',  ( 0.0000000000000000000, 500.0000000000000000, 150.0000000000000000 ) ) ;
#1047 = DIRECTION ( 'NONE',  ( 0.0000000000000000000, -1.000000000000000000, 0.0000000000000000000 ) ) ;
#1048 =( NAMED_UNIT ( * ) SI_UNIT ( $, .STERADIAN. ) SOLID_ANGLE_UNIT ( ) );
#1049 = ORIENTED_EDGE ( 'NONE', *, *, #376, .F. ) ;
#1050 = ORIENTED_EDGE ( 'NONE', *, *, #424, .T. ) ;
#1051 = ORIENTED_EDGE ( 'NONE', *, *, #249, .T. ) ;
#1052 = DIRECTION ( 'NONE',  ( 1.000000000000000000, 0.0000000000000000000, 0.0000000000000000000 ) ) ;
#1053 = EDGE_CURVE ( 'NONE', #117, #319, #59, .T. ) ;
#1054 = LINE ( 'NONE', #383, #472 ) ;
#1055 = DIRECTION ( 'NONE',  ( 1.000000000000000000, 0.0000000000000000000, 0.0000000000000000000 ) ) ;
#1056 = CARTESIAN_POINT ( 'NONE',  ( 800.0000000000000000, 0.0000000000000000000, -180.0000000000000300 ) ) ;
#1057 = VECTOR ( 'NONE', #503, 1000.000000000000000 ) ;
#1058 = DIRECTION ( 'NONE',  ( 0.0000000000000000000, -1.000000000000000000, 0.0000000000000000000 ) ) ;
#1059 =( LENGTH_UNIT ( ) NAMED_UNIT ( * ) SI_UNIT ( .MILLI., .METRE. ) );
#1060 = ORIENTED_EDGE ( 'NONE', *, *, #1117, .T. ) ;
#1061 = DIRECTION ( 'NONE',  ( -0.0000000000000000000, 0.0000000000000000000, 1.000000000000000000 ) ) ;
#1062 = CARTESIAN_POINT ( 'NONE',  ( 800.0000000000000000, 2.449293705170335700E-014, 0.0000000000000000000 ) ) ;
#1063 = DIRECTION ( 'NONE',  ( -0.0000000000000000000, 0.0000000000000000000, 1.000000000000000000 ) ) ;
#1064 = ORIENTED_EDGE ( 'NONE', *, *, #514, .T. ) ;
#1065 = ORIENTED_EDGE ( 'NONE', *, *, #625, .T. ) ;
#1066 = AXIS2_PLACEMENT_3D ( 'NONE', #1033, #686, #590 ) ;
#1067 = VERTEX_POINT ( 'NONE', #278 ) ;
#1068 = FACE_OUTER_BOUND ( 'NONE', #699, .T. ) ;
#1069 = EDGE_LOOP ( 'NONE', ( #1001, #831, #1072, #395 ) ) ;
#1070 = CARTESIAN_POINT ( 'NONE',  ( 600.0000000000000000, 1.224646852585167900E-014, 150.0000000000000000 ) ) ;
#1071 = UNCERTAINTY_MEASURE_WITH_UNIT (LENGTH_MEASURE( 1.000000000000000100E-005 ), #429, 'distance_accuracy_value', 'NONE');
#1072 = ORIENTED_EDGE ( 'NONE', *, *, #967, .F. ) ;
#1073 = PRODUCT_DEFINITION ( 'UNKNOWN', '', #615, #594 ) ;
#1074 = LINE ( 'NONE', #1107, #618 ) ;
#1075 = CARTESIAN_POINT ( 'NONE',  ( 50.00000000000000000, 0.0000000000000000000, -150.0000000000000000 ) ) ;
#1076 = ADVANCED_FACE ( 'NONE', ( #68 ), #450, .F. ) ;
#1077 = ORIENTED_EDGE ( 'NONE', *, *, #24, .F. ) ;
#1078 = ORIENTED_EDGE ( 'NONE', *, *, #437, .T. ) ;
#1079 = CARTESIAN_POINT ( 'NONE',  ( -200.0000000000000000, 0.0000000000000000000, 200.0000000000000000 ) ) ;
#1080 = VECTOR ( 'NONE', #442, 1000.000000000000000 ) ;
#1081 = CLOSED_SHELL ( 'NONE', ( #1090, #254, #1026, #34 ) ) ;
#1082 = EDGE_CURVE ( 'NONE', #518, #406, #390, .T. ) ;
#1083 = CARTESIAN_POINT ( 'NONE',  ( 800.0000000000000000, 2.449293705170335700E-014, -180.0000000000000300 ) ) ;
#1084 = LINE ( 'NONE', #252, #805 ) ;
#1085 = CARTESIAN_POINT ( 'NONE',  ( 8.881784197001246000E-015, -79.99999999999994300, 0.0000000000000000000 ) ) ;
#1086 = VECTOR ( 'NONE', #577, 1000.000000000000000 ) ;
#1087 = DIRECTION ( 'NONE',  ( -5.551115123125783700E-016, 1.000000000000000000, 0.0000000000000000000 ) ) ;
#1088 = ORIENTED_EDGE ( 'NONE', *, *, #576, .F. ) ;
#1089 = ORIENTED_EDGE ( 'NONE', *, *, #143, .T. ) ;
#1090 = ADVANCED_FACE ( 'NONE', ( #463 ), #499, .T. ) ;
#1091 = ORIENTED_EDGE ( 'NONE', *, *, #842, .F. ) ;
#1092 = ADVANCED_FACE ( 'NONE', ( #131 ), #534, .F. ) ;
#1093 = EDGE_CURVE ( 'NONE', #229, #41, #515, .T. ) ;
#1094 = EDGE_CURVE ( 'NONE', #441, #229, #1029, .T. ) ;
#1095 = SURFACE_STYLE_FILL_AREA ( #575 ) ;
#1096 = APPLICATION_CONTEXT ( 'automotive_design' ) ;
#1097 = LINE ( 'NONE', #66, #879 ) ;
#1098 = COLOUR_RGB ( '',0.7921568627450980000, 0.8196078431372548800, 0.9333333333333333500 ) ;
#1099 =( NAMED_UNIT ( * ) SI_UNIT ( $, .STERADIAN. ) SOLID_ANGLE_UNIT ( ) );
#1100 = VECTOR ( 'NONE', #683, 1000.000000000000000 ) ;
#1101 = AXIS2_PLACEMENT_3D ( 'NONE', #582, #483, #407 ) ;
#1102 = DIRECTION ( 'NONE',  ( -0.0000000000000000000, 0.0000000000000000000, -1.000000000000000000 ) ) ;
#1103 = UNCERTAINTY_MEASURE_WITH_UNIT (LENGTH_MEASURE( 1.000000000000000100E-005 ), #1114, 'distance_accuracy_value', 'NONE');
#1104 = MANIFOLD_SOLID_BREP ( 'Ressalto-extrusão8', #1081 ) ;
#1105 = VECTOR ( 'NONE', #43, 1000.000000000000000 ) ;
#1106 = ORIENTED_EDGE ( 'NONE', *, *, #460, .F. ) ;
#1107 = CARTESIAN_POINT ( 'NONE',  ( 50.00000000000000000, 0.0000000000000000000, 150.0000000000000000 ) ) ;
#1108 = FACE_OUTER_BOUND ( 'NONE', #640, .T. ) ;
#1109 = AXIS2_PLACEMENT_3D ( 'NONE', #874, #702, #262 ) ;
#1110 = PLANE ( 'NONE',  #878 ) ;
#1111 = LINE ( 'NONE', #745, #846 ) ;
#1112 = DIRECTION ( 'NONE',  ( 1.000000000000000000, 6.123233995736779600E-017, 0.0000000000000000000 ) ) ;
#1113 = VECTOR ( 'NONE', #522, 1000.000000000000000 ) ;
#1114 =( LENGTH_UNIT ( ) NAMED_UNIT ( * ) SI_UNIT ( .MILLI., .METRE. ) );
#1115 = ADVANCED_FACE ( 'NONE', ( #23 ), #227, .F. ) ;
#1116 = VERTEX_POINT ( 'NONE', #664 ) ;
#1117 = EDGE_CURVE ( 'NONE', #578, #181, #1111, .T. ) ;
#1118 = FILL_AREA_STYLE_COLOUR ( '', #725 ) ;
#1119 = PLANE ( 'NONE',  #385 ) ;
#1120 = VERTEX_POINT ( 'NONE', #492 ) ;
#1121 = ORIENTED_EDGE ( 'NONE', *, *, #613, .F. ) ;
#1122 = FILL_AREA_STYLE_COLOUR ( '', #448 ) ;
#1123 = CARTESIAN_POINT ( 'NONE',  ( 0.0000000000000000000, 0.0000000000000000000, -150.0000000000000000 ) ) ;
#1124 =( NAMED_UNIT ( * ) PLANE_ANGLE_UNIT ( ) SI_UNIT ( $, .RADIAN. ) );
#1125 = CLOSED_SHELL ( 'NONE', ( #312, #427, #1092, #943, #1009, #844 ) ) ;
#1126 = CARTESIAN_POINT ( 'NONE',  ( 300.0000000000000000, 0.0000000000000000000, -180.0000000000000300 ) ) ;
#1127 = LINE ( 'NONE', #88, #817 ) ;
#1128 = AXIS2_PLACEMENT_3D ( 'NONE', #966, #623, #875 ) ;
#1129 = VECTOR ( 'NONE', #212, 1000.000000000000000 ) ;
#1130 = DIRECTION ( 'NONE',  ( 0.0000000000000000000, -0.0000000000000000000, -1.000000000000000000 ) ) ;
ENDSEC;
END-ISO-10303-21;
