ISO-10303-21;
HEADER;
FILE_DESCRIPTION (( 'STEP AP214' ),
    '1' );
FILE_NAME ('fluid_fsi_example.STEP',
    '2026-08-28T05:32:57',
    ( '' ),
    ( '' ),
    'SwSTEP 2.0',
    'SolidWorks 2015',
    '' );
FILE_SCHEMA (( 'AUTOMOTIVE_DESIGN' ));
ENDSEC;

DATA;
#1 =( LENGTH_UNIT ( ) NAMED_UNIT ( * ) SI_UNIT ( .MILLI., .METRE. ) );
#2 = AXIS2_PLACEMENT_3D ( 'NONE', #68, #134, #52 ) ;
#3 = FACE_OUTER_BOUND ( 'NONE', #5, .T. ) ;
#4 = CIRCLE ( 'NONE', #47, 148.9000000000000100 ) ;
#5 = EDGE_LOOP ( 'NONE', ( #140, #121, #17, #46 ) ) ;
#6 = CARTESIAN_POINT ( 'NONE',  ( 0.0000000000000000000, 0.0000000000000000000, 0.0000000000000000000 ) ) ;
#7 = DIRECTION ( 'NONE',  ( 0.0000000000000000000, 0.0000000000000000000, -1.000000000000000000 ) ) ;
#8 = DIRECTION ( 'NONE',  ( 0.0000000000000000000, 0.0000000000000000000, 1.000000000000000000 ) ) ;
#9 = PRESENTATION_STYLE_ASSIGNMENT (( #74 ) ) ;
#10 = VERTEX_POINT ( 'NONE', #49 ) ;
#11 = PRODUCT_DEFINITION_FORMATION_WITH_SPECIFIED_SOURCE ( 'ANY', '', #34, .NOT_KNOWN. ) ;
#12 = EDGE_LOOP ( 'NONE', ( #48, #24 ) ) ;
#13 = ADVANCED_FACE ( 'NONE', ( #3 ), #54, .T. ) ;
#14 = DIRECTION ( 'NONE',  ( 0.0000000000000000000, 0.0000000000000000000, 1.000000000000000000 ) ) ;
#15 = MANIFOLD_SOLID_BREP ( 'Ressalto-extrusão1', #132 ) ;
#16 = FILL_AREA_STYLE ('',( #122 ) ) ;
#17 = ORIENTED_EDGE ( 'NONE', *, *, #79, .T. ) ;
#18 = CARTESIAN_POINT ( 'NONE',  ( 0.0000000000000000000, 0.0000000000000000000, 0.0000000000000000000 ) ) ;
#19 = LINE ( 'NONE', #135, #89 ) ;
#20 = FILL_AREA_STYLE ('',( #80 ) ) ;
#21 = CARTESIAN_POINT ( 'NONE',  ( 1500.000000000000000, 0.0000000000000000000, 0.0000000000000000000 ) ) ;
#22 = PRODUCT_RELATED_PRODUCT_CATEGORY ( 'part', '', ( #34 ) ) ;
#23 = CARTESIAN_POINT ( 'NONE',  ( 1500.000000000000000, 1.823499083930408800E-014, -148.9000000000000100 ) ) ;
#24 = ORIENTED_EDGE ( 'NONE', *, *, #79, .F. ) ;
#25 = CIRCLE ( 'NONE', #45, 148.9000000000000100 ) ;
#26 = PRODUCT_DEFINITION_SHAPE ( 'NONE', 'NONE',  #112 ) ;
#27 = ORIENTED_EDGE ( 'NONE', *, *, #125, .T. ) ;
#28 = DIRECTION ( 'NONE',  ( 0.0000000000000000000, 0.0000000000000000000, -1.000000000000000000 ) ) ;
#29 = AXIS2_PLACEMENT_3D ( 'NONE', #116, #44, #43 ) ;
#30 = DIRECTION ( 'NONE',  ( 1.000000000000000000, -0.0000000000000000000, 0.0000000000000000000 ) ) ;
#31 = PRODUCT_CONTEXT ( 'NONE', #50, 'mechanical' ) ;
#32 = PRESENTATION_STYLE_ASSIGNMENT (( #87 ) ) ;
#33 = COLOUR_RGB ( '',0.7921568627450980000, 0.8196078431372548800, 0.9333333333333333500 ) ;
#34 = PRODUCT ( 'fluid_fsi_example', 'fluid_fsi_example', '', ( #31 ) ) ;
#35 = COLOUR_RGB ( '',0.3333333333333333100, 1.000000000000000000, 0.9372549019607843100 ) ;
#36 = PRESENTATION_LAYER_ASSIGNMENT (  '', '', ( #90 ) ) ;
#37 = SURFACE_SIDE_STYLE ('',( #40 ) ) ;
#38 = AXIS2_PLACEMENT_3D ( 'NONE', #103, #61, #92 ) ;
#39 = SHAPE_DEFINITION_REPRESENTATION ( #26, #72 ) ;
#40 = SURFACE_STYLE_FILL_AREA ( #16 ) ;
#41 = ORIENTED_EDGE ( 'NONE', *, *, #119, .T. ) ;
#42 = CARTESIAN_POINT ( 'NONE',  ( 1500.000000000000000, 0.0000000000000000000, 148.9000000000000100 ) ) ;
#43 = DIRECTION ( 'NONE',  ( 0.0000000000000000000, 0.0000000000000000000, -1.000000000000000000 ) ) ;
#44 = DIRECTION ( 'NONE',  ( 1.000000000000000000, -0.0000000000000000000, 0.0000000000000000000 ) ) ;
#45 = AXIS2_PLACEMENT_3D ( 'NONE', #21, #30, #75 ) ;
#46 = ORIENTED_EDGE ( 'NONE', *, *, #125, .F. ) ;
#47 = AXIS2_PLACEMENT_3D ( 'NONE', #88, #137, #28 ) ;
#48 = ORIENTED_EDGE ( 'NONE', *, *, #129, .F. ) ;
#49 = CARTESIAN_POINT ( 'NONE',  ( 0.0000000000000000000, 1.823499083930408800E-014, -148.9000000000000100 ) ) ;
#50 = APPLICATION_CONTEXT ( 'automotive_design' ) ;
#51 = CIRCLE ( 'NONE', #29, 148.9000000000000100 ) ;
#52 = DIRECTION ( 'NONE',  ( 0.0000000000000000000, 0.0000000000000000000, -1.000000000000000000 ) ) ;
#53 =( NAMED_UNIT ( * ) SI_UNIT ( $, .STERADIAN. ) SOLID_ANGLE_UNIT ( ) );
#54 = CYLINDRICAL_SURFACE ( 'NONE', #38, 148.9000000000000100 ) ;
#55 = ORIENTED_EDGE ( 'NONE', *, *, #129, .T. ) ;
#56 = AXIS2_PLACEMENT_3D ( 'NONE', #18, #106, #95 ) ;
#57 = VERTEX_POINT ( 'NONE', #131 ) ;
#58 = UNCERTAINTY_MEASURE_WITH_UNIT (LENGTH_MEASURE( 1.000000000000000100E-005 ), #115, 'distance_accuracy_value', 'NONE');
#59 = FACE_OUTER_BOUND ( 'NONE', #101, .T. ) ;
#60 = MECHANICAL_DESIGN_GEOMETRIC_PRESENTATION_REPRESENTATION (  '', ( #90 ), #71 ) ;
#61 = DIRECTION ( 'NONE',  ( -1.000000000000000000, -0.0000000000000000000, -0.0000000000000000000 ) ) ;
#62 = SURFACE_STYLE_FILL_AREA ( #20 ) ;
#63 = ADVANCED_FACE ( 'NONE', ( #128 ), #108, .T. ) ;
#64 = APPLICATION_PROTOCOL_DEFINITION ( 'draft international standard', 'automotive_design', 1998, #126 ) ;
#65 = FACE_OUTER_BOUND ( 'NONE', #12, .T. ) ;
#66 = DIRECTION ( 'NONE',  ( 1.000000000000000000, -0.0000000000000000000, 0.0000000000000000000 ) ) ;
#67 = APPLICATION_PROTOCOL_DEFINITION ( 'draft international standard', 'automotive_design', 1998, #50 ) ;
#68 = CARTESIAN_POINT ( 'NONE',  ( 1500.000000000000000, 0.0000000000000000000, 0.0000000000000000000 ) ) ;
#69 = AXIS2_PLACEMENT_3D ( 'NONE', #6, #66, #7 ) ;
#70 = ORIENTED_EDGE ( 'NONE', *, *, #83, .T. ) ;
#71 =( GEOMETRIC_REPRESENTATION_CONTEXT ( 3 ) GLOBAL_UNCERTAINTY_ASSIGNED_CONTEXT ( ( #85 ) ) GLOBAL_UNIT_ASSIGNED_CONTEXT ( ( #1, #94, #82 ) ) REPRESENTATION_CONTEXT ( 'NONE', 'WORKASPACE' ) );
#72 = ADVANCED_BREP_SHAPE_REPRESENTATION ( 'fluid_fsi_example', ( #15, #123 ), #98 ) ;
#73 = ORIENTED_EDGE ( 'NONE', *, *, #83, .F. ) ;
#74 = SURFACE_STYLE_USAGE ( .BOTH. , #37 ) ;
#75 = DIRECTION ( 'NONE',  ( 0.0000000000000000000, 0.0000000000000000000, -1.000000000000000000 ) ) ;
#76 = CARTESIAN_POINT ( 'NONE',  ( 0.0000000000000000000, 0.0000000000000000000, 0.0000000000000000000 ) ) ;
#77 = AXIS2_PLACEMENT_3D ( 'NONE', #124, #84, #14 ) ;
#78 =( LENGTH_UNIT ( ) NAMED_UNIT ( * ) SI_UNIT ( .MILLI., .METRE. ) );
#79 = EDGE_CURVE ( 'NONE', #10, #100, #102, .T. ) ;
#80 = FILL_AREA_STYLE_COLOUR ( '', #33 ) ;
#81 = STYLED_ITEM ( 'NONE', ( #32 ), #72 ) ;
#82 =( NAMED_UNIT ( * ) SI_UNIT ( $, .STERADIAN. ) SOLID_ANGLE_UNIT ( ) );
#83 = EDGE_CURVE ( 'NONE', #57, #139, #25, .T. ) ;
#84 = DIRECTION ( 'NONE',  ( -1.000000000000000000, -0.0000000000000000000, -0.0000000000000000000 ) ) ;
#85 = UNCERTAINTY_MEASURE_WITH_UNIT (LENGTH_MEASURE( 1.000000000000000100E-005 ), #1, 'distance_accuracy_value', 'NONE');
#86 = PLANE ( 'NONE',  #56 ) ;
#87 = SURFACE_STYLE_USAGE ( .BOTH. , #127 ) ;
#88 = CARTESIAN_POINT ( 'NONE',  ( 1500.000000000000000, 0.0000000000000000000, 0.0000000000000000000 ) ) ;
#89 = VECTOR ( 'NONE', #118, 1000.000000000000000 ) ;
#90 = STYLED_ITEM ( 'NONE', ( #9 ), #15 ) ;
#91 = EDGE_CURVE ( 'NONE', #139, #10, #19, .T. ) ;
#92 = DIRECTION ( 'NONE',  ( 0.0000000000000000000, 0.0000000000000000000, 1.000000000000000000 ) ) ;
#93 = MECHANICAL_DESIGN_GEOMETRIC_PRESENTATION_REPRESENTATION (  '', ( #81 ), #104 ) ;
#94 =( NAMED_UNIT ( * ) PLANE_ANGLE_UNIT ( ) SI_UNIT ( $, .RADIAN. ) );
#95 = DIRECTION ( 'NONE',  ( 0.0000000000000000000, 0.0000000000000000000, -1.000000000000000000 ) ) ;
#96 = EDGE_LOOP ( 'NONE', ( #105, #73, #27, #55 ) ) ;
#97 = DIRECTION ( 'NONE',  ( -1.000000000000000000, -0.0000000000000000000, -0.0000000000000000000 ) ) ;
#98 =( GEOMETRIC_REPRESENTATION_CONTEXT ( 3 ) GLOBAL_UNCERTAINTY_ASSIGNED_CONTEXT ( ( #111 ) ) GLOBAL_UNIT_ASSIGNED_CONTEXT ( ( #78, #117, #53 ) ) REPRESENTATION_CONTEXT ( 'NONE', 'WORKASPACE' ) );
#99 =( NAMED_UNIT ( * ) PLANE_ANGLE_UNIT ( ) SI_UNIT ( $, .RADIAN. ) );
#100 = VERTEX_POINT ( 'NONE', #109 ) ;
#101 = EDGE_LOOP ( 'NONE', ( #70, #41 ) ) ;
#102 = CIRCLE ( 'NONE', #69, 148.9000000000000100 ) ;
#103 = CARTESIAN_POINT ( 'NONE',  ( 1500.000000000000000, 0.0000000000000000000, 0.0000000000000000000 ) ) ;
#104 =( GEOMETRIC_REPRESENTATION_CONTEXT ( 3 ) GLOBAL_UNCERTAINTY_ASSIGNED_CONTEXT ( ( #58 ) ) GLOBAL_UNIT_ASSIGNED_CONTEXT ( ( #115, #99, #136 ) ) REPRESENTATION_CONTEXT ( 'NONE', 'WORKASPACE' ) );
#105 = ORIENTED_EDGE ( 'NONE', *, *, #91, .F. ) ;
#106 = DIRECTION ( 'NONE',  ( 1.000000000000000000, -0.0000000000000000000, 0.0000000000000000000 ) ) ;
#107 = PLANE ( 'NONE',  #2 ) ;
#108 = CYLINDRICAL_SURFACE ( 'NONE', #77, 148.9000000000000100 ) ;
#109 = CARTESIAN_POINT ( 'NONE',  ( 0.0000000000000000000, 0.0000000000000000000, 148.9000000000000100 ) ) ;
#110 = PRESENTATION_LAYER_ASSIGNMENT (  '', '', ( #81 ) ) ;
#111 = UNCERTAINTY_MEASURE_WITH_UNIT (LENGTH_MEASURE( 1.000000000000000100E-005 ), #78, 'distance_accuracy_value', 'NONE');
#112 = PRODUCT_DEFINITION ( 'UNKNOWN', '', #11, #133 ) ;
#113 = VECTOR ( 'NONE', #97, 1000.000000000000000 ) ;
#114 = ADVANCED_FACE ( 'NONE', ( #65 ), #86, .F. ) ;
#115 =( LENGTH_UNIT ( ) NAMED_UNIT ( * ) SI_UNIT ( .MILLI., .METRE. ) );
#116 = CARTESIAN_POINT ( 'NONE',  ( 0.0000000000000000000, 0.0000000000000000000, 0.0000000000000000000 ) ) ;
#117 =( NAMED_UNIT ( * ) PLANE_ANGLE_UNIT ( ) SI_UNIT ( $, .RADIAN. ) );
#118 = DIRECTION ( 'NONE',  ( -1.000000000000000000, -0.0000000000000000000, -0.0000000000000000000 ) ) ;
#119 = EDGE_CURVE ( 'NONE', #139, #57, #4, .T. ) ;
#120 = LINE ( 'NONE', #42, #113 ) ;
#121 = ORIENTED_EDGE ( 'NONE', *, *, #91, .T. ) ;
#122 = FILL_AREA_STYLE_COLOUR ( '', #35 ) ;
#123 = AXIS2_PLACEMENT_3D ( 'NONE', #76, #8, #138 ) ;
#124 = CARTESIAN_POINT ( 'NONE',  ( 1500.000000000000000, 0.0000000000000000000, 0.0000000000000000000 ) ) ;
#125 = EDGE_CURVE ( 'NONE', #57, #100, #120, .T. ) ;
#126 = APPLICATION_CONTEXT ( 'automotive_design' ) ;
#127 = SURFACE_SIDE_STYLE ('',( #62 ) ) ;
#128 = FACE_OUTER_BOUND ( 'NONE', #96, .T. ) ;
#129 = EDGE_CURVE ( 'NONE', #100, #10, #51, .T. ) ;
#130 = ADVANCED_FACE ( 'NONE', ( #59 ), #107, .T. ) ;
#131 = CARTESIAN_POINT ( 'NONE',  ( 1500.000000000000000, 0.0000000000000000000, 148.9000000000000100 ) ) ;
#132 = CLOSED_SHELL ( 'NONE', ( #13, #63, #130, #114 ) ) ;
#133 = PRODUCT_DEFINITION_CONTEXT ( 'detailed design', #126, 'design' ) ;
#134 = DIRECTION ( 'NONE',  ( 1.000000000000000000, -0.0000000000000000000, 0.0000000000000000000 ) ) ;
#135 = CARTESIAN_POINT ( 'NONE',  ( 1500.000000000000000, 1.823499083930408800E-014, -148.9000000000000100 ) ) ;
#136 =( NAMED_UNIT ( * ) SI_UNIT ( $, .STERADIAN. ) SOLID_ANGLE_UNIT ( ) );
#137 = DIRECTION ( 'NONE',  ( 1.000000000000000000, -0.0000000000000000000, 0.0000000000000000000 ) ) ;
#138 = DIRECTION ( 'NONE',  ( 1.000000000000000000, 0.0000000000000000000, 0.0000000000000000000 ) ) ;
#139 = VERTEX_POINT ( 'NONE', #23 ) ;
#140 = ORIENTED_EDGE ( 'NONE', *, *, #119, .F. ) ;
ENDSEC;
END-ISO-10303-21;
