ISO-10303-21;
HEADER;
FILE_DESCRIPTION (( 'STEP AP214' ),
    '1' );
FILE_NAME ('fluid_and_pipe_fsi_example.STEP',
    '2026-08-28T05:34:30',
    ( '' ),
    ( '' ),
    'SwSTEP 2.0',
    'SolidWorks 2015',
    '' );
FILE_SCHEMA (( 'AUTOMOTIVE_DESIGN' ));
ENDSEC;

DATA;
#1 = DIRECTION ( 'NONE',  ( 0.0000000000000000000, 0.0000000000000000000, -1.000000000000000000 ) ) ;
#2 = CARTESIAN_POINT ( 'NONE',  ( 0.0000000000000000000, 0.0000000000000000000, 0.0000000000000000000 ) ) ;
#3 = ORIENTED_EDGE ( 'NONE', *, *, #234, .T. ) ;
#4 = DIRECTION ( 'NONE',  ( -1.000000000000000000, -0.0000000000000000000, -0.0000000000000000000 ) ) ;
#5 = DIRECTION ( 'NONE',  ( 0.0000000000000000000, 0.0000000000000000000, 1.000000000000000000 ) ) ;
#6 = CIRCLE ( 'NONE', #72, 148.9000000000000100 ) ;
#7 = EDGE_LOOP ( 'NONE', ( #120, #278, #166, #210 ) ) ;
#8 = ORIENTED_EDGE ( 'NONE', *, *, #146, .F. ) ;
#9 = DIRECTION ( 'NONE',  ( 1.000000000000000000, -0.0000000000000000000, 0.0000000000000000000 ) ) ;
#10 =( NAMED_UNIT ( * ) SI_UNIT ( $, .STERADIAN. ) SOLID_ANGLE_UNIT ( ) );
#11 = CARTESIAN_POINT ( 'NONE',  ( 1500.000000000000500, 0.0000000000000000000, 0.0000000000000000000 ) ) ;
#12 = CIRCLE ( 'NONE', #230, 161.6000000000000200 ) ;
#13 = DIRECTION ( 'NONE',  ( 1.000000000000000000, 0.0000000000000000000, 0.0000000000000000000 ) ) ;
#14 = LINE ( 'NONE', #221, #107 ) ;
#15 = VERTEX_POINT ( 'NONE', #226 ) ;
#16 = MECHANICAL_DESIGN_GEOMETRIC_PRESENTATION_REPRESENTATION (  '', ( #170 ), #19 ) ;
#17 = ADVANCED_FACE ( 'NONE', ( #43 ), #186, .T. ) ;
#18 = MANIFOLD_SOLID_BREP ( 'Ressalto-extrusão2', #279 ) ;
#19 =( GEOMETRIC_REPRESENTATION_CONTEXT ( 3 ) GLOBAL_UNCERTAINTY_ASSIGNED_CONTEXT ( ( #25 ) ) GLOBAL_UNIT_ASSIGNED_CONTEXT ( ( #59, #79, #10 ) ) REPRESENTATION_CONTEXT ( 'NONE', 'WORKASPACE' ) );
#20 = ORIENTED_EDGE ( 'NONE', *, *, #300, .F. ) ;
#21 = AXIS2_PLACEMENT_3D ( 'NONE', #237, #61, #213 ) ;
#22 = SURFACE_STYLE_USAGE ( .BOTH. , #78 ) ;
#23 = VERTEX_POINT ( 'NONE', #188 ) ;
#24 = DIRECTION ( 'NONE',  ( 1.000000000000000000, 0.0000000000000000000, 0.0000000000000000000 ) ) ;
#25 = UNCERTAINTY_MEASURE_WITH_UNIT (LENGTH_MEASURE( 1.000000000000000100E-005 ), #59, 'distance_accuracy_value', 'NONE');
#26 = ORIENTED_EDGE ( 'NONE', *, *, #296, .T. ) ;
#27 = DIRECTION ( 'NONE',  ( 0.0000000000000000000, 0.0000000000000000000, 1.000000000000000000 ) ) ;
#28 = DIRECTION ( 'NONE',  ( 0.0000000000000000000, 0.0000000000000000000, -1.000000000000000000 ) ) ;
#29 =( NAMED_UNIT ( * ) SI_UNIT ( $, .STERADIAN. ) SOLID_ANGLE_UNIT ( ) );
#30 = EDGE_CURVE ( 'NONE', #118, #198, #236, .T. ) ;
#31 = EDGE_LOOP ( 'NONE', ( #169, #119, #308, #97 ) ) ;
#32 = DIRECTION ( 'NONE',  ( 0.0000000000000000000, 0.0000000000000000000, -1.000000000000000000 ) ) ;
#33 = EDGE_CURVE ( 'NONE', #198, #118, #150, .T. ) ;
#34 = DIRECTION ( 'NONE',  ( -1.000000000000000000, -0.0000000000000000000, -0.0000000000000000000 ) ) ;
#35 = FACE_OUTER_BOUND ( 'NONE', #7, .T. ) ;
#36 = ORIENTED_EDGE ( 'NONE', *, *, #277, .F. ) ;
#37 = DIRECTION ( 'NONE',  ( 1.000000000000000000, 0.0000000000000000000, 0.0000000000000000000 ) ) ;
#38 = ORIENTED_EDGE ( 'NONE', *, *, #172, .F. ) ;
#39 = MECHANICAL_DESIGN_GEOMETRIC_PRESENTATION_REPRESENTATION (  '', ( #113 ), #60 ) ;
#40 = UNCERTAINTY_MEASURE_WITH_UNIT (LENGTH_MEASURE( 1.000000000000000100E-005 ), #200, 'distance_accuracy_value', 'NONE');
#41 = ADVANCED_FACE ( 'NONE', ( #58 ), #301, .F. ) ;
#42 = FACE_BOUND ( 'NONE', #144, .T. ) ;
#43 = FACE_OUTER_BOUND ( 'NONE', #139, .T. ) ;
#44 = AXIS2_PLACEMENT_3D ( 'NONE', #232, #34, #262 ) ;
#45 = ORIENTED_EDGE ( 'NONE', *, *, #270, .F. ) ;
#46 = PLANE ( 'NONE',  #89 ) ;
#47 = EDGE_CURVE ( 'NONE', #295, #309, #161, .T. ) ;
#48 = CARTESIAN_POINT ( 'NONE',  ( 0.0000000000000000000, 0.0000000000000000000, 0.0000000000000000000 ) ) ;
#49 = CARTESIAN_POINT ( 'NONE',  ( 1500.000000000000500, 0.0000000000000000000, 161.6000000000000200 ) ) ;
#50 = MECHANICAL_DESIGN_GEOMETRIC_PRESENTATION_REPRESENTATION (  '', ( #284 ), #99 ) ;
#51 = CARTESIAN_POINT ( 'NONE',  ( 1500.000000000000500, 1.979029227422122900E-014, -161.6000000000000200 ) ) ;
#52 = CYLINDRICAL_SURFACE ( 'NONE', #21, 161.6000000000000200 ) ;
#53 = PRODUCT_DEFINITION_SHAPE ( 'NONE', 'NONE',  #151 ) ;
#54 = CARTESIAN_POINT ( 'NONE',  ( 1500.000000000000500, 0.0000000000000000000, 161.6000000000000200 ) ) ;
#55 = DIRECTION ( 'NONE',  ( 0.0000000000000000000, 0.0000000000000000000, -1.000000000000000000 ) ) ;
#56 = ADVANCED_BREP_SHAPE_REPRESENTATION ( 'fluid_and_pipe_fsi_example', ( #205, #18, #136 ), #314 ) ;
#57 = DIRECTION ( 'NONE',  ( 0.0000000000000000000, 0.0000000000000000000, -1.000000000000000000 ) ) ;
#58 = FACE_OUTER_BOUND ( 'NONE', #129, .T. ) ;
#59 =( LENGTH_UNIT ( ) NAMED_UNIT ( * ) SI_UNIT ( .MILLI., .METRE. ) );
#60 =( GEOMETRIC_REPRESENTATION_CONTEXT ( 3 ) GLOBAL_UNCERTAINTY_ASSIGNED_CONTEXT ( ( #40 ) ) GLOBAL_UNIT_ASSIGNED_CONTEXT ( ( #200, #176, #125 ) ) REPRESENTATION_CONTEXT ( 'NONE', 'WORKASPACE' ) );
#61 = DIRECTION ( 'NONE',  ( -1.000000000000000000, -0.0000000000000000000, -0.0000000000000000000 ) ) ;
#62 = CIRCLE ( 'NONE', #64, 148.9000000000000100 ) ;
#63 = ORIENTED_EDGE ( 'NONE', *, *, #248, .T. ) ;
#64 = AXIS2_PLACEMENT_3D ( 'NONE', #274, #153, #100 ) ;
#65 = ADVANCED_FACE ( 'NONE', ( #220 ), #273, .T. ) ;
#66 = VECTOR ( 'NONE', #4, 1000.000000000000000 ) ;
#67 = ORIENTED_EDGE ( 'NONE', *, *, #172, .T. ) ;
#68 = AXIS2_PLACEMENT_3D ( 'NONE', #109, #184, #183 ) ;
#69 = PRESENTATION_STYLE_ASSIGNMENT (( #271 ) ) ;
#70 = ORIENTED_EDGE ( 'NONE', *, *, #121, .T. ) ;
#71 = CARTESIAN_POINT ( 'NONE',  ( 0.0000000000000000000, 0.0000000000000000000, 0.0000000000000000000 ) ) ;
#72 = AXIS2_PLACEMENT_3D ( 'NONE', #164, #86, #28 ) ;
#73 = DIRECTION ( 'NONE',  ( -1.000000000000000000, -0.0000000000000000000, -0.0000000000000000000 ) ) ;
#74 = LINE ( 'NONE', #49, #149 ) ;
#75 = CARTESIAN_POINT ( 'NONE',  ( 0.0000000000000000000, 0.0000000000000000000, 0.0000000000000000000 ) ) ;
#76 = EDGE_CURVE ( 'NONE', #23, #295, #96, .T. ) ;
#77 = CARTESIAN_POINT ( 'NONE',  ( 0.0000000000000000000, 1.979029227422122900E-014, -161.6000000000000200 ) ) ;
#78 = SURFACE_SIDE_STYLE ('',( #235 ) ) ;
#79 =( NAMED_UNIT ( * ) PLANE_ANGLE_UNIT ( ) SI_UNIT ( $, .RADIAN. ) );
#80 = CIRCLE ( 'NONE', #175, 148.9000000000000100 ) ;
#81 = PRESENTATION_LAYER_ASSIGNMENT (  '', '', ( #284 ) ) ;
#82 = UNCERTAINTY_MEASURE_WITH_UNIT (LENGTH_MEASURE( 1.000000000000000100E-005 ), #204, 'distance_accuracy_value', 'NONE');
#83 = CARTESIAN_POINT ( 'NONE',  ( 1500.000000000000000, 0.0000000000000000000, 0.0000000000000000000 ) ) ;
#84 = DIRECTION ( 'NONE',  ( 1.000000000000000000, -0.0000000000000000000, 0.0000000000000000000 ) ) ;
#85 = FACE_OUTER_BOUND ( 'NONE', #290, .T. ) ;
#86 = DIRECTION ( 'NONE',  ( 1.000000000000000000, -0.0000000000000000000, 0.0000000000000000000 ) ) ;
#87 = VERTEX_POINT ( 'NONE', #260 ) ;
#88 = CARTESIAN_POINT ( 'NONE',  ( 1500.000000000000000, 0.0000000000000000000, 148.9000000000000100 ) ) ;
#89 = AXIS2_PLACEMENT_3D ( 'NONE', #103, #24, #174 ) ;
#90 = PRODUCT ( 'fluid_and_pipe_fsi_example', 'fluid_and_pipe_fsi_example', '', ( #130 ) ) ;
#91 = DIRECTION ( 'NONE',  ( -1.000000000000000000, -0.0000000000000000000, -0.0000000000000000000 ) ) ;
#92 = SURFACE_STYLE_FILL_AREA ( #110 ) ;
#93 = ORIENTED_EDGE ( 'NONE', *, *, #259, .T. ) ;
#94 = AXIS2_PLACEMENT_3D ( 'NONE', #225, #293, #127 ) ;
#95 = ORIENTED_EDGE ( 'NONE', *, *, #234, .F. ) ;
#96 = CIRCLE ( 'NONE', #280, 148.9000000000000100 ) ;
#97 = ORIENTED_EDGE ( 'NONE', *, *, #300, .T. ) ;
#98 = ORIENTED_EDGE ( 'NONE', *, *, #244, .F. ) ;
#99 =( GEOMETRIC_REPRESENTATION_CONTEXT ( 3 ) GLOBAL_UNCERTAINTY_ASSIGNED_CONTEXT ( ( #82 ) ) GLOBAL_UNIT_ASSIGNED_CONTEXT ( ( #204, #252, #29 ) ) REPRESENTATION_CONTEXT ( 'NONE', 'WORKASPACE' ) );
#100 = DIRECTION ( 'NONE',  ( 0.0000000000000000000, 0.0000000000000000000, -1.000000000000000000 ) ) ;
#101 = DIRECTION ( 'NONE',  ( 1.000000000000000000, 0.0000000000000000000, 0.0000000000000000000 ) ) ;
#102 = VERTEX_POINT ( 'NONE', #190 ) ;
#103 = CARTESIAN_POINT ( 'NONE',  ( 0.0000000000000000000, 0.0000000000000000000, 0.0000000000000000000 ) ) ;
#104 = DIRECTION ( 'NONE',  ( 0.0000000000000000000, 0.0000000000000000000, -1.000000000000000000 ) ) ;
#105 = AXIS2_PLACEMENT_3D ( 'NONE', #2, #224, #104 ) ;
#106 = CARTESIAN_POINT ( 'NONE',  ( 0.0000000000000000000, 0.0000000000000000000, 148.9000000000000100 ) ) ;
#107 = VECTOR ( 'NONE', #179, 1000.000000000000000 ) ;
#108 = APPLICATION_CONTEXT ( 'automotive_design' ) ;
#109 = CARTESIAN_POINT ( 'NONE',  ( 1500.000000000000000, 0.0000000000000000000, 0.0000000000000000000 ) ) ;
#110 = FILL_AREA_STYLE ('',( #250 ) ) ;
#111 = PRESENTATION_STYLE_ASSIGNMENT (( #228 ) ) ;
#112 = CARTESIAN_POINT ( 'NONE',  ( 1500.000000000000500, 1.823499083930408800E-014, -148.9000000000000100 ) ) ;
#113 = STYLED_ITEM ( 'NONE', ( #132 ), #205 ) ;
#114 = CARTESIAN_POINT ( 'NONE',  ( 1500.000000000000500, 0.0000000000000000000, 0.0000000000000000000 ) ) ;
#115 = DIRECTION ( 'NONE',  ( -1.000000000000000000, -0.0000000000000000000, -0.0000000000000000000 ) ) ;
#116 = COLOUR_RGB ( '',0.7921568627450980000, 0.8196078431372548800, 0.9333333333333333500 ) ;
#117 = DIRECTION ( 'NONE',  ( 0.0000000000000000000, 0.0000000000000000000, -1.000000000000000000 ) ) ;
#118 = VERTEX_POINT ( 'NONE', #88 ) ;
#119 = ORIENTED_EDGE ( 'NONE', *, *, #30, .F. ) ;
#120 = ORIENTED_EDGE ( 'NONE', *, *, #76, .T. ) ;
#121 = EDGE_CURVE ( 'NONE', #15, #309, #165, .T. ) ;
#122 = ADVANCED_FACE ( 'NONE', ( #148 ), #264, .T. ) ;
#123 = SHAPE_DEFINITION_REPRESENTATION ( #53, #56 ) ;
#124 = EDGE_LOOP ( 'NONE', ( #218, #158, #191, #98 ) ) ;
#125 =( NAMED_UNIT ( * ) SI_UNIT ( $, .STERADIAN. ) SOLID_ANGLE_UNIT ( ) );
#126 = PRESENTATION_LAYER_ASSIGNMENT (  '', '', ( #113 ) ) ;
#127 = DIRECTION ( 'NONE',  ( 0.0000000000000000000, 0.0000000000000000000, -1.000000000000000000 ) ) ;
#128 = LINE ( 'NONE', #155, #269 ) ;
#129 = EDGE_LOOP ( 'NONE', ( #20, #36 ) ) ;
#130 = PRODUCT_CONTEXT ( 'NONE', #108, 'mechanical' ) ;
#131 = FILL_AREA_STYLE_COLOUR ( '', #171 ) ;
#132 = PRESENTATION_STYLE_ASSIGNMENT (( #22 ) ) ;
#133 = CARTESIAN_POINT ( 'NONE',  ( 0.0000000000000000000, 1.823499083930408800E-014, -148.9000000000000100 ) ) ;
#134 = ORIENTED_EDGE ( 'NONE', *, *, #47, .F. ) ;
#135 = SURFACE_SIDE_STYLE ('',( #215 ) ) ;
#136 = AXIS2_PLACEMENT_3D ( 'NONE', #299, #159, #37 ) ;
#137 = DIRECTION ( 'NONE',  ( -1.000000000000000000, -0.0000000000000000000, -0.0000000000000000000 ) ) ;
#138 = FACE_OUTER_BOUND ( 'NONE', #178, .T. ) ;
#139 = EDGE_LOOP ( 'NONE', ( #95, #8, #227, #63 ) ) ;
#140 = CARTESIAN_POINT ( 'NONE',  ( 1500.000000000000500, 1.823499083930408800E-014, -148.9000000000000100 ) ) ;
#141 = AXIS2_PLACEMENT_3D ( 'NONE', #48, #208, #55 ) ;
#142 = CARTESIAN_POINT ( 'NONE',  ( 0.0000000000000000000, 0.0000000000000000000, 0.0000000000000000000 ) ) ;
#143 = ADVANCED_FACE ( 'NONE', ( #197 ), #52, .T. ) ;
#144 = EDGE_LOOP ( 'NONE', ( #70, #67 ) ) ;
#145 = ADVANCED_FACE ( 'NONE', ( #315 ), #294, .F. ) ;
#146 = EDGE_CURVE ( 'NONE', #265, #247, #214, .T. ) ;
#147 = ADVANCED_FACE ( 'NONE', ( #138, #253 ), #258, .T. ) ;
#148 = FACE_OUTER_BOUND ( 'NONE', #124, .T. ) ;
#149 = VECTOR ( 'NONE', #317, 1000.000000000000000 ) ;
#150 = CIRCLE ( 'NONE', #238, 148.9000000000000100 ) ;
#151 = PRODUCT_DEFINITION ( 'UNKNOWN', '', #167, #281 ) ;
#152 = DIRECTION ( 'NONE',  ( 0.0000000000000000000, 0.0000000000000000000, -1.000000000000000000 ) ) ;
#153 = DIRECTION ( 'NONE',  ( 1.000000000000000000, 0.0000000000000000000, 0.0000000000000000000 ) ) ;
#154 = COLOUR_RGB ( '',0.3333333333333333100, 1.000000000000000000, 0.9372549019607843100 ) ;
#155 = CARTESIAN_POINT ( 'NONE',  ( 1500.000000000000500, 1.979029227422122900E-014, -161.6000000000000200 ) ) ;
#156 = DIRECTION ( 'NONE',  ( 1.000000000000000000, 0.0000000000000000000, 0.0000000000000000000 ) ) ;
#157 = ORIENTED_EDGE ( 'NONE', *, *, #146, .T. ) ;
#158 = ORIENTED_EDGE ( 'NONE', *, *, #222, .T. ) ;
#159 = DIRECTION ( 'NONE',  ( 0.0000000000000000000, 0.0000000000000000000, 1.000000000000000000 ) ) ;
#160 = DIRECTION ( 'NONE',  ( -1.000000000000000000, -0.0000000000000000000, -0.0000000000000000000 ) ) ;
#161 = LINE ( 'NONE', #140, #275 ) ;
#162 = ORIENTED_EDGE ( 'NONE', *, *, #30, .T. ) ;
#163 = DIRECTION ( 'NONE',  ( 0.0000000000000000000, 0.0000000000000000000, 1.000000000000000000 ) ) ;
#164 = CARTESIAN_POINT ( 'NONE',  ( 0.0000000000000000000, 0.0000000000000000000, 0.0000000000000000000 ) ) ;
#165 = CIRCLE ( 'NONE', #310, 148.9000000000000100 ) ;
#166 = ORIENTED_EDGE ( 'NONE', *, *, #121, .F. ) ;
#167 = PRODUCT_DEFINITION_FORMATION_WITH_SPECIFIED_SOURCE ( 'ANY', '', #90, .NOT_KNOWN. ) ;
#168 = ADVANCED_FACE ( 'NONE', ( #85, #42 ), #46, .F. ) ;
#169 = ORIENTED_EDGE ( 'NONE', *, *, #222, .F. ) ;
#170 = STYLED_ITEM ( 'NONE', ( #111 ), #18 ) ;
#171 = COLOUR_RGB ( '',0.6509803921568627600, 0.6196078431372549200, 0.5882352941176470800 ) ;
#172 = EDGE_CURVE ( 'NONE', #309, #15, #80, .T. ) ;
#173 = EDGE_LOOP ( 'NONE', ( #45, #3, #254, #312 ) ) ;
#174 = DIRECTION ( 'NONE',  ( 0.0000000000000000000, 0.0000000000000000000, -1.000000000000000000 ) ) ;
#175 = AXIS2_PLACEMENT_3D ( 'NONE', #71, #101, #207 ) ;
#176 =( NAMED_UNIT ( * ) PLANE_ANGLE_UNIT ( ) SI_UNIT ( $, .RADIAN. ) );
#177 = FILL_AREA_STYLE ('',( #246 ) ) ;
#178 = EDGE_LOOP ( 'NONE', ( #157, #196 ) ) ;
#179 = DIRECTION ( 'NONE',  ( -1.000000000000000000, -0.0000000000000000000, -0.0000000000000000000 ) ) ;
#180 = APPLICATION_PROTOCOL_DEFINITION ( 'draft international standard', 'automotive_design', 1998, #108 ) ;
#181 = FILL_AREA_STYLE ('',( #131 ) ) ;
#182 = DIRECTION ( 'NONE',  ( -1.000000000000000000, -0.0000000000000000000, -0.0000000000000000000 ) ) ;
#183 = DIRECTION ( 'NONE',  ( 0.0000000000000000000, 0.0000000000000000000, -1.000000000000000000 ) ) ;
#184 = DIRECTION ( 'NONE',  ( 1.000000000000000000, -0.0000000000000000000, 0.0000000000000000000 ) ) ;
#185 = PRODUCT_RELATED_PRODUCT_CATEGORY ( 'part', '', ( #90 ) ) ;
#186 = CYLINDRICAL_SURFACE ( 'NONE', #266, 161.6000000000000200 ) ;
#187 = DIRECTION ( 'NONE',  ( -1.000000000000000000, -0.0000000000000000000, -0.0000000000000000000 ) ) ;
#188 = CARTESIAN_POINT ( 'NONE',  ( 1500.000000000000500, 0.0000000000000000000, 148.9000000000000100 ) ) ;
#189 = CARTESIAN_POINT ( 'NONE',  ( 1500.000000000000500, 0.0000000000000000000, 0.0000000000000000000 ) ) ;
#190 = CARTESIAN_POINT ( 'NONE',  ( 0.0000000000000000000, 1.823499083930408800E-014, -148.9000000000000100 ) ) ;
#191 = ORIENTED_EDGE ( 'NONE', *, *, #277, .T. ) ;
#192 = PRESENTATION_LAYER_ASSIGNMENT (  '', '', ( #170 ) ) ;
#193 = VECTOR ( 'NONE', #187, 1000.000000000000000 ) ;
#194 = UNCERTAINTY_MEASURE_WITH_UNIT (LENGTH_MEASURE( 1.000000000000000100E-005 ), #285, 'distance_accuracy_value', 'NONE');
#195 = CIRCLE ( 'NONE', #141, 148.9000000000000100 ) ;
#196 = ORIENTED_EDGE ( 'NONE', *, *, #270, .T. ) ;
#197 = FACE_OUTER_BOUND ( 'NONE', #173, .T. ) ;
#198 = VERTEX_POINT ( 'NONE', #272 ) ;
#199 = DIRECTION ( 'NONE',  ( 0.0000000000000000000, 0.0000000000000000000, -1.000000000000000000 ) ) ;
#200 =( LENGTH_UNIT ( ) NAMED_UNIT ( * ) SI_UNIT ( .MILLI., .METRE. ) );
#201 = DIRECTION ( 'NONE',  ( 1.000000000000000000, 0.0000000000000000000, 0.0000000000000000000 ) ) ;
#202 = CYLINDRICAL_SURFACE ( 'NONE', #303, 148.9000000000000100 ) ;
#203 = ORIENTED_EDGE ( 'NONE', *, *, #219, .F. ) ;
#204 =( LENGTH_UNIT ( ) NAMED_UNIT ( * ) SI_UNIT ( .MILLI., .METRE. ) );
#205 = MANIFOLD_SOLID_BREP ( 'Ressalto-extrusão1', #255 ) ;
#206 = AXIS2_PLACEMENT_3D ( 'NONE', #304, #137, #163 ) ;
#207 = DIRECTION ( 'NONE',  ( 0.0000000000000000000, 0.0000000000000000000, -1.000000000000000000 ) ) ;
#208 = DIRECTION ( 'NONE',  ( 1.000000000000000000, -0.0000000000000000000, 0.0000000000000000000 ) ) ;
#209 = CIRCLE ( 'NONE', #105, 161.6000000000000200 ) ;
#210 = ORIENTED_EDGE ( 'NONE', *, *, #296, .F. ) ;
#211 = EDGE_CURVE ( 'NONE', #265, #87, #74, .T. ) ;
#212 = DIRECTION ( 'NONE',  ( 0.0000000000000000000, 0.0000000000000000000, -1.000000000000000000 ) ) ;
#213 = DIRECTION ( 'NONE',  ( 0.0000000000000000000, 0.0000000000000000000, 1.000000000000000000 ) ) ;
#214 = CIRCLE ( 'NONE', #94, 161.6000000000000200 ) ;
#215 = SURFACE_STYLE_FILL_AREA ( #181 ) ;
#216 = ORIENTED_EDGE ( 'NONE', *, *, #76, .F. ) ;
#217 = AXIS2_PLACEMENT_3D ( 'NONE', #249, #302, #117 ) ;
#218 = ORIENTED_EDGE ( 'NONE', *, *, #33, .F. ) ;
#219 = EDGE_CURVE ( 'NONE', #306, #87, #12, .T. ) ;
#220 = FACE_OUTER_BOUND ( 'NONE', #31, .T. ) ;
#221 = CARTESIAN_POINT ( 'NONE',  ( 1500.000000000000000, 1.823499083930408800E-014, -148.9000000000000100 ) ) ;
#222 = EDGE_CURVE ( 'NONE', #198, #102, #14, .T. ) ;
#223 = CARTESIAN_POINT ( 'NONE',  ( 1500.000000000000500, 0.0000000000000000000, 0.0000000000000000000 ) ) ;
#224 = DIRECTION ( 'NONE',  ( 1.000000000000000000, 0.0000000000000000000, 0.0000000000000000000 ) ) ;
#225 = CARTESIAN_POINT ( 'NONE',  ( 1500.000000000000500, 0.0000000000000000000, 0.0000000000000000000 ) ) ;
#226 = CARTESIAN_POINT ( 'NONE',  ( 0.0000000000000000000, 0.0000000000000000000, 148.9000000000000100 ) ) ;
#227 = ORIENTED_EDGE ( 'NONE', *, *, #211, .T. ) ;
#228 = SURFACE_STYLE_USAGE ( .BOTH. , #135 ) ;
#229 =( NAMED_UNIT ( * ) SI_UNIT ( $, .STERADIAN. ) SOLID_ANGLE_UNIT ( ) );
#230 = AXIS2_PLACEMENT_3D ( 'NONE', #75, #156, #199 ) ;
#231 = CARTESIAN_POINT ( 'NONE',  ( 1500.000000000000000, 0.0000000000000000000, 0.0000000000000000000 ) ) ;
#232 = CARTESIAN_POINT ( 'NONE',  ( 1500.000000000000500, 0.0000000000000000000, 0.0000000000000000000 ) ) ;
#233 = DIRECTION ( 'NONE',  ( 0.0000000000000000000, 0.0000000000000000000, 1.000000000000000000 ) ) ;
#234 = EDGE_CURVE ( 'NONE', #247, #306, #128, .T. ) ;
#235 = SURFACE_STYLE_FILL_AREA ( #177 ) ;
#236 = CIRCLE ( 'NONE', #68, 148.9000000000000100 ) ;
#237 = CARTESIAN_POINT ( 'NONE',  ( 1500.000000000000500, 0.0000000000000000000, 0.0000000000000000000 ) ) ;
#238 = AXIS2_PLACEMENT_3D ( 'NONE', #231, #84, #257 ) ;
#239 = EDGE_LOOP ( 'NONE', ( #134, #93, #26, #38 ) ) ;
#240 = AXIS2_PLACEMENT_3D ( 'NONE', #83, #9, #57 ) ;
#241 = LINE ( 'NONE', #298, #193 ) ;
#242 = ORIENTED_EDGE ( 'NONE', *, *, #259, .F. ) ;
#243 = VERTEX_POINT ( 'NONE', #106 ) ;
#244 = EDGE_CURVE ( 'NONE', #118, #243, #286, .T. ) ;
#245 = CARTESIAN_POINT ( 'NONE',  ( 1500.000000000000000, 0.0000000000000000000, 148.9000000000000100 ) ) ;
#246 = FILL_AREA_STYLE_COLOUR ( '', #154 ) ;
#247 = VERTEX_POINT ( 'NONE', #51 ) ;
#248 = EDGE_CURVE ( 'NONE', #87, #306, #209, .T. ) ;
#249 = CARTESIAN_POINT ( 'NONE',  ( 0.0000000000000000000, 0.0000000000000000000, 0.0000000000000000000 ) ) ;
#250 = FILL_AREA_STYLE_COLOUR ( '', #116 ) ;
#251 = AXIS2_PLACEMENT_3D ( 'NONE', #114, #201, #1 ) ;
#252 =( NAMED_UNIT ( * ) PLANE_ANGLE_UNIT ( ) SI_UNIT ( $, .RADIAN. ) );
#253 = FACE_BOUND ( 'NONE', #283, .T. ) ;
#254 = ORIENTED_EDGE ( 'NONE', *, *, #219, .T. ) ;
#255 = CLOSED_SHELL ( 'NONE', ( #122, #65, #282, #41 ) ) ;
#256 = PLANE ( 'NONE',  #240 ) ;
#257 = DIRECTION ( 'NONE',  ( 0.0000000000000000000, 0.0000000000000000000, -1.000000000000000000 ) ) ;
#258 = PLANE ( 'NONE',  #251 ) ;
#259 = EDGE_CURVE ( 'NONE', #295, #23, #62, .T. ) ;
#260 = CARTESIAN_POINT ( 'NONE',  ( 0.0000000000000000000, 0.0000000000000000000, 161.6000000000000200 ) ) ;
#261 =( NAMED_UNIT ( * ) PLANE_ANGLE_UNIT ( ) SI_UNIT ( $, .RADIAN. ) );
#262 = DIRECTION ( 'NONE',  ( 0.0000000000000000000, 0.0000000000000000000, 1.000000000000000000 ) ) ;
#263 = APPLICATION_PROTOCOL_DEFINITION ( 'draft international standard', 'automotive_design', 1998, #297 ) ;
#264 = CYLINDRICAL_SURFACE ( 'NONE', #268, 148.9000000000000100 ) ;
#265 = VERTEX_POINT ( 'NONE', #54 ) ;
#266 = AXIS2_PLACEMENT_3D ( 'NONE', #11, #160, #5 ) ;
#267 = CIRCLE ( 'NONE', #313, 161.6000000000000200 ) ;
#268 = AXIS2_PLACEMENT_3D ( 'NONE', #276, #115, #233 ) ;
#269 = VECTOR ( 'NONE', #73, 1000.000000000000000 ) ;
#270 = EDGE_CURVE ( 'NONE', #247, #265, #267, .T. ) ;
#271 = SURFACE_STYLE_USAGE ( .BOTH. , #292 ) ;
#272 = CARTESIAN_POINT ( 'NONE',  ( 1500.000000000000000, 1.823499083930408800E-014, -148.9000000000000100 ) ) ;
#273 = CYLINDRICAL_SURFACE ( 'NONE', #206, 148.9000000000000100 ) ;
#274 = CARTESIAN_POINT ( 'NONE',  ( 1500.000000000000500, 0.0000000000000000000, 0.0000000000000000000 ) ) ;
#275 = VECTOR ( 'NONE', #91, 1000.000000000000000 ) ;
#276 = CARTESIAN_POINT ( 'NONE',  ( 1500.000000000000000, 0.0000000000000000000, 0.0000000000000000000 ) ) ;
#277 = EDGE_CURVE ( 'NONE', #102, #243, #6, .T. ) ;
#278 = ORIENTED_EDGE ( 'NONE', *, *, #47, .T. ) ;
#279 = CLOSED_SHELL ( 'NONE', ( #311, #143, #147, #168, #17, #145 ) ) ;
#280 = AXIS2_PLACEMENT_3D ( 'NONE', #189, #13, #32 ) ;
#281 = PRODUCT_DEFINITION_CONTEXT ( 'detailed design', #297, 'design' ) ;
#282 = ADVANCED_FACE ( 'NONE', ( #305 ), #256, .T. ) ;
#283 = EDGE_LOOP ( 'NONE', ( #216, #242 ) ) ;
#284 = STYLED_ITEM ( 'NONE', ( #69 ), #56 ) ;
#285 =( LENGTH_UNIT ( ) NAMED_UNIT ( * ) SI_UNIT ( .MILLI., .METRE. ) );
#286 = LINE ( 'NONE', #245, #66 ) ;
#287 = EDGE_LOOP ( 'NONE', ( #162, #289 ) ) ;
#288 = CARTESIAN_POINT ( 'NONE',  ( 1500.000000000000500, 0.0000000000000000000, 0.0000000000000000000 ) ) ;
#289 = ORIENTED_EDGE ( 'NONE', *, *, #33, .T. ) ;
#290 = EDGE_LOOP ( 'NONE', ( #316, #203 ) ) ;
#291 = DIRECTION ( 'NONE',  ( 1.000000000000000000, 0.0000000000000000000, 0.0000000000000000000 ) ) ;
#292 = SURFACE_SIDE_STYLE ('',( #92 ) ) ;
#293 = DIRECTION ( 'NONE',  ( 1.000000000000000000, 0.0000000000000000000, 0.0000000000000000000 ) ) ;
#294 = CYLINDRICAL_SURFACE ( 'NONE', #44, 148.9000000000000100 ) ;
#295 = VERTEX_POINT ( 'NONE', #112 ) ;
#296 = EDGE_CURVE ( 'NONE', #23, #15, #241, .T. ) ;
#297 = APPLICATION_CONTEXT ( 'automotive_design' ) ;
#298 = CARTESIAN_POINT ( 'NONE',  ( 1500.000000000000500, 0.0000000000000000000, 148.9000000000000100 ) ) ;
#299 = CARTESIAN_POINT ( 'NONE',  ( 0.0000000000000000000, 0.0000000000000000000, 0.0000000000000000000 ) ) ;
#300 = EDGE_CURVE ( 'NONE', #243, #102, #195, .T. ) ;
#301 = PLANE ( 'NONE',  #217 ) ;
#302 = DIRECTION ( 'NONE',  ( 1.000000000000000000, -0.0000000000000000000, 0.0000000000000000000 ) ) ;
#303 = AXIS2_PLACEMENT_3D ( 'NONE', #223, #182, #27 ) ;
#304 = CARTESIAN_POINT ( 'NONE',  ( 1500.000000000000000, 0.0000000000000000000, 0.0000000000000000000 ) ) ;
#305 = FACE_OUTER_BOUND ( 'NONE', #287, .T. ) ;
#306 = VERTEX_POINT ( 'NONE', #77 ) ;
#307 = DIRECTION ( 'NONE',  ( 1.000000000000000000, 0.0000000000000000000, 0.0000000000000000000 ) ) ;
#308 = ORIENTED_EDGE ( 'NONE', *, *, #244, .T. ) ;
#309 = VERTEX_POINT ( 'NONE', #133 ) ;
#310 = AXIS2_PLACEMENT_3D ( 'NONE', #142, #307, #212 ) ;
#311 = ADVANCED_FACE ( 'NONE', ( #35 ), #202, .F. ) ;
#312 = ORIENTED_EDGE ( 'NONE', *, *, #211, .F. ) ;
#313 = AXIS2_PLACEMENT_3D ( 'NONE', #288, #291, #152 ) ;
#314 =( GEOMETRIC_REPRESENTATION_CONTEXT ( 3 ) GLOBAL_UNCERTAINTY_ASSIGNED_CONTEXT ( ( #194 ) ) GLOBAL_UNIT_ASSIGNED_CONTEXT ( ( #285, #261, #229 ) ) REPRESENTATION_CONTEXT ( 'NONE', 'WORKASPACE' ) );
#315 = FACE_OUTER_BOUND ( 'NONE', #239, .T. ) ;
#316 = ORIENTED_EDGE ( 'NONE', *, *, #248, .F. ) ;
#317 = DIRECTION ( 'NONE',  ( -1.000000000000000000, -0.0000000000000000000, -0.0000000000000000000 ) ) ;
ENDSEC;
END-ISO-10303-21;
