ISO-10303-21;
HEADER;
FILE_DESCRIPTION (( 'STEP AP203' ),
    '1' );
FILE_NAME ('geom_colaps.STEP',
    '2025-07-27T02:12:33',
    ( '' ),
    ( '' ),
    'SwSTEP 2.0',
    'SolidWorks 2017',
    '' );
FILE_SCHEMA (( 'CONFIG_CONTROL_DESIGN' ));
ENDSEC;

DATA;
#1 = DATE_AND_TIME ( #86, #138 ) ;
#2 = DIRECTION ( 'NONE',  ( 0.0000000000000000000, -0.0000000000000000000, -1.000000000000000000 ) ) ;
#3 = DIRECTION ( 'NONE',  ( 0.0000000000000000000, -1.000000000000000000, 0.0000000000000000000 ) ) ;
#4 = FACE_OUTER_BOUND ( 'NONE', #266, .T. ) ;
#5 = APPROVAL_ROLE ( '' ) ;
#6 = APPROVAL_PERSON_ORGANIZATION ( #136, #238, #5 ) ;
#7 = VERTEX_POINT ( 'NONE', #325 ) ;
#8 = CC_DESIGN_APPROVAL ( #326, ( #283 ) ) ;
#9 = VERTEX_POINT ( 'NONE', #68 ) ;
#10 = LINE ( 'NONE', #47, #134 ) ;
#11 = EDGE_CURVE ( 'NONE', #36, #42, #18, .T. ) ;
#12 = PERSON_AND_ORGANIZATION ( #322, #80 ) ;
#13 = VERTEX_POINT ( 'NONE', #323 ) ;
#14 = VECTOR ( 'NONE', #220, 1000.000000000000000 ) ;
#15 = EDGE_CURVE ( 'NONE', #42, #65, #165, .T. ) ;
#16 = DIRECTION ( 'NONE',  ( -1.000000000000000000, 0.0000000000000000000, 0.0000000000000000000 ) ) ;
#17 = ADVANCED_FACE ( 'NONE', ( #26 ), #45, .F. ) ;
#18 = LINE ( 'NONE', #328, #321 ) ;
#19 = CARTESIAN_POINT ( 'NONE',  ( -49.48871211200737000, 38.88092847314424500, 20.00000000000000000 ) ) ;
#20 = DIRECTION ( 'NONE',  ( 0.0000000000000000000, 0.0000000000000000000, -1.000000000000000000 ) ) ;
#21 = AXIS2_PLACEMENT_3D ( 'NONE', #309, #252, #200 ) ;
#22 = DIRECTION ( 'NONE',  ( 1.000000000000000000, -0.0000000000000000000, -0.0000000000000000000 ) ) ;
#23 = MANIFOLD_SOLID_BREP ( 'Ressalto-extrusão2', #147 ) ;
#24 = ORIENTED_EDGE ( 'NONE', *, *, #50, .T. ) ;
#25 = DIRECTION ( 'NONE',  ( 1.000000000000000000, 0.0000000000000000000, 0.0000000000000000000 ) ) ;
#26 = FACE_OUTER_BOUND ( 'NONE', #155, .T. ) ;
#27 = DIRECTION ( 'NONE',  ( -0.0000000000000000000, -1.000000000000000000, -0.0000000000000000000 ) ) ;
#28 = PLANE ( 'NONE',  #291 ) ;
#29 = LINE ( 'NONE', #19, #149 ) ;
#30 = ORIENTED_EDGE ( 'NONE', *, *, #318, .F. ) ;
#31 = ORIENTED_EDGE ( 'NONE', *, *, #218, .F. ) ;
#32 = LOCAL_TIME ( 23, 12, 33.00000000000000000, #237 ) ;
#33 = VECTOR ( 'NONE', #25, 1000.000000000000000 ) ;
#34 = PRODUCT ( 'geom_colaps', 'geom_colaps', '', ( #261 ) ) ;
#35 = CC_DESIGN_APPROVAL ( #163, ( #208 ) ) ;
#36 = VERTEX_POINT ( 'NONE', #93 ) ;
#37 = VERTEX_POINT ( 'NONE', #245 ) ;
#38 = CARTESIAN_POINT ( 'NONE',  ( 54.48871211200737000, -38.88092847314424500, 20.00000000000000000 ) ) ;
#39 = EDGE_CURVE ( 'NONE', #177, #37, #71, .T. ) ;
#40 = PERSON_AND_ORGANIZATION ( #322, #80 ) ;
#41 = CARTESIAN_POINT ( 'NONE',  ( 54.48871211200737000, 38.88092847314424500, 20.00000000000000000 ) ) ;
#42 = VERTEX_POINT ( 'NONE', #274 ) ;
#43 = FACE_OUTER_BOUND ( 'NONE', #107, .T. ) ;
#44 = ADVANCED_FACE ( 'NONE', ( #4 ), #90, .F. ) ;
#45 = PLANE ( 'NONE',  #66 ) ;
#46 = APPROVAL_DATE_TIME ( #1, #163 ) ;
#47 = CARTESIAN_POINT ( 'NONE',  ( -54.48871211200737000, 38.88092847314424500, 20.00000000000000000 ) ) ;
#48 = ADVANCED_FACE ( 'NONE', ( #236 ), #115, .T. ) ;
#49 = CARTESIAN_POINT ( 'NONE',  ( -54.48871211200737000, 38.87092847314425400, 20.00000000000000000 ) ) ;
#50 = EDGE_CURVE ( 'NONE', #205, #65, #284, .T. ) ;
#51 = FACE_OUTER_BOUND ( 'NONE', #168, .T. ) ;
#52 = CARTESIAN_POINT ( 'NONE',  ( -54.48871211200737000, -38.88092847314424500, 20.00000000000000000 ) ) ;
#53 = LINE ( 'NONE', #231, #63 ) ;
#54 = CARTESIAN_POINT ( 'NONE',  ( 54.48871211200737000, 38.88092847314424500, 20.00000000000000000 ) ) ;
#55 = AXIS2_PLACEMENT_3D ( 'NONE', #95, #16, #249 ) ;
#56 = CARTESIAN_POINT ( 'NONE',  ( -54.48871211200737000, -38.88092847314424500, 20.00000000000000000 ) ) ;
#57 = LINE ( 'NONE', #56, #125 ) ;
#58 = APPROVAL_STATUS ( 'not_yet_approved' ) ;
#59 = APPROVAL_STATUS ( 'not_yet_approved' ) ;
#60 = ORIENTED_EDGE ( 'NONE', *, *, #240, .T. ) ;
#61 = LINE ( 'NONE', #120, #296 ) ;
#62 = CC_DESIGN_PERSON_AND_ORGANIZATION_ASSIGNMENT ( #174, #234, ( #208 ) ) ;
#63 = VECTOR ( 'NONE', #106, 1000.000000000000000 ) ;
#64 = EDGE_CURVE ( 'NONE', #295, #299, #287, .T. ) ;
#65 = VERTEX_POINT ( 'NONE', #148 ) ;
#66 = AXIS2_PLACEMENT_3D ( 'NONE', #219, #67, #194 ) ;
#67 = DIRECTION ( 'NONE',  ( 0.0000000000000000000, 1.000000000000000000, -0.0000000000000000000 ) ) ;
#68 = CARTESIAN_POINT ( 'NONE',  ( 54.48871211200737000, 38.88092847314424500, 0.0000000000000000000 ) ) ;
#69 = DIRECTION ( 'NONE',  ( 0.0000000000000000000, -0.0000000000000000000, 1.000000000000000000 ) ) ;
#70 = ORIENTED_EDGE ( 'NONE', *, *, #297, .T. ) ;
#71 = LINE ( 'NONE', #302, #105 ) ;
#72 = AXIS2_PLACEMENT_3D ( 'NONE', #52, #126, #20 ) ;
#73 = CALENDAR_DATE ( 2025, 26, 7 ) ;
#74 = PLANE ( 'NONE',  #72 ) ;
#75 = CARTESIAN_POINT ( 'NONE',  ( -54.48871211200737000, -38.88092847314424500, 20.00000000000000000 ) ) ;
#76 = EDGE_CURVE ( 'NONE', #13, #7, #216, .T. ) ;
#77 = ORIENTED_EDGE ( 'NONE', *, *, #332, .T. ) ;
#78 = DATE_TIME_ROLE ( 'classification_date' ) ;
#79 = DIRECTION ( 'NONE',  ( 0.0000000000000000000, 1.000000000000000000, 0.0000000000000000000 ) ) ;
#80 = ORGANIZATION ( 'UNSPECIFIED', 'UNSPECIFIED', '' ) ;
#81 = ORIENTED_EDGE ( 'NONE', *, *, #240, .F. ) ;
#82 = PERSON_AND_ORGANIZATION_ROLE ( 'creator' ) ;
#83 = ORIENTED_EDGE ( 'NONE', *, *, #263, .T. ) ;
#84 = VERTEX_POINT ( 'NONE', #258 ) ;
#85 = CC_DESIGN_PERSON_AND_ORGANIZATION_ASSIGNMENT ( #112, #161, ( #34 ) ) ;
#86 = CALENDAR_DATE ( 2025, 26, 7 ) ;
#87 = AXIS2_PLACEMENT_3D ( 'NONE', #99, #306, #117 ) ;
#88 = EDGE_LOOP ( 'NONE', ( #196, #307, #331, #81, #91, #277 ) ) ;
#89 = FACE_OUTER_BOUND ( 'NONE', #143, .T. ) ;
#90 = PLANE ( 'NONE',  #55 ) ;
#91 = ORIENTED_EDGE ( 'NONE', *, *, #39, .F. ) ;
#92 = EDGE_LOOP ( 'NONE', ( #83, #191, #133, #226 ) ) ;
#93 = CARTESIAN_POINT ( 'NONE',  ( -49.48871211200737000, 38.87092847314424700, 40.00000000000000000 ) ) ;
#94 = COORDINATED_UNIVERSAL_TIME_OFFSET ( 3, 0, .BEHIND. ) ;
#95 = CARTESIAN_POINT ( 'NONE',  ( 54.48871211200737000, -38.88092847314424500, 20.00000000000000000 ) ) ;
#96 = ORIENTED_EDGE ( 'NONE', *, *, #203, .F. ) ;
#97 = VECTOR ( 'NONE', #98, 1000.000000000000000 ) ;
#98 = DIRECTION ( 'NONE',  ( 0.0000000000000000000, 1.000000000000000000, 0.0000000000000000000 ) ) ;
#99 = CARTESIAN_POINT ( 'NONE',  ( -54.48871211200737000, 38.87092847314424700, 40.00000000000000000 ) ) ;
#100 = CARTESIAN_POINT ( 'NONE',  ( 54.48871211200737000, 38.88092847314424500, 20.00000000000000000 ) ) ;
#101 = ORIENTED_EDGE ( 'NONE', *, *, #229, .F. ) ;
#102 = DIRECTION ( 'NONE',  ( -0.0000000000000000000, -0.0000000000000000000, -1.000000000000000000 ) ) ;
#103 = FACE_OUTER_BOUND ( 'NONE', #88, .T. ) ;
#104 =( NAMED_UNIT ( * ) SI_UNIT ( $, .STERADIAN. ) SOLID_ANGLE_UNIT ( ) );
#105 = VECTOR ( 'NONE', #144, 1000.000000000000000 ) ;
#106 = DIRECTION ( 'NONE',  ( 1.000000000000000000, 0.0000000000000000000, 0.0000000000000000000 ) ) ;
#107 = EDGE_LOOP ( 'NONE', ( #154, #139, #128, #160, #183, #184 ) ) ;
#108 = VECTOR ( 'NONE', #22, 1000.000000000000000 ) ;
#109 = PERSON_AND_ORGANIZATION ( #322, #80 ) ;
#110 = VERTEX_POINT ( 'NONE', #49 ) ;
#111 = LINE ( 'NONE', #223, #14 ) ;
#112 = PERSON_AND_ORGANIZATION ( #322, #80 ) ;
#113 = LINE ( 'NONE', #201, #108 ) ;
#114 = EDGE_CURVE ( 'NONE', #42, #177, #111, .T. ) ;
#115 = PLANE ( 'NONE',  #195 ) ;
#116 = DIRECTION ( 'NONE',  ( -1.000000000000000000, 0.0000000000000000000, 0.0000000000000000000 ) ) ;
#117 = DIRECTION ( 'NONE',  ( 0.0000000000000000000, -0.0000000000000000000, 1.000000000000000000 ) ) ;
#118 = ORIENTED_EDGE ( 'NONE', *, *, #332, .F. ) ;
#119 = VECTOR ( 'NONE', #217, 1000.000000000000000 ) ;
#120 = CARTESIAN_POINT ( 'NONE',  ( -54.48871211200737000, 38.87092847314424700, 40.00000000000000000 ) ) ;
#121 = CC_DESIGN_DATE_AND_TIME_ASSIGNMENT ( #269, #129, ( #208 ) ) ;
#122 = PRODUCT_DEFINITION_SHAPE ( 'NONE', 'NONE',  #208 ) ;
#123 = ADVANCED_FACE ( 'NONE', ( #89 ), #176, .F. ) ;
#124 = DIRECTION ( 'NONE',  ( 0.0000000000000000000, 0.0000000000000000000, 1.000000000000000000 ) ) ;
#125 = VECTOR ( 'NONE', #202, 1000.000000000000000 ) ;
#126 = DIRECTION ( 'NONE',  ( 1.000000000000000000, 0.0000000000000000000, 0.0000000000000000000 ) ) ;
#127 = ADVANCED_FACE ( 'NONE', ( #51 ), #153, .F. ) ;
#128 = ORIENTED_EDGE ( 'NONE', *, *, #114, .F. ) ;
#129 = DATE_TIME_ROLE ( 'creation_date' ) ;
#130 = COORDINATED_UNIVERSAL_TIME_OFFSET ( 3, 0, .BEHIND. ) ;
#131 = APPLICATION_CONTEXT ( 'configuration controlled 3d designs of mechanical parts and assemblies' ) ;
#132 = APPLICATION_PROTOCOL_DEFINITION ( 'international standard', 'config_control_design', 1994, #317 ) ;
#133 = ORIENTED_EDGE ( 'NONE', *, *, #11, .F. ) ;
#134 = VECTOR ( 'NONE', #102, 1000.000000000000000 ) ;
#135 = DIRECTION ( 'NONE',  ( -0.0000000000000000000, -0.0000000000000000000, -1.000000000000000000 ) ) ;
#136 = PERSON_AND_ORGANIZATION ( #322, #80 ) ;
#137 = CC_DESIGN_PERSON_AND_ORGANIZATION_ASSIGNMENT ( #109, #207, ( #170 ) ) ;
#138 = LOCAL_TIME ( 23, 12, 33.00000000000000000, #130 ) ;
#139 = ORIENTED_EDGE ( 'NONE', *, *, #268, .F. ) ;
#140 = ORIENTED_EDGE ( 'NONE', *, *, #39, .T. ) ;
#141 = COORDINATED_UNIVERSAL_TIME_OFFSET ( 3, 0, .BEHIND. ) ;
#142 = CARTESIAN_POINT ( 'NONE',  ( 0.0000000000000000000, 0.0000000000000000000, 20.00000000000000000 ) ) ;
#143 = EDGE_LOOP ( 'NONE', ( #215, #298, #30, #31 ) ) ;
#144 = DIRECTION ( 'NONE',  ( 0.0000000000000000000, -1.000000000000000000, 0.0000000000000000000 ) ) ;
#145 = LOCAL_TIME ( 23, 12, 33.00000000000000000, #281 ) ;
#146 = ADVANCED_FACE ( 'NONE', ( #103 ), #74, .F. ) ;
#147 = CLOSED_SHELL ( 'NONE', ( #146, #17, #44, #275, #48, #123, #127, #150, #259 ) ) ;
#148 = CARTESIAN_POINT ( 'NONE',  ( -49.48871211200736300, 38.88092847314424500, 20.00000000000000000 ) ) ;
#149 = VECTOR ( 'NONE', #333, 1000.000000000000000 ) ;
#150 = ADVANCED_FACE ( 'NONE', ( #209 ), #254, .F. ) ;
#151 = CARTESIAN_POINT ( 'NONE',  ( 54.48871211200737000, -38.88092847314424500, 20.00000000000000000 ) ) ;
#152 = DIRECTION ( 'NONE',  ( -0.0000000000000000000, -0.0000000000000000000, -1.000000000000000000 ) ) ;
#153 = PLANE ( 'NONE',  #87 ) ;
#154 = ORIENTED_EDGE ( 'NONE', *, *, #303, .T. ) ;
#155 = EDGE_LOOP ( 'NONE', ( #235, #319, #101, #70 ) ) ;
#156 = CARTESIAN_POINT ( 'NONE',  ( -54.48871211200737000, 38.88092847314424500, 40.00000000000000000 ) ) ;
#157 = APPROVAL_ROLE ( '' ) ;
#158 = DIRECTION ( 'NONE',  ( 0.0000000000000000000, 0.0000000000000000000, 1.000000000000000000 ) ) ;
#159 = ORIENTED_EDGE ( 'NONE', *, *, #318, .T. ) ;
#160 = ORIENTED_EDGE ( 'NONE', *, *, #15, .T. ) ;
#161 = PERSON_AND_ORGANIZATION_ROLE ( 'design_owner' ) ;
#162 = APPROVAL_ROLE ( '' ) ;
#163 = APPROVAL ( #59, 'UNSPECIFIED' ) ;
#164 = ORIENTED_EDGE ( 'NONE', *, *, #114, .T. ) ;
#165 = LINE ( 'NONE', #251, #172 ) ;
#166 = ORIENTED_EDGE ( 'NONE', *, *, #257, .T. ) ;
#167 = LINE ( 'NONE', #100, #197 ) ;
#168 = EDGE_LOOP ( 'NONE', ( #271, #253, #118, #60 ) ) ;
#169 = ORIENTED_EDGE ( 'NONE', *, *, #314, .T. ) ;
#170 = PRODUCT_DEFINITION_FORMATION_WITH_SPECIFIED_SOURCE ( 'ANY', '', #34, .NOT_KNOWN. ) ;
#171 = DIRECTION ( 'NONE',  ( 1.000000000000000000, 0.0000000000000000000, -0.0000000000000000000 ) ) ;
#172 = VECTOR ( 'NONE', #173, 1000.000000000000000 ) ;
#173 = DIRECTION ( 'NONE',  ( -0.0000000000000000000, -0.0000000000000000000, -1.000000000000000000 ) ) ;
#174 = PERSON_AND_ORGANIZATION ( #322, #80 ) ;
#175 = PLANE ( 'NONE',  #21 ) ;
#176 = PLANE ( 'NONE',  #210 ) ;
#177 = VERTEX_POINT ( 'NONE', #156 ) ;
#178 = CARTESIAN_POINT ( 'NONE',  ( -54.48871211200737000, 38.87092847314424700, 20.00000000000000000 ) ) ;
#179 = CALENDAR_DATE ( 2025, 26, 7 ) ;
#180 = LINE ( 'NONE', #232, #294 ) ;
#181 = DESIGN_CONTEXT ( 'detailed design', #131, 'design' ) ;
#182 = DIRECTION ( 'NONE',  ( -0.0000000000000000000, -0.0000000000000000000, -1.000000000000000000 ) ) ;
#183 = ORIENTED_EDGE ( 'NONE', *, *, #50, .F. ) ;
#184 = ORIENTED_EDGE ( 'NONE', *, *, #203, .T. ) ;
#185 = APPROVAL_STATUS ( 'not_yet_approved' ) ;
#186 = APPROVAL_PERSON_ORGANIZATION ( #242, #163, #162 ) ;
#187 = CARTESIAN_POINT ( 'NONE',  ( 54.48871211200737000, 38.88092847314424500, 20.00000000000000000 ) ) ;
#188 = DIRECTION ( 'NONE',  ( -0.0000000000000000000, -0.0000000000000000000, -1.000000000000000000 ) ) ;
#189 = LINE ( 'NONE', #330, #304 ) ;
#190 = ORIENTED_EDGE ( 'NONE', *, *, #11, .T. ) ;
#191 = ORIENTED_EDGE ( 'NONE', *, *, #15, .F. ) ;
#192 = PERSON_AND_ORGANIZATION ( #322, #80 ) ;
#193 = DIRECTION ( 'NONE',  ( -0.0000000000000000000, 1.000000000000000000, -0.0000000000000000000 ) ) ;
#194 = DIRECTION ( 'NONE',  ( 0.0000000000000000000, 0.0000000000000000000, 1.000000000000000000 ) ) ;
#195 = AXIS2_PLACEMENT_3D ( 'NONE', #142, #250, #171 ) ;
#196 = ORIENTED_EDGE ( 'NONE', *, *, #76, .T. ) ;
#197 = VECTOR ( 'NONE', #182, 1000.000000000000000 ) ;
#198 = SHAPE_DEFINITION_REPRESENTATION ( #122, #241 ) ;
#199 = EDGE_CURVE ( 'NONE', #110, #84, #293, .T. ) ;
#200 = DIRECTION ( 'NONE',  ( 1.000000000000000000, 0.0000000000000000000, 0.0000000000000000000 ) ) ;
#201 = CARTESIAN_POINT ( 'NONE',  ( 54.48871211200737000, -38.88092847314424500, 20.00000000000000000 ) ) ;
#202 = DIRECTION ( 'NONE',  ( -0.0000000000000000000, -1.000000000000000000, -0.0000000000000000000 ) ) ;
#203 = EDGE_CURVE ( 'NONE', #205, #9, #167, .T. ) ;
#204 = CARTESIAN_POINT ( 'NONE',  ( 54.48871211200737000, -38.88092847314424500, 0.0000000000000000000 ) ) ;
#205 = VERTEX_POINT ( 'NONE', #54 ) ;
#206 = DIRECTION ( 'NONE',  ( 1.000000000000000000, 0.0000000000000000000, 0.0000000000000000000 ) ) ;
#207 = PERSON_AND_ORGANIZATION_ROLE ( 'design_supplier' ) ;
#208 = PRODUCT_DEFINITION ( 'UNKNOWN', '', #170, #181 ) ;
#209 = FACE_OUTER_BOUND ( 'NONE', #92, .T. ) ;
#210 = AXIS2_PLACEMENT_3D ( 'NONE', #276, #69, #222 ) ;
#211 = APPROVAL_PERSON_ORGANIZATION ( #12, #326, #157 ) ;
#212 = LINE ( 'NONE', #285, #324 ) ;
#213 = FACE_OUTER_BOUND ( 'NONE', #244, .T. ) ;
#214 = DIRECTION ( 'NONE',  ( -0.0000000000000000000, -0.0000000000000000000, -1.000000000000000000 ) ) ;
#215 = ORIENTED_EDGE ( 'NONE', *, *, #76, .F. ) ;
#216 = LINE ( 'NONE', #279, #308 ) ;
#217 = DIRECTION ( 'NONE',  ( -1.000000000000000000, 0.0000000000000000000, 0.0000000000000000000 ) ) ;
#218 = EDGE_CURVE ( 'NONE', #7, #299, #189, .T. ) ;
#219 = CARTESIAN_POINT ( 'NONE',  ( 54.48871211200737000, -38.88092847314424500, 20.00000000000000000 ) ) ;
#220 = DIRECTION ( 'NONE',  ( -1.000000000000000000, -0.0000000000000000000, -0.0000000000000000000 ) ) ;
#221 = APPROVAL_DATE_TIME ( #247, #326 ) ;
#222 = DIRECTION ( 'NONE',  ( 1.000000000000000000, 0.0000000000000000000, -0.0000000000000000000 ) ) ;
#223 = CARTESIAN_POINT ( 'NONE',  ( -54.48871211200737000, 38.88092847314424500, 40.00000000000000000 ) ) ;
#224 = VERTEX_POINT ( 'NONE', #282 ) ;
#225 = CC_DESIGN_APPROVAL ( #238, ( #170 ) ) ;
#226 = ORIENTED_EDGE ( 'NONE', *, *, #280, .T. ) ;
#227 = SECURITY_CLASSIFICATION_LEVEL ( 'unclassified' ) ;
#228 = CALENDAR_DATE ( 2025, 26, 7 ) ;
#229 = EDGE_CURVE ( 'NONE', #224, #295, #113, .T. ) ;
#230 = UNCERTAINTY_MEASURE_WITH_UNIT (LENGTH_MEASURE( 1.000000000000000100E-005 ), #264, 'distance_accuracy_value', 'NONE');
#231 = CARTESIAN_POINT ( 'NONE',  ( -54.48871211200737000, 38.87092847314424700, 40.00000000000000000 ) ) ;
#232 = CARTESIAN_POINT ( 'NONE',  ( 54.48871211200737000, -38.88092847314424500, 0.0000000000000000000 ) ) ;
#233 = LINE ( 'NONE', #151, #97 ) ;
#234 = PERSON_AND_ORGANIZATION_ROLE ( 'creator' ) ;
#235 = ORIENTED_EDGE ( 'NONE', *, *, #218, .T. ) ;
#236 = FACE_OUTER_BOUND ( 'NONE', #270, .T. ) ;
#237 = COORDINATED_UNIVERSAL_TIME_OFFSET ( 3, 0, .BEHIND. ) ;
#238 = APPROVAL ( #185, 'UNSPECIFIED' ) ;
#239 = ORIENTED_EDGE ( 'NONE', *, *, #257, .F. ) ;
#240 = EDGE_CURVE ( 'NONE', #37, #110, #61, .T. ) ;
#241 = ADVANCED_BREP_SHAPE_REPRESENTATION ( 'geom_colaps', ( #23, #305 ), #336 ) ;
#242 = PERSON_AND_ORGANIZATION ( #322, #80 ) ;
#243 = ORIENTED_EDGE ( 'NONE', *, *, #199, .F. ) ;
#244 = EDGE_LOOP ( 'NONE', ( #140, #77, #190, #164 ) ) ;
#245 = CARTESIAN_POINT ( 'NONE',  ( -54.48871211200737000, 38.87092847314424700, 40.00000000000000000 ) ) ;
#246 = CC_DESIGN_PERSON_AND_ORGANIZATION_ASSIGNMENT ( #192, #82, ( #170 ) ) ;
#247 = DATE_AND_TIME ( #179, #145 ) ;
#248 = APPROVAL_DATE_TIME ( #334, #238 ) ;
#249 = DIRECTION ( 'NONE',  ( 0.0000000000000000000, 0.0000000000000000000, 1.000000000000000000 ) ) ;
#250 = DIRECTION ( 'NONE',  ( 0.0000000000000000000, -0.0000000000000000000, 1.000000000000000000 ) ) ;
#251 = CARTESIAN_POINT ( 'NONE',  ( -49.48871211200737000, 38.88092847314424500, 40.00000000000000000 ) ) ;
#252 = DIRECTION ( 'NONE',  ( -0.0000000000000000000, 0.0000000000000000000, 1.000000000000000000 ) ) ;
#253 = ORIENTED_EDGE ( 'NONE', *, *, #280, .F. ) ;
#254 = PLANE ( 'NONE',  #272 ) ;
#255 = VECTOR ( 'NONE', #214, 1000.000000000000000 ) ;
#256 = DIRECTION ( 'NONE',  ( 1.000000000000000000, -0.0000000000000000000, -0.0000000000000000000 ) ) ;
#257 = EDGE_CURVE ( 'NONE', #295, #205, #233, .T. ) ;
#258 = CARTESIAN_POINT ( 'NONE',  ( -49.48871211200737000, 38.87092847314424700, 20.00000000000000000 ) ) ;
#259 = ADVANCED_FACE ( 'NONE', ( #213 ), #175, .T. ) ;
#260 = CARTESIAN_POINT ( 'NONE',  ( 54.48871211200737000, -38.88092847314424500, 20.00000000000000000 ) ) ;
#261 = MECHANICAL_CONTEXT ( 'NONE', #317, 'mechanical' ) ;
#262 = LINE ( 'NONE', #75, #315 ) ;
#263 = EDGE_CURVE ( 'NONE', #84, #65, #29, .T. ) ;
#264 =( LENGTH_UNIT ( ) NAMED_UNIT ( * ) SI_UNIT ( .MILLI., .METRE. ) );
#265 = PRODUCT_RELATED_PRODUCT_CATEGORY ( 'detail', '', ( #34 ) ) ;
#266 = EDGE_LOOP ( 'NONE', ( #159, #96, #239, #278 ) ) ;
#267 = LINE ( 'NONE', #288, #327 ) ;
#268 = EDGE_CURVE ( 'NONE', #177, #13, #10, .T. ) ;
#269 = DATE_AND_TIME ( #73, #320 ) ;
#270 = EDGE_LOOP ( 'NONE', ( #312, #243, #169, #292, #166, #24 ) ) ;
#271 = ORIENTED_EDGE ( 'NONE', *, *, #199, .T. ) ;
#272 = AXIS2_PLACEMENT_3D ( 'NONE', #335, #116, #124 ) ;
#273 = LOCAL_TIME ( 23, 12, 33.00000000000000000, #94 ) ;
#274 = CARTESIAN_POINT ( 'NONE',  ( -49.48871211200737000, 38.88092847314424500, 40.00000000000000000 ) ) ;
#275 = ADVANCED_FACE ( 'NONE', ( #43 ), #28, .F. ) ;
#276 = CARTESIAN_POINT ( 'NONE',  ( 0.0000000000000000000, 0.0000000000000000000, 0.0000000000000000000 ) ) ;
#277 = ORIENTED_EDGE ( 'NONE', *, *, #268, .T. ) ;
#278 = ORIENTED_EDGE ( 'NONE', *, *, #64, .T. ) ;
#279 = CARTESIAN_POINT ( 'NONE',  ( -54.48871211200737000, -38.88092847314424500, 0.0000000000000000000 ) ) ;
#280 = EDGE_CURVE ( 'NONE', #36, #84, #212, .T. ) ;
#281 = COORDINATED_UNIVERSAL_TIME_OFFSET ( 3, 0, .BEHIND. ) ;
#282 = CARTESIAN_POINT ( 'NONE',  ( -54.48871211200737000, -38.88092847314424500, 20.00000000000000000 ) ) ;
#283 = SECURITY_CLASSIFICATION ( '', '', #227 ) ;
#284 = LINE ( 'NONE', #41, #119 ) ;
#285 = CARTESIAN_POINT ( 'NONE',  ( -49.48871211200737000, 38.87092847314424700, 40.00000000000000000 ) ) ;
#286 = APPLICATION_PROTOCOL_DEFINITION ( 'international standard', 'config_control_design', 1994, #131 ) ;
#287 = LINE ( 'NONE', #38, #255 ) ;
#288 = CARTESIAN_POINT ( 'NONE',  ( 54.48871211200737000, 38.88092847314424500, 0.0000000000000000000 ) ) ;
#289 =( NAMED_UNIT ( * ) PLANE_ANGLE_UNIT ( ) SI_UNIT ( $, .RADIAN. ) );
#290 = DATE_AND_TIME ( #228, #32 ) ;
#291 = AXIS2_PLACEMENT_3D ( 'NONE', #187, #3, #2 ) ;
#292 = ORIENTED_EDGE ( 'NONE', *, *, #229, .T. ) ;
#293 = LINE ( 'NONE', #178, #33 ) ;
#294 = VECTOR ( 'NONE', #79, 1000.000000000000000 ) ;
#295 = VERTEX_POINT ( 'NONE', #260 ) ;
#296 = VECTOR ( 'NONE', #152, 1000.000000000000000 ) ;
#297 = EDGE_CURVE ( 'NONE', #224, #7, #262, .T. ) ;
#298 = ORIENTED_EDGE ( 'NONE', *, *, #303, .F. ) ;
#299 = VERTEX_POINT ( 'NONE', #204 ) ;
#300 = CC_DESIGN_PERSON_AND_ORGANIZATION_ASSIGNMENT ( #40, #311, ( #283 ) ) ;
#301 = CALENDAR_DATE ( 2025, 26, 7 ) ;
#302 = CARTESIAN_POINT ( 'NONE',  ( -54.48871211200737000, 38.88092847314424500, 40.00000000000000000 ) ) ;
#303 = EDGE_CURVE ( 'NONE', #9, #13, #267, .T. ) ;
#304 = VECTOR ( 'NONE', #256, 1000.000000000000000 ) ;
#305 = AXIS2_PLACEMENT_3D ( 'NONE', #313, #158, #206 ) ;
#306 = DIRECTION ( 'NONE',  ( 0.0000000000000000000, 1.000000000000000000, 0.0000000000000000000 ) ) ;
#307 = ORIENTED_EDGE ( 'NONE', *, *, #297, .F. ) ;
#308 = VECTOR ( 'NONE', #27, 1000.000000000000000 ) ;
#309 = CARTESIAN_POINT ( 'NONE',  ( 0.0000000000000000000, 0.0000000000000000000, 40.00000000000000000 ) ) ;
#310 = CC_DESIGN_DATE_AND_TIME_ASSIGNMENT ( #290, #78, ( #283 ) ) ;
#311 = PERSON_AND_ORGANIZATION_ROLE ( 'classification_officer' ) ;
#312 = ORIENTED_EDGE ( 'NONE', *, *, #263, .F. ) ;
#313 = CARTESIAN_POINT ( 'NONE',  ( 0.0000000000000000000, 0.0000000000000000000, 0.0000000000000000000 ) ) ;
#314 = EDGE_CURVE ( 'NONE', #110, #224, #57, .T. ) ;
#315 = VECTOR ( 'NONE', #135, 1000.000000000000000 ) ;
#316 = DIRECTION ( 'NONE',  ( -1.000000000000000000, 0.0000000000000000000, 0.0000000000000000000 ) ) ;
#317 = APPLICATION_CONTEXT ( 'configuration controlled 3d designs of mechanical parts and assemblies' ) ;
#318 = EDGE_CURVE ( 'NONE', #299, #9, #180, .T. ) ;
#319 = ORIENTED_EDGE ( 'NONE', *, *, #64, .F. ) ;
#320 = LOCAL_TIME ( 23, 12, 33.00000000000000000, #141 ) ;
#321 = VECTOR ( 'NONE', #193, 1000.000000000000000 ) ;
#322 = PERSON ( 'UNSPECIFIED', 'UNSPECIFIED', 'UNSPECIFIED', ('UNSPECIFIED'), ('UNSPECIFIED'), ('UNSPECIFIED') ) ;
#323 = CARTESIAN_POINT ( 'NONE',  ( -54.48871211200737000, 38.88092847314424500, 0.0000000000000000000 ) ) ;
#324 = VECTOR ( 'NONE', #188, 1000.000000000000000 ) ;
#325 = CARTESIAN_POINT ( 'NONE',  ( -54.48871211200737000, -38.88092847314424500, 0.0000000000000000000 ) ) ;
#326 = APPROVAL ( #58, 'UNSPECIFIED' ) ;
#327 = VECTOR ( 'NONE', #316, 1000.000000000000000 ) ;
#328 = CARTESIAN_POINT ( 'NONE',  ( -49.48871211200737000, 38.88092847314424500, 40.00000000000000000 ) ) ;
#329 = CC_DESIGN_SECURITY_CLASSIFICATION ( #283, ( #170 ) ) ;
#330 = CARTESIAN_POINT ( 'NONE',  ( 54.48871211200737000, -38.88092847314424500, 0.0000000000000000000 ) ) ;
#331 = ORIENTED_EDGE ( 'NONE', *, *, #314, .F. ) ;
#332 = EDGE_CURVE ( 'NONE', #37, #36, #53, .T. ) ;
#333 = DIRECTION ( 'NONE',  ( -0.0000000000000000000, 1.000000000000000000, -0.0000000000000000000 ) ) ;
#334 = DATE_AND_TIME ( #301, #273 ) ;
#335 = CARTESIAN_POINT ( 'NONE',  ( -49.48871211200737000, 38.88092847314424500, 40.00000000000000000 ) ) ;
#336 =( GEOMETRIC_REPRESENTATION_CONTEXT ( 3 ) GLOBAL_UNCERTAINTY_ASSIGNED_CONTEXT ( ( #230 ) ) GLOBAL_UNIT_ASSIGNED_CONTEXT ( ( #264, #289, #104 ) ) REPRESENTATION_CONTEXT ( 'NONE', 'WORKASPACE' ) );
ENDSEC;
END-ISO-10303-21;
