ISO-10303-21;
HEADER;
FILE_DESCRIPTION (( 'STEP AP203' ),
    '1' );
FILE_NAME ('holed_cube_meters.STEP',
    '2025-04-08T19:29:26',
    ( '' ),
    ( '' ),
    'SwSTEP 2.0',
    'SolidWorks 2015',
    '' );
FILE_SCHEMA (( 'CONFIG_CONTROL_DESIGN' ));
ENDSEC;

DATA;
#1 = CC_DESIGN_SECURITY_CLASSIFICATION ( #10, ( #199 ) ) ;
#2 = PLANE ( 'NONE',  #191 ) ;
#3 = DATE_AND_TIME ( #221, #12 ) ;
#4 = VECTOR ( 'NONE', #332, 1.000000000000000000 ) ;
#5 = APPLICATION_CONTEXT ( 'configuration controlled 3d designs of mechanical parts and assemblies' ) ;
#6 = APPROVAL_DATE_TIME ( #20, #92 ) ;
#7 = LOCAL_TIME ( 16, 29, 26.00000000000000000, #104 ) ;
#8 = DIRECTION ( 'NONE',  ( 0.0000000000000000000, 0.0000000000000000000, 1.000000000000000000 ) ) ;
#9 = ORIENTED_EDGE ( 'NONE', *, *, #122, .F. ) ;
#10 = SECURITY_CLASSIFICATION ( '', '', #280 ) ;
#11 = PERSON_AND_ORGANIZATION_ROLE ( 'design_supplier' ) ;
#12 = LOCAL_TIME ( 16, 29, 26.00000000000000000, #311 ) ;
#13 = CARTESIAN_POINT ( 'NONE',  ( 0.2500000000000000000, -0.2499999999999999700, -0.2000000000000000900 ) ) ;
#14 = EDGE_LOOP ( 'NONE', ( #97, #219, #174, #144 ) ) ;
#15 = CARTESIAN_POINT ( 'NONE',  ( 0.2500000000000000000, 0.2500000000000000600, 0.2000000000000000900 ) ) ;
#16 = APPROVAL_PERSON_ORGANIZATION ( #89, #385, #138 ) ;
#17 = LINE ( 'NONE', #143, #32 ) ;
#18 = ORIENTED_EDGE ( 'NONE', *, *, #240, .T. ) ;
#19 = PLANE ( 'NONE',  #267 ) ;
#20 = DATE_AND_TIME ( #94, #181 ) ;
#21 = DATE_AND_TIME ( #153, #119 ) ;
#22 = PRODUCT_RELATED_PRODUCT_CATEGORY ( 'detail', '', ( #179 ) ) ;
#23 = VERTEX_POINT ( 'NONE', #194 ) ;
#24 = APPROVAL_PERSON_ORGANIZATION ( #337, #27, #342 ) ;
#25 = LINE ( 'NONE', #272, #356 ) ;
#26 = FACE_OUTER_BOUND ( 'NONE', #50, .T. ) ;
#27 = APPROVAL ( #159, 'UNSPECIFIED' ) ;
#28 = PERSON_AND_ORGANIZATION_ROLE ( 'creator' ) ;
#29 = PERSON_AND_ORGANIZATION ( #215, #90 ) ;
#30 = CYLINDRICAL_SURFACE ( 'NONE', #250, 0.1600000000000000000 ) ;
#31 = MECHANICAL_CONTEXT ( 'NONE', #77, 'mechanical' ) ;
#32 = VECTOR ( 'NONE', #238, 1.000000000000000000 ) ;
#33 = VERTEX_POINT ( 'NONE', #164 ) ;
#34 = CC_DESIGN_APPROVAL ( #385, ( #243 ) ) ;
#35 = PERSON_AND_ORGANIZATION_ROLE ( 'creator' ) ;
#36 = APPROVAL_DATE_TIME ( #135, #96 ) ;
#37 = CARTESIAN_POINT ( 'NONE',  ( 0.0000000000000000000, 0.0000000000000000000, 0.2000000000000000900 ) ) ;
#38 = PERSON_AND_ORGANIZATION ( #215, #90 ) ;
#39 = LINE ( 'NONE', #193, #101 ) ;
#40 = ADVANCED_BREP_SHAPE_REPRESENTATION ( 'holed_cube_meters', ( #149, #128 ), #314 ) ;
#41 = CALENDAR_DATE ( 2025, 8, 4 ) ;
#42 = VECTOR ( 'NONE', #214, 1.000000000000000000 ) ;
#43 = PLANE ( 'NONE',  #47 ) ;
#44 = VERTEX_POINT ( 'NONE', #71 ) ;
#45 = CARTESIAN_POINT ( 'NONE',  ( 0.0000000000000000000, 0.0000000000000000000, -0.2000000000000000900 ) ) ;
#46 = CALENDAR_DATE ( 2025, 8, 4 ) ;
#47 = AXIS2_PLACEMENT_3D ( 'NONE', #129, #132, #348 ) ;
#48 = APPROVAL_STATUS ( 'not_yet_approved' ) ;
#49 = CIRCLE ( 'NONE', #63, 0.1600000000000000000 ) ;
#50 = EDGE_LOOP ( 'NONE', ( #305, #172, #189, #9 ) ) ;
#51 = DIRECTION ( 'NONE',  ( 0.0000000000000000000, 0.0000000000000000000, 1.000000000000000000 ) ) ;
#52 = ADVANCED_FACE ( 'NONE', ( #72, #242 ), #321, .T. ) ;
#53 = CARTESIAN_POINT ( 'NONE',  ( -0.2500000000000000000, 0.2499999999999999700, 0.2000000000000000900 ) ) ;
#54 = CC_DESIGN_PERSON_AND_ORGANIZATION_ASSIGNMENT ( #86, #35, ( #302 ) ) ;
#55 = PERSON_AND_ORGANIZATION_ROLE ( 'creator' ) ;
#56 = DATE_AND_TIME ( #126, #387 ) ;
#57 = EDGE_LOOP ( 'NONE', ( #109, #18 ) ) ;
#58 = DATE_TIME_ROLE ( 'creation_date' ) ;
#59 = CC_DESIGN_PERSON_AND_ORGANIZATION_ASSIGNMENT ( #80, #313, ( #363 ) ) ;
#60 = PERSON_AND_ORGANIZATION ( #215, #90 ) ;
#61 = CLOSED_SHELL ( 'NONE', ( #258, #52, #166, #351, #75, #170, #200, #73 ) ) ;
#62 = ORIENTED_EDGE ( 'NONE', *, *, #93, .F. ) ;
#63 = AXIS2_PLACEMENT_3D ( 'NONE', #239, #300, #241 ) ;
#64 = LOCAL_TIME ( 16, 29, 26.00000000000000000, #218 ) ;
#65 = DIRECTION ( 'NONE',  ( 0.0000000000000000000, 1.000000000000000000, 0.0000000000000000000 ) ) ;
#66 = DIRECTION ( 'NONE',  ( 1.000000000000000000, 1.665334536937734800E-016, -0.0000000000000000000 ) ) ;
#67 = PERSON_AND_ORGANIZATION_ROLE ( 'classification_officer' ) ;
#68 = CC_DESIGN_DATE_AND_TIME_ASSIGNMENT ( #111, #100, ( #271 ) ) ;
#69 = ORIENTED_EDGE ( 'NONE', *, *, #82, .F. ) ;
#70 = COORDINATED_UNIVERSAL_TIME_OFFSET ( 3, 0, .BEHIND. ) ;
#71 = CARTESIAN_POINT ( 'NONE',  ( 0.1600000000000000000, 1.959434878635764800E-017, 0.2000000000000000900 ) ) ;
#72 = FACE_OUTER_BOUND ( 'NONE', #317, .T. ) ;
#73 = ADVANCED_FACE ( 'NONE', ( #388 ), #30, .F. ) ;
#74 = CARTESIAN_POINT ( 'NONE',  ( 0.2500000000000000000, -0.2499999999999999700, 0.2000000000000000900 ) ) ;
#75 = ADVANCED_FACE ( 'NONE', ( #95 ), #43, .F. ) ;
#76 = PLANE ( 'NONE',  #118 ) ;
#77 = APPLICATION_CONTEXT ( 'configuration controlled 3d designs of mechanical parts and assemblies' ) ;
#78 = CC_DESIGN_DATE_AND_TIME_ASSIGNMENT ( #235, #145, ( #243 ) ) ;
#79 = VECTOR ( 'NONE', #116, 1.000000000000000000 ) ;
#80 = PERSON_AND_ORGANIZATION ( #215, #90 ) ;
#81 = VECTOR ( 'NONE', #65, 1.000000000000000000 ) ;
#82 = EDGE_CURVE ( 'NONE', #340, #301, #114, .T. ) ;
#83 = CARTESIAN_POINT ( 'NONE',  ( 0.1600000000000000000, 1.959434878635764800E-017, -0.2000000000000000900 ) ) ;
#84 = CARTESIAN_POINT ( 'NONE',  ( 0.0000000000000000000, 0.0000000000000000000, 0.0000000000000000000 ) ) ;
#85 = CARTESIAN_POINT ( 'NONE',  ( 0.2500000000000000000, 0.2500000000000000600, -0.2000000000000000900 ) ) ;
#86 = PERSON_AND_ORGANIZATION ( #215, #90 ) ;
#87 = FACE_OUTER_BOUND ( 'NONE', #210, .T. ) ;
#88 = DIRECTION ( 'NONE',  ( 0.0000000000000000000, 0.0000000000000000000, 1.000000000000000000 ) ) ;
#89 = PERSON_AND_ORGANIZATION ( #215, #90 ) ;
#90 = ORGANIZATION ( 'UNSPECIFIED', 'UNSPECIFIED', '' ) ;
#91 = VERTEX_POINT ( 'NONE', #287 ) ;
#92 = APPROVAL ( #371, 'UNSPECIFIED' ) ;
#93 = EDGE_CURVE ( 'NONE', #340, #91, #39, .T. ) ;
#94 = CALENDAR_DATE ( 2025, 8, 4 ) ;
#95 = FACE_OUTER_BOUND ( 'NONE', #268, .T. ) ;
#96 = APPROVAL ( #277, 'UNSPECIFIED' ) ;
#97 = ORIENTED_EDGE ( 'NONE', *, *, #367, .T. ) ;
#98 = DIRECTION ( 'NONE',  ( 0.0000000000000000000, 1.000000000000000000, 0.0000000000000000000 ) ) ;
#99 = CYLINDRICAL_SURFACE ( 'NONE', #237, 0.1600000000000000000 ) ;
#100 = DATE_TIME_ROLE ( 'classification_date' ) ;
#101 = VECTOR ( 'NONE', #197, 1.000000000000000000 ) ;
#102 = EDGE_CURVE ( 'NONE', #301, #226, #352, .T. ) ;
#103 = DIRECTION ( 'NONE',  ( 0.0000000000000000000, 0.0000000000000000000, 1.000000000000000000 ) ) ;
#104 = COORDINATED_UNIVERSAL_TIME_OFFSET ( 3, 0, .BEHIND. ) ;
#105 = VECTOR ( 'NONE', #98, 1.000000000000000000 ) ;
#106 = DIRECTION ( 'NONE',  ( -0.0000000000000000000, -0.0000000000000000000, -1.000000000000000000 ) ) ;
#107 = UNCERTAINTY_MEASURE_WITH_UNIT (LENGTH_MEASURE( 1.000000000000000100E-005 ), #382, 'distance_accuracy_value', 'NONE');
#108 = LOCAL_TIME ( 16, 29, 26.00000000000000000, #195 ) ;
#109 = ORIENTED_EDGE ( 'NONE', *, *, #227, .T. ) ;
#110 = CC_DESIGN_SECURITY_CLASSIFICATION ( #271, ( #302 ) ) ;
#111 = DATE_AND_TIME ( #46, #209 ) ;
#112 = DIRECTION ( 'NONE',  ( 1.000000000000000000, 0.0000000000000000000, 0.0000000000000000000 ) ) ;
#113 = CIRCLE ( 'NONE', #285, 0.1600000000000000000 ) ;
#114 = LINE ( 'NONE', #131, #81 ) ;
#115 = DIRECTION ( 'NONE',  ( 0.0000000000000000000, 0.0000000000000000000, 1.000000000000000000 ) ) ;
#116 = DIRECTION ( 'NONE',  ( -1.000000000000000000, -1.665334536937734800E-016, 0.0000000000000000000 ) ) ;
#117 =( NAMED_UNIT ( * ) SI_UNIT ( $, .STERADIAN. ) SOLID_ANGLE_UNIT ( ) );
#118 = AXIS2_PLACEMENT_3D ( 'NONE', #74, #233, #103 ) ;
#119 = LOCAL_TIME ( 16, 29, 26.00000000000000000, #206 ) ;
#120 = CIRCLE ( 'NONE', #288, 0.1600000000000000000 ) ;
#121 = DIRECTION ( 'NONE',  ( -0.0000000000000000000, -0.0000000000000000000, -1.000000000000000000 ) ) ;
#122 = EDGE_CURVE ( 'NONE', #255, #91, #203, .T. ) ;
#123 = DIRECTION ( 'NONE',  ( 1.000000000000000000, 0.0000000000000000000, 0.0000000000000000000 ) ) ;
#124 = APPROVAL_ROLE ( '' ) ;
#125 = ORIENTED_EDGE ( 'NONE', *, *, #122, .T. ) ;
#126 = CALENDAR_DATE ( 2025, 8, 4 ) ;
#127 = ORIENTED_EDGE ( 'NONE', *, *, #264, .T. ) ;
#128 = AXIS2_PLACEMENT_3D ( 'NONE', #84, #115, #151 ) ;
#129 = CARTESIAN_POINT ( 'NONE',  ( 0.2500000000000000000, -0.2499999999999999700, 0.2000000000000000900 ) ) ;
#130 = VECTOR ( 'NONE', #204, 1.000000000000000000 ) ;
#131 = CARTESIAN_POINT ( 'NONE',  ( 0.2500000000000000000, -0.2499999999999999700, 0.2000000000000000900 ) ) ;
#132 = DIRECTION ( 'NONE',  ( -1.665334536937735300E-016, 1.000000000000000000, 0.0000000000000000000 ) ) ;
#133 = CC_DESIGN_PERSON_AND_ORGANIZATION_ASSIGNMENT ( #165, #55, ( #243 ) ) ;
#134 = ORIENTED_EDGE ( 'NONE', *, *, #293, .F. ) ;
#135 = DATE_AND_TIME ( #41, #190 ) ;
#136 = FACE_OUTER_BOUND ( 'NONE', #14, .T. ) ;
#137 = ORIENTED_EDGE ( 'NONE', *, *, #82, .T. ) ;
#138 = APPROVAL_ROLE ( '' ) ;
#139 = EDGE_CURVE ( 'NONE', #91, #378, #369, .T. ) ;
#140 = DIRECTION ( 'NONE',  ( 1.000000000000000000, 1.665334536937734800E-016, -0.0000000000000000000 ) ) ;
#141 = CC_DESIGN_APPROVAL ( #96, ( #302 ) ) ;
#142 = APPROVAL_DATE_TIME ( #222, #349 ) ;
#143 = CARTESIAN_POINT ( 'NONE',  ( 0.2500000000000000000, 0.2500000000000000600, 0.2000000000000000900 ) ) ;
#144 = ORIENTED_EDGE ( 'NONE', *, *, #333, .T. ) ;
#145 = DATE_TIME_ROLE ( 'creation_date' ) ;
#146 = VECTOR ( 'NONE', #303, 1.000000000000000000 ) ;
#147 = ORIENTED_EDGE ( 'NONE', *, *, #249, .T. ) ;
#148 = CARTESIAN_POINT ( 'NONE',  ( 0.2500000000000000000, -0.2499999999999999700, 0.2000000000000000900 ) ) ;
#149 = MANIFOLD_SOLID_BREP ( 'Ressalto-extrusão1', #61 ) ;
#150 = CC_DESIGN_PERSON_AND_ORGANIZATION_ASSIGNMENT ( #324, #306, ( #179 ) ) ;
#151 = DIRECTION ( 'NONE',  ( 1.000000000000000000, 0.0000000000000000000, 0.0000000000000000000 ) ) ;
#152 = LINE ( 'NONE', #85, #79 ) ;
#153 = CALENDAR_DATE ( 2025, 8, 4 ) ;
#154 = PRODUCT_RELATED_PRODUCT_CATEGORY ( 'detail', '', ( #363 ) ) ;
#155 = APPROVAL_PERSON_ORGANIZATION ( #295, #220, #334 ) ;
#156 = CIRCLE ( 'NONE', #232, 0.1600000000000000000 ) ;
#157 = DATE_TIME_ROLE ( 'classification_date' ) ;
#158 = PERSON_AND_ORGANIZATION_ROLE ( 'creator' ) ;
#159 = APPROVAL_STATUS ( 'not_yet_approved' ) ;
#160 = DESIGN_CONTEXT ( 'detailed design', #5, 'design' ) ;
#161 = ORIENTED_EDGE ( 'NONE', *, *, #350, .T. ) ;
#162 = CC_DESIGN_PERSON_AND_ORGANIZATION_ASSIGNMENT ( #278, #11, ( #302 ) ) ;
#163 = DIRECTION ( 'NONE',  ( -1.000000000000000000, -1.665334536937734800E-016, 0.0000000000000000000 ) ) ;
#164 = CARTESIAN_POINT ( 'NONE',  ( -0.1600000000000000000, 0.0000000000000000000, 0.2000000000000000900 ) ) ;
#165 = PERSON_AND_ORGANIZATION ( #215, #90 ) ;
#166 = ADVANCED_FACE ( 'NONE', ( #26, #341 ), #19, .F. ) ;
#167 = LINE ( 'NONE', #361, #42 ) ;
#168 = ORIENTED_EDGE ( 'NONE', *, *, #264, .F. ) ;
#169 = DIRECTION ( 'NONE',  ( 0.0000000000000000000, 0.0000000000000000000, 1.000000000000000000 ) ) ;
#170 = ADVANCED_FACE ( 'NONE', ( #87 ), #76, .F. ) ;
#171 = CARTESIAN_POINT ( 'NONE',  ( -0.2500000000000000000, -0.2500000000000000600, 0.2000000000000000900 ) ) ;
#172 = ORIENTED_EDGE ( 'NONE', *, *, #308, .F. ) ;
#173 = DIRECTION ( 'NONE',  ( -1.000000000000000000, 0.0000000000000000000, 0.0000000000000000000 ) ) ;
#174 = ORIENTED_EDGE ( 'NONE', *, *, #350, .F. ) ;
#175 = APPLICATION_PROTOCOL_DEFINITION ( 'international standard', 'config_control_design', 1994, #355 ) ;
#176 = SHAPE_DEFINITION_REPRESENTATION ( #360, #40 ) ;
#177 = VECTOR ( 'NONE', #140, 1.000000000000000000 ) ;
#178 = CARTESIAN_POINT ( 'NONE',  ( -0.2500000000000000000, 0.2499999999999999700, 0.2000000000000000900 ) ) ;
#179 = PRODUCT ( 'holed_cube_meters', 'holed_cube_meters', '', ( #269 ) ) ;
#180 = EDGE_CURVE ( 'NONE', #187, #340, #257, .T. ) ;
#181 = LOCAL_TIME ( 16, 29, 26.00000000000000000, #263 ) ;
#182 = APPROVAL_STATUS ( 'not_yet_approved' ) ;
#183 = ORIENTED_EDGE ( 'NONE', *, *, #227, .F. ) ;
#184 = CC_DESIGN_APPROVAL ( #92, ( #271 ) ) ;
#185 = CARTESIAN_POINT ( 'NONE',  ( -0.2500000000000000000, 0.2499999999999999700, -0.2000000000000000900 ) ) ;
#186 = DIRECTION ( 'NONE',  ( 1.000000000000000000, 0.0000000000000000000, 0.0000000000000000000 ) ) ;
#187 = VERTEX_POINT ( 'NONE', #377 ) ;
#188 = APPROVAL_DATE_TIME ( #270, #385 ) ;
#189 = ORIENTED_EDGE ( 'NONE', *, *, #139, .F. ) ;
#190 = LOCAL_TIME ( 16, 29, 26.00000000000000000, #217 ) ;
#191 = AXIS2_PLACEMENT_3D ( 'NONE', #307, #112, #212 ) ;
#192 = VECTOR ( 'NONE', #66, 1.000000000000000000 ) ;
#193 = CARTESIAN_POINT ( 'NONE',  ( 0.2500000000000000000, -0.2499999999999999700, 0.2000000000000000900 ) ) ;
#194 = CARTESIAN_POINT ( 'NONE',  ( -0.1600000000000000000, 0.0000000000000000000, -0.2000000000000000900 ) ) ;
#195 = COORDINATED_UNIVERSAL_TIME_OFFSET ( 3, 0, .BEHIND. ) ;
#196 = ORIENTED_EDGE ( 'NONE', *, *, #93, .T. ) ;
#197 = DIRECTION ( 'NONE',  ( -0.0000000000000000000, -0.0000000000000000000, -1.000000000000000000 ) ) ;
#198 = DIRECTION ( 'NONE',  ( -0.0000000000000000000, -0.0000000000000000000, -1.000000000000000000 ) ) ;
#199 = PRODUCT_DEFINITION_FORMATION_WITH_SPECIFIED_SOURCE ( 'ANY', '', #179, .NOT_KNOWN. ) ;
#200 = ADVANCED_FACE ( 'NONE', ( #252 ), #261, .F. ) ;
#201 = LINE ( 'NONE', #339, #4 ) ;
#202 = CARTESIAN_POINT ( 'NONE',  ( 0.0000000000000000000, 0.0000000000000000000, 0.2000000000000000900 ) ) ;
#203 = LINE ( 'NONE', #223, #192 ) ;
#204 = DIRECTION ( 'NONE',  ( -0.0000000000000000000, -0.0000000000000000000, -1.000000000000000000 ) ) ;
#205 = AXIS2_PLACEMENT_3D ( 'NONE', #345, #291, #373 ) ;
#206 = COORDINATED_UNIVERSAL_TIME_OFFSET ( 3, 0, .BEHIND. ) ;
#207 =( NAMED_UNIT ( * ) PLANE_ANGLE_UNIT ( ) SI_UNIT ( $, .RADIAN. ) );
#208 = EDGE_LOOP ( 'NONE', ( #346, #322 ) ) ;
#209 = LOCAL_TIME ( 16, 29, 26.00000000000000000, #294 ) ;
#210 = EDGE_LOOP ( 'NONE', ( #216, #134, #69, #196 ) ) ;
#211 = PRODUCT_DEFINITION ( 'UNKNOWN', '', #199, #253 ) ;
#212 = DIRECTION ( 'NONE',  ( 0.0000000000000000000, 0.0000000000000000000, -1.000000000000000000 ) ) ;
#213 = PERSON_AND_ORGANIZATION ( #215, #90 ) ;
#214 = DIRECTION ( 'NONE',  ( -0.0000000000000000000, -1.000000000000000000, -0.0000000000000000000 ) ) ;
#215 = PERSON ( 'UNSPECIFIED', 'UNSPECIFIED', 'UNSPECIFIED', ('UNSPECIFIED'), ('UNSPECIFIED'), ('UNSPECIFIED') ) ;
#216 = ORIENTED_EDGE ( 'NONE', *, *, #139, .T. ) ;
#217 = COORDINATED_UNIVERSAL_TIME_OFFSET ( 3, 0, .BEHIND. ) ;
#218 = COORDINATED_UNIVERSAL_TIME_OFFSET ( 3, 0, .BEHIND. ) ;
#219 = ORIENTED_EDGE ( 'NONE', *, *, #249, .F. ) ;
#220 = APPROVAL ( #182, 'UNSPECIFIED' ) ;
#221 = CALENDAR_DATE ( 2025, 8, 4 ) ;
#222 = DATE_AND_TIME ( #286, #64 ) ;
#223 = CARTESIAN_POINT ( 'NONE',  ( 0.2500000000000000000, -0.2499999999999999700, -0.2000000000000000900 ) ) ;
#224 = PERSON_AND_ORGANIZATION_ROLE ( 'classification_officer' ) ;
#225 = CARTESIAN_POINT ( 'NONE',  ( 0.0000000000000000000, 0.0000000000000000000, 0.2000000000000000900 ) ) ;
#226 = VERTEX_POINT ( 'NONE', #53 ) ;
#227 = EDGE_CURVE ( 'NONE', #23, #331, #156, .T. ) ;
#228 = COORDINATED_UNIVERSAL_TIME_OFFSET ( 3, 0, .BEHIND. ) ;
#229 = ORIENTED_EDGE ( 'NONE', *, *, #180, .F. ) ;
#230 = DIRECTION ( 'NONE',  ( 0.0000000000000000000, -0.0000000000000000000, 1.000000000000000000 ) ) ;
#231 = CARTESIAN_POINT ( 'NONE',  ( 0.2500000000000000000, -0.2499999999999999700, 0.2000000000000000900 ) ) ;
#232 = AXIS2_PLACEMENT_3D ( 'NONE', #327, #169, #266 ) ;
#233 = DIRECTION ( 'NONE',  ( -1.000000000000000000, 0.0000000000000000000, 0.0000000000000000000 ) ) ;
#234 = APPROVAL_PERSON_ORGANIZATION ( #368, #349, #124 ) ;
#235 = DATE_AND_TIME ( #323, #7 ) ;
#236 = ORIENTED_EDGE ( 'NONE', *, *, #273, .T. ) ;
#237 = AXIS2_PLACEMENT_3D ( 'NONE', #202, #106, #173 ) ;
#238 = DIRECTION ( 'NONE',  ( -0.0000000000000000000, -0.0000000000000000000, -1.000000000000000000 ) ) ;
#239 = CARTESIAN_POINT ( 'NONE',  ( 0.0000000000000000000, 0.0000000000000000000, 0.2000000000000000900 ) ) ;
#240 = EDGE_CURVE ( 'NONE', #331, #23, #120, .T. ) ;
#241 = DIRECTION ( 'NONE',  ( 1.000000000000000000, 0.0000000000000000000, 0.0000000000000000000 ) ) ;
#242 = FACE_BOUND ( 'NONE', #208, .T. ) ;
#243 = PRODUCT_DEFINITION ( 'UNKNOWN', '', #302, #160 ) ;
#244 = DIRECTION ( 'NONE',  ( -0.0000000000000000000, -0.0000000000000000000, -1.000000000000000000 ) ) ;
#245 = ORIENTED_EDGE ( 'NONE', *, *, #102, .F. ) ;
#246 = LINE ( 'NONE', #178, #146 ) ;
#247 = APPLICATION_PROTOCOL_DEFINITION ( 'international standard', 'config_control_design', 1994, #77 ) ;
#248 = FACE_OUTER_BOUND ( 'NONE', #344, .T. ) ;
#249 = EDGE_CURVE ( 'NONE', #187, #255, #256, .T. ) ;
#250 = AXIS2_PLACEMENT_3D ( 'NONE', #225, #198, #254 ) ;
#251 = CARTESIAN_POINT ( 'NONE',  ( -0.1600000000000000000, 0.0000000000000000000, 0.2000000000000000900 ) ) ;
#252 = FACE_OUTER_BOUND ( 'NONE', #325, .T. ) ;
#253 = DESIGN_CONTEXT ( 'detailed design', #384, 'design' ) ;
#254 = DIRECTION ( 'NONE',  ( -1.000000000000000000, 0.0000000000000000000, 0.0000000000000000000 ) ) ;
#255 = VERTEX_POINT ( 'NONE', #380 ) ;
#256 = LINE ( 'NONE', #171, #130 ) ;
#257 = LINE ( 'NONE', #231, #177 ) ;
#258 = ADVANCED_FACE ( 'NONE', ( #248 ), #99, .F. ) ;
#259 = CC_DESIGN_PERSON_AND_ORGANIZATION_ASSIGNMENT ( #310, #67, ( #271 ) ) ;
#260 = APPLICATION_PROTOCOL_DEFINITION ( 'international standard', 'config_control_design', 1994, #5 ) ;
#261 = PLANE ( 'NONE',  #379 ) ;
#262 = DIRECTION ( 'NONE',  ( 1.000000000000000000, 0.0000000000000000000, 0.0000000000000000000 ) ) ;
#263 = COORDINATED_UNIVERSAL_TIME_OFFSET ( 3, 0, .BEHIND. ) ;
#264 = EDGE_CURVE ( 'NONE', #33, #23, #299, .T. ) ;
#265 = EDGE_LOOP ( 'NONE', ( #365, #236, #127, #338 ) ) ;
#266 = DIRECTION ( 'NONE',  ( 1.000000000000000000, 0.0000000000000000000, 0.0000000000000000000 ) ) ;
#267 = AXIS2_PLACEMENT_3D ( 'NONE', #45, #230, #383 ) ;
#268 = EDGE_LOOP ( 'NONE', ( #125, #62, #229, #147 ) ) ;
#269 = MECHANICAL_CONTEXT ( 'NONE', #355, 'mechanical' ) ;
#270 = DATE_AND_TIME ( #347, #108 ) ;
#271 = SECURITY_CLASSIFICATION ( '', '', #290 ) ;
#272 = CARTESIAN_POINT ( 'NONE',  ( 0.1600000000000000000, 1.959434878635764800E-017, 0.2000000000000000900 ) ) ;
#273 = EDGE_CURVE ( 'NONE', #44, #33, #113, .T. ) ;
#274 = CARTESIAN_POINT ( 'NONE',  ( 0.2500000000000000000, 0.2500000000000000600, 0.2000000000000000900 ) ) ;
#275 = VECTOR ( 'NONE', #163, 1.000000000000000000 ) ;
#276 = CC_DESIGN_APPROVAL ( #220, ( #211 ) ) ;
#277 = APPROVAL_STATUS ( 'not_yet_approved' ) ;
#278 = PERSON_AND_ORGANIZATION ( #215, #90 ) ;
#279 = APPROVAL_DATE_TIME ( #3, #27 ) ;
#280 = SECURITY_CLASSIFICATION_LEVEL ( 'unclassified' ) ;
#281 = VECTOR ( 'NONE', #121, 1.000000000000000000 ) ;
#282 = ORIENTED_EDGE ( 'NONE', *, *, #308, .T. ) ;
#283 = EDGE_CURVE ( 'NONE', #33, #44, #49, .T. ) ;
#284 = APPROVAL_STATUS ( 'not_yet_approved' ) ;
#285 = AXIS2_PLACEMENT_3D ( 'NONE', #37, #8, #123 ) ;
#286 = CALENDAR_DATE ( 2025, 8, 4 ) ;
#287 = CARTESIAN_POINT ( 'NONE',  ( 0.2500000000000000000, -0.2499999999999999700, -0.2000000000000000900 ) ) ;
#288 = AXIS2_PLACEMENT_3D ( 'NONE', #381, #51, #262 ) ;
#289 = PRODUCT_DEFINITION_SHAPE ( 'NONE', 'NONE',  #211 ) ;
#290 = SECURITY_CLASSIFICATION_LEVEL ( 'unclassified' ) ;
#291 = DIRECTION ( 'NONE',  ( 0.0000000000000000000, -0.0000000000000000000, 1.000000000000000000 ) ) ;
#292 = ORIENTED_EDGE ( 'NONE', *, *, #386, .T. ) ;
#293 = EDGE_CURVE ( 'NONE', #301, #378, #17, .T. ) ;
#294 = COORDINATED_UNIVERSAL_TIME_OFFSET ( 3, 0, .BEHIND. ) ;
#295 = PERSON_AND_ORGANIZATION ( #215, #90 ) ;
#296 = DIRECTION ( 'NONE',  ( 1.000000000000000000, 1.665334536937735300E-016, 0.0000000000000000000 ) ) ;
#297 = ORIENTED_EDGE ( 'NONE', *, *, #293, .T. ) ;
#298 = CC_DESIGN_DATE_AND_TIME_ASSIGNMENT ( #304, #58, ( #211 ) ) ;
#299 = LINE ( 'NONE', #251, #281 ) ;
#300 = DIRECTION ( 'NONE',  ( 0.0000000000000000000, 0.0000000000000000000, 1.000000000000000000 ) ) ;
#301 = VERTEX_POINT ( 'NONE', #274 ) ;
#302 = PRODUCT_DEFINITION_FORMATION_WITH_SPECIFIED_SOURCE ( 'ANY', '', #363, .NOT_KNOWN. ) ;
#303 = DIRECTION ( 'NONE',  ( -0.0000000000000000000, -0.0000000000000000000, -1.000000000000000000 ) ) ;
#304 = DATE_AND_TIME ( #376, #319 ) ;
#305 = ORIENTED_EDGE ( 'NONE', *, *, #367, .F. ) ;
#306 = PERSON_AND_ORGANIZATION_ROLE ( 'design_owner' ) ;
#307 = CARTESIAN_POINT ( 'NONE',  ( -0.2500000000000000000, -0.2500000000000000600, 0.2000000000000000900 ) ) ;
#308 = EDGE_CURVE ( 'NONE', #378, #358, #152, .T. ) ;
#309 = CARTESIAN_POINT ( 'NONE',  ( 0.2500000000000000000, 0.2500000000000000600, -0.2000000000000000900 ) ) ;
#310 = PERSON_AND_ORGANIZATION ( #215, #90 ) ;
#311 = COORDINATED_UNIVERSAL_TIME_OFFSET ( 3, 0, .BEHIND. ) ;
#312 = AXIS2_PLACEMENT_3D ( 'NONE', #359, #88, #186 ) ;
#313 = PERSON_AND_ORGANIZATION_ROLE ( 'design_owner' ) ;
#314 =( GEOMETRIC_REPRESENTATION_CONTEXT ( 3 ) GLOBAL_UNCERTAINTY_ASSIGNED_CONTEXT ( ( #107 ) ) GLOBAL_UNIT_ASSIGNED_CONTEXT ( ( #382, #207, #117 ) ) REPRESENTATION_CONTEXT ( 'NONE', 'WORKASPACE' ) );
#315 = ORIENTED_EDGE ( 'NONE', *, *, #333, .F. ) ;
#316 = APPROVAL_DATE_TIME ( #56, #220 ) ;
#317 = EDGE_LOOP ( 'NONE', ( #161, #357, #137, #328 ) ) ;
#318 = CC_DESIGN_APPROVAL ( #349, ( #199 ) ) ;
#319 = LOCAL_TIME ( 16, 29, 26.00000000000000000, #228 ) ;
#320 = APPROVAL_ROLE ( '' ) ;
#321 = PLANE ( 'NONE',  #205 ) ;
#322 = ORIENTED_EDGE ( 'NONE', *, *, #273, .F. ) ;
#323 = CALENDAR_DATE ( 2025, 8, 4 ) ;
#324 = PERSON_AND_ORGANIZATION ( #215, #90 ) ;
#325 = EDGE_LOOP ( 'NONE', ( #282, #315, #245, #297 ) ) ;
#326 = CC_DESIGN_PERSON_AND_ORGANIZATION_ASSIGNMENT ( #213, #224, ( #10 ) ) ;
#327 = CARTESIAN_POINT ( 'NONE',  ( 0.0000000000000000000, 0.0000000000000000000, -0.2000000000000000900 ) ) ;
#328 = ORIENTED_EDGE ( 'NONE', *, *, #102, .T. ) ;
#329 = CC_DESIGN_APPROVAL ( #27, ( #10 ) ) ;
#330 = CC_DESIGN_PERSON_AND_ORGANIZATION_ASSIGNMENT ( #362, #28, ( #211 ) ) ;
#331 = VERTEX_POINT ( 'NONE', #83 ) ;
#332 = DIRECTION ( 'NONE',  ( -0.0000000000000000000, -1.000000000000000000, -0.0000000000000000000 ) ) ;
#333 = EDGE_CURVE ( 'NONE', #226, #358, #246, .T. ) ;
#334 = APPROVAL_ROLE ( '' ) ;
#335 = CC_DESIGN_PERSON_AND_ORGANIZATION_ASSIGNMENT ( #60, #158, ( #199 ) ) ;
#336 = APPROVAL_ROLE ( '' ) ;
#337 = PERSON_AND_ORGANIZATION ( #215, #90 ) ;
#338 = ORIENTED_EDGE ( 'NONE', *, *, #240, .F. ) ;
#339 = CARTESIAN_POINT ( 'NONE',  ( -0.2500000000000000000, -0.2500000000000000600, 0.2000000000000000900 ) ) ;
#340 = VERTEX_POINT ( 'NONE', #148 ) ;
#341 = FACE_BOUND ( 'NONE', #57, .T. ) ;
#342 = APPROVAL_ROLE ( '' ) ;
#343 = APPROVAL_PERSON_ORGANIZATION ( #29, #92, #320 ) ;
#344 = EDGE_LOOP ( 'NONE', ( #374, #292, #183, #168 ) ) ;
#345 = CARTESIAN_POINT ( 'NONE',  ( 0.0000000000000000000, 0.0000000000000000000, 0.2000000000000000900 ) ) ;
#346 = ORIENTED_EDGE ( 'NONE', *, *, #283, .F. ) ;
#347 = CALENDAR_DATE ( 2025, 8, 4 ) ;
#348 = DIRECTION ( 'NONE',  ( -1.000000000000000000, -1.665334536937735300E-016, 0.0000000000000000000 ) ) ;
#349 = APPROVAL ( #284, 'UNSPECIFIED' ) ;
#350 = EDGE_CURVE ( 'NONE', #226, #187, #201, .T. ) ;
#351 = ADVANCED_FACE ( 'NONE', ( #136 ), #2, .F. ) ;
#352 = LINE ( 'NONE', #15, #275 ) ;
#353 = DIRECTION ( 'NONE',  ( 1.665334536937735300E-016, -1.000000000000000000, 0.0000000000000000000 ) ) ;
#354 = CARTESIAN_POINT ( 'NONE',  ( 0.2500000000000000000, 0.2500000000000000600, 0.2000000000000000900 ) ) ;
#355 = APPLICATION_CONTEXT ( 'configuration controlled 3d designs of mechanical parts and assemblies' ) ;
#356 = VECTOR ( 'NONE', #244, 1.000000000000000000 ) ;
#357 = ORIENTED_EDGE ( 'NONE', *, *, #180, .T. ) ;
#358 = VERTEX_POINT ( 'NONE', #185 ) ;
#359 = CARTESIAN_POINT ( 'NONE',  ( 0.0000000000000000000, 0.0000000000000000000, 0.0000000000000000000 ) ) ;
#360 = PRODUCT_DEFINITION_SHAPE ( 'NONE', 'NONE',  #243 ) ;
#361 = CARTESIAN_POINT ( 'NONE',  ( -0.2500000000000000000, -0.2500000000000000600, -0.2000000000000000900 ) ) ;
#362 = PERSON_AND_ORGANIZATION ( #215, #90 ) ;
#363 = PRODUCT ( 'holed_cube_meters', 'holed_cube_meters', '', ( #31 ) ) ;
#364 = CC_DESIGN_PERSON_AND_ORGANIZATION_ASSIGNMENT ( #372, #366, ( #199 ) ) ;
#365 = ORIENTED_EDGE ( 'NONE', *, *, #386, .F. ) ;
#366 = PERSON_AND_ORGANIZATION_ROLE ( 'design_supplier' ) ;
#367 = EDGE_CURVE ( 'NONE', #358, #255, #167, .T. ) ;
#368 = PERSON_AND_ORGANIZATION ( #215, #90 ) ;
#369 = LINE ( 'NONE', #13, #105 ) ;
#370 = CC_DESIGN_DATE_AND_TIME_ASSIGNMENT ( #21, #157, ( #10 ) ) ;
#371 = APPROVAL_STATUS ( 'not_yet_approved' ) ;
#372 = PERSON_AND_ORGANIZATION ( #215, #90 ) ;
#373 = DIRECTION ( 'NONE',  ( 1.000000000000000000, 0.0000000000000000000, -0.0000000000000000000 ) ) ;
#374 = ORIENTED_EDGE ( 'NONE', *, *, #283, .T. ) ;
#375 = APPROVAL_PERSON_ORGANIZATION ( #38, #96, #336 ) ;
#376 = CALENDAR_DATE ( 2025, 8, 4 ) ;
#377 = CARTESIAN_POINT ( 'NONE',  ( -0.2500000000000000000, -0.2500000000000000600, 0.2000000000000000900 ) ) ;
#378 = VERTEX_POINT ( 'NONE', #309 ) ;
#379 = AXIS2_PLACEMENT_3D ( 'NONE', #354, #353, #296 ) ;
#380 = CARTESIAN_POINT ( 'NONE',  ( -0.2500000000000000000, -0.2500000000000000600, -0.2000000000000000900 ) ) ;
#381 = CARTESIAN_POINT ( 'NONE',  ( 0.0000000000000000000, 0.0000000000000000000, -0.2000000000000000900 ) ) ;
#382 =( LENGTH_UNIT ( ) NAMED_UNIT ( * ) SI_UNIT ( $, .METRE. ) );
#383 = DIRECTION ( 'NONE',  ( 1.000000000000000000, 0.0000000000000000000, -0.0000000000000000000 ) ) ;
#384 = APPLICATION_CONTEXT ( 'configuration controlled 3d designs of mechanical parts and assemblies' ) ;
#385 = APPROVAL ( #48, 'UNSPECIFIED' ) ;
#386 = EDGE_CURVE ( 'NONE', #44, #331, #25, .T. ) ;
#387 = LOCAL_TIME ( 16, 29, 26.00000000000000000, #70 ) ;
#388 = FACE_OUTER_BOUND ( 'NONE', #265, .T. ) ;
#389 = APPLICATION_PROTOCOL_DEFINITION ( 'international standard', 'config_control_design', 1994, #384 ) ;
ENDSEC;
END-ISO-10303-21;
