ISO-10303-21;
HEADER;
FILE_DESCRIPTION (( 'STEP AP214' ),
    '1' );
FILE_NAME ('pressure_vessel_fluid.STEP',
    '2023-07-25T16:37:34',
    ( '' ),
    ( '' ),
    'SwSTEP 2.0',
    'SolidWorks 2015',
    '' );
FILE_SCHEMA (( 'AUTOMOTIVE_DESIGN' ));
ENDSEC;

DATA;
#1 = CARTESIAN_POINT ( 'NONE',  ( -730.2341510289310200, -1079.055187582189500, 83.58910215092736000 ) ) ;
#2 = PRESENTATION_STYLE_ASSIGNMENT (( #35 ) ) ;
#3 = PRODUCT_DEFINITION_FORMATION_WITH_SPECIFIED_SOURCE ( 'ANY', '', #281, .NOT_KNOWN. ) ;
#4 = CARTESIAN_POINT ( 'NONE',  ( 734.9594803352247300, 1336.783120271124300, -8.911879310541216600 ) ) ;
#5 = MECHANICAL_DESIGN_GEOMETRIC_PRESENTATION_REPRESENTATION (  '', ( #95 ), #419 ) ;
#6 = CARTESIAN_POINT ( 'NONE',  ( -720.1499843782552300, -1195.131050626363300, 146.9999999999997200 ) ) ;
#7 = CARTESIAN_POINT ( 'NONE',  ( 732.8156632784723600, 1324.762546484662200, 56.77624913522551300 ) ) ;
#8 = CARTESIAN_POINT ( 'NONE',  ( 0.0000000000000000000, -1985.000000000000200, -534.1064222490490500 ) ) ;
#9 = EDGE_CURVE ( 'NONE', #143, #143, #488, .T. ) ;
#10 = CARTESIAN_POINT ( 'NONE',  ( 726.9352225721723900, 1283.609338207908600, -108.6204108374567200 ) ) ;
#11 = CARTESIAN_POINT ( 'NONE',  ( -725.0106933389802200, -1116.163831562047100, 120.7740202460065300 ) ) ;
#12 = SURFACE_STYLE_FILL_AREA ( #625 ) ;
#13 = CARTESIAN_POINT ( 'NONE',  ( -721.5549405511599200, -1245.020561860702400, 139.9414810508274900 ) ) ;
#14 = CARTESIAN_POINT ( 'NONE',  ( 0.0000000000000000000, -1985.000000000000200, 249.9999999999999100 ) ) ;
#15 = CARTESIAN_POINT ( 'NONE',  ( -720.1499843782552300, -1204.868949373638100, 146.9999999999997400 ) ) ;
#16 = PLANE ( 'NONE',  #510 ) ;
#17 = STYLED_ITEM ( 'NONE', ( #522 ), #644 ) ;
#18 = CARTESIAN_POINT ( 'NONE',  ( -730.5511619142203000, -1322.839076702898000, 80.75283246323449800 ) ) ;
#19 = SURFACE_STYLE_USAGE ( .BOTH. , #261 ) ;
#20 = MECHANICAL_DESIGN_GEOMETRIC_PRESENTATION_REPRESENTATION (  '', ( #573 ), #237 ) ;
#21 = CARTESIAN_POINT ( 'NONE',  ( -731.5204303453924700, -1328.481058039167700, 71.46593727753048600 ) ) ;
#22 = CARTESIAN_POINT ( 'NONE',  ( 499.9999999999998300, -1985.000000000000500, 249.9999999999998900 ) ) ;
#23 = CARTESIAN_POINT ( 'NONE',  ( -721.1417147518233200, -1238.087734325604500, 142.0622163497703200 ) ) ;
#24 = CARTESIAN_POINT ( 'NONE',  ( -1470.000000000001400, -1500.000000000000000, 735.0000000000006800 ) ) ;
#25 = AXIS2_PLACEMENT_3D ( 'NONE', #706, #351, #711 ) ;
#26 = CARTESIAN_POINT ( 'NONE',  ( 729.0085816539070700, 1099.963665925030000, -93.71019014318315500 ) ) ;
#27 = CARTESIAN_POINT ( 'NONE',  ( -725.2283836965608500, -1285.765944639326800, -119.4825219029637000 ) ) ;
#28 = SURFACE_SIDE_STYLE ('',( #68 ) ) ;
#29 = CARTESIAN_POINT ( 'NONE',  ( -720.1503857219772700, -1204.862878813434000, -146.9980338251695900 ) ) ;
#30 = FILL_AREA_STYLE ('',( #754 ) ) ;
#31 = FACE_OUTER_BOUND ( 'NONE', #478, .T. ) ;
#32 = PRESENTATION_STYLE_ASSIGNMENT (( #728 ) ) ;
#33 = ORIENTED_EDGE ( 'NONE', *, *, #168, .T. ) ;
#34 = CARTESIAN_POINT ( 'NONE',  ( -734.7499528609896500, -1345.744689272570200, -19.20828985224296300 ) ) ;
#35 = SURFACE_STYLE_USAGE ( .BOTH. , #565 ) ;
#36 = CARTESIAN_POINT ( 'NONE',  ( 731.4273619383726600, 1083.675922118366800, -72.40698709482370500 ) ) ;
#37 = CARTESIAN_POINT ( 'NONE',  ( -734.0261498652962500, -1342.057227344011400, -38.10156080702385900 ) ) ;
#38 = DIRECTION ( 'NONE',  ( 0.0000000000000000000, 0.0000000000000000000, -1.000000000000000000 ) ) ;
#39 = CARTESIAN_POINT ( 'NONE',  ( 732.5018947061418000, 1077.087992946993800, -60.67676655417172800 ) ) ;
#40 = CARTESIAN_POINT ( 'NONE',  ( -722.5250728398282300, -1258.577999557853000, -134.8458335302133000 ) ) ;
#41 = CARTESIAN_POINT ( 'NONE',  ( -732.1088926196497400, -1068.195658949818400, -65.26489349946692200 ) ) ;
#42 = CARTESIAN_POINT ( 'NONE',  ( -1.763034163104748600E-012, -1985.000000000000200, 0.0000000000000000000 ) ) ;
#43 = ORIENTED_EDGE ( 'NONE', *, *, #9, .T. ) ;
#44 = CARTESIAN_POINT ( 'NONE',  ( -734.2488884397656600, -1056.799855894637400, -33.55143708305825400 ) ) ;
#45 =( NAMED_UNIT ( * ) SI_UNIT ( $, .STERADIAN. ) SOLID_ANGLE_UNIT ( ) );
#46 = STYLED_ITEM ( 'NONE', ( #81 ), #743 ) ;
#47 = CARTESIAN_POINT ( 'NONE',  ( -734.2605479010851500, -1056.740128818546700, 33.29671197727923700 ) ) ;
#48 = CARTESIAN_POINT ( 'NONE',  ( 0.0000000000000000000, -1500.000000000000000, 0.0000000000000000000 ) ) ;
#49 = CARTESIAN_POINT ( 'NONE',  ( -733.4069085474474200, -1061.184102482809500, 48.37982827773306800 ) ) ;
#50 = CARTESIAN_POINT ( 'NONE',  ( 0.0000000000000000000, 1985.000000000000500, -250.0000000000000600 ) ) ;
#51 = CARTESIAN_POINT ( 'NONE',  ( 722.1613942064930100, 1190.984024491144500, 136.7776530558993200 ) ) ;
#52 = SURFACE_STYLE_FILL_AREA ( #127 ) ;
#53 = CARTESIAN_POINT ( 'NONE',  ( -728.4466216723235400, -1090.368248243082900, -97.93532655342534100 ) ) ;
#54 = CARTESIAN_POINT ( 'NONE',  ( 0.0000000000000000000, 1985.000000000000500, -534.1064222490492700 ) ) ;
#55 = CARTESIAN_POINT ( 'NONE',  ( 722.1600351146439600, 1208.885733924995300, 136.7847961209877800 ) ) ;
#56 = CARTESIAN_POINT ( 'NONE',  ( 729.1199946955872500, 1099.200577342335700, 92.78866870048787500 ) ) ;
#57 = CARTESIAN_POINT ( 'NONE',  ( 727.7378760928483000, 1290.322262514201200, 103.1054466402114800 ) ) ;
#58 = DIRECTION ( 'NONE',  ( 0.0000000000000000000, 0.0000000000000000000, 1.000000000000000000 ) ) ;
#59 = CARTESIAN_POINT ( 'NONE',  ( 730.2486725140973900, 1308.697562871685200, 83.51166024315351400 ) ) ;
#60 = AXIS2_PLACEMENT_3D ( 'NONE', #42, #684, #145 ) ;
#61 = CLOSED_SHELL ( 'NONE', ( #650, #743, #264, #644, #269, #703, #474, #326, #445 ) ) ;
#62 = CARTESIAN_POINT ( 'NONE',  ( 733.7996519373560900, 1330.408370974194700, 42.04402406859330200 ) ) ;
#63 = CARTESIAN_POINT ( 'NONE',  ( 734.3480199830096400, 1333.460694255518300, 31.26015249835968000 ) ) ;
#64 = CARTESIAN_POINT ( 'NONE',  ( 1025.400999999999800, -1200.000000000000000, -1.469576158976823800E-013 ) ) ;
#65 = CARTESIAN_POINT ( 'NONE',  ( 731.8148655869881600, 1318.748852711491500, -68.46603760483665700 ) ) ;
#66 = CARTESIAN_POINT ( 'NONE',  ( -721.2934399544467400, -1159.384914198516800, 141.2829901514086800 ) ) ;
#67 = CARTESIAN_POINT ( 'NONE',  ( 733.2611432278602000, 1327.342315784634600, 50.53918199502634000 ) ) ;
#68 = SURFACE_STYLE_FILL_AREA ( #556 ) ;
#69 = CARTESIAN_POINT ( 'NONE',  ( 725.9379637252390000, 1274.386869266277200, -115.0682023804801000 ) ) ;
#70 = CARTESIAN_POINT ( 'NONE',  ( -720.1499843782552300, -1200.000000000000000, 146.9999999999997400 ) ) ;
#71 = CARTESIAN_POINT ( 'NONE',  ( 723.1075319507762100, 1237.856477772381600, -131.6850124067906300 ) ) ;
#72 = CARTESIAN_POINT ( 'NONE',  ( -722.7074760085863500, -1139.094267785088300, 133.8745948304364800 ) ) ;
#73 = CARTESIAN_POINT ( 'NONE',  ( -726.6471072710346600, -1297.024246350400100, 110.5377596918669800 ) ) ;
#74 = SURFACE_SIDE_STYLE ('',( #653 ) ) ;
#75 = CARTESIAN_POINT ( 'NONE',  ( -730.9916623291350100, -1325.431990953986800, 76.66336643406253900 ) ) ;
#76 = CARTESIAN_POINT ( 'NONE',  ( -732.1222346375241200, -1331.878487628830500, 65.11616054415711100 ) ) ;
#77 = ADVANCED_BREP_SHAPE_REPRESENTATION ( 'pressure_vessel_fluid', ( #680, #602 ), #253 ) ;
#78 = CARTESIAN_POINT ( 'NONE',  ( 722.7012177222902700, 1229.084914914164800, -133.8960503953724100 ) ) ;
#79 = CARTESIAN_POINT ( 'NONE',  ( -1025.400999999999800, 1200.000000000000000, 0.0000000000000000000 ) ) ;
#80 = PRESENTATION_LAYER_ASSIGNMENT (  '', '', ( #573 ) ) ;
#81 = PRESENTATION_STYLE_ASSIGNMENT (( #502 ) ) ;
#82 = CARTESIAN_POINT ( 'NONE',  ( -720.9174952837074700, -1233.590193480031800, -143.1918130895702200 ) ) ;
#83 = FILL_AREA_STYLE ('',( #384 ) ) ;
#84 = CARTESIAN_POINT ( 'NONE',  ( 731.2354011233679800, 1084.888135287031700, -74.31908901590104200 ) ) ;
#85 = PRODUCT_DEFINITION_SHAPE ( 'NONE', 'NONE',  #336 ) ;
#86 = CARTESIAN_POINT ( 'NONE',  ( -720.1972460725962700, -1190.464027257216700, -146.7690527581910900 ) ) ;
#87 = SURFACE_SIDE_STYLE ('',( #421 ) ) ;
#88 = CARTESIAN_POINT ( 'NONE',  ( 734.9600517867227200, 1063.213790942959600, 8.890084671429411500 ) ) ;
#89 = CARTESIAN_POINT ( 'NONE',  ( -723.2867033210756100, -1267.321192045491900, -130.7007575448376700 ) ) ;
#90 = CARTESIAN_POINT ( 'NONE',  ( 0.0000000000000000000, 0.0000000000000000000, 0.0000000000000000000 ) ) ;
#91 = CARTESIAN_POINT ( 'NONE',  ( -720.6337670179045700, -1226.506465048882300, -144.6105335689225300 ) ) ;
#92 = FILL_AREA_STYLE ('',( #329 ) ) ;
#93 = CARTESIAN_POINT ( 'NONE',  ( -721.9984344459350000, -1148.181061843185900, -137.6471489488792500 ) ) ;
#94 = STYLED_ITEM ( 'NONE', ( #156 ), #326 ) ;
#95 = STYLED_ITEM ( 'NONE', ( #549 ), #680 ) ;
#96 = CARTESIAN_POINT ( 'NONE',  ( -720.7663026087724300, -1170.175889193181800, -143.9478903581301700 ) ) ;
#97 = DIRECTION ( 'NONE',  ( -1.000000000000000000, -0.0000000000000000000, -0.0000000000000000000 ) ) ;
#98 = CARTESIAN_POINT ( 'NONE',  ( -734.0208365706371300, -1057.970126226998700, -38.20633182621902800 ) ) ;
#99 = CARTESIAN_POINT ( 'NONE',  ( 0.0000000000000000000, 1784.106422249049300, -735.0000000000005700 ) ) ;
#100 = CARTESIAN_POINT ( 'NONE',  ( -720.5298499382925000, -1176.127455148830200, -145.1298218351660100 ) ) ;
#101 = CARTESIAN_POINT ( 'NONE',  ( -720.1499843782552300, -1200.000000000000000, 146.9999999999997200 ) ) ;
#102 = VERTEX_POINT ( 'NONE', #344 ) ;
#103 = UNCERTAINTY_MEASURE_WITH_UNIT (LENGTH_MEASURE( 1.000000000000000100E-005 ), #620, 'distance_accuracy_value', 'NONE');
#104 = CARTESIAN_POINT ( 'NONE',  ( -733.0139081963482100, -1063.273240996488500, 54.04228958213442300 ) ) ;
#105 = CARTESIAN_POINT ( 'NONE',  ( 722.1191037495139000, 1200.000000000000000, -136.9999999999998600 ) ) ;
#106 = CARTESIAN_POINT ( 'NONE',  ( 722.6525287720921800, 1227.783170396086700, 134.1580141363354200 ) ) ;
#107 = CARTESIAN_POINT ( 'NONE',  ( 732.4967733359588900, 1077.132464075732700, 60.64387700047502200 ) ) ;
#108 = CARTESIAN_POINT ( 'NONE',  ( 723.7330949608232200, 1151.646097265851900, -128.2029920973209300 ) ) ;
#109 = CARTESIAN_POINT ( 'NONE',  ( 733.6912741158104200, 1070.198173486601900, 44.05044145517802400 ) ) ;
#110 = SURFACE_STYLE_USAGE ( .BOTH. , #472 ) ;
#111 = CARTESIAN_POINT ( 'NONE',  ( 730.6523536996854800, 1311.368199550937300, 79.91273410270926500 ) ) ;
#112 = COLOUR_RGB ( '',0.3803921568627450800, 0.4784313725490195700, 0.7882352941176470300 ) ;
#113 = FACE_BOUND ( 'NONE', #670, .T. ) ;
#114 = EDGE_LOOP ( 'NONE', ( #350 ) ) ;
#115 = CARTESIAN_POINT ( 'NONE',  ( 722.7876833080156300, 1231.100673574011400, 133.4279893161121000 ) ) ;
#116 = CARTESIAN_POINT ( 'NONE',  ( 728.9963167574036300, 1299.909261371836700, 93.76658242961404700 ) ) ;
#117 = CARTESIAN_POINT ( 'NONE',  ( -723.0856836447416100, -1134.772869449135700, 131.8233058703790200 ) ) ;
#118 = VERTEX_POINT ( 'NONE', #223 ) ;
#119 = PRESENTATION_LAYER_ASSIGNMENT (  '', '', ( #46 ) ) ;
#120 = FACE_OUTER_BOUND ( 'NONE', #232, .T. ) ;
#121 = CARTESIAN_POINT ( 'NONE',  ( 0.0000000000000000000, -1985.000000000000200, -249.9999999999999100 ) ) ;
#122 = EDGE_CURVE ( 'NONE', #485, #485, #398, .T. ) ;
#123 = CARTESIAN_POINT ( 'NONE',  ( 500.0000000000000000, 1985.000000000000700, -250.0000000000000600 ) ) ;
#124 = CARTESIAN_POINT ( 'NONE',  ( 0.0000000000000000000, -1784.106422249049000, -735.0000000000004500 ) ) ;
#125 = SURFACE_STYLE_FILL_AREA ( #647 ) ;
#126 = CARTESIAN_POINT ( 'NONE',  ( -722.0138084058101000, -1251.895324005537300, 137.5563695217267100 ) ) ;
#127 = FILL_AREA_STYLE ('',( #609 ) ) ;
#128 = CARTESIAN_POINT ( 'NONE',  ( -729.9894261540256400, -1319.480457618559100, 85.77155533246762800 ) ) ;
#129 = MECHANICAL_DESIGN_GEOMETRIC_PRESENTATION_REPRESENTATION (  '', ( #94 ), #755 ) ;
#130 = CARTESIAN_POINT ( 'NONE',  ( 722.3295535305235300, 1218.001033872803600, -135.8867928821676400 ) ) ;
#131 = SURFACE_STYLE_USAGE ( .BOTH. , #28 ) ;
#132 = AXIS2_PLACEMENT_3D ( 'NONE', #570, #686, #38 ) ;
#133 = CARTESIAN_POINT ( 'NONE',  ( -725.2218009753536300, -1285.640875905843100, 119.5008769160050700 ) ) ;
#134 = EDGE_LOOP ( 'NONE', ( #576 ) ) ;
#135 = CARTESIAN_POINT ( 'NONE',  ( -734.6233647632401500, -1345.108061387140900, 24.00159080995595000 ) ) ;
#136 = CARTESIAN_POINT ( 'NONE',  ( 1470.000000000001400, -1500.000000000000000, 735.0000000000006800 ) ) ;
#137 = CARTESIAN_POINT ( 'NONE',  ( 733.6823472147405000, 1070.248542080304100, -44.20063413605652200 ) ) ;
#138 = CARTESIAN_POINT ( 'NONE',  ( -733.4923442660439200, -1339.272704617576000, -47.27682862782558700 ) ) ;
#139 = CARTESIAN_POINT ( 'NONE',  ( 0.0000000000000000000, -1500.000000000000200, -735.0000000000006800 ) ) ;
#140 = CARTESIAN_POINT ( 'NONE',  ( 731.7991082376308900, 1081.360882840958500, -68.54795952386604100 ) ) ;
#141 = CARTESIAN_POINT ( 'NONE',  ( -726.6430145717211000, -1296.992292891927000, -110.5638651219334600 ) ) ;
#142 =( NAMED_UNIT ( * ) SI_UNIT ( $, .STERADIAN. ) SOLID_ANGLE_UNIT ( ) );
#143 = VERTEX_POINT ( 'NONE', #273 ) ;
#144 = CARTESIAN_POINT ( 'NONE',  ( -734.0103800566112100, -1341.970329738463100, 38.20085163000988600 ) ) ;
#145 = DIRECTION ( 'NONE',  ( 0.0000000000000000000, -0.0000000000000000000, 1.000000000000000000 ) ) ;
#146 = CARTESIAN_POINT ( 'NONE',  ( -731.3173673778521800, -1327.334562174129600, -73.60766586836783200 ) ) ;
#147 = FILL_AREA_STYLE_COLOUR ( '', #247 ) ;
#148 = CARTESIAN_POINT ( 'NONE',  ( 727.7499859820999300, 1109.578934510615200, -103.0208225151998700 ) ) ;
#149 = CARTESIAN_POINT ( 'NONE',  ( -734.9023936498862200, -1053.488624260437300, -12.21540673139704900 ) ) ;
#150 = DIRECTION ( 'NONE',  ( 0.0000000000000000000, 0.0000000000000000000, -1.000000000000000000 ) ) ;
#151 = CARTESIAN_POINT ( 'NONE',  ( -733.2409210406240200, -1062.063746106190600, -50.83363479069935700 ) ) ;
#152 =( LENGTH_UNIT ( ) NAMED_UNIT ( * ) SI_UNIT ( .MILLI., .METRE. ) );
#153 = ORIENTED_EDGE ( 'NONE', *, *, #122, .F. ) ;
#154 = CARTESIAN_POINT ( 'NONE',  ( -734.9385469843618900, -1053.307525490296000, -9.807532684927734200 ) ) ;
#155 = CARTESIAN_POINT ( 'NONE',  ( 1068.212844498098500, 1985.000000000000500, -534.1064222490492700 ) ) ;
#156 = PRESENTATION_STYLE_ASSIGNMENT (( #435 ) ) ;
#157 = UNCERTAINTY_MEASURE_WITH_UNIT (LENGTH_MEASURE( 1.000000000000000100E-005 ), #288, 'distance_accuracy_value', 'NONE');
#158 = CARTESIAN_POINT ( 'NONE',  ( -726.6330279206330300, -1103.082605921364300, -110.6293342889685400 ) ) ;
#159 = CARTESIAN_POINT ( 'NONE',  ( 0.0000000000000000000, 1500.000000000000000, -735.0000000000005700 ) ) ;
#160 = CARTESIAN_POINT ( 'NONE',  ( 728.1674203221979300, 1106.288970003769500, 100.0376996983994400 ) ) ;
#161 = CARTESIAN_POINT ( 'NONE',  ( -732.5025371337069400, -1066.032709288420800, 60.70311180601442700 ) ) ;
#162 =( NAMED_UNIT ( * ) PLANE_ANGLE_UNIT ( ) SI_UNIT ( $, .RADIAN. ) );
#163 = CARTESIAN_POINT ( 'NONE',  ( 723.7257949557127900, 1151.625622721908300, 128.2537207988068500 ) ) ;
#164 = CARTESIAN_POINT ( 'NONE',  ( 731.8032825411899000, 1081.322257908422000, 68.59111110649286000 ) ) ;
#165 =( NAMED_UNIT ( * ) SI_UNIT ( $, .STERADIAN. ) SOLID_ANGLE_UNIT ( ) );
#166 = VERTEX_POINT ( 'NONE', #637 ) ;
#167 = UNCERTAINTY_MEASURE_WITH_UNIT (LENGTH_MEASURE( 1.000000000000000100E-005 ), #736, 'distance_accuracy_value', 'NONE');
#168 = EDGE_CURVE ( 'NONE', #166, #166, #324, .T. ) ;
#169 = CARTESIAN_POINT ( 'NONE',  ( 722.1187656427090400, 1204.420536877466000, 137.0017821416295500 ) ) ;
#170 = ORIENTED_EDGE ( 'NONE', *, *, #424, .F. ) ;
#171 = CARTESIAN_POINT ( 'NONE',  ( 722.7769612810499200, 1168.859540567925700, -133.4887737996113200 ) ) ;
#172 = CARTESIAN_POINT ( 'NONE',  ( 731.4328894747568500, 1083.621068831278500, 72.42103528150174400 ) ) ;
#173 = CARTESIAN_POINT ( 'NONE',  ( 0.0000000000000000000, -1500.000000000000000, -735.0000000000008000 ) ) ;
#174 = CARTESIAN_POINT ( 'NONE',  ( 731.4256315556697200, 1316.333436298157700, 72.49450008138691700 ) ) ;
#175 = CARTESIAN_POINT ( 'NONE',  ( 722.1191037495137800, 1199.999999999999800, -136.9999999999998300 ) ) ;
#176 = PRODUCT_DEFINITION_CONTEXT ( 'detailed design', #293, 'design' ) ;
#177 = CARTESIAN_POINT ( 'NONE',  ( 725.7419383354616700, 1127.481525985651200, 116.3182733252773500 ) ) ;
#178 = CARTESIAN_POINT ( 'NONE',  ( 725.1893907358634100, 1266.689575382906700, -119.6933270678053600 ) ) ;
#179 = PRESENTATION_LAYER_ASSIGNMENT (  '', '', ( #458 ) ) ;
#180 = CARTESIAN_POINT ( 'NONE',  ( 733.4032104513099700, 1328.157833634368000, 48.43391357577628000 ) ) ;
#181 = CARTESIAN_POINT ( 'NONE',  ( -721.7033147395563900, -1152.450762717388900, 139.1811409807224000 ) ) ;
#182 = EDGE_CURVE ( 'NONE', #302, #302, #630, .T. ) ;
#183 = CARTESIAN_POINT ( 'NONE',  ( 0.0000000000000000000, -1985.000000000000200, -534.1064222490490500 ) ) ;
#184 =( NAMED_UNIT ( * ) SI_UNIT ( $, .STERADIAN. ) SOLID_ANGLE_UNIT ( ) );
#185 = COLOUR_RGB ( '',0.3803921568627450800, 0.4784313725490195700, 0.7882352941176470300 ) ;
#186 = FACE_OUTER_BOUND ( 'NONE', #134, .T. ) ;
#187 = CARTESIAN_POINT ( 'NONE',  ( -728.5788879992686600, -1310.544961982209100, 97.01381656420764400 ) ) ;
#188 = DIRECTION ( 'NONE',  ( -0.0000000000000000000, -1.000000000000000000, -0.0000000000000000000 ) ) ;
#189 = CARTESIAN_POINT ( 'NONE',  ( 722.1618430490417500, 1209.043277772666200, -136.7752785682315000 ) ) ;
#190 = FILL_AREA_STYLE_COLOUR ( '', #730 ) ;
#191 = FACE_OUTER_BOUND ( 'NONE', #440, .T. ) ;
#192 = CARTESIAN_POINT ( 'NONE',  ( -720.9098405012669000, -1233.423047026324900, 143.2302880741359000 ) ) ;
#193 = FILL_AREA_STYLE ('',( #498 ) ) ;
#194 = SURFACE_STYLE_FILL_AREA ( #193 ) ;
#195 = CARTESIAN_POINT ( 'NONE',  ( -732.4952370588184700, -1333.927308253368200, 60.78958838123051600 ) ) ;
#196 =( NAMED_UNIT ( * ) PLANE_ANGLE_UNIT ( ) SI_UNIT ( $, .RADIAN. ) );
#197 = CARTESIAN_POINT ( 'NONE',  ( -734.7175807306960000, -1345.581433502520900, -20.40853694617463200 ) ) ;
#198 = CARTESIAN_POINT ( 'NONE',  ( 1470.000000000001400, -1500.000000000000000, -735.0000000000006800 ) ) ;
#199 =( GEOMETRIC_REPRESENTATION_CONTEXT ( 3 ) GLOBAL_UNCERTAINTY_ASSIGNED_CONTEXT ( ( #103 ) ) GLOBAL_UNIT_ASSIGNED_CONTEXT ( ( #620, #692, #142 ) ) REPRESENTATION_CONTEXT ( 'NONE', 'WORKASPACE' ) );
#200 = CARTESIAN_POINT ( 'NONE',  ( -732.3984070778002400, -1333.385482326828000, -61.79630272703132500 ) ) ;
#201 = PLANE ( 'NONE',  #60 ) ;
#202 = CARTESIAN_POINT ( 'NONE',  ( -728.8282517424391900, -1312.146668094467700, -95.06772182493986600 ) ) ;
#203 =( LENGTH_UNIT ( ) NAMED_UNIT ( * ) SI_UNIT ( .MILLI., .METRE. ) );
#204 = PRESENTATION_STYLE_ASSIGNMENT (( #250 ) ) ;
#205 = CARTESIAN_POINT ( 'NONE',  ( -734.9994255804000400, -1346.997127901514000, 4.893994835759364100 ) ) ;
#206 =( LENGTH_UNIT ( ) NAMED_UNIT ( * ) SI_UNIT ( .MILLI., .METRE. ) );
#207 = CARTESIAN_POINT ( 'NONE',  ( -734.3418291018759900, -1343.673207234108800, 31.12048015295501800 ) ) ;
#208 =( NAMED_UNIT ( * ) PLANE_ANGLE_UNIT ( ) SI_UNIT ( $, .RADIAN. ) );
#209 = CARTESIAN_POINT ( 'NONE',  ( -735.0006738048578000, -1052.996630974916300, 4.750167145003945100 ) ) ;
#210 = CARTESIAN_POINT ( 'NONE',  ( -1.763034163104748600E-012, 1985.000000000000200, 0.0000000000000000000 ) ) ;
#211 = PRODUCT_RELATED_PRODUCT_CATEGORY ( 'part', '', ( #281 ) ) ;
#212 = COLOUR_RGB ( '',0.3803921568627450800, 0.4784313725490195700, 0.7882352941176470300 ) ;
#213 = ORIENTED_EDGE ( 'NONE', *, *, #718, .T. ) ;
#214 = AXIS2_PLACEMENT_3D ( 'NONE', #210, #388, #341 ) ;
#215 = CARTESIAN_POINT ( 'NONE',  ( -732.4838759039124600, -1066.134573737769900, -60.92923260234542900 ) ) ;
#216 =( NAMED_UNIT ( * ) SI_UNIT ( $, .STERADIAN. ) SOLID_ANGLE_UNIT ( ) );
#217 = CARTESIAN_POINT ( 'NONE',  ( -722.6875447111630100, -1139.330812680840600, -133.9820498256667900 ) ) ;
#218 =( NAMED_UNIT ( * ) SI_UNIT ( $, .STERADIAN. ) SOLID_ANGLE_UNIT ( ) );
#219 = CARTESIAN_POINT ( 'NONE',  ( -727.8415045513091900, -1094.453462698504600, -102.3458197997297700 ) ) ;
#220 = CARTESIAN_POINT ( 'NONE',  ( 500.0000000000000000, 1985.000000000000700, 250.0000000000000000 ) ) ;
#221 = CARTESIAN_POINT ( 'NONE',  ( 726.5106922817842600, 1279.847102072215400, 111.4162703657092700 ) ) ;
#222 = CARTESIAN_POINT ( 'NONE',  ( -725.6844544202468800, -1110.471505110959000, -116.6896717071260400 ) ) ;
#223 = CARTESIAN_POINT ( 'NONE',  ( 0.0000000000000000000, -1985.000000000000200, -249.9999999999999100 ) ) ;
#224 = CARTESIAN_POINT ( 'NONE',  ( 722.3284365485234300, 1182.048755750832700, -135.8927203014886200 ) ) ;
#225 = CARTESIAN_POINT ( 'NONE',  ( 729.4348498925095300, 1096.939687509629300, 90.29183007723720800 ) ) ;
#226 = CARTESIAN_POINT ( 'NONE',  ( 724.6660450968968200, 1139.288500145331700, 122.8185219835703500 ) ) ;
#227 = CARTESIAN_POINT ( 'NONE',  ( 733.4254223048980100, 1071.704561246089300, 48.26473310704606900 ) ) ;
#228 = CARTESIAN_POINT ( 'NONE',  ( 500.0000000000000000, 1985.000000000000700, -250.0000000000000000 ) ) ;
#229 = CARTESIAN_POINT ( 'NONE',  ( 724.9250149618607100, 1136.272042350166700, 121.2807195689716100 ) ) ;
#230 = CARTESIAN_POINT ( 'NONE',  ( 723.5292378974794500, 1154.837129359184200, -129.3467892472139600 ) ) ;
#231 = CARTESIAN_POINT ( 'NONE',  ( 722.8358062566391000, 1232.199310931192700, 133.1670933469689300 ) ) ;
#232 = EDGE_LOOP ( 'NONE', ( #43 ) ) ;
#233 = CARTESIAN_POINT ( 'NONE',  ( 733.6739770440718800, 1329.699923822506700, 44.18187604102527600 ) ) ;
#234 = CARTESIAN_POINT ( 'NONE',  ( 734.7912004351462700, 1335.876046903057400, 18.07822443661686800 ) ) ;
#235 = CARTESIAN_POINT ( 'NONE',  ( 734.9970568689711900, 1336.984212279020300, 2.368038636540107600 ) ) ;
#236 = CARTESIAN_POINT ( 'NONE',  ( -720.9282176884859200, -1166.428708910829100, 143.1358491655692800 ) ) ;
#237 =( GEOMETRIC_REPRESENTATION_CONTEXT ( 3 ) GLOBAL_UNCERTAINTY_ASSIGNED_CONTEXT ( ( #385 ) ) GLOBAL_UNIT_ASSIGNED_CONTEXT ( ( #203, #208, #561 ) ) REPRESENTATION_CONTEXT ( 'NONE', 'WORKASPACE' ) );
#238 = SURFACE_STYLE_FILL_AREA ( #30 ) ;
#239 = CARTESIAN_POINT ( 'NONE',  ( 730.2597321904152100, 1308.737048480625600, -83.34580589444412600 ) ) ;
#240 = CARTESIAN_POINT ( 'NONE',  ( 1068.212844498098100, -1985.000000000000500, 534.1064222490490500 ) ) ;
#241 = CARTESIAN_POINT ( 'NONE',  ( 729.0162176070056100, 1300.091839917540700, -93.65076144181247700 ) ) ;
#242 = CARTESIAN_POINT ( 'NONE',  ( 0.0000000000000000000, -1784.106422249049000, -735.0000000000004500 ) ) ;
#243 = CARTESIAN_POINT ( 'NONE',  ( -723.8875359916706900, -1273.585253702482300, 127.3463567581222000 ) ) ;
#244 = CARTESIAN_POINT ( 'NONE',  ( -725.9448702533545700, -1108.439547346525600, 115.0278965299277200 ) ) ;
#245 = CARTESIAN_POINT ( 'NONE',  ( -730.8830167760771700, -1324.797406345990100, 77.69217515553488300 ) ) ;
#246 = CARTESIAN_POINT ( 'NONE',  ( -723.8965207422998000, -1126.326087312247900, 127.2953931600532200 ) ) ;
#247 = COLOUR_RGB ( '',0.3803921568627450800, 0.4784313725490195700, 0.7882352941176470300 ) ;
#248 = FACE_OUTER_BOUND ( 'NONE', #591, .T. ) ;
#249 = CARTESIAN_POINT ( 'NONE',  ( -730.6626719343698800, -1323.500399097571700, 79.73780868461864200 ) ) ;
#250 = SURFACE_STYLE_USAGE ( .BOTH. , #74 ) ;
#251 = PRESENTATION_LAYER_ASSIGNMENT (  '', '', ( #393 ) ) ;
#252 = CARTESIAN_POINT ( 'NONE',  ( -720.1499843782552300, -1200.000000000000000, 146.9999999999997400 ) ) ;
#253 =( GEOMETRIC_REPRESENTATION_CONTEXT ( 3 ) GLOBAL_UNCERTAINTY_ASSIGNED_CONTEXT ( ( #519 ) ) GLOBAL_UNIT_ASSIGNED_CONTEXT ( ( #700, #353, #165 ) ) REPRESENTATION_CONTEXT ( 'NONE', 'WORKASPACE' ) );
#254 = CARTESIAN_POINT ( 'NONE',  ( -499.9999999999999400, 1985.000000000000700, 250.0000000000001400 ) ) ;
#255 = CARTESIAN_POINT ( 'NONE',  ( 0.0000000000000000000, -1985.000000000000200, -249.9999999999999100 ) ) ;
#256 = CARTESIAN_POINT ( 'NONE',  ( 734.7948861404246400, 1064.104041540299700, -17.92463386798236200 ) ) ;
#257 = CARTESIAN_POINT ( 'NONE',  ( -734.2536668216630500, -1343.224639214628300, -33.44916013391775800 ) ) ;
#258 =( NAMED_UNIT ( * ) PLANE_ANGLE_UNIT ( ) SI_UNIT ( $, .RADIAN. ) );
#259 = EDGE_CURVE ( 'NONE', #102, #102, #641, .T. ) ;
#260 = CARTESIAN_POINT ( 'NONE',  ( -734.6120634232735300, -1345.048285444989900, -23.99674005355995400 ) ) ;
#261 = SURFACE_SIDE_STYLE ('',( #594 ) ) ;
#262 = CARTESIAN_POINT ( 'NONE',  ( 726.9193065074549600, 1116.579987675115500, -108.6975487860954100 ) ) ;
#263 = CARTESIAN_POINT ( 'NONE',  ( -734.3911206278281700, -1343.924882824210700, 29.93479946644168200 ) ) ;
#264 = ADVANCED_FACE ( 'NONE', ( #503, #186 ), #299, .T. ) ;
#265 = CARTESIAN_POINT ( 'NONE',  ( -735.0005641115265000, -1347.002820558106800, -4.719909396105972400 ) ) ;
#266 = FACE_OUTER_BOUND ( 'NONE', #566, .T. ) ;
#267 =( GEOMETRIC_REPRESENTATION_CONTEXT ( 3 ) GLOBAL_UNCERTAINTY_ASSIGNED_CONTEXT ( ( #547 ) ) GLOBAL_UNIT_ASSIGNED_CONTEXT ( ( #615, #196, #443 ) ) REPRESENTATION_CONTEXT ( 'NONE', 'WORKASPACE' ) );
#268 = CARTESIAN_POINT ( 'NONE',  ( 730.2471681260890400, 1091.313449844498300, -83.52308935278883000 ) ) ;
#269 = ADVANCED_FACE ( 'NONE', ( #292, #120 ), #354, .T. ) ;
#270 = CARTESIAN_POINT ( 'NONE',  ( -723.8995880773729800, -1273.705931973075400, -127.2782749602711000 ) ) ;
#271 = SURFACE_SIDE_STYLE ('',( #238 ) ) ;
#272 = CARTESIAN_POINT ( 'NONE',  ( -725.2183799042807100, -1114.317418108657000, -119.5435304607148600 ) ) ;
#273 = CARTESIAN_POINT ( 'NONE',  ( -1025.400000000000100, -1200.000000000000000, 146.9999999999997200 ) ) ;
#274 = CARTESIAN_POINT ( 'NONE',  ( -720.9223781743862700, -1166.616245410572000, -143.1642348154243500 ) ) ;
#275 = FILL_AREA_STYLE ('',( #147 ) ) ;
#276 = CARTESIAN_POINT ( 'NONE',  ( -734.9750311538557500, -1053.124883053037100, -6.177982324540419500 ) ) ;
#277 = ORIENTED_EDGE ( 'NONE', *, *, #182, .F. ) ;
#278 = MECHANICAL_DESIGN_GEOMETRIC_PRESENTATION_REPRESENTATION (  '', ( #46 ), #320 ) ;
#279 = CARTESIAN_POINT ( 'NONE',  ( -728.8085449183665800, -1087.988819592103900, -95.20480441975890100 ) ) ;
#280 = CARTESIAN_POINT ( 'NONE',  ( 722.5379531484102200, 1175.303329950119200, 134.7742814046868600 ) ) ;
#281 = PRODUCT ( 'pressure_vessel_fluid', 'pressure_vessel_fluid', '', ( #358 ) ) ;
#282 = CARTESIAN_POINT ( 'NONE',  ( -720.9779329241546300, -1165.437708489323300, -142.8842539045428200 ) ) ;
#283 = CARTESIAN_POINT ( 'NONE',  ( 723.2740785372719800, 1159.127646576723200, -130.7658890325844500 ) ) ;
#284 = CARTESIAN_POINT ( 'NONE',  ( 732.3273435851192500, 1078.145871243892100, 62.65467303230080600 ) ) ;
#285 = CARTESIAN_POINT ( 'NONE',  ( 1470.000000000001100, 1784.106422249049300, 735.0000000000005700 ) ) ;
#286 = CARTESIAN_POINT ( 'NONE',  ( 723.0964915533926400, 1237.644670361901500, 131.7455938270138900 ) ) ;
#287 = CARTESIAN_POINT ( 'NONE',  ( 724.6558896403915900, 1139.291759146243300, -122.8958510912627600 ) ) ;
#288 =( LENGTH_UNIT ( ) NAMED_UNIT ( * ) SI_UNIT ( .MILLI., .METRE. ) );
#289 = CARTESIAN_POINT ( 'NONE',  ( 724.8377787601415300, 1137.271897715925000, 121.8009061570181000 ) ) ;
#290 = CARTESIAN_POINT ( 'NONE',  ( -730.0054279618995000, -1080.442703507994600, 85.56233465980737700 ) ) ;
#291 = CARTESIAN_POINT ( 'NONE',  ( 723.8765697762870600, 1149.546445161203800, -127.3910302293567200 ) ) ;
#292 = FACE_OUTER_BOUND ( 'NONE', #504, .T. ) ;
#293 = APPLICATION_CONTEXT ( 'automotive_design' ) ;
#294 = CARTESIAN_POINT ( 'NONE',  ( 722.4654995076197100, 1177.519360198571800, 135.1618187968826100 ) ) ;
#295 = CARTESIAN_POINT ( 'NONE',  ( 733.1883187438736500, 1326.922384880126400, 51.58461915427090400 ) ) ;
#296 = AXIS2_PLACEMENT_3D ( 'NONE', #64, #723, #434 ) ;
#297 = CARTESIAN_POINT ( 'NONE',  ( 734.1609415113773600, 1332.430901517314600, -35.37552055232394100 ) ) ;
#298 =( LENGTH_UNIT ( ) NAMED_UNIT ( * ) SI_UNIT ( .MILLI., .METRE. ) );
#299 =( BOUNDED_SURFACE ( )  B_SPLINE_SURFACE ( 3, 3, ( 
 ( #121, #664, #423, #14, #428, #480, #482 ),
 ( #183, #603, #240, #300, #721, #367, #8 ),
 ( #242, #426, #430, #662, #607, #487, #124 ),
 ( #305, #198, #136, #553, #24, #679, #139 ) ),
 .UNSPECIFIED., .F., .T., .F. ) 
 B_SPLINE_SURFACE_WITH_KNOTS ( ( 4, 4 ),
 ( 4, 3, 4 ),
 ( 0.0000000000000000000, 1.000000000000000000 ),
 ( 0.0000000000000000000, 0.5000000000000000000, 1.000000000000000000 ),
 .UNSPECIFIED. ) 
 GEOMETRIC_REPRESENTATION_ITEM ( )  RATIONAL_B_SPLINE_SURFACE ( (
 ( 1.000000000000000000, 0.3333333333333333100, 0.3333333333333333100, 1.000000000000000000, 0.3333333333333333100, 0.3333333333333333100, 1.000000000000000000),
 ( 0.8047378541243652700, 0.2682459513747884100, 0.2682459513747884100, 0.8047378541243652700, 0.2682459513747884100, 0.2682459513747884100, 0.8047378541243652700),
 ( 0.8047378541243652700, 0.2682459513747884100, 0.2682459513747884100, 0.8047378541243652700, 0.2682459513747884100, 0.2682459513747884100, 0.8047378541243652700),
 ( 1.000000000000000000, 0.3333333333333333100, 0.3333333333333333100, 1.000000000000000000, 0.3333333333333333100, 0.3333333333333333100, 1.000000000000000000) ) ) 
 REPRESENTATION_ITEM ( '' )  SURFACE ( )  );
#300 = CARTESIAN_POINT ( 'NONE',  ( 0.0000000000000000000, -1985.000000000000200, 534.1064222490490500 ) ) ;
#301 = CARTESIAN_POINT ( 'NONE',  ( 728.1786495261868600, 1293.796996272990100, -99.95481492591864000 ) ) ;
#302 = VERTEX_POINT ( 'NONE', #101 ) ;
#303 = PRESENTATION_STYLE_ASSIGNMENT (( #450 ) ) ;
#304 = CARTESIAN_POINT ( 'NONE',  ( 3.061616997868383800E-014, 1985.000000000000500, 250.0000000000000600 ) ) ;
#305 = CARTESIAN_POINT ( 'NONE',  ( 0.0000000000000000000, -1500.000000000000200, -735.0000000000006800 ) ) ;
#306 = EDGE_LOOP ( 'NONE', ( #170 ) ) ;
#307 = CARTESIAN_POINT ( 'NONE',  ( 724.3342169788378400, 1256.753242394469900, -124.7716676452010800 ) ) ;
#308 = SURFACE_SIDE_STYLE ('',( #52 ) ) ;
#309 = CARTESIAN_POINT ( 'NONE',  ( -724.9920570150119400, -1283.674442136417400, 120.8856709485265100 ) ) ;
#310 = CARTESIAN_POINT ( 'NONE',  ( -499.9999999999997700, -1985.000000000000500, 249.9999999999999700 ) ) ;
#311 = CARTESIAN_POINT ( 'NONE',  ( -720.1993536731758900, -1209.695658313316900, 146.7587295984063800 ) ) ;
#312 =( LENGTH_UNIT ( ) NAMED_UNIT ( * ) SI_UNIT ( .MILLI., .METRE. ) );
#313 = SURFACE_STYLE_FILL_AREA ( #275 ) ;
#314 = EDGE_LOOP ( 'NONE', ( #153 ) ) ;
#315 = DIRECTION ( 'NONE',  ( 0.0000000000000000000, 0.0000000000000000000, 1.000000000000000000 ) ) ;
#316 = COLOUR_RGB ( '',0.3803921568627450800, 0.4784313725490195700, 0.7882352941176470300 ) ;
#317 = CARTESIAN_POINT ( 'NONE',  ( 735.0004834447502200, 1062.997406336132100, 4.398166504850214800 ) ) ;
#318 = CARTESIAN_POINT ( 'NONE',  ( -730.8907242839441100, -1324.868379585672300, -77.71579947553937000 ) ) ;
#319 = FILL_AREA_STYLE ('',( #745 ) ) ;
#320 =( GEOMETRIC_REPRESENTATION_CONTEXT ( 3 ) GLOBAL_UNCERTAINTY_ASSIGNED_CONTEXT ( ( #333 ) ) GLOBAL_UNIT_ASSIGNED_CONTEXT ( ( #460, #162, #218 ) ) REPRESENTATION_CONTEXT ( 'NONE', 'WORKASPACE' ) );
#321 = CARTESIAN_POINT ( 'NONE',  ( 734.3381531979981700, 1066.596165644552500, -31.20413071110448300 ) ) ;
#322 = CARTESIAN_POINT ( 'NONE',  ( -720.3445125338332700, -1216.912492042587000, -146.0439755266243400 ) ) ;
#323 = CARTESIAN_POINT ( 'NONE',  ( 1025.400000000000100, 1200.000000000000000, 0.0000000000000000000 ) ) ;
#324 =( BOUNDED_CURVE ( )  B_SPLINE_CURVE ( 3, ( #489, #123, #544, #304, #254, #552, #724 ),
 .UNSPECIFIED., .T., .T. ) 
 B_SPLINE_CURVE_WITH_KNOTS ( ( 4, 3, 4 ),
 ( 0.0000000000000000000, 0.5000000000000000000, 1.000000000000000000 ),
 .UNSPECIFIED. ) 
 CURVE ( )  GEOMETRIC_REPRESENTATION_ITEM ( )  RATIONAL_B_SPLINE_CURVE ( ( 1.000000000000000000, 0.3333333333333333700, 0.3333333333333333700, 1.000000000000000000, 0.3333333333333333700, 0.3333333333333333700, 1.000000000000000000 ) ) 
 REPRESENTATION_ITEM ( '' )  );
#325 = CARTESIAN_POINT ( 'NONE',  ( 734.9580979730895900, 1063.224298196710600, -9.022827782879300400 ) ) ;
#326 = ADVANCED_FACE ( 'NONE', ( #701 ), #16, .T. ) ;
#327 = CARTESIAN_POINT ( 'NONE',  ( -728.5883597803199300, -1310.578278178302500, -96.88782482675581800 ) ) ;
#328 =( NAMED_UNIT ( * ) PLANE_ANGLE_UNIT ( ) SI_UNIT ( $, .RADIAN. ) );
#329 = FILL_AREA_STYLE_COLOUR ( '', #669 ) ;
#330 = CARTESIAN_POINT ( 'NONE',  ( 734.6730816552901600, 1064.762103998047900, -22.36190445673076300 ) ) ;
#331 = CARTESIAN_POINT ( 'NONE',  ( -734.9539868877933500, -1346.770501031729500, -9.541921286006113300 ) ) ;
#332 = SURFACE_SIDE_STYLE ('',( #712 ) ) ;
#333 = UNCERTAINTY_MEASURE_WITH_UNIT (LENGTH_MEASURE( 1.000000000000000100E-005 ), #460, 'distance_accuracy_value', 'NONE');
#334 = CARTESIAN_POINT ( 'NONE',  ( -721.1523172991375100, -1161.919116745431200, -142.0024449221185700 ) ) ;
#335 = CARTESIAN_POINT ( 'NONE',  ( 1025.400000000000100, 1200.000000000000000, 0.0000000000000000000 ) ) ;
#336 = PRODUCT_DEFINITION ( 'UNKNOWN', '', #3, #176 ) ;
#337 =( GEOMETRIC_REPRESENTATION_CONTEXT ( 3 ) GLOBAL_UNCERTAINTY_ASSIGNED_CONTEXT ( ( #167 ) ) GLOBAL_UNIT_ASSIGNED_CONTEXT ( ( #736, #381, #740 ) ) REPRESENTATION_CONTEXT ( 'NONE', 'WORKASPACE' ) );
#338 = CYLINDRICAL_SURFACE ( 'NONE', #444, 136.9999999999998600 ) ;
#339 = STYLED_ITEM ( 'NONE', ( #599 ), #77 ) ;
#340 = ORIENTED_EDGE ( 'NONE', *, *, #718, .F. ) ;
#341 = DIRECTION ( 'NONE',  ( 0.0000000000000000000, -0.0000000000000000000, -1.000000000000000000 ) ) ;
#342 = CARTESIAN_POINT ( 'NONE',  ( -734.9966389248074800, -1053.016803155761200, -2.533570891629292700 ) ) ;
#343 = CARTESIAN_POINT ( 'NONE',  ( 0.0000000000000000000, 1985.000000000000500, -534.1064222490492700 ) ) ;
#344 = CARTESIAN_POINT ( 'NONE',  ( 0.0000000000000000000, 1500.000000000000000, -735.0000000000008000 ) ) ;
#345 = CARTESIAN_POINT ( 'NONE',  ( 729.4157242109179200, 1302.916613719808300, 90.43471274075240300 ) ) ;
#346 = CARTESIAN_POINT ( 'NONE',  ( -733.6174556678225800, -1060.074857900527400, -45.11936188976837800 ) ) ;
#347 = CARTESIAN_POINT ( 'NONE',  ( 1470.000000000001100, 1500.000000000000000, -735.0000000000005700 ) ) ;
#348 = CARTESIAN_POINT ( 'NONE',  ( 722.4479220196436700, 1222.240402322270700, 135.2582771321399400 ) ) ;
#349 = CYLINDRICAL_SURFACE ( 'NONE', #132, 735.0000000000008000 ) ;
#350 = ORIENTED_EDGE ( 'NONE', *, *, #182, .T. ) ;
#351 = DIRECTION ( 'NONE',  ( 1.000000000000000000, -0.0000000000000000000, -0.0000000000000000000 ) ) ;
#352 = CARTESIAN_POINT ( 'NONE',  ( 732.9800354931677500, 1074.284249944369800, 54.49404742436194500 ) ) ;
#353 =( NAMED_UNIT ( * ) PLANE_ANGLE_UNIT ( ) SI_UNIT ( $, .RADIAN. ) );
#354 = CYLINDRICAL_SURFACE ( 'NONE', #296, 146.9999999999998600 ) ;
#355 = CARTESIAN_POINT ( 'NONE',  ( 722.3403388925022500, 1181.984829214738500, 135.8291207655440500 ) ) ;
#356 = CARTESIAN_POINT ( 'NONE',  ( -728.5886722174212800, -1089.390134576645300, 96.94133327619081800 ) ) ;
#357 = CARTESIAN_POINT ( 'NONE',  ( 722.9849857371442600, 1164.370456879959000, 132.3610797772573700 ) ) ;
#358 = PRODUCT_CONTEXT ( 'NONE', #770, 'mechanical' ) ;
#359 = CARTESIAN_POINT ( 'NONE',  ( 722.9868656068285900, 1235.479277205461400, 132.3453905078452000 ) ) ;
#360 = ORIENTED_EDGE ( 'NONE', *, *, #9, .F. ) ;
#361 = CARTESIAN_POINT ( 'NONE',  ( 731.4452105488426200, 1316.456561643569800, -72.29767441806755800 ) ) ;
#362 = CARTESIAN_POINT ( 'NONE',  ( 734.9466151630433600, 1336.713348126440200, 9.140535294256427100 ) ) ;
#363 = CARTESIAN_POINT ( 'NONE',  ( -729.5379761788292400, -1083.337255230144100, 89.44418223832055000 ) ) ;
#364 = CARTESIAN_POINT ( 'NONE',  ( 734.6764199246370000, 1335.255953501250600, -22.24496876377105200 ) ) ;
#365 = CARTESIAN_POINT ( 'NONE',  ( -725.7087693158627000, -1110.328985883378200, 116.5070791017047800 ) ) ;
#366 = AXIS2_PLACEMENT_3D ( 'NONE', #48, #704, #464 ) ;
#367 = CARTESIAN_POINT ( 'NONE',  ( -1068.212844498098100, -1985.000000000000500, -534.1064222490490500 ) ) ;
#368 = PRESENTATION_STYLE_ASSIGNMENT (( #19 ) ) ;
#369 = COLOUR_RGB ( '',0.3803921568627450800, 0.4784313725490195700, 0.7882352941176470300 ) ;
#370 = CARTESIAN_POINT ( 'NONE',  ( 727.7600741238928800, 1290.500989543344500, -102.9489484052062800 ) ) ;
#371 =( NAMED_UNIT ( * ) PLANE_ANGLE_UNIT ( ) SI_UNIT ( $, .RADIAN. ) );
#372 = CARTESIAN_POINT ( 'NONE',  ( -722.1794071898464200, -1254.148043086831600, 136.6849897999284200 ) ) ;
#373 = CARTESIAN_POINT ( 'NONE',  ( -724.3291671714538300, -1122.200686730228000, 124.8188097752525700 ) ) ;
#374 = CARTESIAN_POINT ( 'NONE',  ( -727.1316850853585300, -1300.576736267758900, 107.3134511859145000 ) ) ;
#375 = CARTESIAN_POINT ( 'NONE',  ( 499.9999999999997700, -1985.000000000000500, -249.9999999999999100 ) ) ;
#376 = PRESENTATION_LAYER_ASSIGNMENT (  '', '', ( #339 ) ) ;
#377 =( GEOMETRIC_REPRESENTATION_CONTEXT ( 3 ) GLOBAL_UNCERTAINTY_ASSIGNED_CONTEXT ( ( #567 ) ) GLOBAL_UNIT_ASSIGNED_CONTEXT ( ( #748, #515, #509 ) ) REPRESENTATION_CONTEXT ( 'NONE', 'WORKASPACE' ) );
#378 = CARTESIAN_POINT ( 'NONE',  ( -722.6999955967377200, -1260.818921724662200, 133.9150730396291100 ) ) ;
#379 = CARTESIAN_POINT ( 'NONE',  ( 0.0000000000000000000, -1985.000000000000200, -249.9999999999999100 ) ) ;
#380 = CARTESIAN_POINT ( 'NONE',  ( -725.9282249868410900, -1291.428711579950000, 115.1330355424553000 ) ) ;
#381 =( NAMED_UNIT ( * ) PLANE_ANGLE_UNIT ( ) SI_UNIT ( $, .RADIAN. ) );
#382 = CARTESIAN_POINT ( 'NONE',  ( 731.9793981325115100, 1080.254756992772400, -66.59643118408615700 ) ) ;
#383 = CARTESIAN_POINT ( 'NONE',  ( -732.6705808058610500, -1334.871836925979100, -58.48120500310988500 ) ) ;
#384 = FILL_AREA_STYLE_COLOUR ( '', #462 ) ;
#385 = UNCERTAINTY_MEASURE_WITH_UNIT (LENGTH_MEASURE( 1.000000000000000100E-005 ), #203, 'distance_accuracy_value', 'NONE');
#386 = STYLED_ITEM ( 'NONE', ( #32 ), #264 ) ;
#387 = CARTESIAN_POINT ( 'NONE',  ( -720.1988397179729900, -1209.676328283861300, -146.7612665855339700 ) ) ;
#388 = DIRECTION ( 'NONE',  ( 0.0000000000000000000, -1.000000000000000000, 0.0000000000000000000 ) ) ;
#389 = CARTESIAN_POINT ( 'NONE',  ( -727.7377052255163800, -1304.818326688819300, -103.0707364653686800 ) ) ;
#390 = SURFACE_STYLE_USAGE ( .BOTH. , #271 ) ;
#391 = CARTESIAN_POINT ( 'NONE',  ( 727.1262794210330200, 1114.796666899143200, -107.3054368030361700 ) ) ;
#392 = CARTESIAN_POINT ( 'NONE',  ( -734.8356616648950400, -1346.176137673562800, -15.58889154247473600 ) ) ;
#393 = STYLED_ITEM ( 'NONE', ( #204 ), #445 ) ;
#394 = CARTESIAN_POINT ( 'NONE',  ( -722.7071258955371600, -1260.780985196724700, -133.8675437274972100 ) ) ;
#395 = EDGE_LOOP ( 'NONE', ( #33 ) ) ;
#396 = CARTESIAN_POINT ( 'NONE',  ( -730.8824020401518700, -1075.180222247193800, -77.79417923316410100 ) ) ;
#397 = CARTESIAN_POINT ( 'NONE',  ( 0.0000000000000000000, 1500.000000000000000, -735.0000000000005700 ) ) ;
#398 = B_SPLINE_CURVE_WITH_KNOTS ( 'NONE', 3,
 ( #175, #774, #586, #224, #409, #171, #530, #283, #526, #645, #230, #108, #291, #592, #287, #649, #777, #415, #475, #262, #391, #148, #752, #26, #676, #268, #616, #84, #36, #140, #382, #39, #448, #687, #137, #568, #559, #500, #321, #742, #682, #330, #256, #325, #674, #317, #88, #441, #452, #505, #746, #640, #587, #523, #471, #109, #227, #352, #468, #107, #284, #164, #172, #702, #646, #583, #225, #56, #769, #410, #527, #160, #775, #765, #708, #177, #585, #229, #289, #226, #470, #582, #531, #163, #768, #357, #525, #280, #294, #355, #595, #51, #779, #169, #55, #405, #348, #106, #408, #115, #231, #359, #286, #714, #521, #642, #529, #705, #651, #416, #590, #221, #771, #57, #473, #638, #116, #635, #345, #698, #648, #59, #111, #174, #413, #717, #7, #295, #67, #180, #418, #233, #62, #654, #63, #537, #234, #476, #362, #722, #601, #235, #657, #719, #4, #420, #364, #598, #297, #661, #652, #422, #605, #535, #479, #65, #361, #597, #481, #539, #239, #425, #483, #542, #241, #301, #370, #10, #427, #69, #486, #533, #178, #663, #307, #550, #733, #71, #437, #490, #78, #439, #130, #189, #727, #612 ),
 .UNSPECIFIED., .T., .F.,
 ( 4, 2, 2, 2, 2, 2, 2, 2, 2, 2, 2, 2, 2, 2, 2, 2, 2, 2, 2, 2, 2, 2, 2, 2, 2, 2, 2, 2, 2, 2, 2, 2, 2, 2, 2, 2, 2, 2, 2, 2, 2, 2, 2, 2, 2, 2, 2, 2, 2, 2, 2, 2, 2, 2, 2, 2, 2, 2, 2, 2, 2, 2, 2, 2, 2, 2, 2, 2, 2, 2, 2, 2, 2, 2, 2, 2, 2, 2, 2, 2, 2, 2, 2, 2, 2, 2, 2, 2, 2, 2, 2, 2, 4 ),
 ( 0.0000000000000000000, 0.01341275987589166600, 0.02682551975178333300, 0.04023827962767499700, 0.04359146959664822500, 0.04694465956562144500, 0.05365103950356725500, 0.06706379937945951300, 0.08047655925535178400, 0.08718293919329821200, 0.09388931913124462500, 0.1073020790071379500, 0.1207148388830312600, 0.1341275987589245500, 0.1408339786968712000, 0.1475403586348178500, 0.1609531185107114500, 0.1743658783866050600, 0.1810722583245517300, 0.1844254482935250800, 0.1877786382624984100, 0.2011913981383919000, 0.2146041580142853700, 0.2280169178901788600, 0.2313701078591522400, 0.2347232978281256500, 0.2414296777660725200, 0.2548424376419661800, 0.2682551975178598100, 0.2749615774558065200, 0.2816679573937532200, 0.2950807172696463000, 0.3084934771455393200, 0.3151998570834860800, 0.3185530470524596800, 0.3219062370214332300, 0.3353189968973272500, 0.3487317567732212700, 0.3621445166491152300, 0.3654977066180888900, 0.3688508965870624900, 0.3755572765250092000, 0.3889700364009027200, 0.4023827962767961800, 0.4090891762147426100, 0.4157955561526889800, 0.4292083160285817800, 0.4426210759044746400, 0.4560338357803674400, 0.4593870257493406500, 0.4627402157183138100, 0.4694465956562602300, 0.4828593555321530900, 0.4962721154080458900, 0.5029784953459922600, 0.5096848752839386900, 0.5230976351598319900, 0.5365103950357251700, 0.5432167749736721600, 0.5465699649426455400, 0.5499231549116188100, 0.5633359147875133300, 0.5767486746634077300, 0.5901614345393021400, 0.5935146245082756300, 0.5968678144772490100, 0.6035741944151955500, 0.6169869542910887400, 0.6303997141669820400, 0.6371060941049286900, 0.6404592840739019600, 0.6438124740428752300, 0.6572252339187684100, 0.6706379937946616000, 0.6840507536705547900, 0.6907571336085014400, 0.6974635135464482000, 0.7108762734223418300, 0.7242890332982353500, 0.7309954132361818900, 0.7343486032051552700, 0.7377017931741285400, 0.7511145530500220600, 0.7645273129259155800, 0.7779400728018092100, 0.7846464527397560800, 0.7913528326777027300, 0.8047655925535963700, 0.8181783524294898900, 0.8248847323674367600, 0.8315911123053835200, 0.8450038721812770400, 0.8584166320571706700 ),
 .UNSPECIFIED. ) ;
#399 = CARTESIAN_POINT ( 'NONE',  ( -732.9133691443252000, -1063.815513315367800, -55.35560784428920300 ) ) ;
#400 = CARTESIAN_POINT ( 'NONE',  ( 1025.400000000000100, 1200.000000000000000, -136.9999999999998600 ) ) ;
#401 = CARTESIAN_POINT ( 'NONE',  ( -734.6272400240466100, -1054.872400032684500, 23.87554077191586200 ) ) ;
#402 = CARTESIAN_POINT ( 'NONE',  ( 0.0000000000000000000, 1985.000000000000500, 250.0000000000000600 ) ) ;
#403 = CARTESIAN_POINT ( 'NONE',  ( -729.5269695384921500, -1083.368951972183800, -89.60796723180968100 ) ) ;
#404 = CARTESIAN_POINT ( 'NONE',  ( -500.0000000000000000, 1985.000000000000700, -250.0000000000000000 ) ) ;
#405 = CARTESIAN_POINT ( 'NONE',  ( 722.3246124664874500, 1217.795665917962000, 135.9130273071064900 ) ) ;
#406 = CARTESIAN_POINT ( 'NONE',  ( -724.3202964288009300, -1122.358720041800300, -124.8467376861284800 ) ) ;
#407 = CARTESIAN_POINT ( 'NONE',  ( 0.0000000000000000000, 1784.106422249049300, 735.0000000000005700 ) ) ;
#408 = CARTESIAN_POINT ( 'NONE',  ( 722.6960410938837600, 1228.892638643111900, 133.9234694216674200 ) ) ;
#409 = CARTESIAN_POINT ( 'NONE',  ( 722.4523106307998400, 1177.627391954590200, -135.2347860330726000 ) ) ;
#410 = CARTESIAN_POINT ( 'NONE',  ( 728.8030974530315700, 1101.518799951219300, 95.24559133092120100 ) ) ;
#411 = APPLICATION_PROTOCOL_DEFINITION ( 'draft international standard', 'automotive_design', 1998, #770 ) ;
#412 = CARTESIAN_POINT ( 'NONE',  ( -726.6583429155224400, -1102.892869980959600, 110.4632933616473500 ) ) ;
#413 = CARTESIAN_POINT ( 'NONE',  ( 731.7952464960260400, 1318.628001051390400, 68.67517348618565600 ) ) ;
#414 = FACE_BOUND ( 'NONE', #114, .T. ) ;
#415 = CARTESIAN_POINT ( 'NONE',  ( 726.3144687440842500, 1122.024826892518100, -112.6670961463842200 ) ) ;
#416 = CARTESIAN_POINT ( 'NONE',  ( 725.7313959743752300, 1272.344849238915900, 116.3628952957996000 ) ) ;
#417 = MECHANICAL_DESIGN_GEOMETRIC_PRESENTATION_REPRESENTATION (  '', ( #339 ), #634 ) ;
#418 = CARTESIAN_POINT ( 'NONE',  ( 733.4725445718887600, 1328.553938301146000, 47.37258753522305500 ) ) ;
#419 =( GEOMETRIC_REPRESENTATION_CONTEXT ( 3 ) GLOBAL_UNCERTAINTY_ASSIGNED_CONTEXT ( ( #741 ) ) GLOBAL_UNIT_ASSIGNED_CONTEXT ( ( #152, #328, #216 ) ) REPRESENTATION_CONTEXT ( 'NONE', 'WORKASPACE' ) );
#420 = CARTESIAN_POINT ( 'NONE',  ( 734.7973830066851000, 1335.909449009089900, -17.82316621692311300 ) ) ;
#421 = SURFACE_STYLE_FILL_AREA ( #447 ) ;
#422 = CARTESIAN_POINT ( 'NONE',  ( 733.4172941652079800, 1328.239954227159400, -48.25553417068646000 ) ) ;
#423 = CARTESIAN_POINT ( 'NONE',  ( 499.9999999999997200, -1985.000000000000200, 249.9999999999998600 ) ) ;
#424 = EDGE_CURVE ( 'NONE', #118, #118, #436, .T. ) ;
#425 = CARTESIAN_POINT ( 'NONE',  ( 730.0547447860595900, 1307.351756567369600, -85.12267285730848700 ) ) ;
#426 = CARTESIAN_POINT ( 'NONE',  ( 1470.000000000000700, -1784.106422249049000, -735.0000000000003400 ) ) ;
#427 = CARTESIAN_POINT ( 'NONE',  ( 726.5289255788187600, 1280.013725506842800, -111.2977708840994100 ) ) ;
#428 = CARTESIAN_POINT ( 'NONE',  ( -499.9999999999997200, -1985.000000000000200, 249.9999999999998600 ) ) ;
#429 = CARTESIAN_POINT ( 'NONE',  ( -725.6895865179117200, -1289.515780712245300, 116.6265159090819700 ) ) ;
#430 = CARTESIAN_POINT ( 'NONE',  ( 1470.000000000000700, -1784.106422249049000, 735.0000000000003400 ) ) ;
#431 = ORIENTED_EDGE ( 'NONE', *, *, #259, .F. ) ;
#432 = MECHANICAL_DESIGN_GEOMETRIC_PRESENTATION_REPRESENTATION (  '', ( #393 ), #337 ) ;
#433 = CARTESIAN_POINT ( 'NONE',  ( -723.0787642051356000, -1265.150011840309400, 131.8611394582697200 ) ) ;
#434 = DIRECTION ( 'NONE',  ( 0.0000000000000000000, 0.0000000000000000000, 1.000000000000000000 ) ) ;
#435 = SURFACE_STYLE_USAGE ( .BOTH. , #672 ) ;
#436 =( BOUNDED_CURVE ( )  B_SPLINE_CURVE ( 3, ( #379, #667, #310, #732, #22, #375, #255 ),
 .UNSPECIFIED., .T., .T. ) 
 B_SPLINE_CURVE_WITH_KNOTS ( ( 4, 3, 4 ),
 ( 0.0000000000000000000, 0.5000000000000000000, 1.000000000000000000 ),
 .UNSPECIFIED. ) 
 CURVE ( )  GEOMETRIC_REPRESENTATION_ITEM ( )  RATIONAL_B_SPLINE_CURVE ( ( 1.000000000000000000, 0.3333333333333333700, 0.3333333333333333700, 1.000000000000000000, 0.3333333333333333700, 0.3333333333333333700, 1.000000000000000000 ) ) 
 REPRESENTATION_ITEM ( '' )  );
#437 = CARTESIAN_POINT ( 'NONE',  ( 722.9968335039764000, 1235.682442690958900, -132.2909510047811100 ) ) ;
#438 =( NAMED_UNIT ( * ) SI_UNIT ( $, .STERADIAN. ) SOLID_ANGLE_UNIT ( ) );
#439 = CARTESIAN_POINT ( 'NONE',  ( 722.4545293699562800, 1222.451630682424800, -135.2230107188765100 ) ) ;
#440 = EDGE_LOOP ( 'NONE', ( #738 ) ) ;
#441 = CARTESIAN_POINT ( 'NONE',  ( 734.8573751405091300, 1063.767207958166600, 14.52266021052583700 ) ) ;
#442 = CARTESIAN_POINT ( 'NONE',  ( -722.0053185702091700, -1251.916130861972300, -137.6111869251684800 ) ) ;
#443 =( NAMED_UNIT ( * ) SI_UNIT ( $, .STERADIAN. ) SOLID_ANGLE_UNIT ( ) );
#444 = AXIS2_PLACEMENT_3D ( 'NONE', #79, #558, #150 ) ;
#445 = ADVANCED_FACE ( 'NONE', ( #495 ), #491, .T. ) ;
#446 = CARTESIAN_POINT ( 'NONE',  ( -720.1495880007582900, -1195.256727658744200, -147.0019418453937900 ) ) ;
#447 = FILL_AREA_STYLE ('',( #629 ) ) ;
#448 = CARTESIAN_POINT ( 'NONE',  ( 732.8257257795313500, 1075.178603996254400, -56.64370367587802200 ) ) ;
#449 = CARTESIAN_POINT ( 'NONE',  ( -724.3315229999404900, -1277.818660693712000, -124.8043522798987800 ) ) ;
#450 = SURFACE_STYLE_USAGE ( .BOTH. , #563 ) ;
#451 = VERTEX_POINT ( 'NONE', #400 ) ;
#452 = CARTESIAN_POINT ( 'NONE',  ( 734.8342122391803700, 1063.892182473712400, 15.65059072956703000 ) ) ;
#453 = CARTESIAN_POINT ( 'NONE',  ( -721.6940256737756300, -1247.404459044443700, -139.2291410763222900 ) ) ;
#454 = CARTESIAN_POINT ( 'NONE',  ( -729.5392511746921400, -1316.707058533471100, -89.50670410178329900 ) ) ;
#455 = CARTESIAN_POINT ( 'NONE',  ( -723.8863299346053300, -1126.517381640050200, -127.3388434978991500 ) ) ;
#456 = FILL_AREA_STYLE_COLOUR ( '', #185 ) ;
#457 = AXIS2_PLACEMENT_3D ( 'NONE', #618, #734, #315 ) ;
#458 = STYLED_ITEM ( 'NONE', ( #303 ), #703 ) ;
#459 = CARTESIAN_POINT ( 'NONE',  ( -732.9973044396523400, -1063.364597037908000, -54.23316221551051100 ) ) ;
#460 =( LENGTH_UNIT ( ) NAMED_UNIT ( * ) SI_UNIT ( .MILLI., .METRE. ) );
#461 = FACE_OUTER_BOUND ( 'NONE', #314, .T. ) ;
#462 = COLOUR_RGB ( '',0.3803921568627450800, 0.4784313725490195700, 0.7882352941176470300 ) ;
#463 = CARTESIAN_POINT ( 'NONE',  ( -734.0331889477081400, -1057.906284293209000, 37.97197170562653000 ) ) ;
#464 = DIRECTION ( 'NONE',  ( 0.0000000000000000000, 0.0000000000000000000, -1.000000000000000000 ) ) ;
#465 = CARTESIAN_POINT ( 'NONE',  ( -733.1763486655141800, -1062.405676585049400, 51.79427492229859800 ) ) ;
#466 = MECHANICAL_DESIGN_GEOMETRIC_PRESENTATION_REPRESENTATION (  '', ( #386 ), #499 ) ;
#467 =( BOUNDED_SURFACE ( )  B_SPLINE_SURFACE ( 3, 3, ( 
 ( #397, #347, #767, #761, #528, #517, #159 ),
 ( #584, #696, #285, #407, #707, #588, #99 ),
 ( #343, #155, #578, #633, #631, #764, #54 ),
 ( #50, #228, #220, #402, #469, #404, #581 ) ),
 .UNSPECIFIED., .F., .T., .T. ) 
 B_SPLINE_SURFACE_WITH_KNOTS ( ( 4, 4 ),
 ( 4, 3, 4 ),
 ( 0.0000000000000000000, 1.000000000000000000 ),
 ( 0.0000000000000000000, 0.5000000000000000000, 1.000000000000000000 ),
 .UNSPECIFIED. ) 
 GEOMETRIC_REPRESENTATION_ITEM ( )  RATIONAL_B_SPLINE_SURFACE ( (
 ( 1.000000000000000000, 0.3333333333333333100, 0.3333333333333333100, 1.000000000000000000, 0.3333333333333333100, 0.3333333333333333100, 1.000000000000000000),
 ( 0.8047378541243649400, 0.2682459513747882900, 0.2682459513747882900, 0.8047378541243649400, 0.2682459513747882900, 0.2682459513747882900, 0.8047378541243649400),
 ( 0.8047378541243649400, 0.2682459513747882900, 0.2682459513747882900, 0.8047378541243649400, 0.2682459513747882900, 0.2682459513747882900, 0.8047378541243649400),
 ( 1.000000000000000000, 0.3333333333333333100, 0.3333333333333333100, 1.000000000000000000, 0.3333333333333333100, 0.3333333333333333100, 1.000000000000000000) ) ) 
 REPRESENTATION_ITEM ( '' )  SURFACE ( )  );
#468 = CARTESIAN_POINT ( 'NONE',  ( 732.8236698929985100, 1075.198399080973600, 56.55679985464106400 ) ) ;
#469 = CARTESIAN_POINT ( 'NONE',  ( -500.0000000000000000, 1985.000000000000700, 250.0000000000000000 ) ) ;
#470 = CARTESIAN_POINT ( 'NONE',  ( 724.5816209510009000, 1140.304468506345500, 123.3155081191840200 ) ) ;
#471 = CARTESIAN_POINT ( 'NONE',  ( 734.1546222418088500, 1067.604237939629900, 35.50095417118031100 ) ) ;
#472 = SURFACE_SIDE_STYLE ('',( #125 ) ) ;
#473 = CARTESIAN_POINT ( 'NONE',  ( 728.1564346626063300, 1293.624799973999900, 100.1165941183398600 ) ) ;
#474 = ADVANCED_FACE ( 'NONE', ( #681 ), #201, .F. ) ;
#475 = CARTESIAN_POINT ( 'NONE',  ( 726.5136735514513500, 1120.191866703767800, -111.3764671201254700 ) ) ;
#476 = CARTESIAN_POINT ( 'NONE',  ( 734.9152423432682300, 1336.544723075384400, 11.38284588589995700 ) ) ;
#477 = CARTESIAN_POINT ( 'NONE',  ( -729.6555636529394600, -1082.604313783052200, 88.48004250609589900 ) ) ;
#478 = EDGE_LOOP ( 'NONE', ( #713 ) ) ;
#479 = CARTESIAN_POINT ( 'NONE',  ( 732.5083273531736300, 1322.950161317249000, -60.59823559861228400 ) ) ;
#480 = CARTESIAN_POINT ( 'NONE',  ( -499.9999999999997200, -1985.000000000000200, -249.9999999999998600 ) ) ;
#481 = CARTESIAN_POINT ( 'NONE',  ( 730.6652752187837900, 1311.433856311922500, -79.72815860074079800 ) ) ;
#482 = CARTESIAN_POINT ( 'NONE',  ( 0.0000000000000000000, -1985.000000000000200, -249.9999999999999100 ) ) ;
#483 = CARTESIAN_POINT ( 'NONE',  ( 729.9517933985572400, 1306.649503602814100, -86.00083383199661600 ) ) ;
#484 = CARTESIAN_POINT ( 'NONE',  ( -720.5372862310906600, -1175.907588697073600, 145.0929205009098600 ) ) ;
#485 = VERTEX_POINT ( 'NONE', #105 ) ;
#486 = CARTESIAN_POINT ( 'NONE',  ( 725.7453113834525300, 1272.483951189014800, -116.2760261446218200 ) ) ;
#487 = CARTESIAN_POINT ( 'NONE',  ( -1470.000000000000700, -1784.106422249049000, -735.0000000000003400 ) ) ;
#488 = CIRCLE ( 'NONE', #25, 146.9999999999998600 ) ;
#489 = CARTESIAN_POINT ( 'NONE',  ( 0.0000000000000000000, 1985.000000000000500, -250.0000000000000600 ) ) ;
#490 = CARTESIAN_POINT ( 'NONE',  ( 722.7933172900177400, 1231.288895453916400, -133.3984162402867600 ) ) ;
#491 = PLANE ( 'NONE',  #457 ) ;
#492 = MECHANICAL_DESIGN_GEOMETRIC_PRESENTATION_REPRESENTATION (  '', ( #596 ), #377 ) ;
#493 = CARTESIAN_POINT ( 'NONE',  ( -721.7784975280890200, -1248.471597612920000, 138.7839114856634500 ) ) ;
#494 = MECHANICAL_DESIGN_GEOMETRIC_PRESENTATION_REPRESENTATION (  '', ( #458 ), #694 ) ;
#495 = FACE_OUTER_BOUND ( 'NONE', #600, .T. ) ;
#496 = CARTESIAN_POINT ( 'NONE',  ( -734.1826305640125800, -1342.857338438359200, 34.67348774113415300 ) ) ;
#497 = CARTESIAN_POINT ( 'NONE',  ( -720.5500603411268200, -1224.127393812229700, -145.0267015296070100 ) ) ;
#498 = FILL_AREA_STYLE_COLOUR ( '', #316 ) ;
#499 =( GEOMETRIC_REPRESENTATION_CONTEXT ( 3 ) GLOBAL_UNCERTAINTY_ASSIGNED_CONTEXT ( ( #575 ) ) GLOBAL_UNIT_ASSIGNED_CONTEXT ( ( #298, #371, #184 ) ) REPRESENTATION_CONTEXT ( 'NONE', 'WORKASPACE' ) );
#500 = CARTESIAN_POINT ( 'NONE',  ( 734.2904582017813500, 1066.858908063860800, -32.30673994077746900 ) ) ;
#501 = CARTESIAN_POINT ( 'NONE',  ( -720.3873761448364800, -1180.899391778224500, -145.8329742864968400 ) ) ;
#502 = SURFACE_STYLE_USAGE ( .BOTH. , #87 ) ;
#503 = FACE_OUTER_BOUND ( 'NONE', #551, .T. ) ;
#504 = EDGE_LOOP ( 'NONE', ( #277 ) ) ;
#505 = CARTESIAN_POINT ( 'NONE',  ( 734.7829710379561400, 1064.169101298863600, 17.89541673153416900 ) ) ;
#506 = CARTESIAN_POINT ( 'NONE',  ( -723.0877766976941500, -1265.151140825859100, -131.7959645596438600 ) ) ;
#507 = SURFACE_STYLE_USAGE ( .BOTH. , #332 ) ;
#508 = CARTESIAN_POINT ( 'NONE',  ( -720.4054536021940300, -1219.332854273288800, -145.7433224349434200 ) ) ;
#509 =( NAMED_UNIT ( * ) SI_UNIT ( $, .STERADIAN. ) SOLID_ANGLE_UNIT ( ) );
#510 = AXIS2_PLACEMENT_3D ( 'NONE', #323, #611, #613 ) ;
#511 = CARTESIAN_POINT ( 'NONE',  ( -724.5419756771095800, -1120.319223835153300, -123.5547005921353800 ) ) ;
#512 = PLANE ( 'NONE',  #214 ) ;
#513 = EDGE_LOOP ( 'NONE', ( #340 ) ) ;
#514 = CARTESIAN_POINT ( 'NONE',  ( -729.9918143175851800, -1080.505480138385100, -85.74946625993426600 ) ) ;
#515 =( NAMED_UNIT ( * ) PLANE_ANGLE_UNIT ( ) SI_UNIT ( $, .RADIAN. ) );
#516 = CARTESIAN_POINT ( 'NONE',  ( -734.7594534436423100, -1054.206740416881500, -19.40420034375300400 ) ) ;
#517 = CARTESIAN_POINT ( 'NONE',  ( -1470.000000000001100, 1500.000000000000000, -735.0000000000005700 ) ) ;
#518 = CARTESIAN_POINT ( 'NONE',  ( -721.6874555728436500, -1152.693724258468100, -139.2632126467384800 ) ) ;
#519 = UNCERTAINTY_MEASURE_WITH_UNIT (LENGTH_MEASURE( 1.000000000000000100E-005 ), #700, 'distance_accuracy_value', 'NONE');
#520 = CARTESIAN_POINT ( 'NONE',  ( -734.7665802312471900, -1054.170858166431800, 19.12962488516310700 ) ) ;
#521 = CARTESIAN_POINT ( 'NONE',  ( 723.7198587095342600, 1248.284059813853000, 128.2870622464866700 ) ) ;
#522 = PRESENTATION_STYLE_ASSIGNMENT (( #390 ) ) ;
#523 = CARTESIAN_POINT ( 'NONE',  ( 734.3521292940911300, 1066.516700002490800, 31.16575630965604700 ) ) ;
#524 = FILL_AREA_STYLE_COLOUR ( '', #668 ) ;
#525 = CARTESIAN_POINT ( 'NONE',  ( 722.7835702142729100, 1168.704369980305500, 133.4530378091116100 ) ) ;
#526 = CARTESIAN_POINT ( 'NONE',  ( 723.3356127949205100, 1158.052956618556700, -130.4251551676301800 ) ) ;
#527 = CARTESIAN_POINT ( 'NONE',  ( 728.6968993322467400, 1102.307656816430400, 96.05454044342485500 ) ) ;
#528 = CARTESIAN_POINT ( 'NONE',  ( -1470.000000000001100, 1500.000000000000000, 735.0000000000005700 ) ) ;
#529 = CARTESIAN_POINT ( 'NONE',  ( 724.6444603200353600, 1260.573436552683700, 122.9634047625788200 ) ) ;
#530 = CARTESIAN_POINT ( 'NONE',  ( 722.9777438780279200, 1164.513050431860800, -132.4007120516338600 ) ) ;
#531 = CARTESIAN_POINT ( 'NONE',  ( 724.1762792306075200, 1145.414773761783200, 125.6760812385079900 ) ) ;
#532 = FACE_OUTER_BOUND ( 'NONE', #395, .T. ) ;
#533 = CARTESIAN_POINT ( 'NONE',  ( 725.3711253658199200, 1268.636256449368400, -118.5879493733353300 ) ) ;
#534 = CARTESIAN_POINT ( 'NONE',  ( -731.3306060129834800, -1072.589726305091700, 73.47462132634839800 ) ) ;
#535 = CARTESIAN_POINT ( 'NONE',  ( 732.8321508778374200, 1324.859176602932600, -56.56207066453934100 ) ) ;
#536 = PRESENTATION_LAYER_ASSIGNMENT (  '', '', ( #17 ) ) ;
#537 = CARTESIAN_POINT ( 'NONE',  ( 734.6686124072480200, 1335.213581102598700, 22.49981179469564600 ) ) ;
#538 = CARTESIAN_POINT ( 'NONE',  ( -721.3597645747047400, -1158.223949282775300, 140.9440281978991200 ) ) ;
#539 = CARTESIAN_POINT ( 'NONE',  ( 730.3618969070507800, 1309.420932340052100, -82.44592450471108700 ) ) ;
#540 = CARTESIAN_POINT ( 'NONE',  ( 0.0000000000000000000, 1500.000000000000000, 0.0000000000000000000 ) ) ;
#541 = APPLICATION_PROTOCOL_DEFINITION ( 'draft international standard', 'automotive_design', 1998, #293 ) ;
#542 = CARTESIAN_POINT ( 'NONE',  ( 729.4352303197083500, 1303.090689001929100, -90.34085707759439300 ) ) ;
#543 = CARTESIAN_POINT ( 'NONE',  ( -721.1657412648590900, -1161.719651942068800, 141.9333768123218500 ) ) ;
#544 = CARTESIAN_POINT ( 'NONE',  ( 500.0000000000000000, 1985.000000000000700, 250.0000000000000000 ) ) ;
#545 = CARTESIAN_POINT ( 'NONE',  ( -721.7021926040067700, -1247.322019883940600, 139.1800831407153700 ) ) ;
#546 = CARTESIAN_POINT ( 'NONE',  ( -721.1042978142526200, -1162.894845942109200, 142.2451520009582900 ) ) ;
#547 = UNCERTAINTY_MEASURE_WITH_UNIT (LENGTH_MEASURE( 1.000000000000000100E-005 ), #615, 'distance_accuracy_value', 'NONE');
#548 = PRESENTATION_LAYER_ASSIGNMENT (  '', '', ( #715 ) ) ;
#549 = PRESENTATION_STYLE_ASSIGNMENT (( #507 ) ) ;
#550 = CARTESIAN_POINT ( 'NONE',  ( 723.7354126997734100, 1248.516185254518600, -128.1993733900413000 ) ) ;
#551 = EDGE_LOOP ( 'NONE', ( #689 ) ) ;
#552 = CARTESIAN_POINT ( 'NONE',  ( -500.0000000000000000, 1985.000000000000700, -250.0000000000000600 ) ) ;
#553 = CARTESIAN_POINT ( 'NONE',  ( 0.0000000000000000000, -1500.000000000000200, 735.0000000000006800 ) ) ;
#554 = PRESENTATION_LAYER_ASSIGNMENT (  '', '', ( #386 ) ) ;
#555 = CARTESIAN_POINT ( 'NONE',  ( -734.7636778209245000, -1345.814527560286900, 19.23968176319080200 ) ) ;
#556 = FILL_AREA_STYLE ('',( #190 ) ) ;
#557 = CARTESIAN_POINT ( 'NONE',  ( -734.9517067405371300, -1346.759072780960000, 9.685884495057203800 ) ) ;
#558 = DIRECTION ( 'NONE',  ( 1.000000000000000000, 0.0000000000000000000, 0.0000000000000000000 ) ) ;
#559 = CARTESIAN_POINT ( 'NONE',  ( 734.1409577720674000, 1067.685075287949800, -35.59303202367285500 ) ) ;
#560 = CARTESIAN_POINT ( 'NONE',  ( -733.1751190625900600, -1337.597263034482500, 51.95085328434315400 ) ) ;
#561 =( NAMED_UNIT ( * ) SI_UNIT ( $, .STERADIAN. ) SOLID_ANGLE_UNIT ( ) );
#562 = CARTESIAN_POINT ( 'NONE',  ( -732.1160667722141400, -1331.829344411124600, -65.08382024204880200 ) ) ;
#563 = SURFACE_SIDE_STYLE ('',( #12 ) ) ;
#564 = CARTESIAN_POINT ( 'NONE',  ( -733.4820157182209600, -1339.218404552449800, 47.43869477039270100 ) ) ;
#565 = SURFACE_SIDE_STYLE ('',( #313 ) ) ;
#566 = EDGE_LOOP ( 'NONE', ( #431 ) ) ;
#567 = UNCERTAINTY_MEASURE_WITH_UNIT (LENGTH_MEASURE( 1.000000000000000100E-005 ), #748, 'distance_accuracy_value', 'NONE');
#568 = CARTESIAN_POINT ( 'NONE',  ( 734.0324893673140400, 1068.287779605635000, -37.76142504415140200 ) ) ;
#569 = CARTESIAN_POINT ( 'NONE',  ( -731.3081661735910800, -1072.718471178713600, -73.69737487920051000 ) ) ;
#570 = CARTESIAN_POINT ( 'NONE',  ( 0.0000000000000000000, 0.0000000000000000000, 0.0000000000000000000 ) ) ;
#571 = CARTESIAN_POINT ( 'NONE',  ( -733.1610528764338100, -1062.488856881715000, -51.97263457637746600 ) ) ;
#572 = MECHANICAL_DESIGN_GEOMETRIC_PRESENTATION_REPRESENTATION (  '', ( #17 ), #199 ) ;
#573 = STYLED_ITEM ( 'NONE', ( #2 ), #650 ) ;
#574 = CARTESIAN_POINT ( 'NONE',  ( -723.0656908717506900, -1134.993223988529100, -131.9330221092106400 ) ) ;
#575 = UNCERTAINTY_MEASURE_WITH_UNIT (LENGTH_MEASURE( 1.000000000000000100E-005 ), #298, 'distance_accuracy_value', 'NONE');
#576 = ORIENTED_EDGE ( 'NONE', *, *, #424, .T. ) ;
#577 = CARTESIAN_POINT ( 'NONE',  ( -728.0838516609934500, -1092.796191674992800, -100.6088475347970800 ) ) ;
#578 = CARTESIAN_POINT ( 'NONE',  ( 1068.212844498098500, 1985.000000000000500, 534.1064222490492700 ) ) ;
#579 = PRESENTATION_STYLE_ASSIGNMENT (( #131 ) ) ;
#580 = CARTESIAN_POINT ( 'NONE',  ( -732.1295635855717600, -1068.081008085669500, 65.03289471005007300 ) ) ;
#581 = CARTESIAN_POINT ( 'NONE',  ( 0.0000000000000000000, 1985.000000000000500, -250.0000000000000600 ) ) ;
#582 = CARTESIAN_POINT ( 'NONE',  ( 724.3340950307455200, 1143.360742719086400, 124.7640918961718200 ) ) ;
#583 = CARTESIAN_POINT ( 'NONE',  ( 729.6429735099770800, 1095.478071483798900, 88.59547678611829700 ) ) ;
#584 = CARTESIAN_POINT ( 'NONE',  ( 0.0000000000000000000, 1784.106422249049300, -735.0000000000005700 ) ) ;
#585 = CARTESIAN_POINT ( 'NONE',  ( 725.3675608397742300, 1131.314465723081200, 118.6235465128195900 ) ) ;
#586 = CARTESIAN_POINT ( 'NONE',  ( 722.1618362886491700, 1190.967020687907100, -136.7753043709980700 ) ) ;
#587 = CARTESIAN_POINT ( 'NONE',  ( 734.5924707985695900, 1065.202805857053400, 24.57112914241217200 ) ) ;
#588 = CARTESIAN_POINT ( 'NONE',  ( -1470.000000000001100, 1784.106422249049300, -735.0000000000005700 ) ) ;
#589 = CIRCLE ( 'NONE', #737, 136.9999999999998600 ) ;
#590 = CARTESIAN_POINT ( 'NONE',  ( 725.9239065454364700, 1274.249320007527800, 115.1567398431527600 ) ) ;
#591 = EDGE_LOOP ( 'NONE', ( #213 ) ) ;
#592 = CARTESIAN_POINT ( 'NONE',  ( 724.3276464596201500, 1143.328745162222300, -124.8099034138912900 ) ) ;
#593 = DIRECTION ( 'NONE',  ( 1.000000000000000000, 0.0000000000000000000, 0.0000000000000000000 ) ) ;
#594 = SURFACE_STYLE_FILL_AREA ( #83 ) ;
#595 = CARTESIAN_POINT ( 'NONE',  ( 722.2875695070393900, 1184.239758967171400, 136.1092147874315100 ) ) ;
#596 = STYLED_ITEM ( 'NONE', ( #368 ), #474 ) ;
#597 = CARTESIAN_POINT ( 'NONE',  ( 730.8636435057226200, 1312.726102022601300, -77.88996752994501100 ) ) ;
#598 = CARTESIAN_POINT ( 'NONE',  ( 734.3582022781753300, 1333.516666440876900, -31.02114400452302000 ) ) ;
#599 = PRESENTATION_STYLE_ASSIGNMENT (( #110 ) ) ;
#600 = EDGE_LOOP ( 'NONE', ( #360 ) ) ;
#601 = CARTESIAN_POINT ( 'NONE',  ( 734.9862770116319600, 1336.926360512042000, 4.631826595845121000 ) ) ;
#602 = AXIS2_PLACEMENT_3D ( 'NONE', #90, #58, #593 ) ;
#603 = CARTESIAN_POINT ( 'NONE',  ( 1068.212844498098100, -1985.000000000000500, -534.1064222490490500 ) ) ;
#604 = UNCERTAINTY_MEASURE_WITH_UNIT (LENGTH_MEASURE( 1.000000000000000100E-005 ), #206, 'distance_accuracy_value', 'NONE');
#605 = CARTESIAN_POINT ( 'NONE',  ( 733.2762180480767700, 1327.431256410351600, -50.35171640207255500 ) ) ;
#606 = DIRECTION ( 'NONE',  ( 0.0000000000000000000, 0.0000000000000000000, -1.000000000000000000 ) ) ;
#607 = CARTESIAN_POINT ( 'NONE',  ( -1470.000000000000700, -1784.106422249049000, 735.0000000000003400 ) ) ;
#608 = CARTESIAN_POINT ( 'NONE',  ( -729.5248073867996900, -1316.616624775994100, 89.62383639332090000 ) ) ;
#609 = FILL_AREA_STYLE_COLOUR ( '', #621 ) ;
#610 = CARTESIAN_POINT ( 'NONE',  ( -731.3127793986965300, -1327.294450592816000, 73.55914136944555500 ) ) ;
#611 = DIRECTION ( 'NONE',  ( 1.000000000000000000, -0.0000000000000000000, 0.0000000000000000000 ) ) ;
#612 = CARTESIAN_POINT ( 'NONE',  ( 722.1191037495137800, 1199.999999999999800, -136.9999999999998300 ) ) ;
#613 = DIRECTION ( 'NONE',  ( 0.0000000000000000000, 0.0000000000000000000, -1.000000000000000000 ) ) ;
#614 = CARTESIAN_POINT ( 'NONE',  ( -732.7583578619345400, -1335.347762247701700, -57.37105455289440700 ) ) ;
#615 =( LENGTH_UNIT ( ) NAMED_UNIT ( * ) SI_UNIT ( .MILLI., .METRE. ) );
#616 = CARTESIAN_POINT ( 'NONE',  ( 730.6503906526570500, 1088.644211971441800, -79.93223399817759400 ) ) ;
#617 = CARTESIAN_POINT ( 'NONE',  ( -727.8600575766893100, -1305.664294420788600, -102.2033204120454400 ) ) ;
#618 = CARTESIAN_POINT ( 'NONE',  ( -1025.400000000000100, -1200.000000000000000, -1.469576158976823800E-013 ) ) ;
#619 = CARTESIAN_POINT ( 'NONE',  ( -734.2375861302330100, -1343.139447374223900, 33.48989948159952200 ) ) ;
#620 =( LENGTH_UNIT ( ) NAMED_UNIT ( * ) SI_UNIT ( .MILLI., .METRE. ) );
#621 = COLOUR_RGB ( '',0.3803921568627450800, 0.4784313725490195700, 0.7882352941176470300 ) ;
#622 = CARTESIAN_POINT ( 'NONE',  ( -721.1501199332393500, -1238.241489560448400, -142.0194526758388600 ) ) ;
#623 =( NAMED_UNIT ( * ) PLANE_ANGLE_UNIT ( ) SI_UNIT ( $, .RADIAN. ) );
#624 = CARTESIAN_POINT ( 'NONE',  ( -725.6933316091284500, -1289.600478773896400, -116.6345890146784300 ) ) ;
#625 = FILL_AREA_STYLE ('',( #456 ) ) ;
#626 = PRESENTATION_LAYER_ASSIGNMENT (  '', '', ( #596 ) ) ;
#627 = CARTESIAN_POINT ( 'NONE',  ( -728.9290321407540900, -1087.207673010711000, -94.27806104581881600 ) ) ;
#628 = CARTESIAN_POINT ( 'NONE',  ( -723.6757891141739900, -1128.619893157037300, -128.5289117656256800 ) ) ;
#629 = FILL_AREA_STYLE_COLOUR ( '', #112 ) ;
#630 = B_SPLINE_CURVE_WITH_KNOTS ( 'NONE', 3,
 ( #252, #15, #311, #671, #665, #192, #23, #673, #13, #545, #493, #126, #372, #378, #433, #243, #735, #309, #133, #429, #380, #73, #374, #731, #187, #608, #128, #18, #249, #245, #75, #610, #21, #76, #195, #560, #564, #688, #144, #496, #619, #207, #263, #135, #555, #557, #205, #265, #331, #392, #683, #34, #197, #260, #685, #257, #37, #138, #739, #614, #383, #675, #200, #562, #753, #146, #318, #749, #454, #202, #327, #747, #744, #617, #389, #678, #141, #624, #27, #449, #270, #89, #506, #394, #40, #442, #453, #622, #82, #91, #497, #508, #322, #387, #29, #446, #86, #501, #100, #96, #636, #274, #282, #334, #699, #518, #93, #217, #574, #628, #455, #406, #511, #272, #222, #158, #690, #219, #577, #53, #756, #279, #627, #403, #514, #396, #569, #41, #215, #399, #459, #571, #151, #691, #346, #98, #44, #758, #516, #149, #154, #276, #695, #342, #766, #209, #760, #520, #401, #47, #463, #632, #697, #763, #49, #465, #104, #161, #580, #534, #716, #1, #290, #477, #363, #643, #709, #356, #772, #776, #412, #244, #365, #725, #11, #373, #246, #117, #72, #720, #181, #538, #66, #543, #546, #236, #658, #484, #666, #659, #6, #70 ),
 .UNSPECIFIED., .T., .F.,
 ( 4, 2, 2, 2, 2, 2, 2, 2, 2, 2, 2, 2, 2, 2, 2, 2, 2, 2, 2, 2, 2, 2, 2, 2, 2, 2, 2, 2, 2, 2, 2, 2, 2, 2, 2, 2, 2, 2, 2, 2, 2, 2, 2, 2, 2, 2, 2, 2, 2, 2, 2, 2, 2, 2, 2, 2, 2, 2, 2, 2, 2, 2, 2, 2, 2, 2, 2, 2, 2, 2, 2, 2, 2, 2, 2, 2, 2, 2, 2, 2, 2, 2, 2, 2, 2, 2, 2, 2, 2, 2, 2, 2, 2, 2, 2, 4 ),
 ( 0.0000000000000000000, 0.01439660509870266200, 0.02879321019740532400, 0.04318981529610798500, 0.04678896657078364400, 0.05038811784545928900, 0.05758642039480999600, 0.07198302549351084900, 0.08637963059221166800, 0.09357793314156211100, 0.1007762356909125400, 0.1151728407896134300, 0.1295694458883143200, 0.1439660509870152300, 0.1475652022616901200, 0.1511643535363650600, 0.1583626560857152300, 0.1727592611844158400, 0.1871558662831164800, 0.1943541688324667800, 0.1979533201071419500, 0.2015524713818170900, 0.2159490764805177300, 0.2303456815792183100, 0.2447422866779189700, 0.2483414379525940900, 0.2519405892272692000, 0.2591388917766195300, 0.2735354968753202500, 0.2879321019740208600, 0.2915312532486959400, 0.2951304045233709700, 0.3023287070727207500, 0.3167253121714200800, 0.3311219172701194700, 0.3383202198194692500, 0.3419193710941443300, 0.3455185223688193000, 0.3599151274675186400, 0.3743117325662179100, 0.3887083376649172500, 0.3959066402142669100, 0.4031049427636165200, 0.4175015478623164100, 0.4318981529610163600, 0.4390964555103663000, 0.4462947580597162500, 0.4606913631584161300, 0.4750879682571160800, 0.4894845733558159100, 0.4930837246304909400, 0.4966828759051658500, 0.5038811784545158500, 0.5182777835532150800, 0.5326743886519144100, 0.5398726912012636900, 0.5470709937506130800, 0.5614675988493115200, 0.5758642039480101900, 0.5830625064973594700, 0.5866616577720342700, 0.5902608090467090800, 0.6046574141454079700, 0.6190540192441069700, 0.6334506243428057500, 0.6370497756174805500, 0.6406489268921552500, 0.6478472294415047500, 0.6622438345402036400, 0.6766404396389027500, 0.6838387421882521400, 0.6874378934629268300, 0.6910370447376015200, 0.7054336498363004100, 0.7198302549349993000, 0.7342268600336981900, 0.7378260113083727800, 0.7414251625830472500, 0.7486234651323965300, 0.7630200702310946400, 0.7774166753297929700, 0.7846149778791421400, 0.7882141291538167200, 0.7918132804284913100, 0.8062098855271894200, 0.8206064906258876400, 0.8278047931752367000, 0.8350030957245856400, 0.8493997008232838700, 0.8637963059219820900, 0.8781929110206802000, 0.8817920622953550100, 0.8853912135700297000, 0.8925895161193790900, 0.9069861212180778700, 0.9213827263167766500 ),
 .UNSPECIFIED. ) ;
#631 = CARTESIAN_POINT ( 'NONE',  ( -1068.212844498098500, 1985.000000000000500, 534.1064222490492700 ) ) ;
#632 = CARTESIAN_POINT ( 'NONE',  ( -733.6964433181486800, -1059.662585937982800, 43.77075087083791500 ) ) ;
#633 = CARTESIAN_POINT ( 'NONE',  ( 0.0000000000000000000, 1985.000000000000500, 534.1064222490492700 ) ) ;
#634 =( GEOMETRIC_REPRESENTATION_CONTEXT ( 3 ) GLOBAL_UNCERTAINTY_ASSIGNED_CONTEXT ( ( #157 ) ) GLOBAL_UNIT_ASSIGNED_CONTEXT ( ( #288, #759, #45 ) ) REPRESENTATION_CONTEXT ( 'NONE', 'WORKASPACE' ) );
#635 = CARTESIAN_POINT ( 'NONE',  ( 729.3109553827898700, 1302.171558209017300, 91.27557622518834500 ) ) ;
#636 = CARTESIAN_POINT ( 'NONE',  ( -720.8165805060216400, -1168.984802914238600, -143.6959663682473000 ) ) ;
#637 = CARTESIAN_POINT ( 'NONE',  ( 0.0000000000000000000, 1985.000000000000500, -250.0000000000000600 ) ) ;
#638 = CARTESIAN_POINT ( 'NONE',  ( 728.7861157274344400, 1298.364907027270900, 95.38516112332773400 ) ) ;
#639 = SHAPE_DEFINITION_REPRESENTATION ( #85, #77 ) ;
#640 = CARTESIAN_POINT ( 'NONE',  ( 734.6632636904944300, 1064.817838021813900, 22.35758838695916900 ) ) ;
#641 = CIRCLE ( 'NONE', #660, 735.0000000000008000 ) ;
#642 = CARTESIAN_POINT ( 'NONE',  ( 724.3168572818170800, 1256.531639673444900, 124.8723127349431100 ) ) ;
#643 = CARTESIAN_POINT ( 'NONE',  ( -729.3019897304274100, -1084.822182887089900, 91.34838914082361300 ) ) ;
#644 = ADVANCED_FACE ( 'NONE', ( #461, #248 ), #338, .T. ) ;
#645 = CARTESIAN_POINT ( 'NONE',  ( 723.4631456998736200, 1155.908403328999400, -129.7158689287739700 ) ) ;
#646 = CARTESIAN_POINT ( 'NONE',  ( 730.2598812470676000, 1091.227976243688500, 83.41231946648271400 ) ) ;
#647 = FILL_AREA_STYLE ('',( #524 ) ) ;
#648 = CARTESIAN_POINT ( 'NONE',  ( 729.7293317370019800, 1305.116125672673000, 87.86849533104859200 ) ) ;
#649 = CARTESIAN_POINT ( 'NONE',  ( 725.3568934176444100, 1131.429197572533200, -118.6883556944699300 ) ) ;
#650 = ADVANCED_FACE ( 'NONE', ( #31, #726, #113, #414 ), #349, .T. ) ;
#651 = CARTESIAN_POINT ( 'NONE',  ( 725.3553846690744000, 1268.470082349205300, 118.6842383643076000 ) ) ;
#652 = CARTESIAN_POINT ( 'NONE',  ( 733.6842943031911100, 1329.758245158989700, -44.01000172167348300 ) ) ;
#653 = SURFACE_STYLE_FILL_AREA ( #319 ) ;
#654 = CARTESIAN_POINT ( 'NONE',  ( 734.1500081223249500, 1332.370278284241500, 35.59890654286374500 ) ) ;
#655 = MECHANICAL_DESIGN_GEOMETRIC_PRESENTATION_REPRESENTATION (  '', ( #715 ), #267 ) ;
#656 = PRESENTATION_LAYER_ASSIGNMENT (  '', '', ( #95 ) ) ;
#657 = CARTESIAN_POINT ( 'NONE',  ( 734.9998359257866700, 1336.999119747599300, 1.233120302311881300 ) ) ;
#658 = CARTESIAN_POINT ( 'NONE',  ( -720.8219537507848100, -1168.792551091462700, 143.6695691442315900 ) ) ;
#659 = CARTESIAN_POINT ( 'NONE',  ( -720.1993619057527700, -1190.293935719834500, 146.7586991964722600 ) ) ;
#660 = AXIS2_PLACEMENT_3D ( 'NONE', #540, #188, #606 ) ;
#661 = CARTESIAN_POINT ( 'NONE',  ( 733.8104768836235500, 1330.469268002562800, -41.85526119419784400 ) ) ;
#662 = CARTESIAN_POINT ( 'NONE',  ( 0.0000000000000000000, -1784.106422249049000, 735.0000000000004500 ) ) ;
#663 = CARTESIAN_POINT ( 'NONE',  ( 724.6620202008505200, 1260.781836408426900, -122.8598241902995800 ) ) ;
#664 = CARTESIAN_POINT ( 'NONE',  ( 499.9999999999997200, -1985.000000000000200, -249.9999999999998600 ) ) ;
#665 = CARTESIAN_POINT ( 'NONE',  ( -720.5348873156729000, -1224.013033543705900, 145.1047542789443100 ) ) ;
#666 = CARTESIAN_POINT ( 'NONE',  ( -720.3930101144725300, -1180.682240912905600, 145.8051702015546600 ) ) ;
#667 = CARTESIAN_POINT ( 'NONE',  ( -499.9999999999997700, -1985.000000000000500, -249.9999999999999100 ) ) ;
#668 = COLOUR_RGB ( '',0.3803921568627450800, 0.4745098039215686100, 0.7882352941176470300 ) ;
#669 = COLOUR_RGB ( '',0.3803921568627450800, 0.4745098039215686100, 0.7882352941176470300 ) ;
#670 = EDGE_LOOP ( 'NONE', ( #729 ) ) ;
#671 = CARTESIAN_POINT ( 'NONE',  ( -720.3918015113541700, -1219.267704680188200, 145.8111314674698100 ) ) ;
#672 = SURFACE_SIDE_STYLE ('',( #194 ) ) ;
#673 = CARTESIAN_POINT ( 'NONE',  ( -721.4838895729499200, -1243.867235327069500, 140.3072520079632600 ) ) ;
#674 = CARTESIAN_POINT ( 'NONE',  ( 734.9995078342212800, 1063.002640451877600, -4.558290915856503900 ) ) ;
#675 = CARTESIAN_POINT ( 'NONE',  ( -732.4906603377304500, -1333.891000068692200, -60.69319430553230900 ) ) ;
#676 = CARTESIAN_POINT ( 'NONE',  ( 729.4262738580175700, 1096.973165520221800, -90.41207893204716600 ) ) ;
#677 = VERTEX_POINT ( 'NONE', #173 ) ;
#678 = CARTESIAN_POINT ( 'NONE',  ( -727.1277717737427800, -1300.549592399774200, -107.3411043075275000 ) ) ;
#679 = CARTESIAN_POINT ( 'NONE',  ( -1470.000000000001400, -1500.000000000000000, -735.0000000000006800 ) ) ;
#680 = MANIFOLD_SOLID_BREP ( 'Ressalto-extrusão6', #61 ) ;
#681 = FACE_OUTER_BOUND ( 'NONE', #306, .T. ) ;
#682 = CARTESIAN_POINT ( 'NONE',  ( 734.4714523656224400, 1065.864392067390600, -27.89104049550948600 ) ) ;
#683 = CARTESIAN_POINT ( 'NONE',  ( -734.8089777163108900, -1346.041962991537000, -16.79934212355758700 ) ) ;
#684 = DIRECTION ( 'NONE',  ( 0.0000000000000000000, 1.000000000000000000, 0.0000000000000000000 ) ) ;
#685 = CARTESIAN_POINT ( 'NONE',  ( -734.5305182695760800, -1344.635039940696100, -26.37216561660216000 ) ) ;
#686 = DIRECTION ( 'NONE',  ( -0.0000000000000000000, -1.000000000000000000, -0.0000000000000000000 ) ) ;
#687 = CARTESIAN_POINT ( 'NONE',  ( 733.4159447126776300, 1071.758881419348400, -48.40563574242327900 ) ) ;
#688 = CARTESIAN_POINT ( 'NONE',  ( -733.8854097322715700, -1341.323277678941800, 40.52813427722343000 ) ) ;
#689 = ORIENTED_EDGE ( 'NONE', *, *, #762, .F. ) ;
#690 = CARTESIAN_POINT ( 'NONE',  ( -727.1155496522466100, -1099.539631190301600, -107.4228456422468000 ) ) ;
#691 = CARTESIAN_POINT ( 'NONE',  ( -733.4727782830359500, -1060.834760513770600, -47.41213321405493300 ) ) ;
#692 =( NAMED_UNIT ( * ) PLANE_ANGLE_UNIT ( ) SI_UNIT ( $, .RADIAN. ) );
#693 = PRESENTATION_LAYER_ASSIGNMENT (  '', '', ( #94 ) ) ;
#694 =( GEOMETRIC_REPRESENTATION_CONTEXT ( 3 ) GLOBAL_UNCERTAINTY_ASSIGNED_CONTEXT ( ( #604 ) ) GLOBAL_UNIT_ASSIGNED_CONTEXT ( ( #206, #623, #750 ) ) REPRESENTATION_CONTEXT ( 'NONE', 'WORKASPACE' ) );
#695 = CARTESIAN_POINT ( 'NONE',  ( -734.9842346993569900, -1053.078843659642000, -4.965174279632616800 ) ) ;
#696 = CARTESIAN_POINT ( 'NONE',  ( 1470.000000000001100, 1784.106422249049300, -735.0000000000005700 ) ) ;
#697 = CARTESIAN_POINT ( 'NONE',  ( -733.6263649610714300, -1060.029350029002200, 44.92983272725229700 ) ) ;
#698 = CARTESIAN_POINT ( 'NONE',  ( 729.6248495171615800, 1304.388465293609700, 88.73170212330788300 ) ) ;
#699 = CARTESIAN_POINT ( 'NONE',  ( -721.2788659660849400, -1159.596070269678600, -141.3587775578629900 ) ) ;
#700 =( LENGTH_UNIT ( ) NAMED_UNIT ( * ) SI_UNIT ( .MILLI., .METRE. ) );
#701 = FACE_OUTER_BOUND ( 'NONE', #513, .T. ) ;
#702 = CARTESIAN_POINT ( 'NONE',  ( 730.6611983653184600, 1088.573923109421900, 79.83164385125520800 ) ) ;
#703 = ADVANCED_FACE ( 'NONE', ( #191 ), #512, .F. ) ;
#704 = DIRECTION ( 'NONE',  ( 0.0000000000000000000, 1.000000000000000000, 0.0000000000000000000 ) ) ;
#705 = CARTESIAN_POINT ( 'NONE',  ( 725.1730111181024100, 1266.511524489492600, 119.7925379217566500 ) ) ;
#706 = CARTESIAN_POINT ( 'NONE',  ( -1025.400000000000100, -1200.000000000000000, -1.469576158976823800E-013 ) ) ;
#707 = CARTESIAN_POINT ( 'NONE',  ( -1470.000000000001100, 1784.106422249049300, 735.0000000000005700 ) ) ;
#708 = CARTESIAN_POINT ( 'NONE',  ( 726.5195486607583500, 1120.073642640936900, 111.3581931518964700 ) ) ;
#709 = CARTESIAN_POINT ( 'NONE',  ( -729.1834591884427300, -1085.574979924138200, 92.28955822456171600 ) ) ;
#710 = CIRCLE ( 'NONE', #366, 735.0000000000008000 ) ;
#711 = DIRECTION ( 'NONE',  ( 0.0000000000000000000, 0.0000000000000000000, 1.000000000000000000 ) ) ;
#712 = SURFACE_STYLE_FILL_AREA ( #92 ) ;
#713 = ORIENTED_EDGE ( 'NONE', *, *, #259, .T. ) ;
#714 = CARTESIAN_POINT ( 'NONE',  ( 723.4504502264060200, 1244.078275512039900, 129.7928982103408400 ) ) ;
#715 = STYLED_ITEM ( 'NONE', ( #579 ), #269 ) ;
#716 = CARTESIAN_POINT ( 'NONE',  ( -730.9046025935607500, -1075.050140537102800, 77.58656595643961400 ) ) ;
#717 = CARTESIAN_POINT ( 'NONE',  ( 732.4902534119158900, 1322.842546305106200, 60.81604150291573100 ) ) ;
#718 = EDGE_CURVE ( 'NONE', #451, #451, #589, .T. ) ;
#719 = CARTESIAN_POINT ( 'NONE',  ( 735.0006208978895800, 1337.003331095408800, -4.422400424757081600 ) ) ;
#720 = CARTESIAN_POINT ( 'NONE',  ( -722.0162998449573000, -1147.933219998380800, 137.5535015109067000 ) ) ;
#721 = CARTESIAN_POINT ( 'NONE',  ( -1068.212844498098100, -1985.000000000000500, 534.1064222490490500 ) ) ;
#722 = CARTESIAN_POINT ( 'NONE',  ( 734.9782853073010100, 1336.883464952276200, 5.761011891213905200 ) ) ;
#723 = DIRECTION ( 'NONE',  ( -1.000000000000000000, 0.0000000000000000000, 0.0000000000000000000 ) ) ;
#724 = CARTESIAN_POINT ( 'NONE',  ( 0.0000000000000000000, 1985.000000000000500, -250.0000000000000600 ) ) ;
#725 = CARTESIAN_POINT ( 'NONE',  ( -725.2417749594830000, -1114.190297418415000, 119.3795845041114500 ) ) ;
#726 = FACE_OUTER_BOUND ( 'NONE', #773, .T. ) ;
#727 = CARTESIAN_POINT ( 'NONE',  ( 722.1191037495136700, 1204.536086091751500, -136.9999999999998300 ) ) ;
#728 = SURFACE_STYLE_USAGE ( .BOTH. , #308 ) ;
#729 = ORIENTED_EDGE ( 'NONE', *, *, #122, .T. ) ;
#730 = COLOUR_RGB ( '',0.3803921568627450800, 0.4784313725490195700, 0.7882352941176470300 ) ;
#731 = CARTESIAN_POINT ( 'NONE',  ( -728.0975636156558700, -1307.337107126358000, 100.5514898818050400 ) ) ;
#732 = CARTESIAN_POINT ( 'NONE',  ( 3.061616997868381900E-014, -1985.000000000000200, 249.9999999999999100 ) ) ;
#733 = CARTESIAN_POINT ( 'NONE',  ( 723.4643974645543900, 1244.307730480207500, -129.7152520998330900 ) ) ;
#734 = DIRECTION ( 'NONE',  ( -1.000000000000000000, 0.0000000000000000000, 0.0000000000000000000 ) ) ;
#735 = CARTESIAN_POINT ( 'NONE',  ( -724.3175578751188400, -1277.689399367670400, 124.8854997826225700 ) ) ;
#736 =( LENGTH_UNIT ( ) NAMED_UNIT ( * ) SI_UNIT ( .MILLI., .METRE. ) );
#737 = AXIS2_PLACEMENT_3D ( 'NONE', #335, #97, #757 ) ;
#738 = ORIENTED_EDGE ( 'NONE', *, *, #168, .F. ) ;
#739 = CARTESIAN_POINT ( 'NONE',  ( -733.1860431929771900, -1337.655605029558700, -51.79969825672547800 ) ) ;
#740 =( NAMED_UNIT ( * ) SI_UNIT ( $, .STERADIAN. ) SOLID_ANGLE_UNIT ( ) );
#741 = UNCERTAINTY_MEASURE_WITH_UNIT (LENGTH_MEASURE( 1.000000000000000100E-005 ), #152, 'distance_accuracy_value', 'NONE');
#742 = CARTESIAN_POINT ( 'NONE',  ( 734.4286578006854100, 1066.098867900955800, -28.99599311569912200 ) ) ;
#743 = ADVANCED_FACE ( 'NONE', ( #532, #266 ), #467, .T. ) ;
#744 = CARTESIAN_POINT ( 'NONE',  ( -728.1038980942967100, -1307.331105090796700, -100.4514594153747000 ) ) ;
#745 = FILL_AREA_STYLE_COLOUR ( '', #369 ) ;
#746 = CARTESIAN_POINT ( 'NONE',  ( 734.7548675373392400, 1064.321181295700900, 19.01388502910898000 ) ) ;
#747 = CARTESIAN_POINT ( 'NONE',  ( -728.2254030994944300, -1308.152101777058800, -99.56693443276891700 ) ) ;
#748 =( LENGTH_UNIT ( ) NAMED_UNIT ( * ) SI_UNIT ( .MILLI., .METRE. ) );
#749 = CARTESIAN_POINT ( 'NONE',  ( -730.0016772304362600, -1319.554632429254500, -85.66532304952622200 ) ) ;
#750 =( NAMED_UNIT ( * ) SI_UNIT ( $, .STERADIAN. ) SOLID_ANGLE_UNIT ( ) );
#751 = ORIENTED_EDGE ( 'NONE', *, *, #762, .T. ) ;
#752 = CARTESIAN_POINT ( 'NONE',  ( 728.1704479346143400, 1106.266562767524900, -100.0145520232733400 ) ) ;
#753 = CARTESIAN_POINT ( 'NONE',  ( -731.9209426807353800, -1330.742173985887800, -67.24045464681562100 ) ) ;
#754 = FILL_AREA_STYLE_COLOUR ( '', #212 ) ;
#755 =( GEOMETRIC_REPRESENTATION_CONTEXT ( 3 ) GLOBAL_UNCERTAINTY_ASSIGNED_CONTEXT ( ( #778 ) ) GLOBAL_UNIT_ASSIGNED_CONTEXT ( ( #312, #258, #438 ) ) REPRESENTATION_CONTEXT ( 'NONE', 'WORKASPACE' ) );
#756 = CARTESIAN_POINT ( 'NONE',  ( -728.5674196326109500, -1089.568598938234800, -97.03280363109372800 ) ) ;
#757 = DIRECTION ( 'NONE',  ( 0.0000000000000000000, 0.0000000000000000000, -1.000000000000000000 ) ) ;
#758 = CARTESIAN_POINT ( 'NONE',  ( -734.6181924419969400, -1054.918161841286300, -24.15037139721981400 ) ) ;
#759 =( NAMED_UNIT ( * ) PLANE_ANGLE_UNIT ( ) SI_UNIT ( $, .RADIAN. ) );
#760 = CARTESIAN_POINT ( 'NONE',  ( -734.9532935634993000, -1053.232991094633200, 9.566935409728929000 ) ) ;
#761 = CARTESIAN_POINT ( 'NONE',  ( 0.0000000000000000000, 1500.000000000000000, 735.0000000000005700 ) ) ;
#762 = EDGE_CURVE ( 'NONE', #677, #677, #710, .T. ) ;
#763 = CARTESIAN_POINT ( 'NONE',  ( -733.4815780257338200, -1060.790213022111900, 47.23460523571132800 ) ) ;
#764 = CARTESIAN_POINT ( 'NONE',  ( -1068.212844498098500, 1985.000000000000500, -534.1064222490492700 ) ) ;
#765 = CARTESIAN_POINT ( 'NONE',  ( 726.9228005308410700, 1116.498717019757600, 108.7033643555533900 ) ) ;
#766 = CARTESIAN_POINT ( 'NONE',  ( -734.9998225031540600, -1053.000887484440000, -1.316465600398952600 ) ) ;
#767 = CARTESIAN_POINT ( 'NONE',  ( 1470.000000000001100, 1500.000000000000000, 735.0000000000005700 ) ) ;
#768 = CARTESIAN_POINT ( 'NONE',  ( 723.4560929999743200, 1155.831082870514800, 129.7614216258167800 ) ) ;
#769 = CARTESIAN_POINT ( 'NONE',  ( 729.0145982921645800, 1099.965623763623200, 93.61299590347411500 ) ) ;
#770 = APPLICATION_CONTEXT ( 'automotive_design' ) ;
#771 = CARTESIAN_POINT ( 'NONE',  ( 726.9150147620732700, 1283.433407530193100, 108.7552791383596800 ) ) ;
#772 = CARTESIAN_POINT ( 'NONE',  ( -728.1060310173527300, -1092.605611189675300, 100.4901398787711000 ) ) ;
#773 = EDGE_LOOP ( 'NONE', ( #751 ) ) ;
#774 = CARTESIAN_POINT ( 'NONE',  ( 722.1191037495140100, 1195.463913908248700, -136.9999999999998300 ) ) ;
#775 = CARTESIAN_POINT ( 'NONE',  ( 727.7467267657026500, 1109.606390458510800, 103.0431028047171100 ) ) ;
#776 = CARTESIAN_POINT ( 'NONE',  ( -727.1408779474197700, -1099.356973782355000, 107.2511269616907000 ) ) ;
#777 = CARTESIAN_POINT ( 'NONE',  ( 725.7296702563077100, 1127.603627529447500, -116.3949051887857300 ) ) ;
#778 = UNCERTAINTY_MEASURE_WITH_UNIT (LENGTH_MEASURE( 1.000000000000000100E-005 ), #312, 'distance_accuracy_value', 'NONE');
#779 = CARTESIAN_POINT ( 'NONE',  ( 722.1194460287633800, 1195.469681487667900, 136.9981958656551600 ) ) ;
ENDSEC;
END-ISO-10303-21;
