ISO-10303-21;
HEADER;
FILE_DESCRIPTION (( 'STEP AP214' ),
    '1' );
FILE_NAME ('pipe_with_hollow_segment.STEP',
    '2026-08-21T02:19:47',
    ( '' ),
    ( '' ),
    'SwSTEP 2.0',
    'SolidWorks 2015',
    '' );
FILE_SCHEMA (( 'AUTOMOTIVE_DESIGN' ));
ENDSEC;

DATA;
#1 = CARTESIAN_POINT ( 'NONE',  ( 1099.999999999999800, 300.0000000000000000, 0.0000000000000000000 ) ) ;
#2 = EDGE_CURVE ( 'NONE', #478, #7, #121, .T. ) ;
#3 = ADVANCED_FACE ( 'NONE', ( #211 ), #160, .T. ) ;
#4 = FACE_OUTER_BOUND ( 'NONE', #514, .T. ) ;
#5 = ADVANCED_FACE ( 'NONE', ( #133 ), #106, .T. ) ;
#6 = DIRECTION ( 'NONE',  ( 0.0000000000000000000, 0.0000000000000000000, -1.000000000000000000 ) ) ;
#7 = VERTEX_POINT ( 'NONE', #89 ) ;
#8 = FACE_OUTER_BOUND ( 'NONE', #497, .T. ) ;
#9 = ORIENTED_EDGE ( 'NONE', *, *, #252, .T. ) ;
#10 = DIRECTION ( 'NONE',  ( 6.123233995736766000E-017, 1.000000000000000000, 0.0000000000000000000 ) ) ;
#11 = ADVANCED_FACE ( 'NONE', ( #238 ), #36, .T. ) ;
#12 = CARTESIAN_POINT ( 'NONE',  ( 1099.999999999999800, -125.0000000000000000, 0.0000000000000000000 ) ) ;
#13 = AXIS2_PLACEMENT_3D ( 'NONE', #251, #379, #289 ) ;
#14 = AXIS2_PLACEMENT_3D ( 'NONE', #300, #484, #539 ) ;
#15 =( NAMED_UNIT ( * ) SI_UNIT ( $, .STERADIAN. ) SOLID_ANGLE_UNIT ( ) );
#16 =( NAMED_UNIT ( * ) SI_UNIT ( $, .STERADIAN. ) SOLID_ANGLE_UNIT ( ) );
#17 = EDGE_CURVE ( 'NONE', #473, #297, #458, .T. ) ;
#18 = CARTESIAN_POINT ( 'NONE',  ( 1285.000000000000200, 1199.999999999999800, 0.0000000000000000000 ) ) ;
#19 = DIRECTION ( 'NONE',  ( -1.000000000000000000, -2.467162276944793400E-016, 0.0000000000000000000 ) ) ;
#20 = LINE ( 'NONE', #276, #438 ) ;
#21 = CARTESIAN_POINT ( 'NONE',  ( 1699.999999999999500, 1624.999999999999500, 0.0000000000000000000 ) ) ;
#22 = ORIENTED_EDGE ( 'NONE', *, *, #128, .F. ) ;
#23 = DIRECTION ( 'NONE',  ( 0.0000000000000000000, 1.000000000000000000, 0.0000000000000000000 ) ) ;
#24 = CARTESIAN_POINT ( 'NONE',  ( 1720.000000000000200, 1499.999999999999500, 0.0000000000000000000 ) ) ;
#25 = DIRECTION ( 'NONE',  ( 0.0000000000000000000, 0.0000000000000000000, -1.000000000000000000 ) ) ;
#26 = CARTESIAN_POINT ( 'NONE',  ( 1700.000000000000000, 1200.000000000000000, 0.0000000000000000000 ) ) ;
#27 = DIRECTION ( 'NONE',  ( 1.000000000000000000, 0.0000000000000000000, 0.0000000000000000000 ) ) ;
#28 = FACE_OUTER_BOUND ( 'NONE', #277, .T. ) ;
#29 = ORIENTED_EDGE ( 'NONE', *, *, #252, .F. ) ;
#30 = LINE ( 'NONE', #70, #302 ) ;
#31 = CARTESIAN_POINT ( 'NONE',  ( 1525.000000000000000, 1199.999999999999800, 1.530808498934191600E-014 ) ) ;
#32 = CARTESIAN_POINT ( 'NONE',  ( 1400.000000000000000, 1199.999999999999800, 0.0000000000000000000 ) ) ;
#33 = CARTESIAN_POINT ( 'NONE',  ( 1274.999999999999800, 300.0000000000000000, 0.0000000000000000000 ) ) ;
#34 = VERTEX_POINT ( 'NONE', #428 ) ;
#35 = AXIS2_PLACEMENT_3D ( 'NONE', #423, #425, #482 ) ;
#36 = TOROIDAL_SURFACE ( 'NONE', #349, 300.0000000000000600, 125.0000000000000000 ) ;
#37 = DIRECTION ( 'NONE',  ( 6.123233995736766000E-017, 1.000000000000000000, 0.0000000000000000000 ) ) ;
#38 = DIRECTION ( 'NONE',  ( 2.467162276944792400E-016, 1.000000000000000000, 0.0000000000000000000 ) ) ;
#39 = AXIS2_PLACEMENT_3D ( 'NONE', #200, #166, #212 ) ;
#40 = VERTEX_POINT ( 'NONE', #294 ) ;
#41 = CIRCLE ( 'NONE', #51, 112.9999999999995500 ) ;
#42 = CARTESIAN_POINT ( 'NONE',  ( 0.0000000000000000000, 0.0000000000000000000, 0.0000000000000000000 ) ) ;
#43 = CIRCLE ( 'NONE', #400, 125.0000000000000000 ) ;
#44 = DIRECTION ( 'NONE',  ( 0.0000000000000000000, -1.000000000000000000, 0.0000000000000000000 ) ) ;
#45 = EDGE_LOOP ( 'NONE', ( #386, #304 ) ) ;
#46 = ORIENTED_EDGE ( 'NONE', *, *, #151, .T. ) ;
#47 = EDGE_LOOP ( 'NONE', ( #520, #321, #257, #530, #384 ) ) ;
#48 = CARTESIAN_POINT ( 'NONE',  ( 1099.999999999999800, 1.530808498934191600E-014, -125.0000000000000000 ) ) ;
#49 = PRODUCT_DEFINITION_SHAPE ( 'NONE', 'NONE',  #445 ) ;
#50 = EDGE_CURVE ( 'NONE', #282, #398, #236, .T. ) ;
#51 = AXIS2_PLACEMENT_3D ( 'NONE', #56, #436, #486 ) ;
#52 = CIRCLE ( 'NONE', #485, 114.9999999999999900 ) ;
#53 = DIRECTION ( 'NONE',  ( -1.000000000000000000, 0.0000000000000000000, 0.0000000000000000000 ) ) ;
#54 = DIRECTION ( 'NONE',  ( 2.467162276944792900E-016, 1.000000000000000000, -0.0000000000000000000 ) ) ;
#55 = STYLED_ITEM ( 'NONE', ( #162 ), #513 ) ;
#56 = CARTESIAN_POINT ( 'NONE',  ( 1720.000000000000200, 1499.999999999999500, 0.0000000000000000000 ) ) ;
#57 = LINE ( 'NONE', #354, #126 ) ;
#58 = CIRCLE ( 'NONE', #135, 125.0000000000000000 ) ;
#59 = ORIENTED_EDGE ( 'NONE', *, *, #193, .F. ) ;
#60 = FACE_OUTER_BOUND ( 'NONE', #346, .T. ) ;
#61 = SHAPE_DEFINITION_REPRESENTATION ( #49, #351 ) ;
#62 = CARTESIAN_POINT ( 'NONE',  ( 1400.000000000000000, 1199.999999999999800, 0.0000000000000000000 ) ) ;
#63 = DIRECTION ( 'NONE',  ( 0.0000000000000000000, 0.0000000000000000000, -1.000000000000000000 ) ) ;
#64 = EDGE_CURVE ( 'NONE', #327, #243, #378, .T. ) ;
#65 = CARTESIAN_POINT ( 'NONE',  ( 2599.999999999999100, 1374.999999999999800, 1.530808498934191600E-014 ) ) ;
#66 = ORIENTED_EDGE ( 'NONE', *, *, #448, .T. ) ;
#67 = ADVANCED_FACE ( 'NONE', ( #409 ), #264, .F. ) ;
#68 = VERTEX_POINT ( 'NONE', #296 ) ;
#69 = FACE_OUTER_BOUND ( 'NONE', #480, .T. ) ;
#70 = CARTESIAN_POINT ( 'NONE',  ( 1699.999999999999500, 1387.000000000000000, 0.0000000000000000000 ) ) ;
#71 = DIRECTION ( 'NONE',  ( -1.000000000000000000, -2.467162276944793400E-016, -0.0000000000000000000 ) ) ;
#72 = ORIENTED_EDGE ( 'NONE', *, *, #85, .F. ) ;
#73 = ORIENTED_EDGE ( 'NONE', *, *, #254, .T. ) ;
#74 = SURFACE_STYLE_FILL_AREA ( #518 ) ;
#75 = COLOUR_RGB ( '',0.7921568627450980000, 0.8196078431372548800, 0.9333333333333333500 ) ;
#76 = ORIENTED_EDGE ( 'NONE', *, *, #216, .F. ) ;
#77 = ADVANCED_FACE ( 'NONE', ( #130 ), #343, .F. ) ;
#78 = CARTESIAN_POINT ( 'NONE',  ( 1099.999999999999800, 0.0000000000000000000, 0.0000000000000000000 ) ) ;
#79 = ORIENTED_CLOSED_SHELL ( 'NONE', *, #449, .F. );
#80 = AXIS2_PLACEMENT_3D ( 'NONE', #185, #452, #116 ) ;
#81 =( LENGTH_UNIT ( ) NAMED_UNIT ( * ) SI_UNIT ( .MILLI., .METRE. ) );
#82 = LINE ( 'NONE', #191, #250 ) ;
#83 = SURFACE_SIDE_STYLE ('',( #74 ) ) ;
#84 = CARTESIAN_POINT ( 'NONE',  ( 2579.999999999998600, 1612.999999999999100, 0.0000000000000000000 ) ) ;
#85 = EDGE_CURVE ( 'NONE', #68, #7, #52, .T. ) ;
#86 = DIRECTION ( 'NONE',  ( -0.0000000000000000000, -0.0000000000000000000, -1.000000000000000000 ) ) ;
#87 = DIRECTION ( 'NONE',  ( 2.467162276944792900E-016, 1.000000000000000000, -0.0000000000000000000 ) ) ;
#88 =( NAMED_UNIT ( * ) PLANE_ANGLE_UNIT ( ) SI_UNIT ( $, .RADIAN. ) );
#89 = CARTESIAN_POINT ( 'NONE',  ( 1285.000000000000000, 1199.999999999999800, 0.0000000000000000000 ) ) ;
#90 = CIRCLE ( 'NONE', #427, 125.0000000000000000 ) ;
#91 = ORIENTED_EDGE ( 'NONE', *, *, #171, .F. ) ;
#92 = AXIS2_PLACEMENT_3D ( 'NONE', #439, #345, #107 ) ;
#93 = CARTESIAN_POINT ( 'NONE',  ( 0.0000000000000000000, 0.0000000000000000000, 0.0000000000000000000 ) ) ;
#94 = ORIENTED_EDGE ( 'NONE', *, *, #337, .T. ) ;
#95 = VECTOR ( 'NONE', #170, 1000.000000000000000 ) ;
#96 = PRODUCT_CONTEXT ( 'NONE', #329, 'mechanical' ) ;
#97 = VERTEX_POINT ( 'NONE', #31 ) ;
#98 = CIRCLE ( 'NONE', #255, 112.9999999999993200 ) ;
#99 = DIRECTION ( 'NONE',  ( -1.000000000000000000, 4.827056628805047900E-016, 0.0000000000000000000 ) ) ;
#100 = ORIENTED_EDGE ( 'NONE', *, *, #179, .F. ) ;
#101 = APPLICATION_PROTOCOL_DEFINITION ( 'draft international standard', 'automotive_design', 1998, #433 ) ;
#102 = DIRECTION ( 'NONE',  ( 1.000000000000000000, 0.0000000000000000000, 0.0000000000000000000 ) ) ;
#103 = AXIS2_PLACEMENT_3D ( 'NONE', #471, #136, #430 ) ;
#104 = DIRECTION ( 'NONE',  ( -1.000000000000000000, -2.467162276944793400E-016, -0.0000000000000000000 ) ) ;
#105 = CIRCLE ( 'NONE', #14, 175.0000000000000600 ) ;
#106 = CYLINDRICAL_SURFACE ( 'NONE', #417, 125.0000000000000000 ) ;
#107 = DIRECTION ( 'NONE',  ( 0.0000000000000000000, -1.000000000000000000, 0.0000000000000000000 ) ) ;
#108 = CARTESIAN_POINT ( 'NONE',  ( 1700.000000000000000, 1200.000000000000000, 0.0000000000000000000 ) ) ;
#109 = MECHANICAL_DESIGN_GEOMETRIC_PRESENTATION_REPRESENTATION (  '', ( #55 ), #163 ) ;
#110 = CARTESIAN_POINT ( 'NONE',  ( 1099.999999999999800, 0.0000000000000000000, 125.0000000000000000 ) ) ;
#111 = ORIENTED_EDGE ( 'NONE', *, *, #493, .T. ) ;
#112 = LINE ( 'NONE', #331, #95 ) ;
#113 = DIRECTION ( 'NONE',  ( 1.000000000000000000, 0.0000000000000000000, 0.0000000000000000000 ) ) ;
#114 = FACE_OUTER_BOUND ( 'NONE', #334, .T. ) ;
#115 = DIRECTION ( 'NONE',  ( -1.000000000000000000, -0.0000000000000000000, -0.0000000000000000000 ) ) ;
#116 = DIRECTION ( 'NONE',  ( 0.0000000000000000000, 1.000000000000000000, 0.0000000000000000000 ) ) ;
#117 = EDGE_CURVE ( 'NONE', #97, #125, #465, .T. ) ;
#118 = ADVANCED_FACE ( 'NONE', ( #156 ), #390, .F. ) ;
#119 = TOROIDAL_SURFACE ( 'NONE', #147, 300.0000000000000000, 125.0000000000000000 ) ;
#120 = ORIENTED_EDGE ( 'NONE', *, *, #405, .F. ) ;
#121 = LINE ( 'NONE', #18, #369 ) ;
#122 = CARTESIAN_POINT ( 'NONE',  ( 1699.999999999999500, 1499.999999999999500, 0.0000000000000000000 ) ) ;
#123 = DIRECTION ( 'NONE',  ( -2.467162276944793400E-016, 1.000000000000000000, 0.0000000000000000000 ) ) ;
#124 = DIRECTION ( 'NONE',  ( 0.0000000000000000000, 0.0000000000000000000, -1.000000000000000000 ) ) ;
#125 = VERTEX_POINT ( 'NONE', #391 ) ;
#126 = VECTOR ( 'NONE', #406, 1000.000000000000000 ) ;
#127 = FILL_AREA_STYLE ('',( #381 ) ) ;
#128 = EDGE_CURVE ( 'NONE', #297, #431, #311, .T. ) ;
#129 = DIRECTION ( 'NONE',  ( 2.467162276944793400E-016, -1.000000000000000000, 0.0000000000000000000 ) ) ;
#130 = FACE_OUTER_BOUND ( 'NONE', #45, .T. ) ;
#131 = DIRECTION ( 'NONE',  ( 0.0000000000000000000, -1.000000000000000000, 0.0000000000000000000 ) ) ;
#132 = EDGE_LOOP ( 'NONE', ( #370, #73, #22, #208, #447 ) ) ;
#133 = FACE_OUTER_BOUND ( 'NONE', #512, .T. ) ;
#134 = SURFACE_STYLE_USAGE ( .BOTH. , #83 ) ;
#135 = AXIS2_PLACEMENT_3D ( 'NONE', #167, #292, #475 ) ;
#136 = DIRECTION ( 'NONE',  ( 0.0000000000000000000, 0.0000000000000000000, 1.000000000000000000 ) ) ;
#137 = VERTEX_POINT ( 'NONE', #223 ) ;
#138 = FACE_OUTER_BOUND ( 'NONE', #529, .T. ) ;
#139 = FACE_OUTER_BOUND ( 'NONE', #463, .T. ) ;
#140 = CARTESIAN_POINT ( 'NONE',  ( 1099.999999999999800, 300.0000000000000000, 0.0000000000000000000 ) ) ;
#141 = DIRECTION ( 'NONE',  ( 6.123233995736766000E-017, 1.000000000000000000, 0.0000000000000000000 ) ) ;
#142 = EDGE_CURVE ( 'NONE', #97, #327, #105, .T. ) ;
#143 = CYLINDRICAL_SURFACE ( 'NONE', #221, 112.9999999999995500 ) ;
#144 = DIRECTION ( 'NONE',  ( 0.0000000000000000000, 0.0000000000000000000, -1.000000000000000000 ) ) ;
#145 = CLOSED_SHELL ( 'NONE', ( #152, #361, #412, #461 ) ) ;
#146 = CARTESIAN_POINT ( 'NONE',  ( 1399.999999999999800, 299.9999999999999400, 0.0000000000000000000 ) ) ;
#147 = AXIS2_PLACEMENT_3D ( 'NONE', #140, #222, #102 ) ;
#148 = MECHANICAL_DESIGN_GEOMETRIC_PRESENTATION_REPRESENTATION (  '', ( #476 ), #158 ) ;
#149 = ORIENTED_EDGE ( 'NONE', *, *, #171, .T. ) ;
#150 = DIRECTION ( 'NONE',  ( -1.000000000000000000, -0.0000000000000000000, -0.0000000000000000000 ) ) ;
#151 = EDGE_CURVE ( 'NONE', #478, #168, #432, .T. ) ;
#152 = ADVANCED_FACE ( 'NONE', ( #69 ), #143, .F. ) ;
#153 = DIRECTION ( 'NONE',  ( 1.000000000000000000, 0.0000000000000000000, 0.0000000000000000000 ) ) ;
#154 = ORIENTED_EDGE ( 'NONE', *, *, #365, .T. ) ;
#155 = CARTESIAN_POINT ( 'NONE',  ( 1099.999999999999800, 0.0000000000000000000, 0.0000000000000000000 ) ) ;
#156 = FACE_OUTER_BOUND ( 'NONE', #335, .T. ) ;
#157 = CARTESIAN_POINT ( 'NONE',  ( 1720.000000000000200, 1500.000000000000500, 0.0000000000000000000 ) ) ;
#158 =( GEOMETRIC_REPRESENTATION_CONTEXT ( 3 ) GLOBAL_UNCERTAINTY_ASSIGNED_CONTEXT ( ( #442 ) ) GLOBAL_UNIT_ASSIGNED_CONTEXT ( ( #205, #517, #16 ) ) REPRESENTATION_CONTEXT ( 'NONE', 'WORKASPACE' ) );
#159 = DIRECTION ( 'NONE',  ( 2.467162276944792900E-016, 1.000000000000000000, -0.0000000000000000000 ) ) ;
#160 = TOROIDAL_SURFACE ( 'NONE', #103, 300.0000000000000000, 125.0000000000000000 ) ;
#161 = EDGE_LOOP ( 'NONE', ( #347, #195, #94, #269, #100 ) ) ;
#162 = PRESENTATION_STYLE_ASSIGNMENT (( #134 ) ) ;
#163 =( GEOMETRIC_REPRESENTATION_CONTEXT ( 3 ) GLOBAL_UNCERTAINTY_ASSIGNED_CONTEXT ( ( #214 ) ) GLOBAL_UNIT_ASSIGNED_CONTEXT ( ( #474, #88, #206 ) ) REPRESENTATION_CONTEXT ( 'NONE', 'WORKASPACE' ) );
#164 = DIRECTION ( 'NONE',  ( 0.0000000000000000000, 0.0000000000000000000, -1.000000000000000000 ) ) ;
#165 = AXIS2_PLACEMENT_3D ( 'NONE', #93, #220, #261 ) ;
#166 = DIRECTION ( 'NONE',  ( 1.000000000000000000, 0.0000000000000000000, 0.0000000000000000000 ) ) ;
#167 = CARTESIAN_POINT ( 'NONE',  ( 1699.999999999999500, 1499.999999999999500, 0.0000000000000000000 ) ) ;
#168 = VERTEX_POINT ( 'NONE', #388 ) ;
#169 = CYLINDRICAL_SURFACE ( 'NONE', #429, 125.0000000000000000 ) ;
#170 = DIRECTION ( 'NONE',  ( 2.467162276944792400E-016, 1.000000000000000000, 0.0000000000000000000 ) ) ;
#171 = EDGE_CURVE ( 'NONE', #40, #137, #456, .T. ) ;
#172 = FILL_AREA_STYLE_COLOUR ( '', #244 ) ;
#173 = CARTESIAN_POINT ( 'NONE',  ( 1400.000000000000000, 1199.999999999999800, 0.0000000000000000000 ) ) ;
#174 = ORIENTED_EDGE ( 'NONE', *, *, #376, .F. ) ;
#175 = ORIENTED_EDGE ( 'NONE', *, *, #357, .F. ) ;
#176 = CARTESIAN_POINT ( 'NONE',  ( 1699.999999999999500, 1499.999999999999500, 0.0000000000000000000 ) ) ;
#177 = DIRECTION ( 'NONE',  ( 2.467162276944792900E-016, 1.000000000000000000, -0.0000000000000000000 ) ) ;
#178 = CARTESIAN_POINT ( 'NONE',  ( 1400.000000000000000, 1199.999999999999800, 0.0000000000000000000 ) ) ;
#179 = EDGE_CURVE ( 'NONE', #431, #297, #291, .T. ) ;
#180 = DIRECTION ( 'NONE',  ( 2.467162276944792900E-016, 1.000000000000000000, -0.0000000000000000000 ) ) ;
#181 = ORIENTED_EDGE ( 'NONE', *, *, #64, .F. ) ;
#182 = ORIENTED_EDGE ( 'NONE', *, *, #216, .T. ) ;
#183 = VECTOR ( 'NONE', #38, 1000.000000000000000 ) ;
#184 = ORIENTED_EDGE ( 'NONE', *, *, #435, .T. ) ;
#185 = CARTESIAN_POINT ( 'NONE',  ( 1699.999999999999500, 1499.999999999999500, 0.0000000000000000000 ) ) ;
#186 = PRESENTATION_LAYER_ASSIGNMENT (  '', '', ( #55 ) ) ;
#187 = ORIENTED_EDGE ( 'NONE', *, *, #469, .T. ) ;
#188 = CYLINDRICAL_SURFACE ( 'NONE', #483, 125.0000000000000000 ) ;
#189 = ADVANCED_FACE ( 'NONE', ( #472 ), #362, .T. ) ;
#190 = EDGE_CURVE ( 'NONE', #473, #282, #451, .T. ) ;
#191 = CARTESIAN_POINT ( 'NONE',  ( 1699.999999999999500, 1612.999999999999100, 1.383850883036502300E-014 ) ) ;
#192 = FACE_OUTER_BOUND ( 'NONE', #356, .T. ) ;
#193 = EDGE_CURVE ( 'NONE', #340, #235, #41, .T. ) ;
#194 = AXIS2_PLACEMENT_3D ( 'NONE', #84, #19, #129 ) ;
#195 = ORIENTED_EDGE ( 'NONE', *, *, #376, .T. ) ;
#196 = DIRECTION ( 'NONE',  ( 0.0000000000000000000, -1.000000000000000000, 0.0000000000000000000 ) ) ;
#197 = AXIS2_PLACEMENT_3D ( 'NONE', #62, #499, #307 ) ;
#198 = ADVANCED_FACE ( 'NONE', ( #332 ), #119, .T. ) ;
#199 = DIRECTION ( 'NONE',  ( 2.467162276944792900E-016, 1.000000000000000000, -0.0000000000000000000 ) ) ;
#200 = CARTESIAN_POINT ( 'NONE',  ( 2599.999999999999100, 1499.999999999999800, 0.0000000000000000000 ) ) ;
#201 = EDGE_LOOP ( 'NONE', ( #120, #175, #310, #477 ) ) ;
#202 = CIRCLE ( 'NONE', #245, 425.0000000000000600 ) ;
#203 = CIRCLE ( 'NONE', #295, 125.0000000000000000 ) ;
#204 = CARTESIAN_POINT ( 'NONE',  ( 1285.000000000000200, 299.9999999999999400, 0.0000000000000000000 ) ) ;
#205 =( LENGTH_UNIT ( ) NAMED_UNIT ( * ) SI_UNIT ( .MILLI., .METRE. ) );
#206 =( NAMED_UNIT ( * ) SI_UNIT ( $, .STERADIAN. ) SOLID_ANGLE_UNIT ( ) );
#207 = CARTESIAN_POINT ( 'NONE',  ( 1099.999999999999800, 300.0000000000000000, -1.530808498934191600E-014 ) ) ;
#208 = ORIENTED_EDGE ( 'NONE', *, *, #17, .F. ) ;
#209 = AXIS2_PLACEMENT_3D ( 'NONE', #434, #37, #303 ) ;
#210 = FACE_OUTER_BOUND ( 'NONE', #521, .T. ) ;
#211 = FACE_OUTER_BOUND ( 'NONE', #161, .T. ) ;
#212 = DIRECTION ( 'NONE',  ( 0.0000000000000000000, 0.0000000000000000000, -1.000000000000000000 ) ) ;
#213 = DIRECTION ( 'NONE',  ( 1.000000000000000000, 2.467162276944793400E-016, 0.0000000000000000000 ) ) ;
#214 = UNCERTAINTY_MEASURE_WITH_UNIT (LENGTH_MEASURE( 1.000000000000000100E-005 ), #474, 'distance_accuracy_value', 'NONE');
#215 = CARTESIAN_POINT ( 'NONE',  ( 1699.999999999999500, 1374.999999999999500, 1.530808498934191600E-014 ) ) ;
#216 = EDGE_CURVE ( 'NONE', #297, #125, #489, .T. ) ;
#217 = PRODUCT_RELATED_PRODUCT_CATEGORY ( 'part', '', ( #366 ) ) ;
#218 = CYLINDRICAL_SURFACE ( 'NONE', #525, 112.9999999999995500 ) ;
#219 = TOROIDAL_SURFACE ( 'NONE', #326, 300.0000000000000600, 125.0000000000000000 ) ;
#220 = DIRECTION ( 'NONE',  ( 1.000000000000000000, 0.0000000000000000000, 0.0000000000000000000 ) ) ;
#221 = AXIS2_PLACEMENT_3D ( 'NONE', #266, #104, #344 ) ;
#222 = DIRECTION ( 'NONE',  ( 0.0000000000000000000, 0.0000000000000000000, 1.000000000000000000 ) ) ;
#223 = CARTESIAN_POINT ( 'NONE',  ( 2579.999999999998600, 1387.000000000000500, 0.0000000000000000000 ) ) ;
#224 = CIRCLE ( 'NONE', #498, 425.0000000000000600 ) ;
#225 = ORIENTED_EDGE ( 'NONE', *, *, #128, .T. ) ;
#226 = EDGE_CURVE ( 'NONE', #282, #424, #319, .T. ) ;
#227 = AXIS2_PLACEMENT_3D ( 'NONE', #24, #414, #131 ) ;
#228 = DIRECTION ( 'NONE',  ( -1.000000000000000000, 4.440892098500626200E-016, 0.0000000000000000000 ) ) ;
#229 = PLANE ( 'NONE',  #259 ) ;
#230 = FACE_OUTER_BOUND ( 'NONE', #47, .T. ) ;
#231 = ADVANCED_FACE ( 'NONE', ( #139 ), #516, .T. ) ;
#232 = DIRECTION ( 'NONE',  ( 0.0000000000000000000, 0.0000000000000000000, -1.000000000000000000 ) ) ;
#233 = CARTESIAN_POINT ( 'NONE',  ( 0.0000000000000000000, 0.0000000000000000000, 0.0000000000000000000 ) ) ;
#234 = ADVANCED_FACE ( 'NONE', ( #8 ), #496, .F. ) ;
#235 = VERTEX_POINT ( 'NONE', #271 ) ;
#236 = CIRCLE ( 'NONE', #528, 125.0000000000000000 ) ;
#237 = ORIENTED_EDGE ( 'NONE', *, *, #405, .T. ) ;
#238 = FACE_OUTER_BOUND ( 'NONE', #487, .T. ) ;
#239 = ADVANCED_FACE ( 'NONE', ( #210 ), #229, .T. ) ;
#240 = DIRECTION ( 'NONE',  ( 0.0000000000000000000, 0.0000000000000000000, -1.000000000000000000 ) ) ;
#241 = ADVANCED_FACE ( 'NONE', ( #230 ), #169, .T. ) ;
#242 = DIRECTION ( 'NONE',  ( -1.000000000000000000, 4.827056628805047900E-016, 0.0000000000000000000 ) ) ;
#243 = VERTEX_POINT ( 'NONE', #65 ) ;
#244 = COLOUR_RGB ( '',0.7921568627450980000, 0.8196078431372548800, 0.9333333333333333500 ) ;
#245 = AXIS2_PLACEMENT_3D ( 'NONE', #467, #86, #53 ) ;
#246 = ORIENTED_EDGE ( 'NONE', *, *, #413, .T. ) ;
#247 = DIRECTION ( 'NONE',  ( -1.000000000000000000, -2.467162276944793400E-016, -0.0000000000000000000 ) ) ;
#248 = PRODUCT_DEFINITION_FORMATION_WITH_SPECIFIED_SOURCE ( 'ANY', '', #366, .NOT_KNOWN. ) ;
#249 = CARTESIAN_POINT ( 'NONE',  ( 1099.999999999999800, 125.0000000000000000, -1.530808498934191600E-014 ) ) ;
#250 = VECTOR ( 'NONE', #71, 1000.000000000000000 ) ;
#251 = CARTESIAN_POINT ( 'NONE',  ( 1400.000000000000000, 1199.999999999999800, 0.0000000000000000000 ) ) ;
#252 = EDGE_CURVE ( 'NONE', #537, #283, #57, .T. ) ;
#253 = CARTESIAN_POINT ( 'NONE',  ( 1285.000000000000200, 300.0000000000000000, 0.0000000000000000000 ) ) ;
#254 = EDGE_CURVE ( 'NONE', #398, #431, #224, .T. ) ;
#255 = AXIS2_PLACEMENT_3D ( 'NONE', #407, #247, #196 ) ;
#256 = DIRECTION ( 'NONE',  ( -1.000000000000000000, 0.0000000000000000000, 0.0000000000000000000 ) ) ;
#257 = ORIENTED_EDGE ( 'NONE', *, *, #314, .T. ) ;
#258 = ORIENTED_EDGE ( 'NONE', *, *, #50, .F. ) ;
#259 = AXIS2_PLACEMENT_3D ( 'NONE', #359, #113, #232 ) ;
#260 = ORIENTED_EDGE ( 'NONE', *, *, #524, .F. ) ;
#261 = DIRECTION ( 'NONE',  ( 0.0000000000000000000, 0.0000000000000000000, -1.000000000000000000 ) ) ;
#262 = EDGE_CURVE ( 'NONE', #355, #34, #20, .T. ) ;
#263 = DIRECTION ( 'NONE',  ( 1.000000000000000000, 0.0000000000000000000, 0.0000000000000000000 ) ) ;
#264 = CYLINDRICAL_SURFACE ( 'NONE', #273, 114.9999999999997700 ) ;
#265 = DIRECTION ( 'NONE',  ( -1.000000000000000000, 0.0000000000000000000, 0.0000000000000000000 ) ) ;
#266 = CARTESIAN_POINT ( 'NONE',  ( 1699.999999999999500, 1499.999999999999500, 0.0000000000000000000 ) ) ;
#267 = PRESENTATION_LAYER_ASSIGNMENT (  '', '', ( #476 ) ) ;
#268 = DIRECTION ( 'NONE',  ( 2.467162276944792400E-016, 1.000000000000000000, 0.0000000000000000000 ) ) ;
#269 = ORIENTED_EDGE ( 'NONE', *, *, #17, .T. ) ;
#270 = ORIENTED_EDGE ( 'NONE', *, *, #142, .T. ) ;
#271 = CARTESIAN_POINT ( 'NONE',  ( 1720.000000000000200, 1387.000000000000000, 0.0000000000000000000 ) ) ;
#272 = DIRECTION ( 'NONE',  ( 2.467162276944792400E-016, 1.000000000000000000, 0.0000000000000000000 ) ) ;
#273 = AXIS2_PLACEMENT_3D ( 'NONE', #178, #177, #382 ) ;
#274 = DIRECTION ( 'NONE',  ( -1.000000000000000000, 4.440892098500626200E-016, 0.0000000000000000000 ) ) ;
#275 = ORIENTED_EDGE ( 'NONE', *, *, #493, .F. ) ;
#276 = CARTESIAN_POINT ( 'NONE',  ( 1099.999999999999800, 1.530808498934191600E-014, -125.0000000000000000 ) ) ;
#277 = EDGE_LOOP ( 'NONE', ( #320, #149 ) ) ;
#278 = VECTOR ( 'NONE', #454, 1000.000000000000000 ) ;
#279 = PRODUCT_DEFINITION_CONTEXT ( 'detailed design', #433, 'design' ) ;
#280 = PLANE ( 'NONE',  #194 ) ;
#281 = EDGE_CURVE ( 'NONE', #137, #235, #30, .T. ) ;
#282 = VERTEX_POINT ( 'NONE', #110 ) ;
#283 = VERTEX_POINT ( 'NONE', #403 ) ;
#284 = DIRECTION ( 'NONE',  ( 1.000000000000000000, 0.0000000000000000000, 0.0000000000000000000 ) ) ;
#285 = ORIENTED_EDGE ( 'NONE', *, *, #2, .F. ) ;
#286 = EDGE_CURVE ( 'NONE', #424, #34, #43, .T. ) ;
#287 = ORIENTED_EDGE ( 'NONE', *, *, #151, .F. ) ;
#288 = CIRCLE ( 'NONE', #387, 114.9999999999995500 ) ;
#289 = DIRECTION ( 'NONE',  ( -1.000000000000000000, 0.0000000000000000000, 0.0000000000000000000 ) ) ;
#290 = ORIENTED_EDGE ( 'NONE', *, *, #426, .F. ) ;
#291 = CIRCLE ( 'NONE', #443, 125.0000000000000000 ) ;
#292 = DIRECTION ( 'NONE',  ( 1.000000000000000000, 0.0000000000000000000, 0.0000000000000000000 ) ) ;
#293 = ORIENTED_EDGE ( 'NONE', *, *, #286, .T. ) ;
#294 = CARTESIAN_POINT ( 'NONE',  ( 2579.999999999998600, 1612.999999999999100, 1.383850883036502300E-014 ) ) ;
#295 = AXIS2_PLACEMENT_3D ( 'NONE', #411, #459, #325 ) ;
#296 = CARTESIAN_POINT ( 'NONE',  ( 1515.000000000000000, 1199.999999999999800, 1.408343819019456100E-014 ) ) ;
#297 = VERTEX_POINT ( 'NONE', #455 ) ;
#298 = ORIENTED_EDGE ( 'NONE', *, *, #64, .T. ) ;
#299 = VECTOR ( 'NONE', #199, 1000.000000000000000 ) ;
#300 = CARTESIAN_POINT ( 'NONE',  ( 1700.000000000000000, 1200.000000000000000, 1.530808498934191600E-014 ) ) ;
#301 = DIRECTION ( 'NONE',  ( 0.0000000000000000000, 0.0000000000000000000, -1.000000000000000000 ) ) ;
#302 = VECTOR ( 'NONE', #402, 1000.000000000000000 ) ;
#303 = DIRECTION ( 'NONE',  ( 0.0000000000000000000, 0.0000000000000000000, -1.000000000000000000 ) ) ;
#304 = ORIENTED_EDGE ( 'NONE', *, *, #314, .F. ) ;
#305 = ORIENTED_CLOSED_SHELL ( 'NONE', *, #145, .F. );
#306 = EDGE_CURVE ( 'NONE', #283, #243, #422, .T. ) ;
#307 = DIRECTION ( 'NONE',  ( -1.000000000000000000, 2.467162276944792900E-016, 0.0000000000000000000 ) ) ;
#308 = DIRECTION ( 'NONE',  ( 1.000000000000000000, 0.0000000000000000000, 0.0000000000000000000 ) ) ;
#309 = ORIENTED_EDGE ( 'NONE', *, *, #85, .T. ) ;
#310 = ORIENTED_EDGE ( 'NONE', *, *, #281, .T. ) ;
#311 = CIRCLE ( 'NONE', #209, 125.0000000000000000 ) ;
#312 = ADVANCED_FACE ( 'NONE', ( #192 ), #219, .T. ) ;
#313 = DIRECTION ( 'NONE',  ( 1.000000000000000000, 0.0000000000000000000, 0.0000000000000000000 ) ) ;
#314 = EDGE_CURVE ( 'NONE', #34, #424, #90, .T. ) ;
#315 = DIRECTION ( 'NONE',  ( 0.0000000000000000000, 0.0000000000000000000, 1.000000000000000000 ) ) ;
#316 = ADVANCED_FACE ( 'NONE', ( #114 ), #188, .T. ) ;
#317 = CARTESIAN_POINT ( 'NONE',  ( 1699.999999999999500, 1374.999999999999500, 1.530808498934191600E-014 ) ) ;
#318 = CARTESIAN_POINT ( 'NONE',  ( 1720.000000000000200, 1612.999999999999100, 1.383850883036502300E-014 ) ) ;
#319 = LINE ( 'NONE', #350, #278 ) ;
#320 = ORIENTED_EDGE ( 'NONE', *, *, #357, .T. ) ;
#321 = ORIENTED_EDGE ( 'NONE', *, *, #262, .T. ) ;
#322 = ORIENTED_EDGE ( 'NONE', *, *, #469, .F. ) ;
#323 = AXIS2_PLACEMENT_3D ( 'NONE', #348, #393, #99 ) ;
#324 = PLANE ( 'NONE',  #460 ) ;
#325 = DIRECTION ( 'NONE',  ( 0.0000000000000000000, 0.0000000000000000000, -1.000000000000000000 ) ) ;
#326 = AXIS2_PLACEMENT_3D ( 'NONE', #108, #399, #540 ) ;
#327 = VERTEX_POINT ( 'NONE', #317 ) ;
#328 = CIRCLE ( 'NONE', #397, 125.0000000000000000 ) ;
#329 = APPLICATION_CONTEXT ( 'automotive_design' ) ;
#330 = PLANE ( 'NONE',  #494 ) ;
#331 = CARTESIAN_POINT ( 'NONE',  ( 1524.999999999999800, 299.9999999999998900, 1.530808498934191600E-014 ) ) ;
#332 = FACE_OUTER_BOUND ( 'NONE', #132, .T. ) ;
#333 = SURFACE_STYLE_FILL_AREA ( #127 ) ;
#334 = EDGE_LOOP ( 'NONE', ( #225, #111, #457, #76 ) ) ;
#335 = EDGE_LOOP ( 'NONE', ( #371, #495, #309, #285 ) ) ;
#336 = DIRECTION ( 'NONE',  ( 1.000000000000000000, -2.467162276944792900E-016, 0.0000000000000000000 ) ) ;
#337 = EDGE_CURVE ( 'NONE', #355, #473, #328, .T. ) ;
#338 = AXIS2_PLACEMENT_3D ( 'NONE', #462, #10, #124 ) ;
#339 = AXIS2_PLACEMENT_3D ( 'NONE', #533, #263, #144 ) ;
#340 = VERTEX_POINT ( 'NONE', #318 ) ;
#341 = ORIENTED_EDGE ( 'NONE', *, *, #524, .T. ) ;
#342 = CIRCLE ( 'NONE', #338, 125.0000000000000000 ) ;
#343 = PLANE ( 'NONE',  #165 ) ;
#344 = DIRECTION ( 'NONE',  ( 0.0000000000000000000, -1.000000000000000000, 0.0000000000000000000 ) ) ;
#345 = DIRECTION ( 'NONE',  ( -1.000000000000000000, -2.467162276944793400E-016, -0.0000000000000000000 ) ) ;
#346 = EDGE_LOOP ( 'NONE', ( #531, #174, #258, #509, #293 ) ) ;
#347 = ORIENTED_EDGE ( 'NONE', *, *, #254, .F. ) ;
#348 = CARTESIAN_POINT ( 'NONE',  ( 1399.999999999999800, 299.9999999999999400, 0.0000000000000000000 ) ) ;
#349 = AXIS2_PLACEMENT_3D ( 'NONE', #26, #383, #256 ) ;
#350 = CARTESIAN_POINT ( 'NONE',  ( 1099.999999999999800, 0.0000000000000000000, 125.0000000000000000 ) ) ;
#351 = ADVANCED_BREP_SHAPE_REPRESENTATION ( 'pipe_with_hollow_segment', ( #513, #35 ), #450 ) ;
#352 = EDGE_LOOP ( 'NONE', ( #385, #287, #488, #66 ) ) ;
#353 = ORIENTED_EDGE ( 'NONE', *, *, #306, .F. ) ;
#354 = CARTESIAN_POINT ( 'NONE',  ( 1699.999999999999500, 1624.999999999999500, 0.0000000000000000000 ) ) ;
#355 = VERTEX_POINT ( 'NONE', #48 ) ;
#356 = EDGE_LOOP ( 'NONE', ( #523, #187, #290, #536 ) ) ;
#357 = EDGE_CURVE ( 'NONE', #137, #40, #98, .T. ) ;
#358 = AXIS2_PLACEMENT_3D ( 'NONE', #78, #506, #240 ) ;
#359 = CARTESIAN_POINT ( 'NONE',  ( 2599.999999999999100, 1499.999999999999800, 0.0000000000000000000 ) ) ;
#360 = DIRECTION ( 'NONE',  ( 0.0000000000000000000, 0.0000000000000000000, 1.000000000000000000 ) ) ;
#361 = ADVANCED_FACE ( 'NONE', ( #4 ), #324, .T. ) ;
#362 = CYLINDRICAL_SURFACE ( 'NONE', #538, 125.0000000000000000 ) ;
#363 = DIRECTION ( 'NONE',  ( -1.000000000000000000, -2.467162276944793400E-016, -0.0000000000000000000 ) ) ;
#364 = DIRECTION ( 'NONE',  ( 1.000000000000000000, 2.467162276944793400E-016, 0.0000000000000000000 ) ) ;
#365 = EDGE_CURVE ( 'NONE', #125, #97, #342, .T. ) ;
#366 = PRODUCT ( 'pipe_with_hollow_segment', 'pipe_with_hollow_segment', '', ( #96 ) ) ;
#367 = AXIS2_PLACEMENT_3D ( 'NONE', #519, #380, #375 ) ;
#368 = CARTESIAN_POINT ( 'NONE',  ( 0.0000000000000000000, 0.0000000000000000000, 125.0000000000000000 ) ) ;
#369 = VECTOR ( 'NONE', #87, 1000.000000000000000 ) ;
#370 = ORIENTED_EDGE ( 'NONE', *, *, #50, .T. ) ;
#371 = ORIENTED_EDGE ( 'NONE', *, *, #413, .F. ) ;
#372 = AXIS2_PLACEMENT_3D ( 'NONE', #173, #54, #491 ) ;
#373 = CARTESIAN_POINT ( 'NONE',  ( 1524.999999999999800, 299.9999999999999400, 1.530808498934191600E-014 ) ) ;
#374 =( NAMED_UNIT ( * ) PLANE_ANGLE_UNIT ( ) SI_UNIT ( $, .RADIAN. ) );
#375 = DIRECTION ( 'NONE',  ( 0.0000000000000000000, 0.0000000000000000000, 1.000000000000000000 ) ) ;
#376 = EDGE_CURVE ( 'NONE', #398, #355, #504, .T. ) ;
#377 = ORIENTED_EDGE ( 'NONE', *, *, #306, .T. ) ;
#378 = LINE ( 'NONE', #215, #535 ) ;
#379 = DIRECTION ( 'NONE',  ( 2.467162276944792900E-016, 1.000000000000000000, -0.0000000000000000000 ) ) ;
#380 = DIRECTION ( 'NONE',  ( -1.000000000000000000, -0.0000000000000000000, -0.0000000000000000000 ) ) ;
#381 = FILL_AREA_STYLE_COLOUR ( '', #75 ) ;
#382 = DIRECTION ( 'NONE',  ( -1.000000000000000000, 0.0000000000000000000, 0.0000000000000000000 ) ) ;
#383 = DIRECTION ( 'NONE',  ( -0.0000000000000000000, -0.0000000000000000000, -1.000000000000000000 ) ) ;
#384 = ORIENTED_EDGE ( 'NONE', *, *, #190, .F. ) ;
#385 = ORIENTED_EDGE ( 'NONE', *, *, #396, .F. ) ;
#386 = ORIENTED_EDGE ( 'NONE', *, *, #286, .F. ) ;
#387 = AXIS2_PLACEMENT_3D ( 'NONE', #408, #159, #242 ) ;
#388 = CARTESIAN_POINT ( 'NONE',  ( 1514.999999999999300, 299.9999999999998900, 1.408343819019453400E-014 ) ) ;
#389 = ORIENTED_EDGE ( 'NONE', *, *, #435, .F. ) ;
#390 = CYLINDRICAL_SURFACE ( 'NONE', #372, 114.9999999999997700 ) ;
#391 = CARTESIAN_POINT ( 'NONE',  ( 1275.000000000000000, 1199.999999999999800, 0.0000000000000000000 ) ) ;
#392 = CARTESIAN_POINT ( 'NONE',  ( 1400.000000000000000, 1199.999999999999800, 0.0000000000000000000 ) ) ;
#393 = DIRECTION ( 'NONE',  ( 2.467162276944792900E-016, 1.000000000000000000, -0.0000000000000000000 ) ) ;
#394 = ORIENTED_EDGE ( 'NONE', *, *, #179, .T. ) ;
#395 = CIRCLE ( 'NONE', #227, 112.9999999999995500 ) ;
#396 = EDGE_CURVE ( 'NONE', #168, #68, #416, .T. ) ;
#397 = AXIS2_PLACEMENT_3D ( 'NONE', #508, #284, #164 ) ;
#398 = VERTEX_POINT ( 'NONE', #12 ) ;
#399 = DIRECTION ( 'NONE',  ( -0.0000000000000000000, -0.0000000000000000000, -1.000000000000000000 ) ) ;
#400 = AXIS2_PLACEMENT_3D ( 'NONE', #233, #153, #6 ) ;
#401 = CARTESIAN_POINT ( 'NONE',  ( 1399.999999999999800, 299.9999999999999400, 0.0000000000000000000 ) ) ;
#402 = DIRECTION ( 'NONE',  ( -1.000000000000000000, -2.467162276944793400E-016, -0.0000000000000000000 ) ) ;
#403 = CARTESIAN_POINT ( 'NONE',  ( 2599.999999999999100, 1624.999999999999800, 0.0000000000000000000 ) ) ;
#404 = CIRCLE ( 'NONE', #39, 125.0000000000000000 ) ;
#405 = EDGE_CURVE ( 'NONE', #40, #340, #82, .T. ) ;
#406 = DIRECTION ( 'NONE',  ( 1.000000000000000000, 2.467162276944793400E-016, 0.0000000000000000000 ) ) ;
#407 = CARTESIAN_POINT ( 'NONE',  ( 2579.999999999998600, 1499.999999999999800, 0.0000000000000000000 ) ) ;
#408 = CARTESIAN_POINT ( 'NONE',  ( 1399.999999999999800, 299.9999999999999400, 0.0000000000000000000 ) ) ;
#409 = FACE_OUTER_BOUND ( 'NONE', #352, .T. ) ;
#410 = ORIENTED_EDGE ( 'NONE', *, *, #193, .T. ) ;
#411 = CARTESIAN_POINT ( 'NONE',  ( 1699.999999999999500, 1499.999999999999500, 0.0000000000000000000 ) ) ;
#412 = ADVANCED_FACE ( 'NONE', ( #532 ), #218, .F. ) ;
#413 = EDGE_CURVE ( 'NONE', #168, #478, #288, .T. ) ;
#414 = DIRECTION ( 'NONE',  ( -1.000000000000000000, -2.467162276944793400E-016, -0.0000000000000000000 ) ) ;
#415 = ORIENTED_EDGE ( 'NONE', *, *, #117, .F. ) ;
#416 = LINE ( 'NONE', #466, #299 ) ;
#417 = AXIS2_PLACEMENT_3D ( 'NONE', #176, #526, #23 ) ;
#418 = SURFACE_SIDE_STYLE ('',( #333 ) ) ;
#419 = UNCERTAINTY_MEASURE_WITH_UNIT (LENGTH_MEASURE( 1.000000000000000100E-005 ), #81, 'distance_accuracy_value', 'NONE');
#420 = DIRECTION ( 'NONE',  ( 0.0000000000000000000, 0.0000000000000000000, 1.000000000000000000 ) ) ;
#421 = ORIENTED_EDGE ( 'NONE', *, *, #281, .F. ) ;
#422 = CIRCLE ( 'NONE', #464, 125.0000000000000000 ) ;
#423 = CARTESIAN_POINT ( 'NONE',  ( 0.0000000000000000000, 0.0000000000000000000, 0.0000000000000000000 ) ) ;
#424 = VERTEX_POINT ( 'NONE', #368 ) ;
#425 = DIRECTION ( 'NONE',  ( 0.0000000000000000000, 0.0000000000000000000, 1.000000000000000000 ) ) ;
#426 = EDGE_CURVE ( 'NONE', #327, #537, #203, .T. ) ;
#427 = AXIS2_PLACEMENT_3D ( 'NONE', #42, #308, #63 ) ;
#428 = CARTESIAN_POINT ( 'NONE',  ( 0.0000000000000000000, 1.530808498934191600E-014, -125.0000000000000000 ) ) ;
#429 = AXIS2_PLACEMENT_3D ( 'NONE', #155, #115, #315 ) ;
#430 = DIRECTION ( 'NONE',  ( 1.000000000000000000, 0.0000000000000000000, 0.0000000000000000000 ) ) ;
#431 = VERTEX_POINT ( 'NONE', #373 ) ;
#432 = CIRCLE ( 'NONE', #323, 114.9999999999995500 ) ;
#433 = APPLICATION_CONTEXT ( 'automotive_design' ) ;
#434 = CARTESIAN_POINT ( 'NONE',  ( 1399.999999999999800, 299.9999999999999400, 0.0000000000000000000 ) ) ;
#435 = EDGE_CURVE ( 'NONE', #243, #283, #404, .T. ) ;
#436 = DIRECTION ( 'NONE',  ( -1.000000000000000000, -2.467162276944793400E-016, -0.0000000000000000000 ) ) ;
#437 = ORIENTED_EDGE ( 'NONE', *, *, #448, .F. ) ;
#438 = VECTOR ( 'NONE', #150, 1000.000000000000000 ) ;
#439 = CARTESIAN_POINT ( 'NONE',  ( 2579.999999999998600, 1499.999999999999800, 0.0000000000000000000 ) ) ;
#440 = CLOSED_SHELL ( 'NONE', ( #198, #312, #241, #316, #231, #5, #11, #189, #3, #507, #239, #77 ) ) ;
#441 = EDGE_LOOP ( 'NONE', ( #275, #394, #182, #415 ) ) ;
#442 = UNCERTAINTY_MEASURE_WITH_UNIT (LENGTH_MEASURE( 1.000000000000000100E-005 ), #205, 'distance_accuracy_value', 'NONE');
#443 = AXIS2_PLACEMENT_3D ( 'NONE', #444, #141, #492 ) ;
#444 = CARTESIAN_POINT ( 'NONE',  ( 1399.999999999999800, 299.9999999999999400, 0.0000000000000000000 ) ) ;
#445 = PRODUCT_DEFINITION ( 'UNKNOWN', '', #248, #279 ) ;
#446 = DIRECTION ( 'NONE',  ( 0.0000000000000000000, 0.0000000000000000000, -1.000000000000000000 ) ) ;
#447 = ORIENTED_EDGE ( 'NONE', *, *, #190, .T. ) ;
#448 = EDGE_CURVE ( 'NONE', #7, #68, #522, .T. ) ;
#449 = CLOSED_SHELL ( 'NONE', ( #118, #234, #67, #500 ) ) ;
#450 =( GEOMETRIC_REPRESENTATION_CONTEXT ( 3 ) GLOBAL_UNCERTAINTY_ASSIGNED_CONTEXT ( ( #419 ) ) GLOBAL_UNIT_ASSIGNED_CONTEXT ( ( #81, #374, #15 ) ) REPRESENTATION_CONTEXT ( 'NONE', 'WORKASPACE' ) );
#451 = CIRCLE ( 'NONE', #339, 125.0000000000000000 ) ;
#452 = DIRECTION ( 'NONE',  ( 1.000000000000000000, 2.467162276944793400E-016, 0.0000000000000000000 ) ) ;
#453 = AXIS2_PLACEMENT_3D ( 'NONE', #207, #420, #481 ) ;
#454 = DIRECTION ( 'NONE',  ( -1.000000000000000000, -0.0000000000000000000, -0.0000000000000000000 ) ) ;
#455 = CARTESIAN_POINT ( 'NONE',  ( 1274.999999999999800, 299.9999999999999400, 0.0000000000000000000 ) ) ;
#456 = CIRCLE ( 'NONE', #92, 112.9999999999993200 ) ;
#457 = ORIENTED_EDGE ( 'NONE', *, *, #365, .F. ) ;
#458 = CIRCLE ( 'NONE', #453, 175.0000000000000600 ) ;
#459 = DIRECTION ( 'NONE',  ( 1.000000000000000000, 0.0000000000000000000, 0.0000000000000000000 ) ) ;
#460 = AXIS2_PLACEMENT_3D ( 'NONE', #157, #364, #123 ) ;
#461 = ADVANCED_FACE ( 'NONE', ( #28 ), #280, .T. ) ;
#462 = CARTESIAN_POINT ( 'NONE',  ( 1400.000000000000000, 1199.999999999999800, 0.0000000000000000000 ) ) ;
#463 = EDGE_LOOP ( 'NONE', ( #341, #298, #353, #29 ) ) ;
#464 = AXIS2_PLACEMENT_3D ( 'NONE', #505, #313, #446 ) ;
#465 = CIRCLE ( 'NONE', #515, 125.0000000000000000 ) ;
#466 = CARTESIAN_POINT ( 'NONE',  ( 1514.999999999999800, 1199.999999999999800, 1.408343819019453400E-014 ) ) ;
#467 = CARTESIAN_POINT ( 'NONE',  ( 1700.000000000000000, 1200.000000000000000, 0.0000000000000000000 ) ) ;
#468 = SURFACE_STYLE_USAGE ( .BOTH. , #418 ) ;
#469 = EDGE_CURVE ( 'NONE', #125, #537, #202, .T. ) ;
#470 = DIRECTION ( 'NONE',  ( -2.467162276944792900E-016, -1.000000000000000000, 0.0000000000000000000 ) ) ;
#471 = CARTESIAN_POINT ( 'NONE',  ( 1099.999999999999800, 300.0000000000000000, 0.0000000000000000000 ) ) ;
#472 = FACE_OUTER_BOUND ( 'NONE', #441, .T. ) ;
#473 = VERTEX_POINT ( 'NONE', #249 ) ;
#474 =( LENGTH_UNIT ( ) NAMED_UNIT ( * ) SI_UNIT ( .MILLI., .METRE. ) );
#475 = DIRECTION ( 'NONE',  ( 0.0000000000000000000, 0.0000000000000000000, -1.000000000000000000 ) ) ;
#476 = STYLED_ITEM ( 'NONE', ( #479 ), #351 ) ;
#477 = ORIENTED_EDGE ( 'NONE', *, *, #503, .T. ) ;
#478 = VERTEX_POINT ( 'NONE', #253 ) ;
#479 = PRESENTATION_STYLE_ASSIGNMENT (( #468 ) ) ;
#480 = EDGE_LOOP ( 'NONE', ( #91, #237, #410, #421 ) ) ;
#481 = DIRECTION ( 'NONE',  ( 1.000000000000000000, 0.0000000000000000000, 0.0000000000000000000 ) ) ;
#482 = DIRECTION ( 'NONE',  ( 1.000000000000000000, 0.0000000000000000000, 0.0000000000000000000 ) ) ;
#483 = AXIS2_PLACEMENT_3D ( 'NONE', #401, #272, #274 ) ;
#484 = DIRECTION ( 'NONE',  ( -0.0000000000000000000, -0.0000000000000000000, -1.000000000000000000 ) ) ;
#485 = AXIS2_PLACEMENT_3D ( 'NONE', #32, #180, #265 ) ;
#486 = DIRECTION ( 'NONE',  ( 0.0000000000000000000, -1.000000000000000000, 0.0000000000000000000 ) ) ;
#487 = EDGE_LOOP ( 'NONE', ( #322, #154, #270, #260 ) ) ;
#488 = ORIENTED_EDGE ( 'NONE', *, *, #2, .T. ) ;
#489 = LINE ( 'NONE', #33, #183 ) ;
#490 = DIRECTION ( 'NONE',  ( 6.123233995736766000E-017, 1.000000000000000000, 0.0000000000000000000 ) ) ;
#491 = DIRECTION ( 'NONE',  ( -1.000000000000000000, 0.0000000000000000000, 0.0000000000000000000 ) ) ;
#492 = DIRECTION ( 'NONE',  ( 0.0000000000000000000, 0.0000000000000000000, -1.000000000000000000 ) ) ;
#493 = EDGE_CURVE ( 'NONE', #431, #97, #112, .T. ) ;
#494 = AXIS2_PLACEMENT_3D ( 'NONE', #204, #470, #336 ) ;
#495 = ORIENTED_EDGE ( 'NONE', *, *, #396, .T. ) ;
#496 = PLANE ( 'NONE',  #197 ) ;
#497 = EDGE_LOOP ( 'NONE', ( #437, #72 ) ) ;
#498 = AXIS2_PLACEMENT_3D ( 'NONE', #1, #360, #501 ) ;
#499 = DIRECTION ( 'NONE',  ( 2.467162276944792900E-016, 1.000000000000000000, -0.0000000000000000000 ) ) ;
#500 = ADVANCED_FACE ( 'NONE', ( #138 ), #330, .F. ) ;
#501 = DIRECTION ( 'NONE',  ( 1.000000000000000000, 0.0000000000000000000, 0.0000000000000000000 ) ) ;
#502 = ORIENTED_EDGE ( 'NONE', *, *, #503, .F. ) ;
#503 = EDGE_CURVE ( 'NONE', #235, #340, #395, .T. ) ;
#504 = CIRCLE ( 'NONE', #358, 125.0000000000000000 ) ;
#505 = CARTESIAN_POINT ( 'NONE',  ( 2599.999999999999100, 1499.999999999999800, 0.0000000000000000000 ) ) ;
#506 = DIRECTION ( 'NONE',  ( 1.000000000000000000, 0.0000000000000000000, 0.0000000000000000000 ) ) ;
#507 = ADVANCED_FACE ( 'NONE', ( #60 ), #510, .T. ) ;
#508 = CARTESIAN_POINT ( 'NONE',  ( 1099.999999999999800, 0.0000000000000000000, 0.0000000000000000000 ) ) ;
#509 = ORIENTED_EDGE ( 'NONE', *, *, #226, .T. ) ;
#510 = CYLINDRICAL_SURFACE ( 'NONE', #367, 125.0000000000000000 ) ;
#511 = ORIENTED_EDGE ( 'NONE', *, *, #426, .T. ) ;
#512 = EDGE_LOOP ( 'NONE', ( #181, #511, #9, #389 ) ) ;
#513 = BREP_WITH_VOIDS ( 'NONE', #440, ( #305, #79 ) );
#514 = EDGE_LOOP ( 'NONE', ( #502, #59 ) ) ;
#515 = AXIS2_PLACEMENT_3D ( 'NONE', #392, #490, #301 ) ;
#516 = CYLINDRICAL_SURFACE ( 'NONE', #80, 125.0000000000000000 ) ;
#517 =( NAMED_UNIT ( * ) PLANE_ANGLE_UNIT ( ) SI_UNIT ( $, .RADIAN. ) );
#518 = FILL_AREA_STYLE ('',( #172 ) ) ;
#519 = CARTESIAN_POINT ( 'NONE',  ( 1099.999999999999800, 0.0000000000000000000, 0.0000000000000000000 ) ) ;
#520 = ORIENTED_EDGE ( 'NONE', *, *, #337, .F. ) ;
#521 = EDGE_LOOP ( 'NONE', ( #377, #184 ) ) ;
#522 = CIRCLE ( 'NONE', #13, 114.9999999999999900 ) ;
#523 = ORIENTED_EDGE ( 'NONE', *, *, #117, .T. ) ;
#524 = EDGE_CURVE ( 'NONE', #537, #327, #58, .T. ) ;
#525 = AXIS2_PLACEMENT_3D ( 'NONE', #122, #363, #44 ) ;
#526 = DIRECTION ( 'NONE',  ( 1.000000000000000000, 2.467162276944793400E-016, 0.0000000000000000000 ) ) ;
#527 = CARTESIAN_POINT ( 'NONE',  ( 1099.999999999999800, 0.0000000000000000000, 0.0000000000000000000 ) ) ;
#528 = AXIS2_PLACEMENT_3D ( 'NONE', #527, #27, #25 ) ;
#529 = EDGE_LOOP ( 'NONE', ( #46, #246 ) ) ;
#530 = ORIENTED_EDGE ( 'NONE', *, *, #226, .F. ) ;
#531 = ORIENTED_EDGE ( 'NONE', *, *, #262, .F. ) ;
#532 = FACE_OUTER_BOUND ( 'NONE', #201, .T. ) ;
#533 = CARTESIAN_POINT ( 'NONE',  ( 1099.999999999999800, 0.0000000000000000000, 0.0000000000000000000 ) ) ;
#534 = APPLICATION_PROTOCOL_DEFINITION ( 'draft international standard', 'automotive_design', 1998, #329 ) ;
#535 = VECTOR ( 'NONE', #213, 1000.000000000000000 ) ;
#536 = ORIENTED_EDGE ( 'NONE', *, *, #142, .F. ) ;
#537 = VERTEX_POINT ( 'NONE', #21 ) ;
#538 = AXIS2_PLACEMENT_3D ( 'NONE', #146, #268, #228 ) ;
#539 = DIRECTION ( 'NONE',  ( -1.000000000000000000, 0.0000000000000000000, 0.0000000000000000000 ) ) ;
#540 = DIRECTION ( 'NONE',  ( -1.000000000000000000, 0.0000000000000000000, 0.0000000000000000000 ) ) ;
ENDSEC;
END-ISO-10303-21;
