ISO-10303-21;
HEADER;
FILE_DESCRIPTION (( 'STEP AP214' ),
    '1' );
FILE_NAME ('pipe_fsi_example.STEP',
    '2026-08-28T05:34:01',
    ( '' ),
    ( '' ),
    'SwSTEP 2.0',
    'SolidWorks 2015',
    '' );
FILE_SCHEMA (( 'AUTOMOTIVE_DESIGN' ));
ENDSEC;

DATA;
#1 = EDGE_CURVE ( 'NONE', #179, #94, #76, .T. ) ;
#2 = VECTOR ( 'NONE', #29, 1000.000000000000000 ) ;
#3 = CARTESIAN_POINT ( 'NONE',  ( 1500.000000000000500, 0.0000000000000000000, 0.0000000000000000000 ) ) ;
#4 = EDGE_CURVE ( 'NONE', #57, #199, #136, .T. ) ;
#5 = LINE ( 'NONE', #208, #189 ) ;
#6 = DIRECTION ( 'NONE',  ( 1.000000000000000000, 0.0000000000000000000, 0.0000000000000000000 ) ) ;
#7 = ORIENTED_EDGE ( 'NONE', *, *, #4, .T. ) ;
#8 = DIRECTION ( 'NONE',  ( 0.0000000000000000000, 0.0000000000000000000, -1.000000000000000000 ) ) ;
#9 = CARTESIAN_POINT ( 'NONE',  ( 0.0000000000000000000, 0.0000000000000000000, 0.0000000000000000000 ) ) ;
#10 =( LENGTH_UNIT ( ) NAMED_UNIT ( * ) SI_UNIT ( .MILLI., .METRE. ) );
#11 = ADVANCED_FACE ( 'NONE', ( #93 ), #178, .T. ) ;
#12 = PRESENTATION_STYLE_ASSIGNMENT (( #159 ) ) ;
#13 = STYLED_ITEM ( 'NONE', ( #148 ), #15 ) ;
#14 = ORIENTED_EDGE ( 'NONE', *, *, #113, .T. ) ;
#15 = MANIFOLD_SOLID_BREP ( 'Ressalto-extrusão2', #118 ) ;
#16 = AXIS2_PLACEMENT_3D ( 'NONE', #9, #20, #133 ) ;
#17 = STYLED_ITEM ( 'NONE', ( #12 ), #151 ) ;
#18 = LINE ( 'NONE', #171, #108 ) ;
#19 = FACE_OUTER_BOUND ( 'NONE', #183, .T. ) ;
#20 = DIRECTION ( 'NONE',  ( 1.000000000000000000, 0.0000000000000000000, 0.0000000000000000000 ) ) ;
#21 = ORIENTED_EDGE ( 'NONE', *, *, #181, .T. ) ;
#22 = DIRECTION ( 'NONE',  ( -1.000000000000000000, -0.0000000000000000000, -0.0000000000000000000 ) ) ;
#23 = CARTESIAN_POINT ( 'NONE',  ( 0.0000000000000000000, 1.823499083930408800E-014, -148.9000000000000100 ) ) ;
#24 = LINE ( 'NONE', #53, #166 ) ;
#25 = DIRECTION ( 'NONE',  ( 1.000000000000000000, 0.0000000000000000000, 0.0000000000000000000 ) ) ;
#26 = FACE_OUTER_BOUND ( 'NONE', #47, .T. ) ;
#27 = ORIENTED_EDGE ( 'NONE', *, *, #4, .F. ) ;
#28 = PRESENTATION_LAYER_ASSIGNMENT (  '', '', ( #13 ) ) ;
#29 = DIRECTION ( 'NONE',  ( -1.000000000000000000, -0.0000000000000000000, -0.0000000000000000000 ) ) ;
#30 = CARTESIAN_POINT ( 'NONE',  ( 0.0000000000000000000, 0.0000000000000000000, 0.0000000000000000000 ) ) ;
#31 = FILL_AREA_STYLE_COLOUR ( '', #129 ) ;
#32 = AXIS2_PLACEMENT_3D ( 'NONE', #102, #49, #99 ) ;
#33 = ORIENTED_EDGE ( 'NONE', *, *, #162, .F. ) ;
#34 = ORIENTED_EDGE ( 'NONE', *, *, #195, .F. ) ;
#35 =( GEOMETRIC_REPRESENTATION_CONTEXT ( 3 ) GLOBAL_UNCERTAINTY_ASSIGNED_CONTEXT ( ( #132 ) ) GLOBAL_UNIT_ASSIGNED_CONTEXT ( ( #174, #52, #72 ) ) REPRESENTATION_CONTEXT ( 'NONE', 'WORKASPACE' ) );
#36 = DIRECTION ( 'NONE',  ( 0.0000000000000000000, 0.0000000000000000000, 1.000000000000000000 ) ) ;
#37 = EDGE_LOOP ( 'NONE', ( #88, #62, #140, #184 ) ) ;
#38 = CARTESIAN_POINT ( 'NONE',  ( 1500.000000000000500, 0.0000000000000000000, 0.0000000000000000000 ) ) ;
#39 = CARTESIAN_POINT ( 'NONE',  ( 0.0000000000000000000, 0.0000000000000000000, 161.6000000000000200 ) ) ;
#40 = SURFACE_SIDE_STYLE ('',( #100 ) ) ;
#41 = DIRECTION ( 'NONE',  ( 1.000000000000000000, 0.0000000000000000000, 0.0000000000000000000 ) ) ;
#42 = PRODUCT ( 'pipe_fsi_example', 'pipe_fsi_example', '', ( #127 ) ) ;
#43 = FACE_BOUND ( 'NONE', #114, .T. ) ;
#44 = AXIS2_PLACEMENT_3D ( 'NONE', #60, #25, #69 ) ;
#45 = ORIENTED_EDGE ( 'NONE', *, *, #195, .T. ) ;
#46 = APPLICATION_PROTOCOL_DEFINITION ( 'draft international standard', 'automotive_design', 1998, #213 ) ;
#47 = EDGE_LOOP ( 'NONE', ( #34, #14, #73, #27 ) ) ;
#48 = AXIS2_PLACEMENT_3D ( 'NONE', #201, #153, #204 ) ;
#49 = DIRECTION ( 'NONE',  ( 1.000000000000000000, 0.0000000000000000000, 0.0000000000000000000 ) ) ;
#50 = ORIENTED_EDGE ( 'NONE', *, *, #63, .T. ) ;
#51 = PLANE ( 'NONE',  #90 ) ;
#52 =( NAMED_UNIT ( * ) PLANE_ANGLE_UNIT ( ) SI_UNIT ( $, .RADIAN. ) );
#53 = CARTESIAN_POINT ( 'NONE',  ( 1500.000000000000500, 1.823499083930408800E-014, -148.9000000000000100 ) ) ;
#54 = EDGE_CURVE ( 'NONE', #67, #150, #112, .T. ) ;
#55 = CIRCLE ( 'NONE', #168, 161.6000000000000200 ) ;
#56 = ADVANCED_FACE ( 'NONE', ( #182 ), #198, .T. ) ;
#57 = VERTEX_POINT ( 'NONE', #23 ) ;
#58 = ADVANCED_FACE ( 'NONE', ( #26 ), #194, .F. ) ;
#59 = DIRECTION ( 'NONE',  ( 1.000000000000000000, 0.0000000000000000000, 0.0000000000000000000 ) ) ;
#60 = CARTESIAN_POINT ( 'NONE',  ( 0.0000000000000000000, 0.0000000000000000000, 0.0000000000000000000 ) ) ;
#61 = CIRCLE ( 'NONE', #74, 148.9000000000000100 ) ;
#62 = ORIENTED_EDGE ( 'NONE', *, *, #181, .F. ) ;
#63 = EDGE_CURVE ( 'NONE', #146, #150, #18, .T. ) ;
#64 = AXIS2_PLACEMENT_3D ( 'NONE', #185, #77, #142 ) ;
#65 = DIRECTION ( 'NONE',  ( 0.0000000000000000000, 0.0000000000000000000, -1.000000000000000000 ) ) ;
#66 = AXIS2_PLACEMENT_3D ( 'NONE', #214, #160, #59 ) ;
#67 = VERTEX_POINT ( 'NONE', #39 ) ;
#68 = CARTESIAN_POINT ( 'NONE',  ( 1500.000000000000500, 0.0000000000000000000, 0.0000000000000000000 ) ) ;
#69 = DIRECTION ( 'NONE',  ( 0.0000000000000000000, 0.0000000000000000000, -1.000000000000000000 ) ) ;
#70 = SHAPE_DEFINITION_REPRESENTATION ( #111, #151 ) ;
#71 = CARTESIAN_POINT ( 'NONE',  ( 0.0000000000000000000, 1.979029227422122900E-014, -161.6000000000000200 ) ) ;
#72 =( NAMED_UNIT ( * ) SI_UNIT ( $, .STERADIAN. ) SOLID_ANGLE_UNIT ( ) );
#73 = ORIENTED_EDGE ( 'NONE', *, *, #123, .T. ) ;
#74 = AXIS2_PLACEMENT_3D ( 'NONE', #200, #6, #65 ) ;
#75 = EDGE_CURVE ( 'NONE', #81, #67, #5, .T. ) ;
#76 = CIRCLE ( 'NONE', #64, 148.9000000000000100 ) ;
#77 = DIRECTION ( 'NONE',  ( 1.000000000000000000, 0.0000000000000000000, 0.0000000000000000000 ) ) ;
#78 = CARTESIAN_POINT ( 'NONE',  ( 1500.000000000000500, 0.0000000000000000000, 148.9000000000000100 ) ) ;
#79 = CARTESIAN_POINT ( 'NONE',  ( 1500.000000000000500, 1.823499083930408800E-014, -148.9000000000000100 ) ) ;
#80 = DIRECTION ( 'NONE',  ( 0.0000000000000000000, 0.0000000000000000000, -1.000000000000000000 ) ) ;
#81 = VERTEX_POINT ( 'NONE', #117 ) ;
#82 = AXIS2_PLACEMENT_3D ( 'NONE', #38, #85, #36 ) ;
#83 = ORIENTED_EDGE ( 'NONE', *, *, #89, .T. ) ;
#84 =( NAMED_UNIT ( * ) SI_UNIT ( $, .STERADIAN. ) SOLID_ANGLE_UNIT ( ) );
#85 = DIRECTION ( 'NONE',  ( -1.000000000000000000, -0.0000000000000000000, -0.0000000000000000000 ) ) ;
#86 = FILL_AREA_STYLE ('',( #172 ) ) ;
#87 =( NAMED_UNIT ( * ) SI_UNIT ( $, .STERADIAN. ) SOLID_ANGLE_UNIT ( ) );
#88 = ORIENTED_EDGE ( 'NONE', *, *, #63, .F. ) ;
#89 = EDGE_CURVE ( 'NONE', #146, #81, #55, .T. ) ;
#90 = AXIS2_PLACEMENT_3D ( 'NONE', #167, #192, #106 ) ;
#91 = ORIENTED_EDGE ( 'NONE', *, *, #123, .F. ) ;
#92 = CIRCLE ( 'NONE', #138, 161.6000000000000200 ) ;
#93 = FACE_OUTER_BOUND ( 'NONE', #37, .T. ) ;
#94 = VERTEX_POINT ( 'NONE', #79 ) ;
#95 = UNCERTAINTY_MEASURE_WITH_UNIT (LENGTH_MEASURE( 1.000000000000000100E-005 ), #186, 'distance_accuracy_value', 'NONE');
#96 = FACE_OUTER_BOUND ( 'NONE', #190, .T. ) ;
#97 = FACE_BOUND ( 'NONE', #202, .T. ) ;
#98 = AXIS2_PLACEMENT_3D ( 'NONE', #103, #120, #134 ) ;
#99 = DIRECTION ( 'NONE',  ( 0.0000000000000000000, 0.0000000000000000000, -1.000000000000000000 ) ) ;
#100 = SURFACE_STYLE_FILL_AREA ( #175 ) ;
#101 = EDGE_CURVE ( 'NONE', #199, #57, #61, .T. ) ;
#102 = CARTESIAN_POINT ( 'NONE',  ( 1500.000000000000500, 0.0000000000000000000, 0.0000000000000000000 ) ) ;
#103 = CARTESIAN_POINT ( 'NONE',  ( 1500.000000000000500, 0.0000000000000000000, 0.0000000000000000000 ) ) ;
#104 = EDGE_LOOP ( 'NONE', ( #165, #33 ) ) ;
#105 = DIRECTION ( 'NONE',  ( -1.000000000000000000, -0.0000000000000000000, -0.0000000000000000000 ) ) ;
#106 = DIRECTION ( 'NONE',  ( 0.0000000000000000000, 0.0000000000000000000, -1.000000000000000000 ) ) ;
#107 = ADVANCED_FACE ( 'NONE', ( #96 ), #154, .F. ) ;
#108 = VECTOR ( 'NONE', #155, 1000.000000000000000 ) ;
#109 = ORIENTED_EDGE ( 'NONE', *, *, #1, .T. ) ;
#110 = AXIS2_PLACEMENT_3D ( 'NONE', #169, #105, #205 ) ;
#111 = PRODUCT_DEFINITION_SHAPE ( 'NONE', 'NONE',  #116 ) ;
#112 = CIRCLE ( 'NONE', #44, 161.6000000000000200 ) ;
#113 = EDGE_CURVE ( 'NONE', #94, #179, #145, .T. ) ;
#114 = EDGE_LOOP ( 'NONE', ( #161, #7 ) ) ;
#115 = MECHANICAL_DESIGN_GEOMETRIC_PRESENTATION_REPRESENTATION (  '', ( #17 ), #149 ) ;
#116 = PRODUCT_DEFINITION ( 'UNKNOWN', '', #152, #143 ) ;
#117 = CARTESIAN_POINT ( 'NONE',  ( 1500.000000000000500, 0.0000000000000000000, 161.6000000000000200 ) ) ;
#118 = CLOSED_SHELL ( 'NONE', ( #107, #56, #125, #163, #11, #58 ) ) ;
#119 = DIRECTION ( 'NONE',  ( -1.000000000000000000, -0.0000000000000000000, -0.0000000000000000000 ) ) ;
#120 = DIRECTION ( 'NONE',  ( 1.000000000000000000, 0.0000000000000000000, 0.0000000000000000000 ) ) ;
#121 = SURFACE_SIDE_STYLE ('',( #126 ) ) ;
#122 = CARTESIAN_POINT ( 'NONE',  ( 1500.000000000000500, 0.0000000000000000000, 0.0000000000000000000 ) ) ;
#123 = EDGE_CURVE ( 'NONE', #179, #199, #130, .T. ) ;
#124 = PRESENTATION_LAYER_ASSIGNMENT (  '', '', ( #17 ) ) ;
#125 = ADVANCED_FACE ( 'NONE', ( #19, #97 ), #141, .T. ) ;
#126 = SURFACE_STYLE_FILL_AREA ( #86 ) ;
#127 = PRODUCT_CONTEXT ( 'NONE', #128, 'mechanical' ) ;
#128 = APPLICATION_CONTEXT ( 'automotive_design' ) ;
#129 = COLOUR_RGB ( '',0.7921568627450980000, 0.8196078431372548800, 0.9333333333333333500 ) ;
#130 = LINE ( 'NONE', #187, #2 ) ;
#131 = ORIENTED_EDGE ( 'NONE', *, *, #113, .F. ) ;
#132 = UNCERTAINTY_MEASURE_WITH_UNIT (LENGTH_MEASURE( 1.000000000000000100E-005 ), #174, 'distance_accuracy_value', 'NONE');
#133 = DIRECTION ( 'NONE',  ( 0.0000000000000000000, 0.0000000000000000000, -1.000000000000000000 ) ) ;
#134 = DIRECTION ( 'NONE',  ( 0.0000000000000000000, 0.0000000000000000000, -1.000000000000000000 ) ) ;
#135 = AXIS2_PLACEMENT_3D ( 'NONE', #3, #22, #207 ) ;
#136 = CIRCLE ( 'NONE', #203, 148.9000000000000100 ) ;
#137 = FACE_OUTER_BOUND ( 'NONE', #104, .T. ) ;
#138 = AXIS2_PLACEMENT_3D ( 'NONE', #122, #41, #193 ) ;
#139 = COLOUR_RGB ( '',0.6509803921568627600, 0.6196078431372549200, 0.5882352941176470800 ) ;
#140 = ORIENTED_EDGE ( 'NONE', *, *, #75, .T. ) ;
#141 = PLANE ( 'NONE',  #32 ) ;
#142 = DIRECTION ( 'NONE',  ( 0.0000000000000000000, 0.0000000000000000000, -1.000000000000000000 ) ) ;
#143 = PRODUCT_DEFINITION_CONTEXT ( 'detailed design', #213, 'design' ) ;
#144 =( NAMED_UNIT ( * ) PLANE_ANGLE_UNIT ( ) SI_UNIT ( $, .RADIAN. ) );
#145 = CIRCLE ( 'NONE', #98, 148.9000000000000100 ) ;
#146 = VERTEX_POINT ( 'NONE', #173 ) ;
#147 = MECHANICAL_DESIGN_GEOMETRIC_PRESENTATION_REPRESENTATION (  '', ( #13 ), #35 ) ;
#148 = PRESENTATION_STYLE_ASSIGNMENT (( #158 ) ) ;
#149 =( GEOMETRIC_REPRESENTATION_CONTEXT ( 3 ) GLOBAL_UNCERTAINTY_ASSIGNED_CONTEXT ( ( #212 ) ) GLOBAL_UNIT_ASSIGNED_CONTEXT ( ( #10, #191, #84 ) ) REPRESENTATION_CONTEXT ( 'NONE', 'WORKASPACE' ) );
#150 = VERTEX_POINT ( 'NONE', #71 ) ;
#151 = ADVANCED_BREP_SHAPE_REPRESENTATION ( 'pipe_fsi_example', ( #15, #66 ), #177 ) ;
#152 = PRODUCT_DEFINITION_FORMATION_WITH_SPECIFIED_SOURCE ( 'ANY', '', #42, .NOT_KNOWN. ) ;
#153 = DIRECTION ( 'NONE',  ( -1.000000000000000000, -0.0000000000000000000, -0.0000000000000000000 ) ) ;
#154 = CYLINDRICAL_SURFACE ( 'NONE', #110, 148.9000000000000100 ) ;
#155 = DIRECTION ( 'NONE',  ( -1.000000000000000000, -0.0000000000000000000, -0.0000000000000000000 ) ) ;
#156 = ORIENTED_EDGE ( 'NONE', *, *, #89, .F. ) ;
#157 = EDGE_LOOP ( 'NONE', ( #156, #50, #164, #211 ) ) ;
#158 = SURFACE_STYLE_USAGE ( .BOTH. , #121 ) ;
#159 = SURFACE_STYLE_USAGE ( .BOTH. , #40 ) ;
#160 = DIRECTION ( 'NONE',  ( 0.0000000000000000000, 0.0000000000000000000, 1.000000000000000000 ) ) ;
#161 = ORIENTED_EDGE ( 'NONE', *, *, #101, .T. ) ;
#162 = EDGE_CURVE ( 'NONE', #150, #67, #170, .T. ) ;
#163 = ADVANCED_FACE ( 'NONE', ( #137, #43 ), #51, .F. ) ;
#164 = ORIENTED_EDGE ( 'NONE', *, *, #162, .T. ) ;
#165 = ORIENTED_EDGE ( 'NONE', *, *, #54, .F. ) ;
#166 = VECTOR ( 'NONE', #176, 1000.000000000000000 ) ;
#167 = CARTESIAN_POINT ( 'NONE',  ( 0.0000000000000000000, 0.0000000000000000000, 0.0000000000000000000 ) ) ;
#168 = AXIS2_PLACEMENT_3D ( 'NONE', #68, #188, #80 ) ;
#169 = CARTESIAN_POINT ( 'NONE',  ( 1500.000000000000500, 0.0000000000000000000, 0.0000000000000000000 ) ) ;
#170 = CIRCLE ( 'NONE', #16, 161.6000000000000200 ) ;
#171 = CARTESIAN_POINT ( 'NONE',  ( 1500.000000000000500, 1.979029227422122900E-014, -161.6000000000000200 ) ) ;
#172 = FILL_AREA_STYLE_COLOUR ( '', #139 ) ;
#173 = CARTESIAN_POINT ( 'NONE',  ( 1500.000000000000500, 1.979029227422122900E-014, -161.6000000000000200 ) ) ;
#174 =( LENGTH_UNIT ( ) NAMED_UNIT ( * ) SI_UNIT ( .MILLI., .METRE. ) );
#175 = FILL_AREA_STYLE ('',( #31 ) ) ;
#176 = DIRECTION ( 'NONE',  ( -1.000000000000000000, -0.0000000000000000000, -0.0000000000000000000 ) ) ;
#177 =( GEOMETRIC_REPRESENTATION_CONTEXT ( 3 ) GLOBAL_UNCERTAINTY_ASSIGNED_CONTEXT ( ( #95 ) ) GLOBAL_UNIT_ASSIGNED_CONTEXT ( ( #186, #144, #87 ) ) REPRESENTATION_CONTEXT ( 'NONE', 'WORKASPACE' ) );
#178 = CYLINDRICAL_SURFACE ( 'NONE', #135, 161.6000000000000200 ) ;
#179 = VERTEX_POINT ( 'NONE', #78 ) ;
#180 = APPLICATION_PROTOCOL_DEFINITION ( 'draft international standard', 'automotive_design', 1998, #128 ) ;
#181 = EDGE_CURVE ( 'NONE', #81, #146, #92, .T. ) ;
#182 = FACE_OUTER_BOUND ( 'NONE', #157, .T. ) ;
#183 = EDGE_LOOP ( 'NONE', ( #21, #83 ) ) ;
#184 = ORIENTED_EDGE ( 'NONE', *, *, #54, .T. ) ;
#185 = CARTESIAN_POINT ( 'NONE',  ( 1500.000000000000500, 0.0000000000000000000, 0.0000000000000000000 ) ) ;
#186 =( LENGTH_UNIT ( ) NAMED_UNIT ( * ) SI_UNIT ( .MILLI., .METRE. ) );
#187 = CARTESIAN_POINT ( 'NONE',  ( 1500.000000000000500, 0.0000000000000000000, 148.9000000000000100 ) ) ;
#188 = DIRECTION ( 'NONE',  ( 1.000000000000000000, 0.0000000000000000000, 0.0000000000000000000 ) ) ;
#189 = VECTOR ( 'NONE', #119, 1000.000000000000000 ) ;
#190 = EDGE_LOOP ( 'NONE', ( #109, #45, #206, #91 ) ) ;
#191 =( NAMED_UNIT ( * ) PLANE_ANGLE_UNIT ( ) SI_UNIT ( $, .RADIAN. ) );
#192 = DIRECTION ( 'NONE',  ( 1.000000000000000000, 0.0000000000000000000, 0.0000000000000000000 ) ) ;
#193 = DIRECTION ( 'NONE',  ( 0.0000000000000000000, 0.0000000000000000000, -1.000000000000000000 ) ) ;
#194 = CYLINDRICAL_SURFACE ( 'NONE', #82, 148.9000000000000100 ) ;
#195 = EDGE_CURVE ( 'NONE', #94, #57, #24, .T. ) ;
#196 = ORIENTED_EDGE ( 'NONE', *, *, #1, .F. ) ;
#197 = PRODUCT_RELATED_PRODUCT_CATEGORY ( 'part', '', ( #42 ) ) ;
#198 = CYLINDRICAL_SURFACE ( 'NONE', #48, 161.6000000000000200 ) ;
#199 = VERTEX_POINT ( 'NONE', #210 ) ;
#200 = CARTESIAN_POINT ( 'NONE',  ( 0.0000000000000000000, 0.0000000000000000000, 0.0000000000000000000 ) ) ;
#201 = CARTESIAN_POINT ( 'NONE',  ( 1500.000000000000500, 0.0000000000000000000, 0.0000000000000000000 ) ) ;
#202 = EDGE_LOOP ( 'NONE', ( #196, #131 ) ) ;
#203 = AXIS2_PLACEMENT_3D ( 'NONE', #30, #209, #8 ) ;
#204 = DIRECTION ( 'NONE',  ( 0.0000000000000000000, 0.0000000000000000000, 1.000000000000000000 ) ) ;
#205 = DIRECTION ( 'NONE',  ( 0.0000000000000000000, 0.0000000000000000000, 1.000000000000000000 ) ) ;
#206 = ORIENTED_EDGE ( 'NONE', *, *, #101, .F. ) ;
#207 = DIRECTION ( 'NONE',  ( 0.0000000000000000000, 0.0000000000000000000, 1.000000000000000000 ) ) ;
#208 = CARTESIAN_POINT ( 'NONE',  ( 1500.000000000000500, 0.0000000000000000000, 161.6000000000000200 ) ) ;
#209 = DIRECTION ( 'NONE',  ( 1.000000000000000000, 0.0000000000000000000, 0.0000000000000000000 ) ) ;
#210 = CARTESIAN_POINT ( 'NONE',  ( 0.0000000000000000000, 0.0000000000000000000, 148.9000000000000100 ) ) ;
#211 = ORIENTED_EDGE ( 'NONE', *, *, #75, .F. ) ;
#212 = UNCERTAINTY_MEASURE_WITH_UNIT (LENGTH_MEASURE( 1.000000000000000100E-005 ), #10, 'distance_accuracy_value', 'NONE');
#213 = APPLICATION_CONTEXT ( 'automotive_design' ) ;
#214 = CARTESIAN_POINT ( 'NONE',  ( 0.0000000000000000000, 0.0000000000000000000, 0.0000000000000000000 ) ) ;
ENDSEC;
END-ISO-10303-21;
