ISO-10303-21;
HEADER;
FILE_DESCRIPTION (( 'STEP AP214' ),
    '1' );
FILE_NAME ('rectangular_volumes.STEP',
    '2025-03-25T13:43:05',
    ( '' ),
    ( '' ),
    'SwSTEP 2.0',
    'SolidWorks 2015',
    '' );
FILE_SCHEMA (( 'AUTOMOTIVE_DESIGN' ));
ENDSEC;

DATA;
#1 = ADVANCED_FACE ( 'NONE', ( #25 ), #161, .T. ) ;
#2 = DIRECTION ( 'NONE',  ( -0.0000000000000000000, -1.000000000000000000, -0.0000000000000000000 ) ) ;
#3 = ORIENTED_EDGE ( 'NONE', *, *, #139, .F. ) ;
#4 = COLOUR_RGB ( '',0.7921568627450980000, 0.8196078431372548800, 0.9333333333333333500 ) ;
#5 = LINE ( 'NONE', #342, #167 ) ;
#6 = CARTESIAN_POINT ( 'NONE',  ( 0.0000000000000000000, -149.9999999999999700, -100.0000000000000000 ) ) ;
#7 = DIRECTION ( 'NONE',  ( -0.0000000000000000000, -1.000000000000000000, -0.0000000000000000000 ) ) ;
#8 = EDGE_CURVE ( 'NONE', #9, #42, #32, .T. ) ;
#9 = VERTEX_POINT ( 'NONE', #20 ) ;
#10 = FILL_AREA_STYLE ('',( #105 ) ) ;
#11 = EDGE_LOOP ( 'NONE', ( #249, #170, #157, #113 ) ) ;
#12 = LINE ( 'NONE', #258, #348 ) ;
#13 = ORIENTED_EDGE ( 'NONE', *, *, #295, .F. ) ;
#14 = ORIENTED_EDGE ( 'NONE', *, *, #215, .T. ) ;
#15 = PLANE ( 'NONE',  #128 ) ;
#16 = VECTOR ( 'NONE', #131, 1000.000000000000000 ) ;
#17 = CARTESIAN_POINT ( 'NONE',  ( 1000.000000000000000, -149.9999999999999700, -100.0000000000000000 ) ) ;
#18 = ORIENTED_EDGE ( 'NONE', *, *, #70, .F. ) ;
#19 = CARTESIAN_POINT ( 'NONE',  ( 1000.000000000000000, -149.9999999999999700, 100.0000000000000000 ) ) ;
#20 = CARTESIAN_POINT ( 'NONE',  ( -1000.000000000000000, 150.0000000000000600, -100.0000000000000000 ) ) ;
#21 = CARTESIAN_POINT ( 'NONE',  ( 0.0000000000000000000, 150.0000000000000600, -100.0000000000000000 ) ) ;
#22 =( NAMED_UNIT ( * ) SI_UNIT ( $, .STERADIAN. ) SOLID_ANGLE_UNIT ( ) );
#23 = EDGE_LOOP ( 'NONE', ( #219, #299, #259, #135 ) ) ;
#24 = VECTOR ( 'NONE', #85, 1000.000000000000000 ) ;
#25 = FACE_OUTER_BOUND ( 'NONE', #327, .T. ) ;
#26 = AXIS2_PLACEMENT_3D ( 'NONE', #377, #204, #172 ) ;
#27 = EDGE_CURVE ( 'NONE', #42, #262, #251, .T. ) ;
#28 = EDGE_CURVE ( 'NONE', #376, #184, #98, .T. ) ;
#29 = APPLICATION_CONTEXT ( 'automotive_design' ) ;
#30 = VERTEX_POINT ( 'NONE', #121 ) ;
#31 = LINE ( 'NONE', #322, #282 ) ;
#32 = LINE ( 'NONE', #279, #339 ) ;
#33 = APPLICATION_CONTEXT ( 'automotive_design' ) ;
#34 = PRODUCT_DEFINITION_FORMATION_WITH_SPECIFIED_SOURCE ( 'ANY', '', #328, .NOT_KNOWN. ) ;
#35 = EDGE_CURVE ( 'NONE', #262, #58, #360, .T. ) ;
#36 =( LENGTH_UNIT ( ) NAMED_UNIT ( * ) SI_UNIT ( .MILLI., .METRE. ) );
#37 = DIRECTION ( 'NONE',  ( 0.0000000000000000000, 0.0000000000000000000, 1.000000000000000000 ) ) ;
#38 = FACE_OUTER_BOUND ( 'NONE', #304, .T. ) ;
#39 = ORIENTED_EDGE ( 'NONE', *, *, #353, .F. ) ;
#40 = DIRECTION ( 'NONE',  ( 1.000000000000000000, 0.0000000000000000000, -0.0000000000000000000 ) ) ;
#41 = LINE ( 'NONE', #263, #369 ) ;
#42 = VERTEX_POINT ( 'NONE', #267 ) ;
#43 = DIRECTION ( 'NONE',  ( 0.0000000000000000000, 0.0000000000000000000, 1.000000000000000000 ) ) ;
#44 = MANIFOLD_SOLID_BREP ( 'Ressalto-extrusão2', #205 ) ;
#45 = PRESENTATION_STYLE_ASSIGNMENT (( #73 ) ) ;
#46 = CARTESIAN_POINT ( 'NONE',  ( -1000.000000000000000, 150.0000000000000300, 100.0000000000000000 ) ) ;
#47 = PRODUCT_DEFINITION ( 'UNKNOWN', '', #235, #275 ) ;
#48 = LINE ( 'NONE', #242, #124 ) ;
#49 = DIRECTION ( 'NONE',  ( 1.000000000000000000, 0.0000000000000000000, -0.0000000000000000000 ) ) ;
#50 = CARTESIAN_POINT ( 'NONE',  ( 0.0000000000000000000, 150.0000000000000300, 100.0000000000000000 ) ) ;
#51 = VERTEX_POINT ( 'NONE', #60 ) ;
#52 = DIRECTION ( 'NONE',  ( -0.0000000000000000000, -0.0000000000000000000, -1.000000000000000000 ) ) ;
#53 = ADVANCED_FACE ( 'NONE', ( #221 ), #79, .T. ) ;
#54 = CARTESIAN_POINT ( 'NONE',  ( 1000.000000000000000, -149.9999999999999700, 100.0000000000000000 ) ) ;
#55 = ADVANCED_FACE ( 'NONE', ( #320 ), #15, .F. ) ;
#56 = CARTESIAN_POINT ( 'NONE',  ( 1000.000000000000000, 0.0000000000000000000, 0.0000000000000000000 ) ) ;
#57 = DIRECTION ( 'NONE',  ( 1.000000000000000000, 0.0000000000000000000, 0.0000000000000000000 ) ) ;
#58 = VERTEX_POINT ( 'NONE', #141 ) ;
#59 = UNCERTAINTY_MEASURE_WITH_UNIT (LENGTH_MEASURE( 1.000000000000000100E-005 ), #91, 'distance_accuracy_value', 'NONE');
#60 = CARTESIAN_POINT ( 'NONE',  ( 1000.000000000000000, 150.0000000000000300, 100.0000000000000000 ) ) ;
#61 = ORIENTED_EDGE ( 'NONE', *, *, #252, .T. ) ;
#62 = MECHANICAL_DESIGN_GEOMETRIC_PRESENTATION_REPRESENTATION (  '', ( #168 ), #210 ) ;
#63 = APPLICATION_PROTOCOL_DEFINITION ( 'draft international standard', 'automotive_design', 1998, #33 ) ;
#64 = VECTOR ( 'NONE', #81, 1000.000000000000000 ) ;
#65 = LINE ( 'NONE', #381, #194 ) ;
#66 = CARTESIAN_POINT ( 'NONE',  ( -1000.000000000000000, 0.0000000000000000000, 0.0000000000000000000 ) ) ;
#67 = ORIENTED_EDGE ( 'NONE', *, *, #272, .T. ) ;
#68 =( NAMED_UNIT ( * ) PLANE_ANGLE_UNIT ( ) SI_UNIT ( $, .RADIAN. ) );
#69 = VECTOR ( 'NONE', #291, 1000.000000000000000 ) ;
#70 = EDGE_CURVE ( 'NONE', #101, #184, #231, .T. ) ;
#71 = EDGE_LOOP ( 'NONE', ( #371, #307, #84, #154 ) ) ;
#72 = DIRECTION ( 'NONE',  ( -0.0000000000000000000, 0.0000000000000000000, -1.000000000000000000 ) ) ;
#73 = SURFACE_STYLE_USAGE ( .BOTH. , #104 ) ;
#74 = ORIENTED_EDGE ( 'NONE', *, *, #341, .T. ) ;
#75 = APPLICATION_CONTEXT ( 'automotive_design' ) ;
#76 = SURFACE_STYLE_FILL_AREA ( #10 ) ;
#77 = EDGE_LOOP ( 'NONE', ( #61, #108, #363, #261 ) ) ;
#78 = VECTOR ( 'NONE', #209, 1000.000000000000000 ) ;
#79 = PLANE ( 'NONE',  #250 ) ;
#80 = EDGE_CURVE ( 'NONE', #270, #376, #367, .T. ) ;
#81 = DIRECTION ( 'NONE',  ( -1.000000000000000000, -0.0000000000000000000, -0.0000000000000000000 ) ) ;
#82 = LINE ( 'NONE', #46, #69 ) ;
#83 = CARTESIAN_POINT ( 'NONE',  ( 0.0000000000000000000, -149.9999999999999700, -100.0000000000000000 ) ) ;
#84 = ORIENTED_EDGE ( 'NONE', *, *, #182, .T. ) ;
#85 = DIRECTION ( 'NONE',  ( -0.0000000000000000000, -0.0000000000000000000, -1.000000000000000000 ) ) ;
#86 = DIRECTION ( 'NONE',  ( 0.0000000000000000000, 0.0000000000000000000, -1.000000000000000000 ) ) ;
#87 = SURFACE_STYLE_FILL_AREA ( #266 ) ;
#88 = CARTESIAN_POINT ( 'NONE',  ( -1000.000000000000000, -149.9999999999999700, -100.0000000000000000 ) ) ;
#89 = LINE ( 'NONE', #111, #24 ) ;
#90 = ADVANCED_FACE ( 'NONE', ( #296 ), #198, .T. ) ;
#91 =( LENGTH_UNIT ( ) NAMED_UNIT ( * ) SI_UNIT ( .MILLI., .METRE. ) );
#92 = PRODUCT_DEFINITION_CONTEXT ( 'detailed design', #29, 'design' ) ;
#93 = DIRECTION ( 'NONE',  ( 0.0000000000000000000, 1.000000000000000000, 0.0000000000000000000 ) ) ;
#94 = ORIENTED_EDGE ( 'NONE', *, *, #199, .F. ) ;
#95 = ORIENTED_EDGE ( 'NONE', *, *, #355, .F. ) ;
#96 = VERTEX_POINT ( 'NONE', #248 ) ;
#97 = LINE ( 'NONE', #287, #309 ) ;
#98 = LINE ( 'NONE', #298, #127 ) ;
#99 = PRODUCT_RELATED_PRODUCT_CATEGORY ( 'part', '', ( #185 ) ) ;
#100 = CARTESIAN_POINT ( 'NONE',  ( 0.0000000000000000000, -149.9999999999999700, 100.0000000000000000 ) ) ;
#101 = VERTEX_POINT ( 'NONE', #308 ) ;
#102 = DIRECTION ( 'NONE',  ( 1.000000000000000000, 0.0000000000000000000, 0.0000000000000000000 ) ) ;
#103 = ADVANCED_BREP_SHAPE_REPRESENTATION ( 'rectangular_volumes', ( #132, #44, #240 ), #149 ) ;
#104 = SURFACE_SIDE_STYLE ('',( #76 ) ) ;
#105 = FILL_AREA_STYLE_COLOUR ( '', #176 ) ;
#106 = EDGE_LOOP ( 'NONE', ( #178, #286, #193, #195 ) ) ;
#107 = LINE ( 'NONE', #173, #126 ) ;
#108 = ORIENTED_EDGE ( 'NONE', *, *, #372, .F. ) ;
#109 = AXIS2_PLACEMENT_3D ( 'NONE', #66, #333, #245 ) ;
#110 = DIRECTION ( 'NONE',  ( 0.0000000000000000000, -1.387778780781445700E-016, 1.000000000000000000 ) ) ;
#111 = CARTESIAN_POINT ( 'NONE',  ( 0.0000000000000000000, -149.9999999999999700, -100.0000000000000000 ) ) ;
#112 = CARTESIAN_POINT ( 'NONE',  ( 0.0000000000000000000, 150.0000000000000600, -100.0000000000000000 ) ) ;
#113 = ORIENTED_EDGE ( 'NONE', *, *, #295, .T. ) ;
#114 = PRESENTATION_LAYER_ASSIGNMENT (  '', '', ( #293 ) ) ;
#115 = FACE_OUTER_BOUND ( 'NONE', #77, .T. ) ;
#116 = ORIENTED_EDGE ( 'NONE', *, *, #155, .F. ) ;
#117 = CARTESIAN_POINT ( 'NONE',  ( 1000.000000000000000, 150.0000000000000600, -100.0000000000000000 ) ) ;
#118 = ADVANCED_FACE ( 'NONE', ( #140 ), #136, .F. ) ;
#119 = DIRECTION ( 'NONE',  ( 0.0000000000000000000, 0.0000000000000000000, -1.000000000000000000 ) ) ;
#120 = ADVANCED_FACE ( 'NONE', ( #214 ), #280, .F. ) ;
#121 = CARTESIAN_POINT ( 'NONE',  ( 0.0000000000000000000, -149.9999999999999700, 100.0000000000000000 ) ) ;
#122 = CARTESIAN_POINT ( 'NONE',  ( -1000.000000000000000, -149.9999999999999700, 100.0000000000000000 ) ) ;
#123 = PRODUCT_CONTEXT ( 'NONE', #186, 'mechanical' ) ;
#124 = VECTOR ( 'NONE', #301, 1000.000000000000000 ) ;
#125 = ORIENTED_EDGE ( 'NONE', *, *, #35, .T. ) ;
#126 = VECTOR ( 'NONE', #378, 1000.000000000000000 ) ;
#127 = VECTOR ( 'NONE', #93, 1000.000000000000000 ) ;
#128 = AXIS2_PLACEMENT_3D ( 'NONE', #17, #43, #311 ) ;
#129 = FILL_AREA_STYLE_COLOUR ( '', #152 ) ;
#130 = DIRECTION ( 'NONE',  ( 0.0000000000000000000, -1.387778780781445700E-016, 1.000000000000000000 ) ) ;
#131 = DIRECTION ( 'NONE',  ( 0.0000000000000000000, 1.000000000000000000, 0.0000000000000000000 ) ) ;
#132 = MANIFOLD_SOLID_BREP ( 'Ressalto-extrusão1', #216 ) ;
#133 = CARTESIAN_POINT ( 'NONE',  ( 0.0000000000000000000, 0.0000000000000000000, 0.0000000000000000000 ) ) ;
#134 = ORIENTED_EDGE ( 'NONE', *, *, #215, .F. ) ;
#135 = ORIENTED_EDGE ( 'NONE', *, *, #236, .T. ) ;
#136 = PLANE ( 'NONE',  #323 ) ;
#137 =( GEOMETRIC_REPRESENTATION_CONTEXT ( 3 ) GLOBAL_UNCERTAINTY_ASSIGNED_CONTEXT ( ( #247 ) ) GLOBAL_UNIT_ASSIGNED_CONTEXT ( ( #169, #153, #22 ) ) REPRESENTATION_CONTEXT ( 'NONE', 'WORKASPACE' ) );
#138 = CARTESIAN_POINT ( 'NONE',  ( 0.0000000000000000000, 0.0000000000000000000, 0.0000000000000000000 ) ) ;
#139 = EDGE_CURVE ( 'NONE', #30, #376, #12, .T. ) ;
#140 = FACE_OUTER_BOUND ( 'NONE', #358, .T. ) ;
#141 = CARTESIAN_POINT ( 'NONE',  ( 0.0000000000000000000, -149.9999999999999700, 100.0000000000000000 ) ) ;
#142 = DIRECTION ( 'NONE',  ( 1.000000000000000000, 0.0000000000000000000, 0.0000000000000000000 ) ) ;
#143 = CARTESIAN_POINT ( 'NONE',  ( 1000.000000000000000, -149.9999999999999700, 100.0000000000000000 ) ) ;
#144 = ORIENTED_EDGE ( 'NONE', *, *, #272, .F. ) ;
#145 = DIRECTION ( 'NONE',  ( -1.000000000000000000, 0.0000000000000000000, -0.0000000000000000000 ) ) ;
#146 = PLANE ( 'NONE',  #366 ) ;
#147 = VECTOR ( 'NONE', #370, 1000.000000000000000 ) ;
#148 = ADVANCED_FACE ( 'NONE', ( #269 ), #228, .F. ) ;
#149 =( GEOMETRIC_REPRESENTATION_CONTEXT ( 3 ) GLOBAL_UNCERTAINTY_ASSIGNED_CONTEXT ( ( #188 ) ) GLOBAL_UNIT_ASSIGNED_CONTEXT ( ( #36, #191, #334 ) ) REPRESENTATION_CONTEXT ( 'NONE', 'WORKASPACE' ) );
#150 = LINE ( 'NONE', #117, #78 ) ;
#151 = CARTESIAN_POINT ( 'NONE',  ( -1000.000000000000000, -149.9999999999999700, 100.0000000000000000 ) ) ;
#152 = COLOUR_RGB ( '',0.7921568627450980000, 0.8196078431372548800, 0.9333333333333333500 ) ;
#153 =( NAMED_UNIT ( * ) PLANE_ANGLE_UNIT ( ) SI_UNIT ( $, .RADIAN. ) );
#154 = ORIENTED_EDGE ( 'NONE', *, *, #254, .T. ) ;
#155 = EDGE_CURVE ( 'NONE', #262, #175, #65, .T. ) ;
#156 = VECTOR ( 'NONE', #57, 1000.000000000000000 ) ;
#157 = ORIENTED_EDGE ( 'NONE', *, *, #8, .T. ) ;
#158 = VECTOR ( 'NONE', #226, 1000.000000000000000 ) ;
#159 =( LENGTH_UNIT ( ) NAMED_UNIT ( * ) SI_UNIT ( .MILLI., .METRE. ) );
#160 = EDGE_CURVE ( 'NONE', #101, #51, #150, .T. ) ;
#161 = PLANE ( 'NONE',  #179 ) ;
#162 = FILL_AREA_STYLE ('',( #129 ) ) ;
#163 = ORIENTED_EDGE ( 'NONE', *, *, #80, .T. ) ;
#164 = CARTESIAN_POINT ( 'NONE',  ( 1000.000000000000000, -149.9999999999999700, -100.0000000000000000 ) ) ;
#165 = EDGE_LOOP ( 'NONE', ( #227, #281, #202, #67 ) ) ;
#166 = PRESENTATION_STYLE_ASSIGNMENT (( #183 ) ) ;
#167 = VECTOR ( 'NONE', #142, 1000.000000000000000 ) ;
#168 = STYLED_ITEM ( 'NONE', ( #217 ), #103 ) ;
#169 =( LENGTH_UNIT ( ) NAMED_UNIT ( * ) SI_UNIT ( .MILLI., .METRE. ) );
#170 = ORIENTED_EDGE ( 'NONE', *, *, #265, .F. ) ;
#171 = CARTESIAN_POINT ( 'NONE',  ( 1000.000000000000000, -149.9999999999999700, -100.0000000000000000 ) ) ;
#172 = DIRECTION ( 'NONE',  ( 0.0000000000000000000, -0.0000000000000000000, -1.000000000000000000 ) ) ;
#173 = CARTESIAN_POINT ( 'NONE',  ( 0.0000000000000000000, -149.9999999999999700, -100.0000000000000000 ) ) ;
#174 = AXIS2_PLACEMENT_3D ( 'NONE', #318, #181, #230 ) ;
#175 = VERTEX_POINT ( 'NONE', #380 ) ;
#176 = COLOUR_RGB ( '',0.7921568627450980000, 0.8196078431372548800, 0.9333333333333333500 ) ;
#177 = LINE ( 'NONE', #19, #158 ) ;
#178 = ORIENTED_EDGE ( 'NONE', *, *, #199, .T. ) ;
#179 = AXIS2_PLACEMENT_3D ( 'NONE', #56, #352, #72 ) ;
#180 = ADVANCED_FACE ( 'NONE', ( #115 ), #207, .F. ) ;
#181 = DIRECTION ( 'NONE',  ( 0.0000000000000000000, -1.000000000000000000, -1.387778780781445700E-016 ) ) ;
#182 = EDGE_CURVE ( 'NONE', #289, #319, #107, .T. ) ;
#183 = SURFACE_STYLE_USAGE ( .BOTH. , #326 ) ;
#184 = VERTEX_POINT ( 'NONE', #112 ) ;
#185 = PRODUCT ( 'rectangular_volumes', 'rectangular_volumes', '', ( #192 ) ) ;
#186 = APPLICATION_CONTEXT ( 'automotive_design' ) ;
#187 = PRESENTATION_LAYER_ASSIGNMENT (  '', '', ( #168 ) ) ;
#188 = UNCERTAINTY_MEASURE_WITH_UNIT (LENGTH_MEASURE( 1.000000000000000100E-005 ), #36, 'distance_accuracy_value', 'NONE');
#189 = DIRECTION ( 'NONE',  ( 1.000000000000000000, 0.0000000000000000000, 0.0000000000000000000 ) ) ;
#190 = PLANE ( 'NONE',  #109 ) ;
#191 =( NAMED_UNIT ( * ) PLANE_ANGLE_UNIT ( ) SI_UNIT ( $, .RADIAN. ) );
#192 = PRODUCT_CONTEXT ( 'NONE', #33, 'mechanical' ) ;
#193 = ORIENTED_EDGE ( 'NONE', *, *, #276, .F. ) ;
#194 = VECTOR ( 'NONE', #350, 1000.000000000000000 ) ;
#195 = ORIENTED_EDGE ( 'NONE', *, *, #372, .T. ) ;
#196 = STYLED_ITEM ( 'NONE', ( #166 ), #44 ) ;
#197 = DIRECTION ( 'NONE',  ( -0.0000000000000000000, 1.000000000000000000, 1.387778780781445700E-016 ) ) ;
#198 = PLANE ( 'NONE',  #271 ) ;
#199 = EDGE_CURVE ( 'NONE', #96, #30, #41, .T. ) ;
#200 = UNCERTAINTY_MEASURE_WITH_UNIT (LENGTH_MEASURE( 1.000000000000000100E-005 ), #159, 'distance_accuracy_value', 'NONE');
#201 = CARTESIAN_POINT ( 'NONE',  ( -1000.000000000000000, -149.9999999999999700, 100.0000000000000000 ) ) ;
#202 = ORIENTED_EDGE ( 'NONE', *, *, #155, .T. ) ;
#203 = CARTESIAN_POINT ( 'NONE',  ( 0.0000000000000000000, 150.0000000000000600, -100.0000000000000000 ) ) ;
#204 = DIRECTION ( 'NONE',  ( 0.0000000000000000000, -1.000000000000000000, 0.0000000000000000000 ) ) ;
#205 = CLOSED_SHELL ( 'NONE', ( #90, #53, #208, #317, #379, #292 ) ) ;
#206 = DIRECTION ( 'NONE',  ( 0.0000000000000000000, -1.387778780781445700E-016, 1.000000000000000000 ) ) ;
#207 = PLANE ( 'NONE',  #174 ) ;
#208 = ADVANCED_FACE ( 'NONE', ( #239 ), #146, .T. ) ;
#209 = DIRECTION ( 'NONE',  ( 0.0000000000000000000, -1.387778780781445700E-016, 1.000000000000000000 ) ) ;
#210 =( GEOMETRIC_REPRESENTATION_CONTEXT ( 3 ) GLOBAL_UNCERTAINTY_ASSIGNED_CONTEXT ( ( #200 ) ) GLOBAL_UNIT_ASSIGNED_CONTEXT ( ( #159, #68, #359 ) ) REPRESENTATION_CONTEXT ( 'NONE', 'WORKASPACE' ) );
#211 = FILL_AREA_STYLE_COLOUR ( '', #4 ) ;
#212 = ORIENTED_EDGE ( 'NONE', *, *, #252, .F. ) ;
#213 = PRESENTATION_LAYER_ASSIGNMENT (  '', '', ( #196 ) ) ;
#214 = FACE_OUTER_BOUND ( 'NONE', #23, .T. ) ;
#215 = EDGE_CURVE ( 'NONE', #270, #101, #31, .T. ) ;
#216 = CLOSED_SHELL ( 'NONE', ( #148, #120, #55, #180, #1, #118 ) ) ;
#217 = PRESENTATION_STYLE_ASSIGNMENT (( #244 ) ) ;
#218 = ORIENTED_EDGE ( 'NONE', *, *, #28, .T. ) ;
#219 = ORIENTED_EDGE ( 'NONE', *, *, #139, .T. ) ;
#220 = DIRECTION ( 'NONE',  ( 1.000000000000000000, 0.0000000000000000000, -0.0000000000000000000 ) ) ;
#221 = FACE_OUTER_BOUND ( 'NONE', #11, .T. ) ;
#222 = LINE ( 'NONE', #54, #382 ) ;
#223 = CARTESIAN_POINT ( 'NONE',  ( -1000.000000000000000, -149.9999999999999700, 100.0000000000000000 ) ) ;
#224 = LINE ( 'NONE', #273, #16 ) ;
#225 = DIRECTION ( 'NONE',  ( 1.000000000000000000, 0.0000000000000000000, 0.0000000000000000000 ) ) ;
#226 = DIRECTION ( 'NONE',  ( -0.0000000000000000000, -1.000000000000000000, -0.0000000000000000000 ) ) ;
#227 = ORIENTED_EDGE ( 'NONE', *, *, #241, .F. ) ;
#228 = PLANE ( 'NONE',  #331 ) ;
#229 = AXIS2_PLACEMENT_3D ( 'NONE', #314, #49, #288 ) ;
#230 = DIRECTION ( 'NONE',  ( 0.0000000000000000000, 1.387778780781445700E-016, -1.000000000000000000 ) ) ;
#231 = LINE ( 'NONE', #285, #64 ) ;
#232 = EDGE_LOOP ( 'NONE', ( #39, #13, #329, #125 ) ) ;
#233 = VECTOR ( 'NONE', #206, 1000.000000000000000 ) ;
#234 = DIRECTION ( 'NONE',  ( -1.000000000000000000, -0.0000000000000000000, -0.0000000000000000000 ) ) ;
#235 = PRODUCT_DEFINITION_FORMATION_WITH_SPECIFIED_SOURCE ( 'ANY', '', #185, .NOT_KNOWN. ) ;
#236 = EDGE_CURVE ( 'NONE', #321, #30, #222, .T. ) ;
#237 = ORIENTED_EDGE ( 'NONE', *, *, #28, .F. ) ;
#238 = ORIENTED_EDGE ( 'NONE', *, *, #160, .T. ) ;
#239 = FACE_OUTER_BOUND ( 'NONE', #315, .T. ) ;
#240 = AXIS2_PLACEMENT_3D ( 'NONE', #133, #274, #189 ) ;
#241 = EDGE_CURVE ( 'NONE', #58, #289, #89, .T. ) ;
#242 = CARTESIAN_POINT ( 'NONE',  ( 1000.000000000000000, 150.0000000000000300, 100.0000000000000000 ) ) ;
#243 = AXIS2_PLACEMENT_3D ( 'NONE', #164, #337, #283 ) ;
#244 = SURFACE_STYLE_USAGE ( .BOTH. , #362 ) ;
#245 = DIRECTION ( 'NONE',  ( -0.0000000000000000000, 0.0000000000000000000, -1.000000000000000000 ) ) ;
#246 = ORIENTED_EDGE ( 'NONE', *, *, #265, .T. ) ;
#247 = UNCERTAINTY_MEASURE_WITH_UNIT (LENGTH_MEASURE( 1.000000000000000100E-005 ), #169, 'distance_accuracy_value', 'NONE');
#248 = CARTESIAN_POINT ( 'NONE',  ( 0.0000000000000000000, 150.0000000000000300, 100.0000000000000000 ) ) ;
#249 = ORIENTED_EDGE ( 'NONE', *, *, #254, .F. ) ;
#250 = AXIS2_PLACEMENT_3D ( 'NONE', #253, #197, #110 ) ;
#251 = LINE ( 'NONE', #151, #349 ) ;
#252 = EDGE_CURVE ( 'NONE', #184, #96, #330, .T. ) ;
#253 = CARTESIAN_POINT ( 'NONE',  ( -1000.000000000000000, 150.0000000000000600, -100.0000000000000000 ) ) ;
#254 = EDGE_CURVE ( 'NONE', #319, #300, #297, .T. ) ;
#255 = PRODUCT_DEFINITION_SHAPE ( 'NONE', 'NONE',  #47 ) ;
#256 = PLANE ( 'NONE',  #229 ) ;
#257 = CARTESIAN_POINT ( 'NONE',  ( 1000.000000000000000, -149.9999999999999700, -100.0000000000000000 ) ) ;
#258 = CARTESIAN_POINT ( 'NONE',  ( 0.0000000000000000000, -149.9999999999999700, -100.0000000000000000 ) ) ;
#259 = ORIENTED_EDGE ( 'NONE', *, *, #341, .F. ) ;
#260 = CARTESIAN_POINT ( 'NONE',  ( 1000.000000000000000, -149.9999999999999700, 100.0000000000000000 ) ) ;
#261 = ORIENTED_EDGE ( 'NONE', *, *, #70, .T. ) ;
#262 = VERTEX_POINT ( 'NONE', #201 ) ;
#263 = CARTESIAN_POINT ( 'NONE',  ( 0.0000000000000000000, -149.9999999999999700, 100.0000000000000000 ) ) ;
#264 = PRODUCT_DEFINITION ( 'UNKNOWN', '', #34, #92 ) ;
#265 = EDGE_CURVE ( 'NONE', #9, #319, #5, .T. ) ;
#266 = FILL_AREA_STYLE ('',( #211 ) ) ;
#267 = CARTESIAN_POINT ( 'NONE',  ( -1000.000000000000000, 150.0000000000000300, 100.0000000000000000 ) ) ;
#268 = EDGE_LOOP ( 'NONE', ( #218, #18, #134, #163 ) ) ;
#269 = FACE_OUTER_BOUND ( 'NONE', #106, .T. ) ;
#270 = VERTEX_POINT ( 'NONE', #257 ) ;
#271 = AXIS2_PLACEMENT_3D ( 'NONE', #223, #277, #40 ) ;
#272 = EDGE_CURVE ( 'NONE', #175, #289, #97, .T. ) ;
#273 = CARTESIAN_POINT ( 'NONE',  ( -1000.000000000000000, -149.9999999999999700, -100.0000000000000000 ) ) ;
#274 = DIRECTION ( 'NONE',  ( 0.0000000000000000000, 0.0000000000000000000, 1.000000000000000000 ) ) ;
#275 = PRODUCT_DEFINITION_CONTEXT ( 'detailed design', #75, 'design' ) ;
#276 = EDGE_CURVE ( 'NONE', #51, #321, #177, .T. ) ;
#277 = DIRECTION ( 'NONE',  ( 0.0000000000000000000, 0.0000000000000000000, 1.000000000000000000 ) ) ;
#278 = LINE ( 'NONE', #171, #356 ) ;
#279 = CARTESIAN_POINT ( 'NONE',  ( -1000.000000000000000, 150.0000000000000600, -100.0000000000000000 ) ) ;
#280 = PLANE ( 'NONE',  #243 ) ;
#281 = ORIENTED_EDGE ( 'NONE', *, *, #35, .F. ) ;
#282 = VECTOR ( 'NONE', #347, 1000.000000000000000 ) ;
#283 = DIRECTION ( 'NONE',  ( 0.0000000000000000000, -0.0000000000000000000, 1.000000000000000000 ) ) ;
#284 = PRODUCT_RELATED_PRODUCT_CATEGORY ( 'part', '', ( #328 ) ) ;
#285 = CARTESIAN_POINT ( 'NONE',  ( 1000.000000000000000, 150.0000000000000600, -100.0000000000000000 ) ) ;
#286 = ORIENTED_EDGE ( 'NONE', *, *, #236, .F. ) ;
#287 = CARTESIAN_POINT ( 'NONE',  ( -1000.000000000000000, -149.9999999999999700, -100.0000000000000000 ) ) ;
#288 = DIRECTION ( 'NONE',  ( -0.0000000000000000000, 0.0000000000000000000, -1.000000000000000000 ) ) ;
#289 = VERTEX_POINT ( 'NONE', #83 ) ;
#290 =( NAMED_UNIT ( * ) SI_UNIT ( $, .STERADIAN. ) SOLID_ANGLE_UNIT ( ) );
#291 = DIRECTION ( 'NONE',  ( 1.000000000000000000, 0.0000000000000000000, 0.0000000000000000000 ) ) ;
#292 = ADVANCED_FACE ( 'NONE', ( #354 ), #256, .T. ) ;
#293 = STYLED_ITEM ( 'NONE', ( #45 ), #132 ) ;
#294 = DIRECTION ( 'NONE',  ( -0.0000000000000000000, -1.000000000000000000, -0.0000000000000000000 ) ) ;
#295 = EDGE_CURVE ( 'NONE', #42, #300, #82, .T. ) ;
#296 = FACE_OUTER_BOUND ( 'NONE', #232, .T. ) ;
#297 = LINE ( 'NONE', #344, #338 ) ;
#298 = CARTESIAN_POINT ( 'NONE',  ( 0.0000000000000000000, -149.9999999999999700, -100.0000000000000000 ) ) ;
#299 = ORIENTED_EDGE ( 'NONE', *, *, #80, .F. ) ;
#300 = VERTEX_POINT ( 'NONE', #50 ) ;
#301 = DIRECTION ( 'NONE',  ( -1.000000000000000000, -0.0000000000000000000, -0.0000000000000000000 ) ) ;
#302 = MECHANICAL_DESIGN_GEOMETRIC_PRESENTATION_REPRESENTATION (  '', ( #293 ), #137 ) ;
#303 = CARTESIAN_POINT ( 'NONE',  ( 0.0000000000000000000, 0.0000000000000000000, 0.0000000000000000000 ) ) ;
#304 = EDGE_LOOP ( 'NONE', ( #340, #365, #95, #116 ) ) ;
#305 = APPLICATION_PROTOCOL_DEFINITION ( 'draft international standard', 'automotive_design', 1998, #186 ) ;
#306 = PRODUCT_DEFINITION_SHAPE ( 'NONE', 'NONE',  #264 ) ;
#307 = ORIENTED_EDGE ( 'NONE', *, *, #241, .T. ) ;
#308 = CARTESIAN_POINT ( 'NONE',  ( 1000.000000000000000, 150.0000000000000600, -100.0000000000000000 ) ) ;
#309 = VECTOR ( 'NONE', #225, 1000.000000000000000 ) ;
#310 = MECHANICAL_DESIGN_GEOMETRIC_PRESENTATION_REPRESENTATION (  '', ( #196 ), #332 ) ;
#311 = DIRECTION ( 'NONE',  ( 1.000000000000000000, 0.0000000000000000000, -0.0000000000000000000 ) ) ;
#312 = AXIS2_PLACEMENT_3D ( 'NONE', #303, #37, #102 ) ;
#313 = DIRECTION ( 'NONE',  ( 0.0000000000000000000, -1.387778780781445700E-016, 1.000000000000000000 ) ) ;
#314 = CARTESIAN_POINT ( 'NONE',  ( 0.0000000000000000000, 0.0000000000000000000, 0.0000000000000000000 ) ) ;
#315 = EDGE_LOOP ( 'NONE', ( #346, #144, #336, #246 ) ) ;
#316 = DIRECTION ( 'NONE',  ( -1.000000000000000000, 0.0000000000000000000, -0.0000000000000000000 ) ) ;
#317 = ADVANCED_FACE ( 'NONE', ( #343 ), #345, .T. ) ;
#318 = CARTESIAN_POINT ( 'NONE',  ( 1000.000000000000000, 150.0000000000000600, -100.0000000000000000 ) ) ;
#319 = VERTEX_POINT ( 'NONE', #21 ) ;
#320 = FACE_OUTER_BOUND ( 'NONE', #268, .T. ) ;
#321 = VERTEX_POINT ( 'NONE', #143 ) ;
#322 = CARTESIAN_POINT ( 'NONE',  ( 1000.000000000000000, -149.9999999999999700, -100.0000000000000000 ) ) ;
#323 = AXIS2_PLACEMENT_3D ( 'NONE', #138, #220, #335 ) ;
#324 = SURFACE_STYLE_FILL_AREA ( #162 ) ;
#325 =( NAMED_UNIT ( * ) PLANE_ANGLE_UNIT ( ) SI_UNIT ( $, .RADIAN. ) );
#326 = SURFACE_SIDE_STYLE ('',( #87 ) ) ;
#327 = EDGE_LOOP ( 'NONE', ( #374, #74, #14, #238 ) ) ;
#328 = PRODUCT ( 'rectangular_volumes', 'rectangular_volumes', '', ( #123 ) ) ;
#329 = ORIENTED_EDGE ( 'NONE', *, *, #27, .T. ) ;
#330 = LINE ( 'NONE', #203, #233 ) ;
#331 = AXIS2_PLACEMENT_3D ( 'NONE', #260, #86, #316 ) ;
#332 =( GEOMETRIC_REPRESENTATION_CONTEXT ( 3 ) GLOBAL_UNCERTAINTY_ASSIGNED_CONTEXT ( ( #59 ) ) GLOBAL_UNIT_ASSIGNED_CONTEXT ( ( #91, #325, #290 ) ) REPRESENTATION_CONTEXT ( 'NONE', 'WORKASPACE' ) );
#333 = DIRECTION ( 'NONE',  ( 1.000000000000000000, 0.0000000000000000000, -0.0000000000000000000 ) ) ;
#334 =( NAMED_UNIT ( * ) SI_UNIT ( $, .STERADIAN. ) SOLID_ANGLE_UNIT ( ) );
#335 = DIRECTION ( 'NONE',  ( -0.0000000000000000000, 0.0000000000000000000, -1.000000000000000000 ) ) ;
#336 = ORIENTED_EDGE ( 'NONE', *, *, #355, .T. ) ;
#337 = DIRECTION ( 'NONE',  ( 0.0000000000000000000, 1.000000000000000000, 0.0000000000000000000 ) ) ;
#338 = VECTOR ( 'NONE', #313, 1000.000000000000000 ) ;
#339 = VECTOR ( 'NONE', #130, 1000.000000000000000 ) ;
#340 = ORIENTED_EDGE ( 'NONE', *, *, #27, .F. ) ;
#341 = EDGE_CURVE ( 'NONE', #321, #270, #278, .T. ) ;
#342 = CARTESIAN_POINT ( 'NONE',  ( -1000.000000000000000, 150.0000000000000600, -100.0000000000000000 ) ) ;
#343 = FACE_OUTER_BOUND ( 'NONE', #165, .T. ) ;
#344 = CARTESIAN_POINT ( 'NONE',  ( 0.0000000000000000000, 150.0000000000000600, -100.0000000000000000 ) ) ;
#345 = PLANE ( 'NONE',  #26 ) ;
#346 = ORIENTED_EDGE ( 'NONE', *, *, #182, .F. ) ;
#347 = DIRECTION ( 'NONE',  ( 0.0000000000000000000, 1.000000000000000000, 0.0000000000000000000 ) ) ;
#348 = VECTOR ( 'NONE', #52, 1000.000000000000000 ) ;
#349 = VECTOR ( 'NONE', #2, 1000.000000000000000 ) ;
#350 = DIRECTION ( 'NONE',  ( -0.0000000000000000000, -0.0000000000000000000, -1.000000000000000000 ) ) ;
#351 = APPLICATION_PROTOCOL_DEFINITION ( 'draft international standard', 'automotive_design', 1998, #75 ) ;
#352 = DIRECTION ( 'NONE',  ( 1.000000000000000000, 0.0000000000000000000, -0.0000000000000000000 ) ) ;
#353 = EDGE_CURVE ( 'NONE', #300, #58, #373, .T. ) ;
#354 = FACE_OUTER_BOUND ( 'NONE', #71, .T. ) ;
#355 = EDGE_CURVE ( 'NONE', #175, #9, #224, .T. ) ;
#356 = VECTOR ( 'NONE', #375, 1000.000000000000000 ) ;
#357 = APPLICATION_PROTOCOL_DEFINITION ( 'draft international standard', 'automotive_design', 1998, #29 ) ;
#358 = EDGE_LOOP ( 'NONE', ( #94, #212, #237, #3 ) ) ;
#359 =( NAMED_UNIT ( * ) SI_UNIT ( $, .STERADIAN. ) SOLID_ANGLE_UNIT ( ) );
#360 = LINE ( 'NONE', #122, #156 ) ;
#361 = SHAPE_DEFINITION_REPRESENTATION ( #306, #103 ) ;
#362 = SURFACE_SIDE_STYLE ('',( #324 ) ) ;
#363 = ORIENTED_EDGE ( 'NONE', *, *, #160, .F. ) ;
#364 = VECTOR ( 'NONE', #7, 1000.000000000000000 ) ;
#365 = ORIENTED_EDGE ( 'NONE', *, *, #8, .F. ) ;
#366 = AXIS2_PLACEMENT_3D ( 'NONE', #88, #119, #145 ) ;
#367 = LINE ( 'NONE', #368, #147 ) ;
#368 = CARTESIAN_POINT ( 'NONE',  ( 1000.000000000000000, -149.9999999999999700, -100.0000000000000000 ) ) ;
#369 = VECTOR ( 'NONE', #294, 1000.000000000000000 ) ;
#370 = DIRECTION ( 'NONE',  ( -1.000000000000000000, -0.0000000000000000000, -0.0000000000000000000 ) ) ;
#371 = ORIENTED_EDGE ( 'NONE', *, *, #353, .T. ) ;
#372 = EDGE_CURVE ( 'NONE', #51, #96, #48, .T. ) ;
#373 = LINE ( 'NONE', #100, #364 ) ;
#374 = ORIENTED_EDGE ( 'NONE', *, *, #276, .T. ) ;
#375 = DIRECTION ( 'NONE',  ( -0.0000000000000000000, -0.0000000000000000000, -1.000000000000000000 ) ) ;
#376 = VERTEX_POINT ( 'NONE', #6 ) ;
#377 = CARTESIAN_POINT ( 'NONE',  ( -1000.000000000000000, -149.9999999999999700, -100.0000000000000000 ) ) ;
#378 = DIRECTION ( 'NONE',  ( 0.0000000000000000000, 1.000000000000000000, 0.0000000000000000000 ) ) ;
#379 = ADVANCED_FACE ( 'NONE', ( #38 ), #190, .F. ) ;
#380 = CARTESIAN_POINT ( 'NONE',  ( -1000.000000000000000, -149.9999999999999700, -100.0000000000000000 ) ) ;
#381 = CARTESIAN_POINT ( 'NONE',  ( -1000.000000000000000, -149.9999999999999700, -100.0000000000000000 ) ) ;
#382 = VECTOR ( 'NONE', #234, 1000.000000000000000 ) ;
ENDSEC;
END-ISO-10303-21;
