ISO-10303-21;
HEADER;
FILE_DESCRIPTION (( 'STEP AP214' ),
    '1' );
FILE_NAME ('rectangular_cavities.STEP',
    '2025-09-16T20:27:22',
    ( '' ),
    ( '' ),
    'SwSTEP 2.0',
    'SolidWorks 2015',
    '' );
FILE_SCHEMA (( 'AUTOMOTIVE_DESIGN' ));
ENDSEC;

DATA;
#1 = MECHANICAL_DESIGN_GEOMETRIC_PRESENTATION_REPRESENTATION (  '', ( #77 ), #294 ) ;
#2 = LINE ( 'NONE', #9, #280 ) ;
#3 = LINE ( 'NONE', #299, #66 ) ;
#4 = CARTESIAN_POINT ( 'NONE',  ( 1000.000000000000000, 150.0000000000000600, -100.0000000000000000 ) ) ;
#5 = EDGE_CURVE ( 'NONE', #88, #250, #276, .T. ) ;
#6 = SURFACE_STYLE_FILL_AREA ( #325 ) ;
#7 = ORIENTED_EDGE ( 'NONE', *, *, #360, .T. ) ;
#8 = CARTESIAN_POINT ( 'NONE',  ( 1000.000000000000000, -149.9999999999999700, 100.0000000000000000 ) ) ;
#9 = CARTESIAN_POINT ( 'NONE',  ( -1000.000000000000000, 150.0000000000000600, -100.0000000000000000 ) ) ;
#10 = AXIS2_PLACEMENT_3D ( 'NONE', #119, #255, #151 ) ;
#11 = DIRECTION ( 'NONE',  ( -1.000000000000000000, -0.0000000000000000000, -0.0000000000000000000 ) ) ;
#12 = DIRECTION ( 'NONE',  ( 0.0000000000000000000, -1.387778780781445700E-016, 1.000000000000000000 ) ) ;
#13 = CARTESIAN_POINT ( 'NONE',  ( 1000.000000000000000, 150.0000000000000600, -100.0000000000000000 ) ) ;
#14 = PLANE ( 'NONE',  #198 ) ;
#15 = VECTOR ( 'NONE', #92, 1000.000000000000000 ) ;
#16 = VECTOR ( 'NONE', #265, 1000.000000000000000 ) ;
#17 = CARTESIAN_POINT ( 'NONE',  ( 0.0000000000000000000, 0.0000000000000000000, 0.0000000000000000000 ) ) ;
#18 = ADVANCED_FACE ( 'NONE', ( #128 ), #232, .T. ) ;
#19 = ORIENTED_EDGE ( 'NONE', *, *, #84, .F. ) ;
#20 = DIRECTION ( 'NONE',  ( 0.0000000000000000000, -1.387778780781445700E-016, 1.000000000000000000 ) ) ;
#21 = UNCERTAINTY_MEASURE_WITH_UNIT (LENGTH_MEASURE( 1.000000000000000100E-005 ), #41, 'distance_accuracy_value', 'NONE');
#22 = CARTESIAN_POINT ( 'NONE',  ( -1000.000000000000000, 150.0000000000000600, -100.0000000000000000 ) ) ;
#23 = ORIENTED_EDGE ( 'NONE', *, *, #112, .F. ) ;
#24 = DIRECTION ( 'NONE',  ( 0.0000000000000000000, 0.0000000000000000000, 1.000000000000000000 ) ) ;
#25 = VECTOR ( 'NONE', #323, 1000.000000000000000 ) ;
#26 = DIRECTION ( 'NONE',  ( 0.0000000000000000000, -1.387778780781445700E-016, 1.000000000000000000 ) ) ;
#27 = VECTOR ( 'NONE', #20, 1000.000000000000000 ) ;
#28 = EDGE_LOOP ( 'NONE', ( #129, #19, #223, #249 ) ) ;
#29 = PRODUCT_DEFINITION_CONTEXT ( 'detailed design', #181, 'design' ) ;
#30 = ADVANCED_FACE ( 'NONE', ( #48 ), #33, .T. ) ;
#31 = EDGE_CURVE ( 'NONE', #290, #341, #51, .T. ) ;
#32 = ORIENTED_EDGE ( 'NONE', *, *, #84, .T. ) ;
#33 = PLANE ( 'NONE',  #313 ) ;
#34 = VECTOR ( 'NONE', #287, 1000.000000000000000 ) ;
#35 = DIRECTION ( 'NONE',  ( -0.0000000000000000000, 1.000000000000000000, 1.387778780781445700E-016 ) ) ;
#36 = ORIENTED_EDGE ( 'NONE', *, *, #121, .F. ) ;
#37 = EDGE_CURVE ( 'NONE', #367, #268, #111, .T. ) ;
#38 = PLANE ( 'NONE',  #202 ) ;
#39 = DIRECTION ( 'NONE',  ( 1.000000000000000000, 0.0000000000000000000, -0.0000000000000000000 ) ) ;
#40 = ORIENTED_EDGE ( 'NONE', *, *, #107, .T. ) ;
#41 =( LENGTH_UNIT ( ) NAMED_UNIT ( * ) SI_UNIT ( .MILLI., .METRE. ) );
#42 = PRODUCT_CONTEXT ( 'NONE', #210, 'mechanical' ) ;
#43 = ORIENTED_EDGE ( 'NONE', *, *, #137, .T. ) ;
#44 = CARTESIAN_POINT ( 'NONE',  ( 0.0000000000000000000, -149.9999999999999700, -100.0000000000000000 ) ) ;
#45 = CARTESIAN_POINT ( 'NONE',  ( 1000.000000000000000, -149.9999999999999700, -100.0000000000000000 ) ) ;
#46 = VERTEX_POINT ( 'NONE', #130 ) ;
#47 = DIRECTION ( 'NONE',  ( 0.0000000000000000000, 0.0000000000000000000, 1.000000000000000000 ) ) ;
#48 = FACE_OUTER_BOUND ( 'NONE', #244, .T. ) ;
#49 = AXIS2_PLACEMENT_3D ( 'NONE', #267, #100, #302 ) ;
#50 = EDGE_LOOP ( 'NONE', ( #340, #305, #108, #32 ) ) ;
#51 = LINE ( 'NONE', #125, #339 ) ;
#52 = ORIENTED_EDGE ( 'NONE', *, *, #138, .F. ) ;
#53 = ORIENTED_EDGE ( 'NONE', *, *, #95, .T. ) ;
#54 = EDGE_CURVE ( 'NONE', #268, #88, #190, .T. ) ;
#55 = CARTESIAN_POINT ( 'NONE',  ( -1000.000000000000000, -149.9999999999999700, -100.0000000000000000 ) ) ;
#56 = ORIENTED_EDGE ( 'NONE', *, *, #354, .F. ) ;
#57 = CARTESIAN_POINT ( 'NONE',  ( 0.0000000000000000000, 150.0000000000000300, 100.0000000000000000 ) ) ;
#58 = FACE_OUTER_BOUND ( 'NONE', #245, .T. ) ;
#59 = ORIENTED_EDGE ( 'NONE', *, *, #31, .T. ) ;
#60 = CARTESIAN_POINT ( 'NONE',  ( 1000.000000000000000, -149.9999999999999700, 100.0000000000000000 ) ) ;
#61 = VERTEX_POINT ( 'NONE', #149 ) ;
#62 = UNCERTAINTY_MEASURE_WITH_UNIT (LENGTH_MEASURE( 1.000000000000000100E-005 ), #292, 'distance_accuracy_value', 'NONE');
#63 = CARTESIAN_POINT ( 'NONE',  ( -1000.000000000000000, 150.0000000000000600, -100.0000000000000000 ) ) ;
#64 = APPLICATION_PROTOCOL_DEFINITION ( 'draft international standard', 'automotive_design', 1998, #181 ) ;
#65 = PRESENTATION_LAYER_ASSIGNMENT (  '', '', ( #224 ) ) ;
#66 = VECTOR ( 'NONE', #136, 1000.000000000000000 ) ;
#67 = CARTESIAN_POINT ( 'NONE',  ( 0.0000000000000000000, -149.9999999999999700, -100.0000000000000000 ) ) ;
#68 = DIRECTION ( 'NONE',  ( -0.0000000000000000000, 0.0000000000000000000, -1.000000000000000000 ) ) ;
#69 = SURFACE_STYLE_USAGE ( .BOTH. , #234 ) ;
#70 = DIRECTION ( 'NONE',  ( -0.0000000000000000000, 0.0000000000000000000, -1.000000000000000000 ) ) ;
#71 = CARTESIAN_POINT ( 'NONE',  ( -1000.000000000000000, 150.0000000000000600, -100.0000000000000000 ) ) ;
#72 = ADVANCED_FACE ( 'NONE', ( #177 ), #201, .F. ) ;
#73 = DIRECTION ( 'NONE',  ( 1.000000000000000000, 0.0000000000000000000, 0.0000000000000000000 ) ) ;
#74 = LINE ( 'NONE', #256, #82 ) ;
#75 =( NAMED_UNIT ( * ) PLANE_ANGLE_UNIT ( ) SI_UNIT ( $, .RADIAN. ) );
#76 = VECTOR ( 'NONE', #228, 1000.000000000000000 ) ;
#77 = STYLED_ITEM ( 'NONE', ( #271 ), #148 ) ;
#78 = MECHANICAL_DESIGN_GEOMETRIC_PRESENTATION_REPRESENTATION (  '', ( #263 ), #91 ) ;
#79 = CARTESIAN_POINT ( 'NONE',  ( 1000.000000000000000, -149.9999999999999700, -100.0000000000000000 ) ) ;
#80 = CLOSED_SHELL ( 'NONE', ( #116, #322, #166, #247, #30, #162 ) ) ;
#81 = LINE ( 'NONE', #350, #309 ) ;
#82 = VECTOR ( 'NONE', #344, 1000.000000000000000 ) ;
#83 = PRODUCT_DEFINITION_SHAPE ( 'NONE', 'NONE',  #105 ) ;
#84 = EDGE_CURVE ( 'NONE', #341, #281, #233, .T. ) ;
#85 = LINE ( 'NONE', #22, #359 ) ;
#86 = PRESENTATION_STYLE_ASSIGNMENT (( #155 ) ) ;
#87 = ORIENTED_EDGE ( 'NONE', *, *, #103, .F. ) ;
#88 = VERTEX_POINT ( 'NONE', #120 ) ;
#89 = ORIENTED_EDGE ( 'NONE', *, *, #154, .T. ) ;
#90 = PRODUCT_RELATED_PRODUCT_CATEGORY ( 'part', '', ( #160 ) ) ;
#91 =( GEOMETRIC_REPRESENTATION_CONTEXT ( 3 ) GLOBAL_UNCERTAINTY_ASSIGNED_CONTEXT ( ( #21 ) ) GLOBAL_UNIT_ASSIGNED_CONTEXT ( ( #41, #75, #157 ) ) REPRESENTATION_CONTEXT ( 'NONE', 'WORKASPACE' ) );
#92 = DIRECTION ( 'NONE',  ( -0.0000000000000000000, -1.000000000000000000, -0.0000000000000000000 ) ) ;
#93 = CARTESIAN_POINT ( 'NONE',  ( 0.0000000000000000000, -149.9999999999999700, -100.0000000000000000 ) ) ;
#94 = DIRECTION ( 'NONE',  ( -1.000000000000000000, 0.0000000000000000000, -0.0000000000000000000 ) ) ;
#95 = EDGE_CURVE ( 'NONE', #338, #88, #142, .T. ) ;
#96 = CARTESIAN_POINT ( 'NONE',  ( -1000.000000000000000, -149.9999999999999700, 100.0000000000000000 ) ) ;
#97 = VECTOR ( 'NONE', #303, 1000.000000000000000 ) ;
#98 =( NAMED_UNIT ( * ) SI_UNIT ( $, .STERADIAN. ) SOLID_ANGLE_UNIT ( ) );
#99 = EDGE_LOOP ( 'NONE', ( #199, #226, #87, #346 ) ) ;
#100 = DIRECTION ( 'NONE',  ( 0.0000000000000000000, -1.000000000000000000, -1.387778780781445700E-016 ) ) ;
#101 = SURFACE_STYLE_USAGE ( .BOTH. , #297 ) ;
#102 = PLANE ( 'NONE',  #194 ) ;
#103 = EDGE_CURVE ( 'NONE', #268, #290, #324, .T. ) ;
#104 = CARTESIAN_POINT ( 'NONE',  ( 1000.000000000000000, -149.9999999999999700, 100.0000000000000000 ) ) ;
#105 = PRODUCT_DEFINITION ( 'UNKNOWN', '', #348, #29 ) ;
#106 = VECTOR ( 'NONE', #319, 1000.000000000000000 ) ;
#107 = EDGE_CURVE ( 'NONE', #150, #252, #2, .T. ) ;
#108 = ORIENTED_EDGE ( 'NONE', *, *, #316, .F. ) ;
#109 = ORIENTED_EDGE ( 'NONE', *, *, #121, .T. ) ;
#110 = LINE ( 'NONE', #266, #97 ) ;
#111 = LINE ( 'NONE', #8, #34 ) ;
#112 = EDGE_CURVE ( 'NONE', #252, #61, #74, .T. ) ;
#113 = VECTOR ( 'NONE', #206, 1000.000000000000000 ) ;
#114 = ORIENTED_EDGE ( 'NONE', *, *, #354, .T. ) ;
#115 = ORIENTED_EDGE ( 'NONE', *, *, #193, .T. ) ;
#116 = ADVANCED_FACE ( 'NONE', ( #361 ), #38, .F. ) ;
#117 = AXIS2_PLACEMENT_3D ( 'NONE', #240, #131, #357 ) ;
#118 = LINE ( 'NONE', #353, #25 ) ;
#119 = CARTESIAN_POINT ( 'NONE',  ( -1000.000000000000000, 0.0000000000000000000, 0.0000000000000000000 ) ) ;
#120 = CARTESIAN_POINT ( 'NONE',  ( 0.0000000000000000000, -149.9999999999999700, 100.0000000000000000 ) ) ;
#121 = EDGE_CURVE ( 'NONE', #46, #144, #260, .T. ) ;
#122 =( LENGTH_UNIT ( ) NAMED_UNIT ( * ) SI_UNIT ( .MILLI., .METRE. ) );
#123 = MECHANICAL_DESIGN_GEOMETRIC_PRESENTATION_REPRESENTATION (  '', ( #224 ), #219 ) ;
#124 = MANIFOLD_SOLID_BREP ( 'Ressalto-extrusão1', #80 ) ;
#125 = CARTESIAN_POINT ( 'NONE',  ( 1000.000000000000000, -149.9999999999999700, -100.0000000000000000 ) ) ;
#126 = FILL_AREA_STYLE_COLOUR ( '', #314 ) ;
#127 = DIRECTION ( 'NONE',  ( 1.000000000000000000, 0.0000000000000000000, -0.0000000000000000000 ) ) ;
#128 = FACE_OUTER_BOUND ( 'NONE', #248, .T. ) ;
#129 = ORIENTED_EDGE ( 'NONE', *, *, #138, .T. ) ;
#130 = CARTESIAN_POINT ( 'NONE',  ( 0.0000000000000000000, -149.9999999999999700, 100.0000000000000000 ) ) ;
#131 = DIRECTION ( 'NONE',  ( 0.0000000000000000000, 0.0000000000000000000, -1.000000000000000000 ) ) ;
#132 = DIRECTION ( 'NONE',  ( 1.000000000000000000, 0.0000000000000000000, 0.0000000000000000000 ) ) ;
#133 = APPLICATION_PROTOCOL_DEFINITION ( 'draft international standard', 'automotive_design', 1998, #210 ) ;
#134 = ORIENTED_EDGE ( 'NONE', *, *, #154, .F. ) ;
#135 = DIRECTION ( 'NONE',  ( -0.0000000000000000000, -0.0000000000000000000, -1.000000000000000000 ) ) ;
#136 = DIRECTION ( 'NONE',  ( 0.0000000000000000000, 1.000000000000000000, 0.0000000000000000000 ) ) ;
#137 = EDGE_CURVE ( 'NONE', #261, #46, #188, .T. ) ;
#138 = EDGE_CURVE ( 'NONE', #250, #281, #242, .T. ) ;
#139 = MANIFOLD_SOLID_BREP ( 'Ressalto-extrusão2', #335 ) ;
#140 = ORIENTED_EDGE ( 'NONE', *, *, #306, .T. ) ;
#141 = LINE ( 'NONE', #96, #158 ) ;
#142 = LINE ( 'NONE', #183, #15 ) ;
#143 = VECTOR ( 'NONE', #26, 1000.000000000000000 ) ;
#144 = VERTEX_POINT ( 'NONE', #259 ) ;
#145 = DIRECTION ( 'NONE',  ( -0.0000000000000000000, -0.0000000000000000000, -1.000000000000000000 ) ) ;
#146 = DIRECTION ( 'NONE',  ( 0.0000000000000000000, 1.000000000000000000, 0.0000000000000000000 ) ) ;
#147 =( NAMED_UNIT ( * ) SI_UNIT ( $, .STERADIAN. ) SOLID_ANGLE_UNIT ( ) );
#148 = ADVANCED_BREP_SHAPE_REPRESENTATION ( 'rectangular_cavities', ( #124, #139, #169 ), #304 ) ;
#149 = CARTESIAN_POINT ( 'NONE',  ( 0.0000000000000000000, 150.0000000000000300, 100.0000000000000000 ) ) ;
#150 = VERTEX_POINT ( 'NONE', #71 ) ;
#151 = DIRECTION ( 'NONE',  ( -0.0000000000000000000, 0.0000000000000000000, -1.000000000000000000 ) ) ;
#152 = CARTESIAN_POINT ( 'NONE',  ( -1000.000000000000000, 150.0000000000000300, 100.0000000000000000 ) ) ;
#153 = ADVANCED_FACE ( 'NONE', ( #212 ), #262, .T. ) ;
#154 = EDGE_CURVE ( 'NONE', #261, #220, #81, .T. ) ;
#155 = SURFACE_STYLE_USAGE ( .BOTH. , #179 ) ;
#156 = CARTESIAN_POINT ( 'NONE',  ( -1000.000000000000000, -149.9999999999999700, -100.0000000000000000 ) ) ;
#157 =( NAMED_UNIT ( * ) SI_UNIT ( $, .STERADIAN. ) SOLID_ANGLE_UNIT ( ) );
#158 = VECTOR ( 'NONE', #187, 1000.000000000000000 ) ;
#159 = EDGE_CURVE ( 'NONE', #252, #261, #141, .T. ) ;
#160 = PRODUCT ( 'rectangular_cavities', 'rectangular_cavities', '', ( #42 ) ) ;
#161 = CARTESIAN_POINT ( 'NONE',  ( 0.0000000000000000000, 0.0000000000000000000, 0.0000000000000000000 ) ) ;
#162 = ADVANCED_FACE ( 'NONE', ( #366 ), #14, .F. ) ;
#163 = ORIENTED_EDGE ( 'NONE', *, *, #103, .T. ) ;
#164 = DIRECTION ( 'NONE',  ( -0.0000000000000000000, 0.0000000000000000000, -1.000000000000000000 ) ) ;
#165 = VECTOR ( 'NONE', #231, 1000.000000000000000 ) ;
#166 = ADVANCED_FACE ( 'NONE', ( #217 ), #102, .F. ) ;
#167 = PRESENTATION_STYLE_ASSIGNMENT (( #101 ) ) ;
#168 = ORIENTED_EDGE ( 'NONE', *, *, #171, .T. ) ;
#169 = AXIS2_PLACEMENT_3D ( 'NONE', #17, #235, #239 ) ;
#170 = DIRECTION ( 'NONE',  ( 0.0000000000000000000, -0.0000000000000000000, 1.000000000000000000 ) ) ;
#171 = EDGE_CURVE ( 'NONE', #144, #332, #3, .T. ) ;
#172 = EDGE_CURVE ( 'NONE', #367, #338, #355, .T. ) ;
#173 = FACE_OUTER_BOUND ( 'NONE', #312, .T. ) ;
#174 = ORIENTED_EDGE ( 'NONE', *, *, #171, .F. ) ;
#175 = SHAPE_DEFINITION_REPRESENTATION ( #83, #148 ) ;
#176 = DIRECTION ( 'NONE',  ( 0.0000000000000000000, -1.387778780781445700E-016, 1.000000000000000000 ) ) ;
#177 = FACE_OUTER_BOUND ( 'NONE', #227, .T. ) ;
#178 = DIRECTION ( 'NONE',  ( -0.0000000000000000000, -0.0000000000000000000, -1.000000000000000000 ) ) ;
#179 = SURFACE_SIDE_STYLE ('',( #6 ) ) ;
#180 = CARTESIAN_POINT ( 'NONE',  ( 1000.000000000000000, -149.9999999999999700, -100.0000000000000000 ) ) ;
#181 = APPLICATION_CONTEXT ( 'automotive_design' ) ;
#182 = CARTESIAN_POINT ( 'NONE',  ( 0.0000000000000000000, -149.9999999999999700, 100.0000000000000000 ) ) ;
#183 = CARTESIAN_POINT ( 'NONE',  ( 0.0000000000000000000, -149.9999999999999700, 100.0000000000000000 ) ) ;
#184 = ORIENTED_EDGE ( 'NONE', *, *, #112, .T. ) ;
#185 = CARTESIAN_POINT ( 'NONE',  ( -1000.000000000000000, -149.9999999999999700, 100.0000000000000000 ) ) ;
#186 = DIRECTION ( 'NONE',  ( 1.000000000000000000, 0.0000000000000000000, -0.0000000000000000000 ) ) ;
#187 = DIRECTION ( 'NONE',  ( -0.0000000000000000000, -1.000000000000000000, -0.0000000000000000000 ) ) ;
#188 = LINE ( 'NONE', #241, #251 ) ;
#189 = PLANE ( 'NONE',  #310 ) ;
#190 = LINE ( 'NONE', #60, #113 ) ;
#191 = EDGE_LOOP ( 'NONE', ( #289, #321, #52, #317 ) ) ;
#192 = ORIENTED_EDGE ( 'NONE', *, *, #193, .F. ) ;
#193 = EDGE_CURVE ( 'NONE', #61, #46, #205, .T. ) ;
#194 = AXIS2_PLACEMENT_3D ( 'NONE', #328, #24, #39 ) ;
#195 = FACE_OUTER_BOUND ( 'NONE', #50, .T. ) ;
#196 = VECTOR ( 'NONE', #145, 1000.000000000000000 ) ;
#197 = CARTESIAN_POINT ( 'NONE',  ( 0.0000000000000000000, 150.0000000000000600, -100.0000000000000000 ) ) ;
#198 = AXIS2_PLACEMENT_3D ( 'NONE', #347, #127, #70 ) ;
#199 = ORIENTED_EDGE ( 'NONE', *, *, #5, .T. ) ;
#200 = COLOUR_RGB ( '',0.7921568627450980000, 0.8196078431372548800, 0.9333333333333333500 ) ;
#201 = PLANE ( 'NONE',  #10 ) ;
#202 = AXIS2_PLACEMENT_3D ( 'NONE', #204, #318, #94 ) ;
#203 = AXIS2_PLACEMENT_3D ( 'NONE', #63, #35, #176 ) ;
#204 = CARTESIAN_POINT ( 'NONE',  ( 1000.000000000000000, -149.9999999999999700, 100.0000000000000000 ) ) ;
#205 = LINE ( 'NONE', #182, #279 ) ;
#206 = DIRECTION ( 'NONE',  ( -1.000000000000000000, -0.0000000000000000000, -0.0000000000000000000 ) ) ;
#207 = ORIENTED_EDGE ( 'NONE', *, *, #316, .T. ) ;
#208 = PLANE ( 'NONE',  #117 ) ;
#209 = FILL_AREA_STYLE ('',( #246 ) ) ;
#210 = APPLICATION_CONTEXT ( 'automotive_design' ) ;
#211 = DIRECTION ( 'NONE',  ( -0.0000000000000000000, -1.000000000000000000, -0.0000000000000000000 ) ) ;
#212 = FACE_OUTER_BOUND ( 'NONE', #269, .T. ) ;
#213 = COLOUR_RGB ( '',0.7921568627450980000, 0.8196078431372548800, 0.9333333333333333500 ) ;
#214 = CARTESIAN_POINT ( 'NONE',  ( 0.0000000000000000000, 150.0000000000000600, -100.0000000000000000 ) ) ;
#215 = DIRECTION ( 'NONE',  ( -1.000000000000000000, -0.0000000000000000000, -0.0000000000000000000 ) ) ;
#216 = EDGE_LOOP ( 'NONE', ( #115, #109, #168, #7 ) ) ;
#217 = FACE_OUTER_BOUND ( 'NONE', #28, .T. ) ;
#218 = UNCERTAINTY_MEASURE_WITH_UNIT (LENGTH_MEASURE( 1.000000000000000100E-005 ), #345, 'distance_accuracy_value', 'NONE');
#219 =( GEOMETRIC_REPRESENTATION_CONTEXT ( 3 ) GLOBAL_UNCERTAINTY_ASSIGNED_CONTEXT ( ( #278 ) ) GLOBAL_UNIT_ASSIGNED_CONTEXT ( ( #122, #349, #98 ) ) REPRESENTATION_CONTEXT ( 'NONE', 'WORKASPACE' ) );
#220 = VERTEX_POINT ( 'NONE', #156 ) ;
#221 = PRESENTATION_LAYER_ASSIGNMENT (  '', '', ( #77 ) ) ;
#222 = LINE ( 'NONE', #45, #364 ) ;
#223 = ORIENTED_EDGE ( 'NONE', *, *, #31, .F. ) ;
#224 = STYLED_ITEM ( 'NONE', ( #86 ), #124 ) ;
#225 = SURFACE_STYLE_FILL_AREA ( #209 ) ;
#226 = ORIENTED_EDGE ( 'NONE', *, *, #363, .F. ) ;
#227 = EDGE_LOOP ( 'NONE', ( #365, #334, #283, #134 ) ) ;
#228 = DIRECTION ( 'NONE',  ( 1.000000000000000000, 0.0000000000000000000, 0.0000000000000000000 ) ) ;
#229 = ORIENTED_EDGE ( 'NONE', *, *, #37, .F. ) ;
#230 = DIRECTION ( 'NONE',  ( 1.000000000000000000, 0.0000000000000000000, -0.0000000000000000000 ) ) ;
#231 = DIRECTION ( 'NONE',  ( -1.000000000000000000, -0.0000000000000000000, -0.0000000000000000000 ) ) ;
#232 = PLANE ( 'NONE',  #203 ) ;
#233 = LINE ( 'NONE', #343, #165 ) ;
#234 = SURFACE_SIDE_STYLE ('',( #258 ) ) ;
#235 = DIRECTION ( 'NONE',  ( 0.0000000000000000000, 0.0000000000000000000, 1.000000000000000000 ) ) ;
#236 = PLANE ( 'NONE',  #49 ) ;
#237 = ORIENTED_EDGE ( 'NONE', *, *, #37, .T. ) ;
#238 = CARTESIAN_POINT ( 'NONE',  ( 1000.000000000000000, 0.0000000000000000000, 0.0000000000000000000 ) ) ;
#239 = DIRECTION ( 'NONE',  ( 1.000000000000000000, 0.0000000000000000000, 0.0000000000000000000 ) ) ;
#240 = CARTESIAN_POINT ( 'NONE',  ( -1000.000000000000000, -149.9999999999999700, -100.0000000000000000 ) ) ;
#241 = CARTESIAN_POINT ( 'NONE',  ( -1000.000000000000000, -149.9999999999999700, 100.0000000000000000 ) ) ;
#242 = LINE ( 'NONE', #67, #16 ) ;
#243 = CARTESIAN_POINT ( 'NONE',  ( -1000.000000000000000, -149.9999999999999700, 100.0000000000000000 ) ) ;
#244 = EDGE_LOOP ( 'NONE', ( #237, #163, #59, #207 ) ) ;
#245 = EDGE_LOOP ( 'NONE', ( #36, #311, #89, #114 ) ) ;
#246 = FILL_AREA_STYLE_COLOUR ( '', #200 ) ;
#247 = ADVANCED_FACE ( 'NONE', ( #195 ), #236, .F. ) ;
#248 = EDGE_LOOP ( 'NONE', ( #277, #257, #40, #184 ) ) ;
#249 = ORIENTED_EDGE ( 'NONE', *, *, #363, .T. ) ;
#250 = VERTEX_POINT ( 'NONE', #44 ) ;
#251 = VECTOR ( 'NONE', #132, 1000.000000000000000 ) ;
#252 = VERTEX_POINT ( 'NONE', #152 ) ;
#253 = CARTESIAN_POINT ( 'NONE',  ( 0.0000000000000000000, 150.0000000000000600, -100.0000000000000000 ) ) ;
#254 = LINE ( 'NONE', #13, #27 ) ;
#255 = DIRECTION ( 'NONE',  ( 1.000000000000000000, 0.0000000000000000000, -0.0000000000000000000 ) ) ;
#256 = CARTESIAN_POINT ( 'NONE',  ( -1000.000000000000000, 150.0000000000000300, 100.0000000000000000 ) ) ;
#257 = ORIENTED_EDGE ( 'NONE', *, *, #274, .F. ) ;
#258 = SURFACE_STYLE_FILL_AREA ( #326 ) ;
#259 = CARTESIAN_POINT ( 'NONE',  ( 0.0000000000000000000, -149.9999999999999700, -100.0000000000000000 ) ) ;
#260 = LINE ( 'NONE', #93, #106 ) ;
#261 = VERTEX_POINT ( 'NONE', #243 ) ;
#262 = PLANE ( 'NONE',  #270 ) ;
#263 = STYLED_ITEM ( 'NONE', ( #167 ), #139 ) ;
#264 = PLANE ( 'NONE',  #285 ) ;
#265 = DIRECTION ( 'NONE',  ( 0.0000000000000000000, 1.000000000000000000, 0.0000000000000000000 ) ) ;
#266 = CARTESIAN_POINT ( 'NONE',  ( 0.0000000000000000000, 150.0000000000000600, -100.0000000000000000 ) ) ;
#267 = CARTESIAN_POINT ( 'NONE',  ( 1000.000000000000000, 150.0000000000000600, -100.0000000000000000 ) ) ;
#268 = VERTEX_POINT ( 'NONE', #104 ) ;
#269 = EDGE_LOOP ( 'NONE', ( #192, #23, #362, #43 ) ) ;
#270 = AXIS2_PLACEMENT_3D ( 'NONE', #185, #47, #293 ) ;
#271 = PRESENTATION_STYLE_ASSIGNMENT (( #69 ) ) ;
#272 = PRESENTATION_LAYER_ASSIGNMENT (  '', '', ( #263 ) ) ;
#273 = ORIENTED_EDGE ( 'NONE', *, *, #274, .T. ) ;
#274 = EDGE_CURVE ( 'NONE', #150, #332, #85, .T. ) ;
#275 = LINE ( 'NONE', #55, #76 ) ;
#276 = LINE ( 'NONE', #284, #196 ) ;
#277 = ORIENTED_EDGE ( 'NONE', *, *, #360, .F. ) ;
#278 = UNCERTAINTY_MEASURE_WITH_UNIT (LENGTH_MEASURE( 1.000000000000000100E-005 ), #122, 'distance_accuracy_value', 'NONE');
#279 = VECTOR ( 'NONE', #211, 1000.000000000000000 ) ;
#280 = VECTOR ( 'NONE', #12, 1000.000000000000000 ) ;
#281 = VERTEX_POINT ( 'NONE', #214 ) ;
#282 = PLANE ( 'NONE',  #333 ) ;
#283 = ORIENTED_EDGE ( 'NONE', *, *, #306, .F. ) ;
#284 = CARTESIAN_POINT ( 'NONE',  ( 0.0000000000000000000, -149.9999999999999700, -100.0000000000000000 ) ) ;
#285 = AXIS2_PLACEMENT_3D ( 'NONE', #161, #186, #164 ) ;
#286 = VECTOR ( 'NONE', #215, 1000.000000000000000 ) ;
#287 = DIRECTION ( 'NONE',  ( -0.0000000000000000000, -1.000000000000000000, -0.0000000000000000000 ) ) ;
#288 =( NAMED_UNIT ( * ) SI_UNIT ( $, .STERADIAN. ) SOLID_ANGLE_UNIT ( ) );
#289 = ORIENTED_EDGE ( 'NONE', *, *, #95, .F. ) ;
#290 = VERTEX_POINT ( 'NONE', #79 ) ;
#291 = ORIENTED_EDGE ( 'NONE', *, *, #172, .T. ) ;
#292 =( LENGTH_UNIT ( ) NAMED_UNIT ( * ) SI_UNIT ( .MILLI., .METRE. ) );
#293 = DIRECTION ( 'NONE',  ( 1.000000000000000000, 0.0000000000000000000, -0.0000000000000000000 ) ) ;
#294 =( GEOMETRIC_REPRESENTATION_CONTEXT ( 3 ) GLOBAL_UNCERTAINTY_ASSIGNED_CONTEXT ( ( #62 ) ) GLOBAL_UNIT_ASSIGNED_CONTEXT ( ( #292, #320, #288 ) ) REPRESENTATION_CONTEXT ( 'NONE', 'WORKASPACE' ) );
#295 = FILL_AREA_STYLE_COLOUR ( '', #213 ) ;
#296 = CARTESIAN_POINT ( 'NONE',  ( 1000.000000000000000, 150.0000000000000300, 100.0000000000000000 ) ) ;
#297 = SURFACE_SIDE_STYLE ('',( #225 ) ) ;
#298 = ADVANCED_FACE ( 'NONE', ( #336 ), #264, .T. ) ;
#299 = CARTESIAN_POINT ( 'NONE',  ( 0.0000000000000000000, -149.9999999999999700, -100.0000000000000000 ) ) ;
#300 = FACE_OUTER_BOUND ( 'NONE', #99, .T. ) ;
#301 = EDGE_CURVE ( 'NONE', #281, #338, #110, .T. ) ;
#302 = DIRECTION ( 'NONE',  ( 0.0000000000000000000, 1.387778780781445700E-016, -1.000000000000000000 ) ) ;
#303 = DIRECTION ( 'NONE',  ( 0.0000000000000000000, -1.387778780781445700E-016, 1.000000000000000000 ) ) ;
#304 =( GEOMETRIC_REPRESENTATION_CONTEXT ( 3 ) GLOBAL_UNCERTAINTY_ASSIGNED_CONTEXT ( ( #218 ) ) GLOBAL_UNIT_ASSIGNED_CONTEXT ( ( #345, #327, #147 ) ) REPRESENTATION_CONTEXT ( 'NONE', 'WORKASPACE' ) );
#305 = ORIENTED_EDGE ( 'NONE', *, *, #172, .F. ) ;
#306 = EDGE_CURVE ( 'NONE', #220, #150, #118, .T. ) ;
#307 = ADVANCED_FACE ( 'NONE', ( #173 ), #208, .T. ) ;
#308 = VECTOR ( 'NONE', #178, 1000.000000000000000 ) ;
#309 = VECTOR ( 'NONE', #135, 1000.000000000000000 ) ;
#310 = AXIS2_PLACEMENT_3D ( 'NONE', #356, #337, #170 ) ;
#311 = ORIENTED_EDGE ( 'NONE', *, *, #137, .F. ) ;
#312 = EDGE_LOOP ( 'NONE', ( #174, #56, #140, #273 ) ) ;
#313 = AXIS2_PLACEMENT_3D ( 'NONE', #238, #230, #68 ) ;
#314 = COLOUR_RGB ( '',0.7921568627450980000, 0.8196078431372548800, 0.9333333333333333500 ) ;
#315 = ORIENTED_EDGE ( 'NONE', *, *, #54, .F. ) ;
#316 = EDGE_CURVE ( 'NONE', #341, #367, #254, .T. ) ;
#317 = ORIENTED_EDGE ( 'NONE', *, *, #5, .F. ) ;
#318 = DIRECTION ( 'NONE',  ( 0.0000000000000000000, 0.0000000000000000000, -1.000000000000000000 ) ) ;
#319 = DIRECTION ( 'NONE',  ( -0.0000000000000000000, -0.0000000000000000000, -1.000000000000000000 ) ) ;
#320 =( NAMED_UNIT ( * ) PLANE_ANGLE_UNIT ( ) SI_UNIT ( $, .RADIAN. ) );
#321 = ORIENTED_EDGE ( 'NONE', *, *, #301, .F. ) ;
#322 = ADVANCED_FACE ( 'NONE', ( #300 ), #189, .F. ) ;
#323 = DIRECTION ( 'NONE',  ( 0.0000000000000000000, 1.000000000000000000, 0.0000000000000000000 ) ) ;
#324 = LINE ( 'NONE', #180, #308 ) ;
#325 = FILL_AREA_STYLE ('',( #295 ) ) ;
#326 = FILL_AREA_STYLE ('',( #126 ) ) ;
#327 =( NAMED_UNIT ( * ) PLANE_ANGLE_UNIT ( ) SI_UNIT ( $, .RADIAN. ) );
#328 = CARTESIAN_POINT ( 'NONE',  ( 1000.000000000000000, -149.9999999999999700, -100.0000000000000000 ) ) ;
#329 = DIRECTION ( 'NONE',  ( 0.0000000000000000000, -0.0000000000000000000, -1.000000000000000000 ) ) ;
#330 = LINE ( 'NONE', #253, #143 ) ;
#331 = ADVANCED_FACE ( 'NONE', ( #58 ), #282, .T. ) ;
#332 = VERTEX_POINT ( 'NONE', #197 ) ;
#333 = AXIS2_PLACEMENT_3D ( 'NONE', #342, #351, #329 ) ;
#334 = ORIENTED_EDGE ( 'NONE', *, *, #107, .F. ) ;
#335 = CLOSED_SHELL ( 'NONE', ( #153, #18, #307, #331, #72, #298 ) ) ;
#336 = FACE_OUTER_BOUND ( 'NONE', #216, .T. ) ;
#337 = DIRECTION ( 'NONE',  ( 0.0000000000000000000, 1.000000000000000000, 0.0000000000000000000 ) ) ;
#338 = VERTEX_POINT ( 'NONE', #57 ) ;
#339 = VECTOR ( 'NONE', #146, 1000.000000000000000 ) ;
#340 = ORIENTED_EDGE ( 'NONE', *, *, #301, .T. ) ;
#341 = VERTEX_POINT ( 'NONE', #4 ) ;
#342 = CARTESIAN_POINT ( 'NONE',  ( -1000.000000000000000, -149.9999999999999700, -100.0000000000000000 ) ) ;
#343 = CARTESIAN_POINT ( 'NONE',  ( 1000.000000000000000, 150.0000000000000600, -100.0000000000000000 ) ) ;
#344 = DIRECTION ( 'NONE',  ( 1.000000000000000000, 0.0000000000000000000, 0.0000000000000000000 ) ) ;
#345 =( LENGTH_UNIT ( ) NAMED_UNIT ( * ) SI_UNIT ( .MILLI., .METRE. ) );
#346 = ORIENTED_EDGE ( 'NONE', *, *, #54, .T. ) ;
#347 = CARTESIAN_POINT ( 'NONE',  ( 0.0000000000000000000, 0.0000000000000000000, 0.0000000000000000000 ) ) ;
#348 = PRODUCT_DEFINITION_FORMATION_WITH_SPECIFIED_SOURCE ( 'ANY', '', #160, .NOT_KNOWN. ) ;
#349 =( NAMED_UNIT ( * ) PLANE_ANGLE_UNIT ( ) SI_UNIT ( $, .RADIAN. ) );
#350 = CARTESIAN_POINT ( 'NONE',  ( -1000.000000000000000, -149.9999999999999700, -100.0000000000000000 ) ) ;
#351 = DIRECTION ( 'NONE',  ( 0.0000000000000000000, -1.000000000000000000, 0.0000000000000000000 ) ) ;
#352 = CARTESIAN_POINT ( 'NONE',  ( 1000.000000000000000, 150.0000000000000300, 100.0000000000000000 ) ) ;
#353 = CARTESIAN_POINT ( 'NONE',  ( -1000.000000000000000, -149.9999999999999700, -100.0000000000000000 ) ) ;
#354 = EDGE_CURVE ( 'NONE', #220, #144, #275, .T. ) ;
#355 = LINE ( 'NONE', #296, #286 ) ;
#356 = CARTESIAN_POINT ( 'NONE',  ( 1000.000000000000000, -149.9999999999999700, -100.0000000000000000 ) ) ;
#357 = DIRECTION ( 'NONE',  ( -1.000000000000000000, 0.0000000000000000000, -0.0000000000000000000 ) ) ;
#358 = EDGE_LOOP ( 'NONE', ( #53, #315, #229, #291 ) ) ;
#359 = VECTOR ( 'NONE', #73, 1000.000000000000000 ) ;
#360 = EDGE_CURVE ( 'NONE', #332, #61, #330, .T. ) ;
#361 = FACE_OUTER_BOUND ( 'NONE', #358, .T. ) ;
#362 = ORIENTED_EDGE ( 'NONE', *, *, #159, .T. ) ;
#363 = EDGE_CURVE ( 'NONE', #290, #250, #222, .T. ) ;
#364 = VECTOR ( 'NONE', #11, 1000.000000000000000 ) ;
#365 = ORIENTED_EDGE ( 'NONE', *, *, #159, .F. ) ;
#366 = FACE_OUTER_BOUND ( 'NONE', #191, .T. ) ;
#367 = VERTEX_POINT ( 'NONE', #352 ) ;
ENDSEC;
END-ISO-10303-21;
