ISO-10303-21;
HEADER;
FILE_DESCRIPTION (( 'STEP AP214' ),
    '1' );
FILE_NAME ('rectangular_volumes_disconnected_1v.STEP',
    '2025-05-14T22:21:55',
    ( '' ),
    ( '' ),
    'SwSTEP 2.0',
    'SolidWorks 2015',
    '' );
FILE_SCHEMA (( 'AUTOMOTIVE_DESIGN' ));
ENDSEC;

DATA;
#1 = DIRECTION ( 'NONE',  ( -0.0000000000000000000, -0.0000000000000000000, 1.000000000000000000 ) ) ;
#2 = PRODUCT_DEFINITION_SHAPE ( 'NONE', 'NONE',  #81 ) ;
#3 = CARTESIAN_POINT ( 'NONE',  ( 30.00000000000000700, 150.0000000000000600, 0.0000000000000000000 ) ) ;
#4 = EDGE_LOOP ( 'NONE', ( #186, #119, #148, #378 ) ) ;
#5 = SURFACE_SIDE_STYLE ('',( #15 ) ) ;
#6 = DIRECTION ( 'NONE',  ( 1.000000000000000000, 0.0000000000000000000, 0.0000000000000000000 ) ) ;
#7 = EDGE_CURVE ( 'NONE', #259, #217, #52, .T. ) ;
#8 = DIRECTION ( 'NONE',  ( 0.0000000000000000000, -0.0000000000000000000, 1.000000000000000000 ) ) ;
#9 = VERTEX_POINT ( 'NONE', #164 ) ;
#10 = PRESENTATION_LAYER_ASSIGNMENT (  '', '', ( #99 ) ) ;
#11 = EDGE_CURVE ( 'NONE', #143, #382, #305, .T. ) ;
#12 = LINE ( 'NONE', #90, #216 ) ;
#13 = ORIENTED_EDGE ( 'NONE', *, *, #296, .F. ) ;
#14 = EDGE_CURVE ( 'NONE', #33, #179, #218, .T. ) ;
#15 = SURFACE_STYLE_FILL_AREA ( #315 ) ;
#16 = PLANE ( 'NONE',  #238 ) ;
#17 = DIRECTION ( 'NONE',  ( 0.0000000000000000000, 1.000000000000000000, 0.0000000000000000000 ) ) ;
#18 = CARTESIAN_POINT ( 'NONE',  ( 1000.000000000000000, 150.0000000000000300, 100.0000000000000000 ) ) ;
#19 = ORIENTED_EDGE ( 'NONE', *, *, #345, .T. ) ;
#20 = CARTESIAN_POINT ( 'NONE',  ( -1030.000000000000000, 0.0000000000000000000, 0.0000000000000000000 ) ) ;
#21 =( NAMED_UNIT ( * ) PLANE_ANGLE_UNIT ( ) SI_UNIT ( $, .RADIAN. ) );
#22 = LINE ( 'NONE', #371, #358 ) ;
#23 = DIRECTION ( 'NONE',  ( -0.0000000000000000000, -1.000000000000000000, -0.0000000000000000000 ) ) ;
#24 = CARTESIAN_POINT ( 'NONE',  ( -1030.000000000000000, 150.0000000000000300, 100.0000000000000000 ) ) ;
#25 = VECTOR ( 'NONE', #95, 1000.000000000000100 ) ;
#26 = AXIS2_PLACEMENT_3D ( 'NONE', #47, #263, #328 ) ;
#27 = ORIENTED_EDGE ( 'NONE', *, *, #221, .T. ) ;
#28 = SURFACE_STYLE_USAGE ( .BOTH. , #117 ) ;
#29 = DIRECTION ( 'NONE',  ( 1.000000000000000000, -0.0000000000000000000, -0.0000000000000000000 ) ) ;
#30 = LINE ( 'NONE', #157, #341 ) ;
#31 = MECHANICAL_DESIGN_GEOMETRIC_PRESENTATION_REPRESENTATION (  '', ( #99 ), #71 ) ;
#32 = DIRECTION ( 'NONE',  ( 0.0000000000000000000, -1.000000000000000000, -1.387778780781445700E-016 ) ) ;
#33 = VERTEX_POINT ( 'NONE', #385 ) ;
#34 = APPLICATION_PROTOCOL_DEFINITION ( 'draft international standard', 'automotive_design', 1998, #60 ) ;
#35 = ADVANCED_FACE ( 'NONE', ( #77 ), #16, .T. ) ;
#36 = VECTOR ( 'NONE', #177, 1000.000000000000000 ) ;
#37 = CARTESIAN_POINT ( 'NONE',  ( -1030.000000000000000, -149.9999999999999700, -100.0000000000000000 ) ) ;
#38 = EDGE_CURVE ( 'NONE', #73, #220, #234, .T. ) ;
#39 = DIRECTION ( 'NONE',  ( -0.0000000000000000000, -0.0000000000000000000, 1.000000000000000000 ) ) ;
#40 = ADVANCED_FACE ( 'NONE', ( #289 ), #355, .T. ) ;
#41 = ORIENTED_EDGE ( 'NONE', *, *, #387, .F. ) ;
#42 = DIRECTION ( 'NONE',  ( -0.0000000000000000000, 1.387778780781445700E-016, -1.000000000000000000 ) ) ;
#43 = ORIENTED_EDGE ( 'NONE', *, *, #318, .T. ) ;
#44 = PRESENTATION_LAYER_ASSIGNMENT (  '', '', ( #288 ) ) ;
#45 = ORIENTED_EDGE ( 'NONE', *, *, #163, .F. ) ;
#46 = CARTESIAN_POINT ( 'NONE',  ( -1030.000000000000000, 150.0000000000000300, 100.0000000000000000 ) ) ;
#47 = CARTESIAN_POINT ( 'NONE',  ( -1030.000000000000000, -149.9999999999999700, 100.0000000000000000 ) ) ;
#48 = PRESENTATION_STYLE_ASSIGNMENT (( #125 ) ) ;
#49 = DIRECTION ( 'NONE',  ( -0.0000000000000000000, -0.0000000000000000000, -1.000000000000000000 ) ) ;
#50 = PRESENTATION_LAYER_ASSIGNMENT (  '', '', ( #350 ) ) ;
#51 = VECTOR ( 'NONE', #17, 1000.000000000000000 ) ;
#52 = LINE ( 'NONE', #131, #224 ) ;
#53 =( LENGTH_UNIT ( ) NAMED_UNIT ( * ) SI_UNIT ( .MILLI., .METRE. ) );
#54 = CARTESIAN_POINT ( 'NONE',  ( -1030.000000000000000, -149.9999999999999700, -100.0000000000000000 ) ) ;
#55 = CARTESIAN_POINT ( 'NONE',  ( -1030.000000000000000, 150.0000000000000600, -100.0000000000000000 ) ) ;
#56 = CARTESIAN_POINT ( 'NONE',  ( -30.00000000000000000, 150.0000000000000600, -100.0000000000000000 ) ) ;
#57 = DIRECTION ( 'NONE',  ( 0.0000000000000000000, 1.387778780781445700E-016, -1.000000000000000000 ) ) ;
#58 = ADVANCED_FACE ( 'NONE', ( #223 ), #325, .F. ) ;
#59 = LINE ( 'NONE', #24, #194 ) ;
#60 = APPLICATION_CONTEXT ( 'automotive_design' ) ;
#61 = ORIENTED_EDGE ( 'NONE', *, *, #121, .F. ) ;
#62 = DIRECTION ( 'NONE',  ( -1.000000000000000000, -0.0000000000000000000, -0.0000000000000000000 ) ) ;
#63 = ORIENTED_EDGE ( 'NONE', *, *, #85, .T. ) ;
#64 = AXIS2_PLACEMENT_3D ( 'NONE', #244, #112, #398 ) ;
#65 = EDGE_CURVE ( 'NONE', #165, #113, #229, .T. ) ;
#66 = ORIENTED_EDGE ( 'NONE', *, *, #65, .T. ) ;
#67 = ORIENTED_EDGE ( 'NONE', *, *, #14, .F. ) ;
#68 = PRESENTATION_STYLE_ASSIGNMENT (( #28 ) ) ;
#69 = CARTESIAN_POINT ( 'NONE',  ( 1000.000000000000000, -149.9999999999999700, 100.0000000000000000 ) ) ;
#70 = DIRECTION ( 'NONE',  ( -0.0000000000000000000, -1.000000000000000000, -0.0000000000000000000 ) ) ;
#71 =( GEOMETRIC_REPRESENTATION_CONTEXT ( 3 ) GLOBAL_UNCERTAINTY_ASSIGNED_CONTEXT ( ( #285 ) ) GLOBAL_UNIT_ASSIGNED_CONTEXT ( ( #215, #89, #246 ) ) REPRESENTATION_CONTEXT ( 'NONE', 'WORKASPACE' ) );
#72 = ORIENTED_EDGE ( 'NONE', *, *, #182, .T. ) ;
#73 = VERTEX_POINT ( 'NONE', #145 ) ;
#74 = SURFACE_SIDE_STYLE ('',( #337 ) ) ;
#75 = DIRECTION ( 'NONE',  ( 0.0000000000000000000, -1.387778780781445700E-016, 1.000000000000000000 ) ) ;
#76 =( GEOMETRIC_REPRESENTATION_CONTEXT ( 3 ) GLOBAL_UNCERTAINTY_ASSIGNED_CONTEXT ( ( #376 ) ) GLOBAL_UNIT_ASSIGNED_CONTEXT ( ( #222, #88, #282 ) ) REPRESENTATION_CONTEXT ( 'NONE', 'WORKASPACE' ) );
#77 = FACE_OUTER_BOUND ( 'NONE', #267, .T. ) ;
#78 = PLANE ( 'NONE',  #64 ) ;
#79 = FACE_OUTER_BOUND ( 'NONE', #230, .T. ) ;
#80 =( LENGTH_UNIT ( ) NAMED_UNIT ( * ) SI_UNIT ( .MILLI., .METRE. ) );
#81 = PRODUCT_DEFINITION ( 'UNKNOWN', '', #129, #219 ) ;
#82 = CARTESIAN_POINT ( 'NONE',  ( 1000.000000000000000, -149.9999999999999700, -100.0000000000000000 ) ) ;
#83 = ADVANCED_FACE ( 'NONE', ( #153 ), #106, .F. ) ;
#84 = PLANE ( 'NONE',  #253 ) ;
#85 = EDGE_CURVE ( 'NONE', #286, #105, #159, .T. ) ;
#86 = ORIENTED_EDGE ( 'NONE', *, *, #333, .T. ) ;
#87 = CARTESIAN_POINT ( 'NONE',  ( 1000.000000000000000, -149.9999999999999700, -100.0000000000000000 ) ) ;
#88 =( NAMED_UNIT ( * ) PLANE_ANGLE_UNIT ( ) SI_UNIT ( $, .RADIAN. ) );
#89 =( NAMED_UNIT ( * ) PLANE_ANGLE_UNIT ( ) SI_UNIT ( $, .RADIAN. ) );
#90 = CARTESIAN_POINT ( 'NONE',  ( 1000.000000000000000, -149.9999999999999700, 100.0000000000000000 ) ) ;
#91 = EDGE_LOOP ( 'NONE', ( #331, #174, #247, #160 ) ) ;
#92 = FACE_OUTER_BOUND ( 'NONE', #354, .T. ) ;
#93 = AXIS2_PLACEMENT_3D ( 'NONE', #346, #158, #6 ) ;
#94 = EDGE_LOOP ( 'NONE', ( #72, #284, #375, #322 ) ) ;
#95 = DIRECTION ( 'NONE',  ( -0.2873478855663453800, 0.0000000000000000000, 0.9578262852211513200 ) ) ;
#96 = LINE ( 'NONE', #55, #265 ) ;
#97 = PRODUCT ( 'rectangular_volumes_disconnected_1v', 'rectangular_volumes_disconnected_1v', '', ( #310 ) ) ;
#98 = ORIENTED_EDGE ( 'NONE', *, *, #11, .F. ) ;
#99 = STYLED_ITEM ( 'NONE', ( #48 ), #107 ) ;
#100 = ADVANCED_FACE ( 'NONE', ( #317 ), #363, .F. ) ;
#101 = CARTESIAN_POINT ( 'NONE',  ( -1030.000000000000000, 150.0000000000000600, -100.0000000000000000 ) ) ;
#102 = AXIS2_PLACEMENT_3D ( 'NONE', #54, #251, #192 ) ;
#103 = PLANE ( 'NONE',  #26 ) ;
#104 = ORIENTED_EDGE ( 'NONE', *, *, #212, .F. ) ;
#105 = VERTEX_POINT ( 'NONE', #172 ) ;
#106 = PLANE ( 'NONE',  #132 ) ;
#107 = ADVANCED_BREP_SHAPE_REPRESENTATION ( 'rectangular_volumes_disconnected_1v', ( #124, #197, #93 ), #76 ) ;
#108 = LINE ( 'NONE', #101, #316 ) ;
#109 = DIRECTION ( 'NONE',  ( -1.000000000000000000, -0.0000000000000000000, -0.0000000000000000000 ) ) ;
#110 = LINE ( 'NONE', #308, #36 ) ;
#111 = CARTESIAN_POINT ( 'NONE',  ( -30.00000000000000000, -149.9999999999999700, -100.0000000000000000 ) ) ;
#112 = DIRECTION ( 'NONE',  ( 1.000000000000000000, 0.0000000000000000000, -0.0000000000000000000 ) ) ;
#113 = VERTEX_POINT ( 'NONE', #231 ) ;
#114 = CARTESIAN_POINT ( 'NONE',  ( 1000.000000000000000, -149.9999999999999700, -100.0000000000000000 ) ) ;
#115 = FACE_OUTER_BOUND ( 'NONE', #347, .T. ) ;
#116 = CARTESIAN_POINT ( 'NONE',  ( 27.52293577981651400, -149.9999999999999700, 8.256880733944955300 ) ) ;
#117 = SURFACE_SIDE_STYLE ('',( #241 ) ) ;
#118 = EDGE_CURVE ( 'NONE', #33, #143, #258, .T. ) ;
#119 = ORIENTED_EDGE ( 'NONE', *, *, #364, .F. ) ;
#120 = ORIENTED_EDGE ( 'NONE', *, *, #333, .F. ) ;
#121 = EDGE_CURVE ( 'NONE', #213, #382, #191, .T. ) ;
#122 = DIRECTION ( 'NONE',  ( -0.0000000000000000000, -1.000000000000000000, -0.0000000000000000000 ) ) ;
#123 = VECTOR ( 'NONE', #239, 1000.000000000000100 ) ;
#124 = MANIFOLD_SOLID_BREP ( 'Ressalto-extrusão3', #319 ) ;
#125 = SURFACE_STYLE_USAGE ( .BOTH. , #5 ) ;
#126 = PRESENTATION_STYLE_ASSIGNMENT (( #171 ) ) ;
#127 = ORIENTED_EDGE ( 'NONE', *, *, #38, .T. ) ;
#128 = APPLICATION_PROTOCOL_DEFINITION ( 'draft international standard', 'automotive_design', 1998, #189 ) ;
#129 = PRODUCT_DEFINITION_FORMATION_WITH_SPECIFIED_SOURCE ( 'ANY', '', #97, .NOT_KNOWN. ) ;
#130 = ORIENTED_EDGE ( 'NONE', *, *, #243, .T. ) ;
#131 = CARTESIAN_POINT ( 'NONE',  ( 1000.000000000000000, -149.9999999999999700, -100.0000000000000000 ) ) ;
#132 = AXIS2_PLACEMENT_3D ( 'NONE', #46, #170, #297 ) ;
#133 = DIRECTION ( 'NONE',  ( 0.2873478855663453800, 0.0000000000000000000, 0.9578262852211513200 ) ) ;
#134 = COLOUR_RGB ( '',0.7921568627450980000, 0.8196078431372548800, 0.9333333333333333500 ) ;
#135 = CARTESIAN_POINT ( 'NONE',  ( -1030.000000000000000, -149.9999999999999700, 100.0000000000000000 ) ) ;
#136 = ORIENTED_EDGE ( 'NONE', *, *, #357, .T. ) ;
#137 = EDGE_CURVE ( 'NONE', #193, #382, #377, .T. ) ;
#138 = CARTESIAN_POINT ( 'NONE',  ( 1000.000000000000000, -149.9999999999999700, -100.0000000000000000 ) ) ;
#139 = LINE ( 'NONE', #268, #208 ) ;
#140 = CARTESIAN_POINT ( 'NONE',  ( 30.00000000000000700, -149.9999999999999700, 0.0000000000000000000 ) ) ;
#141 = EDGE_CURVE ( 'NONE', #286, #220, #108, .T. ) ;
#142 = CARTESIAN_POINT ( 'NONE',  ( -1030.000000000000000, -149.9999999999999700, -100.0000000000000000 ) ) ;
#143 = VERTEX_POINT ( 'NONE', #140 ) ;
#144 = ORIENTED_EDGE ( 'NONE', *, *, #296, .T. ) ;
#145 = CARTESIAN_POINT ( 'NONE',  ( -30.00000000000000000, 150.0000000000000300, 100.0000000000000000 ) ) ;
#146 = DIRECTION ( 'NONE',  ( -0.9578262852211514300, 0.0000000000000000000, -0.2873478855663454400 ) ) ;
#147 = PLANE ( 'NONE',  #102 ) ;
#148 = ORIENTED_EDGE ( 'NONE', *, *, #7, .F. ) ;
#149 = CARTESIAN_POINT ( 'NONE',  ( 1000.000000000000000, 150.0000000000000600, -100.0000000000000000 ) ) ;
#150 = DIRECTION ( 'NONE',  ( -0.0000000000000000000, 1.387778780781445700E-016, -1.000000000000000000 ) ) ;
#151 = VECTOR ( 'NONE', #248, 1000.000000000000000 ) ;
#152 = DIRECTION ( 'NONE',  ( -0.0000000000000000000, 1.000000000000000000, -0.0000000000000000000 ) ) ;
#153 = FACE_OUTER_BOUND ( 'NONE', #390, .T. ) ;
#154 = ADVANCED_FACE ( 'NONE', ( #92 ), #103, .F. ) ;
#155 = ORIENTED_EDGE ( 'NONE', *, *, #225, .F. ) ;
#156 = AXIS2_PLACEMENT_3D ( 'NONE', #116, #146, #335 ) ;
#157 = CARTESIAN_POINT ( 'NONE',  ( -30.00000000000000000, -149.9999999999999700, 100.0000000000000000 ) ) ;
#158 = DIRECTION ( 'NONE',  ( 0.0000000000000000000, 0.0000000000000000000, 1.000000000000000000 ) ) ;
#159 = LINE ( 'NONE', #142, #206 ) ;
#160 = ORIENTED_EDGE ( 'NONE', *, *, #345, .F. ) ;
#161 = EDGE_CURVE ( 'NONE', #259, #33, #392, .T. ) ;
#162 = LINE ( 'NONE', #250, #226 ) ;
#163 = EDGE_CURVE ( 'NONE', #193, #259, #283, .T. ) ;
#164 = CARTESIAN_POINT ( 'NONE',  ( -30.00000000000000000, -149.9999999999999700, 100.0000000000000000 ) ) ;
#165 = VERTEX_POINT ( 'NONE', #135 ) ;
#166 = DIRECTION ( 'NONE',  ( 0.0000000000000000000, 0.0000000000000000000, -1.000000000000000000 ) ) ;
#167 = LINE ( 'NONE', #340, #368 ) ;
#168 = ORIENTED_EDGE ( 'NONE', *, *, #273, .T. ) ;
#169 = VECTOR ( 'NONE', #233, 1000.000000000000000 ) ;
#170 = DIRECTION ( 'NONE',  ( -0.0000000000000000000, 0.0000000000000000000, -1.000000000000000000 ) ) ;
#171 = SURFACE_STYLE_USAGE ( .BOTH. , #74 ) ;
#172 = CARTESIAN_POINT ( 'NONE',  ( -1030.000000000000000, -149.9999999999999700, -100.0000000000000000 ) ) ;
#173 = ORIENTED_EDGE ( 'NONE', *, *, #301, .T. ) ;
#174 = ORIENTED_EDGE ( 'NONE', *, *, #38, .F. ) ;
#175 = EDGE_CURVE ( 'NONE', #252, #213, #326, .T. ) ;
#176 = CARTESIAN_POINT ( 'NONE',  ( -30.00000000000000000, -149.9999999999999700, -100.0000000000000000 ) ) ;
#177 = DIRECTION ( 'NONE',  ( 1.000000000000000000, -0.0000000000000000000, -0.0000000000000000000 ) ) ;
#178 = VECTOR ( 'NONE', #23, 1000.000000000000000 ) ;
#179 = VERTEX_POINT ( 'NONE', #299 ) ;
#180 = CARTESIAN_POINT ( 'NONE',  ( -1030.000000000000000, 150.0000000000000600, -100.0000000000000000 ) ) ;
#181 =( NAMED_UNIT ( * ) PLANE_ANGLE_UNIT ( ) SI_UNIT ( $, .RADIAN. ) );
#182 = EDGE_CURVE ( 'NONE', #220, #199, #372, .T. ) ;
#183 = CARTESIAN_POINT ( 'NONE',  ( -1030.000000000000000, 150.0000000000000600, -100.0000000000000000 ) ) ;
#184 = ADVANCED_FACE ( 'NONE', ( #79 ), #307, .T. ) ;
#185 = UNCERTAINTY_MEASURE_WITH_UNIT (LENGTH_MEASURE( 1.000000000000000100E-005 ), #80, 'distance_accuracy_value', 'NONE');
#186 = ORIENTED_EDGE ( 'NONE', *, *, #14, .T. ) ;
#187 = CARTESIAN_POINT ( 'NONE',  ( -3.469446951953614200E-015, -149.9999999999999700, 100.0000000000000100 ) ) ;
#188 = ADVANCED_FACE ( 'NONE', ( #115 ), #391, .F. ) ;
#189 = APPLICATION_CONTEXT ( 'automotive_design' ) ;
#190 = ORIENTED_EDGE ( 'NONE', *, *, #301, .F. ) ;
#191 = LINE ( 'NONE', #393, #178 ) ;
#192 = DIRECTION ( 'NONE',  ( 1.000000000000000000, 0.0000000000000000000, -0.0000000000000000000 ) ) ;
#193 = VERTEX_POINT ( 'NONE', #272 ) ;
#194 = VECTOR ( 'NONE', #29, 1000.000000000000000 ) ;
#195 = MECHANICAL_DESIGN_GEOMETRIC_PRESENTATION_REPRESENTATION (  '', ( #288 ), #395 ) ;
#196 = CLOSED_SHELL ( 'NONE', ( #386, #249, #58, #279, #40, #184, #35 ) ) ;
#197 = MANIFOLD_SOLID_BREP ( 'Corte-extrusão1', #196 ) ;
#198 = DIRECTION ( 'NONE',  ( -0.0000000000000000000, 0.0000000000000000000, -1.000000000000000000 ) ) ;
#199 = VERTEX_POINT ( 'NONE', #176 ) ;
#200 = ORIENTED_EDGE ( 'NONE', *, *, #163, .T. ) ;
#201 = DIRECTION ( 'NONE',  ( -1.000000000000000000, 0.0000000000000000000, -0.0000000000000000000 ) ) ;
#202 = CARTESIAN_POINT ( 'NONE',  ( -1030.000000000000000, 150.0000000000000300, 100.0000000000000000 ) ) ;
#203 =( GEOMETRIC_REPRESENTATION_CONTEXT ( 3 ) GLOBAL_UNCERTAINTY_ASSIGNED_CONTEXT ( ( #323 ) ) GLOBAL_UNIT_ASSIGNED_CONTEXT ( ( #53, #21, #359 ) ) REPRESENTATION_CONTEXT ( 'NONE', 'WORKASPACE' ) );
#204 = FILL_AREA_STYLE_COLOUR ( '', #228 ) ;
#205 = DIRECTION ( 'NONE',  ( -0.0000000000000000000, 0.0000000000000000000, -1.000000000000000000 ) ) ;
#206 = VECTOR ( 'NONE', #394, 1000.000000000000000 ) ;
#207 = ORIENTED_EDGE ( 'NONE', *, *, #243, .F. ) ;
#208 = VECTOR ( 'NONE', #75, 1000.000000000000000 ) ;
#209 =( NAMED_UNIT ( * ) SI_UNIT ( $, .STERADIAN. ) SOLID_ANGLE_UNIT ( ) );
#210 = ORIENTED_EDGE ( 'NONE', *, *, #137, .F. ) ;
#211 = CARTESIAN_POINT ( 'NONE',  ( 1000.000000000000000, 150.0000000000000600, -100.0000000000000000 ) ) ;
#212 = EDGE_CURVE ( 'NONE', #217, #252, #139, .T. ) ;
#213 = VERTEX_POINT ( 'NONE', #399 ) ;
#214 = CARTESIAN_POINT ( 'NONE',  ( 30.00000000000000700, -149.9999999999999700, 0.0000000000000000000 ) ) ;
#215 =( LENGTH_UNIT ( ) NAMED_UNIT ( * ) SI_UNIT ( .MILLI., .METRE. ) );
#216 = VECTOR ( 'NONE', #122, 1000.000000000000000 ) ;
#217 = VERTEX_POINT ( 'NONE', #149 ) ;
#218 = LINE ( 'NONE', #388, #51 ) ;
#219 = PRODUCT_DEFINITION_CONTEXT ( 'detailed design', #189, 'design' ) ;
#220 = VERTEX_POINT ( 'NONE', #56 ) ;
#221 = EDGE_CURVE ( 'NONE', #143, #254, #321, .T. ) ;
#222 =( LENGTH_UNIT ( ) NAMED_UNIT ( * ) SI_UNIT ( .MILLI., .METRE. ) );
#223 = FACE_OUTER_BOUND ( 'NONE', #344, .T. ) ;
#224 = VECTOR ( 'NONE', #291, 1000.000000000000000 ) ;
#225 = EDGE_CURVE ( 'NONE', #105, #165, #167, .T. ) ;
#226 = VECTOR ( 'NONE', #62, 1000.000000000000000 ) ;
#227 = ORIENTED_EDGE ( 'NONE', *, *, #121, .T. ) ;
#228 = COLOUR_RGB ( '',0.7921568627450980000, 0.8196078431372548800, 0.9333333333333333500 ) ;
#229 = LINE ( 'NONE', #202, #374 ) ;
#230 = EDGE_LOOP ( 'NONE', ( #300, #362, #61, #190 ) ) ;
#231 = CARTESIAN_POINT ( 'NONE',  ( -1030.000000000000000, 150.0000000000000300, 100.0000000000000000 ) ) ;
#232 = CARTESIAN_POINT ( 'NONE',  ( 1000.000000000000000, -149.9999999999999700, -100.0000000000000000 ) ) ;
#233 = DIRECTION ( 'NONE',  ( -1.000000000000000000, -0.0000000000000000000, -0.0000000000000000000 ) ) ;
#234 = LINE ( 'NONE', #383, #330 ) ;
#235 = ORIENTED_EDGE ( 'NONE', *, *, #175, .F. ) ;
#236 = DIRECTION ( 'NONE',  ( 1.000000000000000000, -0.0000000000000000000, -0.0000000000000000000 ) ) ;
#237 = DIRECTION ( 'NONE',  ( -1.000000000000000000, -0.0000000000000000000, -0.0000000000000000000 ) ) ;
#238 = AXIS2_PLACEMENT_3D ( 'NONE', #260, #352, #133 ) ;
#239 = DIRECTION ( 'NONE',  ( 0.2873478855663453800, 0.0000000000000000000, 0.9578262852211513200 ) ) ;
#240 = FILL_AREA_STYLE ('',( #336 ) ) ;
#241 = SURFACE_STYLE_FILL_AREA ( #240 ) ;
#242 = CARTESIAN_POINT ( 'NONE',  ( 27.52293577981651800, 150.0000000000000600, -8.256880733944957000 ) ) ;
#243 = EDGE_CURVE ( 'NONE', #179, #254, #271, .T. ) ;
#244 = CARTESIAN_POINT ( 'NONE',  ( -30.00000000000000000, 0.0000000000000000000, 0.0000000000000000000 ) ) ;
#245 = ORIENTED_EDGE ( 'NONE', *, *, #141, .F. ) ;
#246 =( NAMED_UNIT ( * ) SI_UNIT ( $, .STERADIAN. ) SOLID_ANGLE_UNIT ( ) );
#247 = ORIENTED_EDGE ( 'NONE', *, *, #318, .F. ) ;
#248 = DIRECTION ( 'NONE',  ( 1.000000000000000000, -0.0000000000000000000, -0.0000000000000000000 ) ) ;
#249 = ADVANCED_FACE ( 'NONE', ( #255 ), #270, .F. ) ;
#250 = CARTESIAN_POINT ( 'NONE',  ( 1000.000000000000000, 150.0000000000000600, -100.0000000000000000 ) ) ;
#251 = DIRECTION ( 'NONE',  ( 0.0000000000000000000, -0.0000000000000000000, 1.000000000000000000 ) ) ;
#252 = VERTEX_POINT ( 'NONE', #365 ) ;
#253 = AXIS2_PLACEMENT_3D ( 'NONE', #87, #311, #8 ) ;
#254 = VERTEX_POINT ( 'NONE', #3 ) ;
#255 = FACE_OUTER_BOUND ( 'NONE', #369, .T. ) ;
#256 = CARTESIAN_POINT ( 'NONE',  ( 1000.000000000000000, 0.0000000000000000000, 0.0000000000000000000 ) ) ;
#257 = AXIS2_PLACEMENT_3D ( 'NONE', #211, #32, #367 ) ;
#258 = LINE ( 'NONE', #332, #313 ) ;
#259 = VERTEX_POINT ( 'NONE', #82 ) ;
#260 = CARTESIAN_POINT ( 'NONE',  ( 27.52293577981651800, -149.9999999999999700, -8.256880733944957000 ) ) ;
#261 = DIRECTION ( 'NONE',  ( 0.2873478855663453800, 0.0000000000000000000, 0.9578262852211513200 ) ) ;
#262 = EDGE_LOOP ( 'NONE', ( #98, #294, #281, #45, #349 ) ) ;
#263 = DIRECTION ( 'NONE',  ( 0.0000000000000000000, 1.000000000000000000, 0.0000000000000000000 ) ) ;
#264 = AXIS2_PLACEMENT_3D ( 'NONE', #180, #304, #57 ) ;
#265 = VECTOR ( 'NONE', #150, 1000.000000000000000 ) ;
#266 = ORIENTED_EDGE ( 'NONE', *, *, #175, .T. ) ;
#267 = EDGE_LOOP ( 'NONE', ( #67, #353, #27, #207 ) ) ;
#268 = CARTESIAN_POINT ( 'NONE',  ( 1000.000000000000000, 150.0000000000000600, -100.0000000000000000 ) ) ;
#269 = VECTOR ( 'NONE', #152, 1000.000000000000000 ) ;
#270 = PLANE ( 'NONE',  #257 ) ;
#271 = LINE ( 'NONE', #242, #123 ) ;
#272 = CARTESIAN_POINT ( 'NONE',  ( 1000.000000000000000, -149.9999999999999700, 100.0000000000000000 ) ) ;
#273 = EDGE_CURVE ( 'NONE', #165, #9, #110, .T. ) ;
#274 = ORIENTED_EDGE ( 'NONE', *, *, #225, .T. ) ;
#275 = ORIENTED_EDGE ( 'NONE', *, *, #387, .T. ) ;
#276 = DIRECTION ( 'NONE',  ( -0.2873478855663453800, 0.0000000000000000000, 0.9578262852211513200 ) ) ;
#277 = CARTESIAN_POINT ( 'NONE',  ( -30.00000000000000000, 150.0000000000000300, 100.0000000000000000 ) ) ;
#278 = FACE_OUTER_BOUND ( 'NONE', #4, .T. ) ;
#279 = ADVANCED_FACE ( 'NONE', ( #278 ), #338, .F. ) ;
#280 = AXIS2_PLACEMENT_3D ( 'NONE', #20, #334, #205 ) ;
#281 = ORIENTED_EDGE ( 'NONE', *, *, #161, .F. ) ;
#282 =( NAMED_UNIT ( * ) SI_UNIT ( $, .STERADIAN. ) SOLID_ANGLE_UNIT ( ) );
#283 = LINE ( 'NONE', #232, #292 ) ;
#284 = ORIENTED_EDGE ( 'NONE', *, *, #357, .F. ) ;
#285 = UNCERTAINTY_MEASURE_WITH_UNIT (LENGTH_MEASURE( 1.000000000000000100E-005 ), #215, 'distance_accuracy_value', 'NONE');
#286 = VERTEX_POINT ( 'NONE', #183 ) ;
#287 = COLOUR_RGB ( '',0.7921568627450980000, 0.8196078431372548800, 0.9333333333333333500 ) ;
#288 = STYLED_ITEM ( 'NONE', ( #68 ), #197 ) ;
#289 = FACE_OUTER_BOUND ( 'NONE', #370, .T. ) ;
#290 = DIRECTION ( 'NONE',  ( 1.000000000000000000, 0.0000000000000000000, -0.0000000000000000000 ) ) ;
#291 = DIRECTION ( 'NONE',  ( 0.0000000000000000000, 1.000000000000000000, 0.0000000000000000000 ) ) ;
#292 = VECTOR ( 'NONE', #49, 1000.000000000000000 ) ;
#293 = VECTOR ( 'NONE', #237, 1000.000000000000000 ) ;
#294 = ORIENTED_EDGE ( 'NONE', *, *, #118, .F. ) ;
#295 = ORIENTED_EDGE ( 'NONE', *, *, #65, .F. ) ;
#296 = EDGE_CURVE ( 'NONE', #113, #286, #96, .T. ) ;
#297 = DIRECTION ( 'NONE',  ( -1.000000000000000000, 0.0000000000000000000, 0.0000000000000000000 ) ) ;
#298 = FACE_OUTER_BOUND ( 'NONE', #262, .T. ) ;
#299 = CARTESIAN_POINT ( 'NONE',  ( 0.0000000000000000000, 150.0000000000000600, -100.0000000000000000 ) ) ;
#300 = ORIENTED_EDGE ( 'NONE', *, *, #221, .F. ) ;
#301 = EDGE_CURVE ( 'NONE', #254, #213, #22, .T. ) ;
#302 = SHAPE_DEFINITION_REPRESENTATION ( #2, #107 ) ;
#303 = DIRECTION ( 'NONE',  ( -0.0000000000000000000, 1.000000000000000000, -0.0000000000000000000 ) ) ;
#304 = DIRECTION ( 'NONE',  ( 0.0000000000000000000, -1.000000000000000000, -1.387778780781445700E-016 ) ) ;
#305 = LINE ( 'NONE', #324, #25 ) ;
#306 = ORIENTED_EDGE ( 'NONE', *, *, #7, .T. ) ;
#307 = PLANE ( 'NONE',  #156 ) ;
#308 = CARTESIAN_POINT ( 'NONE',  ( -1030.000000000000000, -149.9999999999999700, 100.0000000000000000 ) ) ;
#309 = ADVANCED_FACE ( 'NONE', ( #351 ), #78, .T. ) ;
#310 = PRODUCT_CONTEXT ( 'NONE', #60, 'mechanical' ) ;
#311 = DIRECTION ( 'NONE',  ( 0.0000000000000000000, 1.000000000000000000, 0.0000000000000000000 ) ) ;
#312 = ADVANCED_FACE ( 'NONE', ( #356 ), #147, .F. ) ;
#313 = VECTOR ( 'NONE', #261, 1000.000000000000100 ) ;
#314 = ORIENTED_EDGE ( 'NONE', *, *, #273, .F. ) ;
#315 = FILL_AREA_STYLE ('',( #348 ) ) ;
#316 = VECTOR ( 'NONE', #236, 1000.000000000000000 ) ;
#317 = FACE_OUTER_BOUND ( 'NONE', #384, .T. ) ;
#318 = EDGE_CURVE ( 'NONE', #9, #73, #381, .T. ) ;
#319 = CLOSED_SHELL ( 'NONE', ( #312, #154, #83, #188, #100, #309 ) ) ;
#320 = AXIS2_PLACEMENT_3D ( 'NONE', #256, #290, #198 ) ;
#321 = LINE ( 'NONE', #214, #329 ) ;
#322 = ORIENTED_EDGE ( 'NONE', *, *, #141, .T. ) ;
#323 = UNCERTAINTY_MEASURE_WITH_UNIT (LENGTH_MEASURE( 1.000000000000000100E-005 ), #53, 'distance_accuracy_value', 'NONE');
#324 = CARTESIAN_POINT ( 'NONE',  ( 27.52293577981651400, -149.9999999999999700, 8.256880733944955300 ) ) ;
#325 = PLANE ( 'NONE',  #366 ) ;
#326 = LINE ( 'NONE', #18, #339 ) ;
#327 = LINE ( 'NONE', #37, #151 ) ;
#328 = DIRECTION ( 'NONE',  ( 0.0000000000000000000, -0.0000000000000000000, 1.000000000000000000 ) ) ;
#329 = VECTOR ( 'NONE', #303, 1000.000000000000000 ) ;
#330 = VECTOR ( 'NONE', #42, 1000.000000000000000 ) ;
#331 = ORIENTED_EDGE ( 'NONE', *, *, #182, .F. ) ;
#332 = CARTESIAN_POINT ( 'NONE',  ( 27.52293577981651800, -149.9999999999999700, -8.256880733944957000 ) ) ;
#333 = EDGE_CURVE ( 'NONE', #113, #73, #59, .T. ) ;
#334 = DIRECTION ( 'NONE',  ( 1.000000000000000000, 0.0000000000000000000, -0.0000000000000000000 ) ) ;
#335 = DIRECTION ( 'NONE',  ( -0.2873478855663453800, 0.0000000000000000000, 0.9578262852211513200 ) ) ;
#336 = FILL_AREA_STYLE_COLOUR ( '', #287 ) ;
#337 = SURFACE_STYLE_FILL_AREA ( #360 ) ;
#338 = PLANE ( 'NONE',  #343 ) ;
#339 = VECTOR ( 'NONE', #109, 1000.000000000000000 ) ;
#340 = CARTESIAN_POINT ( 'NONE',  ( -1030.000000000000000, -149.9999999999999700, 100.0000000000000000 ) ) ;
#341 = VECTOR ( 'NONE', #39, 1000.000000000000000 ) ;
#342 = DIRECTION ( 'NONE',  ( 0.0000000000000000000, 0.0000000000000000000, 1.000000000000000000 ) ) ;
#343 = AXIS2_PLACEMENT_3D ( 'NONE', #114, #342, #400 ) ;
#344 = EDGE_LOOP ( 'NONE', ( #227, #210, #41, #266 ) ) ;
#345 = EDGE_CURVE ( 'NONE', #199, #9, #30, .T. ) ;
#346 = CARTESIAN_POINT ( 'NONE',  ( 0.0000000000000000000, 0.0000000000000000000, 0.0000000000000000000 ) ) ;
#347 = EDGE_LOOP ( 'NONE', ( #127, #245, #13, #86 ) ) ;
#348 = FILL_AREA_STYLE_COLOUR ( '', #134 ) ;
#349 = ORIENTED_EDGE ( 'NONE', *, *, #137, .T. ) ;
#350 = STYLED_ITEM ( 'NONE', ( #126 ), #124 ) ;
#351 = FACE_OUTER_BOUND ( 'NONE', #91, .T. ) ;
#352 = DIRECTION ( 'NONE',  ( -0.9578262852211514300, 0.0000000000000000000, 0.2873478855663454400 ) ) ;
#353 = ORIENTED_EDGE ( 'NONE', *, *, #118, .T. ) ;
#354 = EDGE_LOOP ( 'NONE', ( #19, #314, #155, #136 ) ) ;
#355 = PLANE ( 'NONE',  #320 ) ;
#356 = FACE_OUTER_BOUND ( 'NONE', #94, .T. ) ;
#357 = EDGE_CURVE ( 'NONE', #105, #199, #327, .T. ) ;
#358 = VECTOR ( 'NONE', #276, 1000.000000000000100 ) ;
#359 =( NAMED_UNIT ( * ) SI_UNIT ( $, .STERADIAN. ) SOLID_ANGLE_UNIT ( ) );
#360 = FILL_AREA_STYLE ('',( #204 ) ) ;
#361 = PRODUCT_RELATED_PRODUCT_CATEGORY ( 'part', '', ( #97 ) ) ;
#362 = ORIENTED_EDGE ( 'NONE', *, *, #11, .T. ) ;
#363 = PLANE ( 'NONE',  #280 ) ;
#364 = EDGE_CURVE ( 'NONE', #217, #179, #162, .T. ) ;
#365 = CARTESIAN_POINT ( 'NONE',  ( 1000.000000000000000, 150.0000000000000300, 100.0000000000000000 ) ) ;
#366 = AXIS2_PLACEMENT_3D ( 'NONE', #389, #166, #201 ) ;
#367 = DIRECTION ( 'NONE',  ( 0.0000000000000000000, 1.387778780781445700E-016, -1.000000000000000000 ) ) ;
#368 = VECTOR ( 'NONE', #1, 1000.000000000000000 ) ;
#369 = EDGE_LOOP ( 'NONE', ( #173, #235, #104, #379, #130 ) ) ;
#370 = EDGE_LOOP ( 'NONE', ( #275, #200, #306, #396 ) ) ;
#371 = CARTESIAN_POINT ( 'NONE',  ( 27.52293577981651400, 150.0000000000000600, 8.256880733944955300 ) ) ;
#372 = LINE ( 'NONE', #111, #380 ) ;
#373 = MECHANICAL_DESIGN_GEOMETRIC_PRESENTATION_REPRESENTATION (  '', ( #350 ), #203 ) ;
#374 = VECTOR ( 'NONE', #397, 1000.000000000000000 ) ;
#375 = ORIENTED_EDGE ( 'NONE', *, *, #85, .F. ) ;
#376 = UNCERTAINTY_MEASURE_WITH_UNIT (LENGTH_MEASURE( 1.000000000000000100E-005 ), #222, 'distance_accuracy_value', 'NONE');
#377 = LINE ( 'NONE', #69, #293 ) ;
#378 = ORIENTED_EDGE ( 'NONE', *, *, #161, .T. ) ;
#379 = ORIENTED_EDGE ( 'NONE', *, *, #364, .T. ) ;
#380 = VECTOR ( 'NONE', #70, 1000.000000000000000 ) ;
#381 = LINE ( 'NONE', #277, #269 ) ;
#382 = VERTEX_POINT ( 'NONE', #187 ) ;
#383 = CARTESIAN_POINT ( 'NONE',  ( -30.00000000000000000, 150.0000000000000600, -100.0000000000000000 ) ) ;
#384 = EDGE_LOOP ( 'NONE', ( #63, #274, #66, #144 ) ) ;
#385 = CARTESIAN_POINT ( 'NONE',  ( 0.0000000000000000000, -149.9999999999999700, -100.0000000000000100 ) ) ;
#386 = ADVANCED_FACE ( 'NONE', ( #298 ), #84, .F. ) ;
#387 = EDGE_CURVE ( 'NONE', #252, #193, #12, .T. ) ;
#388 = CARTESIAN_POINT ( 'NONE',  ( 0.0000000000000000000, -149.9999999999999700, -100.0000000000000000 ) ) ;
#389 = CARTESIAN_POINT ( 'NONE',  ( 1000.000000000000000, -149.9999999999999700, 100.0000000000000000 ) ) ;
#390 = EDGE_LOOP ( 'NONE', ( #43, #120, #295, #168 ) ) ;
#391 = PLANE ( 'NONE',  #264 ) ;
#392 = LINE ( 'NONE', #138, #169 ) ;
#393 = CARTESIAN_POINT ( 'NONE',  ( 0.0000000000000000000, -149.9999999999999700, 100.0000000000000000 ) ) ;
#394 = DIRECTION ( 'NONE',  ( -0.0000000000000000000, -1.000000000000000000, -0.0000000000000000000 ) ) ;
#395 =( GEOMETRIC_REPRESENTATION_CONTEXT ( 3 ) GLOBAL_UNCERTAINTY_ASSIGNED_CONTEXT ( ( #185 ) ) GLOBAL_UNIT_ASSIGNED_CONTEXT ( ( #80, #181, #209 ) ) REPRESENTATION_CONTEXT ( 'NONE', 'WORKASPACE' ) );
#396 = ORIENTED_EDGE ( 'NONE', *, *, #212, .T. ) ;
#397 = DIRECTION ( 'NONE',  ( -0.0000000000000000000, 1.000000000000000000, -0.0000000000000000000 ) ) ;
#398 = DIRECTION ( 'NONE',  ( -0.0000000000000000000, 0.0000000000000000000, -1.000000000000000000 ) ) ;
#399 = CARTESIAN_POINT ( 'NONE',  ( -3.469446951953614200E-015, 150.0000000000000600, 100.0000000000000100 ) ) ;
#400 = DIRECTION ( 'NONE',  ( 1.000000000000000000, 0.0000000000000000000, -0.0000000000000000000 ) ) ;
ENDSEC;
END-ISO-10303-21;
