ISO-10303-21;
HEADER;
FILE_DESCRIPTION (( 'STEP AP214' ),
    '1' );
FILE_NAME ('rectangular_volumes_disconnected_2v.STEP',
    '2025-05-14T22:43:33',
    ( '' ),
    ( '' ),
    'SwSTEP 2.0',
    'SolidWorks 2015',
    '' );
FILE_SCHEMA (( 'AUTOMOTIVE_DESIGN' ));
ENDSEC;

DATA;
#1 = ORIENTED_EDGE ( 'NONE', *, *, #260, .F. ) ;
#2 = EDGE_CURVE ( 'NONE', #402, #291, #200, .T. ) ;
#3 = CARTESIAN_POINT ( 'NONE',  ( 0.0000000000000000000, 352.2374841615668400, 0.0000000000000000000 ) ) ;
#4 = VERTEX_POINT ( 'NONE', #319 ) ;
#5 = EDGE_LOOP ( 'NONE', ( #263, #215, #149, #385 ) ) ;
#6 = VERTEX_POINT ( 'NONE', #115 ) ;
#7 = CARTESIAN_POINT ( 'NONE',  ( -1030.000000000000000, -149.9999999999999700, -100.0000000000000000 ) ) ;
#8 = DIRECTION ( 'NONE',  ( 0.0000000000000000000, 0.0000000000000000000, -1.000000000000000000 ) ) ;
#9 = LINE ( 'NONE', #196, #262 ) ;
#10 = ORIENTED_EDGE ( 'NONE', *, *, #286, .F. ) ;
#11 = CARTESIAN_POINT ( 'NONE',  ( 27.52293577981651800, -149.9999999999999700, -8.256880733944957000 ) ) ;
#12 = UNCERTAINTY_MEASURE_WITH_UNIT (LENGTH_MEASURE( 1.000000000000000100E-005 ), #49, 'distance_accuracy_value', 'NONE');
#13 = VECTOR ( 'NONE', #415, 1000.000000000000000 ) ;
#14 = ADVANCED_FACE ( 'NONE', ( #105 ), #388, .F. ) ;
#15 = CARTESIAN_POINT ( 'NONE',  ( 27.52293577981651400, -149.9999999999999700, 8.256880733944955300 ) ) ;
#16 = DIRECTION ( 'NONE',  ( -1.000000000000000000, -0.0000000000000000000, -0.0000000000000000000 ) ) ;
#17 = PRODUCT_DEFINITION ( 'UNKNOWN', '', #217, #123 ) ;
#18 = ORIENTED_EDGE ( 'NONE', *, *, #335, .T. ) ;
#19 = DIRECTION ( 'NONE',  ( -0.0000000000000000000, 1.000000000000000000, -0.0000000000000000000 ) ) ;
#20 = ORIENTED_EDGE ( 'NONE', *, *, #274, .T. ) ;
#21 = ADVANCED_FACE ( 'NONE', ( #324 ), #30, .F. ) ;
#22 = FACE_OUTER_BOUND ( 'NONE', #34, .T. ) ;
#23 = VERTEX_POINT ( 'NONE', #128 ) ;
#24 = FACE_OUTER_BOUND ( 'NONE', #167, .T. ) ;
#25 = EDGE_CURVE ( 'NONE', #114, #54, #272, .T. ) ;
#26 = ORIENTED_EDGE ( 'NONE', *, *, #239, .T. ) ;
#27 = ORIENTED_EDGE ( 'NONE', *, *, #36, .F. ) ;
#28 = DIRECTION ( 'NONE',  ( -0.2873478855663453800, 0.0000000000000000000, 0.9578262852211513200 ) ) ;
#29 = ORIENTED_EDGE ( 'NONE', *, *, #157, .F. ) ;
#30 = PLANE ( 'NONE',  #242 ) ;
#31 = ORIENTED_EDGE ( 'NONE', *, *, #85, .F. ) ;
#32 = DIRECTION ( 'NONE',  ( 0.0000000000000000000, 1.387778780781445700E-016, -1.000000000000000000 ) ) ;
#33 = ORIENTED_EDGE ( 'NONE', *, *, #274, .F. ) ;
#34 = EDGE_LOOP ( 'NONE', ( #206, #381, #430, #79 ) ) ;
#35 = DIRECTION ( 'NONE',  ( -0.0000000000000000000, 0.0000000000000000000, -1.000000000000000000 ) ) ;
#36 = EDGE_CURVE ( 'NONE', #64, #374, #238, .T. ) ;
#37 = LINE ( 'NONE', #148, #389 ) ;
#38 = CARTESIAN_POINT ( 'NONE',  ( 1000.000000000000000, -149.9999999999999700, 100.0000000000000000 ) ) ;
#39 = CARTESIAN_POINT ( 'NONE',  ( 1000.000000000000000, -149.9999999999999700, 100.0000000000000000 ) ) ;
#40 = STYLED_ITEM ( 'NONE', ( #50 ), #43 ) ;
#41 = LINE ( 'NONE', #186, #13 ) ;
#42 = DIRECTION ( 'NONE',  ( 0.0000000000000000000, 1.000000000000000000, 0.0000000000000000000 ) ) ;
#43 = MANIFOLD_SOLID_BREP ( 'Ressalto-extrusão4', #427 ) ;
#44 = EDGE_CURVE ( 'NONE', #97, #89, #380, .T. ) ;
#45 = ADVANCED_FACE ( 'NONE', ( #361 ), #398, .T. ) ;
#46 = EDGE_LOOP ( 'NONE', ( #268, #425, #255, #433 ) ) ;
#47 = PRODUCT_CONTEXT ( 'NONE', #345, 'mechanical' ) ;
#48 = DIRECTION ( 'NONE',  ( 1.000000000000000000, 0.0000000000000000000, -0.0000000000000000000 ) ) ;
#49 =( LENGTH_UNIT ( ) NAMED_UNIT ( * ) SI_UNIT ( .MILLI., .METRE. ) );
#50 = PRESENTATION_STYLE_ASSIGNMENT (( #257 ) ) ;
#51 = CARTESIAN_POINT ( 'NONE',  ( -30.00000000000000000, 352.2374841615668400, -100.0000000000000000 ) ) ;
#52 = STYLED_ITEM ( 'NONE', ( #269 ), #244 ) ;
#53 = COLOUR_RGB ( '',0.7921568627450980000, 0.8196078431372548800, 0.9333333333333333500 ) ;
#54 = VERTEX_POINT ( 'NONE', #367 ) ;
#55 = PRODUCT_DEFINITION_SHAPE ( 'NONE', 'NONE',  #17 ) ;
#56 = DIRECTION ( 'NONE',  ( 0.2873478855663453800, -1.329250994304630500E-016, 0.9578262852211513200 ) ) ;
#57 = EDGE_CURVE ( 'NONE', #99, #111, #9, .T. ) ;
#58 = DIRECTION ( 'NONE',  ( 1.000000000000000000, -0.0000000000000000000, -0.0000000000000000000 ) ) ;
#59 = DIRECTION ( 'NONE',  ( 1.000000000000000000, 0.0000000000000000000, -0.0000000000000000000 ) ) ;
#60 = LINE ( 'NONE', #120, #372 ) ;
#61 = AXIS2_PLACEMENT_3D ( 'NONE', #310, #136, #100 ) ;
#62 = LINE ( 'NONE', #113, #250 ) ;
#63 = EDGE_CURVE ( 'NONE', #164, #97, #306, .T. ) ;
#64 = VERTEX_POINT ( 'NONE', #340 ) ;
#65 = CARTESIAN_POINT ( 'NONE',  ( 1000.000000000000000, -149.9999999999999700, 100.0000000000000000 ) ) ;
#66 = PLANE ( 'NONE',  #61 ) ;
#67 = PRESENTATION_LAYER_ASSIGNMENT (  '', '', ( #52 ) ) ;
#68 = SURFACE_STYLE_FILL_AREA ( #358 ) ;
#69 = CARTESIAN_POINT ( 'NONE',  ( -1030.000000000000000, 150.0000000000000300, 100.0000000000000000 ) ) ;
#70 = CARTESIAN_POINT ( 'NONE',  ( -1030.000000000000000, 150.0000000000000600, -100.0000000000000000 ) ) ;
#71 = VECTOR ( 'NONE', #80, 1000.000000000000000 ) ;
#72 = ORIENTED_EDGE ( 'NONE', *, *, #130, .T. ) ;
#73 = DIRECTION ( 'NONE',  ( 0.2873478855663453800, 0.0000000000000000000, 0.9578262852211513200 ) ) ;
#74 = APPLICATION_PROTOCOL_DEFINITION ( 'draft international standard', 'automotive_design', 1998, #345 ) ;
#75 = AXIS2_PLACEMENT_3D ( 'NONE', #184, #248, #48 ) ;
#76 = CARTESIAN_POINT ( 'NONE',  ( 0.0000000000000000000, 150.0000000000000300, 0.0000000000000000000 ) ) ;
#77 = ADVANCED_FACE ( 'NONE', ( #396 ), #106, .F. ) ;
#78 = CARTESIAN_POINT ( 'NONE',  ( -1030.000000000000000, -149.9999999999999700, 100.0000000000000000 ) ) ;
#79 = ORIENTED_EDGE ( 'NONE', *, *, #260, .T. ) ;
#80 = DIRECTION ( 'NONE',  ( 1.000000000000000000, -0.0000000000000000000, -0.0000000000000000000 ) ) ;
#81 = AXIS2_PLACEMENT_3D ( 'NONE', #211, #407, #246 ) ;
#82 = ORIENTED_EDGE ( 'NONE', *, *, #63, .F. ) ;
#83 = ADVANCED_FACE ( 'NONE', ( #180 ), #66, .F. ) ;
#84 = DIRECTION ( 'NONE',  ( -0.9578262852211514300, 0.0000000000000000000, 0.2873478855663454400 ) ) ;
#85 = EDGE_CURVE ( 'NONE', #23, #291, #299, .T. ) ;
#86 = DIRECTION ( 'NONE',  ( -0.0000000000000000000, -1.000000000000000000, -0.0000000000000000000 ) ) ;
#87 = AXIS2_PLACEMENT_3D ( 'NONE', #170, #35, #304 ) ;
#88 = VECTOR ( 'NONE', #234, 1000.000000000000000 ) ;
#89 = VERTEX_POINT ( 'NONE', #168 ) ;
#90 = ORIENTED_EDGE ( 'NONE', *, *, #409, .F. ) ;
#91 = ORIENTED_EDGE ( 'NONE', *, *, #198, .T. ) ;
#92 = CARTESIAN_POINT ( 'NONE',  ( -1030.000000000000000, -149.9999999999999700, 100.0000000000000000 ) ) ;
#93 = CARTESIAN_POINT ( 'NONE',  ( 1000.000000000000000, -149.9999999999999700, -100.0000000000000000 ) ) ;
#94 = DIRECTION ( 'NONE',  ( -0.2873478855663453800, 0.0000000000000000000, 0.9578262852211513200 ) ) ;
#95 = VECTOR ( 'NONE', #230, 1000.000000000000100 ) ;
#96 = VECTOR ( 'NONE', #161, 1000.000000000000000 ) ;
#97 = VERTEX_POINT ( 'NONE', #38 ) ;
#98 = CARTESIAN_POINT ( 'NONE',  ( 27.52293577981651400, 150.0000000000000600, 8.256880733944955300 ) ) ;
#99 = VERTEX_POINT ( 'NONE', #307 ) ;
#100 = DIRECTION ( 'NONE',  ( -0.0000000000000000000, 0.0000000000000000000, -1.000000000000000000 ) ) ;
#101 = EDGE_CURVE ( 'NONE', #97, #4, #276, .T. ) ;
#102 = CARTESIAN_POINT ( 'NONE',  ( -30.00000000000000000, -149.9999999999999700, 100.0000000000000000 ) ) ;
#103 =( LENGTH_UNIT ( ) NAMED_UNIT ( * ) SI_UNIT ( .MILLI., .METRE. ) );
#104 = LINE ( 'NONE', #232, #160 ) ;
#105 = FACE_OUTER_BOUND ( 'NONE', #177, .T. ) ;
#106 = PLANE ( 'NONE',  #87 ) ;
#107 = ORIENTED_EDGE ( 'NONE', *, *, #371, .T. ) ;
#108 = DIRECTION ( 'NONE',  ( 1.000000000000000000, -0.0000000000000000000, -0.0000000000000000000 ) ) ;
#109 = PLANE ( 'NONE',  #125 ) ;
#110 = CARTESIAN_POINT ( 'NONE',  ( 1000.000000000000000, -149.9999999999999700, -100.0000000000000000 ) ) ;
#111 = VERTEX_POINT ( 'NONE', #102 ) ;
#112 = CARTESIAN_POINT ( 'NONE',  ( 1000.000000000000000, 150.0000000000000600, -100.0000000000000000 ) ) ;
#113 = CARTESIAN_POINT ( 'NONE',  ( 1000.000000000000000, -149.9999999999999700, -100.0000000000000000 ) ) ;
#114 = VERTEX_POINT ( 'NONE', #7 ) ;
#115 = CARTESIAN_POINT ( 'NONE',  ( -1030.000000000000000, 150.0000000000000600, -100.0000000000000000 ) ) ;
#116 = DIRECTION ( 'NONE',  ( 0.2873478855663453800, 0.0000000000000000000, 0.9578262852211513200 ) ) ;
#117 = DIRECTION ( 'NONE',  ( -1.000000000000000000, -0.0000000000000000000, -0.0000000000000000000 ) ) ;
#118 = VECTOR ( 'NONE', #383, 1000.000000000000100 ) ;
#119 = COLOUR_RGB ( '',0.7921568627450980000, 0.8196078431372548800, 0.9333333333333333500 ) ;
#120 = CARTESIAN_POINT ( 'NONE',  ( -30.00000000000000000, 150.0000000000000300, 100.0000000000000000 ) ) ;
#121 = ORIENTED_EDGE ( 'NONE', *, *, #214, .F. ) ;
#122 = AXIS2_PLACEMENT_3D ( 'NONE', #249, #391, #189 ) ;
#123 = PRODUCT_DEFINITION_CONTEXT ( 'detailed design', #213, 'design' ) ;
#124 = ORIENTED_EDGE ( 'NONE', *, *, #309, .F. ) ;
#125 = AXIS2_PLACEMENT_3D ( 'NONE', #11, #275, #73 ) ;
#126 = FILL_AREA_STYLE_COLOUR ( '', #119 ) ;
#127 = VECTOR ( 'NONE', #295, 1000.000000000000100 ) ;
#128 = CARTESIAN_POINT ( 'NONE',  ( 0.0000000000000000000, -149.9999999999999700, -100.0000000000000100 ) ) ;
#129 = VECTOR ( 'NONE', #150, 1000.000000000000100 ) ;
#130 = EDGE_CURVE ( 'NONE', #54, #99, #228, .T. ) ;
#131 =( LENGTH_UNIT ( ) NAMED_UNIT ( * ) SI_UNIT ( .MILLI., .METRE. ) );
#132 = AXIS2_PLACEMENT_3D ( 'NONE', #298, #399, #94 ) ;
#133 = VECTOR ( 'NONE', #155, 1000.000000000000000 ) ;
#134 = DIRECTION ( 'NONE',  ( -0.0000000000000000000, 1.000000000000000000, -0.0000000000000000000 ) ) ;
#135 = ORIENTED_EDGE ( 'NONE', *, *, #57, .T. ) ;
#136 = DIRECTION ( 'NONE',  ( 1.000000000000000000, 0.0000000000000000000, -0.0000000000000000000 ) ) ;
#137 = VECTOR ( 'NONE', #56, 1000.000000000000100 ) ;
#138 = DIRECTION ( 'NONE',  ( 0.0000000000000000000, 1.000000000000000000, 0.0000000000000000000 ) ) ;
#139 = AXIS2_PLACEMENT_3D ( 'NONE', #110, #145, #350 ) ;
#140 =( NAMED_UNIT ( * ) PLANE_ANGLE_UNIT ( ) SI_UNIT ( $, .RADIAN. ) );
#141 = DIRECTION ( 'NONE',  ( -0.2873478855663453800, 0.0000000000000000000, 0.9578262852211513200 ) ) ;
#142 = DIRECTION ( 'NONE',  ( -0.0000000000000000000, -1.000000000000000000, -0.0000000000000000000 ) ) ;
#143 = VECTOR ( 'NONE', #378, 1000.000000000000100 ) ;
#144 = FILL_AREA_STYLE_COLOUR ( '', #53 ) ;
#145 = DIRECTION ( 'NONE',  ( 0.0000000000000000000, 1.000000000000000000, 0.0000000000000000000 ) ) ;
#146 = MECHANICAL_DESIGN_GEOMETRIC_PRESENTATION_REPRESENTATION (  '', ( #254 ), #166 ) ;
#147 = ADVANCED_FACE ( 'NONE', ( #210 ), #271, .F. ) ;
#148 = CARTESIAN_POINT ( 'NONE',  ( -1030.000000000000000, 150.0000000000000300, 100.0000000000000000 ) ) ;
#149 = ORIENTED_EDGE ( 'NONE', *, *, #328, .F. ) ;
#150 = DIRECTION ( 'NONE',  ( 0.2873478855663453800, 0.0000000000000000000, 0.9578262852211513200 ) ) ;
#151 = ORIENTED_EDGE ( 'NONE', *, *, #101, .T. ) ;
#152 = CARTESIAN_POINT ( 'NONE',  ( -1030.000000000000000, -149.9999999999999700, -100.0000000000000000 ) ) ;
#153 = ADVANCED_FACE ( 'NONE', ( #289 ), #326, .F. ) ;
#154 = CARTESIAN_POINT ( 'NONE',  ( 1000.000000000000000, 150.0000000000000300, 100.0000000000000000 ) ) ;
#155 = DIRECTION ( 'NONE',  ( -0.0000000000000000000, 1.000000000000000000, -0.0000000000000000000 ) ) ;
#156 = CARTESIAN_POINT ( 'NONE',  ( -30.00000000000000000, -149.9999999999999700, -100.0000000000000000 ) ) ;
#157 = EDGE_CURVE ( 'NONE', #64, #54, #400, .T. ) ;
#158 = LINE ( 'NONE', #353, #129 ) ;
#159 = SURFACE_SIDE_STYLE ('',( #68 ) ) ;
#160 = VECTOR ( 'NONE', #108, 1000.000000000000000 ) ;
#161 = DIRECTION ( 'NONE',  ( -0.0000000000000000000, -0.0000000000000000000, -1.000000000000000000 ) ) ;
#162 =( GEOMETRIC_REPRESENTATION_CONTEXT ( 3 ) GLOBAL_UNCERTAINTY_ASSIGNED_CONTEXT ( ( #329 ) ) GLOBAL_UNIT_ASSIGNED_CONTEXT ( ( #412, #140, #178 ) ) REPRESENTATION_CONTEXT ( 'NONE', 'WORKASPACE' ) );
#163 = LINE ( 'NONE', #78, #71 ) ;
#164 = VERTEX_POINT ( 'NONE', #154 ) ;
#165 = MANIFOLD_SOLID_BREP ( 'Corte-extrusão1', #332 ) ;
#166 =( GEOMETRIC_REPRESENTATION_CONTEXT ( 3 ) GLOBAL_UNCERTAINTY_ASSIGNED_CONTEXT ( ( #12 ) ) GLOBAL_UNIT_ASSIGNED_CONTEXT ( ( #49, #185, #283 ) ) REPRESENTATION_CONTEXT ( 'NONE', 'WORKASPACE' ) );
#167 = EDGE_LOOP ( 'NONE', ( #29, #292, #273, #354 ) ) ;
#168 = CARTESIAN_POINT ( 'NONE',  ( 1000.000000000000000, -149.9999999999999700, -100.0000000000000000 ) ) ;
#169 = VERTEX_POINT ( 'NONE', #423 ) ;
#170 = CARTESIAN_POINT ( 'NONE',  ( -1030.000000000000000, 150.0000000000000300, 100.0000000000000000 ) ) ;
#171 = EDGE_CURVE ( 'NONE', #111, #235, #60, .T. ) ;
#172 = CARTESIAN_POINT ( 'NONE',  ( 1000.000000000000000, -149.9999999999999700, 100.0000000000000000 ) ) ;
#173 = CARTESIAN_POINT ( 'NONE',  ( 0.0000000000000000000, 0.0000000000000000000, 0.0000000000000000000 ) ) ;
#174 = CARTESIAN_POINT ( 'NONE',  ( -1030.000000000000000, 150.0000000000000600, -100.0000000000000000 ) ) ;
#175 = FACE_OUTER_BOUND ( 'NONE', #419, .T. ) ;
#176 = LINE ( 'NONE', #420, #127 ) ;
#177 = EDGE_LOOP ( 'NONE', ( #341, #205, #330, #253 ) ) ;
#178 =( NAMED_UNIT ( * ) SI_UNIT ( $, .STERADIAN. ) SOLID_ANGLE_UNIT ( ) );
#179 = ORIENTED_EDGE ( 'NONE', *, *, #335, .F. ) ;
#180 = FACE_OUTER_BOUND ( 'NONE', #376, .T. ) ;
#181 = ADVANCED_FACE ( 'NONE', ( #24 ), #218, .F. ) ;
#182 = DIRECTION ( 'NONE',  ( -1.000000000000000000, -0.0000000000000000000, -0.0000000000000000000 ) ) ;
#183 = PLANE ( 'NONE',  #357 ) ;
#184 = CARTESIAN_POINT ( 'NONE',  ( 1000.000000000000000, -149.9999999999999700, -100.0000000000000000 ) ) ;
#185 =( NAMED_UNIT ( * ) PLANE_ANGLE_UNIT ( ) SI_UNIT ( $, .RADIAN. ) );
#186 = CARTESIAN_POINT ( 'NONE',  ( -1030.000000000000000, -149.9999999999999700, -100.0000000000000000 ) ) ;
#187 = VERTEX_POINT ( 'NONE', #280 ) ;
#188 = FILL_AREA_STYLE_COLOUR ( '', #193 ) ;
#189 = DIRECTION ( 'NONE',  ( 0.0000000000000000000, 1.387778780781445700E-016, -1.000000000000000000 ) ) ;
#190 = LINE ( 'NONE', #240, #424 ) ;
#191 = ORIENTED_EDGE ( 'NONE', *, *, #214, .T. ) ;
#192 = EDGE_LOOP ( 'NONE', ( #18, #303, #82, #394 ) ) ;
#193 = COLOUR_RGB ( '',0.7921568627450980000, 0.8196078431372548800, 0.9333333333333333500 ) ;
#194 = EDGE_CURVE ( 'NONE', #89, #23, #406, .T. ) ;
#195 = EDGE_LOOP ( 'NONE', ( #107, #278, #27, #1, #416 ) ) ;
#196 = CARTESIAN_POINT ( 'NONE',  ( 0.0000000000000000000, -149.9999999999999700, 0.0000000000000000000 ) ) ;
#197 = FILL_AREA_STYLE ('',( #126 ) ) ;
#198 = EDGE_CURVE ( 'NONE', #187, #169, #327, .T. ) ;
#199 = LINE ( 'NONE', #317, #261 ) ;
#200 = LINE ( 'NONE', #112, #285 ) ;
#201 = PLANE ( 'NONE',  #401 ) ;
#202 = ORIENTED_EDGE ( 'NONE', *, *, #2, .T. ) ;
#203 = ORIENTED_EDGE ( 'NONE', *, *, #229, .F. ) ;
#204 = CARTESIAN_POINT ( 'NONE',  ( 1000.000000000000000, 150.0000000000000600, -100.0000000000000000 ) ) ;
#205 = ORIENTED_EDGE ( 'NONE', *, *, #2, .F. ) ;
#206 = ORIENTED_EDGE ( 'NONE', *, *, #157, .T. ) ;
#207 = LINE ( 'NONE', #15, #118 ) ;
#208 = DIRECTION ( 'NONE',  ( 0.0000000000000000000, -1.000000000000000000, -1.387778780781445700E-016 ) ) ;
#209 = DIRECTION ( 'NONE',  ( 1.000000000000000000, 0.0000000000000000000, 0.0000000000000000000 ) ) ;
#210 = FACE_OUTER_BOUND ( 'NONE', #192, .T. ) ;
#211 = CARTESIAN_POINT ( 'NONE',  ( 1000.000000000000000, 0.0000000000000000000, 0.0000000000000000000 ) ) ;
#212 = UNCERTAINTY_MEASURE_WITH_UNIT (LENGTH_MEASURE( 1.000000000000000100E-005 ), #131, 'distance_accuracy_value', 'NONE');
#213 = APPLICATION_CONTEXT ( 'automotive_design' ) ;
#214 = EDGE_CURVE ( 'NONE', #291, #169, #158, .T. ) ;
#215 = ORIENTED_EDGE ( 'NONE', *, *, #371, .F. ) ;
#216 = CARTESIAN_POINT ( 'NONE',  ( -1030.000000000000000, 150.0000000000000300, 100.0000000000000000 ) ) ;
#217 = PRODUCT_DEFINITION_FORMATION_WITH_SPECIFIED_SOURCE ( 'ANY', '', #313, .NOT_KNOWN. ) ;
#218 = PLANE ( 'NONE',  #288 ) ;
#219 = VECTOR ( 'NONE', #302, 1000.000000000000000 ) ;
#220 = VECTOR ( 'NONE', #142, 1000.000000000000000 ) ;
#221 = EDGE_CURVE ( 'NONE', #6, #114, #41, .T. ) ;
#222 = VECTOR ( 'NONE', #138, 1000.000000000000000 ) ;
#223 = MECHANICAL_DESIGN_GEOMETRIC_PRESENTATION_REPRESENTATION (  '', ( #40 ), #264 ) ;
#224 = ORIENTED_EDGE ( 'NONE', *, *, #393, .F. ) ;
#225 = CARTESIAN_POINT ( 'NONE',  ( -1030.000000000000000, -149.9999999999999700, -100.0000000000000000 ) ) ;
#226 = DIRECTION ( 'NONE',  ( 0.0000000000000000000, 1.000000000000000000, 0.0000000000000000000 ) ) ;
#227 = SURFACE_STYLE_FILL_AREA ( #197 ) ;
#228 = LINE ( 'NONE', #342, #143 ) ;
#229 = EDGE_CURVE ( 'NONE', #316, #111, #163, .T. ) ;
#230 = DIRECTION ( 'NONE',  ( 0.2873478855663453800, 0.0000000000000000000, 0.9578262852211513200 ) ) ;
#231 = EDGE_LOOP ( 'NONE', ( #290, #362, #287, #320 ) ) ;
#232 = CARTESIAN_POINT ( 'NONE',  ( -1030.000000000000000, 150.0000000000000600, -100.0000000000000000 ) ) ;
#233 = AXIS2_PLACEMENT_3D ( 'NONE', #172, #8, #237 ) ;
#234 = DIRECTION ( 'NONE',  ( -0.0000000000000000000, -1.000000000000000000, -0.0000000000000000000 ) ) ;
#235 = VERTEX_POINT ( 'NONE', #387 ) ;
#236 = VERTEX_POINT ( 'NONE', #216 ) ;
#237 = DIRECTION ( 'NONE',  ( -1.000000000000000000, 0.0000000000000000000, -0.0000000000000000000 ) ) ;
#238 = LINE ( 'NONE', #259, #137 ) ;
#239 = EDGE_CURVE ( 'NONE', #114, #316, #190, .T. ) ;
#240 = CARTESIAN_POINT ( 'NONE',  ( -1030.000000000000000, -149.9999999999999700, 100.0000000000000000 ) ) ;
#241 =( NAMED_UNIT ( * ) PLANE_ANGLE_UNIT ( ) SI_UNIT ( $, .RADIAN. ) );
#242 = AXIS2_PLACEMENT_3D ( 'NONE', #331, #294, #28 ) ;
#243 = LINE ( 'NONE', #98, #379 ) ;
#244 = ADVANCED_BREP_SHAPE_REPRESENTATION ( 'rectangular_volumes_disconnected_2v', ( #165, #43, #428 ), #162 ) ;
#245 = ORIENTED_EDGE ( 'NONE', *, *, #198, .F. ) ;
#246 = DIRECTION ( 'NONE',  ( -0.0000000000000000000, 0.0000000000000000000, -1.000000000000000000 ) ) ;
#247 = ORIENTED_EDGE ( 'NONE', *, *, #328, .T. ) ;
#248 = DIRECTION ( 'NONE',  ( 0.0000000000000000000, 0.0000000000000000000, 1.000000000000000000 ) ) ;
#249 = CARTESIAN_POINT ( 'NONE',  ( 1000.000000000000000, 150.0000000000000600, -100.0000000000000000 ) ) ;
#250 = VECTOR ( 'NONE', #42, 1000.000000000000000 ) ;
#251 = EDGE_CURVE ( 'NONE', #236, #6, #368, .T. ) ;
#252 = EDGE_LOOP ( 'NONE', ( #20, #90, #124, #202, #191 ) ) ;
#253 = ORIENTED_EDGE ( 'NONE', *, *, #194, .T. ) ;
#254 = STYLED_ITEM ( 'NONE', ( #392 ), #165 ) ;
#255 = ORIENTED_EDGE ( 'NONE', *, *, #359, .T. ) ;
#256 = ORIENTED_EDGE ( 'NONE', *, *, #393, .T. ) ;
#257 = SURFACE_STYLE_USAGE ( .BOTH. , #333 ) ;
#258 = CARTESIAN_POINT ( 'NONE',  ( -1030.000000000000000, -149.9999999999999700, 100.0000000000000000 ) ) ;
#259 = CARTESIAN_POINT ( 'NONE',  ( -30.00000000000000700, 150.0000000000000600, -100.0000000000000300 ) ) ;
#260 = EDGE_CURVE ( 'NONE', #6, #64, #104, .T. ) ;
#261 = VECTOR ( 'NONE', #323, 1000.000000000000000 ) ;
#262 = VECTOR ( 'NONE', #293, 1000.000000000000100 ) ;
#263 = ORIENTED_EDGE ( 'NONE', *, *, #171, .T. ) ;
#264 =( GEOMETRIC_REPRESENTATION_CONTEXT ( 3 ) GLOBAL_UNCERTAINTY_ASSIGNED_CONTEXT ( ( #212 ) ) GLOBAL_UNIT_ASSIGNED_CONTEXT ( ( #131, #369, #429 ) ) REPRESENTATION_CONTEXT ( 'NONE', 'WORKASPACE' ) );
#265 = CARTESIAN_POINT ( 'NONE',  ( 0.0000000000000000000, 150.0000000000000600, -100.0000000000000000 ) ) ;
#266 = VECTOR ( 'NONE', #117, 1000.000000000000000 ) ;
#267 = DIRECTION ( 'NONE',  ( 0.0000000000000000000, -1.387778780781445700E-016, 1.000000000000000000 ) ) ;
#268 = ORIENTED_EDGE ( 'NONE', *, *, #63, .T. ) ;
#269 = PRESENTATION_STYLE_ASSIGNMENT (( #382 ) ) ;
#270 = FACE_OUTER_BOUND ( 'NONE', #195, .T. ) ;
#271 = PLANE ( 'NONE',  #233 ) ;
#272 = LINE ( 'NONE', #225, #297 ) ;
#273 = ORIENTED_EDGE ( 'NONE', *, *, #300, .T. ) ;
#274 = EDGE_CURVE ( 'NONE', #169, #384, #243, .T. ) ;
#275 = DIRECTION ( 'NONE',  ( -0.9578262852211514300, 0.0000000000000000000, 0.2873478855663454400 ) ) ;
#276 = LINE ( 'NONE', #39, #421 ) ;
#277 = PRESENTATION_LAYER_ASSIGNMENT (  '', '', ( #254 ) ) ;
#278 = ORIENTED_EDGE ( 'NONE', *, *, #347, .F. ) ;
#279 = ORIENTED_EDGE ( 'NONE', *, *, #221, .T. ) ;
#280 = CARTESIAN_POINT ( 'NONE',  ( 30.00000000000000700, -149.9999999999999700, 0.0000000000000000000 ) ) ;
#281 = CARTESIAN_POINT ( 'NONE',  ( 30.00000000000000700, -149.9999999999999700, 0.0000000000000000000 ) ) ;
#282 =( GEOMETRIC_REPRESENTATION_CONTEXT ( 3 ) GLOBAL_UNCERTAINTY_ASSIGNED_CONTEXT ( ( #373 ) ) GLOBAL_UNIT_ASSIGNED_CONTEXT ( ( #103, #241, #343 ) ) REPRESENTATION_CONTEXT ( 'NONE', 'WORKASPACE' ) );
#283 =( NAMED_UNIT ( * ) SI_UNIT ( $, .STERADIAN. ) SOLID_ANGLE_UNIT ( ) );
#284 = LINE ( 'NONE', #375, #95 ) ;
#285 = VECTOR ( 'NONE', #16, 1000.000000000000000 ) ;
#286 = EDGE_CURVE ( 'NONE', #23, #187, #284, .T. ) ;
#287 = ORIENTED_EDGE ( 'NONE', *, *, #171, .F. ) ;
#288 = AXIS2_PLACEMENT_3D ( 'NONE', #51, #84, #116 ) ;
#289 = FACE_OUTER_BOUND ( 'NONE', #252, .T. ) ;
#290 = ORIENTED_EDGE ( 'NONE', *, *, #300, .F. ) ;
#291 = VERTEX_POINT ( 'NONE', #265 ) ;
#292 = ORIENTED_EDGE ( 'NONE', *, *, #36, .T. ) ;
#293 = DIRECTION ( 'NONE',  ( -0.2873478855663453800, 0.0000000000000000000, 0.9578262852211513200 ) ) ;
#294 = DIRECTION ( 'NONE',  ( -0.9578262852211514300, 0.0000000000000000000, -0.2873478855663454400 ) ) ;
#295 = DIRECTION ( 'NONE',  ( -0.2873478855663453800, -1.329250994304630500E-016, 0.9578262852211513200 ) ) ;
#296 = FACE_OUTER_BOUND ( 'NONE', #370, .T. ) ;
#297 = VECTOR ( 'NONE', #58, 1000.000000000000000 ) ;
#298 = CARTESIAN_POINT ( 'NONE',  ( 27.52293577981651400, -149.9999999999999700, 8.256880733944955300 ) ) ;
#299 = LINE ( 'NONE', #344, #222 ) ;
#300 = EDGE_CURVE ( 'NONE', #374, #99, #336, .T. ) ;
#301 = FACE_OUTER_BOUND ( 'NONE', #46, .T. ) ;
#302 = DIRECTION ( 'NONE',  ( -0.0000000000000000000, 1.387778780781445700E-016, -1.000000000000000000 ) ) ;
#303 = ORIENTED_EDGE ( 'NONE', *, *, #101, .F. ) ;
#304 = DIRECTION ( 'NONE',  ( -1.000000000000000000, 0.0000000000000000000, 0.0000000000000000000 ) ) ;
#305 = VECTOR ( 'NONE', #134, 1000.000000000000000 ) ;
#306 = LINE ( 'NONE', #65, #220 ) ;
#307 = CARTESIAN_POINT ( 'NONE',  ( 0.0000000000000000000, -149.9999999999999700, 0.0000000000000000000 ) ) ;
#308 = SURFACE_SIDE_STYLE ('',( #312 ) ) ;
#309 = EDGE_CURVE ( 'NONE', #402, #164, #408, .T. ) ;
#310 = CARTESIAN_POINT ( 'NONE',  ( -1030.000000000000000, 0.0000000000000000000, 0.0000000000000000000 ) ) ;
#311 = FILL_AREA_STYLE ('',( #144 ) ) ;
#312 = SURFACE_STYLE_FILL_AREA ( #311 ) ;
#313 = PRODUCT ( 'rectangular_volumes_disconnected_2v', 'rectangular_volumes_disconnected_2v', '', ( #47 ) ) ;
#314 = APPLICATION_PROTOCOL_DEFINITION ( 'draft international standard', 'automotive_design', 1998, #213 ) ;
#315 = ADVANCED_FACE ( 'NONE', ( #22 ), #355, .F. ) ;
#316 = VERTEX_POINT ( 'NONE', #258 ) ;
#317 = CARTESIAN_POINT ( 'NONE',  ( 0.0000000000000000000, -149.9999999999999700, 100.0000000000000000 ) ) ;
#318 = CARTESIAN_POINT ( 'NONE',  ( -3.469446951953614200E-015, 150.0000000000000600, 100.0000000000000100 ) ) ;
#319 = CARTESIAN_POINT ( 'NONE',  ( -3.469446951953614200E-015, -149.9999999999999700, 100.0000000000000100 ) ) ;
#320 = ORIENTED_EDGE ( 'NONE', *, *, #57, .F. ) ;
#321 = ADVANCED_FACE ( 'NONE', ( #432 ), #201, .F. ) ;
#322 = CARTESIAN_POINT ( 'NONE',  ( 1000.000000000000000, -149.9999999999999700, -100.0000000000000000 ) ) ;
#323 = DIRECTION ( 'NONE',  ( -0.0000000000000000000, -1.000000000000000000, -0.0000000000000000000 ) ) ;
#324 = FACE_OUTER_BOUND ( 'NONE', #231, .T. ) ;
#325 = ADVANCED_FACE ( 'NONE', ( #270 ), #183, .F. ) ;
#326 = PLANE ( 'NONE',  #122 ) ;
#327 = LINE ( 'NONE', #281, #133 ) ;
#328 = EDGE_CURVE ( 'NONE', #316, #236, #360, .T. ) ;
#329 = UNCERTAINTY_MEASURE_WITH_UNIT (LENGTH_MEASURE( 1.000000000000000100E-005 ), #412, 'distance_accuracy_value', 'NONE');
#330 = ORIENTED_EDGE ( 'NONE', *, *, #359, .F. ) ;
#331 = CARTESIAN_POINT ( 'NONE',  ( 0.0000000000000000000, 352.2374841615668400, 0.0000000000000000000 ) ) ;
#332 = CLOSED_SHELL ( 'NONE', ( #410, #153, #147, #14, #413, #45, #422 ) ) ;
#333 = SURFACE_SIDE_STYLE ('',( #227 ) ) ;
#334 = DIRECTION ( 'NONE',  ( 0.0000000000000000000, -0.0000000000000000000, 1.000000000000000000 ) ) ;
#335 = EDGE_CURVE ( 'NONE', #384, #4, #199, .T. ) ;
#336 = LINE ( 'NONE', #3, #88 ) ;
#337 = DIRECTION ( 'NONE',  ( -0.0000000000000000000, -0.0000000000000000000, 1.000000000000000000 ) ) ;
#338 = ORIENTED_EDGE ( 'NONE', *, *, #194, .F. ) ;
#339 = EDGE_LOOP ( 'NONE', ( #245, #256, #179, #33 ) ) ;
#340 = CARTESIAN_POINT ( 'NONE',  ( -30.00000000000000000, 150.0000000000000600, -100.0000000000000000 ) ) ;
#341 = ORIENTED_EDGE ( 'NONE', *, *, #85, .T. ) ;
#342 = CARTESIAN_POINT ( 'NONE',  ( -30.00000000000000000, -149.9999999999999700, -100.0000000000000000 ) ) ;
#343 =( NAMED_UNIT ( * ) SI_UNIT ( $, .STERADIAN. ) SOLID_ANGLE_UNIT ( ) );
#344 = CARTESIAN_POINT ( 'NONE',  ( 0.0000000000000000000, -149.9999999999999700, -100.0000000000000000 ) ) ;
#345 = APPLICATION_CONTEXT ( 'automotive_design' ) ;
#346 = LINE ( 'NONE', #352, #390 ) ;
#347 = EDGE_CURVE ( 'NONE', #374, #235, #176, .T. ) ;
#348 = DIRECTION ( 'NONE',  ( 1.000000000000000000, -0.0000000000000000000, -0.0000000000000000000 ) ) ;
#349 = ORIENTED_EDGE ( 'NONE', *, *, #286, .T. ) ;
#350 = DIRECTION ( 'NONE',  ( 0.0000000000000000000, -0.0000000000000000000, 1.000000000000000000 ) ) ;
#351 = ORIENTED_EDGE ( 'NONE', *, *, #239, .F. ) ;
#352 = CARTESIAN_POINT ( 'NONE',  ( 1000.000000000000000, 150.0000000000000300, 100.0000000000000000 ) ) ;
#353 = CARTESIAN_POINT ( 'NONE',  ( 27.52293577981651800, 150.0000000000000600, -8.256880733944957000 ) ) ;
#354 = ORIENTED_EDGE ( 'NONE', *, *, #130, .F. ) ;
#355 = PLANE ( 'NONE',  #363 ) ;
#356 = EDGE_LOOP ( 'NONE', ( #377, #72, #135, #203, #351 ) ) ;
#357 = AXIS2_PLACEMENT_3D ( 'NONE', #174, #208, #32 ) ;
#358 = FILL_AREA_STYLE ('',( #188 ) ) ;
#359 = EDGE_CURVE ( 'NONE', #89, #402, #62, .T. ) ;
#360 = LINE ( 'NONE', #69, #305 ) ;
#361 = FACE_OUTER_BOUND ( 'NONE', #339, .T. ) ;
#362 = ORIENTED_EDGE ( 'NONE', *, *, #347, .T. ) ;
#363 = AXIS2_PLACEMENT_3D ( 'NONE', #152, #334, #59 ) ;
#364 = VECTOR ( 'NONE', #86, 1000.000000000000000 ) ;
#365 = MECHANICAL_DESIGN_GEOMETRIC_PRESENTATION_REPRESENTATION (  '', ( #52 ), #282 ) ;
#366 = ORIENTED_EDGE ( 'NONE', *, *, #44, .F. ) ;
#367 = CARTESIAN_POINT ( 'NONE',  ( -30.00000000000000000, -149.9999999999999700, -100.0000000000000000 ) ) ;
#368 = LINE ( 'NONE', #70, #219 ) ;
#369 =( NAMED_UNIT ( * ) PLANE_ANGLE_UNIT ( ) SI_UNIT ( $, .RADIAN. ) );
#370 = EDGE_LOOP ( 'NONE', ( #224, #10, #338, #366, #151 ) ) ;
#371 = EDGE_CURVE ( 'NONE', #236, #235, #37, .T. ) ;
#372 = VECTOR ( 'NONE', #19, 1000.000000000000000 ) ;
#373 = UNCERTAINTY_MEASURE_WITH_UNIT (LENGTH_MEASURE( 1.000000000000000100E-005 ), #103, 'distance_accuracy_value', 'NONE');
#374 = VERTEX_POINT ( 'NONE', #76 ) ;
#375 = CARTESIAN_POINT ( 'NONE',  ( 27.52293577981651800, -149.9999999999999700, -8.256880733944957000 ) ) ;
#376 = EDGE_LOOP ( 'NONE', ( #279, #26, #247, #403 ) ) ;
#377 = ORIENTED_EDGE ( 'NONE', *, *, #25, .T. ) ;
#378 = DIRECTION ( 'NONE',  ( 0.2873478855663453800, -0.0000000000000000000, 0.9578262852211513200 ) ) ;
#379 = VECTOR ( 'NONE', #141, 1000.000000000000100 ) ;
#380 = LINE ( 'NONE', #93, #96 ) ;
#381 = ORIENTED_EDGE ( 'NONE', *, *, #25, .F. ) ;
#382 = SURFACE_STYLE_USAGE ( .BOTH. , #308 ) ;
#383 = DIRECTION ( 'NONE',  ( -0.2873478855663453800, 0.0000000000000000000, 0.9578262852211513200 ) ) ;
#384 = VERTEX_POINT ( 'NONE', #318 ) ;
#385 = ORIENTED_EDGE ( 'NONE', *, *, #229, .T. ) ;
#386 = CARTESIAN_POINT ( 'NONE',  ( 1000.000000000000000, 150.0000000000000600, -100.0000000000000000 ) ) ;
#387 = CARTESIAN_POINT ( 'NONE',  ( -30.00000000000000400, 150.0000000000000000, 100.0000000000000000 ) ) ;
#388 = PLANE ( 'NONE',  #75 ) ;
#389 = VECTOR ( 'NONE', #348, 1000.000000000000000 ) ;
#390 = VECTOR ( 'NONE', #182, 1000.000000000000000 ) ;
#391 = DIRECTION ( 'NONE',  ( 0.0000000000000000000, -1.000000000000000000, -1.387778780781445700E-016 ) ) ;
#392 = PRESENTATION_STYLE_ASSIGNMENT (( #418 ) ) ;
#393 = EDGE_CURVE ( 'NONE', #187, #4, #207, .T. ) ;
#394 = ORIENTED_EDGE ( 'NONE', *, *, #409, .T. ) ;
#395 = VECTOR ( 'NONE', #267, 1000.000000000000000 ) ;
#396 = FACE_OUTER_BOUND ( 'NONE', #5, .T. ) ;
#397 = PRODUCT_RELATED_PRODUCT_CATEGORY ( 'part', '', ( #313 ) ) ;
#398 = PLANE ( 'NONE',  #132 ) ;
#399 = DIRECTION ( 'NONE',  ( -0.9578262852211514300, 0.0000000000000000000, -0.2873478855663454400 ) ) ;
#400 = LINE ( 'NONE', #156, #364 ) ;
#401 = AXIS2_PLACEMENT_3D ( 'NONE', #92, #226, #417 ) ;
#402 = VERTEX_POINT ( 'NONE', #386 ) ;
#403 = ORIENTED_EDGE ( 'NONE', *, *, #251, .T. ) ;
#404 = DIRECTION ( 'NONE',  ( -1.000000000000000000, -0.0000000000000000000, -0.0000000000000000000 ) ) ;
#405 = DIRECTION ( 'NONE',  ( 0.0000000000000000000, 0.0000000000000000000, 1.000000000000000000 ) ) ;
#406 = LINE ( 'NONE', #322, #266 ) ;
#407 = DIRECTION ( 'NONE',  ( 1.000000000000000000, 0.0000000000000000000, -0.0000000000000000000 ) ) ;
#408 = LINE ( 'NONE', #204, #395 ) ;
#409 = EDGE_CURVE ( 'NONE', #164, #384, #346, .T. ) ;
#410 = ADVANCED_FACE ( 'NONE', ( #296 ), #414, .F. ) ;
#411 = PLANE ( 'NONE',  #81 ) ;
#412 =( LENGTH_UNIT ( ) NAMED_UNIT ( * ) SI_UNIT ( .MILLI., .METRE. ) );
#413 = ADVANCED_FACE ( 'NONE', ( #301 ), #411, .T. ) ;
#414 = PLANE ( 'NONE',  #139 ) ;
#415 = DIRECTION ( 'NONE',  ( -0.0000000000000000000, -1.000000000000000000, -0.0000000000000000000 ) ) ;
#416 = ORIENTED_EDGE ( 'NONE', *, *, #251, .F. ) ;
#417 = DIRECTION ( 'NONE',  ( 0.0000000000000000000, -0.0000000000000000000, 1.000000000000000000 ) ) ;
#418 = SURFACE_STYLE_USAGE ( .BOTH. , #159 ) ;
#419 = EDGE_LOOP ( 'NONE', ( #31, #349, #91, #121 ) ) ;
#420 = CARTESIAN_POINT ( 'NONE',  ( 7.724611629304024700E-015, 150.0000000000000300, -2.574870543101341000E-014 ) ) ;
#421 = VECTOR ( 'NONE', #404, 1000.000000000000000 ) ;
#422 = ADVANCED_FACE ( 'NONE', ( #175 ), #109, .T. ) ;
#423 = CARTESIAN_POINT ( 'NONE',  ( 30.00000000000000700, 150.0000000000000600, 0.0000000000000000000 ) ) ;
#424 = VECTOR ( 'NONE', #337, 1000.000000000000000 ) ;
#425 = ORIENTED_EDGE ( 'NONE', *, *, #44, .T. ) ;
#426 = PRESENTATION_LAYER_ASSIGNMENT (  '', '', ( #40 ) ) ;
#427 = CLOSED_SHELL ( 'NONE', ( #315, #321, #77, #325, #83, #181, #21 ) ) ;
#428 = AXIS2_PLACEMENT_3D ( 'NONE', #173, #405, #209 ) ;
#429 =( NAMED_UNIT ( * ) SI_UNIT ( $, .STERADIAN. ) SOLID_ANGLE_UNIT ( ) );
#430 = ORIENTED_EDGE ( 'NONE', *, *, #221, .F. ) ;
#431 = SHAPE_DEFINITION_REPRESENTATION ( #55, #244 ) ;
#432 = FACE_OUTER_BOUND ( 'NONE', #356, .T. ) ;
#433 = ORIENTED_EDGE ( 'NONE', *, *, #309, .T. ) ;
ENDSEC;
END-ISO-10303-21;
