SolidWorks IGES file using analytic representation for surfaces         S      1
1H,,1H;,27Hrectangular_cavities.SLDPRT,85HC:\Users\Jacson_Corsair\DesktoG      1
p\Fisicas\perforated_plate\CAD\rectangular_cavities.IGS,15HSolidWorks 20G      2
15,15HSolidWorks 2015,32,308,15,308,15,27Hrectangular_cavities.SLDPRT,  G      3
1.,2,2HMM,50,0.125,13H250916.172730,1E-008,499990.,14HJacson_Corsair,,  G      4
11,0,13H250916.172730;                                                  G      5
     314       1       0       0       0                        00000200D      1
     314       0       8       1       0                               0D      2
     502       2       0       0       0                        00010000D      3
     502       0       0       3       1                               0D      4
     110       5       0       0       0                        01010000D      5
     110       0       0       1       0                               0D      6
     110       6       0       0       0                        01010000D      7
     110       0       0       1       0                               0D      8
     110       7       0       0       0                        01010000D      9
     110       0       0       1       0                               0D     10
     110       8       0       0       0                        01010000D     11
     110       0       0       1       0                               0D     12
     110       9       0       0       0                        01010000D     13
     110       0       0       1       0                               0D     14
     110      10       0       0       0                        01010000D     15
     110       0       0       1       0                               0D     16
     110      11       0       0       0                        01010000D     17
     110       0       0       1       0                               0D     18
     110      12       0       0       0                        01010000D     19
     110       0       0       1       0                               0D     20
     110      13       0       0       0                        01010000D     21
     110       0       0       1       0                               0D     22
     110      14       0       0       0                        01010000D     23
     110       0       0       1       0                               0D     24
     110      15       0       0       0                        01010000D     25
     110       0       0       1       0                               0D     26
     110      16       0       0       0                        01010000D     27
     110       0       0       1       0                               0D     28
     504      17       0       0       0                        00010000D     29
     504       0       0       3       1                               0D     30
     116      20       0       0       0                        00010000D     31
     116       0       0       1       0                               0D     32
     123      21       0       0       0                        00010200D     33
     123       0       0       1       0                               0D     34
     123      22       0       0       0                        00010200D     35
     123       0       0       1       0                               0D     36
     190      23       0       0       0                        00010000D     37
     190       0      -1       1       1                               0D     38
     508      24       0       0       0                        00010000D     39
     508       0       0       1       1                               0D     40
     510      25       0       0       0                        00010000D     41
     510       0      -1       1       1                               0D     42
     116      26       0       0       0                        00010000D     43
     116       0       0       1       0                               0D     44
     123      27       0       0       0                        00010200D     45
     123       0       0       1       0                               0D     46
     123      28       0       0       0                        00010200D     47
     123       0       0       1       0                               0D     48
     190      29       0       0       0                        00010000D     49
     190       0      -1       1       1                               0D     50
     508      30       0       0       0                        00010000D     51
     508       0       0       1       1                               0D     52
     510      31       0       0       0                        00010000D     53
     510       0      -1       1       1                               0D     54
     116      32       0       0       0                        00010000D     55
     116       0       0       1       0                               0D     56
     123      33       0       0       0                        00010200D     57
     123       0       0       1       0                               0D     58
     123      34       0       0       0                        00010200D     59
     123       0       0       1       0                               0D     60
     190      35       0       0       0                        00010000D     61
     190       0      -1       1       1                               0D     62
     508      36       0       0       0                        00010000D     63
     508       0       0       1       1                               0D     64
     510      37       0       0       0                        00010000D     65
     510       0      -1       1       1                               0D     66
     116      38       0       0       0                        00010000D     67
     116       0       0       1       0                               0D     68
     123      39       0       0       0                        00010200D     69
     123       0       0       1       0                               0D     70
     123      40       0       0       0                        00010200D     71
     123       0       0       1       0                               0D     72
     190      41       0       0       0                        00010000D     73
     190       0      -1       1       1                               0D     74
     508      42       0       0       0                        00010000D     75
     508       0       0       1       1                               0D     76
     510      43       0       0       0                        00010000D     77
     510       0      -1       1       1                               0D     78
     116      44       0       0       0                        00010000D     79
     116       0       0       1       0                               0D     80
     123      45       0       0       0                        00010200D     81
     123       0       0       1       0                               0D     82
     123      46       0       0       0                        00010200D     83
     123       0       0       1       0                               0D     84
     190      47       0       0       0                        00010000D     85
     190       0      -1       1       1                               0D     86
     508      48       0       0       0                        00010000D     87
     508       0       0       1       1                               0D     88
     510      49       0       0       0                        00010000D     89
     510       0      -1       1       1                               0D     90
     116      50       0       0       0                        00010000D     91
     116       0       0       1       0                               0D     92
     123      51       0       0       0                        00010200D     93
     123       0       0       1       0                               0D     94
     123      52       0       0       0                        00010200D     95
     123       0       0       1       0                               0D     96
     190      53       0       0       0                        00010000D     97
     190       0      -1       1       1                               0D     98
     508      54       0       0       0                        00010000D     99
     508       0       0       1       1                               0D    100
     510      55       0       0       0                        00010000D    101
     510       0      -1       1       1                               0D    102
     514      56       0       0       0                        00010000D    103
     514       0       0       1       1                               0D    104
     186      57       0       0       0                        00000000D    105
     186       0       0       1       0                               0D    106
     502      58       0       0       0                        00010000D    107
     502       0       0       3       1                               0D    108
     110      61       0       0       0                        01010000D    109
     110       0       0       1       0                               0D    110
     110      62       0       0       0                        01010000D    111
     110       0       0       1       0                               0D    112
     110      63       0       0       0                        01010000D    113
     110       0       0       1       0                               0D    114
     110      64       0       0       0                        01010000D    115
     110       0       0       1       0                               0D    116
     110      65       0       0       0                        01010000D    117
     110       0       0       1       0                               0D    118
     110      66       0       0       0                        01010000D    119
     110       0       0       1       0                               0D    120
     110      67       0       0       0                        01010000D    121
     110       0       0       1       0                               0D    122
     110      68       0       0       0                        01010000D    123
     110       0       0       1       0                               0D    124
     110      69       0       0       0                        01010000D    125
     110       0       0       1       0                               0D    126
     110      70       0       0       0                        01010000D    127
     110       0       0       1       0                               0D    128
     110      71       0       0       0                        01010000D    129
     110       0       0       1       0                               0D    130
     110      72       0       0       0                        01010000D    131
     110       0       0       1       0                               0D    132
     504      73       0       0       0                        00010000D    133
     504       0       0       4       1                               0D    134
     116      77       0       0       0                        00010000D    135
     116       0       0       1       0                               0D    136
     123      78       0       0       0                        00010200D    137
     123       0       0       1       0                               0D    138
     123      79       0       0       0                        00010200D    139
     123       0       0       1       0                               0D    140
     190      80       0       0       0                        00010000D    141
     190       0      -1       1       1                               0D    142
     508      81       0       0       0                        00010000D    143
     508       0       0       1       1                               0D    144
     510      82       0       0       0                        00010000D    145
     510       0      -1       1       1                               0D    146
     116      83       0       0       0                        00010000D    147
     116       0       0       1       0                               0D    148
     123      84       0       0       0                        00010200D    149
     123       0       0       1       0                               0D    150
     123      85       0       0       0                        00010200D    151
     123       0       0       1       0                               0D    152
     190      86       0       0       0                        00010000D    153
     190       0      -1       1       1                               0D    154
     508      87       0       0       0                        00010000D    155
     508       0       0       1       1                               0D    156
     510      88       0       0       0                        00010000D    157
     510       0      -1       1       1                               0D    158
     116      89       0       0       0                        00010000D    159
     116       0       0       1       0                               0D    160
     123      90       0       0       0                        00010200D    161
     123       0       0       1       0                               0D    162
     123      91       0       0       0                        00010200D    163
     123       0       0       1       0                               0D    164
     190      92       0       0       0                        00010000D    165
     190       0      -1       1       1                               0D    166
     508      93       0       0       0                        00010000D    167
     508       0       0       1       1                               0D    168
     510      94       0       0       0                        00010000D    169
     510       0      -1       1       1                               0D    170
     116      95       0       0       0                        00010000D    171
     116       0       0       1       0                               0D    172
     123      96       0       0       0                        00010200D    173
     123       0       0       1       0                               0D    174
     123      97       0       0       0                        00010200D    175
     123       0       0       1       0                               0D    176
     190      98       0       0       0                        00010000D    177
     190       0      -1       1       1                               0D    178
     508      99       0       0       0                        00010000D    179
     508       0       0       1       1                               0D    180
     510     100       0       0       0                        00010000D    181
     510       0      -1       1       1                               0D    182
     116     101       0       0       0                        00010000D    183
     116       0       0       1       0                               0D    184
     123     102       0       0       0                        00010200D    185
     123       0       0       1       0                               0D    186
     123     103       0       0       0                        00010200D    187
     123       0       0       1       0                               0D    188
     190     104       0       0       0                        00010000D    189
     190       0      -1       1       1                               0D    190
     508     105       0       0       0                        00010000D    191
     508       0       0       1       1                               0D    192
     510     106       0       0       0                        00010000D    193
     510       0      -1       1       1                               0D    194
     116     107       0       0       0                        00010000D    195
     116       0       0       1       0                               0D    196
     123     108       0       0       0                        00010200D    197
     123       0       0       1       0                               0D    198
     123     109       0       0       0                        00010200D    199
     123       0       0       1       0                               0D    200
     190     110       0       0       0                        00010000D    201
     190       0      -1       1       1                               0D    202
     508     111       0       0       0                        00010000D    203
     508       0       0       1       1                               0D    204
     510     112       0       0       0                        00010000D    205
     510       0      -1       1       1                               0D    206
     514     113       0       0       0                        00010000D    207
     514       0       0       1       1                               0D    208
     186     114       0       0       0                        00000000D    209
     186       0       0       1       0                               0D    210
314,79.2156862745098,81.9607843137255,93.3333333333333,;               1P      1
502,8,0.,-150.,-100.,0.,150.,100.,1000.,150.,100.,1000.,-150.,         3P      2
100.,0.,-150.,100.,0.,150.,-100.,1000.,150.,-100.,1000.,-150.,         3P      3
-100.;                                                                 3P      4
110,1000.,150.,-100.,0.,150.,-100.;                                    5P      5
110,1000.,-150.,-100.,0.,-150.,-100.;                                  7P      6
110,1000.,-150.,100.,1000.,-150.,-100.;                                9P      7
110,1000.,150.,100.,1000.,-150.,100.;                                 11P      8
110,0.,150.,-100.,0.,150.,100.;                                       13P      9
110,0.,-150.,-100.,0.,150.,-100.;                                     15P     10
110,0.,-150.,100.,0.,-150.,-100.;                                     17P     11
110,1000.,-150.,100.,0.,-150.,100.;                                   19P     12
110,0.,150.,100.,0.,-150.,100.;                                       21P     13
110,1000.,150.,100.,0.,150.,100.;                                     23P     14
110,1000.,-150.,-100.,1000.,150.,-100.;                               25P     15
110,1000.,150.,-100.,1000.,150.,100.;                                 27P     16
504,12,5,3,7,3,6,7,3,8,3,1,9,3,4,3,8,11,3,3,3,4,13,3,6,3,2,15,        29P     17
3,1,3,6,17,3,5,3,1,19,3,4,3,5,21,3,2,3,5,23,3,3,3,2,25,3,8,3,7,       29P     18
27,3,7,3,3;                                                           29P     19
116,1000.,-150.,100.,;                                                31P     20
123,0.,0.,-1.;                                                        33P     21
123,-0.707106781,0.707106781,0.;                                      35P     22
190,31,33,35;                                                         37P     23
508,4,0,29,9,1,0,0,29,8,0,0,0,29,4,0,0,0,29,10,1,0;                   39P     24
510,37,1,1,39;                                                        41P     25
116,1000.,-150.,-100.,;                                               43P     26
123,0.,1.,0.;                                                         45P     27
123,-0.707106781,0.,0.707106781;                                      47P     28
190,43,45,47;                                                         49P     29
508,4,0,29,7,1,0,0,29,2,0,0,0,29,3,0,0,0,29,8,1,0;                    51P     30
510,49,1,1,51;                                                        53P     31
116,1000.,-150.,-100.,;                                               55P     32
123,0.,0.,1.;                                                         57P     33
123,0.707106781,-0.707106781,0.;                                      59P     34
190,55,57,59;                                                         61P     35
508,4,0,29,6,1,0,0,29,1,0,0,0,29,11,0,0,0,29,2,1,0;                   63P     36
510,61,1,1,63;                                                        65P     37
116,1000.,150.,-100.,;                                                67P     38
123,0.,-1.,0.;                                                        69P     39
123,0.707106781,0.,-0.707106781;                                      71P     40
190,67,69,71;                                                         73P     41
508,4,0,29,5,1,0,0,29,10,0,0,0,29,12,0,0,0,29,1,1,0;                  75P     42
510,73,1,1,75;                                                        77P     43
116,1000.,0.,0.,;                                                     79P     44
123,1.,0.,0.;                                                         81P     45
123,0.,0.707106781,-0.707106781;                                      83P     46
190,79,81,83;                                                         85P     47
508,4,0,29,4,1,0,0,29,3,1,0,0,29,11,1,0,0,29,12,1,0;                  87P     48
510,85,1,1,87;                                                        89P     49
116,0.,0.,0.,;                                                        91P     50
123,1.,0.,0.;                                                         93P     51
123,0.,0.707106781,-0.707106781;                                      95P     52
190,91,93,95;                                                         97P     53
508,4,0,29,9,0,0,0,29,5,0,0,0,29,6,0,0,0,29,7,0,0;                    99P     54
510,97,1,1,99;                                                       101P     55
514,6,41,1,53,1,65,1,77,1,89,1,101,1;                                103P     56
186,103,1,0;                                                         105P     57
502,8,0.,-150.,-100.,-1000.,-150.,-100.,-1000.,150.,-100.,0.,        107P     58
150.,-100.,-1000.,-150.,100.,0.,150.,100.,-1000.,150.,100.,0.,       107P     59
-150.,100.;                                                          107P     60
110,-1000.,150.,-100.,-1000.,150.,100.;                              109P     61
110,0.,150.,100.,0.,-150.,100.;                                      111P     62
110,-1000.,-150.,100.,0.,-150.,100.;                                 113P     63
110,-1000.,150.,100.,-1000.,-150.,100.;                              115P     64
110,-1000.,150.,100.,0.,150.,100.;                                   117P     65
110,-1000.,-150.,-100.,0.,-150.,-100.;                               119P     66
110,-1000.,150.,-100.,0.,150.,-100.;                                 121P     67
110,0.,-150.,100.,0.,-150.,-100.;                                    123P     68
110,0.,-150.,-100.,0.,150.,-100.;                                    125P     69
110,0.,150.,-100.,0.,150.,100.;                                      127P     70
110,-1000.,-150.,100.,-1000.,-150.,-100.;                            129P     71
110,-1000.,-150.,-100.,-1000.,150.,-100.;                            131P     72
504,12,109,107,3,107,7,111,107,6,107,8,113,107,5,107,8,115,107,      133P     73
7,107,5,117,107,7,107,6,119,107,2,107,1,121,107,3,107,4,123,         133P     74
107,8,107,1,125,107,1,107,4,127,107,4,107,6,129,107,5,107,2,         133P     75
131,107,2,107,3;                                                     133P     76
116,-1000.,-150.,100.,;                                              135P     77
123,0.,0.,1.;                                                        137P     78
123,0.707106781,-0.707106781,0.;                                     139P     79
190,135,137,139;                                                     141P     80
508,4,0,133,2,0,0,0,133,5,0,0,0,133,4,1,0,0,133,3,1,0;               143P     81
510,141,1,1,143;                                                     145P     82
116,-1000.,150.,-100.,;                                              147P     83
123,0.,1.,0.;                                                        149P     84
123,-0.707106781,0.,0.707106781;                                     151P     85
190,147,149,151;                                                     153P     86
508,4,0,133,10,0,0,0,133,7,0,0,0,133,1,1,0,0,133,5,1,0;              155P     87
510,153,1,1,155;                                                     157P     88
116,-1000.,-150.,-100.,;                                             159P     89
123,0.,0.,-1.;                                                       161P     90
123,-0.707106781,0.707106781,0.;                                     163P     91
190,159,161,163;                                                     165P     92
508,4,0,133,9,0,0,0,133,6,0,0,0,133,12,1,0,0,133,7,1,0;              167P     93
510,165,1,1,167;                                                     169P     94
116,-1000.,-150.,-100.,;                                             171P     95
123,0.,-1.,0.;                                                       173P     96
123,0.707106781,0.,-0.707106781;                                     175P     97
190,171,173,175;                                                     177P     98
508,4,0,133,8,0,0,0,133,3,0,0,0,133,11,1,0,0,133,6,1,0;              179P     99
510,177,1,1,179;                                                     181P    100
116,-1000.,0.,0.,;                                                   183P    101
123,1.,0.,0.;                                                        185P    102
123,0.,0.707106781,-0.707106781;                                     187P    103
190,183,185,187;                                                     189P    104
508,4,0,133,4,0,0,0,133,1,0,0,0,133,12,0,0,0,133,11,0,0;             191P    105
510,189,1,1,191;                                                     193P    106
116,0.,0.,0.,;                                                       195P    107
123,1.,0.,0.;                                                        197P    108
123,0.,0.707106781,-0.707106781;                                     199P    109
190,195,197,199;                                                     201P    110
508,4,0,133,2,1,0,0,133,8,1,0,0,133,9,1,0,0,133,10,1,0;              203P    111
510,201,1,1,203;                                                     205P    112
514,6,145,1,157,1,169,1,181,1,193,1,205,1;                           207P    113
186,207,1,0;                                                         209P    114
S      1G      5D    210P    114                                        T      1
