ISO-10303-21;
HEADER;
FILE_DESCRIPTION (( 'STEP AP214' ),
    '1' );
FILE_NAME ('rectangular_volumes_disconnected.STEP',
    '2025-05-12T19:56:37',
    ( '' ),
    ( '' ),
    'SwSTEP 2.0',
    'SolidWorks 2015',
    '' );
FILE_SCHEMA (( 'AUTOMOTIVE_DESIGN' ));
ENDSEC;

DATA;
#1 = CARTESIAN_POINT ( 'NONE',  ( 0.0000000000000000000, 0.0000000000000000000, 0.0000000000000000000 ) ) ;
#2 = FACE_OUTER_BOUND ( 'NONE', #161, .T. ) ;
#3 = ADVANCED_FACE ( 'NONE', ( #2 ), #229, .F. ) ;
#4 = PRODUCT_CONTEXT ( 'NONE', #250, 'mechanical' ) ;
#5 = AXIS2_PLACEMENT_3D ( 'NONE', #179, #328, #13 ) ;
#6 = VERTEX_POINT ( 'NONE', #320 ) ;
#7 = LINE ( 'NONE', #239, #18 ) ;
#8 = PRODUCT_DEFINITION_FORMATION_WITH_SPECIFIED_SOURCE ( 'ANY', '', #355, .NOT_KNOWN. ) ;
#9 = UNCERTAINTY_MEASURE_WITH_UNIT (LENGTH_MEASURE( 1.000000000000000100E-005 ), #252, 'distance_accuracy_value', 'NONE');
#10 = VERTEX_POINT ( 'NONE', #202 ) ;
#11 = DIRECTION ( 'NONE',  ( 0.0000000000000000000, -0.0000000000000000000, 1.000000000000000000 ) ) ;
#12 = EDGE_CURVE ( 'NONE', #118, #165, #109, .T. ) ;
#13 = DIRECTION ( 'NONE',  ( 0.0000000000000000000, 1.387778780781445700E-016, -1.000000000000000000 ) ) ;
#14 =( NAMED_UNIT ( * ) PLANE_ANGLE_UNIT ( ) SI_UNIT ( $, .RADIAN. ) );
#15 = ORIENTED_EDGE ( 'NONE', *, *, #286, .T. ) ;
#16 = CARTESIAN_POINT ( 'NONE',  ( -1030.000000000000000, -149.9999999999999700, 100.0000000000000000 ) ) ;
#17 = EDGE_CURVE ( 'NONE', #102, #174, #342, .T. ) ;
#18 = VECTOR ( 'NONE', #218, 1000.000000000000000 ) ;
#19 = CARTESIAN_POINT ( 'NONE',  ( -30.00000000000000000, 0.0000000000000000000, 0.0000000000000000000 ) ) ;
#20 = ORIENTED_EDGE ( 'NONE', *, *, #198, .T. ) ;
#21 = DIRECTION ( 'NONE',  ( 1.000000000000000000, 0.0000000000000000000, -0.0000000000000000000 ) ) ;
#22 = PLANE ( 'NONE',  #291 ) ;
#23 = UNCERTAINTY_MEASURE_WITH_UNIT (LENGTH_MEASURE( 1.000000000000000100E-005 ), #327, 'distance_accuracy_value', 'NONE');
#24 = DIRECTION ( 'NONE',  ( 0.0000000000000000000, -0.0000000000000000000, 1.000000000000000000 ) ) ;
#25 = PLANE ( 'NONE',  #101 ) ;
#26 = EDGE_CURVE ( 'NONE', #10, #349, #220, .T. ) ;
#27 = ORIENTED_EDGE ( 'NONE', *, *, #312, .F. ) ;
#28 = ADVANCED_FACE ( 'NONE', ( #68 ), #142, .F. ) ;
#29 = VECTOR ( 'NONE', #207, 1000.000000000000000 ) ;
#30 = ORIENTED_EDGE ( 'NONE', *, *, #17, .T. ) ;
#31 = CARTESIAN_POINT ( 'NONE',  ( -30.00000000000000000, 150.0000000000000300, 100.0000000000000000 ) ) ;
#32 = ORIENTED_EDGE ( 'NONE', *, *, #338, .T. ) ;
#33 = MECHANICAL_DESIGN_GEOMETRIC_PRESENTATION_REPRESENTATION (  '', ( #257 ), #166 ) ;
#34 = CARTESIAN_POINT ( 'NONE',  ( 1000.000000000000000, 0.0000000000000000000, 0.0000000000000000000 ) ) ;
#35 = EDGE_CURVE ( 'NONE', #99, #64, #141, .T. ) ;
#36 = MANIFOLD_SOLID_BREP ( 'Ressalto-extrusão3', #275 ) ;
#37 = PRESENTATION_STYLE_ASSIGNMENT (( #262 ) ) ;
#38 = EDGE_CURVE ( 'NONE', #349, #231, #230, .T. ) ;
#39 = AXIS2_PLACEMENT_3D ( 'NONE', #1, #341, #192 ) ;
#40 = VECTOR ( 'NONE', #236, 1000.000000000000000 ) ;
#41 = CARTESIAN_POINT ( 'NONE',  ( -30.00000000000000000, -149.9999999999999700, 100.0000000000000000 ) ) ;
#42 = ORIENTED_EDGE ( 'NONE', *, *, #12, .T. ) ;
#43 = CARTESIAN_POINT ( 'NONE',  ( -1030.000000000000000, 150.0000000000000600, -100.0000000000000000 ) ) ;
#44 = EDGE_CURVE ( 'NONE', #362, #102, #73, .T. ) ;
#45 = PLANE ( 'NONE',  #5 ) ;
#46 = LINE ( 'NONE', #271, #340 ) ;
#47 = DIRECTION ( 'NONE',  ( 1.000000000000000000, 0.0000000000000000000, -0.0000000000000000000 ) ) ;
#48 = FILL_AREA_STYLE_COLOUR ( '', #238 ) ;
#49 = CARTESIAN_POINT ( 'NONE',  ( -1030.000000000000000, 150.0000000000000300, 100.0000000000000000 ) ) ;
#50 = CARTESIAN_POINT ( 'NONE',  ( -1030.000000000000000, 150.0000000000000300, 100.0000000000000000 ) ) ;
#51 = DIRECTION ( 'NONE',  ( -1.000000000000000000, -0.0000000000000000000, -0.0000000000000000000 ) ) ;
#52 = ADVANCED_FACE ( 'NONE', ( #313 ), #45, .F. ) ;
#53 = LINE ( 'NONE', #177, #29 ) ;
#54 = ORIENTED_EDGE ( 'NONE', *, *, #224, .F. ) ;
#55 = PRESENTATION_LAYER_ASSIGNMENT (  '', '', ( #191 ) ) ;
#56 = VECTOR ( 'NONE', #76, 1000.000000000000000 ) ;
#57 =( NAMED_UNIT ( * ) SI_UNIT ( $, .STERADIAN. ) SOLID_ANGLE_UNIT ( ) );
#58 = ORIENTED_EDGE ( 'NONE', *, *, #176, .F. ) ;
#59 = LINE ( 'NONE', #336, #260 ) ;
#60 = EDGE_CURVE ( 'NONE', #6, #77, #284, .T. ) ;
#61 = VERTEX_POINT ( 'NONE', #16 ) ;
#62 = VECTOR ( 'NONE', #332, 1000.000000000000000 ) ;
#63 = DIRECTION ( 'NONE',  ( 0.0000000000000000000, 1.000000000000000000, 0.0000000000000000000 ) ) ;
#64 = VERTEX_POINT ( 'NONE', #204 ) ;
#65 = SURFACE_SIDE_STYLE ('',( #350 ) ) ;
#66 = FILL_AREA_STYLE ('',( #268 ) ) ;
#67 = CARTESIAN_POINT ( 'NONE',  ( 1000.000000000000000, 150.0000000000000300, 100.0000000000000000 ) ) ;
#68 = FACE_OUTER_BOUND ( 'NONE', #356, .T. ) ;
#69 = ORIENTED_EDGE ( 'NONE', *, *, #180, .F. ) ;
#70 = DIRECTION ( 'NONE',  ( 0.0000000000000000000, 0.0000000000000000000, -1.000000000000000000 ) ) ;
#71 = AXIS2_PLACEMENT_3D ( 'NONE', #244, #78, #274 ) ;
#72 = DIRECTION ( 'NONE',  ( -1.000000000000000000, 0.0000000000000000000, 0.0000000000000000000 ) ) ;
#73 = LINE ( 'NONE', #43, #137 ) ;
#74 = FACE_OUTER_BOUND ( 'NONE', #295, .T. ) ;
#75 = DIRECTION ( 'NONE',  ( -1.000000000000000000, -0.0000000000000000000, -0.0000000000000000000 ) ) ;
#76 = DIRECTION ( 'NONE',  ( 1.000000000000000000, -0.0000000000000000000, -0.0000000000000000000 ) ) ;
#77 = VERTEX_POINT ( 'NONE', #67 ) ;
#78 = DIRECTION ( 'NONE',  ( 0.0000000000000000000, -1.000000000000000000, -1.387778780781445700E-016 ) ) ;
#79 = CARTESIAN_POINT ( 'NONE',  ( 1000.000000000000000, -149.9999999999999700, -100.0000000000000000 ) ) ;
#80 = MECHANICAL_DESIGN_GEOMETRIC_PRESENTATION_REPRESENTATION (  '', ( #276 ), #189 ) ;
#81 = ORIENTED_EDGE ( 'NONE', *, *, #176, .T. ) ;
#82 = PLANE ( 'NONE',  #225 ) ;
#83 = APPLICATION_PROTOCOL_DEFINITION ( 'draft international standard', 'automotive_design', 1998, #250 ) ;
#84 = VECTOR ( 'NONE', #75, 1000.000000000000000 ) ;
#85 = APPLICATION_PROTOCOL_DEFINITION ( 'draft international standard', 'automotive_design', 1998, #111 ) ;
#86 = DIRECTION ( 'NONE',  ( -0.0000000000000000000, -0.0000000000000000000, -1.000000000000000000 ) ) ;
#87 = ORIENTED_EDGE ( 'NONE', *, *, #180, .T. ) ;
#88 = EDGE_CURVE ( 'NONE', #174, #349, #53, .T. ) ;
#89 = COLOUR_RGB ( '',0.7921568627450980000, 0.8196078431372548800, 0.9333333333333333500 ) ;
#90 = ORIENTED_EDGE ( 'NONE', *, *, #286, .F. ) ;
#91 = DIRECTION ( 'NONE',  ( 0.0000000000000000000, -1.387778780781445700E-016, 1.000000000000000000 ) ) ;
#92 = LINE ( 'NONE', #49, #56 ) ;
#93 = MECHANICAL_DESIGN_GEOMETRIC_PRESENTATION_REPRESENTATION (  '', ( #191 ), #200 ) ;
#94 = ORIENTED_EDGE ( 'NONE', *, *, #60, .F. ) ;
#95 = ORIENTED_EDGE ( 'NONE', *, *, #44, .F. ) ;
#96 = FILL_AREA_STYLE ('',( #48 ) ) ;
#97 = DIRECTION ( 'NONE',  ( -1.000000000000000000, -0.0000000000000000000, -0.0000000000000000000 ) ) ;
#98 = DIRECTION ( 'NONE',  ( -0.0000000000000000000, 0.0000000000000000000, -1.000000000000000000 ) ) ;
#99 = VERTEX_POINT ( 'NONE', #300 ) ;
#100 = DIRECTION ( 'NONE',  ( -0.0000000000000000000, 0.0000000000000000000, -1.000000000000000000 ) ) ;
#101 = AXIS2_PLACEMENT_3D ( 'NONE', #308, #358, #186 ) ;
#102 = VERTEX_POINT ( 'NONE', #228 ) ;
#103 = CARTESIAN_POINT ( 'NONE',  ( -1030.000000000000000, 0.0000000000000000000, 0.0000000000000000000 ) ) ;
#104 = EDGE_CURVE ( 'NONE', #102, #10, #133, .T. ) ;
#105 = VERTEX_POINT ( 'NONE', #153 ) ;
#106 = ADVANCED_FACE ( 'NONE', ( #74 ), #205, .F. ) ;
#107 = FACE_OUTER_BOUND ( 'NONE', #194, .T. ) ;
#108 = AXIS2_PLACEMENT_3D ( 'NONE', #364, #100, #72 ) ;
#109 = LINE ( 'NONE', #167, #333 ) ;
#110 = DIRECTION ( 'NONE',  ( -0.0000000000000000000, 0.0000000000000000000, -1.000000000000000000 ) ) ;
#111 = APPLICATION_CONTEXT ( 'automotive_design' ) ;
#112 = FACE_OUTER_BOUND ( 'NONE', #197, .T. ) ;
#113 = MANIFOLD_SOLID_BREP ( 'Ressalto-extrusão1', #296 ) ;
#114 = ORIENTED_EDGE ( 'NONE', *, *, #35, .T. ) ;
#115 = CARTESIAN_POINT ( 'NONE',  ( 0.0000000000000000000, 0.0000000000000000000, 0.0000000000000000000 ) ) ;
#116 = PRESENTATION_STYLE_ASSIGNMENT (( #302 ) ) ;
#117 = EDGE_CURVE ( 'NONE', #292, #6, #272, .T. ) ;
#118 = VERTEX_POINT ( 'NONE', #125 ) ;
#119 = CARTESIAN_POINT ( 'NONE',  ( -1030.000000000000000, 150.0000000000000600, -100.0000000000000000 ) ) ;
#120 = DIRECTION ( 'NONE',  ( -0.0000000000000000000, 0.0000000000000000000, -1.000000000000000000 ) ) ;
#121 = VECTOR ( 'NONE', #190, 1000.000000000000000 ) ;
#122 = DIRECTION ( 'NONE',  ( -0.0000000000000000000, 1.387778780781445700E-016, -1.000000000000000000 ) ) ;
#123 = VECTOR ( 'NONE', #293, 1000.000000000000000 ) ;
#124 = ORIENTED_EDGE ( 'NONE', *, *, #261, .F. ) ;
#125 = CARTESIAN_POINT ( 'NONE',  ( 0.0000000000000000000, 150.0000000000000600, -100.0000000000000000 ) ) ;
#126 = PRODUCT_DEFINITION ( 'UNKNOWN', '', #8, #270 ) ;
#127 = CARTESIAN_POINT ( 'NONE',  ( -1030.000000000000000, -149.9999999999999700, -100.0000000000000000 ) ) ;
#128 = FACE_OUTER_BOUND ( 'NONE', #258, .T. ) ;
#129 = CARTESIAN_POINT ( 'NONE',  ( -1030.000000000000000, -149.9999999999999700, -100.0000000000000000 ) ) ;
#130 = ORIENTED_EDGE ( 'NONE', *, *, #290, .F. ) ;
#131 = PLANE ( 'NONE',  #140 ) ;
#132 = DIRECTION ( 'NONE',  ( 0.0000000000000000000, 1.000000000000000000, 0.0000000000000000000 ) ) ;
#133 = LINE ( 'NONE', #119, #259 ) ;
#134 = ADVANCED_FACE ( 'NONE', ( #144 ), #325, .T. ) ;
#135 = VECTOR ( 'NONE', #97, 1000.000000000000000 ) ;
#136 = ORIENTED_EDGE ( 'NONE', *, *, #88, .T. ) ;
#137 = VECTOR ( 'NONE', #122, 1000.000000000000000 ) ;
#138 = ORIENTED_EDGE ( 'NONE', *, *, #330, .F. ) ;
#139 = EDGE_LOOP ( 'NONE', ( #322, #54, #130, #280 ) ) ;
#140 = AXIS2_PLACEMENT_3D ( 'NONE', #127, #363, #21 ) ;
#141 = LINE ( 'NONE', #209, #135 ) ;
#142 = PLANE ( 'NONE',  #299 ) ;
#143 = ORIENTED_EDGE ( 'NONE', *, *, #117, .F. ) ;
#144 = FACE_OUTER_BOUND ( 'NONE', #139, .T. ) ;
#145 = ORIENTED_EDGE ( 'NONE', *, *, #195, .F. ) ;
#146 = EDGE_LOOP ( 'NONE', ( #42, #124, #94, #81 ) ) ;
#147 = CARTESIAN_POINT ( 'NONE',  ( -1030.000000000000000, -149.9999999999999700, 100.0000000000000000 ) ) ;
#148 = ORIENTED_EDGE ( 'NONE', *, *, #198, .F. ) ;
#149 =( LENGTH_UNIT ( ) NAMED_UNIT ( * ) SI_UNIT ( .MILLI., .METRE. ) );
#150 =( NAMED_UNIT ( * ) SI_UNIT ( $, .STERADIAN. ) SOLID_ANGLE_UNIT ( ) );
#151 = AXIS2_PLACEMENT_3D ( 'NONE', #147, #353, #24 ) ;
#152 = ORIENTED_EDGE ( 'NONE', *, *, #226, .T. ) ;
#153 = CARTESIAN_POINT ( 'NONE',  ( 0.0000000000000000000, -149.9999999999999700, -100.0000000000000000 ) ) ;
#154 = DIRECTION ( 'NONE',  ( -0.0000000000000000000, -0.0000000000000000000, 1.000000000000000000 ) ) ;
#155 = COLOUR_RGB ( '',0.7921568627450980000, 0.8196078431372548800, 0.9333333333333333500 ) ;
#156 = ORIENTED_EDGE ( 'NONE', *, *, #12, .F. ) ;
#157 = DIRECTION ( 'NONE',  ( 1.000000000000000000, -0.0000000000000000000, -0.0000000000000000000 ) ) ;
#158 = ORIENTED_EDGE ( 'NONE', *, *, #256, .F. ) ;
#159 = DIRECTION ( 'NONE',  ( -0.0000000000000000000, 1.387778780781445700E-016, -1.000000000000000000 ) ) ;
#160 = PRESENTATION_STYLE_ASSIGNMENT (( #278 ) ) ;
#161 = EDGE_LOOP ( 'NONE', ( #32, #145, #90, #114 ) ) ;
#162 = ADVANCED_FACE ( 'NONE', ( #128 ), #354, .F. ) ;
#163 = LINE ( 'NONE', #215, #304 ) ;
#164 = CARTESIAN_POINT ( 'NONE',  ( 0.0000000000000000000, -149.9999999999999700, 100.0000000000000000 ) ) ;
#165 = VERTEX_POINT ( 'NONE', #357 ) ;
#166 =( GEOMETRIC_REPRESENTATION_CONTEXT ( 3 ) GLOBAL_UNCERTAINTY_ASSIGNED_CONTEXT ( ( #9 ) ) GLOBAL_UNIT_ASSIGNED_CONTEXT ( ( #252, #345, #249 ) ) REPRESENTATION_CONTEXT ( 'NONE', 'WORKASPACE' ) );
#167 = CARTESIAN_POINT ( 'NONE',  ( 0.0000000000000000000, 150.0000000000000600, -100.0000000000000000 ) ) ;
#168 = VECTOR ( 'NONE', #51, 1000.000000000000000 ) ;
#169 = VECTOR ( 'NONE', #289, 1000.000000000000000 ) ;
#170 = ORIENTED_EDGE ( 'NONE', *, *, #60, .T. ) ;
#171 = DIRECTION ( 'NONE',  ( -0.0000000000000000000, 0.0000000000000000000, -1.000000000000000000 ) ) ;
#172 = FACE_OUTER_BOUND ( 'NONE', #221, .T. ) ;
#173 = CARTESIAN_POINT ( 'NONE',  ( 1000.000000000000000, -149.9999999999999700, -100.0000000000000000 ) ) ;
#174 = VERTEX_POINT ( 'NONE', #129 ) ;
#175 =( NAMED_UNIT ( * ) SI_UNIT ( $, .STERADIAN. ) SOLID_ANGLE_UNIT ( ) );
#176 = EDGE_CURVE ( 'NONE', #6, #118, #294, .T. ) ;
#177 = CARTESIAN_POINT ( 'NONE',  ( -1030.000000000000000, -149.9999999999999700, -100.0000000000000000 ) ) ;
#178 = FACE_OUTER_BOUND ( 'NONE', #263, .T. ) ;
#179 = CARTESIAN_POINT ( 'NONE',  ( 1000.000000000000000, 150.0000000000000600, -100.0000000000000000 ) ) ;
#180 = EDGE_CURVE ( 'NONE', #174, #61, #351, .T. ) ;
#181 = DIRECTION ( 'NONE',  ( -0.0000000000000000000, 1.000000000000000000, -0.0000000000000000000 ) ) ;
#182 = VECTOR ( 'NONE', #311, 1000.000000000000000 ) ;
#183 = DIRECTION ( 'NONE',  ( -0.0000000000000000000, -0.0000000000000000000, -1.000000000000000000 ) ) ;
#184 = ADVANCED_BREP_SHAPE_REPRESENTATION ( 'rectangular_volumes_disconnected', ( #113, #36, #39 ), #267 ) ;
#185 = SHAPE_DEFINITION_REPRESENTATION ( #251, #184 ) ;
#186 = DIRECTION ( 'NONE',  ( 1.000000000000000000, 0.0000000000000000000, -0.0000000000000000000 ) ) ;
#187 = EDGE_LOOP ( 'NONE', ( #30, #87, #152, #346 ) ) ;
#188 = DIRECTION ( 'NONE',  ( 1.000000000000000000, 0.0000000000000000000, -0.0000000000000000000 ) ) ;
#189 =( GEOMETRIC_REPRESENTATION_CONTEXT ( 3 ) GLOBAL_UNCERTAINTY_ASSIGNED_CONTEXT ( ( #241 ) ) GLOBAL_UNIT_ASSIGNED_CONTEXT ( ( #149, #264, #175 ) ) REPRESENTATION_CONTEXT ( 'NONE', 'WORKASPACE' ) );
#190 = DIRECTION ( 'NONE',  ( -0.0000000000000000000, -1.000000000000000000, -0.0000000000000000000 ) ) ;
#191 = STYLED_ITEM ( 'NONE', ( #37 ), #113 ) ;
#192 = DIRECTION ( 'NONE',  ( 1.000000000000000000, 0.0000000000000000000, 0.0000000000000000000 ) ) ;
#193 = VECTOR ( 'NONE', #132, 1000.000000000000000 ) ;
#194 = EDGE_LOOP ( 'NONE', ( #305, #15, #246, #170 ) ) ;
#195 = EDGE_CURVE ( 'NONE', #292, #105, #347, .T. ) ;
#196 = LINE ( 'NONE', #50, #253 ) ;
#197 = EDGE_LOOP ( 'NONE', ( #306, #213, #95, #208 ) ) ;
#198 = EDGE_CURVE ( 'NONE', #105, #118, #206, .T. ) ;
#199 = UNCERTAINTY_MEASURE_WITH_UNIT (LENGTH_MEASURE( 1.000000000000000100E-005 ), #227, 'distance_accuracy_value', 'NONE');
#200 =( GEOMETRIC_REPRESENTATION_CONTEXT ( 3 ) GLOBAL_UNCERTAINTY_ASSIGNED_CONTEXT ( ( #23 ) ) GLOBAL_UNIT_ASSIGNED_CONTEXT ( ( #327, #14, #150 ) ) REPRESENTATION_CONTEXT ( 'NONE', 'WORKASPACE' ) );
#201 = ORIENTED_EDGE ( 'NONE', *, *, #290, .T. ) ;
#202 = CARTESIAN_POINT ( 'NONE',  ( -30.00000000000000000, 150.0000000000000600, -100.0000000000000000 ) ) ;
#203 = ORIENTED_EDGE ( 'NONE', *, *, #88, .F. ) ;
#204 = CARTESIAN_POINT ( 'NONE',  ( 0.0000000000000000000, -149.9999999999999700, 100.0000000000000000 ) ) ;
#205 = PLANE ( 'NONE',  #315 ) ;
#206 = LINE ( 'NONE', #337, #193 ) ;
#207 = DIRECTION ( 'NONE',  ( 1.000000000000000000, -0.0000000000000000000, -0.0000000000000000000 ) ) ;
#208 = ORIENTED_EDGE ( 'NONE', *, *, #243, .T. ) ;
#209 = CARTESIAN_POINT ( 'NONE',  ( 1000.000000000000000, -149.9999999999999700, 100.0000000000000000 ) ) ;
#210 = LINE ( 'NONE', #164, #182 ) ;
#211 = PLANE ( 'NONE',  #108 ) ;
#212 = ORIENTED_EDGE ( 'NONE', *, *, #261, .T. ) ;
#213 = ORIENTED_EDGE ( 'NONE', *, *, #104, .F. ) ;
#214 = CARTESIAN_POINT ( 'NONE',  ( 1000.000000000000000, -149.9999999999999700, -100.0000000000000000 ) ) ;
#215 = CARTESIAN_POINT ( 'NONE',  ( -1030.000000000000000, -149.9999999999999700, 100.0000000000000000 ) ) ;
#216 = AXIS2_PLACEMENT_3D ( 'NONE', #173, #63, #11 ) ;
#217 = ADVANCED_FACE ( 'NONE', ( #248 ), #22, .F. ) ;
#218 = DIRECTION ( 'NONE',  ( -1.000000000000000000, -0.0000000000000000000, -0.0000000000000000000 ) ) ;
#219 = SURFACE_STYLE_FILL_AREA ( #316 ) ;
#220 = LINE ( 'NONE', #323, #123 ) ;
#221 = EDGE_LOOP ( 'NONE', ( #201, #366, #326, #317 ) ) ;
#222 = SURFACE_STYLE_FILL_AREA ( #66 ) ;
#223 = DIRECTION ( 'NONE',  ( 1.000000000000000000, 0.0000000000000000000, -0.0000000000000000000 ) ) ;
#224 = EDGE_CURVE ( 'NONE', #359, #10, #344, .T. ) ;
#225 = AXIS2_PLACEMENT_3D ( 'NONE', #34, #223, #110 ) ;
#226 = EDGE_CURVE ( 'NONE', #61, #362, #196, .T. ) ;
#227 =( LENGTH_UNIT ( ) NAMED_UNIT ( * ) SI_UNIT ( .MILLI., .METRE. ) );
#228 = CARTESIAN_POINT ( 'NONE',  ( -1030.000000000000000, 150.0000000000000600, -100.0000000000000000 ) ) ;
#229 = PLANE ( 'NONE',  #216 ) ;
#230 = LINE ( 'NONE', #41, #269 ) ;
#231 = VERTEX_POINT ( 'NONE', #361 ) ;
#232 = DIRECTION ( 'NONE',  ( -1.000000000000000000, 0.0000000000000000000, -0.0000000000000000000 ) ) ;
#233 = ORIENTED_EDGE ( 'NONE', *, *, #195, .T. ) ;
#234 = CARTESIAN_POINT ( 'NONE',  ( 1000.000000000000000, -149.9999999999999700, 100.0000000000000000 ) ) ;
#235 = EDGE_LOOP ( 'NONE', ( #20, #58, #143, #233 ) ) ;
#236 = DIRECTION ( 'NONE',  ( 0.0000000000000000000, -1.387778780781445700E-016, 1.000000000000000000 ) ) ;
#237 = PRESENTATION_LAYER_ASSIGNMENT (  '', '', ( #257 ) ) ;
#238 = COLOUR_RGB ( '',0.7921568627450980000, 0.8196078431372548800, 0.9333333333333333500 ) ;
#239 = CARTESIAN_POINT ( 'NONE',  ( 1000.000000000000000, 150.0000000000000300, 100.0000000000000000 ) ) ;
#240 = ORIENTED_EDGE ( 'NONE', *, *, #312, .T. ) ;
#241 = UNCERTAINTY_MEASURE_WITH_UNIT (LENGTH_MEASURE( 1.000000000000000100E-005 ), #149, 'distance_accuracy_value', 'NONE');
#242 = CARTESIAN_POINT ( 'NONE',  ( 1000.000000000000000, -149.9999999999999700, -100.0000000000000000 ) ) ;
#243 = EDGE_CURVE ( 'NONE', #362, #359, #92, .T. ) ;
#244 = CARTESIAN_POINT ( 'NONE',  ( -1030.000000000000000, 150.0000000000000600, -100.0000000000000000 ) ) ;
#245 = CARTESIAN_POINT ( 'NONE',  ( -30.00000000000000000, 150.0000000000000600, -100.0000000000000000 ) ) ;
#246 = ORIENTED_EDGE ( 'NONE', *, *, #117, .T. ) ;
#247 = AXIS2_PLACEMENT_3D ( 'NONE', #19, #47, #120 ) ;
#248 = FACE_OUTER_BOUND ( 'NONE', #187, .T. ) ;
#249 =( NAMED_UNIT ( * ) SI_UNIT ( $, .STERADIAN. ) SOLID_ANGLE_UNIT ( ) );
#250 = APPLICATION_CONTEXT ( 'automotive_design' ) ;
#251 = PRODUCT_DEFINITION_SHAPE ( 'NONE', 'NONE',  #126 ) ;
#252 =( LENGTH_UNIT ( ) NAMED_UNIT ( * ) SI_UNIT ( .MILLI., .METRE. ) );
#253 = VECTOR ( 'NONE', #181, 1000.000000000000000 ) ;
#254 = ADVANCED_FACE ( 'NONE', ( #266 ), #25, .F. ) ;
#255 = ORIENTED_EDGE ( 'NONE', *, *, #35, .F. ) ;
#256 = EDGE_CURVE ( 'NONE', #61, #231, #163, .T. ) ;
#257 = STYLED_ITEM ( 'NONE', ( #160 ), #184 ) ;
#258 = EDGE_LOOP ( 'NONE', ( #287, #158, #69, #136 ) ) ;
#259 = VECTOR ( 'NONE', #297, 1000.000000000000000 ) ;
#260 = VECTOR ( 'NONE', #307, 1000.000000000000000 ) ;
#261 = EDGE_CURVE ( 'NONE', #77, #165, #7, .T. ) ;
#262 = SURFACE_STYLE_USAGE ( .BOTH. , #265 ) ;
#263 = EDGE_LOOP ( 'NONE', ( #301, #203, #285, #335 ) ) ;
#264 =( NAMED_UNIT ( * ) PLANE_ANGLE_UNIT ( ) SI_UNIT ( $, .RADIAN. ) );
#265 = SURFACE_SIDE_STYLE ('',( #222 ) ) ;
#266 = FACE_OUTER_BOUND ( 'NONE', #235, .T. ) ;
#267 =( GEOMETRIC_REPRESENTATION_CONTEXT ( 3 ) GLOBAL_UNCERTAINTY_ASSIGNED_CONTEXT ( ( #199 ) ) GLOBAL_UNIT_ASSIGNED_CONTEXT ( ( #227, #281, #57 ) ) REPRESENTATION_CONTEXT ( 'NONE', 'WORKASPACE' ) );
#268 = FILL_AREA_STYLE_COLOUR ( '', #155 ) ;
#269 = VECTOR ( 'NONE', #154, 1000.000000000000000 ) ;
#270 = PRODUCT_DEFINITION_CONTEXT ( 'detailed design', #111, 'design' ) ;
#271 = CARTESIAN_POINT ( 'NONE',  ( 0.0000000000000000000, -149.9999999999999700, -100.0000000000000000 ) ) ;
#272 = LINE ( 'NONE', #303, #62 ) ;
#273 = CARTESIAN_POINT ( 'NONE',  ( 1000.000000000000000, 150.0000000000000600, -100.0000000000000000 ) ) ;
#274 = DIRECTION ( 'NONE',  ( 0.0000000000000000000, 1.387778780781445700E-016, -1.000000000000000000 ) ) ;
#275 = CLOSED_SHELL ( 'NONE', ( #283, #162, #279, #309, #217, #134 ) ) ;
#276 = STYLED_ITEM ( 'NONE', ( #116 ), #36 ) ;
#277 = LINE ( 'NONE', #282, #121 ) ;
#278 = SURFACE_STYLE_USAGE ( .BOTH. , #343 ) ;
#279 = ADVANCED_FACE ( 'NONE', ( #172 ), #211, .F. ) ;
#280 = ORIENTED_EDGE ( 'NONE', *, *, #38, .F. ) ;
#281 =( NAMED_UNIT ( * ) PLANE_ANGLE_UNIT ( ) SI_UNIT ( $, .RADIAN. ) );
#282 = CARTESIAN_POINT ( 'NONE',  ( 1000.000000000000000, -149.9999999999999700, 100.0000000000000000 ) ) ;
#283 = ADVANCED_FACE ( 'NONE', ( #178 ), #131, .F. ) ;
#284 = LINE ( 'NONE', #298, #40 ) ;
#285 = ORIENTED_EDGE ( 'NONE', *, *, #17, .F. ) ;
#286 = EDGE_CURVE ( 'NONE', #99, #292, #324, .T. ) ;
#287 = ORIENTED_EDGE ( 'NONE', *, *, #38, .T. ) ;
#288 = VECTOR ( 'NONE', #183, 1000.000000000000000 ) ;
#289 = DIRECTION ( 'NONE',  ( -0.0000000000000000000, -1.000000000000000000, -0.0000000000000000000 ) ) ;
#290 = EDGE_CURVE ( 'NONE', #231, #359, #59, .T. ) ;
#291 = AXIS2_PLACEMENT_3D ( 'NONE', #103, #188, #98 ) ;
#292 = VERTEX_POINT ( 'NONE', #242 ) ;
#293 = DIRECTION ( 'NONE',  ( -0.0000000000000000000, -1.000000000000000000, -0.0000000000000000000 ) ) ;
#294 = LINE ( 'NONE', #273, #168 ) ;
#295 = EDGE_LOOP ( 'NONE', ( #240, #255, #138, #212 ) ) ;
#296 = CLOSED_SHELL ( 'NONE', ( #106, #3, #254, #52, #339, #28 ) ) ;
#297 = DIRECTION ( 'NONE',  ( 1.000000000000000000, -0.0000000000000000000, -0.0000000000000000000 ) ) ;
#298 = CARTESIAN_POINT ( 'NONE',  ( 1000.000000000000000, 150.0000000000000600, -100.0000000000000000 ) ) ;
#299 = AXIS2_PLACEMENT_3D ( 'NONE', #115, #348, #171 ) ;
#300 = CARTESIAN_POINT ( 'NONE',  ( 1000.000000000000000, -149.9999999999999700, 100.0000000000000000 ) ) ;
#301 = ORIENTED_EDGE ( 'NONE', *, *, #26, .T. ) ;
#302 = SURFACE_STYLE_USAGE ( .BOTH. , #65 ) ;
#303 = CARTESIAN_POINT ( 'NONE',  ( 1000.000000000000000, -149.9999999999999700, -100.0000000000000000 ) ) ;
#304 = VECTOR ( 'NONE', #157, 1000.000000000000000 ) ;
#305 = ORIENTED_EDGE ( 'NONE', *, *, #330, .T. ) ;
#306 = ORIENTED_EDGE ( 'NONE', *, *, #224, .T. ) ;
#307 = DIRECTION ( 'NONE',  ( -0.0000000000000000000, 1.000000000000000000, -0.0000000000000000000 ) ) ;
#308 = CARTESIAN_POINT ( 'NONE',  ( 1000.000000000000000, -149.9999999999999700, -100.0000000000000000 ) ) ;
#309 = ADVANCED_FACE ( 'NONE', ( #112 ), #360, .F. ) ;
#310 = DIRECTION ( 'NONE',  ( -0.0000000000000000000, -0.0000000000000000000, 1.000000000000000000 ) ) ;
#311 = DIRECTION ( 'NONE',  ( -0.0000000000000000000, -1.000000000000000000, -0.0000000000000000000 ) ) ;
#312 = EDGE_CURVE ( 'NONE', #165, #64, #210, .T. ) ;
#313 = FACE_OUTER_BOUND ( 'NONE', #146, .T. ) ;
#314 = FILL_AREA_STYLE_COLOUR ( '', #89 ) ;
#315 = AXIS2_PLACEMENT_3D ( 'NONE', #234, #70, #232 ) ;
#316 = FILL_AREA_STYLE ('',( #314 ) ) ;
#317 = ORIENTED_EDGE ( 'NONE', *, *, #256, .T. ) ;
#318 = PRESENTATION_LAYER_ASSIGNMENT (  '', '', ( #276 ) ) ;
#319 = ORIENTED_EDGE ( 'NONE', *, *, #338, .F. ) ;
#320 = CARTESIAN_POINT ( 'NONE',  ( 1000.000000000000000, 150.0000000000000600, -100.0000000000000000 ) ) ;
#321 = VECTOR ( 'NONE', #159, 1000.000000000000000 ) ;
#322 = ORIENTED_EDGE ( 'NONE', *, *, #26, .F. ) ;
#323 = CARTESIAN_POINT ( 'NONE',  ( -30.00000000000000000, -149.9999999999999700, -100.0000000000000000 ) ) ;
#324 = LINE ( 'NONE', #214, #288 ) ;
#325 = PLANE ( 'NONE',  #247 ) ;
#326 = ORIENTED_EDGE ( 'NONE', *, *, #226, .F. ) ;
#327 =( LENGTH_UNIT ( ) NAMED_UNIT ( * ) SI_UNIT ( .MILLI., .METRE. ) );
#328 = DIRECTION ( 'NONE',  ( 0.0000000000000000000, -1.000000000000000000, -1.387778780781445700E-016 ) ) ;
#329 = VECTOR ( 'NONE', #310, 1000.000000000000000 ) ;
#330 = EDGE_CURVE ( 'NONE', #77, #99, #277, .T. ) ;
#331 = PRODUCT_RELATED_PRODUCT_CATEGORY ( 'part', '', ( #355 ) ) ;
#332 = DIRECTION ( 'NONE',  ( 0.0000000000000000000, 1.000000000000000000, 0.0000000000000000000 ) ) ;
#333 = VECTOR ( 'NONE', #91, 1000.000000000000000 ) ;
#334 = CARTESIAN_POINT ( 'NONE',  ( -1030.000000000000000, -149.9999999999999700, 100.0000000000000000 ) ) ;
#335 = ORIENTED_EDGE ( 'NONE', *, *, #104, .T. ) ;
#336 = CARTESIAN_POINT ( 'NONE',  ( -30.00000000000000000, 150.0000000000000300, 100.0000000000000000 ) ) ;
#337 = CARTESIAN_POINT ( 'NONE',  ( 0.0000000000000000000, -149.9999999999999700, -100.0000000000000000 ) ) ;
#338 = EDGE_CURVE ( 'NONE', #64, #105, #46, .T. ) ;
#339 = ADVANCED_FACE ( 'NONE', ( #107 ), #82, .T. ) ;
#340 = VECTOR ( 'NONE', #86, 1000.000000000000000 ) ;
#341 = DIRECTION ( 'NONE',  ( 0.0000000000000000000, 0.0000000000000000000, 1.000000000000000000 ) ) ;
#342 = LINE ( 'NONE', #352, #169 ) ;
#343 = SURFACE_SIDE_STYLE ('',( #219 ) ) ;
#344 = LINE ( 'NONE', #245, #321 ) ;
#345 =( NAMED_UNIT ( * ) PLANE_ANGLE_UNIT ( ) SI_UNIT ( $, .RADIAN. ) );
#346 = ORIENTED_EDGE ( 'NONE', *, *, #44, .T. ) ;
#347 = LINE ( 'NONE', #79, #84 ) ;
#348 = DIRECTION ( 'NONE',  ( 1.000000000000000000, 0.0000000000000000000, -0.0000000000000000000 ) ) ;
#349 = VERTEX_POINT ( 'NONE', #365 ) ;
#350 = SURFACE_STYLE_FILL_AREA ( #96 ) ;
#351 = LINE ( 'NONE', #334, #329 ) ;
#352 = CARTESIAN_POINT ( 'NONE',  ( -1030.000000000000000, -149.9999999999999700, -100.0000000000000000 ) ) ;
#353 = DIRECTION ( 'NONE',  ( 0.0000000000000000000, 1.000000000000000000, 0.0000000000000000000 ) ) ;
#354 = PLANE ( 'NONE',  #151 ) ;
#355 = PRODUCT ( 'rectangular_volumes_disconnected', 'rectangular_volumes_disconnected', '', ( #4 ) ) ;
#356 = EDGE_LOOP ( 'NONE', ( #27, #156, #148, #319 ) ) ;
#357 = CARTESIAN_POINT ( 'NONE',  ( 0.0000000000000000000, 150.0000000000000300, 100.0000000000000000 ) ) ;
#358 = DIRECTION ( 'NONE',  ( 0.0000000000000000000, 0.0000000000000000000, 1.000000000000000000 ) ) ;
#359 = VERTEX_POINT ( 'NONE', #31 ) ;
#360 = PLANE ( 'NONE',  #71 ) ;
#361 = CARTESIAN_POINT ( 'NONE',  ( -30.00000000000000000, -149.9999999999999700, 100.0000000000000000 ) ) ;
#362 = VERTEX_POINT ( 'NONE', #367 ) ;
#363 = DIRECTION ( 'NONE',  ( 0.0000000000000000000, -0.0000000000000000000, 1.000000000000000000 ) ) ;
#364 = CARTESIAN_POINT ( 'NONE',  ( -1030.000000000000000, 150.0000000000000300, 100.0000000000000000 ) ) ;
#365 = CARTESIAN_POINT ( 'NONE',  ( -30.00000000000000000, -149.9999999999999700, -100.0000000000000000 ) ) ;
#366 = ORIENTED_EDGE ( 'NONE', *, *, #243, .F. ) ;
#367 = CARTESIAN_POINT ( 'NONE',  ( -1030.000000000000000, 150.0000000000000300, 100.0000000000000000 ) ) ;
ENDSEC;
END-ISO-10303-21;
