ISO-10303-21;
HEADER;
FILE_DESCRIPTION (( 'STEP AP214' ),
    '1' );
FILE_NAME ('triangle_1m.STEP',
    '2025-09-07T14:45:30',
    ( '' ),
    ( '' ),
    'SwSTEP 2.0',
    'SolidWorks 2015',
    '' );
FILE_SCHEMA (( 'AUTOMOTIVE_DESIGN' ));
ENDSEC;

DATA;
#1 = ORIENTED_EDGE ( 'NONE', *, *, #25, .T. ) ;
#2 =( LENGTH_UNIT ( ) NAMED_UNIT ( * ) SI_UNIT ( .MILLI., .METRE. ) );
#3 = CARTESIAN_POINT ( 'NONE',  ( 0.0000000000000000000, 1000.000000000000000, 0.0000000000000000000 ) ) ;
#4 = ADVANCED_FACE ( 'NONE', ( #22 ), #6, .T. ) ;
#5 = PRODUCT_DEFINITION_SHAPE ( 'NONE', 'NONE',  #65 ) ;
#6 = PLANE ( 'NONE',  #49 ) ;
#7 = EDGE_CURVE ( 'NONE', #28, #16, #42, .T. ) ;
#8 =( LENGTH_UNIT ( ) NAMED_UNIT ( * ) SI_UNIT ( .MILLI., .METRE. ) );
#9 =( NAMED_UNIT ( * ) SI_UNIT ( $, .STERADIAN. ) SOLID_ANGLE_UNIT ( ) );
#10 = APPLICATION_PROTOCOL_DEFINITION ( 'draft international standard', 'automotive_design', 1998, #20 ) ;
#11 =( NAMED_UNIT ( * ) SI_UNIT ( $, .STERADIAN. ) SOLID_ANGLE_UNIT ( ) );
#12 = CARTESIAN_POINT ( 'NONE',  ( 1000.000000000000000, 0.0000000000000000000, 0.0000000000000000000 ) ) ;
#13 = VECTOR ( 'NONE', #60, 1000.000000000000100 ) ;
#14 = PRODUCT_DEFINITION_CONTEXT ( 'detailed design', #51, 'design' ) ;
#15 = PRESENTATION_STYLE_ASSIGNMENT (( #62 ) ) ;
#16 = VERTEX_POINT ( 'NONE', #3 ) ;
#17 = FILL_AREA_STYLE_COLOUR ( '', #30 ) ;
#18 = OPEN_SHELL ( 'NONE', ( #4 ) ) ;
#19 = DIRECTION ( 'NONE',  ( 1.000000000000000000, 0.0000000000000000000, 0.0000000000000000000 ) ) ;
#20 = APPLICATION_CONTEXT ( 'automotive_design' ) ;
#21 = UNCERTAINTY_MEASURE_WITH_UNIT (LENGTH_MEASURE( 1.000000000000000100E-005 ), #2, 'distance_accuracy_value', 'NONE');
#22 = FACE_OUTER_BOUND ( 'NONE', #70, .T. ) ;
#23 = CARTESIAN_POINT ( 'NONE',  ( 0.0000000000000000000, 0.0000000000000000000, 0.0000000000000000000 ) ) ;
#24 = ORIENTED_EDGE ( 'NONE', *, *, #7, .T. ) ;
#25 = EDGE_CURVE ( 'NONE', #58, #28, #71, .T. ) ;
#26 = PRODUCT_CONTEXT ( 'NONE', #20, 'mechanical' ) ;
#27 = PRODUCT_DEFINITION_FORMATION_WITH_SPECIFIED_SOURCE ( 'ANY', '', #35, .NOT_KNOWN. ) ;
#28 = VERTEX_POINT ( 'NONE', #68 ) ;
#29 = SHAPE_DEFINITION_REPRESENTATION ( #5, #53 ) ;
#30 = COLOUR_RGB ( '',0.7921568627450980000, 0.8196078431372548800, 0.9333333333333333500 ) ;
#31 = SURFACE_SIDE_STYLE ('',( #39 ) ) ;
#32 = FILL_AREA_STYLE ('',( #17 ) ) ;
#33 =( NAMED_UNIT ( * ) PLANE_ANGLE_UNIT ( ) SI_UNIT ( $, .RADIAN. ) );
#34 = UNCERTAINTY_MEASURE_WITH_UNIT (LENGTH_MEASURE( 1.000000000000000100E-005 ), #8, 'distance_accuracy_value', 'NONE');
#35 = PRODUCT ( 'triangle_1m', 'triangle_1m', '', ( #26 ) ) ;
#36 = DIRECTION ( 'NONE',  ( -0.0000000000000000000, 0.0000000000000000000, 1.000000000000000000 ) ) ;
#37 = CARTESIAN_POINT ( 'NONE',  ( 0.0000000000000000000, 1000.000000000000000, 0.0000000000000000000 ) ) ;
#38 = ORIENTED_EDGE ( 'NONE', *, *, #47, .T. ) ;
#39 = SURFACE_STYLE_FILL_AREA ( #32 ) ;
#40 = CARTESIAN_POINT ( 'NONE',  ( 0.0000000000000000000, 0.0000000000000000000, 0.0000000000000000000 ) ) ;
#41 = APPLICATION_PROTOCOL_DEFINITION ( 'draft international standard', 'automotive_design', 1998, #51 ) ;
#42 = LINE ( 'NONE', #12, #13 ) ;
#43 = PRESENTATION_LAYER_ASSIGNMENT (  '', '', ( #64 ) ) ;
#44 = DIRECTION ( 'NONE',  ( 0.0000000000000000000, 0.0000000000000000000, 1.000000000000000000 ) ) ;
#45 = CARTESIAN_POINT ( 'NONE',  ( 0.0000000000000000000, 0.0000000000000000000, 0.0000000000000000000 ) ) ;
#46 = DIRECTION ( 'NONE',  ( 1.000000000000000000, 0.0000000000000000000, 0.0000000000000000000 ) ) ;
#47 = EDGE_CURVE ( 'NONE', #16, #58, #54, .T. ) ;
#48 = VECTOR ( 'NONE', #46, 1000.000000000000000 ) ;
#49 = AXIS2_PLACEMENT_3D ( 'NONE', #23, #36, #19 ) ;
#50 =( NAMED_UNIT ( * ) PLANE_ANGLE_UNIT ( ) SI_UNIT ( $, .RADIAN. ) );
#51 = APPLICATION_CONTEXT ( 'automotive_design' ) ;
#52 = DIRECTION ( 'NONE',  ( 0.0000000000000000000, -1.000000000000000000, 0.0000000000000000000 ) ) ;
#53 = MANIFOLD_SURFACE_SHAPE_REPRESENTATION ( 'triangle_1m', ( #66, #63 ), #57 ) ;
#54 = LINE ( 'NONE', #37, #56 ) ;
#55 = MECHANICAL_DESIGN_GEOMETRIC_PRESENTATION_REPRESENTATION (  '', ( #64 ), #59 ) ;
#56 = VECTOR ( 'NONE', #52, 1000.000000000000000 ) ;
#57 =( GEOMETRIC_REPRESENTATION_CONTEXT ( 3 ) GLOBAL_UNCERTAINTY_ASSIGNED_CONTEXT ( ( #34 ) ) GLOBAL_UNIT_ASSIGNED_CONTEXT ( ( #8, #33, #9 ) ) REPRESENTATION_CONTEXT ( 'NONE', 'WORKASPACE' ) );
#58 = VERTEX_POINT ( 'NONE', #40 ) ;
#59 =( GEOMETRIC_REPRESENTATION_CONTEXT ( 3 ) GLOBAL_UNCERTAINTY_ASSIGNED_CONTEXT ( ( #21 ) ) GLOBAL_UNIT_ASSIGNED_CONTEXT ( ( #2, #50, #11 ) ) REPRESENTATION_CONTEXT ( 'NONE', 'WORKASPACE' ) );
#60 = DIRECTION ( 'NONE',  ( -0.7071067811865474600, 0.7071067811865474600, 0.0000000000000000000 ) ) ;
#61 = DIRECTION ( 'NONE',  ( 1.000000000000000000, 0.0000000000000000000, 0.0000000000000000000 ) ) ;
#62 = SURFACE_STYLE_USAGE ( .BOTH. , #31 ) ;
#63 = AXIS2_PLACEMENT_3D ( 'NONE', #45, #44, #61 ) ;
#64 = STYLED_ITEM ( 'NONE', ( #15 ), #53 ) ;
#65 = PRODUCT_DEFINITION ( 'UNKNOWN', '', #27, #14 ) ;
#66 = SHELL_BASED_SURFACE_MODEL ( 'NONE', ( #18 ) );
#67 = CARTESIAN_POINT ( 'NONE',  ( 0.0000000000000000000, 0.0000000000000000000, 0.0000000000000000000 ) ) ;
#68 = CARTESIAN_POINT ( 'NONE',  ( 1000.000000000000000, 0.0000000000000000000, 0.0000000000000000000 ) ) ;
#69 = PRODUCT_RELATED_PRODUCT_CATEGORY ( 'part', '', ( #35 ) ) ;
#70 = EDGE_LOOP ( 'NONE', ( #38, #1, #24 ) ) ;
#71 = LINE ( 'NONE', #67, #48 ) ;
ENDSEC;
END-ISO-10303-21;
